<?xml version="1.0" encoding="utf-8"?>
<!-- Generator: Adobe Illustrator 23.1.0, SVG Export Plug-In . SVG Version: 6.00 Build 0)  -->
<svg version="1.1" id="Layer_1" xmlns="http://www.w3.org/2000/svg" xmlns:xlink="http://www.w3.org/1999/xlink" x="0px" y="0px"
	 viewBox="0 0 500 500" style="enable-background:new 0 0 500 500;" xml:space="preserve">
<style type="text/css">
	.st0{fill:#FFE9EF;}
	.st1{fill:#E0BA89;}
	.st2{fill:#EF9825;}
	.st3{fill:#FFD629;}
	.st4{fill:#BF976B;}
	.st5{fill:#231F20;}
	.st6{fill:#2B3860;}
	.st7{fill:#6464F4;}
	.st8{fill:#4545CE;}
	.st9{fill:#9FC6FF;}
	.st10{fill:#9797C4;}
	.st11{fill:#B4B4D6;}
	.st12{fill:#D0D0EF;}
	.st13{fill:#8090B7;}
	.st14{fill:#EBEEFF;}
	.st15{fill:#FF5252;}
	.st16{fill:#BDC3DB;}
	.st17{fill:none;stroke:#231F20;stroke-width:14.2344;stroke-linecap:round;stroke-linejoin:round;stroke-miterlimit:10;}
	.st18{fill:#91673F;}
	.st19{fill:#FFFFFF;}
	.st20{fill:#FFB45A;}
	.st21{fill:#E4E4F2;}
</style>
<g>
	<g>
		<path class="st7" d="M461.3,247.2l-53.2,52.7c-7.6,7.6-20,7.6-27.6,0L184.8,105.8c-7.6-7.5-7.6-19.9,0-27.4l21.6-21.4l10-10
			L238,25.6c7.7-7.5,20.1-7.5,27.7,0l195.7,194.2C469,227.3,469,239.6,461.3,247.2z"/>
	</g>
	<g>
		<path class="st6" d="M265.8,234.1l-47.1,46.7l-10-10l42.1-41.7l-108.9-108c-9.6-9.5-14.9-22.1-14.9-35.6s5.3-26,14.9-35.5l3-3
			c9.5-9.5,22.3-14.7,35.8-14.7c13.5,0,26.2,5.2,35.8,14.7l-10,10c-6.8-6.8-16-10.6-25.8-10.6c-9.7,0-18.9,3.8-25.8,10.6l-3,3
			c-6.8,6.8-10.7,15.9-10.7,25.6s3.8,18.7,10.7,25.6l113.9,113C268.6,226.8,268.6,231.3,265.8,234.1z"/>
	</g>
	<g>
		<path class="st1" d="M239.5,301.3l-94.7,94c-14.2,14.1-37.3,14.1-51.5,0c-14.2-14.1-14.2-37,0-51.2l94.7-93.9l20.8,20.6l10,10
			L239.5,301.3z"/>
	</g>
</g>
</svg>
