<?xml version="1.0" encoding="utf-8"?>
<!-- Generator: Adobe Illustrator 23.1.0, SVG Export Plug-In . SVG Version: 6.00 Build 0)  -->
<svg version="1.1" id="Layer_1" xmlns="http://www.w3.org/2000/svg" xmlns:xlink="http://www.w3.org/1999/xlink" x="0px" y="0px"
	 viewBox="0 0 500 500" style="enable-background:new 0 0 500 500;" xml:space="preserve">
<style type="text/css">
	.st0{fill:#FFE9EF;}
	.st1{fill:#E0BA89;}
	.st2{fill:#EF9825;}
	.st3{fill:#FFD629;}
	.st4{fill:#BF976B;}
	.st5{fill:#231F20;}
	.st6{fill:#2B3860;}
	.st7{fill:#6464F4;}
	.st8{fill:#4545CE;}
	.st9{fill:#9FC6FF;}
	.st10{fill:#9797C4;}
	.st11{fill:#B4B4D6;}
	.st12{fill:#D0D0EF;}
	.st13{fill:#8090B7;}
	.st14{fill:#EBEEFF;}
	.st15{fill:#FF5252;}
	.st16{fill:#BDC3DB;}
	.st17{fill:none;stroke:#231F20;stroke-width:14.2344;stroke-linecap:round;stroke-linejoin:round;stroke-miterlimit:10;}
	.st18{fill:#91673F;}
	.st19{fill:#FFFFFF;}
	.st20{fill:#FFB45A;}
	.st21{fill:#E4E4F2;}
</style>
<g>
	<g>
		<g>
			<rect x="79.9" y="357.6" class="st1" width="185.3" height="75.1"/>
		</g>
		<g>
			<rect x="265.2" y="357.6" class="st1" width="188.7" height="75.1"/>
		</g>
		<g>
			<rect x="79.9" y="57.2" class="st1" width="185.3" height="75.1"/>
		</g>
		<g>
			<rect x="164.6" y="132.3" class="st4" width="201.2" height="75.1"/>
		</g>
		<g>
			<rect x="79.9" y="132.3" class="st4" width="84.7" height="75.1"/>
		</g>
		<g>
			<rect x="79.9" y="207.4" class="st1" width="185.3" height="75.1"/>
		</g>
		<g>
			<rect x="79.9" y="282.5" class="st4" width="84.7" height="75.1"/>
		</g>
		<g>
			<rect x="365.8" y="282.5" class="st4" width="88.2" height="75.1"/>
		</g>
		<g>
			<rect x="164.6" y="282.5" class="st4" width="201.2" height="75.1"/>
		</g>
		<g>
			<rect x="265.2" y="207.4" class="st1" width="188.7" height="75.1"/>
		</g>
	</g>
	<path class="st5" d="M454,200.3h-81.1v-68c0-3.9-3.2-7.1-7.1-7.1h-93.4v-68c0-3.9-3.2-7.1-7.1-7.1H79.9c-3.9,0-7.1,3.2-7.1,7.1
		v75.1v75.1v75.1v75.1v75.1c0,3.9,3.2,7.1,7.1,7.1h185.3H454c3.9,0,7.1-3.2,7.1-7.1v-75.1v-75.1v-75.1
		C461.1,203.5,457.9,200.3,454,200.3z M265.2,350.4h-93.5v-60.9h93.5h93.4v60.9H265.2z M87,350.4v-60.9h70.5v60.9H87z M258.1,275.4
		h-93.5H87v-60.9h77.6h93.5V275.4z M157.5,200.3H87v-60.9h70.5V200.3z M372.9,289.6h74v60.9h-74V289.6z M446.9,275.4h-81.1h-93.4
		v-60.9h93.4h81.1V275.4z M358.7,200.3h-93.4h-93.5v-60.9h93.5h93.4V200.3z M87,64.3h171.1v60.9h-93.5H87V64.3z M87,364.7h77.6h93.5
		v60.9H87V364.7z M446.9,425.5H272.3v-60.9h93.4h81.1V425.5z"/>
</g>
</svg>
