<?xml version="1.0" encoding="utf-8"?>
<!-- Generator: Adobe Illustrator 23.1.0, SVG Export Plug-In . SVG Version: 6.00 Build 0)  -->
<svg version="1.1" id="Layer_1" xmlns="http://www.w3.org/2000/svg" xmlns:xlink="http://www.w3.org/1999/xlink" x="0px" y="0px"
	 viewBox="0 0 500 500" style="enable-background:new 0 0 500 500;" xml:space="preserve">
<style type="text/css">
	.st0{fill:#FFE9EF;}
	.st1{fill:#E0BA89;}
	.st2{fill:#EF9825;}
	.st3{fill:#FFD629;}
	.st4{fill:#BF976B;}
	.st5{fill:#231F20;}
	.st6{fill:#2B3860;}
	.st7{fill:#6464F4;}
	.st8{fill:#4545CE;}
	.st9{fill:#9FC6FF;}
	.st10{fill:#9797C4;}
	.st11{fill:#B4B4D6;}
	.st12{fill:#D0D0EF;}
	.st13{fill:#8090B7;}
	.st14{fill:#EBEEFF;}
	.st15{fill:#FF5252;}
	.st16{fill:#BDC3DB;}
	.st17{fill:none;stroke:#231F20;stroke-width:14.2344;stroke-linecap:round;stroke-linejoin:round;stroke-miterlimit:10;}
	.st18{fill:#91673F;}
	.st19{fill:#FFFFFF;}
	.st20{fill:#FFB45A;}
	.st21{fill:#E4E4F2;}
</style>
<g>
	<g>
		<g>
			<path class="st1" d="M341.7,345l-22.1,22.1c-13.8,13.8-34,19.2-52.9,14l-64.6-17.7l-0.1,0l-61.5,61.5
				c-11.8,11.8-30.9,11.8-42.7,0c-5.9-5.9-8.8-13.6-8.8-21.4c0-7.8,2.9-15.5,8.8-21.4l61.5-61.5l0-0.2l-17.7-64.6
				c-5.2-18.8,0.2-39,14-52.9l22.1-22.1L341.7,345z"/>
		</g>
		<g>
			
				<rect x="240.2" y="100" transform="matrix(0.7071 -0.7071 0.7071 0.7071 -62.8582 280.1507)" class="st14" width="133" height="232"/>
		</g>
		<g>
			<circle class="st18" cx="120.6" cy="403.6" r="12"/>
		</g>
		<g>
			<path class="st16" d="M257.8,154.8c-1.8,0-3.6-0.7-5-2.1c-2.8-2.8-2.8-7.3,0-10.1l37.3-37.3c2.8-2.8,7.3-2.8,10.1,0
				s2.8,7.3,0,10.1l-37.3,37.3C261.5,154.1,259.6,154.8,257.8,154.8z"/>
		</g>
		<g>
			<path class="st16" d="M282.5,179.5c-1.8,0-3.6-0.7-5-2.1c-2.8-2.8-2.8-7.3,0-10.1l37.3-37.3c2.8-2.8,7.3-2.8,10.1,0
				s2.8,7.3,0,10.1l-37.3,37.3C286.2,178.8,284.4,179.5,282.5,179.5z"/>
		</g>
		<g>
			<path class="st16" d="M305.5,202.4c-1.8,0-3.6-0.7-5-2.1c-2.8-2.8-2.8-7.3,0-10.1l37.3-37.3c2.8-2.8,7.3-2.8,10.1,0
				s2.8,7.3,0,10.1l-37.3,37.3C309.1,201.7,307.3,202.4,305.5,202.4z"/>
		</g>
	</g>
	<g>
		<path class="st5" d="M440.8,245.9l-164-164c-2.7-2.7-7.4-2.7-10.1,0l-94.1,94.1L150.6,198c-15.6,15.6-21.7,38.5-15.9,59.8
			l16.7,60.8l-58.6,58.6c-7.1,7.1-10.9,16.5-10.9,26.3c-0.1,10,3.8,19.4,10.9,26.4c7.3,7.3,16.8,10.9,26.3,10.9
			c9.6,0,19.1-3.6,26.4-10.9l58.6-58.6l60.8,16.6c21.3,5.8,44.2-0.3,59.8-15.9l22.1-22.1l94.1-94.1c1.3-1.3,2.1-3.1,2.1-5
			C442.9,249,442.2,247.2,440.8,245.9z M314.6,362.1c-12,12-29.6,16.7-45.9,12.2l-64.5-17.6c-2.6-0.8-5.3-0.2-7.2,1.7l-61.5,61.5
			c-9,9-23.6,9-32.6,0c-4.4-4.4-6.7-10.1-6.7-16.4c0-6.1,2.3-11.9,6.7-16.3l61.5-61.5c1.7-1.7,2.4-4,2-6.3c0-0.2-0.1-0.6-0.2-0.8
			L148.4,254c-4.5-16.3,0.2-34,12.2-45.9l17.1-17.1l77,77l77,77L314.6,362.1z M341.7,334.9l-77-77l-77-77l84-84l13.3,13.3
			l-32.3,32.3c-2.8,2.8-2.8,7.3,0,10.1c1.4,1.4,3.2,2.1,5,2.1c1.8,0,3.6-0.7,5-2.1l32.3-32.3l14.7,14.7l-32.3,32.3
			c-2.8,2.8-2.8,7.3,0,10.1c1.4,1.4,3.2,2.1,5,2.1c1.8,0,3.6-0.7,5-2.1l32.3-32.3l12.9,12.9l-32.3,32.3c-2.8,2.8-2.8,7.3,0,10.1
			c1.4,1.4,3.2,2.1,5,2.1c1.8,0,3.6-0.7,5-2.1l32.3-32.3l82.9,82.9L341.7,334.9z"/>
		<circle class="st5" cx="120.6" cy="403.6" r="12"/>
	</g>
</g>
</svg>
