<?xml version="1.0" encoding="utf-8"?>
<!-- Generator: Adobe Illustrator 23.1.0, SVG Export Plug-In . SVG Version: 6.00 Build 0)  -->
<svg version="1.1" id="Layer_1" xmlns="http://www.w3.org/2000/svg" xmlns:xlink="http://www.w3.org/1999/xlink" x="0px" y="0px"
	 viewBox="0 0 500 500" style="enable-background:new 0 0 500 500;" xml:space="preserve">
<style type="text/css">
	.st0{fill:#FFE9EF;}
	.st1{fill:#E0BA89;}
	.st2{fill:#EF9825;}
	.st3{fill:#FFD629;}
	.st4{fill:#BF976B;}
	.st5{fill:#231F20;}
	.st6{fill:#2B3860;}
	.st7{fill:#6464F4;}
	.st8{fill:#4545CE;}
	.st9{fill:#9FC6FF;}
	.st10{fill:#9797C4;}
	.st11{fill:#B4B4D6;}
	.st12{fill:#D0D0EF;}
	.st13{fill:#8090B7;}
	.st14{fill:#EBEEFF;}
	.st15{fill:#FF5252;}
	.st16{fill:#BDC3DB;}
	.st17{fill:none;stroke:#231F20;stroke-width:14.2344;stroke-linecap:round;stroke-linejoin:round;stroke-miterlimit:10;}
	.st18{fill:#91673F;}
	.st19{fill:#FFFFFF;}
	.st20{fill:#FFB45A;}
	.st21{fill:#E4E4F2;}
</style>
<g>
	<g>
		<g>
			<path class="st6" d="M413.8,413.1c0,24.6-19.9,44.6-44.5,44.6c-24.6,0-44.5-19.9-44.5-44.6c0-3.8,0.4-7.4,1.4-10.8
				c4.7-19.4,22.2-33.7,43.1-33.7c20.9,0,38.3,14.3,43.1,33.7C413.4,405.7,413.8,409.3,413.8,413.1z"/>
		</g>
		<g>
			<path class="st6" d="M216.6,413.1c0,24.6-19.9,44.6-44.5,44.6s-44.5-19.9-44.5-44.6c0-3.8,0.4-7.4,1.4-10.8
				c4.8-19.4,22.2-33.7,43.1-33.7s38.3,14.3,43.1,33.7C216.2,405.7,216.6,409.3,216.6,413.1z"/>
		</g>
		<g>
			<path class="st15" d="M473.5,339.4v62.9h-61.1c-4.8-19.4-22.3-33.7-43.1-33.7c-20.9,0-38.4,14.3-43.1,33.7h-111
				c-4.8-19.4-22.3-33.7-43.1-33.7s-38.3,14.3-43.1,33.7H94.6v-62.9h214.3V191.3h120.8l8.3,28h-90.8v88.2H464L473.5,339.4z"/>
		</g>
		<g>
			<polygon class="st14" points="464,307.4 347.1,307.4 347.1,219.2 437.9,219.2 			"/>
		</g>
	</g>
	<g>
		<g>
			<polygon class="st2" points="280.6,129.3 260.8,315.7 26.5,266.4 33.6,129.3 			"/>
		</g>
	</g>
	<g>
		<g>
			<path class="st2" d="M344.3,89.6h-67.4c-3.6,0-6.7,2.7-7.1,6.4l-3.5,32.6c0,0.2,0,0.4,0.1,0.6h14.2l2.7-25.3h61
				c3.9,0,7.1-3.2,7.1-7.1S348.3,89.6,344.3,89.6z"/>
		</g>
	</g>
	<g>
		<g>
			<path class="st20" d="M199.7,266.1c-0.3,0-0.6,0-1-0.1c-3.9-0.5-6.6-4.1-6.1-8l13.4-98.3c0.5-3.9,4.1-6.6,8-6.1
				c3.9,0.5,6.6,4.1,6.1,8L206.8,260C206.3,263.6,203.2,266.1,199.7,266.1z"/>
		</g>
	</g>
	<g>
		<g>
			<path class="st20" d="M141.1,252.8c-0.3,0-0.6,0-1-0.1c-3.9-0.5-6.6-4.1-6.1-8l11.6-85c0.5-3.9,4.1-6.6,8-6.1
				c3.9,0.5,6.6,4.1,6.1,8l-11.6,85C147.7,250.2,144.6,252.8,141.1,252.8z"/>
		</g>
	</g>
	<g>
		<g>
			<path class="st20" d="M80.6,235.4c-0.4,0-0.7,0-1.1-0.1c-3.9-0.6-6.5-4.3-5.9-8.1l10.9-69.8c0.6-3.9,4.2-6.5,8.1-5.9
				c3.9,0.6,6.5,4.3,5.9,8.1l-10.9,69.8C87.1,232.9,84.1,235.4,80.6,235.4z"/>
		</g>
	</g>
</g>
</svg>
