<?xml version="1.0" encoding="utf-8"?>
<!-- Generator: Adobe Illustrator 23.1.0, SVG Export Plug-In . SVG Version: 6.00 Build 0)  -->
<svg version="1.1" id="Layer_1" xmlns="http://www.w3.org/2000/svg" xmlns:xlink="http://www.w3.org/1999/xlink" x="0px" y="0px"
	 viewBox="0 0 500 500" style="enable-background:new 0 0 500 500;" xml:space="preserve">
<style type="text/css">
	.st0{fill:#FFE9EF;}
	.st1{fill:#E0BA89;}
	.st2{fill:#EF9825;}
	.st3{fill:#FFD629;}
	.st4{fill:#BF976B;}
	.st5{fill:#231F20;}
	.st6{fill:#2B3860;}
	.st7{fill:#6464F4;}
	.st8{fill:#4545CE;}
	.st9{fill:#9FC6FF;}
	.st10{fill:#9797C4;}
	.st11{fill:#B4B4D6;}
	.st12{fill:#D0D0EF;}
	.st13{fill:#8090B7;}
	.st14{fill:#EBEEFF;}
	.st15{fill:#FF5252;}
	.st16{fill:#BDC3DB;}
	.st17{fill:none;stroke:#231F20;stroke-width:14.2344;stroke-linecap:round;stroke-linejoin:round;stroke-miterlimit:10;}
	.st18{fill:#91673F;}
	.st19{fill:#FFFFFF;}
	.st20{fill:#FFB45A;}
	.st21{fill:#E4E4F2;}
</style>
<g>
	<g>
		<polygon class="st0" points="119.3,144.3 47.4,208.9 47.4,144.3 		"/>
	</g>
	<g>
		<path class="st1" d="M124.5,143.7c-1.2-12.8-11.8-22.8-24.9-22.8h-1.8c-13.1,0-23.7,10-24.9,22.8H124.5z"/>
	</g>
	<g>
		<rect x="72.7" y="287.2" class="st1" width="52.1" height="122.3"/>
	</g>
	<g>
		<g>
			<g>
				<polygon class="st2" points="410.8,144.3 252.1,287.1 155.1,287.1 313.9,144.3 				"/>
			</g>
			<g>
				<polygon class="st0" points="313.5,144.3 154.6,287.1 57.8,287.1 216.5,144.3 				"/>
			</g>
			<g>
				<polygon class="st2" points="216.5,144.3 57.8,287.1 47.4,287.1 47.4,208.9 119.3,144.3 				"/>
			</g>
			<g>
				<polygon class="st0" points="427.9,144.3 427.9,216.5 349.4,287.1 252.1,287.1 410.8,144.3 				"/>
			</g>
			<g>
				<polygon class="st3" points="252.1,287.1 349.4,287.1 349,287.5 251.6,287.5 				"/>
			</g>
		</g>
		<g>
			<polygon class="st2" points="427.9,216.5 427.9,287.1 349.4,287.1 			"/>
		</g>
		<g>
			<path class="st1" d="M399.1,143.7c-1.2-12.8-11.8-22.8-24.9-22.8h-1.8c-13.1,0-23.7,10-24.9,22.8H399.1z"/>
		</g>
		<g>
			<rect x="347.2" y="287.2" class="st1" width="52.1" height="122.3"/>
		</g>
		<g>
			<rect x="124.8" y="335.9" class="st4" width="222.4" height="29.6"/>
		</g>
	</g>
</g>
</svg>
