<?xml version="1.0" encoding="utf-8"?>
<!-- Generator: Adobe Illustrator 23.1.0, SVG Export Plug-In . SVG Version: 6.00 Build 0)  -->
<svg version="1.1" id="Layer_1" xmlns="http://www.w3.org/2000/svg" xmlns:xlink="http://www.w3.org/1999/xlink" x="0px" y="0px"
	 viewBox="0 0 500 500" style="enable-background:new 0 0 500 500;" xml:space="preserve">
<style type="text/css">
	.st0{fill:#FFE9EF;}
	.st1{fill:#E0BA89;}
	.st2{fill:#EF9825;}
	.st3{fill:#FFD629;}
	.st4{fill:#BF976B;}
	.st5{fill:#231F20;}
	.st6{fill:#2B3860;}
	.st7{fill:#6464F4;}
	.st8{fill:#4545CE;}
	.st9{fill:#9FC6FF;}
	.st10{fill:#9797C4;}
	.st11{fill:#B4B4D6;}
	.st12{fill:#D0D0EF;}
	.st13{fill:#8090B7;}
	.st14{fill:#EBEEFF;}
	.st15{fill:#FF5252;}
	.st16{fill:#BDC3DB;}
	.st17{fill:none;stroke:#231F20;stroke-width:14.2344;stroke-linecap:round;stroke-linejoin:round;stroke-miterlimit:10;}
	.st18{fill:#91673F;}
	.st19{fill:#FFFFFF;}
	.st20{fill:#FFB45A;}
	.st21{fill:#E4E4F2;}
</style>
<g>
	<path class="st5" d="M253.2,131.1c-2.7-2.3-6.6-2.3-9.3,0L110.3,246c-1.6,1.4-2.5,3.3-2.5,5.4v179.8c0,3.9,3.2,7.1,7.1,7.1H204
		h90.7h87.4c3.9,0,7.1-3.2,7.1-7.1V251.4c0-2.1-0.9-4-2.5-5.4L253.2,131.1z M211.1,424.1v-55.7c0-21.1,17.2-38.2,38.2-38.2
		c21.1,0,38.2,17.2,38.2,38.2v55.7H211.1z M375,424.1h-73.2v-55.7c0-28.9-23.5-52.5-52.5-52.5s-52.5,23.5-52.5,52.5v55.7H122V254.7
		l126.5-108.7L375,254.7V424.1z"/>
	<path class="st5" d="M451.2,213.8L254.5,51.7c-2.6-2.2-6.4-2.2-9,0l-56.3,46.4V71.6c0-3.9-3.2-7.1-7.1-7.1h-58.5
		c-3.9,0-7.1,3.2-7.1,7.1V158l-67.7,55.7c-3,2.5-3.5,7-1,10L70.1,251c1.2,1.5,2.9,2.4,4.8,2.6c1.9,0.2,3.8-0.4,5.2-1.6L250,112.1
		L419.8,252c1.3,1.1,2.9,1.6,4.5,1.6c2.1,0,4.1-0.9,5.5-2.6l22.4-27.2c1.2-1.5,1.8-3.3,1.6-5.2C453.6,216.7,452.7,215,451.2,213.8z
		 M130.6,78.7h44.3v31.1l-44.3,36.5V78.7z M423.3,236.4L254.5,97.3c-1.3-1.1-2.9-1.6-4.5-1.6c-1.6,0-3.2,0.5-4.5,1.6L76.6,236.4
		l-13.3-16.2l64.7-53.3c0,0,0,0,0,0l10-8.3L250,66.4l186.7,153.8L423.3,236.4z"/>
</g>
</svg>
