<?xml version="1.0" encoding="utf-8"?>
<!-- Generator: Adobe Illustrator 23.1.0, SVG Export Plug-In . SVG Version: 6.00 Build 0)  -->
<svg version="1.1" id="Layer_1" xmlns="http://www.w3.org/2000/svg" xmlns:xlink="http://www.w3.org/1999/xlink" x="0px" y="0px"
	 viewBox="0 0 500 500" style="enable-background:new 0 0 500 500;" xml:space="preserve">
<style type="text/css">
	.st0{fill:#FFE9EF;}
	.st1{fill:#E0BA89;}
	.st2{fill:#EF9825;}
	.st3{fill:#FFD629;}
	.st4{fill:#BF976B;}
	.st5{fill:#231F20;}
	.st6{fill:#2B3860;}
	.st7{fill:#6464F4;}
	.st8{fill:#4545CE;}
	.st9{fill:#9FC6FF;}
	.st10{fill:#9797C4;}
	.st11{fill:#B4B4D6;}
	.st12{fill:#D0D0EF;}
	.st13{fill:#8090B7;}
	.st14{fill:#EBEEFF;}
	.st15{fill:#FF5252;}
	.st16{fill:#BDC3DB;}
	.st17{fill:none;stroke:#231F20;stroke-width:14.2344;stroke-linecap:round;stroke-linejoin:round;stroke-miterlimit:10;}
	.st18{fill:#91673F;}
	.st19{fill:#FFFFFF;}
	.st20{fill:#FFB45A;}
	.st21{fill:#E4E4F2;}
</style>
<g>
	<g>
		<path class="st14" d="M312.7,345.1l-83.9-83.9l35.1-35.1c2.9-2.9,4.4-6.7,4.4-10.6c0.1-3.9-1.5-7.7-4.4-10.6
			c-5.8-5.8-15.3-5.9-21.2,0L207.6,240l-83.9-83.9c-9.9-9.9-5.8-26.8,7.5-31.2l280.3-91.7c14.6-4.7,28.5,9.1,23.7,23.7l-91.2,280.8
			C339.6,350.9,322.6,355,312.7,345.1z"/>
	</g>
	<g>
		<path class="st16" d="M263.9,226.1l-74.4,74.4l-21.2-21.2l74.4-74.4c5.9-5.9,15.4-5.8,21.2,0c2.9,2.9,4.4,6.7,4.4,10.6
			C268.4,219.3,266.8,223.2,263.9,226.1z"/>
	</g>
	<g>
		<path class="st1" d="M68.4,400.5L68.4,400.5c-15.5-15.5-15.5-40.7,0-56.2l82.5-82.5l56.2,56.2l-82.5,82.5
			C109.1,416,83.9,416,68.4,400.5z"/>
	</g>
</g>
</svg>
