<?xml version="1.0" encoding="utf-8"?>
<!-- Generator: Adobe Illustrator 23.1.0, SVG Export Plug-In . SVG Version: 6.00 Build 0)  -->
<svg version="1.1" id="Layer_1" xmlns="http://www.w3.org/2000/svg" xmlns:xlink="http://www.w3.org/1999/xlink" x="0px" y="0px"
	 viewBox="0 0 500 500" style="enable-background:new 0 0 500 500;" xml:space="preserve">
<style type="text/css">
	.st0{fill:#FFE9EF;}
	.st1{fill:#E0BA89;}
	.st2{fill:#EF9825;}
	.st3{fill:#FFD629;}
	.st4{fill:#BF976B;}
	.st5{fill:#231F20;}
	.st6{fill:#2B3860;}
	.st7{fill:#6464F4;}
	.st8{fill:#4545CE;}
	.st9{fill:#9FC6FF;}
	.st10{fill:#9797C4;}
	.st11{fill:#B4B4D6;}
	.st12{fill:#D0D0EF;}
	.st13{fill:#8090B7;}
	.st14{fill:#EBEEFF;}
	.st15{fill:#FF5252;}
	.st16{fill:#BDC3DB;}
	.st17{fill:none;stroke:#231F20;stroke-width:14.2344;stroke-linecap:round;stroke-linejoin:round;stroke-miterlimit:10;}
	.st18{fill:#91673F;}
	.st19{fill:#FFFFFF;}
	.st20{fill:#FFB45A;}
	.st21{fill:#E4E4F2;}
</style>
<g>
	<g>
		<polygon class="st0" points="125.5,159.8 53.6,224.4 53.6,159.8 		"/>
	</g>
	<g>
		<path class="st1" d="M130.8,159.3c-1.2-12.8-11.8-22.8-24.9-22.8h-1.8c-13.1,0-23.7,10-24.9,22.8H130.8z"/>
	</g>
	<g>
		<rect x="79" y="302.8" class="st1" width="52.1" height="122.3"/>
	</g>
	<g>
		<g>
			<g>
				<polygon class="st2" points="417.1,159.8 258.3,302.7 161.3,302.7 320.2,159.8 				"/>
			</g>
			<g>
				<polygon class="st0" points="319.7,159.8 160.9,302.7 64,302.7 222.8,159.8 				"/>
			</g>
			<g>
				<polygon class="st2" points="222.8,159.8 64,302.7 53.6,302.7 53.6,224.4 125.5,159.8 				"/>
			</g>
			<g>
				<polygon class="st0" points="434.2,159.8 434.2,232 355.7,302.7 258.3,302.7 417.1,159.8 				"/>
			</g>
			<g>
				<polygon class="st3" points="258.3,302.7 355.7,302.7 355.3,303 257.9,303 				"/>
			</g>
		</g>
		<g>
			<polygon class="st2" points="434.2,232 434.2,302.7 355.7,302.7 			"/>
		</g>
		<g>
			<path class="st1" d="M405.3,159.3c-1.2-12.8-11.8-22.8-24.9-22.8h-1.8c-13.1,0-23.7,10-24.9,22.8H405.3z"/>
		</g>
		<g>
			<rect x="353.5" y="302.8" class="st1" width="52.1" height="122.3"/>
		</g>
		<g>
			<rect x="131" y="351.4" class="st4" width="222.4" height="29.6"/>
		</g>
	</g>
</g>
<path class="st5" d="M434.2,152.7h-17.1h-5.8c-3.9-13.6-16.3-23.3-30.9-23.3h-1.8c-14.6,0-27,9.7-30.9,23.3h-27.6
	c-0.1,0-0.1,0-0.2,0c-0.1,0-0.2,0-0.2,0h-96.9h-86c-3.9-13.6-16.3-23.3-30.9-23.3h-1.8c-14.6,0-27,9.7-30.9,23.3H53.6
	c-3.9,0-7.1,3.2-7.1,7.1v64.6v78.2c0,3.9,3.2,7.1,7.1,7.1H64h7.8V425c0,3.9,3.2,7.1,7.1,7.1H131c3.9,0,7.1-3.2,7.1-7.1v-37h208.2v37
	c0,3.9,3.2,7.1,7.1,7.1h52.1c3.9,0,7.1-3.2,7.1-7.1V309.8h21.5c3.9,0,7.1-3.2,7.1-7.1V232v-72.2
	C441.3,155.9,438.1,152.7,434.2,152.7z M378.6,143.6h1.8c6.4,0,12.1,3.4,15.2,8.5h-32.2C366.6,147,372.2,143.6,378.6,143.6z
	 M60.7,295.5v-67.9l64.3-57.8l3.2-2.9h76l-143,128.6H60.7z M82.6,295.5l143-128.6h75.6l-143,128.6H82.6z M295.1,191.9l27.8-25h75.6
	l-143,128.6h-75.7L295.1,191.9z M427.1,228.9L353,295.5h-76.1l143-128.6h7.2V228.9z M104.1,143.6h1.8c6.4,0,12.1,3.4,15.2,8.5H88.9
	C92,147,97.7,143.6,104.1,143.6z M60.7,166.9H107l-28.3,25.4l-17.9,16.1V166.9z M160.9,309.8c0.1,0,0.1,0,0.2,0c0.1,0,0.2,0,0.2,0
	h94.4c0.7,0.2,1.4,0.4,2.2,0.4h88.5v34.2H138.2v-34.5H160.9z M123.9,417.9H86.1v-108h37.8v41.5V381V417.9z M138.2,373.9v-15.3h208.2
	v15.3H138.2z M398.4,417.9h-37.8v-37v-29.6v-41.5h37.8V417.9z M374.2,295.5l52.8-47.5v47.5H374.2z"/>
</svg>
