<?xml version="1.0" encoding="utf-8"?>
<!-- Generator: Adobe Illustrator 23.1.0, SVG Export Plug-In . SVG Version: 6.00 Build 0)  -->
<svg version="1.1" id="Layer_1" xmlns="http://www.w3.org/2000/svg" xmlns:xlink="http://www.w3.org/1999/xlink" x="0px" y="0px"
	 viewBox="0 0 500 500" style="enable-background:new 0 0 500 500;" xml:space="preserve">
<style type="text/css">
	.st0{fill:#FFE9EF;}
	.st1{fill:#E0BA89;}
	.st2{fill:#EF9825;}
	.st3{fill:#FFD629;}
	.st4{fill:#BF976B;}
	.st5{fill:#231F20;}
	.st6{fill:#2B3860;}
	.st7{fill:#6464F4;}
	.st8{fill:#4545CE;}
	.st9{fill:#9FC6FF;}
	.st10{fill:#9797C4;}
	.st11{fill:#B4B4D6;}
	.st12{fill:#D0D0EF;}
	.st13{fill:#8090B7;}
	.st14{fill:#EBEEFF;}
	.st15{fill:#FF5252;}
	.st16{fill:#BDC3DB;}
	.st17{fill:none;stroke:#231F20;stroke-width:14.2344;stroke-linecap:round;stroke-linejoin:round;stroke-miterlimit:10;}
	.st18{fill:#91673F;}
	.st19{fill:#FFFFFF;}
	.st20{fill:#FFB45A;}
	.st21{fill:#E4E4F2;}
</style>
<g>
	<g>
		<g>
			<path class="st7" d="M312.1,403.6h-216c-13.9,0-25.2-11.3-25.2-25.2v-216c0-13.9,11.3-25.2,25.2-25.2h117.8
				c68.1,0,123.3,55.2,123.3,123.3v117.8C337.2,392.4,326,403.6,312.1,403.6z"/>
		</g>
		<g>
			<circle class="st6" cx="187.1" cy="270.5" r="62.3"/>
		</g>
		<g>
			<rect x="337.2" y="339" class="st2" width="141.5" height="39.5"/>
		</g>
	</g>
	<g>
		<path class="st5" d="M187,201c-38.3,0-69.5,31.2-69.5,69.5s31.2,69.5,69.5,69.5c38.3,0,69.5-31.2,69.5-69.5S225.4,201,187,201z
			 M187,325.7c-30.4,0-55.2-24.8-55.2-55.2c0-30.4,24.8-55.2,55.2-55.2s55.2,24.8,55.2,55.2C242.3,300.9,217.5,325.7,187,325.7z"/>
		<path class="st5" d="M478.7,331.9H344.3v-71.2c0-71.9-58.5-130.4-130.4-130.4H96.1c-17.8,0-32.3,14.5-32.3,32.3v216
			c0,17.8,14.5,32.3,32.3,32.3h216c15.3,0,28.2-10.8,31.4-25.1h128.1v18h14.2v-25.1V339C485.8,335.1,482.6,331.9,478.7,331.9z
			 M312.1,396.5h-216c-9.9,0-18-8.1-18-18v-216c0-9.9,8.1-18,18-18h117.8c64.1,0,116.2,52.1,116.2,116.2V339v39.5
			C330.1,388.4,322,396.5,312.1,396.5z M344.3,371.4v-25.3h127.2v25.3H344.3z"/>
	</g>
</g>
</svg>
