<?xml version="1.0" encoding="utf-8"?>
<!-- Generator: Adobe Illustrator 23.1.0, SVG Export Plug-In . SVG Version: 6.00 Build 0)  -->
<svg version="1.1" id="Layer_1" xmlns="http://www.w3.org/2000/svg" xmlns:xlink="http://www.w3.org/1999/xlink" x="0px" y="0px"
	 viewBox="0 0 500 500" style="enable-background:new 0 0 500 500;" xml:space="preserve">
<style type="text/css">
	.st0{fill:#FFE9EF;}
	.st1{fill:#E0BA89;}
	.st2{fill:#EF9825;}
	.st3{fill:#FFD629;}
	.st4{fill:#BF976B;}
	.st5{fill:#231F20;}
	.st6{fill:#2B3860;}
	.st7{fill:#6464F4;}
	.st8{fill:#4545CE;}
	.st9{fill:#9FC6FF;}
	.st10{fill:#9797C4;}
	.st11{fill:#B4B4D6;}
	.st12{fill:#D0D0EF;}
	.st13{fill:#8090B7;}
	.st14{fill:#EBEEFF;}
	.st15{fill:#FF5252;}
	.st16{fill:#BDC3DB;}
	.st17{fill:none;stroke:#231F20;stroke-width:14.2344;stroke-linecap:round;stroke-linejoin:round;stroke-miterlimit:10;}
	.st18{fill:#91673F;}
	.st19{fill:#FFFFFF;}
	.st20{fill:#FFB45A;}
	.st21{fill:#E4E4F2;}
</style>
<g>
	<g>
		<path class="st10" d="M333.9,238H121.1C79,238,45,203.9,45,161.9v0c0-42,34.1-76.1,76.1-76.1h212.8V238z"/>
	</g>
	<g>
		<rect x="333.9" y="115.6" class="st11" width="44.7" height="92.6"/>
	</g>
	<g>
		<rect x="378.5" y="141.2" class="st12" width="44.4" height="41.4"/>
	</g>
	<g>
		<path class="st6" d="M488.6,161.9c0,4-3.1,7.1-7.1,7.1h-58.6v-14.2h58.6C485.5,154.8,488.6,158,488.6,161.9z"/>
	</g>
	<g>
		<path class="st12" d="M163.5,144.7h-52.8c-3.9,0-7.1-3.2-7.1-7.1s3.2-7.1,7.1-7.1h52.8c3.9,0,7.1,3.2,7.1,7.1
			S167.4,144.7,163.5,144.7z"/>
	</g>
	<g>
		<path class="st12" d="M163.5,189.7h-52.8c-3.9,0-7.1-3.2-7.1-7.1c0-3.9,3.2-7.1,7.1-7.1h52.8c3.9,0,7.1,3.2,7.1,7.1
			C170.6,186.5,167.4,189.7,163.5,189.7z"/>
	</g>
	<g>
		<polygon class="st10" points="199.1,262.1 139.4,343 169.8,414.2 51.5,414.2 51.5,356.6 116.2,262.1 132.6,238 216.8,238 		"/>
	</g>
	<g>
		<polygon class="st11" points="181.4,286.1 245.8,286.1 280.5,238 216.8,238 		"/>
	</g>
	<g>
		<polygon class="st6" points="216.8,238 199.1,262.1 116.2,262.1 132.6,238 		"/>
	</g>
</g>
</svg>
