<?xml version="1.0" encoding="utf-8"?>
<!-- Generator: Adobe Illustrator 23.1.0, SVG Export Plug-In . SVG Version: 6.00 Build 0)  -->
<svg version="1.1" id="Layer_1" xmlns="http://www.w3.org/2000/svg" xmlns:xlink="http://www.w3.org/1999/xlink" x="0px" y="0px"
	 viewBox="0 0 500 500" style="enable-background:new 0 0 500 500;" xml:space="preserve">
<style type="text/css">
	.st0{fill:#FFE9EF;}
	.st1{fill:#E0BA89;}
	.st2{fill:#EF9825;}
	.st3{fill:#FFD629;}
	.st4{fill:#BF976B;}
	.st5{fill:#231F20;}
	.st6{fill:#2B3860;}
	.st7{fill:#6464F4;}
	.st8{fill:#4545CE;}
	.st9{fill:#9FC6FF;}
	.st10{fill:#9797C4;}
	.st11{fill:#B4B4D6;}
	.st12{fill:#D0D0EF;}
	.st13{fill:#8090B7;}
	.st14{fill:#EBEEFF;}
	.st15{fill:#FF5252;}
	.st16{fill:#BDC3DB;}
	.st17{fill:none;stroke:#231F20;stroke-width:14.2344;stroke-linecap:round;stroke-linejoin:round;stroke-miterlimit:10;}
	.st18{fill:#91673F;}
	.st19{fill:#FFFFFF;}
	.st20{fill:#FFB45A;}
	.st21{fill:#E4E4F2;}
</style>
<g>
	<g>
		<path class="st1" d="M320.8,320.1l-22.1,22.1c-13.8,13.8-34,19.2-52.9,14l-64.6-17.7l-0.1,0L119.6,400
			c-11.8,11.8-30.9,11.8-42.7,0c-5.9-5.9-8.8-13.6-8.8-21.4c0-7.8,2.9-15.5,8.8-21.4l61.5-61.5l0-0.2L120.7,231
			c-5.2-18.8,0.2-39,14-52.9l22.1-22.1L320.8,320.1z"/>
	</g>
	<g>
		
			<rect x="219.3" y="75.1" transform="matrix(0.7071 -0.7071 0.7071 0.7071 -51.3712 258.0744)" class="st14" width="133" height="232"/>
	</g>
	<g>
		<circle class="st18" cx="99.7" cy="378.7" r="12"/>
	</g>
	<g>
		<path class="st16" d="M236.9,129.9c-1.8,0-3.6-0.7-5-2.1c-2.8-2.8-2.8-7.3,0-10.1l37.3-37.3c2.8-2.8,7.3-2.8,10.1,0
			s2.8,7.3,0,10.1L242,127.8C240.6,129.2,238.7,129.9,236.9,129.9z"/>
	</g>
	<g>
		<path class="st16" d="M261.6,154.6c-1.8,0-3.6-0.7-5-2.1c-2.8-2.8-2.8-7.3,0-10.1l37.3-37.3c2.8-2.8,7.3-2.8,10.1,0
			s2.8,7.3,0,10.1l-37.3,37.3C265.3,153.9,263.5,154.6,261.6,154.6z"/>
	</g>
	<g>
		<path class="st16" d="M284.6,177.5c-1.8,0-3.6-0.7-5-2.1c-2.8-2.8-2.8-7.3,0-10.1l37.3-37.3c2.8-2.8,7.3-2.8,10.1,0
			c2.8,2.8,2.8,7.3,0,10.1l-37.3,37.3C288.2,176.8,286.4,177.5,284.6,177.5z"/>
	</g>
</g>
</svg>
