<?xml version="1.0" encoding="utf-8"?>
<!-- Generator: Adobe Illustrator 23.1.0, SVG Export Plug-In . SVG Version: 6.00 Build 0)  -->
<svg version="1.1" id="Layer_1" xmlns="http://www.w3.org/2000/svg" xmlns:xlink="http://www.w3.org/1999/xlink" x="0px" y="0px"
	 viewBox="0 0 500 500" style="enable-background:new 0 0 500 500;" xml:space="preserve">
<style type="text/css">
	.st0{fill:#FFE9EF;}
	.st1{fill:#E0BA89;}
	.st2{fill:#EF9825;}
	.st3{fill:#FFD629;}
	.st4{fill:#BF976B;}
	.st5{fill:#231F20;}
	.st6{fill:#2B3860;}
	.st7{fill:#6464F4;}
	.st8{fill:#4545CE;}
	.st9{fill:#9FC6FF;}
	.st10{fill:#9797C4;}
	.st11{fill:#B4B4D6;}
	.st12{fill:#D0D0EF;}
	.st13{fill:#8090B7;}
	.st14{fill:#EBEEFF;}
	.st15{fill:#FF5252;}
	.st16{fill:#BDC3DB;}
	.st17{fill:none;stroke:#231F20;stroke-width:14.2344;stroke-linecap:round;stroke-linejoin:round;stroke-miterlimit:10;}
	.st18{fill:#91673F;}
	.st19{fill:#FFFFFF;}
	.st20{fill:#FFB45A;}
	.st21{fill:#E4E4F2;}
</style>
<g>
	<g>
		<path class="st1" d="M233,362.6l-0.4-4.9L224.1,234L166,175.9L30.6,311.3L166,446.8l68.1-68.1L233,362.6z M176.2,376.5
			c-3.7,3.7-8.6,5.6-13.5,5.6c-4.8,0-9.8-1.9-13.5-5.6l-53.9-53.9c-7.5-7.4-7.5-19.5,0-26.9c3.7-3.8,8.5-5.6,13.5-5.6
			c4.9,0,9.8,1.9,13.5,5.6l53.9,53.9C183.7,357,183.7,369.1,176.2,376.5z"/>
	</g>
	<g>
		<polygon class="st14" points="267.3,352.2 233,362.6 232.7,357.8 224.1,234 174.9,184.7 306.4,53.2 402.5,149.3 402.4,150.5 
			400,185.5 365,196.3 358.8,198.1 358.4,204.3 355.7,241 319.1,252.2 314.6,253.6 314.3,258.2 311.6,296.6 273.1,308.4 
			270.3,309.2 270.1,312.1 		"/>
	</g>
</g>
</svg>
