<?xml version="1.0" encoding="utf-8"?>
<!-- Generator: Adobe Illustrator 23.1.0, SVG Export Plug-In . SVG Version: 6.00 Build 0)  -->
<svg version="1.1" id="Layer_1" xmlns="http://www.w3.org/2000/svg" xmlns:xlink="http://www.w3.org/1999/xlink" x="0px" y="0px"
	 viewBox="0 0 500 500" style="enable-background:new 0 0 500 500;" xml:space="preserve">
<style type="text/css">
	.st0{fill:#FFE9EF;}
	.st1{fill:#E0BA89;}
	.st2{fill:#EF9825;}
	.st3{fill:#FFD629;}
	.st4{fill:#BF976B;}
	.st5{fill:#231F20;}
	.st6{fill:#2B3860;}
	.st7{fill:#6464F4;}
	.st8{fill:#4545CE;}
	.st9{fill:#9FC6FF;}
	.st10{fill:#9797C4;}
	.st11{fill:#B4B4D6;}
	.st12{fill:#D0D0EF;}
	.st13{fill:#8090B7;}
	.st14{fill:#EBEEFF;}
	.st15{fill:#FF5252;}
	.st16{fill:#BDC3DB;}
	.st17{fill:none;stroke:#231F20;stroke-width:14.2344;stroke-linecap:round;stroke-linejoin:round;stroke-miterlimit:10;}
	.st18{fill:#91673F;}
	.st19{fill:#FFFFFF;}
	.st20{fill:#FFB45A;}
	.st21{fill:#E4E4F2;}
</style>
<g>
	<path class="st5" d="M469.2,376.3l-178.3-296c-7.7-12.8-21.2-20.4-36.1-20.4s-28.4,7.6-36.1,20.4h0l-178.3,296
		c-7.9,13.2-8.2,29-0.6,42.4c7.6,13.4,21.3,21.4,36.6,21.4h356.6c15.4,0,29.1-8,36.6-21.4C477.3,405.3,477.1,389.5,469.2,376.3z
		 M457.4,411.7c-5,8.9-14.1,14.2-24.3,14.2H76.6c-10.2,0-19.2-5.3-24.3-14.2c-5-8.9-4.9-19.4,0.4-28.1L231,87.6c0,0,0,0,0,0
		c5.1-8.4,14-13.5,23.9-13.5c9.9,0,18.8,5,23.9,13.5l178.3,296C462.2,392.4,462.4,402.9,457.4,411.7z"/>
	<path class="st5" d="M251.3,174.7c-10.6,0-20.4,4.7-27.1,12.9c-6.6,8.2-9.2,18.9-7,29.2l19,88.2c1.6,7.6,8.5,13.1,16.2,13.1
		c8,0,14.9-5.7,16.3-13.5l16.7-88.6c1.9-10.2-0.8-20.7-7.4-28.7C271.4,179.3,261.7,174.7,251.3,174.7z M271.5,213.3l-16.7,88.6
		c-0.4,2.2-4.2,2.3-4.7,0.1l-19-88.2c-1.3-6.1,0.2-12.4,4.1-17.3c3.9-4.9,9.8-7.7,16-7.7c6.1,0,11.9,2.7,15.9,7.4
		C271,201.1,272.6,207.3,271.5,213.3z"/>
	<path class="st5" d="M251.3,328.5c-14.4,0-26.1,11.7-26.1,26.1c0,14.4,11.7,26.1,26.1,26.1c14.4,0,26.1-11.7,26.1-26.1
		C277.4,340.2,265.7,328.5,251.3,328.5z M251.3,366.4c-6.6,0-11.9-5.3-11.9-11.9c0-6.5,5.3-11.9,11.9-11.9c6.5,0,11.9,5.3,11.9,11.9
		C263.1,361.1,257.8,366.4,251.3,366.4z"/>
</g>
</svg>
