<?xml version="1.0" encoding="utf-8"?>
<!-- Generator: Adobe Illustrator 23.1.0, SVG Export Plug-In . SVG Version: 6.00 Build 0)  -->
<svg version="1.1" id="Layer_1" xmlns="http://www.w3.org/2000/svg" xmlns:xlink="http://www.w3.org/1999/xlink" x="0px" y="0px"
	 viewBox="0 0 500 500" style="enable-background:new 0 0 500 500;" xml:space="preserve">
<style type="text/css">
	.st0{fill:#FFE9EF;}
	.st1{fill:#E0BA89;}
	.st2{fill:#EF9825;}
	.st3{fill:#FFD629;}
	.st4{fill:#BF976B;}
	.st5{fill:#231F20;}
	.st6{fill:#2B3860;}
	.st7{fill:#6464F4;}
	.st8{fill:#4545CE;}
	.st9{fill:#9FC6FF;}
	.st10{fill:#9797C4;}
	.st11{fill:#B4B4D6;}
	.st12{fill:#D0D0EF;}
	.st13{fill:#8090B7;}
	.st14{fill:#EBEEFF;}
	.st15{fill:#FF5252;}
	.st16{fill:#BDC3DB;}
	.st17{fill:none;stroke:#231F20;stroke-width:14.2344;stroke-linecap:round;stroke-linejoin:round;stroke-miterlimit:10;}
	.st18{fill:#91673F;}
	.st19{fill:#FFFFFF;}
	.st20{fill:#FFB45A;}
	.st21{fill:#E4E4F2;}
</style>
<path class="st5" d="M413.6,116.2L225.5,68.9V48.6c0-3.9-3.2-7.1-7.1-7.1h-97.9c-3.9,0-7.1,3.2-7.1,7.1v18.7H79
	c-2.1,0-4.1,0.9-5.4,2.5L44,104.5c-1.1,1.3-1.7,2.9-1.7,4.6v62.7c0,3.9,3.2,7.1,7.1,7.1h64v260.1H87.8c-3.9,0-7.1,3.2-7.1,7.1
	c0,3.9,3.2,7.1,7.1,7.1h32.8h97.9h30.5c3.9,0,7.1-3.2,7.1-7.1c0-3.9-3.2-7.1-7.1-7.1h-23.4V178.9h125.9v73.7h-29.2
	c-3.9,0-7.1,3.2-7.1,7.1v38.1c0,3.9,3.2,7.1,7.1,7.1h72.6c3.9,0,7.1-3.2,7.1-7.1v-38.1c0-3.9-3.2-7.1-7.1-7.1h-29.2v-73.7h46.2
	c3.9,0,7.1-3.2,7.1-7.1v-48.7C419,119.9,416.8,117,413.6,116.2z M387.7,290.8h-58.4v-23.9h58.4V290.8z M127.6,111.8l73,31.9
	l-73,31.9v-3.8V111.8z M211.3,74.4v58.4l-74.8-32.7l74.8-42.3V74.4z M138.3,272.1l73-31.9V304L138.3,272.1z M200.6,314.9l-73,31.9
	v-63.9L200.6,314.9z M127.6,261.2v-63.8l73,31.9L127.6,261.2z M127.6,368.6l73,31.9l-73,31.9V368.6z M138.3,357.7l73-31.9v63.8
	L138.3,357.7z M211.3,171.8v46.5l-73-31.9l73-31.9V171.8z M127.6,55.7h58.5l-58.5,33V74.4V55.7z M56.5,164.7v-53l25.8-30.2h31.1
	v83.2H56.5z M147.9,439.1l63.4-27.7v27.7H147.9z M404.8,164.7H225.5V83.5l179.3,45.2V164.7z"/>
</svg>
