<?xml version="1.0" encoding="utf-8"?>
<!-- Generator: Adobe Illustrator 23.1.0, SVG Export Plug-In . SVG Version: 6.00 Build 0)  -->
<svg version="1.1" id="Layer_1" xmlns="http://www.w3.org/2000/svg" xmlns:xlink="http://www.w3.org/1999/xlink" x="0px" y="0px"
	 viewBox="0 0 500 500" style="enable-background:new 0 0 500 500;" xml:space="preserve">
<style type="text/css">
	.st0{fill:#FFE9EF;}
	.st1{fill:#E0BA89;}
	.st2{fill:#EF9825;}
	.st3{fill:#FFD629;}
	.st4{fill:#BF976B;}
	.st5{fill:#231F20;}
	.st6{fill:#2B3860;}
	.st7{fill:#6464F4;}
	.st8{fill:#4545CE;}
	.st9{fill:#9FC6FF;}
	.st10{fill:#9797C4;}
	.st11{fill:#B4B4D6;}
	.st12{fill:#D0D0EF;}
	.st13{fill:#8090B7;}
	.st14{fill:#EBEEFF;}
	.st15{fill:#FF5252;}
	.st16{fill:#BDC3DB;}
	.st17{fill:none;stroke:#231F20;stroke-width:14.2344;stroke-linecap:round;stroke-linejoin:round;stroke-miterlimit:10;}
	.st18{fill:#91673F;}
	.st19{fill:#FFFFFF;}
	.st20{fill:#FFB45A;}
	.st21{fill:#E4E4F2;}
</style>
<g>
	<g>
		<g>
			<rect x="41.1" y="373.8" class="st2" width="374.9" height="68.9"/>
		</g>
		<g>
			<polygon class="st0" points="387.4,373.8 69.7,373.8 97,298.5 360.1,298.5 			"/>
		</g>
		<g>
			<polygon class="st0" points="332.8,223.2 124.3,223.2 151.6,147.9 305.5,147.9 			"/>
		</g>
		<g>
			<polygon class="st2" points="305.5,147.9 151.6,147.9 178.8,72.6 278.3,72.6 			"/>
		</g>
		<g>
			<polygon class="st2" points="360.1,298.5 97,298.5 124.3,223.2 332.8,223.2 			"/>
		</g>
	</g>
	<path class="st5" d="M416,366.7h-23.6l-25.6-70.6l-27.3-75.3c0,0,0,0,0,0c0,0,0,0,0,0l-27.3-75.3c0,0,0,0,0,0l-27.3-75.3
		c-1-2.8-3.7-4.7-6.7-4.7h-99.4c-3,0-5.7,1.9-6.7,4.7l-27.3,75.3l-27.3,75.3c0,0,0,0,0,0l-27.3,75.3c0,0,0,0,0,0c0,0,0,0,0,0
		l-25.6,70.6H41.1c-3.9,0-7.1,3.2-7.1,7.1v68.9c0,3.9,3.2,7.1,7.1,7.1H416c3.9,0,7.1-3.2,7.1-7.1v-68.9
		C423.1,369.9,419.9,366.7,416,366.7z M183.8,79.7h89.4l22.1,61.1H161.7L183.8,79.7z M156.6,155h144l22.2,61.1H134.4L156.6,155z
		 M129.3,230.3h198.6l22.1,61.1H107.1L129.3,230.3z M102,305.6h253.1l22.1,61.1H79.9L102,305.6z M408.8,435.6H48.2v-54.7h21.5h317.6
		h21.5V435.6z"/>
</g>
</svg>
