<?xml version="1.0" encoding="utf-8"?>
<!-- Generator: Adobe Illustrator 23.1.0, SVG Export Plug-In . SVG Version: 6.00 Build 0)  -->
<svg version="1.1" id="Layer_1" xmlns="http://www.w3.org/2000/svg" xmlns:xlink="http://www.w3.org/1999/xlink" x="0px" y="0px"
	 viewBox="0 0 500 500" style="enable-background:new 0 0 500 500;" xml:space="preserve">
<style type="text/css">
	.st0{fill:#FFE9EF;}
	.st1{fill:#E0BA89;}
	.st2{fill:#EF9825;}
	.st3{fill:#FFD629;}
	.st4{fill:#BF976B;}
	.st5{fill:#231F20;}
	.st6{fill:#2B3860;}
	.st7{fill:#6464F4;}
	.st8{fill:#4545CE;}
	.st9{fill:#9FC6FF;}
	.st10{fill:#9797C4;}
	.st11{fill:#B4B4D6;}
	.st12{fill:#D0D0EF;}
	.st13{fill:#8090B7;}
	.st14{fill:#EBEEFF;}
	.st15{fill:#FF5252;}
	.st16{fill:#BDC3DB;}
	.st17{fill:none;stroke:#231F20;stroke-width:14.2344;stroke-linecap:round;stroke-linejoin:round;stroke-miterlimit:10;}
	.st18{fill:#91673F;}
	.st19{fill:#FFFFFF;}
	.st20{fill:#FFB45A;}
	.st21{fill:#E4E4F2;}
</style>
<g>
	<g>
		<g>
			<path class="st6" d="M425.5,392.8c0,24.6-19.9,44.6-44.5,44.6c-24.6,0-44.5-19.9-44.5-44.6c0-3.8,0.4-7.4,1.4-10.8
				c4.7-19.4,22.2-33.7,43.1-33.7s38.3,14.3,43.1,33.7C425,385.4,425.5,389,425.5,392.8z"/>
		</g>
		<g>
			<path class="st6" d="M228.3,392.8c0,24.6-19.9,44.6-44.5,44.6s-44.5-19.9-44.5-44.6c0-3.8,0.4-7.4,1.4-10.8
				c4.8-19.4,22.2-33.7,43.1-33.7s38.3,14.3,43.1,33.7C227.9,385.4,228.3,389,228.3,392.8z"/>
		</g>
		<g>
			<path class="st2" d="M485.2,319.1V382h-61.1c-4.8-19.4-22.3-33.7-43.1-33.7s-38.4,14.3-43.1,33.7H227
				c-4.8-19.4-22.3-33.7-43.1-33.7s-38.3,14.3-43.1,33.7h-34.5v-62.9h214.3V171h120.8l8.3,28h-90.8v88.2h116.9L485.2,319.1z"/>
		</g>
		<g>
			<polygon class="st14" points="475.7,287.1 358.8,287.1 358.8,198.9 449.6,198.9 			"/>
		</g>
	</g>
	<g>
		<g>
			<path class="st16" d="M293,212.1l-31.5,58.8c-3.7,6.9-10.6,11.4-18.4,11.9l-54.3,4c-36.9,2.7-73.1-11.3-98.5-38.2L13,166.7
				c-6.7-7.1-8.1-17.7-3.5-26.3l35.2-65.7C49.3,66,58.9,61.3,68.5,63l111.1,19c36.5,6.2,68.2,28.6,86.4,60.8l26.8,47.4
				C296.6,196.9,296.7,205.2,293,212.1z"/>
		</g>
		<g>
			<g>
				<path class="st14" d="M150.7,238.3c-1.1,0-2.3-0.3-3.4-0.8c-3.5-1.9-4.8-6.2-2.9-9.6L200,124c1.9-3.5,6.2-4.8,9.6-2.9
					c3.5,1.9,4.8,6.2,2.9,9.6L157,234.6C155.7,236.9,153.2,238.3,150.7,238.3z"/>
			</g>
		</g>
	</g>
</g>
</svg>
