<?xml version="1.0" encoding="utf-8"?>
<!-- Generator: Adobe Illustrator 23.1.0, SVG Export Plug-In . SVG Version: 6.00 Build 0)  -->
<svg version="1.1" id="Layer_1" xmlns="http://www.w3.org/2000/svg" xmlns:xlink="http://www.w3.org/1999/xlink" x="0px" y="0px"
	 viewBox="0 0 500 500" style="enable-background:new 0 0 500 500;" xml:space="preserve">
<style type="text/css">
	.st0{fill:#FFE9EF;}
	.st1{fill:#E0BA89;}
	.st2{fill:#EF9825;}
	.st3{fill:#FFD629;}
	.st4{fill:#BF976B;}
	.st5{fill:#231F20;}
	.st6{fill:#2B3860;}
	.st7{fill:#6464F4;}
	.st8{fill:#4545CE;}
	.st9{fill:#9FC6FF;}
	.st10{fill:#9797C4;}
	.st11{fill:#B4B4D6;}
	.st12{fill:#D0D0EF;}
	.st13{fill:#8090B7;}
	.st14{fill:#EBEEFF;}
	.st15{fill:#FF5252;}
	.st16{fill:#BDC3DB;}
	.st17{fill:none;stroke:#231F20;stroke-width:14.2344;stroke-linecap:round;stroke-linejoin:round;stroke-miterlimit:10;}
	.st18{fill:#91673F;}
	.st19{fill:#FFFFFF;}
	.st20{fill:#FFB45A;}
	.st21{fill:#E4E4F2;}
</style>
<g>
	<g>
		<polygon class="st2" points="382.1,265.9 248.5,151 114.9,265.9 114.9,445.7 382.1,445.7 		"/>
	</g>
	<g>
		<path class="st6" d="M249.3,337.5L249.3,337.5c-25.1,0-45.4,20.3-45.4,45.4v62.8h90.7v-62.8C294.7,357.8,274.4,337.5,249.3,337.5z
			"/>
	</g>
	<g>
		<polygon class="st6" points="446.7,233.8 424.3,261 250,117.3 182,173.4 166.4,186.2 75.6,261 53.3,233.8 123.5,175.9 182,127.7 
			222.3,94.5 250,71.7 277.7,94.5 		"/>
	</g>
	<g>
		<polygon class="st2" points="182,86.1 182,127.7 123.5,175.9 123.5,86.1 		"/>
	</g>
</g>
</svg>
