<?xml version="1.0" encoding="utf-8"?>
<!-- Generator: Adobe Illustrator 23.1.0, SVG Export Plug-In . SVG Version: 6.00 Build 0)  -->
<svg version="1.1" id="Layer_1" xmlns="http://www.w3.org/2000/svg" xmlns:xlink="http://www.w3.org/1999/xlink" x="0px" y="0px"
	 viewBox="0 0 500 500" style="enable-background:new 0 0 500 500;" xml:space="preserve">
<style type="text/css">
	.st0{fill:#FFE9EF;}
	.st1{fill:#E0BA89;}
	.st2{fill:#EF9825;}
	.st3{fill:#FFD629;}
	.st4{fill:#BF976B;}
	.st5{fill:#231F20;}
	.st6{fill:#2B3860;}
	.st7{fill:#6464F4;}
	.st8{fill:#4545CE;}
	.st9{fill:#9FC6FF;}
	.st10{fill:#9797C4;}
	.st11{fill:#B4B4D6;}
	.st12{fill:#D0D0EF;}
	.st13{fill:#8090B7;}
	.st14{fill:#EBEEFF;}
	.st15{fill:#FF5252;}
	.st16{fill:#BDC3DB;}
	.st17{fill:none;stroke:#231F20;stroke-width:14.2344;stroke-linecap:round;stroke-linejoin:round;stroke-miterlimit:10;}
	.st18{fill:#91673F;}
	.st19{fill:#FFFFFF;}
	.st20{fill:#FFB45A;}
	.st21{fill:#E4E4F2;}
</style>
<g>
	<g>
		<g>
			<path class="st7" d="M140.7,69.9c30.8,0,55.7,10.4,55.7,23.3v284.6c0,1.1-1.4,1.6-2,0.7c-6.5-9.8-28.1-17-53.7-17
				c-30.7,0-55.7,10.4-55.7,23.2V93.2C85,80.3,110,69.9,140.7,69.9z"/>
		</g>
		<g>
			<path class="st6" d="M196.4,102.7h119.1v302.5c0,13.7,26.6,24.8,59.4,24.8H130.4c-25.1,0-45.4-20.3-45.4-45.4
				c0-12.8,25-23.2,55.7-23.2c25.7,0,47.2,7.2,53.7,17c0.6,0.9,2,0.4,2-0.7V102.7z"/>
		</g>
		<g>
			<path class="st8" d="M374.9,380.5c32.8,0,59.4,11.1,59.4,24.8c0,13.7-26.5,24.8-59.4,24.8c-32.7,0-59.4-11.1-59.4-24.8
				C315.6,391.6,342.2,380.5,374.9,380.5z"/>
		</g>
		<g>
			<path class="st7" d="M374.9,69.9c32.8,0,59.4,11.1,59.4,24.8v310.5c0-13.7-26.5-24.8-59.4-24.8c-32.7,0-59.4,11.1-59.4,24.8V94.7
				C315.6,81,342.2,69.9,374.9,69.9z"/>
		</g>
		<g>
			<g>
				<path class="st9" d="M434.3,224.7v41.9c0-13.7-26.5-24.8-59.4-24.8c-32.7,0-59.4,11.1-59.4,24.8v-41.9
					c0-13.7,26.6-24.8,59.4-24.8C407.8,199.9,434.3,211,434.3,224.7z"/>
			</g>
		</g>
		<g>
			<g>
				<path class="st9" d="M196.4,214.5v41.9c0-13.7-24.9-24.8-55.7-24.8c-30.7,0-55.7,11.1-55.7,24.8v-41.9c0-13.7,25-24.8,55.7-24.8
					C171.5,189.7,196.4,200.8,196.4,214.5z"/>
			</g>
		</g>
	</g>
	<path class="st5" d="M374.9,62.8c-32.2,0-66.5,11.2-66.5,31.9v0.9H203.6v-2.4c0-20-31.6-30.4-62.8-30.4
		c-31.2,0-62.8,10.4-62.8,30.4v121.3v41.9v128.3c0,29,23.6,52.5,52.5,52.5h244.5c33,0,66.5-11,66.5-32V266.6v-41.9v-130
		C441.4,74,407.2,62.8,374.9,62.8z M322.7,94.7c0-7,20.8-17.7,52.2-17.7s52.2,10.6,52.2,17.7v109.8c-13-7.7-32.9-11.7-52.2-11.7
		s-39.3,4-52.2,11.7V102.7V94.7z M423.1,382.8c-0.6-0.3-1.2-0.6-1.9-0.9c-1.2-0.5-2.4-1-3.7-1.5c-0.6-0.2-1.1-0.4-1.7-0.7
		c-1.9-0.7-3.8-1.3-5.8-1.9c-0.1,0-0.3-0.1-0.4-0.1c-1.9-0.5-3.8-1-5.7-1.4c-0.7-0.2-1.4-0.3-2.1-0.4c-1.4-0.3-2.9-0.6-4.4-0.8
		c-0.8-0.1-1.6-0.3-2.4-0.4c-1.4-0.2-2.8-0.4-4.3-0.6c-0.8-0.1-1.6-0.2-2.5-0.3c-1.5-0.1-3-0.3-4.6-0.4c-0.7,0-1.4-0.1-2.2-0.1
		c-2.2-0.1-4.5-0.2-6.7-0.2c-2.2,0-4.5,0.1-6.7,0.2c-0.7,0-1.4,0.1-2.2,0.1c-1.5,0.1-3.1,0.2-4.6,0.4c-0.8,0.1-1.6,0.2-2.5,0.3
		c-1.4,0.2-2.8,0.3-4.3,0.6c-0.8,0.1-1.6,0.2-2.4,0.4c-1.5,0.2-2.9,0.5-4.4,0.8c-0.7,0.1-1.4,0.3-2.1,0.4c-1.9,0.4-3.8,0.9-5.7,1.4
		c-0.1,0-0.3,0.1-0.4,0.1c-2,0.6-3.9,1.2-5.8,1.9c-0.6,0.2-1.1,0.4-1.7,0.7c-1.3,0.5-2.5,1-3.7,1.5c-0.6,0.3-1.2,0.6-1.9,0.9
		c-1.1,0.5-2.1,1-3.1,1.6c-0.3,0.2-0.7,0.3-1,0.5V266.6c0-7,20.8-17.7,52.2-17.7s52.2,10.6,52.2,17.7V385c-0.3-0.2-0.7-0.4-1-0.5
		C425.2,383.9,424.1,383.4,423.1,382.8z M427.2,246.3c-13-7.6-33-11.6-52.2-11.6c-19.3,0-39.3,4-52.2,11.6v-21.7
		c0-7,20.8-17.7,52.2-17.7s52.2,10.6,52.2,17.7V246.3z M134.3,354.5c-0.7,0-1.4,0.1-2,0.1c-1.4,0.1-2.9,0.2-4.3,0.3
		c-0.8,0.1-1.6,0.2-2.4,0.3c-1.3,0.1-2.6,0.3-3.9,0.5c-0.8,0.1-1.6,0.2-2.4,0.4c-1.3,0.2-2.5,0.4-3.7,0.7c-0.8,0.1-1.5,0.3-2.3,0.5
		c-1.3,0.3-2.6,0.6-3.8,0.9c-0.6,0.2-1.3,0.3-1.9,0.5c-1.7,0.5-3.4,1-5,1.5c-0.1,0-0.3,0.1-0.4,0.1c-1.7,0.6-3.4,1.3-5,2
		c-0.5,0.2-0.9,0.4-1.4,0.7c-1.1,0.5-2.1,1-3.2,1.6c-0.2,0.1-0.4,0.2-0.6,0.3V256.4c0-7.2,18.9-17.7,48.6-17.7
		c29.7,0,48.6,10.5,48.6,17.7v108.4c-11.4-6.6-28.9-10.5-48.6-10.5C138.6,354.3,136.5,354.4,134.3,354.5z M92.1,214.5
		c0-7.2,18.9-17.7,48.6-17.7c29.7,0,48.6,10.5,48.6,17.7v21.3c-11.3-6.9-28.6-11.2-48.6-11.2c-20,0-37.3,4.3-48.6,11.2V214.5z
		 M140.7,77.1c31.5,0,48.6,10.7,48.6,16.2v9.5v91.1c-11.3-6.9-28.6-11.2-48.6-11.2c-20,0-37.3,4.3-48.6,11.2V93.2
		C92.1,87.7,109.3,77.1,140.7,77.1z M318.8,422.9H130.4c-21.1,0-38.3-17.2-38.3-38.3c0-5.5,17.2-16.1,48.6-16.1
		c25.1,0,43.4,7.1,47.8,13.8c2,3,5.7,4.3,9.2,3.3c3.5-1.1,5.9-4.2,5.9-7.9V256.4v-41.9V109.9h104.9v114.8v41.9v138.6
		c0,1.6,0.3,3.1,0.6,4.6c0.1,0.4,0.3,0.8,0.4,1.3c0.4,1.1,0.8,2.1,1.4,3.1c0.2,0.4,0.4,0.8,0.6,1.1c0.8,1.3,1.8,2.6,2.9,3.8
		c0.1,0.1,0.3,0.3,0.5,0.4c1,1,2.2,2,3.4,3C318.5,422.6,318.6,422.8,318.8,422.9z M374.9,422.9c-31.4,0-52.2-10.7-52.2-17.7
		c0-7,20.8-17.7,52.2-17.7s52.2,10.6,52.2,17.7C427.2,412.3,406.3,422.9,374.9,422.9z"/>
</g>
</svg>
