<?xml version="1.0" encoding="utf-8"?>
<!-- Generator: Adobe Illustrator 23.1.0, SVG Export Plug-In . SVG Version: 6.00 Build 0)  -->
<svg version="1.1" id="Layer_1" xmlns="http://www.w3.org/2000/svg" xmlns:xlink="http://www.w3.org/1999/xlink" x="0px" y="0px"
	 viewBox="0 0 500 500" style="enable-background:new 0 0 500 500;" xml:space="preserve">
<style type="text/css">
	.st0{fill:#FFE9EF;}
	.st1{fill:#E0BA89;}
	.st2{fill:#EF9825;}
	.st3{fill:#FFD629;}
	.st4{fill:#BF976B;}
	.st5{fill:#231F20;}
	.st6{fill:#2B3860;}
	.st7{fill:#6464F4;}
	.st8{fill:#4545CE;}
	.st9{fill:#9FC6FF;}
	.st10{fill:#9797C4;}
	.st11{fill:#B4B4D6;}
	.st12{fill:#D0D0EF;}
	.st13{fill:#8090B7;}
	.st14{fill:#EBEEFF;}
	.st15{fill:#FF5252;}
	.st16{fill:#BDC3DB;}
	.st17{fill:none;stroke:#231F20;stroke-width:14.2344;stroke-linecap:round;stroke-linejoin:round;stroke-miterlimit:10;}
	.st18{fill:#91673F;}
	.st19{fill:#FFFFFF;}
	.st20{fill:#FFB45A;}
	.st21{fill:#E4E4F2;}
</style>
<g>
	<path class="st5" d="M416.4,192l-164-164c-2.7-2.7-7.4-2.7-10.1,0L148.3,122l-22.1,22.1c-15.6,15.6-21.7,38.5-15.9,59.8l16.7,60.8
		l-58.6,58.6c-7.1,7.1-10.9,16.5-10.9,26.3c-0.1,10,3.8,19.4,10.9,26.4c7.3,7.3,16.8,10.9,26.3,10.9c9.6,0,19.1-3.6,26.4-10.9
		l58.6-58.6l60.8,16.6c21.3,5.8,44.2-0.3,59.8-15.9l22.1-22.1l94.1-94.1c1.3-1.3,2.1-3.1,2.1-5S417.8,193.3,416.4,192z M290.2,308.2
		c-12,12-29.6,16.7-45.9,12.2l-64.5-17.6c-2.6-0.8-5.3-0.2-7.2,1.7L111,366c-9,9-23.6,9-32.6,0c-4.4-4.4-6.7-10.1-6.7-16.4
		c0-6.1,2.3-11.9,6.7-16.3l61.5-61.5c1.7-1.7,2.4-4,2-6.3c0-0.2-0.1-0.6-0.2-0.8L124,200.2c-4.5-16.3,0.2-34,12.2-45.9l17.1-17.1
		l77,77l77,77L290.2,308.2z M317.3,281l-77-77l-77-77l84-84l13.3,13.3l-32.3,32.3c-2.8,2.8-2.8,7.3,0,10.1c1.4,1.4,3.2,2.1,5,2.1
		s3.6-0.7,5-2.1l32.3-32.3l14.7,14.7l-32.3,32.3c-2.8,2.8-2.8,7.3,0,10.1c1.4,1.4,3.2,2.1,5,2.1c1.8,0,3.6-0.7,5-2.1l32.3-32.3
		l12.9,12.9L276,136.4c-2.8,2.8-2.8,7.3,0,10.1c1.4,1.4,3.2,2.1,5,2.1c1.8,0,3.6-0.7,5-2.1l32.3-32.3l82.9,82.9L317.3,281z"/>
	<circle class="st5" cx="96.2" cy="349.8" r="12"/>
</g>
</svg>
