<?xml version="1.0" encoding="utf-8"?>
<!-- Generator: Adobe Illustrator 23.1.0, SVG Export Plug-In . SVG Version: 6.00 Build 0)  -->
<svg version="1.1" id="Layer_1" xmlns="http://www.w3.org/2000/svg" xmlns:xlink="http://www.w3.org/1999/xlink" x="0px" y="0px"
	 viewBox="0 0 500 500" style="enable-background:new 0 0 500 500;" xml:space="preserve">
<style type="text/css">
	.st0{fill:#FFE9EF;}
	.st1{fill:#E0BA89;}
	.st2{fill:#EF9825;}
	.st3{fill:#FFD629;}
	.st4{fill:#BF976B;}
	.st5{fill:#231F20;}
	.st6{fill:#2B3860;}
	.st7{fill:#6464F4;}
	.st8{fill:#4545CE;}
	.st9{fill:#9FC6FF;}
	.st10{fill:#9797C4;}
	.st11{fill:#B4B4D6;}
	.st12{fill:#D0D0EF;}
	.st13{fill:#8090B7;}
	.st14{fill:#EBEEFF;}
	.st15{fill:#FF5252;}
	.st16{fill:#BDC3DB;}
	.st17{fill:none;stroke:#231F20;stroke-width:14.2344;stroke-linecap:round;stroke-linejoin:round;stroke-miterlimit:10;}
	.st18{fill:#91673F;}
	.st19{fill:#FFFFFF;}
	.st20{fill:#FFB45A;}
	.st21{fill:#E4E4F2;}
</style>
<path class="st5" d="M448.6,359H425l-25.6-70.6l-27.3-75.3c0,0,0,0,0,0c0,0,0,0,0,0l-27.3-75.3c0,0,0,0,0,0l-27.3-75.3
	c-1-2.8-3.7-4.7-6.7-4.7h-99.4c-3,0-5.7,1.9-6.7,4.7l-27.3,75.3l-27.3,75.3c0,0,0,0,0,0l-27.3,75.3c0,0,0,0,0,0c0,0,0,0,0,0
	L97.3,359H73.7c-3.9,0-7.1,3.2-7.1,7.1V435c0,3.9,3.2,7.1,7.1,7.1h374.9c3.9,0,7.1-3.2,7.1-7.1v-68.9
	C455.7,362.2,452.5,359,448.6,359z M216.4,72.1h89.4l22.1,61.1H194.3L216.4,72.1z M189.2,147.4h144l22.2,61.1H167.1L189.2,147.4z
	 M161.9,222.7h198.6l22.1,61.1H139.8L161.9,222.7z M134.6,298h253.1l22.1,61.1H112.5L134.6,298z M441.5,427.9H80.8v-54.7h21.5H420
	h21.5V427.9z"/>
</svg>
