<?xml version="1.0" encoding="utf-8"?>
<!-- Generator: Adobe Illustrator 23.1.0, SVG Export Plug-In . SVG Version: 6.00 Build 0)  -->
<svg version="1.1" id="Layer_1" xmlns="http://www.w3.org/2000/svg" xmlns:xlink="http://www.w3.org/1999/xlink" x="0px" y="0px"
	 viewBox="0 0 500 500" style="enable-background:new 0 0 500 500;" xml:space="preserve">
<style type="text/css">
	.st0{fill:#FFE9EF;}
	.st1{fill:#E0BA89;}
	.st2{fill:#EF9825;}
	.st3{fill:#FFD629;}
	.st4{fill:#BF976B;}
	.st5{fill:#231F20;}
	.st6{fill:#2B3860;}
	.st7{fill:#6464F4;}
	.st8{fill:#4545CE;}
	.st9{fill:#9FC6FF;}
	.st10{fill:#9797C4;}
	.st11{fill:#B4B4D6;}
	.st12{fill:#D0D0EF;}
	.st13{fill:#8090B7;}
	.st14{fill:#EBEEFF;}
	.st15{fill:#FF5252;}
	.st16{fill:#BDC3DB;}
	.st17{fill:none;stroke:#231F20;stroke-width:14.2344;stroke-linecap:round;stroke-linejoin:round;stroke-miterlimit:10;}
	.st18{fill:#91673F;}
	.st19{fill:#FFFFFF;}
	.st20{fill:#FFB45A;}
	.st21{fill:#E4E4F2;}
</style>
<g>
	<g>
		<rect x="63.4" y="337.4" class="st1" width="185.3" height="75.1"/>
	</g>
	<g>
		<rect x="248.7" y="337.4" class="st1" width="188.7" height="75.1"/>
	</g>
	<g>
		<rect x="241.5" y="337.4" class="st18" width="14.4" height="75.1"/>
	</g>
	<g>
		<rect x="63.4" y="37" class="st1" width="185.3" height="75.1"/>
	</g>
	<g>
		<rect x="148.1" y="112.1" class="st4" width="201.2" height="75.1"/>
	</g>
	<g>
		<rect x="63.4" y="112.1" class="st4" width="84.7" height="75.1"/>
	</g>
	<g>
		<rect x="63.4" y="187.2" class="st1" width="185.3" height="75.1"/>
	</g>
	<g>
		<rect x="63.4" y="262.3" class="st4" width="84.7" height="75.1"/>
	</g>
	<g>
		<rect x="349.3" y="262.3" class="st4" width="88.2" height="75.1"/>
	</g>
	<g>
		<rect x="148.1" y="262.3" class="st4" width="201.2" height="75.1"/>
	</g>
	<g>
		<rect x="248.7" y="187.2" class="st1" width="188.7" height="75.1"/>
	</g>
	<g>
		<rect x="140.8" y="112.1" class="st18" width="14.4" height="75.1"/>
	</g>
	<g>
		<rect x="241.5" y="187.2" class="st18" width="14.4" height="75.1"/>
	</g>
	<g>
		<rect x="140.8" y="262.3" class="st18" width="14.4" height="75.1"/>
	</g>
	<g>
		<rect x="342.1" y="262.3" class="st18" width="14.4" height="75.1"/>
	</g>
</g>
</svg>
