<?xml version="1.0" encoding="utf-8"?>
<!-- Generator: Adobe Illustrator 23.1.0, SVG Export Plug-In . SVG Version: 6.00 Build 0)  -->
<svg version="1.1" id="Layer_1" xmlns="http://www.w3.org/2000/svg" xmlns:xlink="http://www.w3.org/1999/xlink" x="0px" y="0px"
	 viewBox="0 0 500 500" style="enable-background:new 0 0 500 500;" xml:space="preserve">
<style type="text/css">
	.st0{fill:#FFE9EF;}
	.st1{fill:#E0BA89;}
	.st2{fill:#EF9825;}
	.st3{fill:#FFD629;}
	.st4{fill:#BF976B;}
	.st5{fill:#231F20;}
	.st6{fill:#2B3860;}
	.st7{fill:#6464F4;}
	.st8{fill:#4545CE;}
	.st9{fill:#9FC6FF;}
	.st10{fill:#9797C4;}
	.st11{fill:#B4B4D6;}
	.st12{fill:#D0D0EF;}
	.st13{fill:#8090B7;}
	.st14{fill:#EBEEFF;}
	.st15{fill:#FF5252;}
	.st16{fill:#BDC3DB;}
	.st17{fill:none;stroke:#231F20;stroke-width:14.2344;stroke-linecap:round;stroke-linejoin:round;stroke-miterlimit:10;}
	.st18{fill:#91673F;}
	.st19{fill:#FFFFFF;}
	.st20{fill:#FFB45A;}
	.st21{fill:#E4E4F2;}
</style>
<g>
	<g>
		<path class="st6" d="M167.9,58.5v276.2c-13.5,0.5-25.6,6.2-34.4,15c-9.3,9.4-15.2,22.4-15.2,36.7c0,27.8,22,50.6,49.6,51.7v0.1
			c-57.7,0-104.5-46.8-104.5-104.5V163c0-6.4,0.6-12.7,1.7-18.7C73.9,95.5,116.6,58.5,167.9,58.5z"/>
	</g>
	<g>
		<path class="st7" d="M436.6,167.9v246.7c0,13.1-10.6,23.6-23.6,23.6H167.9v-0.1c-27.6-1.1-49.6-23.8-49.6-51.7
			c0-14.3,5.8-27.3,15.2-36.7c8.9-8.8,21-14.5,34.4-15V144.3H413C426,144.3,436.6,154.9,436.6,167.9z"/>
	</g>
	<g>
		<g>
			<path class="st19" d="M360.3,249L289,188c-2.7-2.3-6.6-2.3-9.3,0L208.4,249c-2.3,1.9-3.1,5.1-2,7.8c1,2.8,3.6,4.7,6.6,4.7H230v69
				c0,3.9,3.2,7.1,7.1,7.1h94.4c4,0,7.1-3.2,7.1-7.1v-69h16.9c3,0,5.6-1.9,6.7-4.7C363.3,254.1,362.5,251,360.3,249z M284.4,202.8
				l52,44.6H232.4L284.4,202.8z M324.5,323.5h-80.2v-61.9h80.2V323.5z"/>
		</g>
	</g>
</g>
</svg>
