<?xml version="1.0" encoding="utf-8"?>
<!-- Generator: Adobe Illustrator 23.1.0, SVG Export Plug-In . SVG Version: 6.00 Build 0)  -->
<svg version="1.1" id="Layer_1" xmlns="http://www.w3.org/2000/svg" xmlns:xlink="http://www.w3.org/1999/xlink" x="0px" y="0px"
	 viewBox="0 0 500 500" style="enable-background:new 0 0 500 500;" xml:space="preserve">
<style type="text/css">
	.st0{fill:#FFE9EF;}
	.st1{fill:#E0BA89;}
	.st2{fill:#EF9825;}
	.st3{fill:#FFD629;}
	.st4{fill:#BF976B;}
	.st5{fill:#231F20;}
	.st6{fill:#2B3860;}
	.st7{fill:#6464F4;}
	.st8{fill:#4545CE;}
	.st9{fill:#9FC6FF;}
	.st10{fill:#9797C4;}
	.st11{fill:#B4B4D6;}
	.st12{fill:#D0D0EF;}
	.st13{fill:#8090B7;}
	.st14{fill:#EBEEFF;}
	.st15{fill:#FF5252;}
	.st16{fill:#BDC3DB;}
	.st17{fill:none;stroke:#231F20;stroke-width:14.2344;stroke-linecap:round;stroke-linejoin:round;stroke-miterlimit:10;}
	.st18{fill:#91673F;}
	.st19{fill:#FFFFFF;}
	.st20{fill:#FFB45A;}
	.st21{fill:#E4E4F2;}
</style>
<path class="st5" d="M453,335.1v-93.6c0-3.9-3.2-7.1-7.1-7.1h-13.6V83.5c0-3.9-3.2-7.1-7.1-7.1H291c-21.7,0-41.1,12.9-49.5,33
	l-52.3,125h-40.9c-36.3,0-65.8,29.5-65.8,65.8v52.3c-27,4.8-47.3,28.4-47.3,56.4c0,31.7,25.8,57.4,57.4,57.4
	c29.3,0,53.4-22,56.9-50.3h131c15,34.5,49.4,57.4,87.4,57.4c52.5,0,95.3-42.7,95.3-95.2C463.4,363,459.8,348.5,453,335.1z
	 M418,234.4h-46.5V90.6H418V234.4z M254.6,114.8c6.2-14.7,20.4-24.2,36.4-24.2h66.4v143.7H204.6L254.6,114.8z M92.7,452.1
	c-23.8,0-43.2-19.4-43.2-43.2c0-22.8,17.8-41.7,41.1-43.1c0.7-0.1,1.4-0.1,2.1-0.1c23.8,0,43.2,19.4,43.2,43.2
	C135.9,432.7,116.5,452.1,92.7,452.1z M149.7,401.8c-0.1-1.1-0.3-2.1-0.5-3.1c-0.1-0.5-0.2-1.1-0.3-1.6c-0.4-1.8-0.8-3.5-1.3-5.2
	c-0.1-0.2-0.1-0.4-0.2-0.6c-0.5-1.5-1-3-1.6-4.4c-0.2-0.5-0.5-1.1-0.7-1.6c-0.5-1.1-1-2.1-1.5-3.2c-0.3-0.6-0.7-1.2-1-1.8
	c-0.5-0.9-1.1-1.9-1.7-2.8c-0.4-0.6-0.8-1.2-1.2-1.8c-0.6-0.9-1.2-1.7-1.9-2.5c-0.4-0.6-0.9-1.1-1.3-1.7c-0.7-0.8-1.4-1.6-2.1-2.4
	c-0.5-0.5-0.9-1-1.4-1.5c-0.8-0.8-1.7-1.6-2.5-2.3c-0.5-0.4-0.9-0.8-1.3-1.2c-1.2-0.9-2.4-1.8-3.6-2.7c-0.2-0.1-0.4-0.3-0.6-0.4
	c-1.4-1-2.9-1.9-4.5-2.7c-0.4-0.2-0.9-0.5-1.4-0.7c-1.1-0.6-2.2-1.1-3.4-1.6c-0.6-0.3-1.2-0.5-1.8-0.7c-1-0.4-2.1-0.8-3.2-1.2
	c-0.7-0.2-1.3-0.4-2-0.6c-1.1-0.3-2.1-0.6-3.2-0.8c-0.7-0.2-1.4-0.3-2.1-0.4c-1.1-0.2-2.2-0.4-3.3-0.5c-0.7-0.1-1.4-0.2-2.1-0.2
	c-0.3,0-0.7-0.1-1-0.1v-51.5c0-28.4,23.1-51.5,51.5-51.5h45.6h231.3h13.6v65.6c-0.2-0.2-0.4-0.4-0.6-0.6c-2-2.2-4-4.2-6.2-6.2
	c-0.3-0.3-0.6-0.5-0.9-0.8c-2-1.7-4-3.4-6.1-4.9c-0.5-0.4-1-0.7-1.5-1.1c-2.3-1.7-4.7-3.2-7.2-4.7c-0.5-0.3-1-0.5-1.5-0.8
	c-2.2-1.3-4.5-2.4-6.8-3.5c-0.5-0.2-0.9-0.4-1.4-0.7c-2.6-1.2-5.3-2.2-8.1-3.1c-0.6-0.2-1.2-0.4-1.8-0.6c-2.5-0.8-5.1-1.5-7.7-2.1
	c-0.3-0.1-0.7-0.2-1-0.2c-2.9-0.6-5.8-1-8.7-1.4c-0.7-0.1-1.4-0.1-2.1-0.2c-3-0.3-6-0.5-9-0.5c-52.5,0-95.2,42.8-95.2,95.3
	c0,3.6,0.3,7.2,0.7,10.7c0.1,1,0.3,2,0.4,3c0.4,2.8,0.9,5.6,1.6,8.3c0.1,0.5,0.2,1.1,0.3,1.6H149.7z M368.1,459.1
	c-33.7,0-64.2-21.2-76-52.7c-3.3-8.9-5-18.4-5-28.3c0-44.7,36.3-81.1,81-81.1c3.7,0,7.5,0.3,11.1,0.8c6.3,0.9,12.4,2.6,18.3,4.9
	c1.7,0.7,3.5,1.4,5.1,2.2c15.5,7.3,28.6,19.4,37,35.1c6.3,11.9,9.5,24.7,9.5,38.1C449.1,422.8,412.8,459.1,368.1,459.1z"/>
</svg>
