<?xml version="1.0" encoding="utf-8"?>
<!-- Generator: Adobe Illustrator 23.1.0, SVG Export Plug-In . SVG Version: 6.00 Build 0)  -->
<svg version="1.1" id="Layer_1" xmlns="http://www.w3.org/2000/svg" xmlns:xlink="http://www.w3.org/1999/xlink" x="0px" y="0px"
	 viewBox="0 0 500 500" style="enable-background:new 0 0 500 500;" xml:space="preserve">
<style type="text/css">
	.st0{fill:#FFE9EF;}
	.st1{fill:#E0BA89;}
	.st2{fill:#EF9825;}
	.st3{fill:#FFD629;}
	.st4{fill:#BF976B;}
	.st5{fill:#231F20;}
	.st6{fill:#2B3860;}
	.st7{fill:#6464F4;}
	.st8{fill:#4545CE;}
	.st9{fill:#9FC6FF;}
	.st10{fill:#9797C4;}
	.st11{fill:#B4B4D6;}
	.st12{fill:#D0D0EF;}
	.st13{fill:#8090B7;}
	.st14{fill:#EBEEFF;}
	.st15{fill:#FF5252;}
	.st16{fill:#BDC3DB;}
	.st17{fill:none;stroke:#231F20;stroke-width:14.2344;stroke-linecap:round;stroke-linejoin:round;stroke-miterlimit:10;}
	.st18{fill:#91673F;}
	.st19{fill:#FFFFFF;}
	.st20{fill:#FFB45A;}
	.st21{fill:#E4E4F2;}
</style>
<g>
	<path class="st5" d="M493.1,182.3h-51.5v-13.5c0-3.9-3.2-7.1-7.1-7.1h-37.3v-18.5c0-3.9-3.2-7.1-7.1-7.1h-37.6v-22.7
		c0-3.9-3.2-7.1-7.1-7.1H132.6c-45.9,0-83.2,37.3-83.2,83.2c0,45.3,36.3,82.1,81.3,83.1L57.2,380.1c-0.8,1.2-1.2,2.6-1.2,4v57.5
		c0,3.9,3.2,7.1,7.1,7.1h118.2c2.4,0,4.6-1.2,5.9-3.2c1.3-2,1.5-4.5,0.6-6.7l-28.7-67.4l37.4-50.8h60.9c2.3,0,4.4-1.1,5.8-3
		l32.5-45.1h49.8c3.9,0,7.1-3.2,7.1-7.1v-22.7h37.6c3.9,0,7.1-3.2,7.1-7.1v-18.5h37.3c3.9,0,7.1-3.2,7.1-7.1v-13.5h51.5
		c3.9,0,7.1-3.2,7.1-7.1C500.2,185.5,497,182.3,493.1,182.3z M144.4,373.3l26.1,61.2H70.2v-48.2l77.7-113.7h66.4l-69.1,93.7
		C143.7,368.3,143.4,371,144.4,373.3z M253.7,306.5H207l25-33.9h46.1L253.7,306.5z M338.3,258.4H292h-63.6h-84.2h-11.5
		c-38,0-69-30.9-69-69s31-69,69-69h205.7v22.7v92.6V258.4z M383,228.6h-30.4v-78.3H383v18.5v41.3V228.6z M427.4,202.9h-30.2v-27.1
		h30.2V202.9z"/>
	<path class="st5" d="M175,157.9h-52.8c-3.9,0-7.1,3.2-7.1,7.1c0,3.9,3.2,7.1,7.1,7.1H175c3.9,0,7.1-3.2,7.1-7.1
		C182.1,161.1,179,157.9,175,157.9z"/>
	<path class="st5" d="M175,202.9h-52.8c-3.9,0-7.1,3.2-7.1,7.1c0,3.9,3.2,7.1,7.1,7.1H175c3.9,0,7.1-3.2,7.1-7.1
		C182.1,206.1,179,202.9,175,202.9z"/>
</g>
</svg>
