<?xml version="1.0" encoding="utf-8"?>
<!-- Generator: Adobe Illustrator 23.1.0, SVG Export Plug-In . SVG Version: 6.00 Build 0)  -->
<svg version="1.1" id="Layer_1" xmlns="http://www.w3.org/2000/svg" xmlns:xlink="http://www.w3.org/1999/xlink" x="0px" y="0px"
	 viewBox="0 0 500 500" style="enable-background:new 0 0 500 500;" xml:space="preserve">
<style type="text/css">
	.st0{fill:#FFE9EF;}
	.st1{fill:#E0BA89;}
	.st2{fill:#EF9825;}
	.st3{fill:#FFD629;}
	.st4{fill:#BF976B;}
	.st5{fill:#231F20;}
	.st6{fill:#2B3860;}
	.st7{fill:#6464F4;}
	.st8{fill:#4545CE;}
	.st9{fill:#9FC6FF;}
	.st10{fill:#9797C4;}
	.st11{fill:#B4B4D6;}
	.st12{fill:#D0D0EF;}
	.st13{fill:#8090B7;}
	.st14{fill:#EBEEFF;}
	.st15{fill:#FF5252;}
	.st16{fill:#BDC3DB;}
	.st17{fill:none;stroke:#231F20;stroke-width:14.2344;stroke-linecap:round;stroke-linejoin:round;stroke-miterlimit:10;}
	.st18{fill:#91673F;}
	.st19{fill:#FFFFFF;}
	.st20{fill:#FFB45A;}
	.st21{fill:#E4E4F2;}
</style>
<g>
	<g>
		<path class="st7" d="M131.1,71.9c30.8,0,55.7,10.4,55.7,23.3v284.6c0,1.1-1.4,1.6-2,0.7c-6.5-9.8-28.1-17-53.7-17
			c-30.7,0-55.7,10.4-55.7,23.2V95.2C75.3,82.3,100.3,71.9,131.1,71.9z"/>
	</g>
	<g>
		<path class="st6" d="M186.8,104.8h119.1v302.5c0,13.7,26.6,24.8,59.4,24.8H120.8c-25.1,0-45.4-20.3-45.4-45.4
			c0-12.8,25-23.2,55.7-23.2c25.7,0,47.2,7.2,53.7,17c0.6,0.9,2,0.4,2-0.7V104.8z"/>
	</g>
	<g>
		<path class="st8" d="M365.3,382.5c32.8,0,59.4,11.1,59.4,24.8c0,13.7-26.5,24.8-59.4,24.8c-32.7,0-59.4-11.1-59.4-24.8
			C305.9,393.6,332.6,382.5,365.3,382.5z"/>
	</g>
	<g>
		<path class="st7" d="M365.3,71.9c32.8,0,59.4,11.1,59.4,24.8v310.5c0-13.7-26.5-24.8-59.4-24.8c-32.7,0-59.4,11.1-59.4,24.8V96.7
			C305.9,83,332.6,71.9,365.3,71.9z"/>
	</g>
	<g>
		<g>
			<path class="st9" d="M424.7,226.7v41.9c0-13.7-26.5-24.8-59.4-24.8c-32.7,0-59.4,11.1-59.4,24.8v-41.9
				c0-13.7,26.6-24.8,59.4-24.8C398.1,201.9,424.7,213,424.7,226.7z"/>
		</g>
	</g>
	<g>
		<g>
			<path class="st9" d="M186.8,216.5v41.9c0-13.7-24.9-24.8-55.7-24.8c-30.7,0-55.7,11.1-55.7,24.8v-41.9c0-13.7,25-24.8,55.7-24.8
				C161.9,191.7,186.8,202.8,186.8,216.5z"/>
		</g>
	</g>
</g>
</svg>
