<?xml version="1.0" encoding="utf-8"?>
<!-- Generator: Adobe Illustrator 23.1.0, SVG Export Plug-In . SVG Version: 6.00 Build 0)  -->
<svg version="1.1" id="Layer_1" xmlns="http://www.w3.org/2000/svg" xmlns:xlink="http://www.w3.org/1999/xlink" x="0px" y="0px"
	 viewBox="0 0 500 500" style="enable-background:new 0 0 500 500;" xml:space="preserve">
<style type="text/css">
	.st0{fill:#FFE9EF;}
	.st1{fill:#E0BA89;}
	.st2{fill:#EF9825;}
	.st3{fill:#FFD629;}
	.st4{fill:#BF976B;}
	.st5{fill:#231F20;}
	.st6{fill:#2B3860;}
	.st7{fill:#6464F4;}
	.st8{fill:#4545CE;}
	.st9{fill:#9FC6FF;}
	.st10{fill:#9797C4;}
	.st11{fill:#B4B4D6;}
	.st12{fill:#D0D0EF;}
	.st13{fill:#8090B7;}
	.st14{fill:#EBEEFF;}
	.st15{fill:#FF5252;}
	.st16{fill:#BDC3DB;}
	.st17{fill:none;stroke:#231F20;stroke-width:14.2344;stroke-linecap:round;stroke-linejoin:round;stroke-miterlimit:10;}
	.st18{fill:#91673F;}
	.st19{fill:#FFFFFF;}
	.st20{fill:#FFB45A;}
	.st21{fill:#E4E4F2;}
</style>
<g>
	<g>
		<g>
			<path class="st10" d="M325,254.5H112.2c-42,0-76.1-34.1-76.1-76.1v0c0-42,34.1-76.1,76.1-76.1H325V254.5z"/>
		</g>
		<g>
			<rect x="325" y="132.1" class="st11" width="44.7" height="92.6"/>
		</g>
		<g>
			<rect x="369.7" y="157.7" class="st12" width="44.4" height="41.4"/>
		</g>
		<g>
			<polygon class="st10" points="190.3,278.6 130.5,359.5 160.9,430.7 42.7,430.7 42.7,373.1 107.3,278.6 123.8,254.5 208,254.5 			
				"/>
		</g>
		<g>
			<polygon class="st11" points="172.5,302.6 237,302.6 271.6,254.5 208,254.5 			"/>
		</g>
		<g>
			<polygon class="st6" points="208,254.5 190.3,278.6 107.3,278.6 123.8,254.5 			"/>
		</g>
	</g>
	<g>
		<path class="st5" d="M472.7,171.3h-51.5v-13.5c0-3.9-3.2-7.1-7.1-7.1h-37.3v-18.5c0-3.9-3.2-7.1-7.1-7.1h-37.6v-22.7
			c0-3.9-3.2-7.1-7.1-7.1H112.2c-45.9,0-83.2,37.3-83.2,83.2c0,45.3,36.3,82.1,81.3,83.1L36.8,369.1c-0.8,1.2-1.2,2.6-1.2,4v57.5
			c0,3.9,3.2,7.1,7.1,7.1h118.2c2.4,0,4.6-1.2,5.9-3.2c1.3-2,1.5-4.5,0.6-6.7l-28.7-67.4l37.4-50.8H237c2.3,0,4.4-1.1,5.8-3
			l32.5-45.1H325c3.9,0,7.1-3.2,7.1-7.1v-22.7h37.6c3.9,0,7.1-3.2,7.1-7.1v-18.5h37.3c3.9,0,7.1-3.2,7.1-7.1v-13.5h51.5
			c3.9,0,7.1-3.2,7.1-7.1C479.8,174.5,476.6,171.3,472.7,171.3z M124,362.3l26.1,61.2H49.8v-48.2l77.7-113.7h66.4l-69.1,93.7
			C123.3,357.3,123,360,124,362.3z M233.3,295.5h-46.7l25-33.9h46.1L233.3,295.5z M317.9,247.4h-46.3H208h-84.2h-11.5
			c-38,0-69-30.9-69-69s31-69,69-69h205.7v22.7v92.6V247.4z M362.6,217.6h-30.4v-78.3h30.4v18.5v41.3V217.6z M407,191.9h-30.2v-27.1
			H407V191.9z"/>
		<path class="st5" d="M154.6,146.9h-52.8c-3.9,0-7.1,3.2-7.1,7.1c0,3.9,3.2,7.1,7.1,7.1h52.8c3.9,0,7.1-3.2,7.1-7.1
			C161.8,150.1,158.6,146.9,154.6,146.9z"/>
		<path class="st5" d="M154.6,191.9h-52.8c-3.9,0-7.1,3.2-7.1,7.1c0,3.9,3.2,7.1,7.1,7.1h52.8c3.9,0,7.1-3.2,7.1-7.1
			C161.8,195.1,158.6,191.9,154.6,191.9z"/>
	</g>
</g>
</svg>
