<svg preserveAspectRatio="none" width="100%" height="100%" overflow="visible" style="display: block;" viewBox="0 0 11.8396 11.8544" fill="none" xmlns="http://www.w3.org/2000/svg">
<path id="Glyph" d="M11.5755 0.263134C11.9272 0.614347 11.9277 1.18419 11.5764 1.53593L7.47329 5.64435C7.31732 5.80051 7.31732 6.05349 7.47327 6.20966L11.5764 10.3185C11.8984 10.6409 11.9249 11.1466 11.6561 11.4992L11.5755 11.5913C11.2238 11.9425 10.6539 11.9421 10.3027 11.5903L6.20211 7.48353C6.04583 7.32702 5.79219 7.32704 5.63594 7.48359L1.53687 11.5903C1.18565 11.9421 0.615805 11.9425 0.264074 11.5913C-0.0876574 11.2401 -0.088078 10.6702 0.263134 10.3185L4.36578 6.20964C4.52171 6.05348 4.52171 5.80053 4.36577 5.64437L0.263134 1.53593C-0.0588103 1.21351 -0.0852856 0.707807 0.18346 0.35524L0.264074 0.263134C0.615805 -0.088078 1.18565 -0.0876574 1.53687 0.264074L5.63599 4.36955C5.79223 4.52603 6.04579 4.52606 6.20206 4.3696L10.3027 0.264074C10.6539 -0.0876574 11.2238 -0.088078 11.5755 0.263134Z" fill="var(--fill-0, #4F5E71)"/>
</svg>
