<svg preserveAspectRatio="none" width="100%" height="100%" overflow="visible" style="display: block;" viewBox="0 0 84 84" fill="none" xmlns="http://www.w3.org/2000/svg">
<g id="Capture Buttton" filter="url(#filter0_d_2041_5601)">
<path id="Subtract" d="M42 1C64.0914 1 82 18.9086 82 41C82 63.0914 64.0914 81 42 81C19.9086 81 2 63.0914 2 41C2 18.9086 19.9086 1 42 1ZM42.0088 5.65039C22.4863 5.65042 6.66018 21.4765 6.66016 40.999C6.66016 60.5215 22.4863 76.3476 42.0088 76.3477C61.5313 76.3477 77.3574 60.5216 77.3574 40.999C77.3574 21.4765 61.5313 5.65039 42.0088 5.65039Z" fill="var(--fill-0, white)"/>
<circle id="Ellipse 70" cx="42" cy="41" r="32.5" fill="var(--fill-0, white)"/>
</g>
<defs>
<filter id="filter0_d_2041_5601" x="0" y="0" width="84" height="84" filterUnits="userSpaceOnUse" color-interpolation-filters="sRGB">
<feFlood flood-opacity="0" result="BackgroundImageFix"/>
<feColorMatrix in="SourceAlpha" type="matrix" values="0 0 0 0 0 0 0 0 0 0 0 0 0 0 0 0 0 0 127 0" result="hardAlpha"/>
<feOffset dy="1"/>
<feGaussianBlur stdDeviation="1"/>
<feColorMatrix type="matrix" values="0 0 0 0 0 0 0 0 0 0 0 0 0 0 0 0 0 0 0.05 0"/>
<feBlend mode="normal" in2="BackgroundImageFix" result="effect1_dropShadow_2041_5601"/>
<feBlend mode="normal" in="SourceGraphic" in2="effect1_dropShadow_2041_5601" result="shape"/>
</filter>
</defs>
</svg>
