<svg preserveAspectRatio="none" width="100%" height="100%" overflow="visible" style="display: block;" viewBox="0 0 18 18" fill="none" xmlns="http://www.w3.org/2000/svg">
<g id="Checkbox">
<rect x="0.5625" y="0.5625" width="16.875" height="16.875" rx="3.9375" fill="var(--fill-0, white)"/>
<rect x="0.5625" y="0.5625" width="16.875" height="16.875" rx="3.9375" stroke="var(--stroke-0, #D1D5DB)" stroke-width="1.125"/>
<path id="Icon" d="M14.2816 5.95438C14.4925 6.16535 14.6109 6.45145 14.6109 6.74976C14.6109 7.04807 14.4925 7.33417 14.2816 7.54513L8.65655 13.1701C8.44558 13.381 8.15949 13.4995 7.86118 13.4995C7.56287 13.4995 7.27677 13.381 7.0658 13.1701L4.8158 10.9201C4.61087 10.708 4.49748 10.4238 4.50004 10.1288C4.50261 9.83384 4.62092 9.55167 4.8295 9.34309C5.03809 9.1345 5.32025 9.01619 5.61522 9.01363C5.9102 9.01106 6.19437 9.12446 6.40655 9.32938L7.86118 10.784L12.6908 5.95438C12.9018 5.74348 13.1879 5.625 13.4862 5.625C13.7845 5.625 14.0706 5.74348 14.2816 5.95438Z" fill="var(--fill-0, white)"/>
</g>
</svg>
