<svg preserveAspectRatio="none" width="100%" height="100%" overflow="visible" style="display: block;" viewBox="0 0 18 18" fill="none" xmlns="http://www.w3.org/2000/svg">
<g id="Checkbox" filter="url(#filter0_d_2041_5592)">
<rect width="18" height="18" rx="4.5" fill="var(--fill-0, #0172CB)"/>
<rect x="0.5625" y="0.5625" width="16.875" height="16.875" rx="3.9375" stroke="var(--stroke-0, #0172CB)" stroke-width="1.125"/>
<path id="Icon" d="M13.2068 5.90735C13.3945 6.08819 13.5 6.33343 13.5 6.58914C13.5 6.84485 13.3945 7.09009 13.2068 7.27093L8.19985 12.0927C8.01206 12.2734 7.7574 12.375 7.49187 12.375C7.22633 12.375 6.97167 12.2734 6.78388 12.0927L4.7811 10.164C4.59869 9.98209 4.49776 9.73849 4.50004 9.48564C4.50232 9.2328 4.60763 8.99093 4.7933 8.81213C4.97897 8.63333 5.23013 8.53191 5.49269 8.52971C5.75525 8.52752 6.0082 8.62472 6.19707 8.80038L7.49187 10.0473L11.7908 5.90735C11.9786 5.72656 12.2333 5.625 12.4988 5.625C12.7644 5.625 13.019 5.72656 13.2068 5.90735Z" fill="var(--fill-0, white)"/>
</g>
<defs>
<filter id="filter0_d_2041_5592" x="0" y="0" width="18" height="18" filterUnits="userSpaceOnUse" color-interpolation-filters="sRGB">
<feFlood flood-opacity="0" result="BackgroundImageFix"/>
<feColorMatrix in="SourceAlpha" type="matrix" values="0 0 0 0 0 0 0 0 0 0 0 0 0 0 0 0 0 0 127 0" result="hardAlpha"/>
<feOffset/>
<feComposite in2="hardAlpha" operator="out"/>
<feColorMatrix type="matrix" values="0 0 0 0 0 0 0 0 0 0 0 0 0 0 0 0 0 0 0.25 0"/>
<feBlend mode="normal" in2="BackgroundImageFix" result="effect1_dropShadow_2041_5592"/>
<feBlend mode="normal" in="SourceGraphic" in2="effect1_dropShadow_2041_5592" result="shape"/>
</filter>
</defs>
</svg>
