<svg preserveAspectRatio="none" width="100%" height="100%" overflow="visible" style="display: block;" viewBox="0 0 11.2257 11.2267" fill="none" xmlns="http://www.w3.org/2000/svg">
<path id="Glyph" fill-rule="evenodd" clip-rule="evenodd" d="M11.2257 2.51867C11.2257 2.72016 11.1244 2.92166 10.9234 2.97203C10.8726 3.0224 10.7718 3.0224 10.7219 3.0224C10.5708 3.0224 10.4701 2.97203 10.3688 2.87128L9.91597 2.41792C9.86509 2.36755 9.76434 2.36755 9.71447 2.41792L6.13796 5.99443C5.8861 6.2463 5.48311 6.2463 5.23124 5.99443C4.97938 5.74257 4.97938 5.33958 5.23124 5.08771L8.80775 1.5112C8.85762 1.46083 8.85762 1.36008 8.80775 1.30971L8.35389 0.856348C8.25314 0.755601 8.20327 0.654854 8.20327 0.503734C8.20327 0.201494 8.40477 0 8.70701 0H10.7219C11.0237 0 11.2257 0.201494 11.2257 0.503734V2.51867ZM1.27333 1.40805H6.23151C6.56656 1.40805 6.83817 1.67966 6.83817 2.01471C6.83817 2.34977 6.56656 2.62138 6.23151 2.62138H1.27333C1.2402 2.62138 1.21333 2.64824 1.21333 2.68138V9.95333C1.21333 9.98647 1.2402 10.0133 1.27333 10.0133H5.60263H8.54438C8.57752 10.0133 8.60438 9.98647 8.60438 9.95333V4.99939C8.60438 4.66434 8.876 4.39272 9.21105 4.39272C9.5461 4.39272 9.81772 4.66434 9.81772 4.99939V9.95333C9.81772 10.6566 9.24763 11.2267 8.54438 11.2267H1.27333C0.570091 11.2267 0 10.6566 0 9.95333V2.68138C0 1.97814 0.570091 1.40805 1.27333 1.40805Z" fill="var(--fill-0, #252A31)"/>
</svg>
