<svg preserveAspectRatio="none" width="100%" height="100%" overflow="visible" style="display: block;" viewBox="0 0 24 24" fill="none" xmlns="http://www.w3.org/2000/svg">
<g id="Flip Camera" clip-path="url(#clip0_2041_5607)">
<g id="Vector">
</g>
<path id="Vector_2" d="M20 11C19.7554 9.24022 18.9391 7.60966 17.6766 6.3595C16.4142 5.10933 14.7758 4.30892 13.0137 4.08155C11.2516 3.85419 9.46362 4.21248 7.9252 5.10125C6.38678 5.99001 5.18325 7.35994 4.5 9M4 5V9H8" stroke="var(--stroke-0, #BAC7D5)" stroke-width="2" stroke-linecap="round" stroke-linejoin="round"/>
<path id="Vector_3" d="M4 13C4.24456 14.7598 5.06093 16.3903 6.32336 17.6405C7.58579 18.8907 9.22424 19.6911 10.9863 19.9184C12.7484 20.1458 14.5364 19.7875 16.0748 18.8988C17.6132 18.01 18.8168 16.6401 19.5 15M20 19V15H16" stroke="var(--stroke-0, #BAC7D5)" stroke-width="2" stroke-linecap="round" stroke-linejoin="round"/>
</g>
<defs>
<clipPath id="clip0_2041_5607">
<rect width="24" height="24" fill="white"/>
</clipPath>
</defs>
</svg>
