<?xml version="1.0" encoding="utf-8"?>
<svg version="1.1" xmlns="http://www.w3.org/2000/svg" viewBox="0 0 512 512">
  <defs>
    <linearGradient id="endGrad" x1="0%" y1="0%" x2="100%" y2="100%">
      <stop offset="0%" style="stop-color:#EF4444"/>
      <stop offset="100%" style="stop-color:#DC2626"/>
    </linearGradient>
    <filter id="endShadow" x="-20%" y="-20%" width="140%" height="140%">
      <feDropShadow dx="0" dy="4" stdDeviation="8" flood-color="#991B1B" flood-opacity="0.3"/>
    </filter>
  </defs>
  <!-- Flag pole -->
  <rect x="100" y="60" width="16" height="400" rx="8" fill="#4B5563"/>
  <circle cx="108" cy="60" r="16" fill="#6B7280"/>
  <!-- Flag -->
  <path d="M116 80 L400 80 C420 80 420 120 400 150 L420 180 C440 210 420 250 400 250 L116 250 Z" fill="url(#endGrad)" filter="url(#endShadow)"/>
  <!-- Checkered pattern on flag -->
  <rect x="140" y="100" width="35" height="35" fill="#fff" opacity="0.9"/>
  <rect x="175" y="100" width="35" height="35" fill="#1F2937"/>
  <rect x="210" y="100" width="35" height="35" fill="#fff" opacity="0.9"/>
  <rect x="245" y="100" width="35" height="35" fill="#1F2937"/>
  <rect x="280" y="100" width="35" height="35" fill="#fff" opacity="0.9"/>
  <rect x="315" y="100" width="35" height="35" fill="#1F2937"/>
  <rect x="140" y="135" width="35" height="35" fill="#1F2937"/>
  <rect x="175" y="135" width="35" height="35" fill="#fff" opacity="0.9"/>
  <rect x="210" y="135" width="35" height="35" fill="#1F2937"/>
  <rect x="245" y="135" width="35" height="35" fill="#fff" opacity="0.9"/>
  <rect x="280" y="135" width="35" height="35" fill="#1F2937"/>
  <rect x="315" y="135" width="35" height="35" fill="#fff" opacity="0.9"/>
  <!-- END text -->
  <text x="255" y="225" text-anchor="middle" font-family="Arial, sans-serif" font-weight="bold" font-size="52" fill="#fff">END</text>
  <!-- Ground/Base -->
  <ellipse cx="108" cy="460" rx="60" ry="20" fill="#9CA3AF"/>
  <ellipse cx="108" cy="455" rx="50" ry="15" fill="#D1D5DB"/>
</svg>
