<?xml version="1.0" encoding="utf-8"?>
<svg version="1.1" xmlns="http://www.w3.org/2000/svg" viewBox="0 0 512 512">
  <defs>
    <linearGradient id="startGrad" x1="0%" y1="0%" x2="100%" y2="100%">
      <stop offset="0%" style="stop-color:#3B82F6"/>
      <stop offset="100%" style="stop-color:#2563EB"/>
    </linearGradient>
    <filter id="shadow" x="-20%" y="-20%" width="140%" height="140%">
      <feDropShadow dx="0" dy="4" stdDeviation="8" flood-color="#1E40AF" flood-opacity="0.3"/>
    </filter>
  </defs>
  <!-- Pin/Marker Shape -->
  <path d="M256 450 L180 280 C140 220 140 140 200 90 C260 40 340 40 400 90 C460 140 460 220 420 280 L340 450 C320 490 290 490 256 450 Z" fill="url(#startGrad)" filter="url(#shadow)"/>
  <!-- Inner circle -->
  <circle cx="300" cy="180" r="100" fill="#DBEAFE"/>
  <circle cx="300" cy="180" r="80" fill="#fff"/>
  <!-- Play/Start Arrow -->
  <path d="M270 130 L270 230 L350 180 Z" fill="#2563EB"/>
  <!-- START text -->
  <text x="256" y="400" text-anchor="middle" font-family="Arial, sans-serif" font-weight="bold" font-size="48" fill="#fff">START</text>
  <!-- Decorative rays -->
  <path d="M300 50 L300 30" stroke="#93C5FD" stroke-width="6" stroke-linecap="round"/>
  <path d="M360 70 L375 55" stroke="#93C5FD" stroke-width="6" stroke-linecap="round"/>
  <path d="M240 70 L225 55" stroke="#93C5FD" stroke-width="6" stroke-linecap="round"/>
</svg>
