<?xml version="1.0" encoding="utf-8"?>
<svg version="1.1" xmlns="http://www.w3.org/2000/svg" viewBox="0 0 140 120">
  <defs>
    <filter id="shadow" x="-10%" y="-10%" width="130%" height="130%">
      <feDropShadow dx="2" dy="2" stdDeviation="2" flood-color="#000" flood-opacity="0.3"/>
    </filter>
  </defs>
  <!-- Black background bubble -->
  <path d="M15 10 H105 Q125 10 125 30 V70 Q125 90 105 90 H80 L60 110 L60 90 H15 Q5 90 5 70 V30 Q5 10 15 10 Z" 
        fill="#1a1a1a" stroke="#1a1a1a" stroke-width="4" filter="url(#shadow)"/>
  <!-- White inner border -->
  <path d="M20 15 H100 Q118 15 118 32 V68 Q118 85 100 85 H78 L62 100 L62 85 H20 Q12 85 12 68 V32 Q12 15 20 15 Z" 
        fill="none" stroke="#fff" stroke-width="2"/>
  <!-- Text -->
  <text x="65" y="58" text-anchor="middle" font-family="Arial Black, Arial, sans-serif" font-weight="900" font-size="26" fill="#fff">START</text>
</svg>
