<svg preserveAspectRatio="none" width="100%" height="100%" overflow="visible" style="display: block;" viewBox="0 0 16 16" fill="none" xmlns="http://www.w3.org/2000/svg">
<g id="Group">
<g id="Path">
</g>
<path id="Shape" d="M1.91667 8C1.91667 8.41421 2.25245 8.75 2.66667 8.75C3.08088 8.75 3.41667 8.41421 3.41667 8H2.66667H1.91667ZM13.3333 4.75C13.7475 4.75 14.0833 4.41421 14.0833 4C14.0833 3.58579 13.7475 3.25 13.3333 3.25V4V4.75ZM11.8637 1.46967C11.5708 1.17678 11.0959 1.17678 10.803 1.46967C10.5101 1.76256 10.5101 2.23744 10.803 2.53033L11.3333 2L11.8637 1.46967ZM13.3333 4L13.8637 4.53033C14.1566 4.23744 14.1566 3.76256 13.8637 3.46967L13.3333 4ZM10.803 5.46967C10.5101 5.76256 10.5101 6.23744 10.803 6.53033C11.0959 6.82322 11.5708 6.82322 11.8637 6.53033L11.3333 6L10.803 5.46967ZM2.66667 8H3.41667V6H2.66667H1.91667V8H2.66667ZM2.66667 6H3.41667C3.41667 5.30964 3.97631 4.75 4.66667 4.75V4V3.25C3.14788 3.25 1.91667 4.48122 1.91667 6H2.66667ZM4.66667 4V4.75H13.3333V4V3.25H4.66667V4ZM11.3333 2L10.803 2.53033L12.803 4.53033L13.3333 4L13.8637 3.46967L11.8637 1.46967L11.3333 2ZM13.3333 4L12.803 3.46967L10.803 5.46967L11.3333 6L11.8637 6.53033L13.8637 4.53033L13.3333 4Z" fill="var(--stroke-0, #0172CB)"/>
<path id="Shape_2" d="M14.0833 8C14.0833 7.58579 13.7475 7.25 13.3333 7.25C12.9191 7.25 12.5833 7.58579 12.5833 8H13.3333H14.0833ZM2.66667 11.25C2.25245 11.25 1.91667 11.5858 1.91667 12C1.91667 12.4142 2.25245 12.75 2.66667 12.75V12V11.25ZM4.13634 14.5303C4.42923 14.8232 4.9041 14.8232 5.197 14.5303C5.48989 14.2374 5.48989 13.7626 5.197 13.4697L4.66667 14L4.13634 14.5303ZM2.66667 12L2.13634 11.4697C1.84344 11.7626 1.84344 12.2374 2.13634 12.5303L2.66667 12ZM5.197 10.5303C5.48989 10.2374 5.48989 9.76256 5.197 9.46967C4.9041 9.17678 4.42923 9.17678 4.13634 9.46967L4.66667 10L5.197 10.5303ZM13.3333 8H12.5833V10H13.3333H14.0833V8H13.3333ZM13.3333 10H12.5833C12.5833 10.6904 12.0237 11.25 11.3333 11.25V12V12.75C12.8521 12.75 14.0833 11.5188 14.0833 10H13.3333ZM11.3333 12V11.25H2.66667V12V12.75H11.3333V12ZM4.66667 14L5.197 13.4697L3.197 11.4697L2.66667 12L2.13634 12.5303L4.13634 14.5303L4.66667 14ZM2.66667 12L3.197 12.5303L5.197 10.5303L4.66667 10L4.13634 9.46967L2.13634 11.4697L2.66667 12Z" fill="var(--stroke-0, #0172CB)"/>
</g>
</svg>
