<?xml version="1.0" encoding="utf-8"?>
<!-- Generator: Adobe Illustrator 24.0.0, SVG Export Plug-In . SVG Version: 6.00 Build 0)  -->
<svg version="1.1" id="Layer_1" xmlns="http://www.w3.org/2000/svg" xmlns:xlink="http://www.w3.org/1999/xlink" x="0px" y="0px"
	 viewBox="0 0 256 256" enable-background="new 0 0 256 256" xml:space="preserve">
<g>
	<g>
		<path fill="#D1D3D4" d="M220.644,205.524H35.356c-1.657,0-3-1.343-3-3v-68.108c0-1.657,1.343-3,3-3s3,1.343,3,3v65.108h179.288
			v-65.108c0-1.657,1.343-3,3-3s3,1.343,3,3v68.108C223.644,204.181,222.301,205.524,220.644,205.524z"/>
	</g>
	<g>
		<path fill="#D1D3D4" d="M128,73.929c-1.657,0-3-1.343-3-3V42.041c0-1.657,1.343-3,3-3s3,1.343,3,3v28.888
			C131,72.585,129.657,73.929,128,73.929z"/>
	</g>
	<g>
		<path fill="#D1D3D4" d="M128,223.428c-1.657,0-3-1.343-3-3V184.62c0-1.657,1.343-3,3-3s3,1.343,3,3v35.808
			C131,222.085,129.657,223.428,128,223.428z"/>
	</g>
	<g>
		<path fill="#D1D3D4" d="M179.787,107.4c-1.657,0-3-1.343-3-3V43.832H79.213V104.4c0,1.657-1.343,3-3,3s-3-1.343-3-3V40.832
			c0-1.657,1.343-3,3-3h103.573c1.657,0,3,1.343,3,3V104.4C182.787,106.057,181.443,107.4,179.787,107.4z"/>
	</g>
	<g>
		<g>
			<g>
				<g>
					<g>
						<path fill="#58595B" d="M187.895,128.006c0,33.025-26.868,59.893-59.893,59.893c-26.843,0-50.583-18.049-57.731-43.892
							c-0.48-1.745,0.541-3.55,2.285-4.033c1.745-0.482,3.55,0.541,4.033,2.285c6.365,23.012,27.507,39.085,51.413,39.085
							c29.411,0,53.338-23.928,53.338-53.338c0-1.81,1.467-3.277,3.277-3.277C186.428,124.729,187.895,126.196,187.895,128.006z"/>
					</g>
				</g>
			</g>
			<g>
				<g>
					<g>
						<path fill="#58595B" d="M186.38,114.937c0,1.485-1.016,2.83-2.524,3.187c-1.761,0.417-3.527-0.674-3.943-2.436
							c-5.709-24.152-27.055-41.02-51.91-41.02c-29.411,0-53.338,23.928-53.338,53.338c0,1.81-1.467,3.277-3.277,3.277
							c-1.81,0-3.277-1.467-3.277-3.277c0-33.025,26.868-59.893,59.893-59.893c13.567,0,26.858,4.663,37.424,13.129
							c10.405,8.337,17.814,20.034,20.864,32.938C186.351,114.434,186.38,114.687,186.38,114.937z"/>
					</g>
				</g>
			</g>
			<g>
				<g>
					<g>
						<g>
							<g>
								<g>
									<path fill="#414042" d="M70.607,134.093l-8.559-8.559c-0.695-0.695-0.203-1.882,0.78-1.882h17.118
										c0.982,0,1.474,1.188,0.78,1.882l-8.559,8.559C71.736,134.524,71.038,134.524,70.607,134.093z"/>
								</g>
							</g>
						</g>
					</g>
				</g>
			</g>
			<g>
				<g>
					<g>
						<g>
							<g>
								<g>
									<path fill="#414042" d="M183.839,123.975l-8.559,8.559c-0.695,0.695-0.203,1.882,0.78,1.882h17.118
										c0.982,0,1.474-1.188,0.78-1.882l-8.559-8.559C184.967,123.544,184.269,123.544,183.839,123.975z"/>
								</g>
							</g>
						</g>
					</g>
				</g>
			</g>
		</g>
		<g>
			<g>
				<g>
					<g>
						<g>
							<g>
								<g>
									<g>
										<path fill="#478CF7" d="M128,168.912L128,168.912c-22.595,0-40.912-18.317-40.912-40.912l0,0
											c0-22.595,18.317-40.912,40.912-40.912h0c22.595,0,40.912,18.317,40.912,40.912l0,0
											C168.912,150.595,150.595,168.912,128,168.912z"/>
									</g>
								</g>
							</g>
						</g>
					</g>
				</g>
			</g>
			<g>
				<g>
					<path fill="#5E9CF7" d="M99.97,150.79c-0.63,0-1.23-0.3-1.6-0.8c-0.66-0.89-0.48-2.14,0.41-2.8c0.86-0.64,2.16-0.45,2.8,0.41
						c0.32,0.43,0.45,0.95,0.37,1.48c-0.08,0.53-0.36,1-0.79,1.32C100.82,150.66,100.4,150.79,99.97,150.79z M95.97,143.89
						c-0.8,0-1.52-0.48-1.84-1.21c-2.02-4.64-3.04-9.58-3.04-14.68c0-20.35,16.56-36.91,36.91-36.91c7.81,0,15.28,2.41,21.59,6.99
						c0.44,0.31,0.72,0.77,0.81,1.3c0.08,0.53-0.05,1.06-0.36,1.49c-0.62,0.86-1.93,1.07-2.79,0.45
						c-5.64-4.08-12.29-6.23-19.25-6.23c-8.77,0-17.03,3.43-23.26,9.65c-6.22,6.23-9.65,14.49-9.65,23.26
						c0,4.54,0.91,8.95,2.71,13.09c0.22,0.49,0.22,1.03,0.03,1.53c-0.2,0.5-0.57,0.89-1.06,1.1
						C96.51,143.83,96.24,143.89,95.97,143.89z"/>
				</g>
			</g>
			<g>
				<g>
					<path fill="#377DE2" d="M151.488,94.511c4.672,6.649,7.424,14.745,7.424,23.489l0,0c0,22.595-18.317,40.912-40.912,40.912h0
						c-8.743,0-16.84-2.752-23.488-7.424c7.402,10.533,19.637,17.424,33.488,17.424h0c22.595,0,40.912-18.317,40.912-40.912l0,0
						C168.912,114.148,162.022,101.913,151.488,94.511z"/>
				</g>
			</g>
			<g>
				<g>
					<path fill="#2266D3" d="M154.317,96.683c5.985,7.115,9.596,16.292,9.596,26.317l0,0c0,22.595-18.317,40.912-40.912,40.912h0
						c-10.025,0-19.202-3.611-26.317-9.596c7.505,8.921,18.746,14.596,31.317,14.596h0c22.595,0,40.912-18.317,40.912-40.912l0,0
						C168.912,115.429,163.238,104.188,154.317,96.683z"/>
				</g>
			</g>
			<g>
				<g>
					<g>
						<g>
							<g>
								<g>
									<g>
										<path fill="#E6E7E8" d="M128,105.948c-12.175,0-22.044,9.87-22.044,22.044s9.87,22.044,22.044,22.044
											c12.175,0,22.044-9.87,22.044-22.044S140.175,105.948,128,105.948z M128,139.816c-6.53,0-11.824-5.294-11.824-11.824
											c0-6.53,5.294-11.824,11.824-11.824c6.53,0,11.824,5.294,11.824,11.824C139.824,134.523,134.53,139.816,128,139.816z"/>
									</g>
								</g>
								<g>
									<g>
										<g>
											<path fill="#FFFFFF" d="M149.472,122.98l5.359-4.728c0.807-0.712,1.001-1.894,0.462-2.826l-2.85-4.937
												c-0.538-0.932-1.658-1.355-2.678-1.013l-6.835,2.298C146.128,114.719,148.453,118.599,149.472,122.98z"/>
										</g>
									</g>
									<g>
										<g>
											<path fill="#FFFFFF" d="M101.169,118.252l5.359,4.728c1.019-4.381,3.344-8.26,6.542-11.206l-6.835-2.298
												c-1.02-0.343-2.14,0.081-2.678,1.013l-2.85,4.937C100.169,116.358,100.362,117.54,101.169,118.252z"/>
										</g>
									</g>
									<g>
										<g>
											<path fill="#FFFFFF" d="M128,105.948c2.246,0,4.413,0.336,6.455,0.96l-1.388-6.872c-0.213-1.055-1.14-1.813-2.216-1.813
												h-5.701c-1.076,0-2.003,0.758-2.216,1.813l-1.388,6.872C123.587,106.284,125.754,105.948,128,105.948z"/>
										</g>
									</g>
									<g>
										<g>
											<path fill="#FFFFFF" d="M154.657,137.432l-5.157-4.549c-0.984,4.343-3.249,8.2-6.379,11.151l6.469,2.175
												c1.02,0.343,2.14-0.081,2.678-1.013l2.851-4.937C155.657,139.326,155.464,138.144,154.657,137.432z"/>
										</g>
									</g>
									<g>
										<g>
											<path fill="#FFFFFF" d="M128,150.037c-2.246,0-4.413-0.336-6.455-0.96l1.388,6.872c0.213,1.055,1.14,1.813,2.216,1.813
												h5.701c1.076,0,2.003-0.758,2.216-1.813l1.388-6.872C132.413,149.701,130.246,150.037,128,150.037z"/>
										</g>
									</g>
									<g>
										<g>
											<path fill="#FFFFFF" d="M106.5,132.882l-5.157,4.549c-0.807,0.712-1.001,1.894-0.462,2.826l2.851,4.937
												c0.538,0.932,1.658,1.356,2.678,1.013l6.469-2.175C109.75,141.082,107.484,137.225,106.5,132.882z"/>
										</g>
									</g>
								</g>
							</g>
						</g>
					</g>
				</g>
			</g>
		</g>
	</g>
	<g>
		<g>
			<g>
				<g>
					<path fill="#939598" d="M114.721,232.873l26.558,0c3.538,0,5.499-4.099,3.278-6.854l-13.279-16.468
						c-1.685-2.09-4.87-2.09-6.556,0l-13.279,16.468C109.222,228.774,111.183,232.873,114.721,232.873z"/>
				</g>
			</g>
		</g>
	</g>
	<g>
		<g>
			<g>
				<g>
					<g>
						<path fill="#FFA91A" d="M89.492,29.596l-26.558,0c-3.538,0-5.499,4.099-3.278,6.854l13.279,16.468
							c1.685,2.09,4.87,2.09,6.556,0L92.77,36.45C94.991,33.696,93.031,29.596,89.492,29.596z"/>
					</g>
				</g>
			</g>
		</g>
		<g>
			<g>
				<g>
					<g>
						<path fill="#E63950" d="M193.065,29.596l-26.558,0c-3.538,0-5.499,4.099-3.278,6.854l13.279,16.468
							c1.685,2.09,4.87,2.09,6.556,0l13.279-16.468C198.564,33.696,196.604,29.596,193.065,29.596z"/>
					</g>
				</g>
			</g>
		</g>
	</g>
	<g>
		<path fill="#76A34F" d="M136.445,54.486h-16.89c-2.209,0-4-1.791-4-4v-16.89c0-2.209,1.791-4,4-4h16.89c2.209,0,4,1.791,4,4v16.89
			C140.445,52.695,138.654,54.486,136.445,54.486z"/>
	</g>
	<g>
		<g>
			<circle fill="#E63950" cx="35.356" cy="134.416" r="14.376"/>
		</g>
		<g>
			<circle fill="#FFA91A" cx="220.644" cy="134.416" r="14.376"/>
		</g>
	</g>
</g>
</svg>
