<?xml version="1.0" encoding="utf-8"?>
<!-- Generator: Adobe Illustrator 24.0.0, SVG Export Plug-In . SVG Version: 6.00 Build 0)  -->
<svg version="1.1" id="Layer_1" xmlns="http://www.w3.org/2000/svg" xmlns:xlink="http://www.w3.org/1999/xlink" x="0px" y="0px"
	 viewBox="0 0 256 256" enable-background="new 0 0 256 256" xml:space="preserve">
<g>
	<g>
		<g>
			<g>
				<g>
					<g>
						<g>
							<path fill="#8C3F0A" d="M83.818,237.143l-4.893-30.122c-0.347-2.134-2.756-3.226-4.589-2.079l-25.873,16.182
								c-2.539,1.588-5.594-1.085-4.359-3.812l48.81-107.723l45.453,20.595l-48.81,107.723
								C88.322,240.634,84.298,240.099,83.818,237.143z"/>
						</g>
					</g>
				</g>
			</g>
			<g>
				<g>
					<g>
						<g>
							<path fill="#8C3F0A" d="M172.182,237.143l4.893-30.122c0.347-2.134,2.756-3.226,4.589-2.079l25.873,16.182
								c2.539,1.588,5.594-1.085,4.359-3.812l-48.81-107.723l-45.453,20.595l48.81,107.723
								C167.678,240.634,171.702,240.099,172.182,237.143z"/>
						</g>
					</g>
				</g>
			</g>
		</g>
		<g>
			<path fill="#FFA91A" d="M145.387,20.891L145.387,20.891c4.611,4.611,10.865,7.202,17.387,7.202h0
				c13.58,0,24.588,11.009,24.588,24.588v0c0,6.521,2.591,12.775,7.202,17.387h0c9.602,9.602,9.602,25.171,0,34.773l0,0
				c-4.611,4.611-7.202,10.865-7.202,17.387v0c0,13.58-11.009,24.588-24.588,24.588h0c-6.521,0-12.775,2.591-17.387,7.202l0,0
				c-9.602,9.602-25.171,9.602-34.773,0l0,0c-4.611-4.611-10.865-7.202-17.387-7.202h0c-13.58,0-24.588-11.009-24.588-24.588v0
				c0-6.521-2.591-12.775-7.202-17.387l0,0c-9.602-9.602-9.602-25.171,0-34.773h0c4.611-4.611,7.202-10.865,7.202-17.387v0
				c0-13.58,11.009-24.588,24.588-24.588h0c6.521,0,12.775-2.591,17.387-7.202h0C120.216,11.289,135.784,11.289,145.387,20.891z"/>
		</g>
		<g>
			<g>
				<path fill="#FFC91D" d="M74.64,124.23c-1.1,0-2-0.9-2-2s0.9-2,2-2c1.1,0,2,0.9,2,2S75.74,124.23,74.64,124.23z M73.61,116.32
					c-0.9,0-1.7-0.61-1.93-1.49c-1.28-4.81-3.85-9.25-7.41-12.82c-3.89-3.88-6.03-9.05-6.03-14.56c0-5.5,2.14-10.67,6.03-14.55
					c5.39-5.4,8.37-12.58,8.37-20.22c0-11.35,9.24-20.58,20.59-20.59c7.63,0,14.81-2.97,20.21-8.37c3.89-3.89,9.05-6.03,14.55-6.03
					h0.02c5.5,0,10.66,2.14,14.55,6.03c5.4,5.4,12.58,8.37,20.21,8.37c1.11,0,2,0.9,2,2c0,1.11-0.89,2-2,2h-0.01
					c-8.7,0-16.88-3.39-23.03-9.54c-3.14-3.13-7.3-4.86-11.729-4.86c-4.43,0-8.6,1.73-11.73,4.86c-6.15,6.15-14.33,9.54-23.03,9.54
					h-0.01c-9.13,0.02-16.58,7.46-16.59,16.59c0,8.71-3.39,16.89-9.55,23.05c-3.12,3.12-4.84,7.29-4.85,11.72
					c0.01,4.44,1.73,8.61,4.85,11.73c4.07,4.07,6.99,9.13,8.45,14.62c0.29,1.07-0.35,2.17-1.41,2.45
					C73.96,116.29,73.78,116.32,73.61,116.32z"/>
			</g>
		</g>
		<g>
			<path fill="#F79219" d="M194.563,70.068c-4.611-4.611-7.202-10.865-7.202-17.387v0c0-9.362-5.234-17.501-12.934-21.654
				c1.871,3.469,2.934,7.437,2.934,11.654v0c0,6.521,2.591,12.775,7.202,17.387c9.602,9.602,9.602,25.171,0,34.773v0
				c-4.611,4.611-7.202,10.865-7.202,17.387v0c0,13.58-11.009,24.588-24.588,24.588h0c-6.521,0-12.775,2.591-17.387,7.202v0
				c-9.602,9.602-25.171,9.602-34.773,0v0c-4.611-4.611-10.865-7.202-17.387-7.202h0c-4.217,0-8.186-1.063-11.654-2.934
				c4.153,7.7,12.292,12.934,21.654,12.934h0c6.521,0,12.775,2.591,17.387,7.202v0c9.602,9.602,25.171,9.602,34.773,0v0
				c4.611-4.611,10.865-7.202,17.387-7.202h0c13.58,0,24.588-11.009,24.588-24.588v0c0-6.521,2.591-12.775,7.202-17.387v0
				C204.166,95.239,204.166,79.67,194.563,70.068z"/>
		</g>
		<g>
			<path fill="#EF7816" d="M194.563,70.068c-4.611-4.611-7.202-10.865-7.202-17.387v0c0-8.065-3.883-15.223-9.882-19.707
				c3.066,4.102,4.882,9.192,4.882,14.707v0c0,6.521,2.591,12.775,7.202,17.387c9.602,9.602,9.602,25.171,0,34.773v0
				c-4.611,4.611-7.202,10.865-7.202,17.387v0c0,13.58-11.009,24.588-24.588,24.588h0c-6.521,0-12.775,2.591-17.387,7.202v0
				c-9.602,9.602-25.171,9.602-34.773,0v0c-4.611-4.611-10.865-7.202-17.387-7.202h0c-5.515,0-10.605-1.816-14.707-4.881
				c4.484,5.998,11.642,9.881,19.707,9.881h0c6.521,0,12.775,2.591,17.387,7.202v0c9.602,9.602,25.171,9.602,34.773,0v0
				c4.611-4.611,10.865-7.202,17.387-7.202h0c13.58,0,24.588-11.009,24.588-24.588v0c0-6.521,2.591-12.775,7.202-17.387v0
				C204.166,95.239,204.166,79.67,194.563,70.068z"/>
		</g>
		<g>
			<g>
				<g>
					
						<ellipse transform="matrix(0.9744 -0.2247 0.2247 0.9744 -16.3775 30.9969)" fill="#EF7816" cx="128" cy="87.455" rx="49.641" ry="49.641"/>
				</g>
			</g>
		</g>
		<g>
			<g>
				<g>
					<g>
						<path fill="#FFFFFF" d="M129.686,70.643l3.24,9.971c0.237,0.731,0.918,1.225,1.686,1.225h9.851
							c1.917,0,2.714,2.453,1.163,3.58l-7.969,5.79c-0.622,0.451-0.882,1.252-0.644,1.982l3.24,9.971
							c0.531,1.634-1.339,2.992-2.729,1.982l-8.361-6.075c-0.694-0.504-1.633-0.504-2.327,0l-8.361,6.075
							c-1.39,1.01-3.259-0.349-2.729-1.982l3.24-9.971c0.237-0.731-0.023-1.531-0.644-1.982l-7.969-5.79
							c-1.551-1.127-0.754-3.58,1.163-3.58h9.851c0.768,0,1.449-0.495,1.686-1.225l3.24-9.971
							C126.844,69.009,129.156,69.009,129.686,70.643z"/>
					</g>
				</g>
			</g>
		</g>
	</g>
</g>
</svg>
