<?xml version="1.0" encoding="utf-8"?>
<!-- Generator: Adobe Illustrator 24.0.0, SVG Export Plug-In . SVG Version: 6.00 Build 0)  -->
<svg version="1.1" id="Layer_1" xmlns="http://www.w3.org/2000/svg" xmlns:xlink="http://www.w3.org/1999/xlink" x="0px" y="0px"
	 viewBox="0 0 256 256" enable-background="new 0 0 256 256" xml:space="preserve">
<g>
	<g>
		<g>
			<g>
				<g>
					<g>
						<g>
							<path fill="#F1F2F2" d="M220.47,186.529c10.888-17.165,17.129-37.567,16.951-59.439
								c-0.486-59.666-49.676-108.473-109.344-108.514C66.348,18.533,16.537,69.605,18.64,131.795
								c1.928,57.003,48.118,103.39,105.112,105.549c23.294,0.882,45.038-5.527,63.148-17.117c1.644-1.052,3.667-1.322,5.505-0.666
								l30.322,10.819c4.939,1.762,9.707-3.006,7.945-7.945l-10.854-30.422C219.166,190.183,219.43,188.169,220.47,186.529z"/>
						</g>
					</g>
					<g>
						<g>
							<path fill="#FFFFFF" d="M43.149,189c-0.659,0-1.27-0.32-1.649-0.86c-0.3-0.43-0.42-0.96-0.33-1.49
								c0.1-0.53,0.39-0.98,0.83-1.29c0.87-0.61,2.17-0.38,2.78,0.49c0.63,0.91,0.409,2.16-0.49,2.79
								C43.95,188.87,43.56,189,43.149,189z M38.819,182.27c-0.71,0-1.369-0.38-1.72-0.98c-4.37-7.42-7.819-15.34-10.25-23.56
								c-2.5-8.45-3.91-17.23-4.21-26.07c-0.04-1.22-0.07-2.46-0.07-3.69c0-13.7,2.57-26.99,7.62-39.5
								c5.07-12.53,12.471-23.88,22-33.74C72.1,34.13,98.83,22.71,127.46,22.58c0.35-0.1,0.729-0.1,1.08,0
								c10.96,0.05,21.75,1.8,32.08,5.19c0.02,0.01,0.029,0.01,0.05,0.02c2.54,0.83,5.1,1.79,7.59,2.83
								c1.01,0.42,1.49,1.59,1.07,2.61c-0.41,0.99-1.62,1.5-2.61,1.08c-2.41-1.01-4.88-1.93-7.35-2.74
								c-10.08-3.31-20.61-4.99-31.301-4.99H128c-27.74,0-53.641,10.98-72.931,30.93c-18.369,19.01-28.489,44.03-28.5,70.46
								c0,1.18,0.03,2.38,0.061,3.55c0.57,16.76,5.38,33.26,13.91,47.73c0,0.01,0.01,0.01,0.01,0.01c0.26,0.46,0.34,0.99,0.21,1.51
								c-0.14,0.52-0.46,0.95-0.92,1.22C39.53,182.17,39.18,182.27,38.819,182.27z"/>
						</g>
					</g>
					<g>
						<g>
							<path fill="#E6E7E8" d="M219.818,192.013c-0.653-1.83-0.389-3.843,0.652-5.484c10.888-17.165,17.129-37.567,16.951-59.439
								c-0.262-32.201-14.711-61.24-37.336-81.157c16.801,19.085,27.115,43.995,27.336,71.157
								c0.178,21.872-6.063,42.274-16.951,59.439c-1.041,1.64-1.305,3.654-0.652,5.484l10.854,30.422
								c1.762,4.939-3.006,9.707-7.945,7.945l-30.322-10.819c-1.838-0.656-3.862-0.386-5.506,0.666
								c-18.11,11.59-39.854,18-63.148,17.117c-25.908-0.982-49.583-11.102-67.884-27.205
								c19.218,21.842,46.961,36.033,77.884,37.205c23.294,0.882,45.038-5.527,63.148-17.117c1.644-1.052,3.667-1.322,5.506-0.666
								l30.322,10.819c4.939,1.762,9.707-3.006,7.945-7.945L219.818,192.013z"/>
						</g>
					</g>
					<g>
						<g>
							<path fill="#D1D3D4" d="M219.818,192.013c-0.653-1.83-0.389-3.843,0.652-5.484c10.888-17.165,17.129-37.567,16.951-59.439
								c-0.252-30.939-13.599-58.958-34.713-78.772c18.2,19.396,29.482,45.352,29.713,73.772
								c0.178,21.872-6.063,42.274-16.951,59.439c-1.041,1.64-1.305,3.654-0.652,5.484l10.854,30.422
								c1.762,4.939-3.006,9.707-7.945,7.945l-30.322-10.819c-1.838-0.656-3.862-0.386-5.506,0.666
								c-18.11,11.59-39.854,18-63.148,17.117c-27.16-1.029-51.866-12.102-70.498-29.58c19.093,20.349,45.832,33.456,75.498,34.58
								c23.294,0.882,45.038-5.527,63.148-17.117c1.644-1.052,3.667-1.322,5.506-0.666l30.322,10.819
								c4.939,1.762,9.707-3.006,7.945-7.945L219.818,192.013z"/>
						</g>
					</g>
				</g>
			</g>
		</g>
	</g>
	<g>
		<g>
			<g>
				<g>
					<g>
						<path fill="#E63950" d="M112.74,123.336H56.553c-2.507,0-4.54-2.033-4.54-4.54V80.203c0-2.508,2.033-4.54,4.54-4.54h56.187
							c2.508,0,4.54,2.033,4.54,4.54v38.593C117.281,121.303,115.248,123.336,112.74,123.336z"/>
					</g>
				</g>
				<g>
					<g>
						<g>
							<path fill="#FFFFFF" d="M78.977,88.702H64.22c-1.152,0-2.085-0.933-2.085-2.085c0-1.152,0.933-2.085,2.085-2.085h14.757
								c1.152,0,2.085,0.933,2.085,2.085C81.062,87.769,80.129,88.702,78.977,88.702z"/>
						</g>
					</g>
					<g>
						<g>
							<path fill="#FFFFFF" d="M105.073,102.945H64.22c-1.152,0-2.085-0.933-2.085-2.085c0-1.152,0.933-2.085,2.085-2.085h40.852
								c1.152,0,2.085,0.933,2.085,2.085C107.158,102.012,106.224,102.945,105.073,102.945z"/>
						</g>
					</g>
					<g>
						<g>
							<path fill="#FFFFFF" d="M105.073,114.466H64.22c-1.152,0-2.085-0.933-2.085-2.085c0-1.152,0.933-2.085,2.085-2.085h40.852
								c1.152,0,2.085,0.933,2.085,2.085C107.158,113.533,106.224,114.466,105.073,114.466z"/>
						</g>
					</g>
				</g>
			</g>
			<g>
				<g>
					<g>
						<path fill="#E63950" d="M199.447,144.639H143.26c-2.508,0-4.54-2.033-4.54-4.54v-38.593c0-2.508,2.033-4.54,4.54-4.54h56.187
							c2.508,0,4.54,2.033,4.54,4.54v38.593C203.987,142.606,201.954,144.639,199.447,144.639z"/>
					</g>
				</g>
				<g>
					<g>
						<g>
							<path fill="#FFFFFF" d="M165.684,110.005h-14.757c-1.152,0-2.085-0.933-2.085-2.085s0.933-2.085,2.085-2.085h14.757
								c1.152,0,2.085,0.933,2.085,2.085S166.835,110.005,165.684,110.005z"/>
						</g>
					</g>
					<g>
						<g>
							<path fill="#FFFFFF" d="M191.779,124.248h-40.852c-1.152,0-2.085-0.933-2.085-2.085c0-1.152,0.933-2.085,2.085-2.085h40.852
								c1.152,0,2.085,0.933,2.085,2.085C193.864,123.314,192.931,124.248,191.779,124.248z"/>
						</g>
					</g>
					<g>
						<g>
							<path fill="#FFFFFF" d="M191.779,135.769h-40.852c-1.152,0-2.085-0.933-2.085-2.085c0-1.152,0.933-2.085,2.085-2.085h40.852
								c1.152,0,2.085,0.933,2.085,2.085C193.864,134.835,192.931,135.769,191.779,135.769z"/>
						</g>
					</g>
				</g>
			</g>
			<g>
				<g>
					<g>
						<path fill="#E63950" d="M143.538,200.547H87.351c-2.507,0-4.54-2.033-4.54-4.54v-38.593c0-2.508,2.033-4.54,4.54-4.54h56.187
							c2.508,0,4.54,2.033,4.54,4.54v38.593C148.078,198.515,146.046,200.547,143.538,200.547z"/>
					</g>
				</g>
				<g>
					<g>
						<g>
							<path fill="#FFFFFF" d="M109.775,165.914H95.018c-1.152,0-2.085-0.933-2.085-2.085s0.933-2.085,2.085-2.085h14.757
								c1.152,0,2.085,0.933,2.085,2.085S110.927,165.914,109.775,165.914z"/>
						</g>
					</g>
					<g>
						<g>
							<path fill="#FFFFFF" d="M135.87,180.157H95.018c-1.152,0-2.085-0.933-2.085-2.085c0-1.152,0.933-2.085,2.085-2.085h40.852
								c1.152,0,2.085,0.933,2.085,2.085C137.955,179.223,137.022,180.157,135.87,180.157z"/>
						</g>
					</g>
					<g>
						<g>
							<path fill="#FFFFFF" d="M135.87,191.677H95.018c-1.152,0-2.085-0.933-2.085-2.085c0-1.152,0.933-2.085,2.085-2.085h40.852
								c1.152,0,2.085,0.933,2.085,2.085C137.955,190.744,137.022,191.677,135.87,191.677z"/>
						</g>
					</g>
				</g>
			</g>
		</g>
	</g>
	<g>
		<g>
			<circle fill="#FFA91A" cx="95.523" cy="64.633" r="17.764"/>
		</g>
		<g>
			<path fill="#FFFFFF" d="M95.523,67.801L95.523,67.801c-1.426,0-2.582-1.156-2.582-2.582v-9.076c0-1.426,1.156-2.582,2.582-2.582
				l0,0c1.426,0,2.582,1.156,2.582,2.582v9.076C98.105,66.645,96.949,67.801,95.523,67.801z"/>
		</g>
		<g>
			<circle fill="#FFFFFF" cx="95.523" cy="73.124" r="2.582"/>
		</g>
	</g>
	<g>
		<g>
			<circle fill="#FFA91A" cx="185.211" cy="91.474" r="17.764"/>
		</g>
		<g>
			<path fill="#FFFFFF" d="M185.211,94.641L185.211,94.641c-1.426,0-2.582-1.156-2.582-2.582v-9.076
				c0-1.426,1.156-2.582,2.582-2.582l0,0c1.426,0,2.582,1.156,2.582,2.582v9.076C187.793,93.486,186.637,94.641,185.211,94.641z"/>
		</g>
		<g>
			<circle fill="#FFFFFF" cx="185.211" cy="99.964" r="2.582"/>
		</g>
	</g>
	<g>
		<g>
			<circle fill="#FFA91A" cx="161.534" cy="178.072" r="17.764"/>
		</g>
		<g>
			<path fill="#FFFFFF" d="M161.534,181.239L161.534,181.239c-1.426,0-2.582-1.156-2.582-2.582v-9.076
				c0-1.426,1.156-2.582,2.582-2.582l0,0c1.426,0,2.582,1.156,2.582,2.582v9.076C164.116,180.083,162.96,181.239,161.534,181.239z"
				/>
		</g>
		<g>
			<circle fill="#FFFFFF" cx="161.534" cy="186.562" r="2.582"/>
		</g>
	</g>
</g>
</svg>
