<?xml version="1.0" encoding="utf-8"?>
<!-- Generator: Adobe Illustrator 24.0.0, SVG Export Plug-In . SVG Version: 6.00 Build 0)  -->
<svg version="1.1" id="Layer_1" xmlns="http://www.w3.org/2000/svg" xmlns:xlink="http://www.w3.org/1999/xlink" x="0px" y="0px"
	 viewBox="0 0 256 256" enable-background="new 0 0 256 256" xml:space="preserve">
<g>
	<g>
		<g>
			<g>
				<g>
					<g>
						<g>
							<path fill="#FFA91A" d="M220.47,186.529c10.888-17.165,17.129-37.567,16.951-59.439
								c-0.486-59.666-49.676-108.473-109.344-108.514C66.348,18.533,16.537,69.605,18.64,131.795
								c1.928,57.003,48.118,103.39,105.112,105.549c23.294,0.882,45.038-5.527,63.148-17.117c1.644-1.052,3.667-1.322,5.505-0.666
								l30.322,10.819c4.939,1.762,9.707-3.006,7.945-7.945l-10.854-30.422C219.166,190.183,219.43,188.169,220.47,186.529z"/>
						</g>
					</g>
					<g>
						<g>
							<path fill="#FFC91D" d="M43.149,189c-0.659,0-1.27-0.32-1.649-0.86c-0.3-0.43-0.42-0.96-0.33-1.49
								c0.1-0.53,0.39-0.98,0.83-1.29c0.87-0.61,2.17-0.38,2.78,0.49c0.63,0.91,0.409,2.16-0.49,2.79
								C43.95,188.87,43.56,189,43.149,189z M38.819,182.27c-0.699,0-1.369-0.38-1.72-0.98c-4.37-7.42-7.819-15.34-10.25-23.56
								c-2.5-8.45-3.91-17.23-4.21-26.07c-0.04-1.22-0.07-2.46-0.07-3.69c0-13.7,2.57-26.99,7.62-39.5
								c5.07-12.53,12.471-23.88,22-33.74C72.1,34.13,98.83,22.71,127.45,22.58c0.359-0.1,0.739-0.1,1.09,0
								c10.96,0.05,21.75,1.8,32.08,5.19c0.02,0.01,0.029,0.01,0.05,0.02c2.54,0.83,5.09,1.79,7.59,2.83
								c1.01,0.42,1.5,1.59,1.07,2.61c-0.41,0.99-1.61,1.5-2.61,1.08c-2.41-1.01-4.88-1.93-7.35-2.74
								c-10.07-3.31-20.601-4.99-31.301-5c-0.02,0-0.039,0.01-0.069,0c-27.74,0.01-53.641,11-72.931,30.94
								c-18.369,19.01-28.489,44.03-28.5,70.46c0,1.18,0.03,2.38,0.061,3.55c0.57,16.76,5.38,33.26,13.91,47.73
								c0,0.01,0.01,0.01,0.01,0.01c0.26,0.46,0.34,0.99,0.21,1.51c-0.14,0.52-0.46,0.95-0.92,1.22
								C39.53,182.17,39.18,182.27,38.819,182.27z"/>
						</g>
					</g>
					<g>
						<g>
							<path fill="#F79219" d="M219.818,192.013c-0.653-1.83-0.389-3.843,0.652-5.484c10.888-17.165,17.129-37.567,16.951-59.439
								c-0.262-32.201-14.711-61.24-37.336-81.157c16.801,19.085,27.115,43.995,27.336,71.157
								c0.178,21.872-6.063,42.274-16.951,59.439c-1.041,1.64-1.305,3.654-0.652,5.484l10.854,30.422
								c1.762,4.939-3.006,9.707-7.945,7.945l-30.322-10.819c-1.838-0.656-3.862-0.386-5.506,0.666
								c-18.11,11.59-39.854,18-63.148,17.117c-25.908-0.982-49.583-11.102-67.884-27.205
								c19.218,21.842,46.961,36.033,77.884,37.205c23.294,0.882,45.038-5.527,63.148-17.117c1.644-1.052,3.667-1.322,5.506-0.666
								l30.322,10.819c4.939,1.762,9.707-3.006,7.945-7.945L219.818,192.013z"/>
						</g>
					</g>
					<g>
						<g>
							<path fill="#EF7816" d="M219.818,192.013c-0.653-1.83-0.389-3.843,0.652-5.484c10.888-17.165,17.129-37.567,16.951-59.439
								c-0.252-30.939-13.599-58.958-34.713-78.772c18.2,19.396,29.482,45.352,29.713,73.772
								c0.178,21.872-6.063,42.274-16.951,59.439c-1.041,1.64-1.305,3.654-0.652,5.484l10.854,30.422
								c1.762,4.939-3.006,9.707-7.945,7.945l-30.322-10.819c-1.838-0.656-3.862-0.386-5.506,0.666
								c-18.11,11.59-39.854,18-63.148,17.117c-27.16-1.029-51.866-12.102-70.498-29.58c19.093,20.349,45.832,33.456,75.498,34.58
								c23.294,0.882,45.038-5.527,63.148-17.117c1.644-1.052,3.667-1.322,5.506-0.666l30.322,10.819
								c4.939,1.762,9.707-3.006,7.945-7.945L219.818,192.013z"/>
						</g>
					</g>
				</g>
			</g>
		</g>
	</g>
	<g>
		<g>
			<g>
				<g>
					<g>
						<g>
							<path fill="#58595B" d="M97.132,205.171l-3.418-21.045c-0.242-1.491-1.925-2.254-3.206-1.453l-18.077,11.306
								c-1.774,1.109-3.908-0.758-3.045-2.663l34.101-75.261l31.756,14.389l-34.101,75.261
								C100.279,207.61,97.467,207.236,97.132,205.171z"/>
						</g>
					</g>
				</g>
			</g>
			<g>
				<g>
					<g>
						<g>
							<path fill="#58595B" d="M158.868,205.171l3.418-21.045c0.242-1.491,1.925-2.254,3.206-1.453l18.077,11.306
								c1.774,1.109,3.908-0.758,3.045-2.663l-34.101-75.261l-31.756,14.389l34.101,75.261
								C155.721,207.61,158.533,207.236,158.868,205.171z"/>
						</g>
					</g>
				</g>
			</g>
		</g>
		<g>
			<path fill="#FFFFFF" d="M140.147,54.086L140.147,54.086c3.222,3.222,7.591,5.032,12.147,5.032h0
				c9.488,0,17.179,7.691,17.179,17.179v0c0,4.556,1.81,8.926,5.032,12.147h0c6.709,6.709,6.709,17.586,0,24.294l0,0
				c-3.222,3.222-5.032,7.591-5.032,12.147v0c0,9.488-7.691,17.179-17.179,17.179h0c-4.556,0-8.926,1.81-12.147,5.032l0,0
				c-6.709,6.709-17.586,6.709-24.294,0l0,0c-3.222-3.222-7.591-5.032-12.147-5.032h0c-9.488,0-17.179-7.691-17.179-17.179v0
				c0-4.556-1.81-8.926-5.032-12.147l0,0c-6.709-6.709-6.709-17.586,0-24.294h0c3.222-3.222,5.032-7.591,5.032-12.147v0
				c0-9.488,7.691-17.179,17.179-17.179h0c4.556,0,8.926-1.81,12.147-5.032h0C122.562,47.377,133.438,47.377,140.147,54.086z"/>
		</g>
		<g>
			<g>
				<g>
					<g>
						<path fill="#FFC91D" d="M134.101,86.722l2.576-8.31c1.279-4.127-1.03-8.51-5.157-9.789c-1.088-0.337-2.244,0.271-2.581,1.36
							l-0.71,2.289c-0.007,0.017-8.028,18.177-12.554,18.077V121.3h2.446c2.964-0.187,5.022,2.605,7.986,2.418h18.465V86.722
							H134.101z"/>
					</g>
				</g>
				<g>
					<g>
						<path fill="#FFA91A" d="M133.168,86.722c-1.5,0-2.534,1.482-2.037,2.897c0.415,1.182,0.642,2.452,0.642,3.776
							c0,4.376-2.45,8.178-6.054,10.112c-0.875,0.469-0.875,1.761,0,2.23c3.603,1.934,6.054,5.736,6.054,10.112
							c0,0.631-0.051,1.25-0.15,1.853c-0.518,3.167,2.017,6.016,5.226,6.016h7.724V86.722H133.168z"/>
					</g>
				</g>
				<g>
					<g>
						<path fill="#FFC91D" d="M153.443,105.22h-11.788c-2.554,0-4.624-2.071-4.624-4.625l0,0c0-2.554,2.071-4.624,4.624-4.624
							h11.788c2.554,0,4.624,2.071,4.624,4.624l0,0C158.068,103.149,155.997,105.22,153.443,105.22z"/>
					</g>
				</g>
				<g>
					<g>
						<path fill="#FFC91D" d="M151.146,114.469h-11.788c-2.554,0-4.624-2.071-4.624-4.625l0,0c0-2.554,2.07-4.624,4.624-4.624
							h11.788c2.554,0,4.624,2.071,4.624,4.624l0,0C155.771,112.399,153.7,114.469,151.146,114.469z"/>
					</g>
				</g>
				<g>
					<g>
						<path fill="#FFC91D" d="M148.849,123.718h-11.788c-2.554,0-4.625-2.071-4.625-4.625l0,0c0-2.554,2.071-4.624,4.625-4.624
							h11.788c2.554,0,4.625,2.071,4.625,4.624l0,0C153.474,121.648,151.403,123.718,148.849,123.718z"/>
					</g>
				</g>
				<g>
					<g>
						<path fill="#FFC91D" d="M155.741,95.971h-11.788c-2.554,0-4.625-2.071-4.625-4.625l0,0c0-2.554,2.071-4.624,4.625-4.624
							h11.788c2.554,0,4.625,2.071,4.625,4.624l0,0C160.365,93.9,158.295,95.971,155.741,95.971z"/>
					</g>
				</g>
				<g>
					<g>
						<path fill="#FFA91A" d="M112.601,125.441H99.998c-1.698,0-3.074-1.376-3.074-3.074V89.22c0-1.698,1.376-3.074,3.074-3.074
							h12.603c1.698,0,3.074,1.376,3.074,3.074v33.147C115.675,124.065,114.299,125.441,112.601,125.441z"/>
					</g>
				</g>
			</g>
		</g>
	</g>
	<g>
		<g>
			<g>
				<path fill="#FFFFFF" d="M52.841,99.942c-2.919,6.332-8.001,11.415-14.333,14.333c-1.463,0.662-2.112,2.385-1.449,3.848
					c0.291,0.643,0.806,1.158,1.449,1.449c6.333,2.917,11.416,7.999,14.333,14.331c0.657,1.465,2.377,2.121,3.843,1.464
					c0.651-0.292,1.172-0.813,1.464-1.464c2.917-6.333,8-11.416,14.333-14.331c1.463-0.662,2.112-2.385,1.449-3.848
					c-0.291-0.643-0.806-1.158-1.449-1.449c-6.333-2.917-11.416-8-14.333-14.333c-0.657-1.465-2.377-2.121-3.843-1.464
					C53.653,98.77,53.132,99.291,52.841,99.942z"/>
			</g>
		</g>
		<g>
			<g>
				<path fill="#E6E7E8" d="M73.93,115.725c-0.291-0.643-0.806-1.158-1.449-1.449c-1.162-0.535-2.266-1.167-3.339-1.843
					c-0.163,0.911-0.755,1.729-1.661,2.14c-6.334,2.916-11.417,7.998-14.333,14.331c-0.292,0.651-0.813,1.172-1.464,1.464
					c-0.223,0.1-0.453,0.16-0.684,0.201c0.675,1.071,1.306,2.174,1.841,3.335c0.657,1.465,2.377,2.121,3.843,1.464
					c0.651-0.292,1.172-0.813,1.464-1.464c2.917-6.333,8-11.416,14.333-14.331C73.943,118.91,74.592,117.187,73.93,115.725z"/>
			</g>
		</g>
	</g>
	<g>
		<g>
			<g>
				<path fill="#FFFFFF" d="M138.373,161.09c-2.919,6.332-8.001,11.415-14.333,14.333c-1.463,0.662-2.112,2.385-1.449,3.848
					c0.291,0.643,0.806,1.158,1.449,1.449c6.333,2.917,11.416,7.999,14.333,14.331c0.657,1.465,2.377,2.121,3.843,1.464
					c0.651-0.292,1.172-0.813,1.464-1.464c2.916-6.333,8-11.416,14.333-14.331c1.463-0.662,2.112-2.385,1.449-3.848
					c-0.291-0.643-0.806-1.158-1.449-1.449c-6.333-2.917-11.416-8-14.333-14.333c-0.657-1.465-2.377-2.121-3.843-1.464
					C139.186,159.918,138.665,160.439,138.373,161.09z"/>
			</g>
		</g>
		<g>
			<g>
				<path fill="#E6E7E8" d="M159.463,176.873c-0.291-0.643-0.806-1.158-1.449-1.449c-1.162-0.535-2.266-1.167-3.338-1.843
					c-0.163,0.911-0.755,1.729-1.662,2.14c-6.333,2.916-11.417,7.998-14.333,14.331c-0.292,0.651-0.813,1.172-1.464,1.464
					c-0.224,0.1-0.453,0.16-0.684,0.201c0.675,1.071,1.306,2.174,1.841,3.335c0.657,1.465,2.377,2.121,3.843,1.464
					c0.651-0.292,1.172-0.813,1.464-1.464c2.916-6.333,8-11.416,14.333-14.331C159.476,180.059,160.125,178.336,159.463,176.873z"/>
			</g>
		</g>
	</g>
	<g>
		<g>
			<g>
				<path fill="#FFFFFF" d="M197.458,75.631c-2.723,5.908-7.465,10.649-13.372,13.372c-1.365,0.618-1.97,2.225-1.352,3.59
					c0.272,0.6,0.752,1.08,1.352,1.352c5.908,2.721,10.65,7.463,13.372,13.371c0.613,1.367,2.218,1.979,3.585,1.366
					c0.607-0.272,1.094-0.758,1.366-1.366c2.721-5.909,7.463-10.65,13.372-13.371c1.365-0.618,1.97-2.225,1.352-3.59
					c-0.272-0.6-0.752-1.081-1.352-1.352c-5.909-2.721-10.651-7.464-13.372-13.372c-0.613-1.367-2.218-1.979-3.585-1.366
					C198.217,74.537,197.731,75.023,197.458,75.631z"/>
			</g>
		</g>
		<g>
			<g>
				<path fill="#E6E7E8" d="M217.134,90.355c-0.272-0.6-0.752-1.081-1.352-1.352c-1.216-0.56-2.368-1.226-3.478-1.949
					c-0.178,0.807-0.711,1.525-1.522,1.892c-5.909,2.72-10.651,7.462-13.372,13.371c-0.272,0.607-0.758,1.094-1.366,1.366
					c-0.172,0.077-0.347,0.134-0.524,0.174c0.719,1.104,1.381,2.251,1.939,3.46c0.613,1.367,2.218,1.979,3.585,1.366
					c0.608-0.272,1.094-0.758,1.366-1.366c2.721-5.909,7.463-10.651,13.372-13.371C217.146,93.328,217.752,91.72,217.134,90.355z"/>
			</g>
		</g>
	</g>
</g>
</svg>
