<?xml version="1.0" encoding="utf-8"?>
<!-- Generator: Adobe Illustrator 24.0.0, SVG Export Plug-In . SVG Version: 6.00 Build 0)  -->
<svg version="1.1" id="Layer_1" xmlns="http://www.w3.org/2000/svg" xmlns:xlink="http://www.w3.org/1999/xlink" x="0px" y="0px"
	 viewBox="0 0 256 256" enable-background="new 0 0 256 256" xml:space="preserve">
<g>
	<g>
		<g>
			<g>
				<g>
					<g>
						<g>
							<g>
								<g>
									<g>
										<g>
											<path fill="#58595B" d="M196.253,196.652l15.526-15.527c0.301-0.301,0.628-0.559,0.968-0.79l-11.404-11.403
												c-4.974,6.496-10.788,12.31-17.284,17.284l11.404,11.403C195.694,197.28,195.952,196.953,196.253,196.652z"/>
										</g>
									</g>
								</g>
								<g>
									<g>
										<g>
											<path fill="#E63950" d="M223.044,232.817l-26.791-26.791c-2.589-2.589-2.589-6.786,0-9.374l15.526-15.527
												c2.589-2.589,6.786-2.589,9.374,0l26.791,26.791c2.589,2.589,2.589,6.786,0,9.374l-15.527,15.526
												C229.829,235.406,225.632,235.406,223.044,232.817z"/>
										</g>
									</g>
								</g>
								<g>
									<g>
										<g>
											<path fill="#D10028" d="M243.245,221.99c-2.589,2.589-6.786,2.589-9.374,0l-26.791-26.791
												c-2.589-2.589-2.589-6.786,0-9.374l4.708-4.708c-0.003,0.003-0.006,0.006-0.009,0.008l-15.526,15.527
												c-2.589,2.589-2.589,6.786,0,9.375l26.791,26.791c2.589,2.589,6.786,2.589,9.374,0l15.527-15.526
												c0.002-0.002,0.004-0.004,0.006-0.006L243.245,221.99z"/>
										</g>
									</g>
								</g>
								<g>
									<g>
										<g>
											<path fill="#414042" d="M193.205,178.211c-2.868,2.862-5.923,5.537-9.146,8.005l11.404,11.403
												c0.231-0.34,0.489-0.667,0.79-0.968l7.697-7.697L193.205,178.211z"/>
										</g>
									</g>
								</g>
							</g>
							<g>
								<g>
									<g>
										<g>
											<path fill="#E63950" d="M127.958,20.443c-51.024,0-92.388,41.363-92.388,92.388s41.364,92.388,92.388,92.388
												c51.024,0,92.388-41.363,92.388-92.388S178.982,20.443,127.958,20.443z M127.958,182.526
												c-38.492,0-69.695-31.204-69.695-69.695c0-38.492,31.204-69.696,69.695-69.696c38.492,0,69.695,31.204,69.695,69.696
												C197.653,151.322,166.449,182.526,127.958,182.526z"/>
										</g>
									</g>
								</g>
								<g>
									<g>
										<g>
											<path fill="#D10028" d="M127.958,30.702c-45.358,0-82.128,36.77-82.128,82.128s36.77,82.128,82.128,82.128
												s82.128-36.77,82.128-82.128S173.316,30.702,127.958,30.702z M127.958,182.526c-38.492,0-69.695-31.204-69.695-69.695
												c0-38.492,31.204-69.696,69.695-69.696c38.492,0,69.695,31.204,69.695,69.696
												C197.653,151.322,166.449,182.526,127.958,182.526z"/>
										</g>
									</g>
								</g>
							</g>
						</g>
					</g>
					<g>
						<g>
							<g>
								<circle fill="#F1F2F2" cx="127.944" cy="112.83" r="69.695"/>
							</g>
						</g>
					</g>
					<g>
						<g>
							<path fill="#FFFFFF" d="M78.81,155.32c-0.6,0-1.16-0.26-1.54-0.72c-0.7-0.85-0.58-2.12,0.27-2.82
								c0.82-0.68,2.14-0.55,2.81,0.27c0.71,0.85,0.58,2.11-0.26,2.82C79.73,155.16,79.28,155.32,78.81,155.32z M74.12,148.85
								c-0.69,0-1.32-0.34-1.69-0.93c-6.66-10.49-10.18-22.63-10.18-35.09c0-36.22,29.47-65.69,65.69-65.7
								c9.62,0,18.9,2.05,27.57,6.07c1,0.47,1.44,1.66,0.97,2.66c-0.45,0.97-1.68,1.42-2.65,0.97c-8.14-3.78-16.85-5.7-25.89-5.7
								c-16.44,0-31.93,6.43-43.6,18.1s-18.09,27.15-18.09,43.6c0,11.7,3.3,23.09,9.56,32.95c0.59,0.93,0.31,2.17-0.62,2.76
								C74.87,148.75,74.5,148.85,74.12,148.85z"/>
						</g>
					</g>
					<g>
						<path fill="#E6E7E8" d="M171.968,58.807c9.793,12.003,15.672,27.325,15.672,44.024c0,38.492-31.204,69.695-69.695,69.695
							c-16.699,0-32.021-5.879-44.023-15.672c12.78,15.664,32.231,25.672,54.023,25.672c38.492,0,69.695-31.204,69.695-69.695
							C197.64,91.037,187.632,71.587,171.968,58.807z"/>
					</g>
					<g>
						<path fill="#D1D3D4" d="M174.66,61.114c11.173,12.361,17.98,28.742,17.98,46.716c0,38.492-31.204,69.695-69.695,69.695
							c-17.974,0-34.355-6.807-46.716-17.979c12.754,14.11,31.198,22.979,51.716,22.979c38.492,0,69.695-31.204,69.695-69.695
							C197.64,92.312,188.771,73.868,174.66,61.114z"/>
					</g>
				</g>
			</g>
			<g>
				<g>
					<g>
						<g>
							<circle fill="#FFA91A" cx="128" cy="203.988" r="27.915"/>
						</g>
					</g>
				</g>
				<g>
					<g>
						<g>
							<g>
								<path fill="#FFFFFF" d="M124.977,218.782c-1.252,0-2.504-0.478-3.46-1.433l-9.634-9.634c-1.91-1.911-1.91-5.008,0-6.919
									c1.911-1.91,5.008-1.91,6.919,0l6.175,6.176l12.254-12.255c1.911-1.91,5.008-1.91,6.919,0c1.91,1.911,1.91,5.008,0,6.919
									l-15.714,15.714C127.481,218.305,126.229,218.782,124.977,218.782z"/>
							</g>
						</g>
					</g>
				</g>
				<g>
					<g>
						<g>
							<g>
								<polygon fill="#377DE2" points="122.977,204.972 122.977,204.972 118.802,200.796 118.8,200.795 								"/>
							</g>
						</g>
					</g>
				</g>
			</g>
		</g>
	</g>
	<g>
		<g>
			<g>
				<g>
					<g>
						<g>
							<path fill="#58595B" d="M111.797,91.269c-2.004,0-3.627-1.624-3.627-3.627c0-7.551-6.143-13.694-13.693-13.694
								c-2.004,0-3.627-1.624-3.627-3.627c0-2.004,1.624-3.627,3.627-3.627c11.55,0,20.948,9.397,20.948,20.949
								C115.424,89.645,113.801,91.269,111.797,91.269z"/>
						</g>
					</g>
					<g>
						<g>
							<path fill="#58595B" d="M144.091,91.269c-2.004,0-3.627-1.624-3.627-3.627c0-11.551,9.397-20.949,20.949-20.949
								c2.004,0,3.627,1.624,3.627,3.627c0,2.004-1.624,3.627-3.627,3.627c-7.551,0-13.694,6.143-13.694,13.694
								C147.719,89.645,146.095,91.269,144.091,91.269z"/>
						</g>
					</g>
				</g>
			</g>
			<g>
				<g>
					<g>
						<g>
							<path fill="#58595B" d="M102.291,111.825c-9.139,0-16.574-7.435-16.574-16.574c0-2.004,1.624-3.627,3.627-3.627
								c2.004,0,3.627,1.624,3.627,3.627c0,5.139,4.181,9.319,9.319,9.319c2.004,0,3.627,1.624,3.627,3.627
								C105.919,110.201,104.295,111.825,102.291,111.825z"/>
						</g>
					</g>
					<g>
						<g>
							<path fill="#58595B" d="M89.344,154.074c-2.004,0-3.627-1.624-3.627-3.627c0-9.139,7.435-16.574,16.574-16.574
								c2.004,0,3.627,1.624,3.627,3.627c0,2.004-1.624,3.627-3.627,3.627c-5.139,0-9.319,4.18-9.319,9.319
								C92.972,152.45,91.348,154.074,89.344,154.074z"/>
						</g>
					</g>
					<g>
						<g>
							<path fill="#58595B" d="M102.291,126.592H89.344c-2.004,0-3.627-1.624-3.627-3.627c0-2.004,1.624-3.627,3.627-3.627h12.947
								c2.004,0,3.627,1.624,3.627,3.627C105.919,124.969,104.295,126.592,102.291,126.592z"/>
						</g>
					</g>
				</g>
				<g>
					<g>
						<g>
							<path fill="#58595B" d="M153.598,111.825c-2.004,0-3.627-1.624-3.627-3.627c0-2.004,1.624-3.627,3.627-3.627
								c5.139,0,9.319-4.18,9.319-9.319c0-2.004,1.624-3.627,3.627-3.627c2.004,0,3.627,1.624,3.627,3.627
								C170.172,104.39,162.737,111.825,153.598,111.825z"/>
						</g>
					</g>
					<g>
						<g>
							<path fill="#58595B" d="M166.545,154.074c-2.004,0-3.627-1.624-3.627-3.627c0-5.139-4.18-9.319-9.319-9.319
								c-2.004,0-3.627-1.624-3.627-3.627c0-2.004,1.624-3.627,3.627-3.627c9.139,0,16.574,7.435,16.574,16.574
								C170.172,152.45,168.548,154.074,166.545,154.074z"/>
						</g>
					</g>
					<g>
						<g>
							<path fill="#58595B" d="M166.545,126.592h-12.947c-2.004,0-3.627-1.624-3.627-3.627c0-2.004,1.624-3.627,3.627-3.627h12.947
								c2.004,0,3.627,1.624,3.627,3.627C170.172,124.969,168.548,126.592,166.545,126.592z"/>
						</g>
					</g>
				</g>
			</g>
		</g>
		<g>
			<g>
				<path fill="#58595B" d="M127.945,159.666c-16.146,0-29.281-13.135-29.281-29.281v-22.187c0-16.146,13.136-29.281,29.281-29.281
					c16.145,0,29.281,13.136,29.281,29.281v22.187C157.225,146.53,144.09,159.666,127.945,159.666z"/>
			</g>
		</g>
		<g>
			<path fill="#414042" d="M143.03,83.111c2.661,4.409,4.196,9.571,4.196,15.086v22.187c0,16.146-13.135,29.281-29.281,29.281
				c-5.515,0-10.677-1.534-15.086-4.196c5.13,8.499,14.455,14.196,25.086,14.196c16.145,0,29.281-13.135,29.281-29.281v-22.187
				C157.225,97.566,151.529,88.242,143.03,83.111z"/>
		</g>
	</g>
</g>
</svg>
