<?xml version="1.0" encoding="utf-8"?>
<!-- Generator: Adobe Illustrator 24.0.0, SVG Export Plug-In . SVG Version: 6.00 Build 0)  -->
<svg version="1.1" id="Layer_1" xmlns="http://www.w3.org/2000/svg" xmlns:xlink="http://www.w3.org/1999/xlink" x="0px" y="0px"
	 viewBox="0 0 256 256" enable-background="new 0 0 256 256" xml:space="preserve">
<g>
	<g>
		<g>
			<g>
				<g>
					<g>
						<g>
							<path fill="#58595B" d="M98.301,87.702c-3.685,0-6.672-2.987-6.672-6.672c0-13.888-11.298-25.186-25.185-25.186
								c-3.685,0-6.672-2.987-6.672-6.672c0-3.685,2.987-6.672,6.672-6.672c21.244,0,38.528,17.284,38.528,38.53
								C104.972,84.715,101.986,87.702,98.301,87.702z"/>
						</g>
					</g>
					<g>
						<g>
							<path fill="#58595B" d="M157.698,87.702c-3.685,0-6.672-2.987-6.672-6.672c0-21.245,17.284-38.53,38.53-38.53
								c3.685,0,6.672,2.987,6.672,6.672c0,3.685-2.987,6.672-6.672,6.672c-13.888,0-25.186,11.298-25.186,25.186
								C164.37,84.715,161.383,87.702,157.698,87.702z"/>
						</g>
					</g>
				</g>
			</g>
			<g>
				<g>
					<g>
						<g>
							<path fill="#58595B" d="M80.817,125.508c-16.81,0-30.484-13.675-30.484-30.483c0-3.685,2.987-6.672,6.672-6.672
								c3.685,0,6.672,2.987,6.672,6.672c0,9.451,7.689,17.14,17.141,17.14c3.685,0,6.672,2.987,6.672,6.672
								S84.502,125.508,80.817,125.508z"/>
						</g>
					</g>
					<g>
						<g>
							<path fill="#58595B" d="M57.005,203.216c-3.685,0-6.672-2.987-6.672-6.672c0-16.809,13.675-30.483,30.484-30.483
								c3.685,0,6.672,2.987,6.672,6.672c0,3.685-2.987,6.672-6.672,6.672c-9.451,0-17.141,7.688-17.141,17.14
								C63.676,200.229,60.69,203.216,57.005,203.216z"/>
						</g>
					</g>
					<g>
						<g>
							<path fill="#58595B" d="M80.817,152.67H57.005c-3.685,0-6.672-2.987-6.672-6.672c0-3.685,2.987-6.672,6.672-6.672h23.813
								c3.685,0,6.672,2.987,6.672,6.672C87.489,149.683,84.502,152.67,80.817,152.67z"/>
						</g>
					</g>
				</g>
				<g>
					<g>
						<g>
							<path fill="#58595B" d="M175.183,125.508c-3.685,0-6.672-2.987-6.672-6.672s2.987-6.672,6.672-6.672
								c9.453,0,17.141-7.688,17.141-17.14c0-3.685,2.987-6.672,6.672-6.672c3.685,0,6.672,2.987,6.672,6.672
								C205.667,111.834,191.993,125.508,175.183,125.508z"/>
						</g>
					</g>
					<g>
						<g>
							<path fill="#58595B" d="M198.995,203.216c-3.685,0-6.672-2.987-6.672-6.672c0-9.451-7.688-17.14-17.141-17.14
								c-3.685,0-6.672-2.987-6.672-6.672c0-3.685,2.987-6.672,6.672-6.672c16.81,0,30.484,13.675,30.484,30.483
								C205.667,200.229,202.681,203.216,198.995,203.216z"/>
						</g>
					</g>
					<g>
						<g>
							<path fill="#58595B" d="M198.995,152.67h-23.813c-3.685,0-6.672-2.987-6.672-6.672c0-3.685,2.987-6.672,6.672-6.672h23.813
								c3.685,0,6.672,2.987,6.672,6.672C205.667,149.683,202.681,152.67,198.995,152.67z"/>
						</g>
					</g>
				</g>
			</g>
		</g>
		<g>
			<g>
				<path fill="#FFA91A" d="M128.001,213.5c-29.696,0-53.855-24.159-53.855-53.855v-40.807c0-29.696,24.159-53.855,53.855-53.855
					c29.695,0,53.854,24.159,53.854,53.855v40.807C181.855,189.34,157.696,213.5,128.001,213.5z"/>
			</g>
		</g>
		<g>
			<g>
				<path fill="#FFC91D" d="M87.52,187.14c-0.69,0-1.32-0.35-1.69-0.93c-0.29-0.45-0.38-0.99-0.26-1.51s0.43-0.96,0.88-1.25
					c0.91-0.57,2.19-0.28,2.76,0.62c0.59,0.94,0.31,2.18-0.62,2.76C88.27,187.04,87.9,187.14,87.52,187.14z M83.83,180.06
					c-0.81,0-1.53-0.49-1.85-1.23c-2.54-6.09-3.83-12.54-3.83-19.19v-40.8c0-27.49,22.36-49.85,49.85-49.86
					c9.98,0,19.61,2.95,27.86,8.53c0.91,0.62,1.15,1.86,0.54,2.78c-0.6,0.88-1.9,1.13-2.78,0.53c-7.59-5.13-16.45-7.84-25.62-7.84
					c-12.23,0-23.74,4.78-32.41,13.45c-8.67,8.67-13.44,20.18-13.45,32.41v40.8c0,6.11,1.19,12.05,3.53,17.64
					c0.01,0.01,0.01,0.01,0.01,0.02c0.41,1.01-0.07,2.18-1.08,2.6C84.35,180,84.09,180.06,83.83,180.06z"/>
			</g>
		</g>
		<g>
			<path fill="#F79219" d="M160.728,76.108c6.97,9.079,11.127,20.425,11.127,32.729v40.807c0,29.696-24.159,53.855-53.854,53.855
				c-12.304,0-23.65-4.157-32.729-11.127c9.853,12.833,25.336,21.127,42.729,21.127c29.695,0,53.854-24.159,53.854-53.855v-40.807
				C181.855,101.444,173.56,85.96,160.728,76.108z"/>
		</g>
		<g>
			<path fill="#EF7816" d="M163.471,78.364c8.322,9.483,13.383,21.894,13.383,35.472v40.807c0,29.696-24.159,53.855-53.854,53.855
				c-13.578,0-25.989-5.062-35.472-13.383c9.878,11.257,24.354,18.383,40.472,18.383c29.695,0,53.854-24.159,53.854-53.855v-40.807
				C181.855,102.719,174.728,88.242,163.471,78.364z"/>
		</g>
	</g>
	<g>
		<g>
			<path fill="#FFFFFF" d="M103.226,160.647L103.226,160.647c-3.291-3.291-3.291-8.628,0-11.919l37.629-37.629
				c3.291-3.291,8.628-3.291,11.919,0l0,0c3.291,3.291,3.291,8.628,0,11.919l-37.629,37.629
				C111.854,163.938,106.517,163.938,103.226,160.647z"/>
		</g>
		<g>
			<path fill="#FFFFFF" d="M152.774,160.647L152.774,160.647c3.291-3.291,3.291-8.628,0-11.919l-37.629-37.629
				c-3.291-3.291-8.628-3.291-11.919,0l0,0c-3.291,3.291-3.291,8.628,0,11.919l37.629,37.629
				C144.146,163.938,149.483,163.938,152.774,160.647z"/>
		</g>
	</g>
</g>
</svg>
