<?xml version="1.0" encoding="utf-8"?>
<!-- Generator: Adobe Illustrator 24.0.0, SVG Export Plug-In . SVG Version: 6.00 Build 0)  -->
<svg version="1.1" id="Layer_1" xmlns="http://www.w3.org/2000/svg" xmlns:xlink="http://www.w3.org/1999/xlink" x="0px" y="0px"
	 viewBox="0 0 256 256" enable-background="new 0 0 256 256" xml:space="preserve">
<g>
	<g>
		<g>
			<g>
				<g>
					<g>
						<g>
							<g>
								<g>
									<g>
										<g>
											<path fill="#0099DC" d="M110.893,199.157l5.069,3.163c0.072,0.035,0.145,0.064,0.216,0.102l-5.737-3.58
												C110.588,198.951,110.735,199.059,110.893,199.157z"/>
										</g>
									</g>
								</g>
							</g>
						</g>
					</g>
				</g>
			</g>
			<g>
				<path fill="#F2AD97" d="M175.636,191.314l-34.643-64.337l-56.055-4.812l-4.666-0.4H58.769v63.25l0,0
					c0.733,0,1.439,0.235,2.023,0.677c1.524,1.155,4.904,3.7,9.357,6.95c10.165,7.413,25.924,18.506,38.013,25.155
					c19.402,10.67,26.893,15.391,31.905,15.636c5.012,0.241,15.018-5.567,22.622-14.745
					C170.096,209.743,175.877,199.642,175.636,191.314z"/>
			</g>
			<g>
				<g>
					<path fill="#FCC4AE" d="M92.72,130.86c-0.05,0-0.11-0.01-0.17-0.01c-0.53-0.05-1.01-0.3-1.36-0.71
						c-0.34-0.4-0.51-0.92-0.46-1.46c0.09-1.08,1.06-1.91,2.16-1.82c1.1,0.1,1.92,1.07,1.82,2.17
						C94.63,130.05,93.75,130.86,92.72,130.86z M84.75,130.17c-0.05,0-0.11,0-0.17-0.01l-4.65-0.39H64.77c-1.1,0-2-0.9-2-2
						c0-1.11,0.9-2,2-2h15.41l4.74,0.41c0.53,0.05,1.02,0.3,1.36,0.7c0.34,0.41,0.51,0.93,0.46,1.46
						C86.66,129.37,85.78,130.17,84.75,130.17z"/>
				</g>
			</g>
			<g>
				<g>
					<path fill="#76A34F" d="M23.864,191.52h28.061c3.78,0,6.844-3.064,6.844-6.844v-73.802c0-3.78-3.064-6.844-6.844-6.844H23.864
						c-3.78,0-6.844,3.064-6.844,6.844v73.802C17.019,188.456,20.084,191.52,23.864,191.52z"/>
				</g>
				<g>
					<path fill="#648940" d="M53.569,104.229c0.13,0.527,0.199,1.078,0.199,1.645v73.802c0,3.78-3.064,6.844-6.844,6.844H18.864
						c-0.567,0-1.118-0.069-1.645-0.199c0.737,2.985,3.432,5.199,6.645,5.199h28.061c3.78,0,6.844-3.064,6.844-6.844v-73.802
						C58.769,107.661,56.555,104.966,53.569,104.229z"/>
				</g>
			</g>
			<g>
				<path fill="#FFD2C0" d="M173.446,120.146c-7.566,1.418-15.113,2.972-22.627,4.639c-8.123,1.81-15.877,4.021-23.977,5.012
					c-2.797,0.346-5.639,0.546-8.55,0.528c-4.268,0.047-11.581-2.602-14.435,2.442c-2.351,4.357,0.091,9.515,3.666,12.284
					c9.373,7.198,22.357,5.434,33.196,8.932c1.874,0.605,4.571,1.355,6.017,2.761c10.011,13.21,22.083,24.807,33.178,37.125
					c0.801-0.555,8.314-5.73,12.271-8.455c1.485-1.023,3.244-1.569,5.047-1.569l0,0v-63.7H173.446z"/>
			</g>
			<g>
				<path fill="#FCC4AE" d="M179.914,183.87c-11.095-12.318-23.167-23.916-33.178-37.125c-1.446-1.406-4.143-2.156-6.017-2.761
					c-10.84-3.498-23.823-1.734-33.196-8.932c-1.142-0.885-2.169-2.014-2.96-3.283c-0.257,0.293-0.494,0.625-0.705,0.999
					c-2.351,4.357,0.091,9.515,3.666,12.284c9.373,7.198,22.357,5.434,33.196,8.932c1.874,0.605,4.571,1.355,6.017,2.761
					c10.011,13.21,22.083,24.807,33.178,37.125c0.801-0.555,8.314-5.73,12.271-8.455c1.485-1.023,3.244-1.569,5.047-1.569v-10
					c-1.803,0-3.562,0.547-5.047,1.569C188.228,178.141,180.714,183.315,179.914,183.87z"/>
			</g>
			<g>
				<g>
					<g>
						<path fill="#F2AD97" d="M188.643,200.34l-1.14,1.828c-2.065,3.312-6.422,4.324-9.735,2.262l-0.546-0.34
							c-0.02-0.013-0.04,0.009-0.026,0.029c1.547,2.176,1.732,5.151,0.227,7.559l-1.091,1.749c-2.003,3.212-6.224,4.203-9.448,2.22
							l0,0c-0.022-0.014-0.041,0.012-0.022,0.03c2.281,2.187,2.803,5.74,1.064,8.527l-1.11,1.779
							c-2.001,3.209-6.225,4.187-9.433,2.184l-2.482-1.549c-0.024-0.015-0.041,0.013-0.02,0.031c2.634,2.14,3.33,5.946,1.488,8.898
							l-1.123,1.806c-1.997,3.197-6.204,4.171-9.401,2.174l-33.283-20.766c-3.193-1.997-4.171-6.204-2.174-9.401l1.123-1.801
							c1.842-2.952,5.571-4,8.648-2.574c0.025,0.012,0.043-0.016,0.019-0.031l-9.286-5.795c-3.197-1.997-4.171-6.203-2.178-9.401
							l1.128-1.801c1.992-3.197,6.199-4.17,9.396-2.174l9.916,6.184c0.022,0.014,0.041-0.012,0.022-0.03
							c-2.278-2.187-2.798-5.737-1.06-8.523l1.123-1.801c1.997-3.197,6.204-4.171,9.401-2.174l10.26,6.4
							c0.02,0.013,0.04-0.01,0.026-0.029c-1.618-2.249-1.821-5.337-0.262-7.831l1.16-1.86c0.905-1.455,2.26-2.465,3.775-2.961
							c1.91-0.628,4.075-0.432,5.917,0.714l26.883,16.778c1.551,0.969,2.592,2.442,3.047,4.075
							C189.962,196.556,189.73,198.593,188.643,200.34z"/>
					</g>
				</g>
			</g>
			<g>
				<g>
					<path fill="#E59076" d="M189.448,194.723c-0.455-1.633-1.496-3.106-3.047-4.075l-2.065-1.289
						c0.041,0.12,0.078,0.242,0.112,0.364c0.514,1.833,0.282,3.87-0.805,5.617l-1.14,1.828c-2.065,3.312-6.422,4.324-9.735,2.262
						l-0.546-0.34c-0.02-0.012-0.04,0.01-0.026,0.029c1.547,2.176,1.732,5.151,0.227,7.559l-1.091,1.749
						c-2.003,3.212-6.224,4.203-9.448,2.219c-0.022-0.014-0.041,0.012-0.022,0.03c2.281,2.187,2.803,5.74,1.064,8.527l-1.11,1.779
						c-2.001,3.209-6.225,4.187-9.433,2.184l-2.482-1.549c-0.023-0.015-0.041,0.013-0.02,0.031c2.635,2.14,3.33,5.946,1.488,8.898
						l-1.123,1.806c-1.997,3.197-6.204,4.171-9.401,2.174l-31.154-19.438c0.479,1.471,1.458,2.788,2.872,3.672l33.283,20.766
						c3.197,1.997,7.404,1.023,9.401-2.174l1.123-1.806c1.842-2.952,1.146-6.758-1.488-8.898c-0.021-0.017-0.004-0.045,0.02-0.031
						l2.482,1.549c3.208,2.003,7.432,1.025,9.433-2.184l1.11-1.779c1.739-2.788,1.218-6.34-1.064-8.527
						c-0.019-0.018,0-0.044,0.022-0.03c3.224,1.984,7.444,0.992,9.448-2.219l1.091-1.749c1.505-2.407,1.319-5.382-0.227-7.559
						c-0.014-0.019,0.006-0.041,0.026-0.029l0.546,0.34c3.313,2.062,7.671,1.049,9.735-2.262l1.14-1.828
						C189.73,198.593,189.962,196.556,189.448,194.723z"/>
				</g>
			</g>
			<g>
				<g>
					<path fill="#FFA91A" d="M204.075,191.52h28.061c3.78,0,6.844-3.064,6.844-6.844v-73.802c0-3.78-3.064-6.844-6.844-6.844
						h-28.061c-3.78,0-6.844,3.064-6.844,6.844v73.802C197.231,188.456,200.296,191.52,204.075,191.52z"/>
				</g>
				<g>
					<path fill="#F79219" d="M232.136,104.03h-3.156v70.646c0,3.78-3.064,6.844-6.844,6.844h-24.905v3.156
						c0,3.78,3.064,6.844,6.844,6.844h28.061c3.78,0,6.844-3.064,6.844-6.844v-73.802
						C238.981,107.094,235.916,104.03,232.136,104.03z"/>
				</g>
				<g>
					<path fill="#EF7816" d="M233.781,104.229c0.13,0.527,0.199,1.078,0.199,1.645v73.802c0,3.78-3.064,6.844-6.844,6.844h-28.061
						c-0.567,0-1.118-0.069-1.645-0.199c0.737,2.985,3.432,5.199,6.645,5.199h28.061c3.78,0,6.844-3.064,6.844-6.844v-73.802
						C238.981,107.661,236.766,104.966,233.781,104.229z"/>
				</g>
			</g>
		</g>
		<g>
			<g>
				<g>
					<g>
						<path fill="#FFD2C0" d="M75.874,204.911L75.874,204.911c-3.793-2.367-4.949-7.36-2.582-11.153l6.741-10.803
							c2.367-3.793,7.36-4.949,11.153-2.582l0,0c3.793,2.367,4.949,7.36,2.583,11.153l-6.741,10.803
							C84.66,206.121,79.667,207.277,75.874,204.911z"/>
					</g>
				</g>
			</g>
			<g>
				<path fill="#FCC4AE" d="M91.186,180.372L91.186,180.372c-0.526-0.328-1.075-0.588-1.637-0.783
					c0.772,2.231,0.566,4.778-0.781,6.937l-6.741,10.803c-2.039,3.267-6.026,4.578-9.516,3.366c0.584,1.689,1.729,3.197,3.363,4.217
					c3.793,2.367,8.786,1.211,11.153-2.582l6.741-10.803C96.135,187.732,94.979,182.739,91.186,180.372z"/>
			</g>
			<g>
				<g>
					<g>
						<path fill="#FFD2C0" d="M89.188,214.095L89.188,214.095c-3.793-2.367-4.949-7.36-2.582-11.153l11.257-18.04
							c2.367-3.793,7.36-4.949,11.154-2.583l0,0c3.793,2.367,4.949,7.36,2.583,11.153l-11.258,18.041
							C97.974,215.306,92.981,216.462,89.188,214.095z"/>
					</g>
				</g>
			</g>
			<g>
				<path fill="#FCC4AE" d="M109.016,182.319c-0.526-0.328-1.075-0.588-1.637-0.783c0.772,2.231,0.566,4.778-0.781,6.937
					l-11.258,18.041c-2.039,3.267-6.026,4.577-9.516,3.366c0.584,1.689,1.729,3.197,3.363,4.216v0
					c3.793,2.367,8.786,1.211,11.153-2.582l11.258-18.041C113.966,189.679,112.809,184.686,109.016,182.319z"/>
			</g>
			<g>
				<g>
					<g>
						<path fill="#FFD2C0" d="M103.093,222.332L103.093,222.332c-3.793-2.367-4.949-7.361-2.582-11.154l7.877-12.623
							c2.367-3.793,7.36-4.949,11.153-2.582l0,0c3.793,2.367,4.949,7.36,2.582,11.153l-7.877,12.624
							C111.879,223.543,106.886,224.699,103.093,222.332z"/>
					</g>
				</g>
			</g>
			<g>
				<path fill="#FCC4AE" d="M119.541,195.973L119.541,195.973c-0.526-0.328-1.075-0.589-1.637-0.784
					c0.772,2.231,0.566,4.778-0.781,6.937l-7.877,12.624c-2.039,3.267-6.026,4.577-9.516,3.366c0.584,1.689,1.729,3.197,3.363,4.216
					v0c3.793,2.367,8.786,1.211,11.153-2.582l7.877-12.624C124.49,203.334,123.334,198.34,119.541,195.973z"/>
			</g>
			<g>
				<g>
					<g>
						<path fill="#FFD2C0" d="M116.551,231.286L116.551,231.286c-3.793-2.367-4.949-7.36-2.582-11.153l4.277-6.855
							c2.367-3.793,7.36-4.949,11.153-2.582h0c3.793,2.367,4.949,7.36,2.582,11.153l-4.277,6.855
							C125.338,232.496,120.344,233.653,116.551,231.286z"/>
					</g>
				</g>
			</g>
			<g>
				<path fill="#FCC4AE" d="M129.4,210.696L129.4,210.696c-0.526-0.328-1.075-0.589-1.637-0.784
					c0.772,2.231,0.566,4.778-0.781,6.937l-4.277,6.854c-2.039,3.267-6.026,4.577-9.516,3.366c0.584,1.689,1.729,3.197,3.363,4.217
					h0c3.793,2.367,8.786,1.211,11.153-2.582l4.277-6.854C134.349,218.056,133.192,213.063,129.4,210.696z"/>
			</g>
		</g>
	</g>
	<g>
		<g>
			<g>
				<g>
					<g>
						<g>
							<g>
								<g>
									<g>
										<g>
											<g>
												<g>
													<g>
														<g>
															<g>
																<path fill="#5A7A39" d="M70.348,46.983c-1.719,0-3.112,1.393-3.112,3.112v52.688c0,1.719,1.393,3.112,3.112,3.112
																	h110.287c1.719,0,3.112-1.393,3.112-3.112V50.095c0-1.719-1.393-3.112-3.112-3.112H70.348z"/>
															</g>
														</g>
													</g>
												</g>
											</g>
										</g>
									</g>
								</g>
							</g>
						</g>
					</g>
					<g>
						<g>
							<g>
								<g>
									<g>
										<g>
											<g>
												<g>
													<g>
														<g>
															<g>
																<path fill="#648940" d="M70.348,37.323c-1.719,0-3.112,1.393-3.112,3.112v52.687c0,1.719,1.393,3.112,3.112,3.112
																	h110.287c1.719,0,3.112-1.393,3.112-3.112V40.434c0-1.719-1.393-3.112-3.112-3.112H70.348z"/>
															</g>
														</g>
													</g>
												</g>
											</g>
										</g>
									</g>
								</g>
							</g>
						</g>
					</g>
					<g>
						<g>
							<g>
								<g>
									<g>
										<g>
											<g>
												<g>
													<g>
														<g>
															<g>
																<path fill="#5A7A39" d="M70.348,27.662c-1.719,0-3.112,1.393-3.112,3.112v52.687c0,1.719,1.393,3.112,3.112,3.112
																	h110.287c1.719,0,3.112-1.393,3.112-3.112V30.774c0-1.719-1.393-3.112-3.112-3.112H70.348z"/>
															</g>
														</g>
													</g>
												</g>
											</g>
										</g>
									</g>
								</g>
							</g>
						</g>
					</g>
					<g>
						<g>
							<g>
								<g>
									<g>
										<g>
											<g>
												<g>
													<g>
														<g>
															<g>
																<path fill="#91B56B" d="M180.635,15.437H70.348c-1.719,0-3.112,1.393-3.112,3.112v55.333
																	c0,1.719,1.393,3.112,3.112,3.112h110.287c1.719,0,3.112-1.393,3.112-3.112V18.549
																	C183.747,16.83,182.354,15.437,180.635,15.437z"/>
															</g>
														</g>
													</g>
												</g>
											</g>
										</g>
									</g>
									<g>
										<g>
											<g>
												<g>
													<g>
														<g>
															<g>
																<path fill="#76A34F" d="M177.222,35.049c-6.319-0.706-11.336-6.1-11.961-12.874
																	c-0.074-0.807-0.736-1.431-1.546-1.431H87.269c-0.81,0-1.472,0.624-1.546,1.431
																	c-0.625,6.774-5.642,12.167-11.961,12.874c-0.798,0.089-1.413,0.742-1.413,1.545v19.242
																	c0,0.803,0.614,1.456,1.413,1.546c6.319,0.706,11.336,6.1,11.961,12.874c0.074,0.807,0.736,1.431,1.546,1.431
																	h76.445c0.81,0,1.472-0.624,1.546-1.431c0.625-6.774,5.642-12.167,11.961-12.874
																	c0.798-0.089,1.413-0.742,1.413-1.546V36.594C178.634,35.791,178.02,35.138,177.222,35.049z"/>
															</g>
														</g>
													</g>
												</g>
											</g>
										</g>
									</g>
								</g>
							</g>
						</g>
					</g>
				</g>
				<g>
					<g>
						<g>
							<g>
								<g>
									<g>
										<g>
											
												<ellipse transform="matrix(0.3145 -0.9492 0.9492 0.3145 41.9453 150.9478)" fill="#648940" cx="125.492" cy="46.43" rx="20.19" ry="20.19"/>
										</g>
									</g>
								</g>
							</g>
						</g>
					</g>
				</g>
				<g>
					<g>
						<g>
							<g>
								<path fill="#FFFFFF" d="M127.344,44.363h-0.711v-6.978h0.711c1.924,0,3.489,1.565,3.489,3.489
									c0,0.629,0.512,1.141,1.141,1.141c0.629,0,1.141-0.512,1.141-1.141c0-3.182-2.589-5.771-5.771-5.771h-0.711v-0.711
									c0-0.629-0.512-1.141-1.141-1.141c-0.629,0-1.141,0.512-1.141,1.141v0.711h-0.711c-3.182,0-5.772,2.589-5.772,5.771
									c0,3.182,2.589,5.771,5.772,5.771h0.711v8.831h-0.711c-1.924,0-3.489-1.565-3.489-3.489c0-0.629-0.512-1.141-1.141-1.141
									c-0.629,0-1.141,0.512-1.141,1.141c0,3.182,2.589,5.771,5.772,5.771h0.711v0.711c0,0.629,0.512,1.141,1.141,1.141
									c0.629,0,1.141-0.512,1.141-1.141v-0.711h0.711c3.182,0,5.771-2.589,5.771-5.771v-1.853
									C133.115,46.952,130.526,44.363,127.344,44.363z M123.64,37.385h0.711v6.978h-0.711c-1.924,0-3.489-1.565-3.489-3.489
									C120.15,38.95,121.716,37.385,123.64,37.385z M130.833,50.134v1.853c0,1.924-1.565,3.489-3.489,3.489h-0.711v-8.831h0.711
									C129.268,46.645,130.833,48.21,130.833,50.134z"/>
							</g>
						</g>
					</g>
				</g>
			</g>
		</g>
	</g>
	<g>
		<g>
			<g>
				<g>
					<g>
						<circle fill="#FFA91A" cx="125.492" cy="109.937" r="27.123"/>
					</g>
				</g>
			</g>
		</g>
		<g>
			<path fill="#F79219" d="M142.003,88.426c3.516,4.574,5.611,10.297,5.611,16.512c0,14.98-12.143,27.123-27.123,27.123
				c-6.215,0-11.938-2.095-16.511-5.611c4.958,6.45,12.747,10.611,21.511,10.611c14.98,0,27.123-12.143,27.123-27.123
				C152.615,101.173,148.453,93.384,142.003,88.426z"/>
		</g>
		<g>
			<g>
				<g>
					<g>
						<g>
							<path fill="#FFFFFF" d="M122.93,120.471c-1.06,0-2.079-0.422-2.829-1.172l-7.822-7.821c-1.563-1.562-1.563-4.095,0-5.657
								c1.563-1.563,4.095-1.563,5.657,0l4.993,4.991l10.117-10.118c1.563-1.563,4.095-1.563,5.657,0
								c1.563,1.562,1.563,4.095,0,5.657l-12.945,12.948C125.008,120.05,123.993,120.471,122.93,120.471z"/>
						</g>
					</g>
				</g>
			</g>
		</g>
	</g>
</g>
</svg>
