<?xml version="1.0" encoding="utf-8"?>
<!-- Generator: Adobe Illustrator 24.0.0, SVG Export Plug-In . SVG Version: 6.00 Build 0)  -->
<svg version="1.1" id="Layer_1" xmlns="http://www.w3.org/2000/svg" xmlns:xlink="http://www.w3.org/1999/xlink" x="0px" y="0px"
	 viewBox="0 0 256 256" enable-background="new 0 0 256 256" xml:space="preserve">
<g>
	<g>
		<g>
			<g>
				<g>
					<g>
						<g>
							<g>
								<g>
									<g>
										<g>
											<path fill="#F1F2F2" d="M213.774,30.17H64.361c-5.239,0-9.486,4.247-9.486,9.487V225.83h136.764
												c5.239,0,9.487-4.247,9.487-9.487V52.305h22.135V39.657C223.26,34.418,219.013,30.17,213.774,30.17z"/>
										</g>
									</g>
									<g>
										<path fill="#FFFFFF" d="M60.88,197.7c-1.11,0-2-0.9-2-2c0-1.11,0.89-2,2-2c1.1,0,1.99,0.89,1.99,2
											C62.87,196.8,61.979,197.7,60.88,197.7z M60.88,189.69c-1.11,0-2-0.89-2-2V39.66c0-3.03,2.46-5.49,5.479-5.49h72.96
											c1.11,0,2,0.9,2,2s-0.89,2-2,2h-72.96c-0.819,0-1.479,0.67-1.489,1.49v148.03C62.87,188.8,61.979,189.69,60.88,189.69z"/>
									</g>
									<g>
										<g>
											<path fill="#F1F2F2" d="M218.26,52.305h-22.135V39.657c0-5.239,4.247-9.487,9.486-9.487h3.162
												c5.239,0,9.486,4.247,9.486,9.487V52.305z"/>
										</g>
									</g>
									<g>
										<g>
											<path fill="#E6E7E8" d="M223.26,52.305h-22.135V39.657c0-5.239,4.247-9.487,9.486-9.487h3.162
												c5.239,0,9.486,4.247,9.486,9.487V52.305z"/>
										</g>
									</g>
									<g>
										<g>
											<path fill="#D1D3D4" d="M213.774,30.17h-3.162c-4.699,0-8.59,3.42-9.344,7.905h12.506c5.239,0,9.486,4.247,9.486,9.487
												v-7.905C223.26,34.417,219.013,30.17,213.774,30.17z"/>
										</g>
									</g>
								</g>
							</g>
						</g>
					</g>
					<g>
						<g>
							<g>
								<g>
									<path fill="#D1D3D4" d="M131.282,59.879H77.718c-1.657,0-3-1.343-3-3s1.343-3,3-3h53.563c1.657,0,3,1.343,3,3
										S132.938,59.879,131.282,59.879z"/>
								</g>
							</g>
						</g>
						<g>
							<g>
								<g>
									<path fill="#939598" d="M138.282,192.727H77.718c-1.657,0-3-1.343-3-3c0-1.657,1.343-3,3-3h60.563c1.657,0,3,1.343,3,3
										C141.282,191.384,139.938,192.727,138.282,192.727z"/>
								</g>
							</g>
							<g>
								<g>
									<path fill="#939598" d="M128.282,177.362H77.718c-1.657,0-3-1.343-3-3c0-1.657,1.343-3,3-3h50.563c1.657,0,3,1.343,3,3
										C131.282,176.019,129.938,177.362,128.282,177.362z"/>
								</g>
							</g>
							<g>
								<g>
									<path fill="#D1D3D4" d="M133.492,161.998H77.718c-1.657,0-3-1.343-3-3c0-1.657,1.343-3,3-3h55.774c1.657,0,3,1.343,3,3
										C136.492,160.654,135.148,161.998,133.492,161.998z"/>
								</g>
							</g>
						</g>
					</g>
				</g>
			</g>
		</g>
	</g>
	<g>
		<rect x="155.47" y="30.17" fill="#EF7816" width="16.999" height="195.66"/>
	</g>
	<g>
		<g>
			<g>
				<g>
					<g>
						<g>
							<path fill="#58595B" d="M148.022,131.288l-1.766-10.872c-0.125-0.77-0.995-1.164-1.656-0.751l-9.339,5.841
								c-0.916,0.573-2.019-0.391-1.573-1.376l17.617-38.881l16.405,7.433l-17.617,38.881
								C149.648,132.549,148.196,132.355,148.022,131.288z"/>
						</g>
					</g>
				</g>
			</g>
			<g>
				<g>
					<g>
						<g>
							<path fill="#58595B" d="M179.916,131.288l1.766-10.872c0.125-0.77,0.995-1.164,1.656-0.751l9.339,5.841
								c0.916,0.573,2.019-0.391,1.573-1.376L176.633,85.25l-16.405,7.433l17.617,38.881
								C178.29,132.549,179.743,132.355,179.916,131.288z"/>
						</g>
					</g>
				</g>
			</g>
		</g>
		<g>
			<path fill="#FFA91A" d="M170.245,53.236L170.245,53.236c1.664,1.664,3.922,2.599,6.275,2.599h0c4.901,0,8.875,3.973,8.875,8.875
				v0c0,2.354,0.935,4.611,2.599,6.275h0c3.466,3.466,3.466,9.085,0,12.551l0,0c-1.664,1.664-2.599,3.922-2.599,6.275v0
				c0,4.901-3.973,8.875-8.875,8.875h0c-2.354,0-4.611,0.935-6.275,2.599l0,0c-3.466,3.466-9.085,3.466-12.551,0v0
				c-1.664-1.664-3.922-2.599-6.275-2.599h0c-4.901,0-8.875-3.973-8.875-8.875v0c0-2.354-0.935-4.611-2.599-6.275l0,0
				c-3.466-3.466-3.466-9.085,0-12.551h0c1.664-1.664,2.599-3.922,2.599-6.275v0c0-4.901,3.973-8.875,8.875-8.875h0
				c2.354,0,4.611-0.935,6.275-2.599l0,0C161.16,49.771,166.779,49.771,170.245,53.236z"/>
		</g>
		<g>
			<g>
				<g>
					
						<ellipse transform="matrix(0.9744 -0.2247 0.2247 0.9744 -13.1673 38.8183)" fill="#EF7816" cx="163.969" cy="77.261" rx="17.917" ry="17.917"/>
				</g>
			</g>
		</g>
		<g>
			<g>
				<g>
					<g>
						<path fill="#FFC91D" d="M166.404,71.446l0.992-3.201c0.493-1.59-0.397-3.278-1.986-3.771c-0.419-0.13-0.864,0.105-0.994,0.524
							l-0.273,0.882c-0.003,0.006-3.092,7.001-4.835,6.963v11.921h0.942c1.142-0.072,1.934,1.003,3.076,0.931h7.112v-14.25H166.404z
							"/>
					</g>
				</g>
				<g>
					<g>
						<path fill="#FFA91A" d="M166.044,71.445c-0.578,0-0.976,0.571-0.785,1.116c0.16,0.455,0.247,0.944,0.247,1.454
							c0,1.685-0.944,3.15-2.332,3.895c-0.337,0.181-0.337,0.678,0,0.859c1.388,0.745,2.332,2.209,2.332,3.895
							c0,0.243-0.02,0.482-0.058,0.714c-0.2,1.22,0.777,2.317,2.013,2.317h2.975v-14.25H166.044z"/>
					</g>
				</g>
				<g>
					<g>
						<path fill="#FFC91D" d="M173.854,78.57h-4.54c-0.984,0-1.781-0.798-1.781-1.781l0,0c0-0.984,0.798-1.781,1.781-1.781h4.54
							c0.984,0,1.781,0.797,1.781,1.781l0,0C175.635,77.773,174.838,78.57,173.854,78.57z"/>
					</g>
				</g>
				<g>
					<g>
						<path fill="#FFC91D" d="M172.969,82.133h-4.54c-0.984,0-1.781-0.797-1.781-1.781l0,0c0-0.984,0.797-1.781,1.781-1.781h4.54
							c0.984,0,1.781,0.797,1.781,1.781l0,0C174.75,81.335,173.953,82.133,172.969,82.133z"/>
					</g>
				</g>
				<g>
					<g>
						<path fill="#FFC91D" d="M172.084,85.695h-4.54c-0.984,0-1.781-0.797-1.781-1.781l0,0c0-0.984,0.798-1.781,1.781-1.781h4.54
							c0.984,0,1.781,0.797,1.781,1.781l0,0C173.866,84.898,173.068,85.695,172.084,85.695z"/>
					</g>
				</g>
				<g>
					<g>
						<path fill="#FFC91D" d="M174.739,75.008h-4.54c-0.984,0-1.781-0.797-1.781-1.781l0,0c0-0.984,0.797-1.781,1.781-1.781h4.54
							c0.984,0,1.781,0.797,1.781,1.781l0,0C176.52,74.21,175.722,75.008,174.739,75.008z"/>
					</g>
				</g>
				<g>
					<g>
						<path fill="#FFA91A" d="M158.123,86.359h-4.854c-0.654,0-1.184-0.53-1.184-1.184V72.408c0-0.654,0.53-1.184,1.184-1.184h4.854
							c0.654,0,1.184,0.53,1.184,1.184v12.767C159.307,85.829,158.777,86.359,158.123,86.359z"/>
					</g>
				</g>
			</g>
		</g>
	</g>
	<g>
		<g>
			<path fill="#E6E7E8" d="M178.99,216.343v-12.649H32.74v12.502c0,5.32,4.313,9.633,9.633,9.633h146.104
				C183.237,225.83,178.99,221.583,178.99,216.343z"/>
		</g>
	</g>
	<g>
		<g>
			<path fill="#D1D3D4" d="M178.99,216.343v-0.513H42.372c-5.32,0-9.633-4.313-9.633-9.633v10c0,5.32,4.313,9.633,9.633,9.633
				h146.104C183.237,225.83,178.99,221.583,178.99,216.343z"/>
		</g>
	</g>
</g>
</svg>
