<?xml version="1.0" encoding="utf-8"?>
<!-- Generator: Adobe Illustrator 24.0.0, SVG Export Plug-In . SVG Version: 6.00 Build 0)  -->
<svg version="1.1" id="Layer_1" xmlns="http://www.w3.org/2000/svg" xmlns:xlink="http://www.w3.org/1999/xlink" x="0px" y="0px"
	 viewBox="0 0 256 256" enable-background="new 0 0 256 256" xml:space="preserve">
<g>
	<g>
		<g>
			<g>
				<g>
					<g>
						<g>
							<path fill="#478CF7" d="M195.93,46.532H25.838c-3.013,0-5.455,2.442-5.455,5.455v120.576c0,3.013,2.442,5.455,5.455,5.455
								H195.93c3.013,0,5.455-2.442,5.455-5.455V51.986C201.385,48.974,198.943,46.532,195.93,46.532z"/>
						</g>
						<g>
							<path fill="#5E9CF7" d="M26.38,162.77c-1.1,0-2-0.89-2-2V84.68c0-1.1,0.9-2,2-2c1.11,0,2,0.9,2,2v76.09
								C28.38,161.88,27.49,162.77,26.38,162.77z M26.38,78.68c-1.1,0-2-0.89-2-2c0-1.1,0.9-2,2-2c1.11,0,2,0.9,2,2
								C28.38,77.79,27.49,78.68,26.38,78.68z"/>
						</g>
					</g>
					<g>
						<g>
							<path fill="#377DE2" d="M195.93,46.532h-5.194v115.382c0,3.013-2.442,5.455-5.455,5.455H20.383v5.194
								c0,3.013,2.442,5.455,5.455,5.455H195.93c3.013,0,5.455-2.442,5.455-5.455V51.986
								C201.385,48.974,198.943,46.532,195.93,46.532z"/>
						</g>
					</g>
					<g>
						<g>
							<path fill="#58595B" d="M195.93,46.532H25.838c-3.013,0-5.455,2.442-5.455,5.455v17.039h181.002V51.986
								C201.385,48.974,198.943,46.532,195.93,46.532z"/>
						</g>
					</g>
					<g>
						<g>
							<path fill="#414042" d="M201.385,69.025V51.986c0-3.013-2.442-5.455-5.455-5.455h-5.194v22.494H201.385z"/>
						</g>
					</g>
				</g>
			</g>
		</g>
		<g>
			<g>
				<g>
					<g>
						<g>
							<path fill="#2266D3" d="M175.529,156.942H114.75c-2.352,0-4.259-1.907-4.259-4.259s1.907-4.259,4.259-4.259h60.779
								c2.352,0,4.259,1.907,4.259,4.259S177.881,156.942,175.529,156.942z"/>
						</g>
					</g>
					<g>
						<g>
							<path fill="#FFFFFF" d="M93.454,156.942H41.208c-2.352,0-4.259-1.907-4.259-4.259s1.907-4.259,4.259-4.259h52.246
								c2.352,0,4.259,1.907,4.259,4.259S95.806,156.942,93.454,156.942z"/>
						</g>
					</g>
				</g>
			</g>
			<g>
				<g>
					<g>
						<g>
							<path fill="#2266D3" d="M175.529,114.932H114.75c-2.352,0-4.259-1.907-4.259-4.259c0-2.352,1.907-4.259,4.259-4.259h60.779
								c2.352,0,4.259,1.907,4.259,4.259C179.788,113.025,177.881,114.932,175.529,114.932z"/>
						</g>
					</g>
					<g>
						<g>
							<path fill="#FFFFFF" d="M93.454,114.932H41.208c-2.352,0-4.259-1.907-4.259-4.259c0-2.352,1.907-4.259,4.259-4.259h52.246
								c2.352,0,4.259,1.907,4.259,4.259C97.713,113.025,95.806,114.932,93.454,114.932z"/>
						</g>
					</g>
					<g>
						<g>
							<path fill="#2266D3" d="M175.529,134.538h-32.045c-2.352,0-4.259-1.907-4.259-4.259c0-2.352,1.907-4.259,4.259-4.259h32.045
								c2.352,0,4.259,1.907,4.259,4.259C179.788,132.63,177.881,134.538,175.529,134.538z"/>
						</g>
					</g>
					<g>
						<g>
							<path fill="#FFFFFF" d="M122.188,134.538h-33.56c-2.352,0-4.259-1.907-4.259-4.259c0-2.352,1.907-4.259,4.259-4.259h33.56
								c2.352,0,4.259,1.907,4.259,4.259C126.447,132.63,124.54,134.538,122.188,134.538z"/>
						</g>
					</g>
					<g>
						<g>
							<path fill="#2266D3" d="M66.661,134.538H41.208c-2.352,0-4.259-1.907-4.259-4.259c0-2.352,1.907-4.259,4.259-4.259h25.453
								c2.352,0,4.259,1.907,4.259,4.259C70.921,132.63,69.013,134.538,66.661,134.538z"/>
						</g>
					</g>
				</g>
			</g>
			<g>
				<g>
					<g>
						<g>
							<path fill="#2266D3" d="M175.529,92.527h-32.045c-2.352,0-4.259-1.907-4.259-4.259c0-2.352,1.907-4.259,4.259-4.259h32.045
								c2.352,0,4.259,1.907,4.259,4.259C179.788,90.619,177.881,92.527,175.529,92.527z"/>
						</g>
					</g>
					<g>
						<g>
							<path fill="#FFFFFF" d="M122.188,92.527h-33.56c-2.352,0-4.259-1.907-4.259-4.259c0-2.352,1.907-4.259,4.259-4.259h33.56
								c2.352,0,4.259,1.907,4.259,4.259C126.447,90.619,124.54,92.527,122.188,92.527z"/>
						</g>
					</g>
					<g>
						<g>
							<path fill="#2266D3" d="M66.661,92.527H41.208c-2.352,0-4.259-1.907-4.259-4.259c0-2.352,1.907-4.259,4.259-4.259h25.453
								c2.352,0,4.259,1.907,4.259,4.259C70.921,90.619,69.013,92.527,66.661,92.527z"/>
						</g>
					</g>
				</g>
			</g>
		</g>
		<g>
			<g>
				<circle fill="#414042" cx="43.647" cy="57.778" r="5.21"/>
			</g>
		</g>
		<g>
			<g>
				<circle fill="#414042" cx="64.831" cy="57.778" r="5.21"/>
			</g>
		</g>
		<g>
			<g>
				<circle fill="#414042" cx="86.016" cy="57.778" r="5.21"/>
			</g>
		</g>
	</g>
	<g>
		<g>
			<g>
				<g>
					<path fill="#FFA91A" d="M115.236,167.935l31.679,31.742l86.089-85.934c3.48-3.472,3.486-9.107,0.013-12.586l-19.106-19.145
						c-3.471-3.478-9.105-3.484-12.584-0.013L115.236,167.935z"/>
				</g>
			</g>
			<g>
				<path fill="#F79219" d="M233.017,101.157l-19.107-19.145c-0.067-0.067-0.139-0.123-0.207-0.188l9.314,9.332
					c3.472,3.479,3.466,9.114-0.013,12.586l-86.079,85.924l9.99,10.01l86.089-85.934
					C236.483,110.271,236.489,104.636,233.017,101.157z"/>
			</g>
			<g>
				<path fill="#EF7816" d="M233.017,101.157l-19.107-19.145c-0.033-0.033-0.07-0.061-0.104-0.094l14.21,14.238
					c3.472,3.479,3.466,9.114-0.013,12.586l-86.084,85.929l4.995,5.005l86.089-85.934
					C236.483,110.271,236.489,104.636,233.017,101.157z"/>
			</g>
			<g>
				<g>
					
						<rect x="185.203" y="98.519" transform="matrix(0.7065 0.7077 -0.7077 0.7065 136.9162 -115.4322)" fill="#FFC91D" width="44.863" height="17.689"/>
				</g>
			</g>
			<g>
				
					<rect x="209.644" y="111.168" transform="matrix(0.7077 -0.7065 0.7065 0.7077 -19.6698 188.9301)" fill="#FFA91A" width="17.689" height="14.136"/>
			</g>
			<g>
				<g>
					<path fill="#F79219" d="M124.73,201.064l-10.925-10.947c-0.992-0.994-1.456-2.397-1.253-3.786l2.684-18.395l31.679,31.741
						l-18.401,2.648C127.124,202.524,125.722,202.057,124.73,201.064z"/>
				</g>
			</g>
			<g>
				<path fill="#EF7816" d="M136.915,189.677l-18.401,2.648c-1.31,0.188-2.628-0.223-3.606-1.103l9.823,9.842
					c0.992,0.993,2.394,1.461,3.783,1.261l18.401-2.648L136.915,189.677z"/>
			</g>
		</g>
		<g>
			<path fill="#FFA91A" d="M106.217,201.48l7.216-11.722l11.675,11.685l-11.711,7.215
				C108.718,211.541,103.335,206.161,106.217,201.48z"/>
		</g>
	</g>
</g>
</svg>
