<?xml version="1.0" encoding="utf-8"?>
<!-- Generator: Adobe Illustrator 24.0.0, SVG Export Plug-In . SVG Version: 6.00 Build 0)  -->
<svg version="1.1" id="Layer_1" xmlns="http://www.w3.org/2000/svg" xmlns:xlink="http://www.w3.org/1999/xlink" x="0px" y="0px"
	 viewBox="0 0 256 256" enable-background="new 0 0 256 256" xml:space="preserve">
<g>
	<g>
		<g>
			<g>
				<path fill="#F2AD97" d="M206.684,174.911l-20.925-5.972l17.058-23.349l13.352-34.2c1.433-3.669,5.569-5.483,9.238-4.05l0,0
					c3.669,1.433,5.483,5.569,4.05,9.238L206.684,174.911z"/>
			</g>
			<g>
				<path fill="#FCC4AE" d="M222.726,164.405l21.565-48.074c1.608-3.586,0.269-7.808-3.112-9.81l0,0
					c-3.969-2.351-9.1-0.723-10.988,3.485l-13.944,31.084h0l-7.336,6.01l-14.503,24.485c-2.318,3.914-7.371,5.208-11.285,2.889
					l-20.504-12.145c0,0,0,0,0,0l-14.526,24.523c-0.958,1.618-1.441,3.474-1.393,5.354l0.33,10.25l38.083,0.131l0.069-1.897
					c0.021-1.324,0.695-2.552,1.802-3.28l16.522-10.863l0,0l17.204-19.454C221.546,166.376,222.246,165.475,222.726,164.405z"/>
			</g>
			<g>
				<path fill="#F2AD97" d="M241.179,106.521L241.179,106.521c-0.511-0.302-1.041-0.537-1.581-0.71
					c0.564,1.76,0.501,3.72-0.307,5.521l-21.565,48.074c-0.48,1.071-1.18,1.972-2.015,2.689l-17.204,19.454l-16.522,10.863
					c-1.107,0.728-1.781,1.956-1.802,3.28l-0.069,1.897l-33.243-0.114l0.16,4.983l38.083,0.131l0.069-1.897
					c0.021-1.324,0.695-2.552,1.802-3.28l16.522-10.863l17.204-19.454c0.835-0.718,1.535-1.618,2.015-2.689l21.565-48.074
					C245.9,112.745,244.56,108.523,241.179,106.521z"/>
			</g>
			<g>
				<path fill="#FCC4AE" d="M185.716,170.792l-14.395-5.62l14.731-37.732c0.331-0.848,1.286-1.266,2.134-0.935l0,0
					c7.103,2.773,10.613,10.779,7.84,17.881L185.716,170.792z"/>
			</g>
			<g>
				<g>
					<path fill="#FFA91A" d="M196.854,227.863v-20.373c0-2.744-2.225-4.969-4.969-4.969h-53.581c-2.744,0-4.969,2.225-4.969,4.969
						v20.373c0,2.744,2.225,4.969,4.969,4.969h53.581C194.629,232.832,196.854,230.608,196.854,227.863z"/>
				</g>
				<g>
					<g>
						
							<rect x="134.677" y="214.876" transform="matrix(-8.980745e-11 1 -1 -8.980745e-11 367.5093 67.8449)" fill="#F79219" width="30.311" height="5.603"/>
					</g>
					<g>
						
							<rect x="149.939" y="214.876" transform="matrix(-8.971775e-11 1 -1 -8.971775e-11 382.7713 52.583)" fill="#F79219" width="30.311" height="5.603"/>
					</g>
					<g>
						
							<rect x="165.201" y="214.876" transform="matrix(-8.968755e-11 1 -1 -8.968755e-11 398.0332 37.3211)" fill="#F79219" width="30.311" height="5.603"/>
					</g>
				</g>
				<g>
					<path fill="#F79219" d="M191.885,202.522h-5.031v15.342c0,2.744-2.225,4.969-4.969,4.969h-48.55v5.031
						c0,2.744,2.225,4.969,4.969,4.969h53.581c2.744,0,4.969-2.225,4.969-4.969v-20.373
						C196.854,204.747,194.629,202.522,191.885,202.522z"/>
				</g>
				<g>
					<path fill="#EF7816" d="M191.885,202.522h-0.031v20.342c0,2.744-2.225,4.969-4.969,4.969h-53.55v0.031
						c0,2.744,2.225,4.969,4.969,4.969h53.581c2.744,0,4.969-2.225,4.969-4.969v-20.373
						C196.854,204.747,194.629,202.522,191.885,202.522z"/>
				</g>
			</g>
			<g>
				<path fill="#FCC4AE" d="M191.856,155.067l-13.947-6.766l-15.289,14.029l20.504,12.145c3.914,2.318,8.966,1.025,11.285-2.889
					L191.856,155.067z"/>
			</g>
			<g>
				<path fill="#FFD2C0" d="M152.7,194.05c-1.09,0-1.97-0.85-2-1.94v-0.03c0-0.02,0-0.07,0-0.13c0-1.08,0.29-2.14,0.84-3.06
					l14.07-23.76l0.36-0.45l15.33-14.06l3.06-7.84c0.39-1.01,1.58-1.53,2.59-1.14c0.5,0.19,0.89,0.57,1.1,1.06
					c0.22,0.49,0.23,1.03,0.04,1.53l-3.24,8.28c-0.1,0.28-0.28,0.54-0.51,0.74l-15.44,14.17l-13.93,23.51
					c-0.18,0.31-0.27,0.65-0.27,1.01c0,0.01,0,0.01,0,0.01c0,0.01,0,0.02,0,0.04c0,0,0,0,0,0.01c0.03,1.1-0.84,2.02-1.95,2.05
					C152.74,194.05,152.72,194.05,152.7,194.05z M189.13,138.05c-0.25,0-0.49-0.05-0.73-0.14c-1.02-0.4-1.53-1.56-1.13-2.59
					c0.39-1,1.57-1.53,2.59-1.13c1.03,0.4,1.54,1.56,1.14,2.59C190.69,137.55,189.96,138.05,189.13,138.05z"/>
			</g>
		</g>
		<g>
			<g>
				<path fill="#F2AD97" d="M49.316,174.911l20.925-5.972l-17.058-23.349l-13.352-34.2c-1.433-3.669-5.569-5.483-9.238-4.05l0,0
					c-3.669,1.433-5.483,5.569-4.05,9.238L49.316,174.911z"/>
			</g>
			<g>
				<path fill="#FCC4AE" d="M33.274,164.405l-21.565-48.074c-1.608-3.586-0.269-7.808,3.112-9.81l0,0
					c3.969-2.351,9.1-0.723,10.988,3.485l13.944,31.084h0l7.336,6.01l14.503,24.485c2.318,3.914,7.371,5.208,11.285,2.889
					l20.504-12.145c0,0,0,0,0,0l14.512,24.501c0.967,1.632,1.449,3.506,1.391,5.402l-0.315,10.29l-38.083,0.131l-0.05-1.987
					c-0.033-1.311-0.706-2.522-1.801-3.242l-16.542-10.876l0,0l-17.204-19.454C34.454,166.376,33.754,165.475,33.274,164.405z"/>
			</g>
			<g>
				<path fill="#F2AD97" d="M75.886,197.653l-0.05-1.987c-0.033-1.311-0.706-2.522-1.801-3.242l-16.542-10.876l-17.204-19.454
					c-0.835-0.718-1.535-1.618-2.015-2.689l-21.565-48.074c-0.808-1.801-0.871-3.761-0.307-5.521c-0.54,0.174-1.07,0.408-1.581,0.71
					h0c-3.381,2.003-4.721,6.225-3.112,9.81l21.565,48.074c0.48,1.071,1.18,1.972,2.015,2.689l17.204,19.454l16.542,10.876
					c1.096,0.72,1.768,1.932,1.801,3.242l0.05,1.987l38.083-0.131l0.153-4.983L75.886,197.653z"/>
			</g>
			<g>
				<path fill="#FCC4AE" d="M70.284,170.792l14.395-5.62l-14.731-37.732c-0.331-0.848-1.286-1.266-2.134-0.935l0,0
					c-7.103,2.773-10.613,10.779-7.84,17.881L70.284,170.792z"/>
			</g>
			<g>
				<g>
					<path fill="#FFA91A" d="M59.146,227.863v-20.373c0-2.744,2.225-4.969,4.969-4.969h53.581c2.744,0,4.969,2.225,4.969,4.969
						v20.373c0,2.744-2.225,4.969-4.969,4.969H64.115C61.371,232.832,59.146,230.608,59.146,227.863z"/>
				</g>
				<g>
					<path fill="#F79219" d="M69.115,227.832c-2.744,0-4.969-2.225-4.969-4.969v-20.342h-0.031c-2.744,0-4.969,2.225-4.969,4.969
						v20.373c0,2.744,2.225,4.969,4.969,4.969h53.581c2.744,0,4.969-2.225,4.969-4.969v-0.031H69.115z"/>
				</g>
				<g>
					<g>
						
							<rect x="91.013" y="214.876" transform="matrix(4.488835e-11 1 -1 4.488835e-11 323.8449 111.5093)" fill="#F79219" width="30.311" height="5.603"/>
					</g>
					<g>
						
							<rect x="75.751" y="214.876" transform="matrix(4.485816e-11 1 -1 4.485816e-11 308.583 126.7713)" fill="#F79219" width="30.311" height="5.603"/>
					</g>
					<g>
						
							<rect x="60.489" y="214.876" transform="matrix(4.473914e-11 1 -1 4.473914e-11 293.3211 142.0332)" fill="#F79219" width="30.311" height="5.603"/>
					</g>
				</g>
			</g>
			<g>
				<path fill="#FCC4AE" d="M64.144,155.067l13.947-6.766l15.289,14.029l-20.504,12.145c-3.914,2.318-8.966,1.025-11.285-2.889
					L64.144,155.067z"/>
			</g>
		</g>
	</g>
	<g>
		<g>
			<path fill="#F1F2F2" d="M142.189,143.822c11.692-2.616,22.797-8.519,31.839-17.709c24.666-25.071,24.506-65.916-0.346-90.802
				C147.971,9.564,105.924,10.09,80.88,36.887c-22.955,24.562-23.037,63.148-0.182,87.803c9.341,10.077,21.075,16.468,33.454,19.185
				c1.124,0.247,2.079,0.978,2.572,2.017l8.129,17.147c1.324,2.793,5.299,2.793,6.623,0l8.156-17.204
				C140.122,144.801,141.072,144.072,142.189,143.822z"/>
		</g>
	</g>
	<g>
		<g>
			<path fill="#E6E7E8" d="M173.682,35.31c-0.853-0.854-1.726-1.675-2.614-2.471c22.445,25.051,21.808,64.034-2.04,88.273
				c-9.042,9.19-20.147,15.093-31.839,17.709c-1.117,0.25-2.067,0.979-2.557,2.014l-8.156,17.204
				c-0.612,1.29-1.789,1.977-3.01,2.075l1.387,2.925c1.324,2.793,5.299,2.793,6.623,0l8.156-17.204
				c0.491-1.035,1.44-1.764,2.557-2.014c11.692-2.616,22.797-8.519,31.839-17.709C198.694,101.042,198.534,60.197,173.682,35.31z"/>
		</g>
	</g>
	<g>
		<g>
			<g>
				<g>
					<path fill="#76A34F" d="M115.413,64.31H69.065c-2.068,0-3.745-1.677-3.745-3.745V28.731c0-2.068,1.677-3.745,3.745-3.745
						h46.347c2.068,0,3.745,1.677,3.745,3.745v31.835C119.158,62.634,117.481,64.31,115.413,64.31z"/>
				</g>
			</g>
			<g>
				<g>
					<g>
						<path fill="#FFFFFF" d="M87.562,35.742H75.39c-0.95,0-1.72-0.77-1.72-1.72s0.77-1.72,1.72-1.72h12.173
							c0.95,0,1.72,0.77,1.72,1.72S88.512,35.742,87.562,35.742z"/>
					</g>
				</g>
				<g>
					<g>
						<path fill="#FFFFFF" d="M109.088,47.491H75.39c-0.95,0-1.72-0.77-1.72-1.72c0-0.95,0.77-1.72,1.72-1.72h33.698
							c0.95,0,1.72,0.77,1.72,1.72C110.808,46.721,110.038,47.491,109.088,47.491z"/>
					</g>
				</g>
				<g>
					<g>
						<path fill="#FFFFFF" d="M109.088,56.994H75.39c-0.95,0-1.72-0.77-1.72-1.72c0-0.95,0.77-1.72,1.72-1.72h33.698
							c0.95,0,1.72,0.77,1.72,1.72C110.808,56.224,110.038,56.994,109.088,56.994z"/>
					</g>
				</g>
			</g>
		</g>
		<g>
			<g>
				<g>
					<path fill="#FFA91A" d="M186.935,81.882h-46.347c-2.068,0-3.745-1.677-3.745-3.745V46.302c0-2.068,1.677-3.745,3.745-3.745
						h46.347c2.068,0,3.745,1.677,3.745,3.745v31.835C190.68,80.205,189.003,81.882,186.935,81.882z"/>
				</g>
			</g>
			<g>
				<g>
					<g>
						<path fill="#FFFFFF" d="M159.084,53.314h-12.173c-0.95,0-1.72-0.77-1.72-1.72c0-0.95,0.77-1.72,1.72-1.72h12.173
							c0.95,0,1.72,0.77,1.72,1.72C160.804,52.544,160.034,53.314,159.084,53.314z"/>
					</g>
				</g>
				<g>
					<g>
						<path fill="#FFFFFF" d="M180.61,65.062h-33.698c-0.95,0-1.72-0.77-1.72-1.72c0-0.95,0.77-1.72,1.72-1.72h33.698
							c0.95,0,1.72,0.77,1.72,1.72C182.33,64.292,181.56,65.062,180.61,65.062z"/>
					</g>
				</g>
				<g>
					<g>
						<path fill="#FFFFFF" d="M180.61,74.566h-33.698c-0.95,0-1.72-0.77-1.72-1.72c0-0.95,0.77-1.72,1.72-1.72h33.698
							c0.95,0,1.72,0.77,1.72,1.72C182.33,73.796,181.56,74.566,180.61,74.566z"/>
					</g>
				</g>
			</g>
		</g>
		<g>
			<g>
				<g>
					<path fill="#E63950" d="M140.817,128H94.47c-2.068,0-3.745-1.677-3.745-3.745V92.42c0-2.068,1.677-3.745,3.745-3.745h46.347
						c2.068,0,3.745,1.677,3.745,3.745v31.835C144.562,126.323,142.885,128,140.817,128z"/>
				</g>
			</g>
			<g>
				<g>
					<g>
						<path fill="#FFFFFF" d="M112.967,99.432h-12.173c-0.95,0-1.72-0.77-1.72-1.72s0.77-1.72,1.72-1.72h12.173
							c0.95,0,1.72,0.77,1.72,1.72S113.917,99.432,112.967,99.432z"/>
					</g>
				</g>
				<g>
					<g>
						<path fill="#FFFFFF" d="M134.492,111.18h-33.698c-0.95,0-1.72-0.77-1.72-1.72c0-0.95,0.77-1.72,1.72-1.72h33.698
							c0.95,0,1.72,0.77,1.72,1.72C136.212,110.41,135.442,111.18,134.492,111.18z"/>
					</g>
				</g>
				<g>
					<g>
						<path fill="#FFFFFF" d="M134.492,120.683h-33.698c-0.95,0-1.72-0.77-1.72-1.72c0-0.95,0.77-1.72,1.72-1.72h33.698
							c0.95,0,1.72,0.77,1.72,1.72C136.212,119.913,135.442,120.683,134.492,120.683z"/>
					</g>
				</g>
			</g>
		</g>
	</g>
</g>
</svg>
