<?xml version="1.0" encoding="utf-8"?>
<!-- Generator: Adobe Illustrator 24.0.0, SVG Export Plug-In . SVG Version: 6.00 Build 0)  -->
<svg version="1.1" id="Layer_1" xmlns="http://www.w3.org/2000/svg" xmlns:xlink="http://www.w3.org/1999/xlink" x="0px" y="0px"
	 viewBox="0 0 256 256" enable-background="new 0 0 256 256" xml:space="preserve">
<g>
	<g>
		<g>
			<g>
				<g>
					<g>
						<path fill="#F79219" d="M57.255,59.448h-12.92c-11.972,0-21.677,9.705-21.677,21.677v13.638c0,1.269,1.028,2.297,2.297,2.297
							h51.68c1.269,0,2.297-1.028,2.297-2.297V81.125C78.933,69.153,69.227,59.448,57.255,59.448z"/>
					</g>
				</g>
				<g>
					<g>
						<path fill="#EF7816" d="M66.842,61.678c1.427,2.89,2.23,6.145,2.23,9.586v13.638c0,1.269-1.028,2.297-2.297,2.297H22.658
							v7.564c0,1.269,1.028,2.297,2.297,2.297h51.68c1.269,0,2.297-1.028,2.297-2.297V81.125
							C78.933,72.595,74.005,65.216,66.842,61.678z"/>
					</g>
				</g>
				<g>
					<g>
						
							<ellipse transform="matrix(0.2298 -0.9732 0.9732 0.2298 -9.2321 87.7072)" fill="#FCC4AE" cx="50.795" cy="49.686" rx="18.088" ry="18.088"/>
					</g>
				</g>
				<g>
					<g>
						<path fill="#F2AD97" d="M57.67,32.951c0.872,2.119,1.353,4.441,1.353,6.875c0,9.99-8.098,18.088-18.088,18.088
							c-2.434,0-4.755-0.481-6.875-1.353c2.706,6.58,9.18,11.213,16.736,11.213c9.99,0,18.088-8.098,18.088-18.088
							C68.884,42.13,64.251,35.657,57.67,32.951z"/>
					</g>
				</g>
			</g>
			<g>
				<g>
					<g>
						<path fill="#76A34F" d="M134.46,59.448h-12.92c-11.972,0-21.677,9.705-21.677,21.677v13.638c0,1.269,1.028,2.297,2.297,2.297
							h51.68c1.269,0,2.297-1.028,2.297-2.297V81.125C156.137,69.153,146.432,59.448,134.46,59.448z"/>
					</g>
				</g>
				<g>
					<g>
						<path fill="#648940" d="M144.046,61.678c1.428,2.89,2.23,6.145,2.23,9.586v13.638c0,1.269-1.028,2.297-2.297,2.297H99.863
							v7.564c0,1.269,1.028,2.297,2.297,2.297h51.68c1.269,0,2.297-1.028,2.297-2.297V81.125
							C156.137,72.595,151.21,65.216,144.046,61.678z"/>
					</g>
				</g>
				<g>
					<g>
						
							<ellipse transform="matrix(0.0985 -0.9951 0.9951 0.0985 65.9428 172.1673)" fill="#FCC4AE" cx="128" cy="49.686" rx="18.088" ry="18.088"/>
					</g>
				</g>
				<g>
					<g>
						<path fill="#F2AD97" d="M134.875,32.951c0.872,2.119,1.352,4.441,1.352,6.875c0,9.99-8.098,18.088-18.088,18.088
							c-2.434,0-4.755-0.481-6.875-1.353c2.706,6.58,9.18,11.213,16.736,11.213c9.99,0,18.088-8.098,18.088-18.088
							C146.088,42.13,141.455,35.657,134.875,32.951z"/>
					</g>
				</g>
			</g>
			<g>
				<g>
					<g>
						<path fill="#478CF7" d="M211.665,59.448h-12.92c-11.972,0-21.677,9.705-21.677,21.677v13.638c0,1.269,1.028,2.297,2.297,2.297
							h51.68c1.269,0,2.297-1.028,2.297-2.297V81.125C233.342,69.153,223.637,59.448,211.665,59.448z"/>
					</g>
				</g>
				<g>
					<g>
						<path fill="#377DE2" d="M221.251,61.678c1.428,2.89,2.23,6.145,2.23,9.586v13.638c0,1.269-1.028,2.297-2.297,2.297h-44.117
							v7.564c0,1.269,1.028,2.297,2.297,2.297h51.68c1.269,0,2.297-1.028,2.297-2.297V81.125
							C233.342,72.595,228.415,65.216,221.251,61.678z"/>
					</g>
				</g>
				<g>
					<g>
						<path fill="#FCC4AE" d="M223.293,49.686c0,9.99-8.098,18.088-18.088,18.088c-9.99,0-18.088-8.098-18.088-18.088
							c0-9.99,8.098-18.088,18.088-18.088C215.195,31.598,223.293,39.696,223.293,49.686z"/>
					</g>
				</g>
				<g>
					<g>
						<path fill="#F2AD97" d="M212.08,32.951c0.872,2.119,1.352,4.441,1.352,6.875c0,9.99-8.098,18.088-18.088,18.088
							c-2.434,0-4.755-0.481-6.875-1.353c2.706,6.58,9.18,11.213,16.736,11.213c9.99,0,18.088-8.098,18.088-18.088
							C223.293,42.13,218.66,35.657,212.08,32.951z"/>
					</g>
				</g>
			</g>
			<g>
				<g>
					<g>
						<g>
							<path fill="#58595B" d="M95.857,87.298h-12.92c-11.972,0-21.677,9.705-21.677,21.677v13.638c0,1.269,1.028,2.297,2.297,2.297
								h51.68c1.269,0,2.297-1.028,2.297-2.297v-13.638C117.535,97.003,107.829,87.298,95.857,87.298z"/>
						</g>
					</g>
					<g>
						<g>
							<path fill="#414042" d="M105.444,89.528c1.427,2.89,2.23,6.145,2.23,9.587v13.638c0,1.269-1.028,2.297-2.297,2.297H61.26
								v7.564c0,1.269,1.028,2.297,2.297,2.297h51.68c1.269,0,2.297-1.028,2.297-2.297v-13.638
								C117.535,100.445,112.607,93.066,105.444,89.528z"/>
						</g>
					</g>
					<g>
						<g>
							
								<ellipse transform="matrix(0.0985 -0.9951 0.9951 0.0985 3.4296 158.8584)" fill="#FCC4AE" cx="89.397" cy="77.536" rx="18.088" ry="18.088"/>
						</g>
					</g>
					<g>
						<g>
							<path fill="#F2AD97" d="M96.272,60.801c0.872,2.12,1.353,4.441,1.353,6.875c0,9.99-8.098,18.088-18.088,18.088
								c-2.434,0-4.755-0.481-6.875-1.352c2.706,6.58,9.18,11.213,16.736,11.213c9.99,0,18.088-8.098,18.088-18.088
								C107.486,69.98,102.853,63.507,96.272,60.801z"/>
						</g>
					</g>
				</g>
				<g>
					<g>
						<g>
							<path fill="#E63950" d="M173.062,87.298h-12.92c-11.972,0-21.677,9.705-21.677,21.677v13.638
								c0,1.269,1.028,2.297,2.297,2.297h51.68c1.269,0,2.297-1.028,2.297-2.297v-13.638
								C194.739,97.003,185.034,87.298,173.062,87.298z"/>
						</g>
					</g>
					<g>
						<g>
							<path fill="#D10028" d="M182.554,89.484c1.399,2.867,2.186,6.087,2.186,9.491v13.638c0,1.269-1.028,2.296-2.297,2.296
								h-43.977v7.704c0,1.269,1.028,2.296,2.297,2.296h51.68c1.269,0,2.297-1.028,2.297-2.296v-13.638
								C194.739,100.408,189.768,93.003,182.554,89.484z"/>
						</g>
					</g>
					<g>
						<g>
							<path fill="#FCC4AE" d="M184.69,77.536c0,9.99-8.098,18.088-18.088,18.088c-9.99,0-18.088-8.098-18.088-18.088
								c0-9.99,8.098-18.088,18.088-18.088C176.592,59.448,184.69,67.546,184.69,77.536z"/>
						</g>
					</g>
					<g>
						<g>
							<path fill="#F2AD97" d="M173.477,60.801c0.872,2.12,1.353,4.441,1.353,6.875c0,9.99-8.098,18.088-18.088,18.088
								c-2.434,0-4.755-0.481-6.875-1.352c2.706,6.58,9.18,11.213,16.736,11.213c9.99,0,18.088-8.098,18.088-18.088
								C184.69,69.98,180.057,63.507,173.477,60.801z"/>
						</g>
					</g>
				</g>
			</g>
		</g>
	</g>
	<g>
		<g>
			<path fill="#F2AD97" d="M139.888,181.661l-14.145-25.444l38.225-5.951l44.984-19.722c4.827-2.116,10.455,0.081,12.571,4.908v0
				c2.116,4.827-0.081,10.455-4.908,12.571L139.888,181.661z"/>
		</g>
		<g>
			<path fill="#FCC4AE" d="M165.002,186.898l65.878-25.077c4.914-1.87,7.641-7.131,6.337-12.225v0
				c-1.531-5.978-7.924-9.292-13.691-7.097l-42.597,16.215h0l-12.625-1.254l-36.883,9.443c-5.896,1.509-11.899-2.046-13.409-7.942
				l-7.908-30.887c0,0,0,0,0,0l-37.857,9.692c-1.838,0.471-3.504,1.454-4.804,2.836l-10.108,10.747l36.065,36.065l2.273-2.203
				c0.951-0.922,2.297-1.313,3.594-1.045l26.606,5.498l0,0l34.679-2.128C162.021,187.647,163.534,187.457,165.002,186.898z"/>
		</g>
		<g>
			<g>
				<path fill="#F2AD97" d="M237.217,149.596L237.217,149.596c-0.804-3.142-2.958-5.536-5.652-6.793
					c0.263,0.568,0.49,1.162,0.652,1.793v0c1.304,5.093-1.423,10.354-6.337,12.224l-65.878,25.077
					c-1.467,0.559-2.981,0.749-4.45,0.638l-34.679,2.128l-26.606-5.498c-1.297-0.268-2.643,0.123-3.594,1.045l-2.273,2.203l5,5
					l2.273-2.203c0.951-0.922,2.297-1.313,3.594-1.045l26.606,5.498l34.679-2.128c1.469,0.111,2.983-0.079,4.45-0.638l65.878-25.077
					C235.794,159.95,238.521,154.69,237.217,149.596z"/>
			</g>
		</g>
		<g>
			<path fill="#FCC4AE" d="M123.948,157.93l-8.301-18.934l49.63-21.759c1.115-0.489,2.415,0.019,2.903,1.134l0,0
				c4.096,9.342-0.157,20.236-9.499,24.332L123.948,157.93z"/>
		</g>
		<g>
			<g>
				<path fill="#FFA91A" d="M80.495,222.455l19.272-19.272c2.596-2.596,2.596-6.805,0-9.401l-50.688-50.688
					c-2.596-2.596-6.805-2.596-9.401,0l-19.272,19.272c-2.596,2.596-2.596,6.805,0,9.401l50.688,50.688
					C73.69,225.051,77.899,225.051,80.495,222.455z"/>
			</g>
			<g>
				<path fill="#F79219" d="M99.767,193.781l-10-10c2.596,2.596,2.596,6.805,0,9.401l-19.272,19.272
					c-2.596,2.596-6.805,2.596-9.401,0l10,10c2.596,2.596,6.805,2.596,9.401,0l19.272-19.272
					C102.363,200.586,102.363,196.377,99.767,193.781z"/>
			</g>
			<g>
				<path fill="#EF7816" d="M99.767,193.781l-5-5c2.596,2.596,2.596,6.805,0,9.401l-19.272,19.272c-2.596,2.596-6.805,2.596-9.401,0
					l5,5c2.596,2.596,6.805,2.596,9.401,0l19.272-19.272C102.363,200.586,102.363,196.377,99.767,193.781z"/>
			</g>
		</g>
		<g>
			<path fill="#FCC4AE" d="M144.632,148.861l-6.793-19.595l-27.734-1.192l7.908,30.887c1.509,5.896,7.513,9.452,13.409,7.942
				L144.632,148.861z"/>
		</g>
		<g>
			<path fill="#FFD2C0" d="M65.69,153.22L65.69,153.22c-0.51,0-1-0.19-1.37-0.54c-0.8-0.76-0.84-2.03-0.08-2.83l6.12-6.51
				c0.78-0.83,1.77-1.41,2.88-1.7l37-9.47l0.57-0.06l27.78,1.19l15.47-6.78c0.99-0.43,2.2,0.05,2.63,1.03
				c0.44,1.01-0.02,2.19-1.03,2.64l-15.89,6.96c-0.27,0.12-0.58,0.18-0.88,0.17l-27.95-1.2l-36.71,9.4
				c-0.37,0.09-0.7,0.29-0.96,0.56l-6.12,6.51C66.77,152.99,66.24,153.22,65.69,153.22z M162.19,127.14c-0.79,0-1.51-0.47-1.83-1.19
				c-0.22-0.49-0.23-1.04-0.04-1.53c0.2-0.5,0.58-0.9,1.07-1.11c0.98-0.43,2.2,0.05,2.63,1.03c0.21,0.49,0.22,1.03,0.03,1.53
				s-0.57,0.89-1.06,1.1C162.73,127.09,162.46,127.14,162.19,127.14z"/>
		</g>
	</g>
</g>
</svg>
