<?xml version="1.0" encoding="utf-8"?>
<!-- Generator: Adobe Illustrator 24.0.0, SVG Export Plug-In . SVG Version: 6.00 Build 0)  -->
<svg version="1.1" id="Layer_1" xmlns="http://www.w3.org/2000/svg" xmlns:xlink="http://www.w3.org/1999/xlink" x="0px" y="0px"
	 viewBox="0 0 256 256" enable-background="new 0 0 256 256" xml:space="preserve">
<g>
	<g>
		<g>
			<g>
				<g>
					<g>
						<g>
							<path fill="#F1F2F2" d="M220.47,186.529c10.888-17.165,17.129-37.567,16.951-59.439
								c-0.486-59.666-49.676-108.473-109.344-108.514C66.348,18.533,16.537,69.605,18.64,131.795
								c1.928,57.003,48.118,103.39,105.112,105.549c23.294,0.882,45.038-5.527,63.148-17.117c1.644-1.052,3.667-1.322,5.505-0.666
								l30.322,10.819c4.939,1.762,9.707-3.006,7.945-7.945l-10.854-30.422C219.166,190.183,219.43,188.169,220.47,186.529z"/>
						</g>
					</g>
					<g>
						<g>
							<path fill="#FFFFFF" d="M43.14,189c-0.649,0-1.26-0.32-1.64-0.86c0,0,0,0,0-0.01c-0.3-0.43-0.42-0.96-0.33-1.48
								c0.1-0.53,0.39-0.99,0.83-1.29c0.87-0.61,2.17-0.38,2.78,0.49c0.01,0.01,0.01,0.01,0.01,0.01c0.3,0.44,0.42,0.97,0.319,1.49
								c-0.09,0.52-0.38,0.98-0.819,1.29C43.95,188.87,43.55,189,43.14,189z M38.819,182.27c-0.699,0-1.369-0.38-1.72-0.98
								c-4.37-7.42-7.819-15.34-10.25-23.56c-2.5-8.45-3.91-17.23-4.21-26.07c-0.04-1.23-0.07-2.47-0.07-3.69
								c0-13.7,2.57-26.99,7.62-39.5c5.07-12.53,12.471-23.88,22-33.74C72.1,34.14,98.83,22.72,127.45,22.58
								c0.359-0.1,0.739-0.1,1.1,0c10.95,0.05,21.74,1.8,32.06,5.19c2.591,0.85,5.16,1.81,7.65,2.85c1.01,0.42,1.5,1.6,1.07,2.61
								c-0.41,0.99-1.62,1.5-2.61,1.08c-2.43-1.01-4.9-1.93-7.35-2.74c-10.07-3.3-20.601-4.99-31.301-4.99c-0.02,0-0.039,0-0.069,0
								c-27.74,0-53.641,10.99-72.931,30.93c-18.369,19.01-28.489,44.03-28.5,70.46c0,1.12,0.03,2.32,0.061,3.55
								c0.57,16.75,5.38,33.26,13.91,47.73c0.56,0.95,0.24,2.18-0.7,2.74C39.53,182.17,39.18,182.27,38.819,182.27z"/>
						</g>
					</g>
					<g>
						<g>
							<path fill="#E6E7E8" d="M219.818,192.013c-0.653-1.83-0.389-3.843,0.652-5.484c10.888-17.165,17.129-37.567,16.951-59.439
								c-0.262-32.201-14.711-61.24-37.336-81.157c16.801,19.085,27.115,43.995,27.336,71.157
								c0.178,21.872-6.063,42.274-16.951,59.439c-1.041,1.64-1.305,3.654-0.652,5.484l10.854,30.422
								c1.762,4.939-3.006,9.707-7.945,7.945l-30.322-10.819c-1.838-0.656-3.862-0.386-5.506,0.666
								c-18.11,11.59-39.854,18-63.148,17.117c-25.908-0.982-49.583-11.102-67.884-27.205
								c19.218,21.842,46.961,36.033,77.884,37.205c23.294,0.882,45.038-5.527,63.148-17.117c1.644-1.052,3.667-1.322,5.506-0.666
								l30.322,10.819c4.939,1.762,9.707-3.006,7.945-7.945L219.818,192.013z"/>
						</g>
					</g>
					<g>
						<g>
							<path fill="#D1D3D4" d="M219.818,192.013c-0.653-1.83-0.389-3.843,0.652-5.484c10.888-17.165,17.129-37.567,16.951-59.439
								c-0.252-30.939-13.599-58.958-34.713-78.772c18.2,19.396,29.482,45.352,29.713,73.772
								c0.178,21.872-6.063,42.274-16.951,59.439c-1.041,1.64-1.305,3.654-0.652,5.484l10.854,30.422
								c1.762,4.939-3.006,9.707-7.945,7.945l-30.322-10.819c-1.838-0.656-3.862-0.386-5.506,0.666
								c-18.11,11.59-39.854,18-63.148,17.117c-27.16-1.029-51.866-12.102-70.498-29.58c19.093,20.349,45.832,33.456,75.498,34.58
								c23.294,0.882,45.038-5.527,63.148-17.117c1.644-1.052,3.667-1.322,5.506-0.666l30.322,10.819
								c4.939,1.762,9.707-3.006,7.945-7.945L219.818,192.013z"/>
						</g>
					</g>
				</g>
			</g>
		</g>
	</g>
	<g>
		<g>
			<g>
				<g>
					<g>
						<path fill="#76A34F" d="M112.74,123.336H56.553c-2.507,0-4.54-2.033-4.54-4.54V80.203c0-2.508,2.033-4.54,4.54-4.54h56.187
							c2.508,0,4.54,2.033,4.54,4.54v38.593C117.281,121.303,115.248,123.336,112.74,123.336z"/>
					</g>
				</g>
				<g>
					<g>
						<g>
							<path fill="#FFFFFF" d="M78.977,88.702H64.22c-1.152,0-2.085-0.933-2.085-2.085c0-1.152,0.933-2.085,2.085-2.085h14.757
								c1.152,0,2.085,0.933,2.085,2.085C81.062,87.769,80.129,88.702,78.977,88.702z"/>
						</g>
					</g>
					<g>
						<g>
							<path fill="#FFFFFF" d="M105.073,102.945H64.22c-1.152,0-2.085-0.933-2.085-2.085c0-1.152,0.933-2.085,2.085-2.085h40.852
								c1.152,0,2.085,0.933,2.085,2.085C107.158,102.012,106.224,102.945,105.073,102.945z"/>
						</g>
					</g>
					<g>
						<g>
							<path fill="#FFFFFF" d="M105.073,114.466H64.22c-1.152,0-2.085-0.933-2.085-2.085c0-1.152,0.933-2.085,2.085-2.085h40.852
								c1.152,0,2.085,0.933,2.085,2.085C107.158,113.533,106.224,114.466,105.073,114.466z"/>
						</g>
					</g>
				</g>
			</g>
			<g>
				<g>
					<g>
						<path fill="#76A34F" d="M199.447,144.639H143.26c-2.508,0-4.54-2.033-4.54-4.54v-38.593c0-2.508,2.033-4.54,4.54-4.54h56.187
							c2.508,0,4.54,2.033,4.54,4.54v38.593C203.987,142.606,201.954,144.639,199.447,144.639z"/>
					</g>
				</g>
				<g>
					<g>
						<g>
							<path fill="#FFFFFF" d="M165.684,110.005h-14.757c-1.152,0-2.085-0.933-2.085-2.085s0.933-2.085,2.085-2.085h14.757
								c1.152,0,2.085,0.933,2.085,2.085S166.835,110.005,165.684,110.005z"/>
						</g>
					</g>
					<g>
						<g>
							<path fill="#FFFFFF" d="M191.779,124.248h-40.852c-1.152,0-2.085-0.933-2.085-2.085c0-1.152,0.933-2.085,2.085-2.085h40.852
								c1.152,0,2.085,0.933,2.085,2.085C193.864,123.314,192.931,124.248,191.779,124.248z"/>
						</g>
					</g>
					<g>
						<g>
							<path fill="#FFFFFF" d="M191.779,135.769h-40.852c-1.152,0-2.085-0.933-2.085-2.085c0-1.152,0.933-2.085,2.085-2.085h40.852
								c1.152,0,2.085,0.933,2.085,2.085C193.864,134.835,192.931,135.769,191.779,135.769z"/>
						</g>
					</g>
				</g>
			</g>
			<g>
				<g>
					<g>
						<path fill="#76A34F" d="M143.538,200.547H87.351c-2.507,0-4.54-2.033-4.54-4.54v-38.593c0-2.508,2.033-4.54,4.54-4.54h56.187
							c2.508,0,4.54,2.033,4.54,4.54v38.593C148.078,198.515,146.046,200.547,143.538,200.547z"/>
					</g>
				</g>
				<g>
					<g>
						<g>
							<path fill="#FFFFFF" d="M109.775,165.914H95.018c-1.152,0-2.085-0.933-2.085-2.085s0.933-2.085,2.085-2.085h14.757
								c1.152,0,2.085,0.933,2.085,2.085S110.927,165.914,109.775,165.914z"/>
						</g>
					</g>
					<g>
						<g>
							<path fill="#FFFFFF" d="M135.87,180.157H95.018c-1.152,0-2.085-0.933-2.085-2.085c0-1.152,0.933-2.085,2.085-2.085h40.852
								c1.152,0,2.085,0.933,2.085,2.085C137.955,179.223,137.022,180.157,135.87,180.157z"/>
						</g>
					</g>
					<g>
						<g>
							<path fill="#FFFFFF" d="M135.87,191.677H95.018c-1.152,0-2.085-0.933-2.085-2.085c0-1.152,0.933-2.085,2.085-2.085h40.852
								c1.152,0,2.085,0.933,2.085,2.085C137.955,190.744,137.022,191.677,135.87,191.677z"/>
						</g>
					</g>
				</g>
			</g>
		</g>
		<g>
			<g>
				<path fill="#FFC91D" d="M92.87,47.652c-2.919,6.332-8.001,11.415-14.333,14.333c-1.463,0.662-2.112,2.385-1.449,3.848
					c0.291,0.643,0.806,1.158,1.449,1.449C84.87,70.2,89.953,75.282,92.87,81.614c0.657,1.465,2.377,2.121,3.843,1.464
					c0.651-0.292,1.172-0.813,1.464-1.464c2.917-6.333,8-11.416,14.333-14.332c1.463-0.662,2.112-2.385,1.449-3.848
					c-0.291-0.643-0.806-1.158-1.449-1.449c-6.333-2.917-11.416-8-14.333-14.333c-0.657-1.465-2.377-2.121-3.843-1.464
					C93.683,46.48,93.162,47.001,92.87,47.652z"/>
			</g>
		</g>
		<g>
			<g>
				<path fill="#FFA91A" d="M113.959,63.435c-0.291-0.643-0.806-1.158-1.449-1.449c-1.162-0.535-2.266-1.167-3.339-1.843
					c-0.163,0.911-0.755,1.729-1.661,2.14c-6.334,2.916-11.417,7.998-14.333,14.331c-0.292,0.651-0.813,1.172-1.464,1.464
					c-0.223,0.1-0.453,0.16-0.684,0.201c0.675,1.071,1.306,2.174,1.841,3.335c0.657,1.465,2.377,2.121,3.843,1.464
					c0.651-0.292,1.172-0.813,1.464-1.464c2.917-6.333,8-11.416,14.333-14.331C113.973,66.62,114.622,64.898,113.959,63.435z"/>
			</g>
		</g>
		<g>
			<g>
				<path fill="#FFC91D" d="M158.881,161.09c-2.919,6.332-8.001,11.415-14.333,14.333c-1.463,0.662-2.112,2.385-1.449,3.848
					c0.291,0.643,0.806,1.158,1.449,1.449c6.333,2.917,11.416,7.999,14.333,14.331c0.657,1.465,2.377,2.121,3.843,1.464
					c0.651-0.292,1.172-0.813,1.464-1.464c2.916-6.333,8-11.416,14.333-14.331c1.463-0.662,2.112-2.385,1.449-3.848
					c-0.291-0.643-0.806-1.158-1.449-1.449c-6.333-2.917-11.416-8-14.333-14.333c-0.657-1.465-2.377-2.121-3.843-1.464
					C159.694,159.918,159.173,160.439,158.881,161.09z"/>
			</g>
		</g>
		<g>
			<g>
				<path fill="#FFA91A" d="M179.97,176.873c-0.291-0.643-0.806-1.158-1.449-1.449c-1.162-0.535-2.266-1.167-3.338-1.843
					c-0.163,0.911-0.755,1.729-1.662,2.14c-6.333,2.916-11.417,7.998-14.333,14.331c-0.292,0.651-0.813,1.172-1.464,1.464
					c-0.224,0.1-0.453,0.16-0.684,0.201c0.675,1.071,1.306,2.174,1.841,3.335c0.657,1.465,2.377,2.121,3.843,1.464
					c0.651-0.292,1.172-0.813,1.464-1.464c2.916-6.333,8-11.416,14.333-14.331C179.984,180.059,180.633,178.336,179.97,176.873z"/>
			</g>
		</g>
		<g>
			<g>
				<path fill="#FFC91D" d="M182.736,75.631c-2.723,5.908-7.465,10.649-13.372,13.372c-1.365,0.618-1.97,2.225-1.352,3.59
					c0.272,0.6,0.752,1.08,1.352,1.352c5.908,2.721,10.65,7.463,13.372,13.371c0.613,1.367,2.218,1.979,3.585,1.366
					c0.607-0.272,1.094-0.758,1.366-1.366c2.721-5.909,7.463-10.65,13.372-13.371c1.365-0.618,1.97-2.225,1.352-3.59
					c-0.272-0.6-0.752-1.081-1.352-1.352c-5.909-2.721-10.651-7.464-13.372-13.372c-0.613-1.367-2.218-1.979-3.585-1.366
					C183.494,74.537,183.008,75.023,182.736,75.631z"/>
			</g>
		</g>
		<g>
			<g>
				<path fill="#FFA91A" d="M202.411,90.355c-0.272-0.6-0.752-1.081-1.352-1.352c-1.216-0.56-2.368-1.226-3.478-1.949
					c-0.178,0.807-0.711,1.525-1.522,1.892c-5.909,2.72-10.651,7.462-13.372,13.371c-0.272,0.607-0.758,1.094-1.366,1.366
					c-0.172,0.077-0.347,0.134-0.524,0.174c0.719,1.104,1.381,2.251,1.939,3.46c0.613,1.367,2.218,1.979,3.585,1.366
					c0.608-0.272,1.094-0.758,1.366-1.366c2.721-5.909,7.463-10.651,13.372-13.371C202.424,93.328,203.029,91.72,202.411,90.355z"/>
			</g>
		</g>
	</g>
</g>
</svg>
