<?xml version="1.0" encoding="utf-8"?>
<!-- Generator: Adobe Illustrator 24.0.0, SVG Export Plug-In . SVG Version: 6.00 Build 0)  -->
<svg version="1.1" id="Layer_1" xmlns="http://www.w3.org/2000/svg" xmlns:xlink="http://www.w3.org/1999/xlink" x="0px" y="0px"
	 viewBox="0 0 256 256" enable-background="new 0 0 256 256" xml:space="preserve">
<g>
	<g>
		<g>
			<g>
				<g>
					<g>
						<path fill="#58595B" d="M83.818,237.143l-4.893-30.122c-0.347-2.134-2.756-3.226-4.589-2.079l-25.873,16.182
							c-2.539,1.588-5.594-1.085-4.359-3.812l48.81-107.723l45.453,20.595l-48.81,107.723
							C88.322,240.634,84.298,240.099,83.818,237.143z"/>
					</g>
				</g>
			</g>
		</g>
		<g>
			<g>
				<g>
					<g>
						<path fill="#58595B" d="M172.182,237.143l4.893-30.122c0.347-2.134,2.756-3.226,4.589-2.079l25.873,16.182
							c2.539,1.588,5.594-1.085,4.359-3.812l-48.81-107.723l-45.453,20.595l48.81,107.723
							C167.678,240.634,171.702,240.099,172.182,237.143z"/>
					</g>
				</g>
			</g>
		</g>
	</g>
	<g>
		<path fill="#FFA91A" d="M145.387,20.891L145.387,20.891c4.611,4.611,10.865,7.202,17.387,7.202h0
			c13.58,0,24.588,11.009,24.588,24.588v0c0,6.521,2.591,12.775,7.202,17.387h0c9.602,9.602,9.602,25.171,0,34.773l0,0
			c-4.611,4.611-7.202,10.865-7.202,17.387v0c0,13.58-11.009,24.588-24.588,24.588h0c-6.521,0-12.775,2.591-17.387,7.202l0,0
			c-9.602,9.602-25.171,9.602-34.773,0l0,0c-4.611-4.611-10.865-7.202-17.387-7.202h0c-13.58,0-24.588-11.009-24.588-24.588v0
			c0-6.521-2.591-12.775-7.202-17.387l0,0c-9.602-9.602-9.602-25.171,0-34.773h0c4.611-4.611,7.202-10.865,7.202-17.387v0
			c0-13.58,11.009-24.588,24.588-24.588h0c6.521,0,12.775-2.591,17.387-7.202h0C120.216,11.289,135.784,11.289,145.387,20.891z"/>
	</g>
	<g>
		<g>
			<path fill="#FFC91D" d="M74.64,124.23c-1.1,0-2-0.9-2-2c0-1.11,0.9-2,2-2c1.1,0,2,0.89,2,2
				C76.64,123.33,75.74,124.23,74.64,124.23z M73.61,116.32c-0.9,0-1.7-0.61-1.93-1.49c-1.28-4.82-3.85-9.25-7.41-12.82
				c-3.89-3.88-6.03-9.05-6.03-14.55c0-5.51,2.14-10.68,6.03-14.56c5.39-5.41,8.37-12.58,8.37-20.22c0-11.35,9.24-20.58,20.59-20.59
				c7.63,0,14.81-2.97,20.21-8.37c3.89-3.89,9.05-6.03,14.54-6.03h0.04c5.49,0,10.65,2.14,14.54,6.03c5.4,5.4,12.58,8.37,20.21,8.37
				c1.11,0,2,0.9,2,2c0,1.11-0.89,2-2,2h-0.01c-8.7,0-16.88-3.39-23.03-9.54c-3.13-3.13-7.3-4.86-11.729-4.86
				c-4.43,0-8.6,1.73-11.73,4.86c-6.15,6.15-14.33,9.54-23.03,9.54h-0.01c-9.13,0.02-16.58,7.46-16.59,16.59
				c0,8.7-3.39,16.89-9.55,23.04c-3.12,3.13-4.84,7.3-4.85,11.74c0.01,4.43,1.73,8.6,4.85,11.73c4.07,4.06,6.99,9.12,8.45,14.61
				c0.14,0.52,0.07,1.06-0.2,1.52s-0.7,0.79-1.21,0.93C73.96,116.3,73.78,116.32,73.61,116.32z"/>
		</g>
	</g>
	<g>
		<path fill="#F79219" d="M194.563,70.068c-4.611-4.611-7.202-10.865-7.202-17.387v0c0-9.362-5.234-17.501-12.934-21.654
			c1.871,3.469,2.934,7.437,2.934,11.654v0c0,6.521,2.591,12.775,7.202,17.387c9.602,9.602,9.602,25.171,0,34.773v0
			c-4.611,4.611-7.202,10.865-7.202,17.387v0c0,13.58-11.009,24.588-24.588,24.588h0c-6.521,0-12.775,2.591-17.387,7.202v0
			c-9.602,9.602-25.171,9.602-34.773,0v0c-4.611-4.611-10.865-7.202-17.387-7.202h0c-4.217,0-8.186-1.063-11.654-2.934
			c4.153,7.7,12.292,12.934,21.654,12.934h0c6.521,0,12.775,2.591,17.387,7.202v0c9.602,9.602,25.171,9.602,34.773,0v0
			c4.611-4.611,10.865-7.202,17.387-7.202h0c13.58,0,24.588-11.009,24.588-24.588v0c0-6.521,2.591-12.775,7.202-17.387v0
			C204.166,95.239,204.166,79.67,194.563,70.068z"/>
	</g>
	<g>
		<path fill="#EF7816" d="M194.563,70.068c-4.611-4.611-7.202-10.865-7.202-17.387v0c0-8.065-3.883-15.223-9.882-19.707
			c3.066,4.102,4.882,9.192,4.882,14.707v0c0,6.521,2.591,12.775,7.202,17.387c9.602,9.602,9.602,25.171,0,34.773v0
			c-4.611,4.611-7.202,10.865-7.202,17.387v0c0,13.58-11.009,24.588-24.588,24.588h0c-6.521,0-12.775,2.591-17.387,7.202v0
			c-9.602,9.602-25.171,9.602-34.773,0v0c-4.611-4.611-10.865-7.202-17.387-7.202h0c-5.515,0-10.605-1.816-14.707-4.881
			c4.484,5.998,11.642,9.881,19.707,9.881h0c6.521,0,12.775,2.591,17.387,7.202v0c9.602,9.602,25.171,9.602,34.773,0v0
			c4.611-4.611,10.865-7.202,17.387-7.202h0c13.58,0,24.588-11.009,24.588-24.588v0c0-6.521,2.591-12.775,7.202-17.387v0
			C204.166,95.239,204.166,79.67,194.563,70.068z"/>
	</g>
	<g>
		<g>
			<g>
				
					<ellipse transform="matrix(0.9744 -0.2247 0.2247 0.9744 -16.3775 30.9969)" fill="#EF7816" cx="128" cy="87.455" rx="49.641" ry="49.641"/>
			</g>
		</g>
	</g>
	<g>
		<g>
			<g>
				<g>
					<path fill="#FFC91D" d="M134.746,71.342l2.749-8.868c1.365-4.404-1.099-9.081-5.503-10.447c-1.161-0.36-2.395,0.29-2.755,1.451
						l-0.757,2.443c-0.008,0.018-8.567,19.397-13.397,19.291v33.03h2.61c3.163-0.2,5.36,2.78,8.523,2.58h19.704V71.342H134.746z"/>
				</g>
			</g>
			<g>
				<g>
					<path fill="#FFA91A" d="M133.75,71.342c-1.601,0-2.704,1.582-2.174,3.092c0.443,1.261,0.685,2.616,0.685,4.029
						c0,4.67-2.615,8.727-6.46,10.791c-0.934,0.501-0.934,1.879,0,2.38c3.845,2.064,6.46,6.121,6.46,10.791
						c0,0.674-0.055,1.334-0.16,1.978c-0.553,3.38,2.152,6.42,5.577,6.42h8.243V71.342H133.75z"/>
				</g>
			</g>
			<g>
				<g>
					<path fill="#FFC91D" d="M155.387,91.082h-12.58c-2.725,0-4.935-2.21-4.935-4.935l0,0c0-2.725,2.21-4.935,4.935-4.935h12.58
						c2.725,0,4.935,2.21,4.935,4.935l0,0C160.322,88.873,158.112,91.082,155.387,91.082z"/>
				</g>
			</g>
			<g>
				<g>
					<path fill="#FFC91D" d="M152.935,100.952h-12.58c-2.726,0-4.935-2.21-4.935-4.935l0,0c0-2.725,2.209-4.935,4.935-4.935h12.58
						c2.725,0,4.935,2.21,4.935,4.935l0,0C157.87,98.743,155.661,100.952,152.935,100.952z"/>
				</g>
			</g>
			<g>
				<g>
					<path fill="#FFC91D" d="M150.484,110.823h-12.58c-2.726,0-4.935-2.21-4.935-4.935l0,0c0-2.725,2.21-4.935,4.935-4.935h12.58
						c2.726,0,4.935,2.21,4.935,4.935l0,0C155.419,108.613,153.209,110.823,150.484,110.823z"/>
				</g>
			</g>
			<g>
				<g>
					<path fill="#FFC91D" d="M157.838,81.212h-12.579c-2.726,0-4.935-2.21-4.935-4.935l0,0c0-2.725,2.21-4.935,4.935-4.935h12.579
						c2.726,0,4.935,2.21,4.935,4.935l0,0C162.773,79.002,160.564,81.212,157.838,81.212z"/>
				</g>
			</g>
			<g>
				<g>
					<path fill="#FFA91A" d="M111.802,112.661H98.353c-1.812,0-3.28-1.469-3.28-3.28V74.008c0-1.812,1.469-3.28,3.28-3.28h13.449
						c1.812,0,3.28,1.468,3.28,3.28v35.373C115.083,111.193,113.614,112.661,111.802,112.661z"/>
				</g>
			</g>
		</g>
	</g>
</g>
</svg>
