<?xml version="1.0" encoding="utf-8"?>
<!-- Generator: Adobe Illustrator 24.0.0, SVG Export Plug-In . SVG Version: 6.00 Build 0)  -->
<svg version="1.1" id="Layer_1" xmlns="http://www.w3.org/2000/svg" xmlns:xlink="http://www.w3.org/1999/xlink" x="0px" y="0px"
	 viewBox="0 0 256 256" enable-background="new 0 0 256 256" xml:space="preserve">
<g>
	<g>
		<g>
			<g>
				<g>
					<g>
						<g>
							<path fill="#FFA91A" d="M83.709,74.399l39.883-44.928c2.345-2.642,6.471-2.642,8.816,0l39.883,44.928
								c3.375,3.802,0.676,9.807-4.408,9.807h-17.357c-0.814,0-1.473,0.66-1.473,1.473v48.257c0,3.255-2.639,5.894-5.894,5.894
								h-30.317c-3.255,0-5.894-2.639-5.894-5.894V85.679c0-0.814-0.66-1.473-1.473-1.473H88.117
								C83.033,84.205,80.334,78.2,83.709,74.399z"/>
						</g>
					</g>
				</g>
			</g>
		</g>
		<g>
			<g>
				<path fill="#FFC91D" d="M112.95,113.52c-1.101,0-2-0.9-2-2V85.68c-0.011-3.01-2.471-5.47-5.48-5.47L88.35,80.2
					c-0.78,0-1.5-0.46-1.819-1.18c-0.32-0.71-0.19-1.56,0.329-2.14L126.5,32.21c0.76-0.85,2.24-0.85,3,0l10.34,11.66
					c0.729,0.82,0.66,2.09-0.17,2.82c-0.79,0.71-2.12,0.63-2.82-0.16L128,36.56L92.8,76.2l12.67,0.01c5.22,0,9.47,4.25,9.48,9.47
					v25.82c0,0.01,0,0.01,0,0.02C114.95,112.62,114.05,113.52,112.95,113.52z M143.66,53.18c-0.58,0-1.12-0.25-1.5-0.67
					c-0.36-0.4-0.53-0.91-0.5-1.45c0.029-0.53,0.27-1.02,0.67-1.38c0.79-0.7,2.12-0.62,2.819,0.17c0.73,0.83,0.66,2.09-0.17,2.83
					C144.62,53,144.149,53.18,143.66,53.18z"/>
			</g>
		</g>
		<g>
			<g>
				<path fill="#F79219" d="M172.291,74.398l-39.883-44.928c-0.511-0.576-1.11-1.019-1.754-1.344l36.637,41.271
					c3.375,3.802,0.676,9.807-4.408,9.807h-17.357c-0.814,0-1.473,0.66-1.473,1.474v48.257c0,3.255-2.639,5.894-5.894,5.894h-30.317
					c-0.282,0-0.557-0.027-0.829-0.065c0.404,2.861,2.856,5.065,5.829,5.065h30.317c3.255,0,5.894-2.639,5.894-5.894V85.679
					c0-0.814,0.66-1.474,1.473-1.474h17.357C172.967,84.205,175.666,78.2,172.291,74.398z"/>
			</g>
		</g>
		<g>
			<g>
				<g>
					<g>
						<g>
							<g>
								<path fill="#FFA91A" d="M24.94,163.079l39.883-44.928c2.345-2.642,6.471-2.642,8.816,0l39.883,44.928
									c3.375,3.802,0.676,9.807-4.408,9.807H91.758c-0.814,0-1.473,0.66-1.473,1.473v48.257c0,3.255-2.639,5.894-5.894,5.894
									H54.073c-3.255,0-5.894-2.639-5.894-5.894v-48.257c0-0.814-0.66-1.473-1.473-1.473H29.348
									C24.264,172.886,21.565,166.881,24.94,163.079z"/>
							</g>
						</g>
					</g>
				</g>
			</g>
			<g>
				<g>
					<path fill="#F79219" d="M113.523,163.079l-39.883-44.928c-0.511-0.576-1.11-1.019-1.754-1.344l36.637,41.271
						c3.375,3.802,0.676,9.807-4.408,9.807H86.758c-0.814,0-1.474,0.66-1.474,1.474v48.257c0,3.255-2.639,5.894-5.894,5.894H49.073
						c-0.282,0-0.557-0.027-0.829-0.065c0.404,2.862,2.856,5.065,5.829,5.065H84.39c3.255,0,5.894-2.639,5.894-5.894v-48.257
						c0-0.814,0.66-1.474,1.474-1.474h17.357C114.198,172.886,116.898,166.881,113.523,163.079z"/>
				</g>
			</g>
			<g>
				<g>
					<g>
						<g>
							<g>
								<path fill="#FFA91A" d="M142.477,163.079l39.883-44.928c2.345-2.642,6.471-2.642,8.816,0l39.883,44.928
									c3.375,3.802,0.676,9.807-4.408,9.807h-17.357c-0.814,0-1.473,0.66-1.473,1.473v48.257c0,3.255-2.639,5.894-5.894,5.894
									H171.61c-3.255,0-5.894-2.639-5.894-5.894v-48.257c0-0.814-0.66-1.473-1.473-1.473h-17.357
									C141.801,172.886,139.102,166.881,142.477,163.079z"/>
							</g>
						</g>
					</g>
				</g>
			</g>
			<g>
				<g>
					<path fill="#F79219" d="M231.06,163.079l-39.883-44.928c-0.74-0.834-1.658-1.403-2.641-1.71l32.524,36.638
						c3.375,3.802,0.676,9.807-4.408,9.807h-17.357c-0.814,0-1.474,0.66-1.474,1.474v48.257c0,3.255-2.639,5.894-5.894,5.894
						h-26.211v4.106c0,3.255,2.639,5.894,5.894,5.894h30.317c3.255,0,5.894-2.639,5.894-5.894v-48.257
						c0-0.814,0.66-1.474,1.474-1.474h17.357C231.735,172.886,234.435,166.881,231.06,163.079z"/>
				</g>
			</g>
			<g>
				<g>
					<path fill="#EF7816" d="M231.06,163.079l-39.883-44.928c-0.511-0.576-1.11-1.019-1.754-1.344l36.637,41.271
						c3.375,3.802,0.676,9.807-4.408,9.807h-17.357c-0.814,0-1.474,0.66-1.474,1.474v48.257c0,3.255-2.639,5.894-5.894,5.894H166.61
						c-0.282,0-0.557-0.027-0.829-0.065c0.404,2.862,2.856,5.065,5.829,5.065h30.317c3.255,0,5.894-2.639,5.894-5.894v-48.257
						c0-0.814,0.66-1.474,1.474-1.474h17.357C231.735,172.886,234.435,166.881,231.06,163.079z"/>
				</g>
			</g>
		</g>
	</g>
	<g>
		<g>
			<g>
				<g>
					<path fill="#76A34F" d="M128,177.223c-14.163,0-25.644,11.481-25.644,25.644c0,14.163,11.481,25.644,25.644,25.644
						c14.163,0,25.644-11.481,25.644-25.644C153.644,188.704,142.163,177.223,128,177.223z"/>
				</g>
			</g>
		</g>
		<g>
			<g>
				<g>
					<g>
						<g>
							<g>
								<g>
									<g>
										<g>
											<path fill="#F1F2F2" d="M128,187.567c-8.447,0-15.294,6.847-15.294,15.294c0,8.447,6.847,15.294,15.294,15.294
												c8.447,0,15.294-6.847,15.294-15.294C143.294,194.414,136.447,187.567,128,187.567z M128,211.064
												c-4.53,0-8.203-3.673-8.203-8.203c0-4.53,3.673-8.203,8.203-8.203s8.203,3.673,8.203,8.203
												C136.203,207.391,132.53,211.064,128,211.064z"/>
										</g>
									</g>
								</g>
								<g>
									<g>
										<g>
											<g>
												<path fill="#FFFFFF" d="M142.897,199.383l3.718-3.28c0.56-0.494,0.694-1.314,0.321-1.961l-1.978-3.425
													c-0.373-0.646-1.151-0.94-1.858-0.702l-4.742,1.594C140.577,193.652,142.19,196.344,142.897,199.383z"/>
											</g>
										</g>
									</g>
									<g>
										<g>
											<g>
												<path fill="#FFFFFF" d="M109.385,196.103l3.718,3.28c0.707-3.039,2.32-5.731,4.539-7.774l-4.742-1.594
													c-0.708-0.238-1.485,0.056-1.858,0.702l-1.978,3.425C108.691,194.789,108.825,195.609,109.385,196.103z"/>
											</g>
										</g>
									</g>
									<g>
										<g>
											<g>
												<path fill="#FFFFFF" d="M128,187.567c1.558,0,3.062,0.233,4.478,0.666l-0.963-4.768
													c-0.148-0.732-0.791-1.258-1.538-1.258h-3.955c-0.747,0-1.39,0.526-1.538,1.258l-0.963,4.768
													C124.938,187.8,126.442,187.567,128,187.567z"/>
											</g>
										</g>
									</g>
									<g>
										<g>
											<g>
												<path fill="#FFFFFF" d="M146.494,209.41l-3.578-3.156c-0.682,3.013-2.254,5.689-4.425,7.736l4.488,1.509
													c0.708,0.238,1.485-0.056,1.858-0.703l1.978-3.425C147.188,210.724,147.054,209.904,146.494,209.41z"/>
											</g>
										</g>
									</g>
									<g>
										<g>
											<g>
												<path fill="#FFFFFF" d="M128,218.155c-1.558,0-3.062-0.233-4.478-0.666l0.963,4.768
													c0.148,0.732,0.791,1.258,1.538,1.258h3.955c0.747,0,1.39-0.526,1.538-1.258l0.963-4.768
													C131.062,217.922,129.558,218.155,128,218.155z"/>
											</g>
										</g>
									</g>
									<g>
										<g>
											<g>
												<path fill="#FFFFFF" d="M113.084,206.253l-3.578,3.156c-0.56,0.494-0.694,1.314-0.321,1.961l1.978,3.425
													c0.373,0.647,1.151,0.94,1.858,0.703l4.488-1.509C115.338,211.942,113.766,209.267,113.084,206.253z"/>
											</g>
										</g>
									</g>
								</g>
							</g>
						</g>
					</g>
				</g>
			</g>
		</g>
	</g>
</g>
</svg>
