<?xml version="1.0" encoding="utf-8"?>
<!-- Generator: Adobe Illustrator 24.0.0, SVG Export Plug-In . SVG Version: 6.00 Build 0)  -->
<svg version="1.1" id="Layer_1" xmlns="http://www.w3.org/2000/svg" xmlns:xlink="http://www.w3.org/1999/xlink" x="0px" y="0px"
	 viewBox="0 0 256 256" enable-background="new 0 0 256 256" xml:space="preserve">
<g>
	<g>
		<g>
			<g>
				<g>
					<g>
						<g>
							<g>
								<path fill="#E6E7E8" d="M138.103,34.429c-42.826,0-77.544,34.718-77.544,77.544c0,42.826,34.718,77.544,77.544,77.544
									c42.826,0,77.544-34.718,77.544-77.544C215.647,69.147,180.93,34.429,138.103,34.429z M138.103,123.97
									c-6.626,0-11.998-5.371-11.998-11.998c0-6.626,5.372-11.998,11.998-11.998c6.626,0,11.998,5.372,11.998,11.998
									C150.101,118.599,144.73,123.97,138.103,123.97z"/>
							</g>
						</g>
					</g>
					<g>
						<g>
							<g>
								<path fill="#E6E7E8" d="M138.103,34.429c-42.826,0-77.544,34.718-77.544,77.544c0,42.826,34.718,77.544,77.544,77.544
									c42.826,0,77.544-34.718,77.544-77.544C215.647,69.147,180.93,34.429,138.103,34.429z M138.103,123.97
									c-6.626,0-11.998-5.371-11.998-11.998c0-6.626,5.372-11.998,11.998-11.998c6.626,0,11.998,5.372,11.998,11.998
									C150.101,118.599,144.73,123.97,138.103,123.97z"/>
							</g>
						</g>
					</g>
					<g>
						<g>
							<g>
								<path fill="#D1D3D4" d="M129.382,120.211c-11.483,11.362-31.863,32.083-46.098,46.605
									c14.032,14.026,33.413,22.701,54.82,22.701V123.97C134.667,123.97,131.569,122.526,129.382,120.211z"/>
							</g>
						</g>
					</g>
					<g>
						<g>
							<g>
								<path fill="#F1F2F2" d="M203.405,70.137L148.207,105.5c0.62,0.965,1.104,2.025,1.429,3.153l63.004-18.137
									C210.545,83.226,207.41,76.376,203.405,70.137z"/>
							</g>
						</g>
					</g>
					<g>
						<g>
							<g>
								<path fill="#F1F2F2" d="M138.103,34.429c-18.423,0-35.346,6.425-48.65,17.156l41.123,51.045
									c2.058-1.66,4.676-2.655,7.527-2.655c2.513,0,4.846,0.773,6.773,2.094l37.006-54.108
									C169.424,39.424,154.347,34.429,138.103,34.429z"/>
							</g>
						</g>
					</g>
					<g>
						<g>
							<g>
								<path fill="#FFA91A" d="M138.103,68.53c-23.993,0-43.443,19.45-43.443,43.443c0,23.993,19.45,43.443,43.443,43.443
									c23.993,0,43.443-19.45,43.443-43.443C181.547,87.98,162.096,68.53,138.103,68.53z"/>
							</g>
						</g>
					</g>
					<g>
						<g>
							<path fill="#FFC91D" d="M109.08,137.6c-0.601,0-1.17-0.26-1.55-0.73l0,0c-0.7-0.86-0.57-2.12,0.279-2.82
								c0.82-0.67,2.141-0.54,2.811,0.28l0.01,0.01c0.7,0.85,0.57,2.12-0.29,2.81C109.99,137.44,109.54,137.6,109.08,137.6z
								 M104.72,130.92c-0.76,0-1.439-0.42-1.78-1.1c-2.8-5.49-4.279-11.66-4.279-17.85c0-21.74,17.699-39.44,39.439-39.44
								c7.32,0,14.46,2.02,20.67,5.86c0.45,0.28,0.771,0.72,0.891,1.24s0.04,1.05-0.24,1.51c-0.57,0.91-1.851,1.21-2.76,0.65
								c-5.57-3.44-11.99-5.26-18.561-5.26c-9.45,0-18.34,3.69-25.05,10.39c-6.7,6.71-10.39,15.61-10.39,25.05
								c0,5.64,1.29,11.04,3.84,16.04c0.5,0.98,0.1,2.19-0.88,2.69C105.34,130.84,105.03,130.92,104.72,130.92z"/>
						</g>
					</g>
					<g>
						<path fill="#F79219" d="M163.406,76.67c5.117,7.127,8.14,15.859,8.14,25.303c0,23.993-19.45,43.443-43.443,43.443
							c-9.444,0-18.176-3.023-25.303-8.14c7.884,10.98,20.754,18.14,35.303,18.14c23.993,0,43.443-19.45,43.443-43.443
							C181.547,97.423,174.387,84.554,163.406,76.67z"/>
					</g>
					<g>
						<path fill="#EF7816" d="M166.214,78.863c6.44,7.578,10.333,17.387,10.333,28.11c0,23.993-19.45,43.443-43.443,43.443
							c-10.724,0-20.533-3.893-28.11-10.333c7.969,9.377,19.841,15.333,33.11,15.333c23.993,0,43.443-19.45,43.443-43.443
							C181.547,98.703,175.59,86.831,166.214,78.863z"/>
					</g>
				</g>
			</g>
			<g>
				<g>
					<g>
						<g>
							<g>
								<g>
									<g>
										<g>
											<g>
												<path fill="#F1F2F2" d="M138.103,88.969c-12.699,0-22.994,10.295-22.994,22.994c0,12.699,10.295,22.994,22.994,22.994
													c12.699,0,22.994-10.295,22.994-22.994C161.097,99.264,150.802,88.969,138.103,88.969z M138.103,124.296
													c-6.811,0-12.333-5.522-12.333-12.333c0-6.811,5.522-12.333,12.333-12.333s12.333,5.522,12.333,12.333
													C150.436,118.774,144.915,124.296,138.103,124.296z"/>
											</g>
										</g>
									</g>
									<g>
										<g>
											<g>
												<g>
													<path fill="#FFFFFF" d="M160.5,106.734l5.59-4.931c0.842-0.743,1.044-1.975,0.482-2.948l-2.973-5.15
														c-0.561-0.972-1.73-1.414-2.794-1.056l-7.129,2.397C157.012,98.118,159.437,102.165,160.5,106.734z"/>
												</g>
											</g>
										</g>
										<g>
											<g>
												<g>
													<path fill="#FFFFFF" d="M110.117,101.803l5.59,4.931c1.063-4.569,3.488-8.616,6.824-11.688l-7.129-2.397
														c-1.064-0.358-2.233,0.084-2.794,1.056l-2.973,5.15C109.073,99.827,109.275,101.06,110.117,101.803z"/>
												</g>
											</g>
										</g>
										<g>
											<g>
												<g>
													<path fill="#FFFFFF" d="M138.103,88.969c2.343,0,4.603,0.35,6.733,1.002l-1.448-7.168
														c-0.222-1.1-1.189-1.891-2.312-1.891h-5.947c-1.123,0-2.09,0.791-2.312,1.891l-1.448,7.168
														C133.5,89.32,135.761,88.969,138.103,88.969z"/>
												</g>
											</g>
										</g>
										<g>
											<g>
												<g>
													<path fill="#FFFFFF" d="M165.908,121.808l-5.379-4.745c-1.026,4.53-3.389,8.553-6.653,11.631l6.748,2.269
														c1.064,0.358,2.233-0.084,2.794-1.056l2.973-5.15C166.952,123.784,166.75,122.551,165.908,121.808z"/>
												</g>
											</g>
										</g>
										<g>
											<g>
												<g>
													<path fill="#FFFFFF" d="M138.103,134.956c-2.343,0-4.603-0.35-6.733-1.002l1.448,7.168
														c0.222,1.1,1.189,1.891,2.312,1.891h5.947c1.123,0,2.09-0.791,2.312-1.891l1.448-7.168
														C142.707,134.606,140.446,134.956,138.103,134.956z"/>
												</g>
											</g>
										</g>
										<g>
											<g>
												<g>
													<path fill="#FFFFFF" d="M115.678,117.063l-5.379,4.745c-0.842,0.743-1.044,1.976-0.482,2.948l2.973,5.15
														c0.561,0.972,1.73,1.414,2.794,1.056l6.748-2.269C119.067,125.616,116.704,121.593,115.678,117.063z"/>
												</g>
											</g>
										</g>
									</g>
								</g>
							</g>
						</g>
					</g>
				</g>
			</g>
			<g>
				<g>
					<g>
						<path fill="#939598" d="M138.104,178.419c-36.639,0-66.446-29.808-66.446-66.446s29.808-66.446,66.446-66.446
							s66.446,29.808,66.446,66.446S174.742,178.419,138.104,178.419z M138.104,49.526c-34.433,0-62.446,28.013-62.446,62.446
							s28.014,62.446,62.446,62.446s62.446-28.013,62.446-62.446S172.536,49.526,138.104,49.526z"/>
					</g>
				</g>
			</g>
		</g>
		<g>
			<path fill="#58595B" d="M211.647,230.222H64.56c-2.209,0-4-1.791-4-4V210.94c0-2.209,1.791-4,4-4h147.088c2.209,0,4,1.791,4,4
				v15.282C215.647,228.431,213.856,230.222,211.647,230.222z"/>
		</g>
		<g>
			<path fill="#E6E7E8" d="M206.294,222.991H69.913c-1.105,0-2-0.895-2-2v-4.821c0-1.105,0.895-2,2-2h136.381c1.105,0,2,0.895,2,2
				v4.821C208.294,222.096,207.398,222.991,206.294,222.991z"/>
		</g>
	</g>
	<g>
		<path fill="#FFA91A" d="M170.449,214.171H69.913c-1.105,0-2,0.896-2,2v4.821c0,1.105,0.895,2,2,2h100.536V214.171z"/>
	</g>
</g>
</svg>
