<?xml version="1.0" encoding="utf-8"?>
<!-- Generator: Adobe Illustrator 24.0.0, SVG Export Plug-In . SVG Version: 6.00 Build 0)  -->
<svg version="1.1" id="Layer_1" xmlns="http://www.w3.org/2000/svg" xmlns:xlink="http://www.w3.org/1999/xlink" x="0px" y="0px"
	 viewBox="0 0 256 256" enable-background="new 0 0 256 256" xml:space="preserve">
<g>
	<g>
		<g>
			<g>
				<g>
					<path fill="#6D2E03" d="M173.43,161.14c-4.58,5.02-11.9,6.35-17.98,3.31c-8.26-4.13-17.58-6.45-27.45-6.45
						s-19.19,2.32-27.45,6.45c-6.09,3.04-13.41,1.7-18-3.33c-9.97-10.93-16.05-55.47-16.05-71.44c0-18.09,7.81-34.35,20.24-45.6
						C97.87,34,112.72,27.94,128.98,28.19c29.81,0.47,54.79,22.54,59.65,51.22c0.47,2.7,0.75,5.46,0.84,8.26
						C190,104.43,183.83,149.75,173.43,161.14z"/>
				</g>
				<g>
					<g>
						<g>
							<path fill="#58595B" d="M199.31,188.18v29.7c0,5.53-4.48,10-10,10H66.69c-5.52,0-10-4.47-10-10v-29.7c0-22.09,17.91-40,40-40
								h62.62C181.4,148.18,199.31,166.09,199.31,188.18z"/>
						</g>
						<g>
							<g>
								<g>
									<path fill="#FCC4AE" d="M116.472,126.744l0,28.443c0,2.2,0.634,4.355,1.826,6.207l0,0c4.537,7.048,14.869,7.048,19.406,0
										l0,0c1.192-1.852,1.826-4.006,1.826-6.207v-28.442H116.472z"/>
								</g>
								<g>
									<g>
										<path fill="#F2AD97" d="M116.471,135.638c3.623,1.208,7.497,1.872,11.528,1.872h0c4.032,0,7.906-0.664,11.529-1.873
											v-8.893h-23.057L116.471,135.638z"/>
									</g>
									<g>
										<g>
											<g>
												<circle fill="#FFD2C0" cx="91.844" cy="96.866" r="11.646"/>
											</g>
											<g>
												<circle fill="#F2AD97" cx="91.844" cy="96.866" r="6.692"/>
											</g>
										</g>
										<g>
											<g>
												<circle fill="#FFD2C0" cx="164.156" cy="96.866" r="11.646"/>
											</g>
											<g>
												<circle fill="#F2AD97" cx="164.156" cy="96.866" r="6.692"/>
											</g>
										</g>
									</g>
									<g>
										<path fill="#FFD2C0" d="M128,132.51L128,132.51c-20.004,0-36.219-16.216-36.219-36.219V77.489
											c0-20.003,16.216-36.219,36.219-36.219h0c20.003,0,36.219,16.216,36.219,36.219v18.801
											C164.219,116.294,148.003,132.51,128,132.51z"/>
									</g>
									<g>
										<path fill="#FCC4AE" d="M150.988,49.501c5.142,6.254,8.231,14.26,8.231,22.988v18.801
											c0,20.003-16.216,36.219-36.219,36.219h0c-8.728,0-16.735-3.089-22.988-8.231c6.643,8.078,16.713,13.231,27.988,13.231h0
											c20.003,0,36.219-16.216,36.219-36.219V77.489C164.219,66.214,159.066,56.144,150.988,49.501z"/>
									</g>
									<g>
										<g>
											<g>
												<rect x="91.78" y="83.195" fill="#EF7816" width="5.197" height="3"/>
											</g>
										</g>
										<g>
											<g>
												<path fill="#EF7816" d="M125.743,88.023l-2.121-2.121c1.175-1.175,2.736-1.822,4.396-1.822
													c1.66,0,3.222,0.647,4.396,1.822l-2.121,2.121C129.075,86.806,126.96,86.806,125.743,88.023z"/>
											</g>
										</g>
										<g>
											<g>
												<path fill="#F79219" d="M115.712,103.896h-9.466c-5.938,0-10.768-4.83-10.768-10.767v-8.435c0-3.033,2.468-5.5,5.5-5.5
													h20c3.032,0,5.5,2.467,5.5,5.5v8.435C126.479,99.066,121.648,103.896,115.712,103.896z M100.979,82.195
													c-1.379,0-2.5,1.122-2.5,2.5v8.435c0,4.283,3.484,7.767,7.768,7.767h9.466c4.282,0,7.767-3.484,7.767-7.767v-8.435
													c0-1.378-1.121-2.5-2.5-2.5H100.979z"/>
											</g>
										</g>
										<g>
											<g>
												<rect x="159.021" y="83.195" fill="#EF7816" width="5.197" height="3"/>
											</g>
										</g>
										<g>
											<g>
												<path fill="#F79219" d="M149.754,103.896h-9.466c-5.937,0-10.767-4.83-10.767-10.767v-8.435c0-3.033,2.468-5.5,5.5-5.5
													h20c3.032,0,5.5,2.467,5.5,5.5v8.435C160.521,99.066,155.691,103.896,149.754,103.896z M135.021,82.195
													c-1.379,0-2.5,1.122-2.5,2.5v8.435c0,4.283,3.484,7.767,7.767,7.767h9.466c4.283,0,7.768-3.484,7.768-7.767v-8.435
													c0-1.378-1.121-2.5-2.5-2.5H135.021z"/>
											</g>
										</g>
									</g>
									<g>
										<g>
											<circle fill="#995222" cx="110.979" cy="91.546" r="4.388"/>
										</g>
										<g>
											<circle fill="#995222" cx="145.021" cy="91.546" r="4.388"/>
										</g>
									</g>
								</g>
							</g>
							<g>
								<g>
									<g>
										<path fill="#8C3F0A" d="M189.028,82.061c-0.113-0.89-0.245-1.774-0.398-2.651c-4.86-28.68-29.84-50.75-59.65-51.22
											c-16.09-0.247-30.799,5.684-41.89,15.575C100.225,74.733,157.126,94.74,189.028,82.061z"/>
									</g>
								</g>
							</g>
							<g>
								<g>
									<g>
										<g>
											<path fill="#8C3F0A" d="M189.028,82.061c-0.113-0.89-0.245-1.774-0.398-2.651c-4.86-28.68-29.84-50.75-59.65-51.22
												c-16.09-0.247-30.799,5.684-41.89,15.575C100.225,74.733,157.126,94.74,189.028,82.061z"/>
										</g>
									</g>
								</g>
							</g>
							<g>
								<path fill="#7C3108" d="M118.98,38.19c28.291,0.446,52.231,20.347,58.752,46.89c4.005-0.633,7.801-1.63,11.296-3.019
									c-0.113-0.89-0.245-1.774-0.398-2.651c-4.86-28.68-29.84-50.75-59.65-51.22c-16.09-0.247-30.799,5.684-41.89,15.575
									c0.309,0.729,0.643,1.453,1,2.17C97.21,40.85,107.759,38.017,118.98,38.19z"/>
							</g>
							<g>
								<path fill="#6D2E03" d="M123.98,33.19c29.62,0.467,54.472,22.26,59.554,50.674c1.899-0.504,3.734-1.104,5.493-1.803
									c-0.113-0.89-0.245-1.774-0.398-2.651c-4.86-28.68-29.84-50.75-59.65-51.22c-16.09-0.247-30.799,5.684-41.89,15.575
									c0.107,0.251,0.216,0.502,0.329,0.752C97.708,37.206,110.348,32.98,123.98,33.19z"/>
							</g>
							<g>
								<path fill="#995222" d="M166.45,81.93L166.45,81.93c-14.74-0.01-31.381-4.18-45.641-11.45c-1.08-0.56-2.14-1.12-3.13-1.67
									c-0.97-0.54-1.31-1.76-0.78-2.72c0.521-0.93,1.79-1.3,2.721-0.78c0.96,0.53,1.97,1.07,3.01,1.6
									c13.7,7,29.66,11.02,43.79,11.02h0.03c1.1,0,2,0.89,2,2C168.45,81.03,167.55,81.93,166.45,81.93z M111.84,64.86
									c-0.4,0-0.79-0.12-1.13-0.35c-0.91-0.62-1.141-1.87-0.521-2.77c0.601-0.88,1.88-1.13,2.771-0.53h0.01
									c0.44,0.3,0.74,0.76,0.84,1.28c0.09,0.53-0.02,1.06-0.319,1.5C113.12,64.54,112.5,64.86,111.84,64.86z"/>
							</g>
							<g>
								<path fill="#E59076" d="M133.934,109.715c0.996,0,1.751,0.93,1.521,1.9c-0.857,3.603-4.096,6.283-7.961,6.283
									c-3.865,0-7.104-2.68-7.961-6.283c-0.23-0.969,0.524-1.9,1.521-1.9H133.934z"/>
							</g>
						</g>
						<g>
							<path fill="#414042" d="M166.474,148.823c7.893,7.307,12.834,17.756,12.834,29.359v29.7c0,5.523-4.477,10-10,10H56.692
								c0,5.523,4.477,10,10,10h122.616c5.523,0,10-4.477,10-10v-29.7C199.308,168.538,185.146,152.201,166.474,148.823z"/>
						</g>
					</g>
					<g>
						<g>
							<g>
								<polygon fill="#D1D3D4" points="153.85,148.18 139.529,141.72 139.529,147.931 128,165.897 116.471,147.931 116.472,141.72 
									102.16,148.18 128,218.317 128.001,218.317 								"/>
							</g>
							<g>
								<path fill="#F1F2F2" d="M102.16,148.18l10.793,29.276c0.439,1.191,1.964,1.525,2.862,0.628L128,165.897l-11.529-17.967
									l0-6.21L102.16,148.18z"/>
							</g>
							<g>
								<path fill="#F1F2F2" d="M153.85,148.18l-10.802,29.276c-0.439,1.191-1.964,1.525-2.862,0.628L128,165.897l11.529-17.967
									l0-6.21L153.85,148.18z"/>
							</g>
						</g>
						<g>
							<path fill="#414042" d="M128,218.32l-34.15-36.99c-0.66-0.72-0.61-1.84,0.13-2.48l6.13-5.41c1.14-1,0.54-2.88-0.96-3.04
								l-7.21-0.77c-1.12-0.12-1.83-1.26-1.45-2.32l6.94-19.13h4.73L128,218.32z"/>
						</g>
						<g>
							<path fill="#414042" d="M164.06,169.63l-7.21,0.77c-1.5,0.16-2.1,2.04-0.96,3.04l6.13,5.41c0.74,0.64,0.79,1.76,0.13,2.48
								L128,218.32l25.85-70.14h4.75l6.91,19.13C165.89,168.37,165.18,169.51,164.06,169.63z"/>
						</g>
					</g>
				</g>
			</g>
		</g>
	</g>
	<g>
		<g>
			<g>
				<g>
					<g>
						<path fill="#FFA91A" d="M214.457,237.11h-49.204c-2.007,0-3.633-1.627-3.633-3.633v-68.355c0-2.007,1.627-3.633,3.633-3.633
							h49.204c2.007,0,3.634,1.627,3.634,3.633v68.355C218.091,235.483,216.464,237.11,214.457,237.11z"/>
					</g>
				</g>
			</g>
			<g>
				<g>
					<g>
						<path fill="#F1F2F2" d="M212.06,232.044h-44.409c-0.669,0-1.211-0.542-1.211-1.211v-63.056c0-0.669,0.542-1.211,1.211-1.211
							h44.409c0.669,0,1.211,0.542,1.211,1.211v63.056C213.271,231.502,212.729,232.044,212.06,232.044z"/>
					</g>
				</g>
			</g>
		</g>
		<g>
			<path fill="#76A34F" d="M205.745,207.855h-8.815c-1.105,0-2-0.895-2-2v-8.815c0-1.105,0.895-2,2-2h8.815c1.105,0,2,0.895,2,2
				v8.815C207.745,206.959,206.85,207.855,205.745,207.855z"/>
		</g>
		<g>
			<path fill="#E63950" d="M205.745,224.809h-8.815c-1.105,0-2-0.895-2-2v-8.815c0-1.105,0.895-2,2-2h8.815c1.105,0,2,0.895,2,2
				v8.815C207.745,223.914,206.85,224.809,205.745,224.809z"/>
		</g>
		<g>
			<path fill="#EF7816" d="M199.679,171.643h-19.648c-2.209,0-4-1.791-4-4v-6.156h27.648v6.156
				C203.679,169.852,201.888,171.643,199.679,171.643z"/>
		</g>
		<g>
			<g>
				<g>
					<g>
						<path fill="#FFFFFF" d="M200.424,205.429c-0.391,0-0.782-0.149-1.08-0.447l-3.009-3.009c-0.597-0.597-0.597-1.564,0-2.161
							c0.597-0.596,1.564-0.596,2.161,0l1.928,1.929l3.827-3.827c0.597-0.596,1.564-0.596,2.161,0c0.597,0.597,0.597,1.564,0,2.161
							l-4.907,4.907C201.206,205.279,200.815,205.429,200.424,205.429z"/>
					</g>
				</g>
			</g>
		</g>
		<g>
			<path fill="#E63950" d="M205.745,190.9h-8.815c-1.105,0-2-0.895-2-2v-8.815c0-1.105,0.895-2,2-2h8.815c1.105,0,2,0.895,2,2v8.815
				C207.745,190.005,206.85,190.9,205.745,190.9z"/>
		</g>
		<g>
			<g>
				<path fill="#FFFFFF" d="M197.311,188.555L197.311,188.555c-0.54-0.54-0.54-1.415,0-1.955l6.171-6.17
					c0.54-0.54,1.415-0.54,1.954,0l0,0c0.54,0.54,0.54,1.415,0,1.955l-6.17,6.17C198.725,189.095,197.85,189.095,197.311,188.555z"
					/>
			</g>
			<g>
				<path fill="#FFFFFF" d="M205.436,188.555L205.436,188.555c0.54-0.54,0.54-1.415,0-1.955l-6.17-6.17
					c-0.54-0.54-1.415-0.54-1.954,0h0c-0.54,0.54-0.54,1.415,0,1.955l6.171,6.17C204.021,189.095,204.896,189.095,205.436,188.555z"
					/>
			</g>
		</g>
		<g>
			<g>
				<path fill="#FFFFFF" d="M197.311,222.464L197.311,222.464c-0.54-0.54-0.54-1.415,0-1.955l6.171-6.17
					c0.54-0.54,1.415-0.54,1.954,0l0,0c0.54,0.54,0.54,1.415,0,1.955l-6.17,6.17C198.725,223.004,197.85,223.004,197.311,222.464z"
					/>
			</g>
			<g>
				<path fill="#FFFFFF" d="M205.436,222.464L205.436,222.464c0.54-0.54,0.54-1.415,0-1.955l-6.17-6.17
					c-0.54-0.54-1.415-0.54-1.954,0h0c-0.54,0.54-0.54,1.415,0,1.955l6.171,6.17C204.021,223.004,204.896,223.004,205.436,222.464z"
					/>
			</g>
		</g>
		<g>
			<g>
				<path fill="#D1D3D4" d="M188.772,183.281h-9.229c-0.842,0-1.525-0.683-1.525-1.525l0,0c0-0.842,0.683-1.525,1.525-1.525h9.229
					c0.842,0,1.525,0.683,1.525,1.525l0,0C190.298,182.598,189.615,183.281,188.772,183.281z"/>
			</g>
			<g>
				<path fill="#D1D3D4" d="M188.772,188.755h-15.284c-0.842,0-1.525-0.683-1.525-1.525l0,0c0-0.842,0.683-1.525,1.525-1.525h15.284
					c0.842,0,1.525,0.683,1.525,1.525l0,0C190.298,188.072,189.615,188.755,188.772,188.755z"/>
			</g>
		</g>
		<g>
			<g>
				<path fill="#D1D3D4" d="M188.772,200.235h-9.229c-0.842,0-1.525-0.683-1.525-1.525l0,0c0-0.842,0.683-1.525,1.525-1.525h9.229
					c0.842,0,1.525,0.683,1.525,1.525l0,0C190.298,199.552,189.615,200.235,188.772,200.235z"/>
			</g>
			<g>
				<path fill="#D1D3D4" d="M188.772,205.71h-15.284c-0.842,0-1.525-0.683-1.525-1.525l0,0c0-0.842,0.683-1.525,1.525-1.525h15.284
					c0.842,0,1.525,0.683,1.525,1.525l0,0C190.298,205.027,189.615,205.71,188.772,205.71z"/>
			</g>
		</g>
		<g>
			<g>
				<path fill="#D1D3D4" d="M188.772,217.19h-9.229c-0.842,0-1.525-0.683-1.525-1.525l0,0c0-0.842,0.683-1.525,1.525-1.525h9.229
					c0.842,0,1.525,0.683,1.525,1.525l0,0C190.298,216.507,189.615,217.19,188.772,217.19z"/>
			</g>
			<g>
				<path fill="#D1D3D4" d="M188.772,222.664h-15.284c-0.842,0-1.525-0.683-1.525-1.525l0,0c0-0.842,0.683-1.525,1.525-1.525h15.284
					c0.842,0,1.525,0.683,1.525,1.525l0,0C190.298,221.981,189.615,222.664,188.772,222.664z"/>
			</g>
		</g>
	</g>
</g>
</svg>
