<?xml version="1.0" encoding="utf-8"?>
<!-- Generator: Adobe Illustrator 24.0.0, SVG Export Plug-In . SVG Version: 6.00 Build 0)  -->
<svg version="1.1" id="Layer_1" xmlns="http://www.w3.org/2000/svg" xmlns:xlink="http://www.w3.org/1999/xlink" x="0px" y="0px"
	 viewBox="0 0 256 256" enable-background="new 0 0 256 256" xml:space="preserve">
<g>
	<g>
		<g>
			<g>
				<g>
					<path fill="#6D2E03" d="M81.807,66.479c-1.272,3.068-5.105,5.314-5.765,8.649c-0.64,3.237,2.364,6.91,2.364,10.334
						c0,3.425-3.004,7.098-2.364,10.334c0.66,3.335,4.854,5.581,6.126,8.649c1.295,3.122-0.07,7.672,1.788,10.447
						c1.872,2.796,6.605,3.268,8.975,5.639c2.371,2.371,2.842,7.103,5.639,8.975c2.775,1.858,7.325,0.493,10.447,1.788
						c3.068,1.272,5.314,5.466,8.649,6.126c3.237,0.64,6.91-2.364,10.334-2.364c3.425,0,7.098,3.004,10.334,2.364
						c3.335-0.66,5.581-4.854,8.649-6.126c3.122-1.295,7.672,0.07,10.447-1.788c2.796-1.872,3.268-6.605,5.639-8.975
						c2.371-2.371,7.103-2.842,8.975-5.639c1.858-2.775,0.493-7.325,1.788-10.447c1.272-3.068,5.466-5.314,6.126-8.649
						c0.64-3.237-2.364-6.91-2.364-10.334c0-3.425,3.004-7.098,2.364-10.334c-0.66-3.335-4.395-5.581-5.667-8.649L81.807,66.479z"/>
				</g>
				<g>
					<g>
						<g>
							<path fill="#58595B" d="M199.31,188.18v29.7c0,5.53-4.48,10-10,10H66.69c-5.52,0-10-4.47-10-10v-29.7c0-22.09,17.91-40,40-40
								h62.62C181.4,148.18,199.31,166.09,199.31,188.18z"/>
						</g>
						<g>
							<path fill="#414042" d="M166.474,148.823c7.893,7.307,12.834,17.756,12.834,29.359v29.7c0,5.523-4.477,10-10,10H56.692
								c0,5.523,4.477,10,10,10h122.616c5.523,0,10-4.477,10-10v-29.7C199.308,168.538,185.146,152.201,166.474,148.823z"/>
						</g>
					</g>
					<g>
						<g>
							<path fill="#FCC4AE" d="M116.472,126.744l0,28.443c0,2.2,0.634,4.355,1.826,6.207l0,0c4.537,7.048,14.869,7.048,19.406,0l0,0
								c1.192-1.852,1.826-4.006,1.826-6.207v-28.442H116.472z"/>
						</g>
						<g>
							<g>
								<path fill="#F2AD97" d="M116.471,135.638c3.623,1.208,7.497,1.872,11.528,1.872h0c4.032,0,7.906-0.664,11.529-1.873v-8.893
									h-23.057L116.471,135.638z"/>
							</g>
							<g>
								<g>
									<g>
										<circle fill="#FFD2C0" cx="91.844" cy="96.866" r="11.646"/>
									</g>
									<g>
										<circle fill="#F2AD97" cx="91.844" cy="96.866" r="6.692"/>
									</g>
								</g>
								<g>
									<g>
										<circle fill="#FFD2C0" cx="164.156" cy="96.866" r="11.646"/>
									</g>
									<g>
										<circle fill="#F2AD97" cx="164.156" cy="96.866" r="6.692"/>
									</g>
								</g>
							</g>
							<g>
								<path fill="#FFD2C0" d="M164.22,77.49v18.8c0,14.1-8.06,26.32-19.83,32.31c-1.56,0.79-3.18,1.47-4.85,2.04
									c-1.36,0.45-2.76,0.83-4.18,1.12c-2.38,0.49-4.84,0.75-7.36,0.75s-4.98-0.26-7.36-0.75c-1.42-0.29-2.82-0.67-4.18-1.12
									c-1.67-0.57-3.29-1.25-4.85-2.04c-11.77-5.99-19.83-18.21-19.83-32.31v-18.8c0-20,16.22-36.22,36.22-36.22
									c10,0,19.06,4.05,25.61,10.61S164.22,67.49,164.22,77.49z"/>
							</g>
							<g>
								<path fill="#E59076" d="M133.934,109.715c0.996,0,1.751,0.93,1.521,1.9c-0.857,3.603-4.096,6.283-7.961,6.283
									c-3.865,0-7.104-2.68-7.961-6.283c-0.23-0.969,0.524-1.9,1.521-1.9H133.934z"/>
							</g>
							<g>
								<path fill="#F2AD97" d="M91.78,77.489v9.666c14.114-9.422,23.143-25.497,23.087-43.122c0-0.103-0.001-0.205-0.002-0.308
									C101.355,48.985,91.78,62.119,91.78,77.489z"/>
							</g>
							<g>
								<path fill="#FCC4AE" d="M150.988,49.501c5.142,6.254,8.231,14.26,8.231,22.988v18.801c0,20.003-16.216,36.219-36.219,36.219
									h0c-8.728,0-16.735-3.089-22.988-8.231c6.643,8.078,16.713,13.231,27.988,13.231h0c20.003,0,36.219-16.216,36.219-36.219
									V77.489C164.219,66.214,159.066,56.144,150.988,49.501z"/>
							</g>
							<g>
								<g>
									<g>
										<rect x="91.78" y="83.195" fill="#EF7816" width="5.197" height="3"/>
									</g>
								</g>
								<g>
									<g>
										<path fill="#EF7816" d="M125.743,88.023l-2.121-2.121c1.175-1.175,2.736-1.822,4.396-1.822
											c1.66,0,3.222,0.647,4.396,1.822l-2.121,2.121C129.075,86.806,126.96,86.806,125.743,88.023z"/>
									</g>
								</g>
								<g>
									<g>
										<path fill="#F79219" d="M115.712,103.896h-9.466c-5.938,0-10.768-4.83-10.768-10.767v-8.435c0-3.033,2.468-5.5,5.5-5.5h20
											c3.032,0,5.5,2.467,5.5,5.5v8.435C126.479,99.066,121.648,103.896,115.712,103.896z M100.979,82.195
											c-1.379,0-2.5,1.122-2.5,2.5v8.435c0,4.283,3.484,7.767,7.768,7.767h9.466c4.282,0,7.767-3.484,7.767-7.767v-8.435
											c0-1.378-1.121-2.5-2.5-2.5H100.979z"/>
									</g>
								</g>
								<g>
									<g>
										<rect x="159.021" y="83.195" fill="#EF7816" width="5.197" height="3"/>
									</g>
								</g>
								<g>
									<g>
										<path fill="#F79219" d="M149.754,103.896h-9.466c-5.937,0-10.767-4.83-10.767-10.767v-8.435c0-3.033,2.468-5.5,5.5-5.5h20
											c3.032,0,5.5,2.467,5.5,5.5v8.435C160.521,99.066,155.691,103.896,149.754,103.896z M135.021,82.195
											c-1.379,0-2.5,1.122-2.5,2.5v8.435c0,4.283,3.484,7.767,7.767,7.767h9.466c4.283,0,7.768-3.484,7.768-7.767v-8.435
											c0-1.378-1.121-2.5-2.5-2.5H135.021z"/>
									</g>
								</g>
							</g>
							<g>
								<path fill="#7C3108" d="M114.867,34.034c0.061,19.232-10.695,36.619-27.07,45.529c-3.464,1.885-7.717-0.828-7.37-4.757
									c1.177-13.345,7.108-25.559,16.431-34.162c5.037-4.665,11.062-8.262,17.86-10.424
									C114.814,31.48,114.867,32.748,114.867,34.034z"/>
							</g>
							<g>
								<path fill="#8C3F0A" d="M172.631,76.39c-30.362,15.674-68.533-2.216-75.774-35.746c5.009-4.639,10.994-8.222,17.746-10.387
									c28.227-9.163,56.357,12.318,60.643,41.029C175.555,73.361,174.495,75.428,172.631,76.39z"/>
							</g>
							<g>
								<path fill="#7C3108" d="M175.245,71.286c-4.286-28.71-32.416-50.192-60.643-41.029c-6.752,2.165-12.737,5.748-17.746,10.387
									c0.186,0.863,0.394,1.716,0.62,2.558c2.265-1.161,4.643-2.149,7.125-2.945c27.671-8.983,55.249,11.484,60.362,39.341
									c2.594-0.847,5.157-1.913,7.666-3.208C174.495,75.428,175.555,73.361,175.245,71.286z"/>
							</g>
							<g>
								<path fill="#6D2E03" d="M175.245,71.286c-4.286-28.71-32.416-50.192-60.643-41.029c-6.752,2.165-12.737,5.748-17.746,10.387
									c0.06,0.276,0.121,0.551,0.185,0.825c3.795-2.642,8.003-4.75,12.561-6.212c28.227-9.163,56.357,12.318,60.643,41.029
									c0.063,0.42,0.068,0.839,0.024,1.249c0.792-0.36,1.58-0.741,2.362-1.145C174.495,75.428,175.555,73.361,175.245,71.286z"/>
							</g>
							<g>
								<g>
									<circle fill="#995222" cx="110.979" cy="91.546" r="4.388"/>
								</g>
								<g>
									<circle fill="#995222" cx="145.021" cy="91.546" r="4.388"/>
								</g>
							</g>
						</g>
						<g>
							<path fill="#995222" d="M148.979,78.13L148.979,78.13c-7.46,0-14.67-1.63-21.41-4.85c-6.489-3.09-12.319-7.64-16.88-13.14
								c-0.34-0.41-0.5-0.93-0.449-1.46c0.05-0.53,0.3-1.01,0.71-1.35c0.819-0.68,2.14-0.55,2.819,0.26
								c8.71,10.51,21.54,16.54,35.2,16.54c2.6,0,5.18-0.22,7.68-0.67c1.091-0.19,2.131,0.55,2.32,1.62
								c0.19,1.09-0.53,2.13-1.62,2.32C154.62,77.89,151.81,78.13,148.979,78.13z M107.689,54.3h-0.01c-0.71,0-1.38-0.38-1.729-1
								c-0.271-0.47-0.341-1.01-0.2-1.52c0.14-0.52,0.47-0.95,0.939-1.21c0.931-0.53,2.2-0.18,2.73,0.74c0,0.01,0,0.01,0,0.01
								c0.26,0.47,0.33,1,0.189,1.51c-0.14,0.52-0.47,0.95-0.939,1.21C108.37,54.21,108.03,54.3,107.689,54.3z"/>
						</g>
					</g>
					<g>
						<g>
							<g>
								<polygon fill="#D1D3D4" points="153.85,148.18 139.529,141.72 139.529,147.931 128,165.897 116.471,147.931 116.472,141.72 
									102.16,148.18 128,218.317 128.001,218.317 								"/>
							</g>
							<g>
								<path fill="#F1F2F2" d="M102.16,148.18l10.793,29.276c0.439,1.191,1.964,1.525,2.862,0.628L128,165.897l-11.529-17.967
									l0-6.21L102.16,148.18z"/>
							</g>
							<g>
								<path fill="#F1F2F2" d="M153.85,148.18l-10.802,29.276c-0.439,1.191-1.964,1.525-2.862,0.628L128,165.897l11.529-17.967
									l0-6.21L153.85,148.18z"/>
							</g>
						</g>
						<g>
							<path fill="#414042" d="M128,218.32l-34.15-36.99c-0.66-0.72-0.61-1.84,0.13-2.48l6.13-5.41c1.14-1,0.54-2.88-0.96-3.04
								l-7.21-0.77c-1.12-0.12-1.83-1.26-1.45-2.32l6.94-19.13h4.73L128,218.32z"/>
						</g>
						<g>
							<path fill="#414042" d="M164.06,169.63l-7.21,0.77c-1.5,0.16-2.1,2.04-0.96,3.04l6.13,5.41c0.74,0.64,0.79,1.76,0.13,2.48
								L128,218.32l25.85-70.14h4.75l6.91,19.13C165.89,168.37,165.18,169.51,164.06,169.63z"/>
						</g>
					</g>
				</g>
			</g>
		</g>
	</g>
	<g>
		<g>
			<g>
				<g>
					<g>
						<path fill="#FFA91A" d="M214.457,237.11h-49.204c-2.007,0-3.633-1.627-3.633-3.633v-68.355c0-2.007,1.627-3.633,3.633-3.633
							h49.204c2.007,0,3.634,1.627,3.634,3.633v68.355C218.091,235.483,216.464,237.11,214.457,237.11z"/>
					</g>
				</g>
			</g>
			<g>
				<g>
					<g>
						<path fill="#F1F2F2" d="M212.06,232.044h-44.409c-0.669,0-1.211-0.542-1.211-1.211v-63.056c0-0.669,0.542-1.211,1.211-1.211
							h44.409c0.669,0,1.211,0.542,1.211,1.211v63.056C213.271,231.502,212.729,232.044,212.06,232.044z"/>
					</g>
				</g>
			</g>
		</g>
		<g>
			<path fill="#76A34F" d="M205.745,207.855h-8.815c-1.105,0-2-0.895-2-2v-8.815c0-1.105,0.895-2,2-2h8.815c1.105,0,2,0.895,2,2
				v8.815C207.745,206.959,206.85,207.855,205.745,207.855z"/>
		</g>
		<g>
			<path fill="#E63950" d="M205.745,224.809h-8.815c-1.105,0-2-0.895-2-2v-8.815c0-1.105,0.895-2,2-2h8.815c1.105,0,2,0.895,2,2
				v8.815C207.745,223.914,206.85,224.809,205.745,224.809z"/>
		</g>
		<g>
			<path fill="#EF7816" d="M199.679,171.643h-19.648c-2.209,0-4-1.791-4-4v-6.156h27.648v6.156
				C203.679,169.852,201.888,171.643,199.679,171.643z"/>
		</g>
		<g>
			<g>
				<g>
					<g>
						<path fill="#FFFFFF" d="M200.424,205.429c-0.391,0-0.782-0.149-1.08-0.447l-3.009-3.009c-0.597-0.597-0.597-1.564,0-2.161
							c0.597-0.596,1.564-0.596,2.161,0l1.928,1.929l3.827-3.827c0.597-0.596,1.564-0.596,2.161,0c0.597,0.597,0.597,1.564,0,2.161
							l-4.907,4.907C201.206,205.279,200.815,205.429,200.424,205.429z"/>
					</g>
				</g>
			</g>
		</g>
		<g>
			<path fill="#E63950" d="M205.745,190.9h-8.815c-1.105,0-2-0.895-2-2v-8.815c0-1.105,0.895-2,2-2h8.815c1.105,0,2,0.895,2,2v8.815
				C207.745,190.005,206.85,190.9,205.745,190.9z"/>
		</g>
		<g>
			<g>
				<path fill="#FFFFFF" d="M197.311,188.555L197.311,188.555c-0.54-0.54-0.54-1.415,0-1.955l6.171-6.17
					c0.54-0.54,1.415-0.54,1.954,0l0,0c0.54,0.54,0.54,1.415,0,1.955l-6.17,6.17C198.725,189.095,197.85,189.095,197.311,188.555z"
					/>
			</g>
			<g>
				<path fill="#FFFFFF" d="M205.436,188.555L205.436,188.555c0.54-0.54,0.54-1.415,0-1.955l-6.17-6.17
					c-0.54-0.54-1.415-0.54-1.954,0h0c-0.54,0.54-0.54,1.415,0,1.955l6.171,6.17C204.021,189.095,204.896,189.095,205.436,188.555z"
					/>
			</g>
		</g>
		<g>
			<g>
				<path fill="#FFFFFF" d="M197.311,222.464L197.311,222.464c-0.54-0.54-0.54-1.415,0-1.955l6.171-6.17
					c0.54-0.54,1.415-0.54,1.954,0l0,0c0.54,0.54,0.54,1.415,0,1.955l-6.17,6.17C198.725,223.004,197.85,223.004,197.311,222.464z"
					/>
			</g>
			<g>
				<path fill="#FFFFFF" d="M205.436,222.464L205.436,222.464c0.54-0.54,0.54-1.415,0-1.955l-6.17-6.17
					c-0.54-0.54-1.415-0.54-1.954,0h0c-0.54,0.54-0.54,1.415,0,1.955l6.171,6.17C204.021,223.004,204.896,223.004,205.436,222.464z"
					/>
			</g>
		</g>
		<g>
			<g>
				<path fill="#D1D3D4" d="M188.772,183.281h-9.229c-0.842,0-1.525-0.683-1.525-1.525l0,0c0-0.842,0.683-1.525,1.525-1.525h9.229
					c0.842,0,1.525,0.683,1.525,1.525l0,0C190.298,182.598,189.615,183.281,188.772,183.281z"/>
			</g>
			<g>
				<path fill="#D1D3D4" d="M188.772,188.755h-15.284c-0.842,0-1.525-0.683-1.525-1.525l0,0c0-0.842,0.683-1.525,1.525-1.525h15.284
					c0.842,0,1.525,0.683,1.525,1.525l0,0C190.298,188.072,189.615,188.755,188.772,188.755z"/>
			</g>
		</g>
		<g>
			<g>
				<path fill="#D1D3D4" d="M188.772,200.235h-9.229c-0.842,0-1.525-0.683-1.525-1.525l0,0c0-0.842,0.683-1.525,1.525-1.525h9.229
					c0.842,0,1.525,0.683,1.525,1.525l0,0C190.298,199.552,189.615,200.235,188.772,200.235z"/>
			</g>
			<g>
				<path fill="#D1D3D4" d="M188.772,205.71h-15.284c-0.842,0-1.525-0.683-1.525-1.525l0,0c0-0.842,0.683-1.525,1.525-1.525h15.284
					c0.842,0,1.525,0.683,1.525,1.525l0,0C190.298,205.027,189.615,205.71,188.772,205.71z"/>
			</g>
		</g>
		<g>
			<g>
				<path fill="#D1D3D4" d="M188.772,217.19h-9.229c-0.842,0-1.525-0.683-1.525-1.525l0,0c0-0.842,0.683-1.525,1.525-1.525h9.229
					c0.842,0,1.525,0.683,1.525,1.525l0,0C190.298,216.507,189.615,217.19,188.772,217.19z"/>
			</g>
			<g>
				<path fill="#D1D3D4" d="M188.772,222.664h-15.284c-0.842,0-1.525-0.683-1.525-1.525l0,0c0-0.842,0.683-1.525,1.525-1.525h15.284
					c0.842,0,1.525,0.683,1.525,1.525l0,0C190.298,221.981,189.615,222.664,188.772,222.664z"/>
			</g>
		</g>
	</g>
</g>
</svg>
