<?xml version="1.0" encoding="utf-8"?>
<!-- Generator: Adobe Illustrator 24.0.0, SVG Export Plug-In . SVG Version: 6.00 Build 0)  -->
<svg version="1.1" id="Layer_1" xmlns="http://www.w3.org/2000/svg" xmlns:xlink="http://www.w3.org/1999/xlink" x="0px" y="0px"
	 viewBox="0 0 256 256" enable-background="new 0 0 256 256" xml:space="preserve">
<g>
	<g>
		<g>
			<g>
				<g>
					<path fill="#478CF7" d="M214.585,242.144H61.415c-2.442,0-4.421-1.979-4.421-4.421V38.276c0-2.442,1.979-4.421,4.421-4.421
						h153.17c2.441,0,4.421,1.979,4.421,4.421v199.447C219.006,240.165,217.026,242.144,214.585,242.144z"/>
				</g>
			</g>
		</g>
		<g>
			<g>
				<g>
					<path fill="#FFA91A" d="M204.585,232.144H51.415c-2.442,0-4.421-1.979-4.421-4.421V28.276c0-2.441,1.979-4.421,4.421-4.421
						h153.17c2.441,0,4.421,1.979,4.421,4.421v199.447C209.006,230.165,207.026,232.144,204.585,232.144z"/>
				</g>
			</g>
		</g>
		<g>
			<g>
				<g>
					<g>
						<g>
							<path fill="#F1F2F2" d="M194.585,222.144H41.415c-2.442,0-4.421-1.979-4.421-4.421V18.276c0-2.441,1.979-4.421,4.421-4.421
								h153.17c2.441,0,4.421,1.979,4.421,4.421v199.447C199.006,220.165,197.026,222.144,194.585,222.144z"/>
						</g>
					</g>
				</g>
			</g>
		</g>
		<g>
			<path fill="#FFFFFF" d="M43,206.12c-1.11,0-2.01-0.9-2.01-2c0-1.11,0.9-2.01,2.01-2.01c1.1,0,1.99,0.9,1.99,2.01
				C44.99,205.22,44.1,206.12,43,206.12z M43,198.11c-1.11,0-2.01-0.89-2.01-2V19.86c0-0.53,0.22-1.05,0.59-1.42
				c0.37-0.37,0.89-0.58,1.42-0.58h123.65c0.03,0,0.05,0,0.08,0h8.01c1.1,0,1.99,0.89,1.99,2c0,1.1-0.89,1.99-1.99,1.99H44.99
				v174.26C44.99,197.22,44.1,198.11,43,198.11z"/>
		</g>
		<g>
			<path fill="#E6E7E8" d="M194.585,13.856h-5.579v193.868c0,2.441-1.979,4.421-4.421,4.421H36.994v5.579
				c0,2.441,1.979,4.421,4.421,4.421h153.17c2.441,0,4.421-1.979,4.421-4.421V18.276C199.006,15.835,197.026,13.856,194.585,13.856z
				"/>
		</g>
		<g>
			<path fill="#D1D3D4" d="M194.585,13.856h-0.579v198.868c0,2.441-1.979,4.421-4.421,4.421H36.994v0.579
				c0,2.441,1.979,4.421,4.421,4.421h153.17c2.441,0,4.421-1.979,4.421-4.421V18.276C199.006,15.835,197.026,13.856,194.585,13.856z
				"/>
		</g>
	</g>
	<g>
		<g>
			<path fill="#478CF7" d="M171.777,65.372c-19.265-1.179-31.169-3.215-51.313-11.494c-1.312-0.539-2.792-0.539-4.105,0
				c-20.144,8.278-32.048,10.315-51.313,11.494c-1.368,0.084-2.469,1.178-2.545,2.546c-3.781,67.673,18.024,98.206,52.883,121.558
				c1.831,1.226,4.224,1.226,6.055,0c34.859-23.352,56.664-53.885,52.883-121.558C174.246,66.549,173.145,65.456,171.777,65.372z"/>
		</g>
		<g>
			<g>
				<path fill="#F1F2F2" d="M112.772,142.435c-2.323,0-4.645-0.886-6.418-2.658l-17.874-17.874c-3.544-3.545-3.544-9.291,0-12.836
					c3.545-3.543,9.291-3.543,12.836,0l11.456,11.457l22.734-22.735c3.545-3.543,9.291-3.543,12.836,0
					c3.544,3.545,3.544,9.291,0,12.836l-29.152,29.152C117.418,141.548,115.096,142.435,112.772,142.435z"/>
			</g>
		</g>
		<g>
			<g>
				<circle fill="#58595B" cx="118.412" cy="65.102" r="19.498"/>
			</g>
			<g>
				<g>
					<g>
						<g>
							<g>
								<g>
									<g>
										<path fill="#F1F2F2" d="M118.412,54.832c-5.672,0-10.271,4.598-10.271,10.271c0,5.672,4.598,10.271,10.271,10.271
											c5.672,0,10.271-4.598,10.271-10.271C128.682,59.43,124.084,54.832,118.412,54.832z M118.412,70.611
											c-3.042,0-5.509-2.466-5.509-5.509c0-3.042,2.466-5.509,5.509-5.509c3.042,0,5.509,2.466,5.509,5.509
											C123.921,68.145,121.454,70.611,118.412,70.611z"/>
									</g>
									<g>
										<g>
											<path fill="#FFFFFF" d="M128.416,62.767l2.497-2.203c0.376-0.332,0.466-0.882,0.215-1.317l-1.328-2.3
												c-0.251-0.434-0.773-0.631-1.248-0.472l-3.185,1.071C126.858,58.918,127.941,60.726,128.416,62.767z"/>
										</g>
										<g>
											<path fill="#FFFFFF" d="M105.911,60.564l2.497,2.203c0.475-2.041,1.558-3.849,3.048-5.221l-3.184-1.071
												c-0.475-0.16-0.997,0.038-1.248,0.472l-1.328,2.3C105.444,59.682,105.535,60.232,105.911,60.564z"/>
										</g>
										<g>
											<path fill="#FFFFFF" d="M118.412,54.832c1.046,0,2.056,0.157,3.007,0.447l-0.647-3.202
												c-0.099-0.491-0.531-0.845-1.033-0.845h-2.656c-0.501,0-0.933,0.353-1.033,0.845l-0.647,3.202
												C116.355,54.988,117.365,54.832,118.412,54.832z"/>
										</g>
										<g>
											<path fill="#FFFFFF" d="M130.832,69.5l-2.403-2.12c-0.458,2.024-1.514,3.82-2.972,5.195l3.014,1.013
												c0.475,0.16,0.997-0.038,1.248-0.472l1.328-2.3C131.298,70.383,131.207,69.832,130.832,69.5z"/>
										</g>
										<g>
											<path fill="#FFFFFF" d="M118.412,75.373c-1.046,0-2.056-0.157-3.007-0.447l0.647,3.202
												c0.099,0.491,0.531,0.845,1.033,0.845h2.656c0.501,0,0.933-0.353,1.033-0.845l0.647-3.202
												C120.468,75.217,119.458,75.373,118.412,75.373z"/>
										</g>
										<g>
											<path fill="#FFFFFF" d="M108.394,67.381l-2.403,2.12c-0.376,0.332-0.466,0.882-0.215,1.317l1.328,2.3
												c0.251,0.434,0.773,0.632,1.248,0.472l3.014-1.013C109.908,71.201,108.853,69.404,108.394,67.381z"/>
										</g>
									</g>
								</g>
							</g>
						</g>
					</g>
				</g>
			</g>
		</g>
		<g>
			<g>
				<path fill="#FFA91A" d="M96.641,157.785c-2.534,5.513-6.984,9.963-12.497,12.497c-1.984,0.912-1.984,3.707,0,4.619
					c5.513,2.534,9.963,6.984,12.497,12.497c0.912,1.984,3.707,1.984,4.619,0c2.534-5.513,6.984-9.963,12.497-12.497
					c1.984-0.912,1.984-3.707,0-4.619c-5.513-2.534-9.963-6.984-12.497-12.497C100.347,155.8,97.553,155.8,96.641,157.785z"/>
			</g>
		</g>
		<g>
			<g>
				<g>
					<path fill="#FFA91A" d="M148.494,128.789c-1.627,3.54-4.485,6.397-8.025,8.025c-1.274,0.586-1.274,2.38,0,2.966
						c3.54,1.627,6.397,4.485,8.025,8.025c0.586,1.274,2.38,1.274,2.966,0c1.627-3.54,4.485-6.397,8.025-8.025
						c1.274-0.586,1.274-2.38,0-2.966c-3.54-1.627-6.397-4.485-8.025-8.025C150.874,127.514,149.08,127.514,148.494,128.789z"/>
				</g>
			</g>
			<g>
				<g>
					<path fill="#FFA91A" d="M81.173,80.77c-1.627,3.54-4.485,6.397-8.025,8.025c-1.274,0.586-1.274,2.38,0,2.966
						c3.54,1.627,6.397,4.485,8.025,8.025c0.586,1.274,2.38,1.274,2.966,0c1.627-3.54,4.485-6.397,8.025-8.025
						c1.274-0.586,1.274-2.38,0-2.966c-3.54-1.627-6.397-4.485-8.025-8.025C83.553,79.496,81.758,79.496,81.173,80.77z"/>
				</g>
			</g>
		</g>
	</g>
</g>
</svg>
