<?xml version="1.0" encoding="utf-8"?>
<!-- Generator: Adobe Illustrator 24.0.0, SVG Export Plug-In . SVG Version: 6.00 Build 0)  -->
<svg version="1.1" id="Layer_1" xmlns="http://www.w3.org/2000/svg" xmlns:xlink="http://www.w3.org/1999/xlink" x="0px" y="0px"
	 viewBox="0 0 256 256" enable-background="new 0 0 256 256" xml:space="preserve">
<g>
	<g>
		<path fill="#F1F2F2" d="M203.82,213.419H52.18c-5.301,0-9.598-4.297-9.598-9.598V52.18c0-5.301,4.297-9.598,9.598-9.598H203.82
			c5.301,0,9.598,4.297,9.598,9.598V203.82C213.419,209.121,209.121,213.419,203.82,213.419z"/>
	</g>
	<g>
		<path fill="#FFFFFF" d="M48.58,198.92c-1.101,0-2-0.89-2-2c0-1.101,0.899-2,2-2c1.1,0,2,0.899,2,2
			C50.58,198.03,49.68,198.92,48.58,198.92z M48.58,190.92c-1.101,0-2-0.89-2-2V52.18c0-3.09,2.52-5.6,5.6-5.6H167.78
			c1.1,0,2,0.899,2,2c0,1.1-0.9,2-2,2H52.18c-0.88,0-1.6,0.72-1.6,1.6v136.74C50.58,190.03,49.68,190.92,48.58,190.92z"/>
	</g>
	<g>
		<path fill="#E6E7E8" d="M203.821,42.581h-0.402V193.82c0,5.301-4.297,9.598-9.598,9.598H42.581v0.402
			c0,5.301,4.297,9.598,9.598,9.598h151.641c5.301,0,9.598-4.297,9.598-9.598V52.179C213.419,46.879,209.121,42.581,203.821,42.581z
			"/>
	</g>
	<g>
		<path fill="#D1D3D4" d="M207.629,43.371c0.506,1.168,0.789,2.455,0.789,3.809V198.82c0,5.301-4.297,9.598-9.598,9.598H47.18
			c-1.354,0-2.641-0.283-3.809-0.789c1.475,3.405,4.862,5.789,8.809,5.789h151.641c5.301,0,9.598-4.297,9.598-9.598V52.179
			C213.419,48.232,211.034,44.845,207.629,43.371z"/>
	</g>
	<g>
		<g>
			<path fill="#478CF7" d="M184.312,108.737c-20.328-1.244-32.89-3.393-54.146-12.128c-1.385-0.569-2.947-0.569-4.331,0
				c-21.256,8.735-33.817,10.884-54.146,12.128c-1.444,0.088-2.605,1.243-2.686,2.687c-3.99,71.409,19.019,103.628,55.803,128.269
				c1.932,1.294,4.458,1.294,6.39,0c36.784-24.641,59.793-56.86,55.803-128.269C186.917,109.98,185.755,108.825,184.312,108.737z"/>
		</g>
		<g>
			<path fill="#377DE2" d="M186.997,111.424c-0.081-1.444-1.242-2.598-2.686-2.687c-0.752-0.046-1.473-0.096-2.205-0.145
				c3.405,69.891-19.504,101.711-55.912,126.101c-1.932,1.294-4.458,1.294-6.39,0c-7.384-4.946-14.211-10.199-20.378-16.012
				c7.403,7.859,15.935,14.687,25.378,21.012c1.932,1.294,4.458,1.294,6.39,0C167.978,215.052,190.987,182.833,186.997,111.424z"/>
		</g>
		<g>
			<g>
				<path fill="#F1F2F2" d="M122.049,190.055c-2.452,0-4.902-0.935-6.772-2.805l-18.86-18.86c-3.74-3.741-3.74-9.804,0-13.545
					c3.741-3.739,9.804-3.739,13.545,0l12.088,12.089l23.989-23.99c3.741-3.739,9.804-3.739,13.545,0
					c3.74,3.741,3.74,9.804,0,13.545l-30.761,30.761C126.951,189.119,124.501,190.055,122.049,190.055z"/>
			</g>
		</g>
		<g>
			<g>
				<path fill="#FFA91A" d="M105.027,206.252c-2.674,5.817-7.369,10.513-13.187,13.187c-2.094,0.962-2.094,3.911,0,4.874
					c5.817,2.674,10.513,7.369,13.187,13.187c0.962,2.094,3.911,2.094,4.874,0c2.674-5.817,7.369-10.513,13.187-13.187
					c2.094-0.962,2.094-3.911,0-4.874c-5.817-2.674-10.513-7.37-13.187-13.187C108.938,204.158,105.989,204.158,105.027,206.252z"/>
			</g>
		</g>
		<g>
			<g>
				<g>
					<path fill="#FFA91A" d="M159.743,175.655c-1.717,3.735-4.732,6.751-8.468,8.468c-1.345,0.618-1.345,2.512,0,3.13
						c3.735,1.717,6.751,4.732,8.468,8.468c0.618,1.345,2.512,1.345,3.13,0c1.717-3.735,4.732-6.751,8.468-8.468
						c1.345-0.618,1.345-2.512,0-3.13c-3.735-1.717-6.751-4.732-8.468-8.468C162.255,174.311,160.361,174.311,159.743,175.655z"/>
				</g>
			</g>
			<g>
				<g>
					<path fill="#FFA91A" d="M88.705,124.986c-1.717,3.735-4.732,6.751-8.468,8.468c-1.345,0.618-1.345,2.512,0,3.13
						c3.735,1.717,6.751,4.732,8.468,8.468c0.618,1.345,2.512,1.345,3.13,0c1.717-3.735,4.732-6.751,8.468-8.468
						c1.345-0.618,1.345-2.512,0-3.13c-3.735-1.717-6.751-4.732-8.468-8.468C91.217,123.641,89.323,123.641,88.705,124.986z"/>
				</g>
			</g>
		</g>
	</g>
	<g>
		<g>
			<g>
				<g>
					<g>
						<g>
							<g>
								<path fill="#FFA91A" d="M140.2,121.806c10.065-2.252,19.625-7.333,27.408-15.245c21.234-21.582,21.096-56.743-0.298-78.167
									c-22.133-22.163-58.329-21.711-79.888,1.357c-19.761,21.144-19.831,54.36-0.157,75.584
									c8.041,8.674,18.142,14.176,28.799,16.515c0.967,0.212,1.79,0.842,2.214,1.736l6.998,14.761c1.14,2.404,4.561,2.404,5.701,0
									l7.021-14.81C138.421,122.649,139.238,122.021,140.2,121.806z"/>
							</g>
						</g>
					</g>
				</g>
			</g>
		</g>
		<g>
			<g>
				<path fill="#F79219" d="M167.31,28.395c-0.853-0.854-1.733-1.662-2.625-2.448c18.987,21.577,18.336,54.867-2.077,75.615
					c-7.783,7.911-17.343,12.993-27.408,15.245c-0.962,0.215-1.779,0.843-2.201,1.734l-7.021,14.81
					c-0.47,0.99-1.329,1.549-2.254,1.724l1.553,3.276c1.14,2.404,4.561,2.404,5.701,0l7.021-14.81
					c0.422-0.891,1.24-1.518,2.201-1.734c10.065-2.252,19.625-7.333,27.408-15.245C188.842,84.979,188.704,49.818,167.31,28.395z"/>
			</g>
		</g>
		<g>
			<g>
				<g>
					<g>
						<g>
							<g>
								<g>
									<g>
										<path fill="#414042" d="M149.647,87.15l-19.971,8.683c-1.069,0.465-2.284,0.465-3.353,0l-19.971-8.683
											c-1.535-0.668-2.528-2.182-2.528-3.856V65.642h48.351v17.652C152.175,84.969,151.182,86.483,149.647,87.15z"/>
									</g>
								</g>
							</g>
						</g>
					</g>
					<g>
						<g>
							<g>
								<g>
									<g>
										<path fill="#58595B" d="M126.284,76.399L94.543,62.211c-3.318-1.483-3.318-6.194,0-7.677l31.742-14.189
											c1.092-0.488,2.34-0.488,3.432,0l31.742,14.189c3.318,1.483,3.318,6.194,0,7.677l-31.742,14.189
											C128.624,76.887,127.376,76.887,126.284,76.399z"/>
									</g>
								</g>
							</g>
						</g>
					</g>
					<g>
						<g>
							<g>
								<g>
									<g>
										<path fill="#FFFFFF" d="M96.917,82.811c-0.58,0-1.051-0.47-1.051-1.051V63.272c0-0.48,0.325-0.899,0.79-1.018
											l31.083-7.966c0.562-0.146,1.135,0.194,1.279,0.757c0.145,0.563-0.195,1.135-0.757,1.279l-30.293,7.764V81.76
											C97.968,82.34,97.497,82.811,96.917,82.811z"/>
									</g>
								</g>
							</g>
						</g>
					</g>
					<g>
						<g>
							<g>
								<g>
									<g>
										<path fill="#58595B" d="M98.849,84.475h-3.865c-0.752,0-1.362-0.61-1.362-1.362v-4.803c0-1.82,1.475-3.295,3.295-3.295
											l0,0c1.82,0,3.295,1.475,3.295,3.295v4.803C100.211,83.865,99.601,84.475,98.849,84.475z"/>
									</g>
								</g>
							</g>
						</g>
					</g>
				</g>
			</g>
		</g>
	</g>
</g>
</svg>
