<?xml version="1.0" encoding="utf-8"?>
<!-- Generator: Adobe Illustrator 24.0.0, SVG Export Plug-In . SVG Version: 6.00 Build 0)  -->
<svg version="1.1" id="Layer_1" xmlns="http://www.w3.org/2000/svg" xmlns:xlink="http://www.w3.org/1999/xlink" x="0px" y="0px"
	 viewBox="0 0 256 256" enable-background="new 0 0 256 256" xml:space="preserve">
<g>
	<g>
		<g>
			<g>
				<g>
					<g>
						<g>
							<g>
								<g>
									<g>
										<g>
											<path fill="#58595B" d="M196.253,196.652l15.526-15.527c0.301-0.301,0.628-0.559,0.968-0.79l-11.404-11.403
												c-4.974,6.496-10.788,12.31-17.284,17.284l11.404,11.403C195.694,197.28,195.952,196.953,196.253,196.652z"/>
										</g>
									</g>
								</g>
								<g>
									<g>
										<g>
											<path fill="#FFA91A" d="M223.044,232.817l-26.791-26.791c-2.589-2.589-2.589-6.786,0-9.374l15.526-15.527
												c2.589-2.589,6.786-2.589,9.374,0l26.791,26.791c2.589,2.589,2.589,6.786,0,9.374l-15.527,15.526
												C229.829,235.406,225.632,235.406,223.044,232.817z"/>
										</g>
									</g>
								</g>
								<g>
									<g>
										<g>
											<path fill="#F79219" d="M243.245,221.99c-2.589,2.589-6.786,2.589-9.374,0l-26.791-26.791
												c-2.589-2.589-2.589-6.786,0-9.374l4.708-4.708c-0.003,0.003-0.006,0.006-0.009,0.008l-15.526,15.527
												c-2.589,2.589-2.589,6.786,0,9.375l26.791,26.791c2.589,2.589,6.786,2.589,9.374,0l15.527-15.526
												c0.002-0.002,0.004-0.004,0.006-0.006L243.245,221.99z"/>
										</g>
									</g>
								</g>
								<g>
									<g>
										<g>
											<path fill="#414042" d="M193.205,178.211c-2.868,2.862-5.923,5.537-9.146,8.005l11.404,11.403
												c0.231-0.34,0.489-0.667,0.79-0.968l7.697-7.697L193.205,178.211z"/>
										</g>
									</g>
								</g>
							</g>
							<g>
								<g>
									<g>
										<g>
											<path fill="#FFA91A" d="M127.958,20.443c-51.024,0-92.388,41.363-92.388,92.388s41.364,92.388,92.388,92.388
												c51.024,0,92.388-41.363,92.388-92.388S178.982,20.443,127.958,20.443z M127.958,182.526
												c-38.492,0-69.695-31.204-69.695-69.695c0-38.492,31.204-69.696,69.695-69.696c38.492,0,69.695,31.204,69.695,69.696
												C197.653,151.322,166.449,182.526,127.958,182.526z"/>
										</g>
									</g>
								</g>
								<g>
									<g>
										<g>
											<path fill="#F79219" d="M127.958,30.702c-45.358,0-82.128,36.77-82.128,82.128s36.77,82.128,82.128,82.128
												s82.128-36.77,82.128-82.128S173.316,30.702,127.958,30.702z M127.958,182.526c-38.492,0-69.695-31.204-69.695-69.695
												c0-38.492,31.204-69.696,69.695-69.696c38.492,0,69.695,31.204,69.695,69.696
												C197.653,151.322,166.449,182.526,127.958,182.526z"/>
										</g>
									</g>
								</g>
							</g>
						</g>
					</g>
					<g>
						<g>
							<g>
								<circle fill="#F1F2F2" cx="127.944" cy="112.83" r="69.695"/>
							</g>
						</g>
					</g>
					<g>
						<path fill="#FFA91A" d="M142.063,59.051L142.063,59.051c3.73,3.73,8.788,5.825,14.063,5.825h0
							c10.984,0,19.888,8.904,19.888,19.888v0c0,5.275,2.095,10.333,5.825,14.063h0c7.767,7.767,7.767,20.359,0,28.125l0,0
							c-3.73,3.73-5.825,8.788-5.825,14.063v0c0,10.984-8.904,19.888-19.888,19.888h0c-5.275,0-10.333,2.095-14.063,5.825l0,0
							c-7.767,7.767-20.359,7.767-28.125,0l0,0c-3.73-3.73-8.788-5.825-14.063-5.825h0c-10.984,0-19.888-8.904-19.888-19.888v0
							c0-5.275-2.095-10.333-5.825-14.063l0,0c-7.767-7.767-7.767-20.359,0-28.125h0c3.73-3.73,5.825-8.788,5.825-14.063v0
							c0-10.984,8.904-19.888,19.888-19.888h0c5.274,0,10.333-2.095,14.063-5.825h0C121.704,51.284,134.296,51.284,142.063,59.051z"
							/>
					</g>
					<g>
						<g>
							<path fill="#FFC91D" d="M85.99,143.01c-1.11,0-2-0.89-2-2V141c0.01-1.1,0.9-1.99,2-1.99s2,0.9,2,2
								C87.99,142.12,87.09,143.01,85.99,143.01z M84.77,135.14c-0.87,0-1.64-0.56-1.9-1.4c-1.16-3.64-3.14-6.88-5.88-9.62
								c-3-3-4.66-6.99-4.65-11.23c-0.01-4.25,1.65-8.24,4.65-11.24c4.51-4.51,6.99-10.51,7-16.89c0-8.75,7.13-15.88,15.89-15.89
								c6.37,0,12.37-2.48,16.89-6.99c2.99-3,6.98-4.66,11.22-4.66h0.02c4.24,0,8.23,1.66,11.22,4.66c4.52,4.51,10.52,6.99,16.9,7
								c1.1,0,1.99,0.89,1.99,2c0,1.1-0.89,1.99-1.99,1.99h-0.02c-7.44,0.01-14.44-2.9-19.7-8.16c-2.25-2.24-5.24-3.48-8.41-3.49
								c-3.17,0.01-6.16,1.25-8.41,3.49c-5.26,5.26-12.26,8.16-19.7,8.16h-0.01C93.33,72.89,88,78.22,87.99,84.76
								c0,7.45-2.9,14.46-8.17,19.72c-2.24,2.25-3.48,5.23-3.48,8.41c0,3.17,1.24,6.16,3.48,8.4c3.15,3.16,5.52,7.04,6.86,11.24
								c0.33,1.05-0.25,2.18-1.3,2.52C85.18,135.11,84.98,135.14,84.77,135.14z"/>
						</g>
					</g>
					<g>
						<path fill="#F79219" d="M181.838,98.826c-3.73-3.73-5.825-8.788-5.825-14.063c0-8.082-4.829-15.024-11.753-18.135
							c1.117,2.485,1.753,5.234,1.753,8.135c0,5.275,2.095,10.333,5.825,14.063c7.767,7.767,7.767,20.359,0,28.125
							c-3.73,3.73-5.825,8.788-5.825,14.063c0,10.984-8.904,19.888-19.888,19.888h0c-5.274,0-10.333,2.095-14.063,5.825l0,0
							c-7.767,7.767-20.359,7.767-28.125,0l0,0c-3.73-3.73-8.788-5.825-14.063-5.825h0c-2.901,0-5.65-0.636-8.135-1.753
							c3.111,6.923,10.053,11.753,18.135,11.753h0c5.274,0,10.333,2.095,14.063,5.825l0,0c7.767,7.767,20.359,7.767,28.125,0l0,0
							c3.73-3.73,8.788-5.825,14.063-5.825h0c10.984,0,19.888-8.904,19.888-19.888c0-5.275,2.095-10.333,5.825-14.063
							C189.604,119.185,189.604,106.593,181.838,98.826z"/>
					</g>
					<g>
						<path fill="#EF7816" d="M181.838,98.826c-3.73-3.73-5.825-8.788-5.825-14.063c0-6.769-3.389-12.74-8.556-16.332
							c2.236,3.216,3.556,7.118,3.556,11.332c0,5.275,2.095,10.333,5.825,14.063c7.767,7.767,7.767,20.359,0,28.125
							c-3.73,3.73-5.825,8.788-5.825,14.063c0,10.984-8.904,19.888-19.888,19.888h0c-5.274,0-10.333,2.095-14.063,5.825l0,0
							c-7.767,7.767-20.359,7.767-28.125,0l0,0c-3.73-3.73-8.788-5.825-14.063-5.825h0c-4.214,0-8.116-1.319-11.332-3.556
							c3.592,5.167,9.563,8.556,16.332,8.556h0c5.274,0,10.333,2.095,14.063,5.825l0,0c7.767,7.767,20.359,7.767,28.125,0l0,0
							c3.73-3.73,8.788-5.825,14.063-5.825h0c10.984,0,19.888-8.904,19.888-19.888c0-5.275,2.095-10.333,5.825-14.063
							C189.604,119.185,189.604,106.593,181.838,98.826z"/>
					</g>
				</g>
			</g>
			<g>
				<g>
					<g>
						<g>
							<circle fill="#58595B" cx="128" cy="203.988" r="27.915"/>
						</g>
					</g>
				</g>
				<g>
					<g>
						<g>
							<g>
								<path fill="#FFFFFF" d="M124.977,218.782c-1.252,0-2.504-0.478-3.46-1.433l-9.634-9.634c-1.91-1.911-1.91-5.008,0-6.919
									c1.911-1.91,5.008-1.91,6.919,0l6.175,6.176l12.254-12.255c1.911-1.91,5.008-1.91,6.919,0c1.91,1.911,1.91,5.008,0,6.919
									l-15.714,15.714C127.481,218.305,126.229,218.782,124.977,218.782z"/>
							</g>
						</g>
					</g>
				</g>
				<g>
					<g>
						<g>
							<g>
								<polygon fill="#377DE2" points="122.977,204.972 122.977,204.972 118.802,200.796 118.8,200.795 								"/>
							</g>
						</g>
					</g>
				</g>
			</g>
		</g>
	</g>
	<g>
		<g>
			<g>
				<g>
					<path fill="#F1F2F2" d="M130.581,83.913l4.957,15.257c0.363,1.118,1.405,1.875,2.58,1.875h15.072
						c2.933,0,4.153,3.754,1.78,5.478l-12.194,8.859c-0.951,0.691-1.349,1.915-0.986,3.033l4.957,15.257
						c0.812,2.499-2.049,4.578-4.175,3.033l-12.793-9.295c-1.061-0.771-2.498-0.771-3.56,0l-12.793,9.295
						c-2.126,1.545-4.987-0.534-4.175-3.033l4.957-15.257c0.363-1.118-0.035-2.342-0.986-3.033l-12.194-8.859
						c-2.373-1.724-1.154-5.478,1.78-5.478h15.072c1.175,0,2.217-0.757,2.58-1.875l4.957-15.257
						C126.232,81.413,129.769,81.413,130.581,83.913z"/>
				</g>
			</g>
		</g>
	</g>
</g>
</svg>
