<?xml version="1.0" encoding="utf-8"?>
<!-- Generator: Adobe Illustrator 24.0.0, SVG Export Plug-In . SVG Version: 6.00 Build 0)  -->
<svg version="1.1" id="Layer_1" xmlns="http://www.w3.org/2000/svg" xmlns:xlink="http://www.w3.org/1999/xlink" x="0px" y="0px"
	 viewBox="0 0 256 256" enable-background="new 0 0 256 256" xml:space="preserve">
<g>
	<g>
		<g>
			<g>
				<g>
					<g>
						<g>
							<g>
								<g>
									<g>
										<g>
											<path fill="#E63950" d="M171.974,232.054H36.568c-5.522,0-9.999-4.477-9.999-9.999V33.945
												c0-5.522,4.477-9.999,9.999-9.999h135.405c5.522,0,9.999,4.477,9.999,9.999v188.109
												C181.973,227.577,177.496,232.054,171.974,232.054z"/>
										</g>
									</g>
								</g>
								<g>
									<g>
										<path fill="#EF7816" d="M147.968,27.733H60.574c-2.473,0-4.478,2.005-4.478,4.478v5.709h96.351v-5.709
											C152.446,29.737,150.441,27.733,147.968,27.733z"/>
									</g>
								</g>
								<g>
									<g>
										<g>
											<path fill="#D10028" d="M176.089,24.83c0.568,1.255,0.884,2.649,0.884,4.116v188.109c0,5.522-4.477,9.999-9.999,9.999
												H31.568c-1.467,0-2.86-0.316-4.115-0.883c1.569,3.469,5.06,5.883,9.116,5.883h135.405c5.522,0,9.999-4.477,9.999-9.999
												V33.945C181.973,29.89,179.559,26.399,176.089,24.83z"/>
										</g>
									</g>
								</g>
								<g>
									<g>
										<g>
											<path fill="#F1F2F2" d="M165.377,218.113H43.165c-1.841,0-3.333-1.492-3.333-3.333V41.253
												c0-1.841,1.492-3.333,3.333-3.333h122.212c1.841,0,3.333,1.492,3.333,3.333V214.78
												C168.71,216.621,167.218,218.113,165.377,218.113z"/>
										</g>
									</g>
								</g>
								<g>
									<path fill="#FFFFFF" d="M45.73,203.1c-1.1,0-2-0.9-2-2c0-1.11,0.9-2,2-2c1.1,0,2,0.89,2,2
										C47.73,202.2,46.83,203.1,45.73,203.1z M45.73,195.1c-1.1,0-2-0.9-2-2V43.92c0-0.53,0.22-1.04,0.59-1.41
										c0.37-0.38,0.89-0.59,1.41-0.59h13.64c1.1,0,2,0.9,2,2s-0.9,2-2,2H47.73V193.1C47.73,194.2,46.83,195.1,45.73,195.1z"/>
								</g>
								<g>
									<g>
										<g>
											<g>
												<g>
													<path fill="#D1D3D4" d="M143.625,84.621h-31.433c-2.507,0-4.54-2.032-4.54-4.54l0,0c0-2.507,2.032-4.539,4.54-4.539
														h31.433c2.507,0,4.54,2.032,4.54,4.539l0,0C148.164,82.588,146.132,84.621,143.625,84.621z"/>
												</g>
											</g>
										</g>
										<g>
											<g>
												<path fill="#D1D3D4" d="M152.54,100.354h-40.348c-2.507,0-4.54-2.032-4.54-4.54l0,0c0-2.507,2.032-4.539,4.54-4.539
													h40.348c2.507,0,4.54,2.032,4.54,4.539l0,0C157.079,98.321,155.047,100.354,152.54,100.354z"/>
											</g>
										</g>
										<g>
											<g>
												<g>
													<path fill="#D1D3D4" d="M143.625,132.043h-31.433c-2.507,0-4.54-2.032-4.54-4.539l0,0c0-2.507,2.032-4.539,4.54-4.539
														h31.433c2.507,0,4.54,2.032,4.54,4.539l0,0C148.164,130.01,146.132,132.043,143.625,132.043z"/>
												</g>
											</g>
										</g>
										<g>
											<g>
												<path fill="#D1D3D4" d="M152.54,147.775h-40.348c-2.507,0-4.54-2.033-4.54-4.54l0,0c0-2.507,2.032-4.54,4.54-4.54
													h40.348c2.507,0,4.54,2.032,4.54,4.54l0,0C157.079,145.743,155.047,147.775,152.54,147.775z"/>
											</g>
										</g>
										<g>
											<g>
												<g>
													<path fill="#D1D3D4" d="M143.625,179.465h-31.433c-2.507,0-4.54-2.032-4.54-4.54l0,0c0-2.507,2.032-4.54,4.54-4.54
														h31.433c2.507,0,4.54,2.033,4.54,4.54l0,0C148.164,177.432,146.132,179.465,143.625,179.465z"/>
												</g>
											</g>
										</g>
										<g>
											<g>
												<path fill="#D1D3D4" d="M152.54,195.197h-40.348c-2.507,0-4.54-2.032-4.54-4.54l0,0c0-2.507,2.032-4.54,4.54-4.54
													h40.348c2.507,0,4.54,2.033,4.54,4.54l0,0C157.079,193.165,155.047,195.197,152.54,195.197z"/>
											</g>
										</g>
									</g>
								</g>
								<g>
									<g>
										<g>
											<path fill="#E6E7E8" d="M165.377,37.92h-6.667v166.86c0,1.841-1.492,3.333-3.333,3.333H39.832v6.667
												c0,1.841,1.492,3.333,3.333,3.333h122.212c1.841,0,3.333-1.492,3.333-3.333V41.253
												C168.71,39.412,167.218,37.92,165.377,37.92z"/>
										</g>
									</g>
								</g>
								<g>
									<g>
										<g>
											<path fill="#D1D3D4" d="M165.377,37.92h-1.667v171.86c0,1.841-1.492,3.333-3.333,3.333H39.832v1.667
												c0,1.841,1.492,3.333,3.333,3.333h122.212c1.841,0,3.333-1.492,3.333-3.333V41.253
												C168.71,39.412,167.218,37.92,165.377,37.92z"/>
										</g>
									</g>
								</g>
							</g>
						</g>
					</g>
				</g>
				<g>
					<g>
						<path fill="#FFA91A" d="M139.082,53.838H69.459c-2.056,0-3.728-1.673-3.728-3.73V34.556c0-2.057,1.673-3.73,3.728-3.73h69.623
							c2.056,0,3.729,1.673,3.729,3.73v15.553C142.811,52.165,141.138,53.838,139.082,53.838z M69.731,49.838h69.08V34.826h-69.08
							V49.838z"/>
					</g>
				</g>
			</g>
		</g>
		<g>
			<path fill="#D1D3D4" d="M84.104,104.538H58.608c-1.933,0-3.5-1.567-3.5-3.5V75.542c0-1.933,1.567-3.5,3.5-3.5h25.496
				c1.933,0,3.5,1.567,3.5,3.5v25.496C87.604,102.971,86.037,104.538,84.104,104.538z M62.108,97.538h18.496V79.042H62.108V97.538z"
				/>
		</g>
		<g>
			<path fill="#D1D3D4" d="M84.104,151.617H58.608c-1.933,0-3.5-1.567-3.5-3.5v-25.496c0-1.933,1.567-3.5,3.5-3.5h25.496
				c1.933,0,3.5,1.567,3.5,3.5v25.496C87.604,150.05,86.037,151.617,84.104,151.617z M62.108,144.617h18.496v-18.496H62.108V144.617
				z"/>
		</g>
		<g>
			<path fill="#D1D3D4" d="M84.104,198.697H58.608c-1.933,0-3.5-1.567-3.5-3.5v-25.496c0-1.933,1.567-3.5,3.5-3.5h25.496
				c1.933,0,3.5,1.567,3.5,3.5v25.496C87.604,197.13,86.037,198.697,84.104,198.697z M62.108,191.697h18.496v-18.496H62.108V191.697
				z"/>
		</g>
	</g>
	<g>
		<g>
			<path fill="#FFA91A" d="M189.337,80.663L189.337,80.663c3.279,3.279,7.727,5.122,12.365,5.122h0
				c9.657,0,17.486,7.829,17.486,17.486v0c0,4.638,1.842,9.085,5.122,12.365h0c6.829,6.829,6.829,17.9,0,24.729l0,0
				c-3.279,3.279-5.122,7.727-5.122,12.364v0c0,9.657-7.829,17.486-17.486,17.486h0c-4.638,0-9.085,1.842-12.365,5.122l0,0
				c-6.829,6.829-17.9,6.829-24.729,0l0,0c-3.279-3.279-7.727-5.122-12.365-5.122h0c-9.657,0-17.486-7.829-17.486-17.486v0
				c0-4.638-1.842-9.085-5.122-12.364l0,0c-6.829-6.829-6.829-17.9,0-24.729h0c3.279-3.279,5.122-7.727,5.122-12.365v0
				c0-9.657,7.829-17.486,17.486-17.486h0c4.638,0,9.085-1.842,12.365-5.122h0C171.437,73.835,182.509,73.835,189.337,80.663z"/>
		</g>
		<g>
			<path fill="#F79219" d="M224.309,115.635c-3.279-3.279-5.122-7.727-5.122-12.365c0-7.434-4.647-13.768-11.188-16.298
				c0.757,1.956,1.188,4.075,1.188,6.298c0,4.638,1.842,9.085,5.122,12.365c6.829,6.829,6.829,17.9,0,24.729
				c-3.279,3.279-5.122,7.727-5.122,12.365v0c0,9.657-7.829,17.486-17.486,17.486l0,0c-4.638,0-9.085,1.842-12.365,5.122
				c-6.829,6.829-17.9,6.829-24.729,0c-3.279-3.279-7.727-5.122-12.365-5.122h0c-2.223,0-4.342-0.431-6.298-1.188
				c2.53,6.541,8.864,11.188,16.298,11.188h0c4.637,0,9.085,1.842,12.365,5.122c6.829,6.829,17.9,6.829,24.729,0
				c3.279-3.279,7.727-5.122,12.365-5.122l0,0c9.657,0,17.486-7.829,17.486-17.486v0c0-4.638,1.842-9.085,5.122-12.365
				C231.138,133.536,231.138,122.464,224.309,115.635z"/>
		</g>
	</g>
	<g>
		<g>
			<g>
				<g>
					<path fill="#FFFFFF" d="M180.617,95.814h-9.466c-9.197,0-16.679,7.482-16.679,16.679c0,2.672,2.174,4.845,4.846,4.845
						c2.672,0,4.846-2.174,4.846-4.845c0-3.853,3.134-6.987,6.987-6.987h9.466c3.853,0,6.987,3.134,6.987,6.987
						c0,3.852-3.134,6.986-6.987,6.986c-5.282,0-9.579,4.297-9.579,9.579v10.285c0,2.672,2.174,4.846,4.846,4.846
						c2.672,0,4.846-2.174,4.846-4.846V129.17c9.145-0.061,16.566-7.519,16.566-16.677
						C197.296,103.296,189.814,95.814,180.617,95.814z"/>
				</g>
			</g>
		</g>
		<g>
			<g>
				<g>
					<path fill="#FFFFFF" d="M175.884,147.982c-2.671,0-4.843,2.173-4.843,4.843c0,2.671,2.173,4.844,4.843,4.844
						c2.671,0,4.844-2.173,4.844-4.844C180.728,150.155,178.555,147.982,175.884,147.982z"/>
				</g>
			</g>
		</g>
	</g>
</g>
</svg>
