<?xml version="1.0" encoding="utf-8"?>
<!-- Generator: Adobe Illustrator 24.0.0, SVG Export Plug-In . SVG Version: 6.00 Build 0)  -->
<svg version="1.1" id="Layer_1" xmlns="http://www.w3.org/2000/svg" xmlns:xlink="http://www.w3.org/1999/xlink" x="0px" y="0px"
	 viewBox="0 0 256 256" enable-background="new 0 0 256 256" xml:space="preserve">
<g>
	<g>
		<g>
			<g>
				<g>
					<g>
						<g>
							<g>
								<g>
									<g>
										<path fill="#414042" d="M207.89,128c0-44.122-35.768-79.89-79.89-79.89c-44.122,0-79.89,35.768-79.89,79.89
											c0,44.122,35.768,79.89,79.89,79.89C172.122,207.89,207.89,172.122,207.89,128z M85.15,128
											c0-23.665,19.185-42.85,42.85-42.85c23.665,0,42.85,19.185,42.85,42.85s-19.185,42.85-42.85,42.85
											C104.335,170.85,85.15,151.666,85.15,128z"/>
									</g>
								</g>
							</g>
							<g>
								<g>
									<g>
										<g>
											<path fill="#58595B" d="M146.167,205.814l17.134,19.423c2.58,2.924,6.864,3.626,10.242,1.675l17.893-10.331
												c3.377-1.949,4.912-6.01,3.669-9.706l-8.327-24.77C176.103,193.696,162.044,202.122,146.167,205.814z"/>
										</g>
									</g>
								</g>
								<g>
									<g>
										<g>
											<path fill="#58595B" d="M163.301,30.763l-17.134,19.422c15.876,3.692,29.935,12.118,40.611,23.71l8.327-24.77
												c1.243-3.697-0.292-7.757-3.669-9.707l-17.893-10.33C170.165,27.137,165.881,27.838,163.301,30.763z"/>
										</g>
									</g>
								</g>
								<g>
									<g>
										<g>
											<path fill="#58595B" d="M207.89,128c0,8.139-1.218,15.993-3.481,23.392l24.905-5.03c3.823-0.772,6.571-4.131,6.571-8.032
												V117.67c0-3.9-2.748-7.26-6.571-8.032l-24.905-5.03C206.672,112.007,207.89,119.861,207.89,128z"/>
										</g>
									</g>
								</g>
								<g>
									<g>
										<g>
											<path fill="#58595B" d="M93.793,224.606l16.488-18.689c-15.74-3.564-29.716-11.776-40.411-23.117l-7.882,23.444
												c-1.243,3.697,0.292,7.757,3.67,9.707l17.893,10.33C86.928,228.231,91.211,227.53,93.793,224.606z"/>
										</g>
									</g>
								</g>
								<g>
									<g>
										<g>
											<path fill="#58595B" d="M48.11,128c0-8.139,1.218-15.993,3.481-23.392l-24.905,5.03
												c-3.823,0.772-6.571,4.132-6.571,8.032v20.661c0,3.9,2.748,7.26,6.571,8.032l24.905,5.03
												C49.328,143.993,48.11,136.139,48.11,128z"/>
										</g>
									</g>
								</g>
								<g>
									<g>
										<g>
											<path fill="#58595B" d="M110.28,50.084L93.793,31.394c-2.581-2.925-6.864-3.626-10.242-1.675L65.658,40.05
												c-3.378,1.95-4.913,6.01-3.67,9.707l7.882,23.444C80.564,61.86,94.54,53.648,110.28,50.084z"/>
										</g>
									</g>
								</g>
							</g>
						</g>
					</g>
				</g>
			</g>
		</g>
	</g>
	<g>
		<circle fill="#E63950" cx="128" cy="128" r="42.85"/>
	</g>
	<g>
		<g>
			<path fill="#E8566F" d="M97.22,150.24c-0.68,0-1.3-0.34-1.67-0.9c-0.3-0.45-0.4-0.98-0.29-1.51c0.1-0.52,0.41-0.97,0.85-1.26
				c0.9-0.59,2.19-0.32,2.78,0.56c0.6,0.93,0.35,2.17-0.57,2.78C97.99,150.12,97.61,150.24,97.22,150.24z M93.57,143.13
				c-0.82,0-1.58-0.51-1.87-1.28c-1.69-4.42-2.55-9.08-2.55-13.85c0-21.42,17.43-38.85,38.85-38.85c8.52,0,16.609,2.72,23.399,7.85
				c0.881,0.67,1.051,1.92,0.391,2.81c-0.65,0.85-1.95,1.03-2.811,0.38c-6.09-4.6-13.34-7.04-20.979-7.04
				c-9.29,0-18.04,3.63-24.63,10.22c-6.59,6.59-10.22,15.34-10.22,24.63c0,4.28,0.77,8.45,2.29,12.42c0.19,0.5,0.17,1.04-0.05,1.53
				c-0.21,0.49-0.61,0.86-1.11,1.05C94.05,143.09,93.81,143.13,93.57,143.13z"/>
		</g>
	</g>
	<g>
		<path fill="#D10028" d="M152.878,93.122c5.013,7.015,7.972,15.598,7.972,24.878c0,23.666-19.185,42.85-42.85,42.85
			c-9.279,0-17.863-2.959-24.878-7.972c7.771,10.875,20.492,17.972,34.878,17.972c23.665,0,42.85-19.185,42.85-42.85
			C170.85,113.614,163.753,100.894,152.878,93.122z"/>
	</g>
	<g>
		<path fill="#B7022D" d="M155.69,95.31c6.333,7.469,10.16,17.13,10.16,27.69c0,23.666-19.185,42.85-42.85,42.85
			c-10.56,0-20.221-3.827-27.69-10.16c7.86,9.27,19.584,15.16,32.69,15.16c23.665,0,42.85-19.185,42.85-42.85
			C170.85,114.895,164.96,103.17,155.69,95.31z"/>
	</g>
	<g>
		<g>
			<g>
				<path fill="#FFA91A" d="M102.881,143.854l14.118,8.151l0,64.374c0,6.076,4.925,11.001,11.001,11.001h0
					c6.076,0,11.001-4.925,11.001-11.001v-64.373l14.118-8.151c1.229-0.709,1.985-2.02,1.985-3.439v-25.226
					c0-2.338-1.247-4.499-3.272-5.668l0,0c-4.364-2.52-9.819,0.63-9.819,5.669v15.475c0,1.419-0.757,2.73-1.985,3.439l-10.043,5.798
					c-1.228,0.709-2.742,0.709-3.97,0l-10.044-5.799c-1.228-0.709-1.985-2.02-1.985-3.438v-15.476c0-5.038-5.454-8.188-9.818-5.668
					l0,0c-2.025,1.169-3.273,3.33-3.273,5.668v25.226C100.896,141.833,101.653,143.144,102.881,143.854z"/>
			</g>
		</g>
		<g>
			<path fill="#F79219" d="M151.832,109.521c-4.364-2.52-9.818,0.63-9.818,5.669v15.475c0,1.419-0.757,2.73-1.985,3.439
				l-10.043,5.798c-0.614,0.354-1.3,0.532-1.985,0.532v86.946c6.076,0,11.001-4.925,11.001-11.001v-64.373l14.118-8.151
				c1.229-0.709,1.985-2.02,1.985-3.439v-25.226C155.104,112.851,153.857,110.69,151.832,109.521z"/>
		</g>
		<g>
			<circle fill="#EF7816" cx="128" cy="215.6" r="4.841"/>
		</g>
	</g>
</g>
</svg>
