<?xml version="1.0" encoding="utf-8"?>
<!-- Generator: Adobe Illustrator 24.0.0, SVG Export Plug-In . SVG Version: 6.00 Build 0)  -->
<svg version="1.1" id="Layer_1" xmlns="http://www.w3.org/2000/svg" xmlns:xlink="http://www.w3.org/1999/xlink" x="0px" y="0px"
	 viewBox="0 0 256 256" enable-background="new 0 0 256 256" xml:space="preserve">
<g>
	<g>
		<g>
			<g>
				<g>
					<g>
						<g>
							<g>
								<g>
									<g>
										<g>
											<path fill="#58595B" d="M177.864,232.054H42.459c-5.522,0-9.999-4.477-9.999-9.999V33.945
												c0-5.522,4.477-9.999,9.999-9.999h135.405c5.522,0,9.999,4.477,9.999,9.999v188.109
												C187.863,227.577,183.386,232.054,177.864,232.054z"/>
										</g>
									</g>
								</g>
								<g>
									<g>
										<path fill="#EF7816" d="M153.859,27.733H66.464c-2.473,0-4.478,2.005-4.478,4.478v5.709h96.351v-5.709
											C158.337,29.737,156.332,27.733,153.859,27.733z"/>
									</g>
								</g>
								<g>
									<g>
										<g>
											<path fill="#414042" d="M181.98,24.83c0.568,1.255,0.883,2.649,0.883,4.116v188.109c0,5.522-4.477,9.999-9.999,9.999
												H37.459c-1.467,0-2.86-0.316-4.116-0.883c1.569,3.469,5.06,5.883,9.115,5.883h135.405c5.522,0,9.999-4.477,9.999-9.999
												V33.945C187.863,29.89,185.449,26.399,181.98,24.83z"/>
										</g>
									</g>
								</g>
								<g>
									<g>
										<g>
											<path fill="#F1F2F2" d="M171.267,218.113H49.055c-1.841,0-3.333-1.492-3.333-3.333V41.253
												c0-1.841,1.492-3.333,3.333-3.333h122.212c1.841,0,3.333,1.492,3.333,3.333V214.78
												C174.6,216.621,173.108,218.113,171.267,218.113z"/>
										</g>
									</g>
								</g>
								<g>
									<path fill="#FFFFFF" d="M51.72,203.09c-1.1,0-2-0.89-2-1.99c0-1.109,0.9-2,2-2c1.11,0,2,0.891,2,2
										C53.72,202.2,52.83,203.09,51.72,203.09z M51.72,195.1c-1.1,0-2-0.899-2-2V43.92c0-0.53,0.22-1.04,0.59-1.41
										c0.37-0.38,0.88-0.59,1.41-0.59h13.64c1.101,0,2,0.899,2,2c0,1.1-0.899,2-2,2H53.72V193.1
										C53.72,194.2,52.83,195.1,51.72,195.1z"/>
								</g>
								<g>
									<g>
										<g>
											<g>
												<g>
													<path fill="#D1D3D4" d="M149.515,84.621h-31.433c-2.507,0-4.539-2.032-4.539-4.54l0,0c0-2.507,2.032-4.539,4.539-4.539
														h31.433c2.507,0,4.539,2.032,4.539,4.539l0,0C154.054,82.588,152.022,84.621,149.515,84.621z"/>
												</g>
											</g>
										</g>
										<g>
											<g>
												<path fill="#D1D3D4" d="M158.43,100.354h-40.348c-2.507,0-4.539-2.032-4.539-4.54l0,0c0-2.507,2.032-4.539,4.539-4.539
													h40.348c2.507,0,4.54,2.032,4.54,4.539l0,0C162.97,98.321,160.937,100.354,158.43,100.354z"/>
											</g>
										</g>
										<g>
											<g>
												<g>
													<path fill="#D1D3D4" d="M149.515,132.043h-31.433c-2.507,0-4.539-2.032-4.539-4.539l0,0
														c0-2.507,2.032-4.539,4.539-4.539h31.433c2.507,0,4.539,2.032,4.539,4.539l0,0
														C154.054,130.01,152.022,132.043,149.515,132.043z"/>
												</g>
											</g>
										</g>
										<g>
											<g>
												<path fill="#D1D3D4" d="M158.43,147.775h-40.348c-2.507,0-4.539-2.033-4.539-4.54l0,0c0-2.507,2.032-4.54,4.539-4.54
													h40.348c2.507,0,4.54,2.032,4.54,4.54l0,0C162.97,145.743,160.937,147.775,158.43,147.775z"/>
											</g>
										</g>
										<g>
											<g>
												<g>
													<path fill="#D1D3D4" d="M149.515,179.465h-31.433c-2.507,0-4.539-2.032-4.539-4.54l0,0c0-2.507,2.032-4.54,4.539-4.54
														h31.433c2.507,0,4.539,2.033,4.539,4.54l0,0C154.054,177.432,152.022,179.465,149.515,179.465z"/>
												</g>
											</g>
										</g>
										<g>
											<g>
												<path fill="#D1D3D4" d="M158.43,195.197h-40.348c-2.507,0-4.539-2.032-4.539-4.54l0,0c0-2.507,2.032-4.54,4.539-4.54
													h40.348c2.507,0,4.54,2.033,4.54,4.54l0,0C162.97,193.165,160.937,195.197,158.43,195.197z"/>
											</g>
										</g>
									</g>
									<g>
										<g>
											<g>
												
													<ellipse transform="matrix(0.9999 -0.0147 0.0147 0.9999 -1.2948 1.1317)" fill="#58595B" cx="76.214" cy="88.504" rx="18.861" ry="18.861"/>
											</g>
										</g>
										<g>
											<g>
												<g>
													<path fill="#FFFFFF" d="M74.171,98.499c-0.846,0-1.692-0.323-2.337-0.968l-6.509-6.509
														c-1.291-1.291-1.291-3.384,0-4.675c1.291-1.29,3.384-1.29,4.675,0l4.172,4.172l8.28-8.28
														c1.291-1.29,3.384-1.29,4.675,0c1.291,1.291,1.291,3.384,0,4.675L76.508,97.531
														C75.863,98.176,75.017,98.499,74.171,98.499z"/>
												</g>
											</g>
										</g>
									</g>
									<g>
										<g>
											<g>
												
													<ellipse transform="matrix(0.2964 -0.9551 0.9551 0.2964 -75.6615 168.0403)" fill="#58595B" cx="76.214" cy="135.37" rx="18.861" ry="18.861"/>
											</g>
										</g>
										<g>
											<g>
												<g>
													<path fill="#FFFFFF" d="M74.171,145.365c-0.846,0-1.692-0.323-2.337-0.968l-6.509-6.509
														c-1.291-1.291-1.291-3.384,0-4.675c1.291-1.29,3.384-1.29,4.675,0l4.172,4.173l8.28-8.28
														c1.291-1.29,3.384-1.29,4.675,0c1.291,1.291,1.291,3.384,0,4.675l-10.617,10.617
														C75.863,145.042,75.017,145.365,74.171,145.365z"/>
												</g>
											</g>
										</g>
									</g>
									<g>
										<g>
											<g>
												<circle fill="#58595B" cx="76.214" cy="182.235" r="18.861"/>
											</g>
										</g>
										<g>
											<g>
												<g>
													<path fill="#FFFFFF" d="M74.171,192.231c-0.846,0-1.692-0.323-2.337-0.968l-6.509-6.51
														c-1.291-1.291-1.291-3.384,0-4.675c1.291-1.29,3.384-1.29,4.675,0l4.172,4.172l8.28-8.28
														c1.291-1.29,3.384-1.29,4.675,0c1.291,1.291,1.291,3.384,0,4.675l-10.617,10.617
														C75.863,191.908,75.017,192.231,74.171,192.231z"/>
												</g>
											</g>
										</g>
									</g>
								</g>
								<g>
									<g>
										<g>
											<path fill="#E6E7E8" d="M171.267,37.92H164.6v166.86c0,1.841-1.492,3.333-3.333,3.333H45.722v6.667
												c0,1.841,1.492,3.333,3.333,3.333h122.212c1.841,0,3.333-1.492,3.333-3.333V41.253
												C174.6,39.412,173.108,37.92,171.267,37.92z"/>
										</g>
									</g>
								</g>
								<g>
									<g>
										<g>
											<path fill="#D1D3D4" d="M171.267,37.92H169.6v171.86c0,1.841-1.492,3.333-3.333,3.333H45.722v1.667
												c0,1.841,1.492,3.333,3.333,3.333h122.212c1.841,0,3.333-1.492,3.333-3.333V41.253
												C174.6,39.412,173.108,37.92,171.267,37.92z"/>
										</g>
									</g>
								</g>
							</g>
						</g>
					</g>
				</g>
				<g>
					<g>
						<path fill="#FFA91A" d="M144.973,53.838H75.35c-2.056,0-3.728-1.673-3.728-3.73V34.556c0-2.057,1.673-3.73,3.728-3.73h69.623
							c2.056,0,3.729,1.673,3.729,3.73v15.553C148.701,52.165,147.029,53.838,144.973,53.838z M75.621,49.838h69.08V34.826h-69.08
							V49.838z"/>
					</g>
				</g>
			</g>
		</g>
	</g>
	<g>
		<g>
			<g>
				<g>
					<g>
						<g>
							<g>
								<g>
									<g>
										<path fill="#939598" d="M187.907,194.157h-13.32c-0.258,0-0.509,0.03-0.754,0.076l0-9.783
											c4.92,0.653,9.908,0.653,14.828,0v9.783C188.416,194.186,188.166,194.157,187.907,194.157z"/>
									</g>
								</g>
							</g>
							<g>
								<g>
									<g>
										<path fill="#FFA91A" d="M191.928,243.793l0-45.615c0-2.221-1.8-4.021-4.021-4.021h-13.32c-2.221,0-4.021,1.8-4.021,4.021
											l0,45.615c0,2.221,1.8,4.021,4.021,4.021l13.32,0C190.128,247.814,191.928,246.013,191.928,243.793z"/>
									</g>
								</g>
							</g>
							<g>
								<g>
									<g>
										<path fill="#F79219" d="M178.619,247.814c2.221,0,4.021-1.8,4.021-4.021l0-45.615c0-2.221-1.8-4.021-4.021-4.021l-4.039,0
											c0.002,0,0.005,0,0.007,0h13.32c2.221,0,4.021,1.8,4.021,4.021l0,45.615c0,2.221-1.8,4.021-4.021,4.021l-13.32,0
											c-0.002,0-0.004,0-0.005,0L178.619,247.814z"/>
									</g>
								</g>
							</g>
							<g>
								<g>
									<g>
										<path fill="#808285" d="M181.304,184.94c2.458-0.003,4.916-0.166,7.357-0.49l0,9.783
											c-0.245-0.047-0.496-0.076-0.754-0.076l-6.603,0L181.304,184.94z"/>
									</g>
								</g>
							</g>
						</g>
						<g>
							<g>
								<g>
									<g>
										<path fill="#FFA91A" d="M237.291,128.909c0-30.952-25.091-56.043-56.042-56.043c-30.952,0-56.043,25.091-56.044,56.042
											c0,30.952,25.091,56.043,56.042,56.044S237.29,159.86,237.291,128.909z M138.97,128.908
											c0-23.349,18.929-42.278,42.278-42.277c23.349,0,42.278,18.929,42.277,42.278c0,23.349-18.929,42.278-42.278,42.277
											C157.898,171.186,138.97,152.257,138.97,128.908z"/>
									</g>
								</g>
							</g>
							<g>
								<g>
									<g>
										<path fill="#F79219" d="M231.067,128.909c0-27.515-22.304-49.82-49.819-49.82c-27.515,0-49.82,22.304-49.82,49.819
											s22.304,49.82,49.819,49.82C208.762,178.728,231.067,156.423,231.067,128.909z M138.97,128.908
											c0-23.349,18.929-42.278,42.278-42.277c23.349,0,42.278,18.929,42.277,42.278c0,23.349-18.929,42.278-42.278,42.277
											C157.898,171.186,138.97,152.257,138.97,128.908z"/>
									</g>
								</g>
							</g>
						</g>
					</g>
				</g>
				<g>
					<g>
						<g>
							<circle fill="#414042" cx="181.248" cy="128.9" r="42.278"/>
						</g>
					</g>
				</g>
			</g>
		</g>
		<g>
			<g>
				<path fill="#F1F2F2" d="M176.177,151.384c-2.066,0-4.13-0.788-5.706-2.363L154.58,133.13c-3.151-3.152-3.151-8.26,0-11.412
					c3.152-3.15,8.26-3.15,11.412,0l10.185,10.186l20.212-20.213c3.152-3.15,8.26-3.15,11.412,0c3.151,3.152,3.151,8.26,0,11.412
					l-25.918,25.918C180.307,150.596,178.242,151.384,176.177,151.384z"/>
			</g>
		</g>
	</g>
</g>
</svg>
