<?xml version="1.0" encoding="utf-8"?>
<!-- Generator: Adobe Illustrator 24.0.0, SVG Export Plug-In . SVG Version: 6.00 Build 0)  -->
<svg version="1.1" id="Layer_1" xmlns="http://www.w3.org/2000/svg" xmlns:xlink="http://www.w3.org/1999/xlink" x="0px" y="0px"
	 viewBox="0 0 256 256" enable-background="new 0 0 256 256" xml:space="preserve">
<g>
	<g>
		<g>
			<g>
				<path fill="#58595B" d="M179.294,224.885c-53.425,28.309-119.921,7.874-148.229-45.551
					c-23.009-43.424-14.16-97.3,21.519-131.016c2.411-2.272,6.206-2.168,8.482,0.24c2.276,2.409,2.168,6.206-0.24,8.482
					c-31.772,30.023-39.65,78.001-19.157,116.675c25.21,47.578,84.429,65.776,132.008,40.566c2.928-1.551,6.56-0.435,8.111,2.492
					C183.338,219.702,182.222,223.334,179.294,224.885z"/>
			</g>
		</g>
		<g>
			<g>
				<path fill="#58595B" d="M199.137,211.23c-2.402,1.273-5.45,0.782-7.319-1.352c-2.184-2.492-1.933-6.283,0.56-8.466
					c34.177-29.938,43.168-78.929,21.862-119.137c-25.21-47.578-84.429-65.776-132.008-40.566c-2.928,1.551-6.56,0.435-8.111-2.492
					c-1.551-2.928-0.435-6.56,2.493-8.111c53.425-28.309,119.921-7.874,148.229,45.551c11.629,21.947,15.479,47.445,10.84,71.796
					c-4.568,23.978-17.14,45.992-35.399,61.986C199.927,210.753,199.541,211.016,199.137,211.23z"/>
			</g>
		</g>
		<g>
			<g>
				<g>
					<g>
						<g>
							<path fill="#414042" d="M68.91,40.363l6.51-21.183c0.528-1.719,2.871-1.941,3.713-0.352L93.806,46.52
								c0.842,1.589-0.657,3.403-2.376,2.875l-21.183-6.509C69.181,42.558,68.582,41.429,68.91,40.363z"/>
						</g>
					</g>
				</g>
			</g>
		</g>
		<g>
			<g>
				<g>
					<g>
						<g>
							<path fill="#414042" d="M182.338,214.867l-21.183-6.509c-1.719-0.528-3.218,1.286-2.376,2.875l14.673,27.692
								c0.842,1.589,3.185,1.367,3.713-0.352l6.509-21.183C184.002,216.323,183.404,215.194,182.338,214.867z"/>
						</g>
					</g>
				</g>
			</g>
		</g>
	</g>
	<g>
		<g>
			<g>
				<g>
					<g>
						<g>
							<g>
								<g>
									<g>
										<g>
											<path fill="#58595B" d="M172.979,197.129H83.021c-3.669,0-6.643-2.974-6.643-6.643V65.514
												c0-3.669,2.974-6.643,6.643-6.643h89.958c3.669,0,6.643,2.974,6.643,6.643v124.972
												C179.622,194.155,176.648,197.129,172.979,197.129z"/>
										</g>
									</g>
								</g>
								<g>
									<g>
										<path fill="#EF7816" d="M157.031,61.387H98.969c-1.643,0-2.975,1.332-2.975,2.975v3.793h64.011v-3.793
											C160.006,62.718,158.674,61.387,157.031,61.387z"/>
									</g>
								</g>
								<g>
									<g>
										<g>
											<path fill="#F1F2F2" d="M168.596,187.867H87.404c-1.223,0-2.214-0.991-2.214-2.214V70.369
												c0-1.223,0.991-2.214,2.214-2.214h81.192c1.223,0,2.214,0.991,2.214,2.214v115.284
												C170.811,186.876,169.819,187.867,168.596,187.867z"/>
										</g>
									</g>
								</g>
								<g>
									<path fill="#FFFFFF" d="M91.189,173.55c-1.1,0-2-0.9-2-2s0.9-2,2-2c1.101,0,2,0.9,2,2S92.29,173.55,91.189,173.55z
										 M91.189,165.55c-1.1,0-2-0.9-2-2v-89.4c0-0.52,0.21-1.04,0.591-1.409c0.369-0.37,0.88-0.591,1.409-0.591h6.38
										c1.101,0,2,0.9,2,2c0,1.11-0.899,2-2,2h-4.38v87.381c0,0.01,0,0.01,0,0.02C93.189,164.649,92.29,165.55,91.189,165.55z"/>
								</g>
								<g>
									<path fill="#E6E7E8" d="M168.596,68.155h-7.786v107.498c0,1.223-0.991,2.214-2.214,2.214H85.189v7.786
										c0,1.223,0.991,2.214,2.214,2.214h81.192c1.223,0,2.214-0.991,2.214-2.214V70.369
										C170.811,69.146,169.819,68.155,168.596,68.155z"/>
								</g>
								<g>
									<path fill="#D1D3D4" d="M168.596,68.155h-2.786v112.498c0,1.223-0.991,2.214-2.214,2.214H85.189v2.786
										c0,1.223,0.991,2.214,2.214,2.214h81.192c1.223,0,2.214-0.991,2.214-2.214V70.369
										C170.811,69.146,169.819,68.155,168.596,68.155z"/>
								</g>
								<g>
									<g>
										<g>
											<g>
												<g>
													<path fill="#D1D3D4" d="M154.145,99.181h-20.883c-1.666,0-3.016-1.35-3.016-3.016l0,0c0-1.666,1.35-3.016,3.016-3.016
														h20.883c1.666,0,3.016,1.35,3.016,3.016l0,0C157.161,97.831,155.81,99.181,154.145,99.181z"/>
												</g>
											</g>
										</g>
										<g>
											<g>
												<path fill="#D1D3D4" d="M160.068,109.633h-26.805c-1.666,0-3.016-1.35-3.016-3.016l0,0c0-1.666,1.35-3.016,3.016-3.016
													h26.805c1.666,0,3.016,1.35,3.016,3.016l0,0C163.084,108.283,161.733,109.633,160.068,109.633z"/>
											</g>
										</g>
										<g>
											<g>
												<g>
													<path fill="#D1D3D4" d="M154.145,130.686h-20.883c-1.666,0-3.016-1.35-3.016-3.016l0,0c0-1.666,1.35-3.016,3.016-3.016
														h20.883c1.666,0,3.016,1.35,3.016,3.016l0,0C157.161,129.336,155.81,130.686,154.145,130.686z"/>
												</g>
											</g>
										</g>
										<g>
											<g>
												<path fill="#D1D3D4" d="M160.068,141.138h-26.805c-1.666,0-3.016-1.35-3.016-3.016l0,0c0-1.666,1.35-3.016,3.016-3.016
													h26.805c1.666,0,3.016,1.35,3.016,3.016l0,0C163.084,139.788,161.733,141.138,160.068,141.138z"/>
											</g>
										</g>
										<g>
											<g>
												<g>
													<path fill="#D1D3D4" d="M154.145,162.191h-20.883c-1.666,0-3.016-1.35-3.016-3.016l0,0c0-1.666,1.35-3.016,3.016-3.016
														h20.883c1.666,0,3.016,1.35,3.016,3.016l0,0C157.161,160.841,155.81,162.191,154.145,162.191z"/>
												</g>
											</g>
										</g>
										<g>
											<g>
												<path fill="#D1D3D4" d="M160.068,172.643h-26.805c-1.666,0-3.016-1.35-3.016-3.016l0,0c0-1.666,1.35-3.016,3.016-3.016
													h26.805c1.666,0,3.016,1.35,3.016,3.016l0,0C163.084,171.293,161.733,172.643,160.068,172.643z"/>
											</g>
										</g>
									</g>
									<g>
										<g>
											<g>
												
													<ellipse transform="matrix(0.9999 -0.0147 0.0147 0.9999 -1.4868 1.5635)" fill="#58595B" cx="105.447" cy="101.76" rx="12.53" ry="12.53"/>
											</g>
										</g>
										<g>
											<g>
												<g>
													<path fill="#FFFFFF" d="M104.089,108.401c-0.562,0-1.124-0.214-1.553-0.643l-4.325-4.325
														c-0.858-0.858-0.858-2.248,0-3.106c0.858-0.857,2.248-0.857,3.106,0l2.772,2.772l5.501-5.501
														c0.858-0.857,2.248-0.857,3.106,0c0.858,0.858,0.858,2.248,0,3.106l-7.053,7.053
														C105.213,108.187,104.652,108.401,104.089,108.401z"/>
												</g>
											</g>
										</g>
									</g>
									<g>
										<g>
											<g>
												
													<ellipse transform="matrix(0.2964 -0.9551 0.9551 0.2964 -52.7298 194.2195)" fill="#58595B" cx="105.447" cy="132.896" rx="12.53" ry="12.53"/>
											</g>
										</g>
										<g>
											<g>
												<g>
													<path fill="#FFFFFF" d="M104.089,139.537c-0.562,0-1.124-0.214-1.553-0.643l-4.325-4.325
														c-0.858-0.858-0.858-2.248,0-3.106c0.858-0.857,2.248-0.857,3.106,0l2.772,2.772l5.501-5.501
														c0.858-0.857,2.248-0.857,3.106,0c0.858,0.858,0.858,2.248,0,3.106l-7.053,7.053
														C105.213,139.322,104.652,139.537,104.089,139.537z"/>
												</g>
											</g>
										</g>
									</g>
									<g>
										<g>
											<g>
												<circle fill="#58595B" cx="105.447" cy="164.032" r="12.53"/>
											</g>
										</g>
										<g>
											<g>
												<g>
													<path fill="#FFFFFF" d="M104.089,170.672c-0.562,0-1.124-0.214-1.553-0.643l-4.325-4.325
														c-0.858-0.858-0.858-2.248,0-3.106c0.858-0.857,2.248-0.857,3.106,0l2.772,2.772l5.501-5.501
														c0.858-0.857,2.248-0.857,3.106,0c0.858,0.858,0.858,2.248,0,3.106l-7.053,7.053
														C105.213,170.458,104.652,170.672,104.089,170.672z"/>
												</g>
											</g>
										</g>
									</g>
								</g>
							</g>
						</g>
					</g>
				</g>
				<g>
					<g>
						<path fill="#FFA91A" d="M151.127,78.73h-46.255c-1.366,0-2.477-1.111-2.477-2.478V65.92c0-1.366,1.111-2.478,2.477-2.478
							h46.255c1.366,0,2.477,1.111,2.477,2.478v10.333C153.604,77.618,152.493,78.73,151.127,78.73z M105.053,76.072h45.894v-9.973
							h-45.894V76.072z"/>
					</g>
				</g>
			</g>
		</g>
	</g>
</g>
</svg>
