<?xml version="1.0" encoding="utf-8"?>
<!-- Generator: Adobe Illustrator 24.0.0, SVG Export Plug-In . SVG Version: 6.00 Build 0)  -->
<svg version="1.1" id="Layer_1" xmlns="http://www.w3.org/2000/svg" xmlns:xlink="http://www.w3.org/1999/xlink" x="0px" y="0px"
	 viewBox="0 0 256 256" enable-background="new 0 0 256 256" xml:space="preserve">
<g>
	<g>
		<g>
			<g>
				<g>
					<g>
						<path fill="#F1F2F2" d="M220.47,186.529c10.888-17.165,17.129-37.567,16.951-59.439
							c-0.486-59.666-49.676-108.473-109.344-108.514C66.348,18.533,16.537,69.605,18.64,131.795
							c1.928,57.003,48.118,103.39,105.112,105.549c23.294,0.882,45.038-5.527,63.148-17.117c1.644-1.052,3.667-1.322,5.505-0.666
							l30.322,10.819c4.939,1.762,9.707-3.006,7.945-7.945l-10.854-30.422C219.166,190.183,219.43,188.169,220.47,186.529z"/>
					</g>
				</g>
				<g>
					<g>
						<path fill="#FFFFFF" d="M43.15,189c-0.66,0-1.27-0.32-1.65-0.86c-0.63-0.9-0.41-2.15,0.5-2.78c0.87-0.61,2.17-0.38,2.78,0.49
							c0.01,0,0.01,0.01,0.01,0.01c0.62,0.9,0.4,2.15-0.5,2.78C43.95,188.87,43.56,189,43.15,189z M38.82,182.27
							c-0.7,0-1.36-0.38-1.72-0.98c-4.37-7.42-7.82-15.34-10.25-23.56c-2.5-8.45-3.91-17.23-4.21-26.07
							c-0.04-1.24-0.06-2.48-0.06-3.69c-0.01-13.7,2.56-26.98,7.61-39.5c5.07-12.53,12.47-23.88,22-33.74
							c19.91-20.6,46.64-32.02,75.27-32.15c0.35-0.1,0.73-0.1,1.08,0c10.96,0.05,21.74,1.8,32.069,5.19
							c0.03,0.01,0.061,0.02,0.091,0.03c2.54,0.84,5.08,1.78,7.56,2.82c1.01,0.42,1.5,1.6,1.07,2.61c-0.41,1-1.61,1.5-2.62,1.08
							c-2.391-1-4.86-1.92-7.34-2.74c-10.08-3.31-20.61-4.99-31.3-4.99H128c-27.74,0-53.64,10.99-72.93,30.93
							c-18.37,19.01-28.49,44.03-28.5,70.46c0,1.17,0.02,2.36,0.07,3.56c0.56,16.75,5.37,33.25,13.9,47.72
							c0.56,0.95,0.24,2.18-0.71,2.74C39.53,182.17,39.18,182.27,38.82,182.27z"/>
					</g>
				</g>
				<g>
					<g>
						<path fill="#E6E7E8" d="M219.818,192.013c-0.653-1.83-0.389-3.843,0.652-5.484c10.888-17.165,17.129-37.567,16.951-59.439
							c-0.262-32.201-14.711-61.24-37.336-81.157c16.801,19.085,27.115,43.995,27.336,71.157
							c0.178,21.872-6.063,42.274-16.951,59.439c-1.041,1.64-1.305,3.654-0.652,5.484l10.854,30.422
							c1.762,4.939-3.006,9.707-7.945,7.945l-30.322-10.819c-1.838-0.656-3.862-0.386-5.506,0.666
							c-18.11,11.59-39.854,18-63.148,17.117c-25.908-0.982-49.583-11.102-67.884-27.205c19.218,21.842,46.961,36.033,77.884,37.205
							c23.294,0.882,45.038-5.527,63.148-17.117c1.644-1.052,3.667-1.322,5.506-0.666l30.322,10.819
							c4.939,1.762,9.707-3.006,7.945-7.945L219.818,192.013z"/>
					</g>
				</g>
				<g>
					<g>
						<path fill="#D1D3D4" d="M219.818,192.013c-0.653-1.83-0.389-3.843,0.652-5.484c10.888-17.165,17.129-37.567,16.951-59.439
							c-0.252-30.939-13.599-58.958-34.713-78.772c18.2,19.396,29.482,45.352,29.713,73.772
							c0.178,21.872-6.063,42.274-16.951,59.439c-1.041,1.64-1.305,3.654-0.652,5.484l10.854,30.422
							c1.762,4.939-3.006,9.707-7.945,7.945l-30.322-10.819c-1.838-0.656-3.862-0.386-5.506,0.666
							c-18.11,11.59-39.854,18-63.148,17.117c-27.16-1.029-51.866-12.102-70.498-29.58c19.093,20.349,45.832,33.456,75.498,34.58
							c23.294,0.882,45.038-5.527,63.148-17.117c1.644-1.052,3.667-1.322,5.506-0.666l30.322,10.819
							c4.939,1.762,9.707-3.006,7.945-7.945L219.818,192.013z"/>
					</g>
				</g>
			</g>
		</g>
	</g>
	<g>
		<g>
			<g>
				
					<ellipse transform="matrix(0.9936 -0.113 0.113 0.9936 -13.644 15.2837)" fill="#FFA91A" cx="128" cy="128" rx="68.905" ry="68.904"/>
			</g>
		</g>
		<g>
			<g>
				<path fill="#F79219" d="M169.516,73.003c8.729,11.546,13.908,25.926,13.908,41.515c0,38.055-30.85,68.904-68.904,68.904
					c-15.59,0-29.97-5.179-41.516-13.908c12.579,16.638,32.533,27.389,54.997,27.389c38.054,0,68.904-30.849,68.904-68.904
					C196.905,105.535,186.153,85.582,169.516,73.003z"/>
			</g>
		</g>
		<g>
			<g>
				<path fill="#EF7816" d="M159.183,133.15c1.205,0,2.211,1.001,2.132,2.204c-1.134,17.412-15.617,31.183-33.315,31.183
					c-17.699,0-32.181-13.771-33.315-31.183c-0.078-1.203,0.927-2.204,2.132-2.204H159.183z"/>
			</g>
		</g>
		<g>
			<g>
				<path fill="#FFFFFF" d="M94.685,135.354c0.205,3.151,0.86,6.177,1.88,9.029h62.87c1.02-2.852,1.675-5.878,1.88-9.029
					c0.078-1.202-0.928-2.203-2.132-2.203H96.818C95.613,133.15,94.607,134.151,94.685,135.354z"/>
			</g>
		</g>
		<g>
			<g>
				<g>
					<path fill="#EF7816" d="M112.017,103.582c0,4.806-3.896,8.702-8.702,8.702c-4.806,0-8.702-3.896-8.702-8.702
						c0-4.806,3.896-8.702,8.702-8.702C108.121,94.88,112.017,98.775,112.017,103.582z"/>
				</g>
			</g>
			<g>
				<g>
					<path fill="#EF7816" d="M161.387,103.582c0,4.806-3.896,8.702-8.702,8.702c-4.805,0-8.702-3.896-8.702-8.702
						c0-4.806,3.896-8.702,8.702-8.702C157.491,94.88,161.387,98.775,161.387,103.582z"/>
				</g>
			</g>
		</g>
	</g>
	<g>
		<g>
			<path fill="#FFC91D" d="M92.87,44.482c-2.919,6.332-8.001,11.415-14.333,14.333c-1.463,0.662-2.112,2.385-1.449,3.848
				c0.291,0.643,0.806,1.158,1.449,1.449c6.333,2.917,11.416,7.999,14.333,14.331c0.657,1.465,2.377,2.121,3.843,1.464
				c0.651-0.292,1.172-0.813,1.464-1.464c2.917-6.333,8-11.416,14.333-14.331c1.463-0.662,2.112-2.385,1.449-3.848
				c-0.291-0.643-0.806-1.158-1.449-1.449c-6.333-2.917-11.416-8-14.333-14.333c-0.657-1.465-2.377-2.121-3.843-1.464
				C93.683,43.309,93.162,43.831,92.87,44.482z"/>
		</g>
	</g>
	<g>
		<g>
			<path fill="#FFC91D" d="M103.357,181.226c-2.919,6.332-8.001,11.415-14.333,14.333c-1.463,0.662-2.112,2.385-1.449,3.848
				c0.291,0.643,0.806,1.158,1.449,1.449c6.333,2.917,11.416,7.999,14.333,14.331c0.657,1.465,2.377,2.121,3.843,1.464
				c0.651-0.292,1.172-0.813,1.464-1.464c2.916-6.333,8-11.416,14.333-14.331c1.463-0.662,2.112-2.385,1.449-3.848
				c-0.291-0.643-0.806-1.158-1.449-1.449c-6.333-2.917-11.416-8-14.333-14.333c-0.657-1.465-2.377-2.121-3.843-1.464
				C104.17,180.054,103.649,180.575,103.357,181.226z"/>
		</g>
	</g>
	<g>
		<g>
			<path fill="#FFC91D" d="M197.319,117.747c-2.723,5.908-7.465,10.649-13.372,13.373c-1.365,0.618-1.97,2.225-1.352,3.59
				c0.272,0.6,0.752,1.08,1.352,1.352c5.908,2.721,10.65,7.463,13.372,13.371c0.613,1.367,2.218,1.979,3.585,1.366
				c0.607-0.272,1.094-0.758,1.366-1.366c2.721-5.909,7.463-10.65,13.372-13.371c1.365-0.618,1.97-2.225,1.352-3.59
				c-0.272-0.6-0.752-1.081-1.352-1.352c-5.909-2.721-10.651-7.464-13.372-13.373c-0.613-1.367-2.218-1.979-3.585-1.366
				C198.078,116.653,197.592,117.14,197.319,117.747z"/>
		</g>
	</g>
</g>
</svg>
