<?xml version="1.0" encoding="utf-8"?>
<!-- Generator: Adobe Illustrator 24.0.0, SVG Export Plug-In . SVG Version: 6.00 Build 0)  -->
<svg version="1.1" id="Layer_1" xmlns="http://www.w3.org/2000/svg" xmlns:xlink="http://www.w3.org/1999/xlink" x="0px" y="0px"
	 viewBox="0 0 256 256" enable-background="new 0 0 256 256" xml:space="preserve">
<g>
	<g>
		<g>
			<g>
				<g>
					<path fill="#58595B" d="M128,19.402c-34.945,0-63.273,28.328-63.273,63.273c0,34.945,28.328,63.273,63.273,63.273
						c34.945,0,63.273-28.328,63.273-63.273C191.273,47.73,162.945,19.402,128,19.402z"/>
				</g>
			</g>
		</g>
		<g>
			<g>
				<g>
					<g>
						<g>
							<g>
								<g>
									<g>
										<g>
											<path fill="#F1F2F2" d="M128,44.925c-20.841,0-37.736,16.895-37.736,37.736c0,20.841,16.895,37.736,37.736,37.736
												c20.841,0,37.736-16.895,37.736-37.736C165.736,61.82,148.841,44.925,128,44.925z M128,102.901
												c-11.178,0-20.24-9.062-20.24-20.24c0-11.178,9.062-20.24,20.24-20.24c11.178,0,20.24,9.062,20.24,20.24
												C148.24,93.839,139.178,102.901,128,102.901z"/>
										</g>
									</g>
								</g>
								<g>
									<g>
										<g>
											<g>
												<path fill="#FFFFFF" d="M164.756,74.079l9.174-8.093c1.381-1.219,1.713-3.242,0.791-4.838l-4.88-8.452
													c-0.921-1.595-2.839-2.32-4.585-1.733l-11.7,3.933C159.032,59.939,163.012,66.58,164.756,74.079z"/>
											</g>
										</g>
									</g>
									<g>
										<g>
											<g>
												<path fill="#FFFFFF" d="M82.07,65.986l9.174,8.093c1.744-7.499,5.724-14.14,11.199-19.183l-11.7-3.933
													c-1.746-0.587-3.664,0.138-4.585,1.733l-4.88,8.452C80.357,62.744,80.689,64.767,82.07,65.986z"/>
											</g>
										</g>
									</g>
									<g>
										<g>
											<g>
												<path fill="#FFFFFF" d="M128,44.925c3.845,0,7.554,0.575,11.049,1.644l-2.376-11.764
													c-0.364-1.806-1.951-3.104-3.794-3.104h-9.759c-1.842,0-3.429,1.298-3.794,3.104l-2.376,11.764
													C120.446,45.5,124.155,44.925,128,44.925z"/>
											</g>
										</g>
									</g>
									<g>
										<g>
											<g>
												<path fill="#FFFFFF" d="M173.632,98.818l-8.828-7.788c-1.684,7.435-5.562,14.036-10.919,19.088l11.074,3.723
													c1.746,0.587,3.664-0.138,4.585-1.734l4.88-8.452C175.344,102.061,175.013,100.038,173.632,98.818z"/>
											</g>
										</g>
									</g>
									<g>
										<g>
											<g>
												<path fill="#FFFFFF" d="M128,120.396c-3.845,0-7.554-0.575-11.049-1.644l2.376,11.764
													c0.365,1.806,1.952,3.104,3.794,3.104h9.759c1.842,0,3.429-1.298,3.794-3.104l2.376-11.764
													C135.554,119.821,131.845,120.396,128,120.396z"/>
											</g>
										</g>
									</g>
									<g>
										<g>
											<g>
												<path fill="#FFFFFF" d="M91.196,91.031l-8.828,7.788c-1.381,1.219-1.713,3.242-0.791,4.838l4.88,8.452
													c0.921,1.596,2.839,2.321,4.585,1.734l11.074-3.723C96.759,105.067,92.88,98.466,91.196,91.031z"/>
											</g>
										</g>
									</g>
								</g>
							</g>
						</g>
					</g>
				</g>
			</g>
		</g>
	</g>
	<g>
		<g>
			<g>
				<g>
					<g>
						<path fill="#E63950" d="M202.028,57.017c-14.163,0-25.644,11.481-25.644,25.644c0,14.163,11.481,25.644,25.644,25.644
							c14.163,0,25.644-11.481,25.644-25.644C227.672,68.498,216.191,57.017,202.028,57.017z"/>
					</g>
				</g>
			</g>
			<g>
				<g>
					<g>
						<g>
							<g>
								<g>
									<g>
										<g>
											<g>
												<path fill="#F1F2F2" d="M202.028,67.361c-8.447,0-15.294,6.847-15.294,15.294c0,8.447,6.847,15.294,15.294,15.294
													c8.447,0,15.294-6.847,15.294-15.294C217.322,74.208,210.475,67.361,202.028,67.361z M202.028,90.858
													c-4.53,0-8.203-3.673-8.203-8.203c0-4.53,3.673-8.203,8.203-8.203s8.203,3.673,8.203,8.203
													C210.232,87.185,206.559,90.858,202.028,90.858z"/>
											</g>
										</g>
									</g>
									<g>
										<g>
											<g>
												<g>
													<path fill="#FFFFFF" d="M216.925,79.177l3.718-3.28c0.56-0.494,0.694-1.314,0.321-1.961l-1.978-3.425
														c-0.373-0.646-1.151-0.94-1.858-0.702l-4.742,1.594C214.605,73.446,216.218,76.138,216.925,79.177z"/>
												</g>
											</g>
										</g>
										<g>
											<g>
												<g>
													<path fill="#FFFFFF" d="M183.414,75.897l3.718,3.28c0.707-3.039,2.32-5.731,4.539-7.774l-4.742-1.594
														c-0.708-0.238-1.485,0.056-1.858,0.702l-1.978,3.425C182.719,74.583,182.854,75.403,183.414,75.897z"/>
												</g>
											</g>
										</g>
										<g>
											<g>
												<g>
													<path fill="#FFFFFF" d="M202.028,67.361c1.558,0,3.062,0.233,4.478,0.666l-0.963-4.768
														c-0.148-0.732-0.791-1.258-1.538-1.258h-3.955c-0.747,0-1.39,0.526-1.538,1.258l-0.963,4.768
														C198.967,67.594,200.47,67.361,202.028,67.361z"/>
												</g>
											</g>
										</g>
										<g>
											<g>
												<g>
													<path fill="#FFFFFF" d="M220.522,89.203l-3.578-3.156c-0.682,3.013-2.254,5.689-4.425,7.736l4.488,1.509
														c0.708,0.238,1.485-0.056,1.858-0.703l1.978-3.425C221.217,90.517,221.082,89.697,220.522,89.203z"/>
												</g>
											</g>
										</g>
										<g>
											<g>
												<g>
													<path fill="#FFFFFF" d="M202.028,97.949c-1.558,0-3.062-0.233-4.478-0.666l0.963,4.768
														c0.148,0.732,0.791,1.258,1.538,1.258h3.955c0.747,0,1.39-0.526,1.538-1.258l0.963-4.768
														C205.09,97.716,203.587,97.949,202.028,97.949z"/>
												</g>
											</g>
										</g>
										<g>
											<g>
												<g>
													<path fill="#FFFFFF" d="M187.112,86.047l-3.578,3.156c-0.56,0.494-0.694,1.314-0.321,1.961l1.978,3.425
														c0.373,0.647,1.151,0.94,1.858,0.703l4.488-1.509C189.367,91.736,187.795,89.06,187.112,86.047z"/>
												</g>
											</g>
										</g>
									</g>
								</g>
							</g>
						</g>
					</g>
				</g>
			</g>
		</g>
		<g>
			<g>
				<g>
					<g>
						<path fill="#76A34F" d="M53.972,57.017c-14.163,0-25.644,11.481-25.644,25.644c0,14.163,11.481,25.644,25.644,25.644
							c14.163,0,25.644-11.481,25.644-25.644C79.615,68.498,68.134,57.017,53.972,57.017z"/>
					</g>
				</g>
			</g>
			<g>
				<g>
					<g>
						<g>
							<g>
								<g>
									<g>
										<g>
											<g>
												<path fill="#F1F2F2" d="M53.972,67.361c-8.447,0-15.294,6.847-15.294,15.294c0,8.447,6.847,15.294,15.294,15.294
													c8.447,0,15.294-6.847,15.294-15.294C69.265,74.208,62.418,67.361,53.972,67.361z M53.972,90.858
													c-4.53,0-8.203-3.673-8.203-8.203c0-4.53,3.673-8.203,8.203-8.203s8.203,3.673,8.203,8.203
													C62.175,87.185,58.502,90.858,53.972,90.858z"/>
											</g>
										</g>
									</g>
									<g>
										<g>
											<g>
												<g>
													<path fill="#FFFFFF" d="M68.868,79.177l3.718-3.28c0.56-0.494,0.694-1.314,0.321-1.961l-1.978-3.425
														c-0.373-0.646-1.151-0.94-1.858-0.702l-4.742,1.594C66.548,73.446,68.161,76.138,68.868,79.177z"/>
												</g>
											</g>
										</g>
										<g>
											<g>
												<g>
													<path fill="#FFFFFF" d="M35.357,75.897l3.718,3.28c0.707-3.039,2.32-5.731,4.539-7.774l-4.742-1.594
														c-0.708-0.238-1.485,0.056-1.858,0.702l-1.978,3.425C34.663,74.583,34.797,75.403,35.357,75.897z"/>
												</g>
											</g>
										</g>
										<g>
											<g>
												<g>
													<path fill="#FFFFFF" d="M53.972,67.361c1.558,0,3.062,0.233,4.478,0.666l-0.963-4.768
														c-0.148-0.732-0.791-1.258-1.538-1.258h-3.955c-0.747,0-1.39,0.526-1.538,1.258l-0.963,4.768
														C50.91,67.594,52.413,67.361,53.972,67.361z"/>
												</g>
											</g>
										</g>
										<g>
											<g>
												<g>
													<path fill="#FFFFFF" d="M72.466,89.203l-3.578-3.156c-0.682,3.013-2.254,5.689-4.425,7.736l4.488,1.509
														c0.708,0.238,1.485-0.056,1.858-0.703l1.978-3.425C73.16,90.517,73.025,89.697,72.466,89.203z"/>
												</g>
											</g>
										</g>
										<g>
											<g>
												<g>
													<path fill="#FFFFFF" d="M53.972,97.949c-1.558,0-3.062-0.233-4.478-0.666l0.963,4.768
														c0.148,0.732,0.791,1.258,1.538,1.258h3.955c0.747,0,1.39-0.526,1.538-1.258l0.963-4.768
														C57.033,97.716,55.53,97.949,53.972,97.949z"/>
												</g>
											</g>
										</g>
										<g>
											<g>
												<g>
													<path fill="#FFFFFF" d="M39.055,86.047l-3.578,3.156c-0.56,0.494-0.694,1.314-0.321,1.961l1.978,3.425
														c0.373,0.647,1.151,0.94,1.858,0.703l4.488-1.509C41.31,91.736,39.738,89.06,39.055,86.047z"/>
												</g>
											</g>
										</g>
									</g>
								</g>
							</g>
						</g>
					</g>
				</g>
			</g>
		</g>
	</g>
	<g>
		<g>
			<path fill="#F2AD97" d="M139.888,181.661l-14.145-25.444l38.225-5.951l44.984-19.722c4.827-2.116,10.455,0.081,12.571,4.908v0
				c2.116,4.827-0.081,10.455-4.908,12.571L139.888,181.661z"/>
		</g>
		<g>
			<path fill="#FCC4AE" d="M165.002,186.898l65.878-25.077c4.914-1.87,7.641-7.131,6.337-12.225v0
				c-1.531-5.978-7.924-9.292-13.691-7.097l-42.597,16.215h0l-12.625-1.254l-36.883,9.443c-5.896,1.509-11.899-2.046-13.409-7.942
				l-7.908-30.887c0,0,0,0,0,0l-37.857,9.692c-1.838,0.471-3.504,1.454-4.804,2.836l-10.108,10.747l36.065,36.065l2.273-2.203
				c0.951-0.922,2.297-1.313,3.594-1.045l26.606,5.498l0,0l34.679-2.128C162.021,187.647,163.534,187.457,165.002,186.898z"/>
		</g>
		<g>
			<g>
				<path fill="#F2AD97" d="M237.217,149.596L237.217,149.596c-0.804-3.142-2.958-5.536-5.652-6.793
					c0.263,0.568,0.49,1.162,0.652,1.793v0c1.304,5.093-1.423,10.354-6.337,12.224l-65.878,25.077
					c-1.467,0.559-2.981,0.749-4.45,0.638l-34.679,2.128l-26.606-5.498c-1.297-0.268-2.643,0.123-3.594,1.045l-2.273,2.203l5,5
					l2.273-2.203c0.951-0.922,2.297-1.313,3.594-1.045l26.606,5.498l34.679-2.128c1.469,0.111,2.983-0.079,4.45-0.638l65.878-25.077
					C235.794,159.95,238.521,154.69,237.217,149.596z"/>
			</g>
		</g>
		<g>
			<path fill="#FCC4AE" d="M123.948,157.93l-8.301-18.934l49.63-21.759c1.115-0.489,2.415,0.019,2.903,1.134l0,0
				c4.096,9.342-0.157,20.236-9.499,24.332L123.948,157.93z"/>
		</g>
		<g>
			<g>
				<path fill="#FFA91A" d="M80.495,222.455l19.272-19.272c2.596-2.596,2.596-6.805,0-9.401l-50.688-50.688
					c-2.596-2.596-6.805-2.596-9.401,0l-19.272,19.272c-2.596,2.596-2.596,6.805,0,9.401l50.688,50.688
					C73.69,225.051,77.899,225.051,80.495,222.455z"/>
			</g>
			<g>
				<path fill="#F79219" d="M99.767,193.781l-10-10c2.596,2.596,2.596,6.805,0,9.401l-19.272,19.272
					c-2.596,2.596-6.805,2.596-9.401,0l10,10c2.596,2.596,6.805,2.596,9.401,0l19.272-19.272
					C102.363,200.586,102.363,196.377,99.767,193.781z"/>
			</g>
			<g>
				<path fill="#EF7816" d="M99.767,193.781l-5-5c2.596,2.596,2.596,6.805,0,9.401l-19.272,19.272c-2.596,2.596-6.805,2.596-9.401,0
					l5,5c2.596,2.596,6.805,2.596,9.401,0l19.272-19.272C102.363,200.586,102.363,196.377,99.767,193.781z"/>
			</g>
		</g>
		<g>
			<path fill="#FCC4AE" d="M144.632,148.861l-6.793-19.595l-27.734-1.192l7.908,30.887c1.509,5.896,7.513,9.452,13.409,7.942
				L144.632,148.861z"/>
		</g>
		<g>
			<path fill="#FFD2C0" d="M65.689,153.22c-0.51,0-1-0.19-1.37-0.54c-0.8-0.76-0.84-2.03-0.079-2.83l6.119-6.51
				c0.78-0.83,1.771-1.42,2.881-1.7l37-9.47l0.569-0.06l27.78,1.19l15.47-6.78c0.99-0.43,2.2,0.05,2.63,1.03
				c0.44,1.01-0.02,2.19-1.029,2.64l-15.891,6.96c-0.279,0.12-0.59,0.19-0.88,0.17l-27.95-1.2l-36.71,9.4
				c-0.37,0.09-0.699,0.29-0.96,0.56l-6.12,6.51C66.77,152.99,66.24,153.22,65.689,153.22z M162.189,127.14
				c-0.8,0-1.52-0.47-1.84-1.19c-0.439-1.01,0.021-2.2,1.03-2.64c0.99-0.43,2.21,0.05,2.64,1.03c0.21,0.49,0.221,1.03,0.03,1.53
				c-0.2,0.5-0.57,0.89-1.06,1.1C162.729,127.08,162.46,127.14,162.189,127.14z"/>
		</g>
	</g>
</g>
</svg>
