<?xml version="1.0" encoding="utf-8"?>
<!-- Generator: Adobe Illustrator 24.0.0, SVG Export Plug-In . SVG Version: 6.00 Build 0)  -->
<svg version="1.1" id="Layer_1" xmlns="http://www.w3.org/2000/svg" xmlns:xlink="http://www.w3.org/1999/xlink" x="0px" y="0px"
	 viewBox="0 0 256 256" enable-background="new 0 0 256 256" xml:space="preserve">
<g>
	<g>
		<g>
			<path fill="#58595B" d="M150.926,40.228L150.926,40.228c6.081,6.08,14.327,9.496,22.926,9.496h0
				c17.907,0,32.423,14.516,32.423,32.423v0c0,8.599,3.416,16.846,9.496,22.926h0c12.662,12.662,12.662,33.191,0,45.853l0,0
				c-6.08,6.08-9.496,14.327-9.496,22.926v0c0,17.907-14.516,32.423-32.423,32.423h0c-8.599,0-16.846,3.416-22.926,9.496l0,0
				c-12.662,12.662-33.191,12.662-45.853,0l0,0c-6.08-6.08-14.327-9.496-22.926-9.496h0c-17.907,0-32.423-14.516-32.423-32.423v0
				c0-8.599-3.416-16.846-9.496-22.926l0,0c-12.662-12.662-12.662-33.191,0-45.853h0c6.08-6.08,9.496-14.327,9.496-22.926v0
				c0-17.907,14.516-32.423,32.423-32.423h0c8.599,0,16.846-3.416,22.926-9.496h0C117.736,27.566,138.264,27.566,150.926,40.228z"/>
		</g>
		<g>
			<g>
				<path fill="#414042" d="M128,217.858c-8.413,0-16.323-3.276-22.271-9.225c-5.074-5.074-11.82-7.868-18.996-7.868
					c-17.367,0-31.496-14.129-31.496-31.496c0-7.176-2.795-13.922-7.869-18.996c-5.949-5.949-9.225-13.858-9.225-22.271
					c0-8.413,3.276-16.322,9.225-22.271c5.074-5.074,7.869-11.82,7.869-18.996c0-17.367,14.129-31.496,31.496-31.496
					c7.176,0,13.922-2.794,18.996-7.868c5.949-5.949,13.858-9.225,22.272-9.225c8.413,0,16.323,3.276,22.271,9.225
					c5.074,5.074,11.82,7.868,18.996,7.868c17.367,0,31.496,14.129,31.496,31.496c0,7.176,2.795,13.922,7.869,18.996
					c5.949,5.949,9.225,13.858,9.225,22.271c0,8.413-3.276,16.323-9.225,22.271c-5.074,5.074-7.869,11.821-7.869,18.996
					c0,17.367-14.129,31.497-31.496,31.497c-7.176,0-13.922,2.794-18.996,7.868C144.323,214.581,136.413,217.858,128,217.858z
					 M128,42.774c-7.176,0-13.922,2.794-18.996,7.868c-5.949,5.949-13.858,9.225-22.272,9.225
					c-14.813,0-26.865,12.051-26.865,26.864c0,8.413-3.276,16.322-9.225,22.271c-5.074,5.074-7.869,11.821-7.869,18.996
					c0,7.176,2.794,13.922,7.869,18.996c5.949,5.949,9.225,13.858,9.225,22.271c0,14.813,12.051,26.865,26.865,26.865
					c8.413,0,16.323,3.276,22.271,9.225c5.074,5.074,11.82,7.868,18.996,7.868s13.922-2.794,18.996-7.868
					c5.949-5.949,13.858-9.225,22.272-9.225c14.813,0,26.865-12.051,26.865-26.865c0-8.413,3.276-16.323,9.225-22.271
					c5.074-5.074,7.869-11.82,7.869-18.996c0-7.176-2.795-13.922-7.869-18.996c-5.949-5.949-9.225-13.858-9.225-22.271
					c0-14.813-12.051-26.864-26.865-26.864c-8.413,0-16.323-3.276-22.271-9.225l1.638-1.638l-1.638,1.638
					C141.922,45.569,135.176,42.774,128,42.774z"/>
			</g>
		</g>
		<g>
			<circle fill="#F1F2F2" cx="128" cy="128" r="55.582"/>
		</g>
		<g>
			<g>
				<path fill="#FFFFFF" d="M89.56,161.28c-0.6,0-1.16-0.26-1.54-0.72c0-0.01-0.01-0.01-0.01-0.01c-0.7-0.86-0.57-2.12,0.29-2.82
					c0.82-0.67,2.14-0.53,2.81,0.29c0.34,0.41,0.49,0.93,0.44,1.47c-0.05,0.53-0.31,1.01-0.73,1.34
					C90.47,161.12,90.02,161.28,89.56,161.28z M85.02,154.71c-0.71,0-1.37-0.39-1.73-1.01c-4.5-7.78-6.87-16.67-6.87-25.7
					c0-28.44,23.14-51.58,51.58-51.58c12.34,0,24.29,4.44,33.64,12.5c0.83,0.73,0.93,1.99,0.21,2.83c-0.7,0.8-2.02,0.9-2.819,0.21
					c-8.641-7.44-19.66-11.54-31.03-11.54c-12.69,0-24.63,4.95-33.63,13.95S80.42,115.31,80.42,128c0,8.32,2.19,16.52,6.33,23.71
					c0.27,0.46,0.34,1,0.2,1.51c-0.13,0.52-0.47,0.95-0.93,1.22C85.72,154.61,85.37,154.71,85.02,154.71z"/>
			</g>
		</g>
		<g>
			<path fill="#E6E7E8" d="M161.975,84.025c7.27,9.396,11.607,21.175,11.607,33.975c0,30.697-24.885,55.582-55.582,55.582
				c-12.799,0-24.579-4.337-33.975-11.607c10.166,13.139,26.077,21.607,43.975,21.607c30.697,0,55.582-24.885,55.582-55.582
				C183.582,110.102,175.113,94.191,161.975,84.025z"/>
		</g>
		<g>
			<path fill="#D1D3D4" d="M164.713,86.287c8.626,9.793,13.869,22.637,13.869,36.713c0,30.697-24.885,55.582-55.582,55.582
				c-14.076,0-26.92-5.243-36.713-13.869c10.186,11.564,25.092,18.869,41.713,18.869c30.697,0,55.582-24.885,55.582-55.582
				C183.582,111.379,176.277,96.472,164.713,86.287z"/>
		</g>
	</g>
	<g>
		<g>
			<rect x="99.495" y="99.194" fill="#D1D3D4" width="7.505" height="57.611"/>
		</g>
		<g>
			<rect x="124.248" y="99.194" fill="#D1D3D4" width="7.505" height="57.611"/>
		</g>
		<g>
			<rect x="149" y="99.194" fill="#D1D3D4" width="7.505" height="57.611"/>
		</g>
	</g>
	<g>
		<circle fill="#76A34F" cx="103.248" cy="104.262" r="8.388"/>
	</g>
	<g>
		<circle fill="#FFA91A" cx="128" cy="153.044" r="8.388"/>
	</g>
	<g>
		<circle fill="#E63950" cx="152.752" cy="123.466" r="8.388"/>
	</g>
</g>
</svg>
