<?xml version="1.0" encoding="utf-8"?>
<!-- Generator: Adobe Illustrator 24.0.0, SVG Export Plug-In . SVG Version: 6.00 Build 0)  -->
<svg version="1.1" id="Layer_1" xmlns="http://www.w3.org/2000/svg" xmlns:xlink="http://www.w3.org/1999/xlink" x="0px" y="0px"
	 viewBox="0 0 256 256" enable-background="new 0 0 256 256" xml:space="preserve">
<g>
	<g>
		<g>
			<g>
				<g>
					<g>
						<g>
							<g>
								<g>
									<path fill="#E6E7E8" d="M128,30.104c-42.826,0-77.544,34.718-77.544,77.544c0,42.826,34.718,77.544,77.544,77.544
										c42.826,0,77.544-34.718,77.544-77.544C205.544,64.821,170.826,30.104,128,30.104z M128,119.645
										c-6.626,0-11.998-5.371-11.998-11.998c0-6.626,5.372-11.998,11.998-11.998c6.626,0,11.998,5.372,11.998,11.998
										C139.998,114.274,134.626,119.645,128,119.645z"/>
								</g>
							</g>
						</g>
						<g>
							<g>
								<g>
									<path fill="#E6E7E8" d="M128,30.104c-42.826,0-77.544,34.718-77.544,77.544c0,42.826,34.718,77.544,77.544,77.544
										c42.826,0,77.544-34.718,77.544-77.544C205.544,64.821,170.826,30.104,128,30.104z M128,119.645
										c-6.626,0-11.998-5.371-11.998-11.998c0-6.626,5.372-11.998,11.998-11.998c6.626,0,11.998,5.372,11.998,11.998
										C139.998,114.274,134.626,119.645,128,119.645z"/>
								</g>
							</g>
						</g>
						<g>
							<g>
								<g>
									<path fill="#D1D3D4" d="M119.278,115.885c-11.483,11.362-31.863,32.083-46.098,46.605
										c14.032,14.026,33.413,22.701,54.82,22.701v-65.546C124.564,119.645,121.465,118.2,119.278,115.885z"/>
								</g>
							</g>
						</g>
						<g>
							<g>
								<g>
									<path fill="#F1F2F2" d="M193.301,65.812l-55.198,35.363c0.62,0.965,1.104,2.025,1.429,3.153l63.004-18.137
										C200.442,78.901,197.307,72.05,193.301,65.812z"/>
								</g>
							</g>
						</g>
						<g>
							<g>
								<g>
									<path fill="#F1F2F2" d="M128,30.104c-18.423,0-35.346,6.425-48.65,17.156l41.123,51.045
										c2.058-1.66,4.676-2.655,7.527-2.655c2.513,0,4.846,0.773,6.773,2.094l37.006-54.108
										C159.321,35.098,144.244,30.104,128,30.104z"/>
								</g>
							</g>
						</g>
						<g>
							<g>
								<g>
									<path fill="#478CF7" d="M128,64.204c-23.993,0-43.443,19.45-43.443,43.443c0,23.993,19.45,43.443,43.443,43.443
										c23.993,0,43.443-19.45,43.443-43.443C171.443,83.654,151.993,64.204,128,64.204z"/>
								</g>
							</g>
						</g>
						<g>
							<g>
								<path fill="#5E9CF7" d="M98.98,133.28c-0.6,0-1.17-0.27-1.55-0.73c0,0,0,0,0-0.01c-0.7-0.85-0.57-2.11,0.28-2.81
									c0.83-0.68,2.15-0.54,2.81,0.28c0.7,0.86,0.57,2.12-0.28,2.82C99.88,133.12,99.44,133.28,98.98,133.28z M94.62,126.59
									c-0.76,0-1.45-0.42-1.79-1.09c-2.8-5.49-4.27-11.67-4.27-17.85c0-21.75,17.69-39.44,39.44-39.44
									c7.319,0,14.46,2.02,20.66,5.85c0.449,0.28,0.77,0.72,0.899,1.24c0.12,0.52,0.03,1.06-0.25,1.51
									c-0.56,0.91-1.84,1.21-2.75,0.65c-5.569-3.44-11.99-5.26-18.56-5.26c-9.45,0-18.35,3.7-25.05,10.4
									c-6.7,6.7-10.39,15.6-10.39,25.05c0,5.64,1.29,11.03,3.84,16.03c0.5,0.98,0.1,2.19-0.88,2.69
									C95.24,126.52,94.93,126.59,94.62,126.59z"/>
							</g>
						</g>
						<g>
							<path fill="#377DE2" d="M153.303,72.344c5.117,7.127,8.14,15.859,8.14,25.303c0,23.993-19.45,43.443-43.443,43.443
								c-9.444,0-18.176-3.023-25.303-8.14c7.884,10.98,20.754,18.14,35.303,18.14c23.993,0,43.443-19.45,43.443-43.443
								C171.443,93.098,164.284,80.229,153.303,72.344z"/>
						</g>
						<g>
							<path fill="#2266D3" d="M156.11,74.537c6.44,7.578,10.333,17.387,10.333,28.11c0,23.993-19.45,43.443-43.443,43.443
								c-10.724,0-20.533-3.893-28.11-10.333c7.969,9.377,19.841,15.333,33.11,15.333c23.993,0,43.443-19.45,43.443-43.443
								C171.443,94.378,165.487,82.506,156.11,74.537z"/>
						</g>
					</g>
				</g>
				<g>
					<g>
						<g>
							<path fill="#939598" d="M128,174.094c-36.639,0-66.446-29.808-66.446-66.446S91.361,41.201,128,41.201
								s66.446,29.808,66.446,66.446S164.639,174.094,128,174.094z M128,45.201c-34.433,0-62.446,28.013-62.446,62.446
								S93.567,170.094,128,170.094c34.433,0,62.446-28.013,62.446-62.446S162.433,45.201,128,45.201z"/>
						</g>
					</g>
				</g>
			</g>
			<g>
				<path fill="#58595B" d="M201.544,225.896H54.456c-2.209,0-4-1.791-4-4v-15.282c0-2.209,1.791-4,4-4h147.088c2.209,0,4,1.791,4,4
					v15.282C205.544,224.105,203.753,225.896,201.544,225.896z"/>
			</g>
			<g>
				<path fill="#E6E7E8" d="M196.19,218.666H59.81c-1.105,0-2-0.895-2-2v-4.821c0-1.105,0.895-2,2-2H196.19c1.105,0,2,0.895,2,2
					v4.821C198.19,217.77,197.295,218.666,196.19,218.666z"/>
			</g>
		</g>
		<g>
			<path fill="#5E9CF7" d="M160.345,209.845H59.81c-1.105,0-2,0.896-2,2v4.821c0,1.105,0.895,2,2,2h100.536V209.845z"/>
		</g>
	</g>
	<g>
		<g>
			<g>
				<g>
					<g>
						<g>
							<path fill="#FFFFFF" d="M115.423,90.247l11.325-12.758c0.666-0.75,1.837-0.75,2.503,0l11.325,12.758
								c0.958,1.08,0.192,2.785-1.252,2.785h-4.929c-0.231,0-0.418,0.187-0.418,0.418v13.703c0,0.924-0.749,1.674-1.674,1.674
								h-8.609c-0.924,0-1.674-0.749-1.674-1.674V93.45c0-0.231-0.187-0.418-0.418-0.418h-4.929
								C115.231,93.032,114.465,91.327,115.423,90.247z"/>
						</g>
					</g>
				</g>
			</g>
		</g>
		<g>
			<g>
				<g>
					<g>
						<g>
							<path fill="#FFFFFF" d="M98.735,115.429l11.325-12.758c0.666-0.75,1.837-0.75,2.503,0l11.325,12.758
								c0.958,1.08,0.192,2.785-1.252,2.785h-4.929c-0.231,0-0.418,0.187-0.418,0.418v13.703c0,0.924-0.749,1.674-1.674,1.674
								h-8.609c-0.924,0-1.674-0.749-1.674-1.674v-13.703c0-0.231-0.187-0.418-0.418-0.418h-4.929
								C98.543,118.214,97.776,116.509,98.735,115.429z"/>
						</g>
					</g>
				</g>
			</g>
		</g>
		<g>
			<g>
				<g>
					<g>
						<g>
							<path fill="#FFFFFF" d="M132.111,115.429l11.325-12.758c0.666-0.75,1.837-0.75,2.503,0l11.325,12.758
								c0.958,1.08,0.192,2.785-1.252,2.785h-4.929c-0.231,0-0.418,0.187-0.418,0.418v13.703c0,0.924-0.749,1.674-1.674,1.674
								h-8.609c-0.924,0-1.674-0.749-1.674-1.674v-13.703c0-0.231-0.187-0.418-0.418-0.418h-4.929
								C131.919,118.214,131.153,116.509,132.111,115.429z"/>
						</g>
					</g>
				</g>
			</g>
		</g>
	</g>
</g>
</svg>
