<?xml version="1.0" encoding="utf-8"?>
<!-- Generator: Adobe Illustrator 24.0.0, SVG Export Plug-In . SVG Version: 6.00 Build 0)  -->
<svg version="1.1" id="Layer_1" xmlns="http://www.w3.org/2000/svg" xmlns:xlink="http://www.w3.org/1999/xlink" x="0px" y="0px"
	 viewBox="0 0 256 256" enable-background="new 0 0 256 256" xml:space="preserve">
<g>
	<g>
		<g>
			<g>
				<g>
					<g>
						<g>
							<g>
								<g>
									<g>
										<path fill="#8C3F0A" d="M171.882,232.054H36.477c-5.522,0-9.999-4.477-9.999-9.999V33.945
											c0-5.522,4.477-9.999,9.999-9.999h135.405c5.522,0,9.999,4.477,9.999,9.999v188.109
											C181.881,227.577,177.404,232.054,171.882,232.054z"/>
									</g>
								</g>
							</g>
							<g>
								<g>
									<path fill="#EF7816" d="M147.877,27.733H60.482c-2.473,0-4.478,2.005-4.478,4.478v5.709h96.351v-5.709
										C152.355,29.737,150.35,27.733,147.877,27.733z"/>
								</g>
							</g>
							<g>
								<g>
									<g>
										<path fill="#7C3108" d="M175.998,24.83c0.568,1.255,0.883,2.649,0.883,4.116v188.109c0,5.522-4.477,9.999-9.999,9.999
											H31.477c-1.467,0-2.86-0.316-4.115-0.883c1.569,3.469,5.06,5.883,9.115,5.883h135.405c5.522,0,9.999-4.477,9.999-9.999
											V33.945C181.881,29.89,179.467,26.399,175.998,24.83z"/>
									</g>
								</g>
							</g>
							<g>
								<g>
									<g>
										<path fill="#F1F2F2" d="M165.285,218.113H43.073c-1.841,0-3.333-1.492-3.333-3.333V41.253
											c0-1.841,1.492-3.333,3.333-3.333h122.212c1.841,0,3.333,1.492,3.333,3.333V214.78
											C168.618,216.621,167.126,218.113,165.285,218.113z"/>
									</g>
								</g>
							</g>
							<g>
								<path fill="#FFFFFF" d="M45.74,203.1c-1.101,0-2-0.9-2-2c0-1.11,0.899-2,2-2c1.1,0,2,0.89,2,2
									C47.74,202.2,46.84,203.1,45.74,203.1z M45.74,195.1c-1.101,0-2-0.9-2-2V43.92c0-0.53,0.21-1.04,0.59-1.41
									c0.37-0.38,0.88-0.59,1.41-0.59h13.64c1.1,0,1.99,0.9,1.99,2s-0.891,2-1.99,2H47.74V193.1
									C47.74,194.2,46.84,195.1,45.74,195.1z"/>
							</g>
							<g>
								<g>
									<g>
										<g>
											<g>
												<path fill="#D1D3D4" d="M143.533,84.621H112.1c-2.507,0-4.539-2.032-4.539-4.54l0,0c0-2.507,2.032-4.539,4.539-4.539
													h31.433c2.507,0,4.54,2.032,4.54,4.539l0,0C148.072,82.588,146.04,84.621,143.533,84.621z"/>
											</g>
										</g>
									</g>
									<g>
										<g>
											<path fill="#D1D3D4" d="M152.448,100.354H112.1c-2.507,0-4.539-2.032-4.539-4.54l0,0c0-2.507,2.032-4.539,4.539-4.539
												h40.348c2.507,0,4.54,2.032,4.54,4.539l0,0C156.988,98.321,154.955,100.354,152.448,100.354z"/>
										</g>
									</g>
									<g>
										<g>
											<g>
												<path fill="#D1D3D4" d="M143.533,132.043H112.1c-2.507,0-4.539-2.032-4.539-4.539l0,0c0-2.507,2.032-4.539,4.539-4.539
													h31.433c2.507,0,4.54,2.032,4.54,4.539l0,0C148.072,130.01,146.04,132.043,143.533,132.043z"/>
											</g>
										</g>
									</g>
									<g>
										<g>
											<path fill="#D1D3D4" d="M152.448,147.775H112.1c-2.507,0-4.539-2.033-4.539-4.54l0,0c0-2.507,2.032-4.54,4.539-4.54
												h40.348c2.507,0,4.54,2.032,4.54,4.54l0,0C156.988,145.743,154.955,147.775,152.448,147.775z"/>
										</g>
									</g>
									<g>
										<g>
											<g>
												<path fill="#D1D3D4" d="M143.533,179.465H112.1c-2.507,0-4.539-2.032-4.539-4.54l0,0c0-2.507,2.032-4.54,4.539-4.54
													h31.433c2.507,0,4.54,2.033,4.54,4.54l0,0C148.072,177.432,146.04,179.465,143.533,179.465z"/>
											</g>
										</g>
									</g>
									<g>
										<g>
											<path fill="#D1D3D4" d="M152.448,195.197H112.1c-2.507,0-4.539-2.032-4.539-4.54l0,0c0-2.507,2.032-4.54,4.539-4.54
												h40.348c2.507,0,4.54,2.033,4.54,4.54l0,0C156.988,193.165,154.955,195.197,152.448,195.197z"/>
										</g>
									</g>
								</g>
								<g>
									<g>
										<g>
											
												<ellipse transform="matrix(0.9999 -0.0147 0.0147 0.9999 -1.2954 1.0436)" fill="#D1D3D4" cx="70.232" cy="88.504" rx="18.861" ry="18.861"/>
										</g>
									</g>
									<g>
										<g>
											<g>
												<path fill="#FFFFFF" d="M68.189,98.499c-0.846,0-1.692-0.323-2.337-0.968l-6.509-6.509
													c-1.291-1.291-1.291-3.384,0-4.675c1.291-1.29,3.384-1.29,4.675,0l4.172,4.172l8.28-8.28c1.291-1.29,3.384-1.29,4.675,0
													c1.291,1.291,1.291,3.384,0,4.675L70.526,97.531C69.881,98.176,69.035,98.499,68.189,98.499z"/>
											</g>
										</g>
									</g>
								</g>
								<g>
									<g>
										<g>
											
												<ellipse transform="matrix(0.2964 -0.9551 0.9551 0.2964 -79.8707 162.327)" fill="#D1D3D4" cx="70.232" cy="135.37" rx="18.861" ry="18.861"/>
										</g>
									</g>
									<g>
										<g>
											<g>
												<path fill="#FFFFFF" d="M68.189,145.365c-0.846,0-1.692-0.323-2.337-0.968l-6.509-6.509
													c-1.291-1.291-1.291-3.384,0-4.675c1.291-1.29,3.384-1.29,4.675,0l4.172,4.173l8.28-8.28c1.291-1.29,3.384-1.29,4.675,0
													c1.291,1.291,1.291,3.384,0,4.675l-10.617,10.617C69.881,145.042,69.035,145.365,68.189,145.365z"/>
											</g>
										</g>
									</g>
								</g>
								<g>
									<g>
										<g>
											<circle fill="#D1D3D4" cx="70.232" cy="182.235" r="18.861"/>
										</g>
									</g>
									<g>
										<g>
											<g>
												<path fill="#FFFFFF" d="M68.189,192.231c-0.846,0-1.692-0.323-2.337-0.968l-6.509-6.51
													c-1.291-1.291-1.291-3.384,0-4.675c1.291-1.29,3.384-1.29,4.675,0l4.172,4.172l8.28-8.28c1.291-1.29,3.384-1.29,4.675,0
													c1.291,1.291,1.291,3.384,0,4.675l-10.617,10.617C69.881,191.908,69.035,192.231,68.189,192.231z"/>
											</g>
										</g>
									</g>
								</g>
							</g>
							<g>
								<g>
									<g>
										<path fill="#E6E7E8" d="M165.285,37.92h-6.667v166.86c0,1.841-1.492,3.333-3.333,3.333H39.74v6.667
											c0,1.841,1.492,3.333,3.333,3.333h122.212c1.841,0,3.333-1.492,3.333-3.333V41.253
											C168.618,39.412,167.126,37.92,165.285,37.92z"/>
									</g>
								</g>
							</g>
							<g>
								<g>
									<g>
										<path fill="#D1D3D4" d="M165.285,37.92h-1.667v171.86c0,1.841-1.492,3.333-3.333,3.333H39.74v1.667
											c0,1.841,1.492,3.333,3.333,3.333h122.212c1.841,0,3.333-1.492,3.333-3.333V41.253
											C168.618,39.412,167.126,37.92,165.285,37.92z"/>
									</g>
								</g>
							</g>
						</g>
					</g>
				</g>
			</g>
			<g>
				<g>
					<path fill="#FFA91A" d="M138.991,53.838H69.368c-2.056,0-3.728-1.673-3.728-3.73V34.556c0-2.057,1.673-3.73,3.728-3.73h69.623
						c2.056,0,3.729,1.673,3.729,3.73v15.553C142.719,52.165,141.046,53.838,138.991,53.838z M69.639,49.838h69.08V34.826h-69.08
						V49.838z"/>
				</g>
			</g>
		</g>
	</g>
	<g>
		<path fill="#FFA91A" d="M189.429,80.663L189.429,80.663c3.279,3.279,7.727,5.122,12.365,5.122h0
			c9.657,0,17.486,7.829,17.486,17.486v0c0,4.638,1.842,9.085,5.122,12.365h0c6.829,6.829,6.829,17.9,0,24.729l0,0
			c-3.279,3.279-5.122,7.727-5.122,12.364v0c0,9.657-7.829,17.486-17.486,17.486h0c-4.638,0-9.085,1.842-12.365,5.122l0,0
			c-6.829,6.829-17.9,6.829-24.729,0l0,0c-3.279-3.279-7.727-5.122-12.365-5.122h0c-9.657,0-17.486-7.829-17.486-17.486v0
			c0-4.638-1.842-9.085-5.122-12.364l0,0c-6.829-6.829-6.829-17.9,0-24.729h0c3.279-3.279,5.122-7.727,5.122-12.365v0
			c0-9.657,7.829-17.486,17.486-17.486h0c4.638,0,9.085-1.842,12.365-5.122h0C171.529,73.835,182.6,73.835,189.429,80.663z"/>
	</g>
	<g>
		<path fill="#F79219" d="M224.401,115.635c-3.279-3.279-5.122-7.727-5.122-12.365c0-7.434-4.647-13.768-11.188-16.298
			c0.757,1.956,1.188,4.075,1.188,6.298c0,4.638,1.842,9.085,5.122,12.365c6.829,6.829,6.829,17.9,0,24.729
			c-3.279,3.279-5.122,7.727-5.122,12.365v0c0,9.657-7.829,17.486-17.486,17.486l0,0c-4.638,0-9.085,1.842-12.365,5.122
			c-6.829,6.829-17.9,6.829-24.729,0c-3.279-3.279-7.727-5.122-12.365-5.122h0c-2.223,0-4.342-0.431-6.298-1.188
			c2.53,6.541,8.864,11.188,16.298,11.188h0c4.637,0,9.085,1.842,12.365,5.122c6.829,6.829,17.9,6.829,24.729,0
			c3.279-3.279,7.727-5.122,12.365-5.122l0,0c9.657,0,17.486-7.829,17.486-17.486v0c0-4.638,1.842-9.085,5.122-12.365
			C231.23,133.536,231.23,122.464,224.401,115.635z"/>
	</g>
	<g>
		<g>
			<g>
				<g>
					<path fill="#FFFFFF" d="M172.086,149.129c-2.051,0-4.102-0.782-5.667-2.347l-15.781-15.781c-3.129-3.13-3.129-8.203,0-11.333
						c3.13-3.128,8.203-3.128,11.333,0l10.114,10.115l20.072-20.073c3.13-3.128,8.203-3.128,11.333,0
						c3.129,3.13,3.129,8.203,0,11.333l-25.739,25.739C176.187,148.346,174.137,149.129,172.086,149.129z"/>
				</g>
			</g>
		</g>
	</g>
</g>
</svg>
