<?xml version="1.0" encoding="utf-8"?>
<!-- Generator: Adobe Illustrator 24.0.0, SVG Export Plug-In . SVG Version: 6.00 Build 0)  -->
<svg version="1.1" id="Layer_1" xmlns="http://www.w3.org/2000/svg" xmlns:xlink="http://www.w3.org/1999/xlink" x="0px" y="0px"
	 viewBox="0 0 256 256" enable-background="new 0 0 256 256" xml:space="preserve">
<g>
	<g>
		<g>
			<g>
				<g>
					<g>
						<g>
							<g>
								<g>
									<g>
										<path fill="#76A34F" d="M177.145,232.054H41.74c-5.522,0-9.999-4.477-9.999-9.999V33.945c0-5.522,4.477-9.999,9.999-9.999
											h135.405c5.522,0,9.999,4.477,9.999,9.999v188.109C187.145,227.577,182.668,232.054,177.145,232.054z"/>
									</g>
								</g>
							</g>
							<g>
								<g>
									<path fill="#EF7816" d="M153.14,27.733H65.745c-2.473,0-4.478,2.005-4.478,4.478v5.709h96.351v-5.709
										C157.618,29.737,155.613,27.733,153.14,27.733z"/>
								</g>
							</g>
							<g>
								<g>
									<g>
										<path fill="#648940" d="M181.261,24.83c0.568,1.255,0.883,2.649,0.883,4.116v188.109c0,5.522-4.477,9.999-9.999,9.999
											H36.74c-1.467,0-2.86-0.316-4.116-0.883c1.569,3.469,5.06,5.883,9.116,5.883h135.405c5.522,0,9.999-4.477,9.999-9.999
											V33.945C187.145,29.89,184.731,26.399,181.261,24.83z"/>
									</g>
								</g>
							</g>
							<g>
								<g>
									<g>
										<path fill="#F1F2F2" d="M170.549,218.113H48.337c-1.841,0-3.333-1.492-3.333-3.333V41.253
											c0-1.841,1.492-3.333,3.333-3.333h122.212c1.841,0,3.333,1.492,3.333,3.333V214.78
											C173.882,216.621,172.39,218.113,170.549,218.113z"/>
									</g>
								</g>
							</g>
							<g>
								<path fill="#FFFFFF" d="M50.9,203.1c-1.1,0-2-0.9-2-2c0-1.11,0.9-2,2-2c1.11,0,2,0.89,2,2
									C52.9,202.2,52.01,203.1,50.9,203.1z M50.9,195.1c-1.1,0-2-0.9-2-2V43.92c0-0.53,0.22-1.04,0.59-1.41
									c0.37-0.38,0.89-0.59,1.41-0.59h13.64c1.1,0,2,0.9,2,2s-0.9,2-2,2H52.9V193.1C52.9,194.2,52.01,195.1,50.9,195.1z"/>
							</g>
							<g>
								<g>
									<g>
										<g>
											<g>
												<path fill="#D1D3D4" d="M148.796,84.621h-31.433c-2.507,0-4.54-2.032-4.54-4.54l0,0c0-2.507,2.032-4.539,4.54-4.539
													h31.433c2.507,0,4.539,2.032,4.539,4.539l0,0C153.336,82.588,151.303,84.621,148.796,84.621z"/>
											</g>
										</g>
									</g>
									<g>
										<g>
											<path fill="#D1D3D4" d="M157.712,100.354h-40.348c-2.507,0-4.54-2.032-4.54-4.54l0,0c0-2.507,2.032-4.539,4.54-4.539
												h40.348c2.507,0,4.54,2.032,4.54,4.539l0,0C162.251,98.321,160.219,100.354,157.712,100.354z"/>
										</g>
									</g>
									<g>
										<g>
											<g>
												<path fill="#D1D3D4" d="M148.796,132.043h-31.433c-2.507,0-4.54-2.032-4.54-4.539l0,0c0-2.507,2.032-4.539,4.54-4.539
													h31.433c2.507,0,4.539,2.032,4.539,4.539l0,0C153.336,130.01,151.303,132.043,148.796,132.043z"/>
											</g>
										</g>
									</g>
									<g>
										<g>
											<path fill="#D1D3D4" d="M157.712,147.775h-40.348c-2.507,0-4.54-2.033-4.54-4.54l0,0c0-2.507,2.032-4.54,4.54-4.54
												h40.348c2.507,0,4.54,2.032,4.54,4.54l0,0C162.251,145.743,160.219,147.775,157.712,147.775z"/>
										</g>
									</g>
									<g>
										<g>
											<g>
												<path fill="#D1D3D4" d="M148.796,179.465h-31.433c-2.507,0-4.54-2.032-4.54-4.54l0,0c0-2.507,2.032-4.54,4.54-4.54
													h31.433c2.507,0,4.539,2.033,4.539,4.54l0,0C153.336,177.432,151.303,179.465,148.796,179.465z"/>
											</g>
										</g>
									</g>
									<g>
										<g>
											<path fill="#D1D3D4" d="M157.712,195.197h-40.348c-2.507,0-4.54-2.032-4.54-4.54l0,0c0-2.507,2.032-4.54,4.54-4.54
												h40.348c2.507,0,4.54,2.033,4.54,4.54l0,0C162.251,193.165,160.219,195.197,157.712,195.197z"/>
										</g>
									</g>
								</g>
							</g>
							<g>
								<g>
									<g>
										<path fill="#E6E7E8" d="M170.549,37.92h-6.667v166.86c0,1.841-1.492,3.333-3.333,3.333H45.004v6.667
											c0,1.841,1.492,3.333,3.333,3.333h122.212c1.841,0,3.333-1.492,3.333-3.333V41.253
											C173.882,39.412,172.39,37.92,170.549,37.92z"/>
									</g>
								</g>
							</g>
							<g>
								<g>
									<g>
										<path fill="#D1D3D4" d="M170.549,37.92h-1.667v171.86c0,1.841-1.492,3.333-3.333,3.333H45.004v1.667
											c0,1.841,1.492,3.333,3.333,3.333h122.212c1.841,0,3.333-1.492,3.333-3.333V41.253
											C173.882,39.412,172.39,37.92,170.549,37.92z"/>
									</g>
								</g>
							</g>
						</g>
					</g>
				</g>
			</g>
			<g>
				<g>
					<path fill="#FFA91A" d="M144.254,53.838H74.631c-2.056,0-3.728-1.673-3.728-3.73V34.556c0-2.057,1.673-3.73,3.728-3.73h69.623
						c2.056,0,3.729,1.673,3.729,3.73v15.553C147.983,52.165,146.31,53.838,144.254,53.838z M74.903,49.838h69.08V34.826h-69.08
						V49.838z"/>
				</g>
			</g>
		</g>
	</g>
	<g>
		<path fill="#D1D3D4" d="M89.275,104.538H63.779c-1.933,0-3.5-1.567-3.5-3.5V75.542c0-1.933,1.567-3.5,3.5-3.5h25.496
			c1.933,0,3.5,1.567,3.5,3.5v25.496C92.775,102.971,91.208,104.538,89.275,104.538z M67.279,97.538h18.496V79.042H67.279V97.538z"
			/>
	</g>
	<g>
		<path fill="#D1D3D4" d="M89.275,151.617H63.779c-1.933,0-3.5-1.567-3.5-3.5v-25.496c0-1.933,1.567-3.5,3.5-3.5h25.496
			c1.933,0,3.5,1.567,3.5,3.5v25.496C92.775,150.05,91.208,151.617,89.275,151.617z M67.279,144.617h18.496v-18.496H67.279V144.617z
			"/>
	</g>
	<g>
		<path fill="#D1D3D4" d="M89.275,198.697H63.779c-1.933,0-3.5-1.567-3.5-3.5v-25.496c0-1.933,1.567-3.5,3.5-3.5h25.496
			c1.933,0,3.5,1.567,3.5,3.5v25.496C92.775,197.13,91.208,198.697,89.275,198.697z M67.279,191.697h18.496v-18.496H67.279V191.697z
			"/>
	</g>
	<g>
		<g>
			<g>
				<g>
					<path fill="#FFA91A" d="M111.208,158.993l29.75,29.809l80.847-80.702c3.268-3.26,3.273-8.552,0.013-11.819l-17.943-17.979
						c-3.26-3.267-8.551-3.272-11.818-0.013L111.208,158.993z"/>
				</g>
			</g>
			<g>
				<path fill="#F79219" d="M221.817,96.281l-5-5c3.261,3.267,3.255,8.559-0.013,11.819l-80.842,80.697l4.995,5.005l80.847-80.702
					C225.072,104.84,225.078,99.548,221.817,96.281z"/>
			</g>
			<g>
				<g>
					
						<rect x="176.915" y="93.803" transform="matrix(0.7065 0.7077 -0.7077 0.7065 130.3646 -110.142)" fill="#FFC91D" width="42.131" height="16.612"/>
				</g>
			</g>
			<g>
				
					<rect x="202.062" y="110.985" transform="matrix(0.7077 -0.7065 0.7065 0.7077 -19.4169 182.103)" fill="#FFA91A" width="16.612" height="7.066"/>
			</g>
			<g>
				<g>
					<path fill="#F79219" d="M120.124,190.104l-10.26-10.28c-0.931-0.933-1.367-2.251-1.177-3.555l2.521-17.275l29.75,29.808
						l-17.281,2.486C122.372,191.476,121.055,191.037,120.124,190.104z"/>
				</g>
			</g>
		</g>
		<g>
			<path fill="#FFA91A" d="M102.738,190.495l6.777-11.008l10.965,10.974l-10.998,6.776
				C105.086,199.944,100.032,194.891,102.738,190.495z"/>
		</g>
	</g>
</g>
</svg>
