<?xml version="1.0" encoding="utf-8"?>
<!-- Generator: Adobe Illustrator 24.0.0, SVG Export Plug-In . SVG Version: 6.00 Build 0)  -->
<svg version="1.1" id="Layer_1" xmlns="http://www.w3.org/2000/svg" xmlns:xlink="http://www.w3.org/1999/xlink" x="0px" y="0px"
	 viewBox="0 0 256 256" enable-background="new 0 0 256 256" xml:space="preserve">
<g>
	<g>
		<g>
			<g>
				<g>
					<g>
						<g>
							<path fill="#414042" d="M224.1,190.726H31.899c-4.536,0-8.212-3.677-8.212-8.212V46.556c0-4.536,3.677-8.212,8.212-8.212
								H224.1c4.536,0,8.212,3.677,8.212,8.212v135.958C232.313,187.049,228.636,190.726,224.1,190.726z"/>
						</g>
					</g>
				</g>
			</g>
			<g>
				<g>
					<g>
						<g>
							<rect x="105.97" y="190.726" fill="#E6E7E8" width="44.059" height="29.456"/>
						</g>
					</g>
				</g>
			</g>
			<g>
				<g>
					<g>
						<g>
							<rect x="105.97" y="190.726" fill="#D1D3D4" width="44.059" height="9.839"/>
						</g>
					</g>
				</g>
			</g>
			<g>
				<g>
					<g>
						<g>
							<path fill="#E63950" d="M219.652,181.249H36.348c-2.209,0-4-1.791-4-4V49.834c0-2.209,1.791-4,4-4h183.304
								c2.209,0,4,1.791,4,4v127.415C223.652,179.458,221.861,181.249,219.652,181.249z"/>
						</g>
					</g>
				</g>
			</g>
			<g>
				<path fill="#E8566F" d="M38.35,167.79c-1.109,0-2-0.9-2-2c0-1.1,0.891-2,2-2c1.101,0,2,0.9,2,2
					C40.35,166.89,39.45,167.79,38.35,167.79z M38.35,159.79c-1.109,0-2-0.9-2-2V51.83c0-0.52,0.21-1.04,0.58-1.41
					c0.38-0.37,0.89-0.59,1.42-0.59L205,49.84c1.109,0,2,0.89,2,1.99c0,1.11-0.891,2-2,2H40.35v103.96
					C40.35,158.89,39.45,159.79,38.35,159.79z"/>
			</g>
			<g>
				<g>
					<g>
						<path fill="#D10028" d="M219.652,45.834h-6v121.415c0,2.209-1.791,4-4,4H32.348v6c0,2.209,1.791,4,4,4h183.304
							c2.209,0,4-1.791,4-4V49.834C223.652,47.625,221.861,45.834,219.652,45.834z"/>
					</g>
				</g>
			</g>
			<g>
				<g>
					<g>
						<path fill="#B7022D" d="M219.652,45.834h-1v126.415c0,2.209-1.791,4-4,4H32.348v1c0,2.209,1.791,4,4,4h183.304
							c2.209,0,4-1.791,4-4V49.834C223.652,47.625,221.861,45.834,219.652,45.834z"/>
					</g>
				</g>
			</g>
			<g>
				<g>
					<g>
						<g>
							<path fill="#58595B" d="M194.672,229.827H61.328c-2.663,0-4.822-2.159-4.822-4.822l0,0c0-2.663,2.159-4.822,4.822-4.822
								h133.345c2.663,0,4.822,2.159,4.822,4.822l0,0C199.494,227.668,197.335,229.827,194.672,229.827z"/>
						</g>
					</g>
				</g>
			</g>
		</g>
	</g>
	<g>
		<g>
			<g>
				<g>
					<g>
						<g>
							<g>
								<path fill="#58595B" d="M169.425,164.668l9.418-9.419c0.183-0.183,0.381-0.339,0.587-0.479l-6.917-6.917
									c-3.017,3.941-6.544,7.468-10.485,10.485l6.917,6.917C169.085,165.049,169.242,164.851,169.425,164.668z"/>
							</g>
						</g>
					</g>
					<g>
						<g>
							<g>
								<path fill="#FFA91A" d="M201.679,202.609l-32.255-32.255c-1.57-1.57-1.57-4.116,0-5.687l9.418-9.419
									c1.57-1.57,4.116-1.57,5.687,0l32.255,32.255c1.57,1.57,1.57,4.116,0,5.687l-9.419,9.418
									C205.796,204.18,203.25,204.18,201.679,202.609z"/>
							</g>
						</g>
					</g>
					<g>
						<g>
							<g>
								<path fill="#F79219" d="M213.934,196.042c-1.57,1.57-4.116,1.57-5.687,0l-32.255-32.255c-1.57-1.57-1.57-4.116,0-5.687
									l2.856-2.856c-0.002,0.002-0.004,0.003-0.005,0.005l-9.418,9.418c-1.57,1.57-1.57,4.116,0,5.687l32.255,32.255
									c1.57,1.57,4.116,1.57,5.687,0l9.419-9.418c0.001-0.001,0.002-0.003,0.004-0.004L213.934,196.042z"/>
							</g>
						</g>
					</g>
					<g>
						<g>
							<g>
								<path fill="#414042" d="M167.576,153.482c-1.74,1.736-3.593,3.359-5.548,4.856l6.918,6.917
									c0.14-0.206,0.297-0.404,0.479-0.587l4.669-4.669L167.576,153.482z"/>
							</g>
						</g>
					</g>
				</g>
				<g>
					<g>
						<g>
							<g>
								<path fill="#FFA91A" d="M127.996,57.778c-30.952,0-56.043,25.091-56.043,56.043s25.091,56.043,56.043,56.043
									c30.952,0,56.043-25.091,56.043-56.043S158.948,57.778,127.996,57.778z M127.996,156.099
									c-23.349,0-42.278-18.928-42.278-42.278c0-23.349,18.928-42.278,42.278-42.278c23.349,0,42.278,18.928,42.278,42.278
									C170.274,137.171,151.346,156.099,127.996,156.099z"/>
							</g>
						</g>
					</g>
					<g>
						<g>
							<g>
								<path fill="#F79219" d="M127.996,64.002c-27.515,0-49.819,22.305-49.819,49.819s22.305,49.819,49.819,49.819
									s49.819-22.305,49.819-49.819S155.511,64.002,127.996,64.002z M127.996,156.099c-23.349,0-42.278-18.928-42.278-42.278
									c0-23.349,18.928-42.278,42.278-42.278c23.349,0,42.278,18.928,42.278,42.278
									C170.274,137.171,151.346,156.099,127.996,156.099z"/>
							</g>
						</g>
					</g>
				</g>
			</g>
		</g>
		<g>
			<g>
				<g>
					<circle fill="#414042" cx="127.988" cy="113.821" r="42.278"/>
				</g>
			</g>
		</g>
	</g>
	<g>
		<g>
			<path fill="#FFFFFF" d="M127.717,121.896L127.717,121.896c-3.761,0-6.809-3.049-6.809-6.809V91.149
				c0-3.761,3.049-6.809,6.809-6.809h0c3.761,0,6.809,3.049,6.809,6.809v23.938C134.526,118.848,131.477,121.896,127.717,121.896z"
				/>
		</g>
		<g>
			<circle fill="#FFFFFF" cx="127.717" cy="135.934" r="6.809"/>
		</g>
	</g>
</g>
</svg>
