<?xml version="1.0" encoding="utf-8"?>
<!-- Generator: Adobe Illustrator 23.1.0, SVG Export Plug-In . SVG Version: 6.00 Build 0)  -->
<svg version="1.1" id="Layer_1" xmlns="http://www.w3.org/2000/svg" xmlns:xlink="http://www.w3.org/1999/xlink" x="0px" y="0px"
	 viewBox="0 0 500 500" style="enable-background:new 0 0 500 500;" xml:space="preserve">
<style type="text/css">
	.st0{fill:#FFE9EF;}
	.st1{fill:#E0BA89;}
	.st2{fill:#EF9825;}
	.st3{fill:#FFD629;}
	.st4{fill:#BF976B;}
	.st5{fill:#231F20;}
	.st6{fill:#2B3860;}
	.st7{fill:#6464F4;}
	.st8{fill:#4545CE;}
	.st9{fill:#9FC6FF;}
	.st10{fill:#9797C4;}
	.st11{fill:#B4B4D6;}
	.st12{fill:#D0D0EF;}
	.st13{fill:#8090B7;}
	.st14{fill:#EBEEFF;}
	.st15{fill:#FF5252;}
	.st16{fill:#BDC3DB;}
	.st17{fill:none;stroke:#231F20;stroke-width:14.2344;stroke-linecap:round;stroke-linejoin:round;stroke-miterlimit:10;}
	.st18{fill:#91673F;}
	.st19{fill:#FFFFFF;}
	.st20{fill:#FFB45A;}
	.st21{fill:#E4E4F2;}
</style>
<g>
	<g>
		<g>
			<path class="st1" d="M271,345.4l-0.4-4.9l-8.5-123.8l-58.1-58.1L68.6,294.1l135.4,135.4l68.1-68.1L271,345.4z M214.3,359.2
				c-3.7,3.7-8.6,5.6-13.5,5.6c-4.8,0-9.8-1.9-13.5-5.6l-53.9-53.9c-7.5-7.4-7.5-19.5,0-26.9c3.7-3.8,8.5-5.6,13.5-5.6
				c4.9,0,9.8,1.9,13.5,5.6l53.9,53.9C221.7,339.7,221.7,351.8,214.3,359.2z"/>
		</g>
		<g>
			<polygon class="st14" points="305.3,334.9 271.1,345.4 270.7,340.5 262.2,216.7 213,167.5 344.5,36 440.5,132 440.4,133.2 
				438,168.3 403,179 396.8,180.8 396.4,187 393.8,223.8 357.1,234.9 352.6,236.4 352.3,240.9 349.6,279.3 311.1,291.1 308.4,292 
				308.2,294.8 			"/>
		</g>
	</g>
	<g>
		<path class="st5" d="M165.4,273.4c-10.2-10.2-26.8-10.2-37,0c-10.2,10.2-10.2,26.8,0,37l53.9,53.9c5.1,5.1,11.8,7.7,18.5,7.7
			c6.7,0,13.4-2.6,18.5-7.7c4.9-4.9,7.7-11.5,7.7-18.5c0-7-2.7-13.6-7.7-18.5L165.4,273.4z M209.2,354.2c-4.7,4.6-12.2,4.6-16.9,0
			l-53.9-53.9c-4.6-4.6-4.6-12.2,0-16.9c2.3-2.3,5.4-3.5,8.4-3.5c3.1,0,6.1,1.2,8.4,3.5l53.9,53.9c2.3,2.3,3.5,5.2,3.5,8.4
			C212.7,349,211.5,352,209.2,354.2z"/>
		<path class="st5" d="M445.6,127l-96.1-96.1c-2.8-2.8-7.3-2.8-10.1,0L213,157.4l-3.8-3.8c-2.8-2.8-7.3-2.8-10.1,0L63.6,289
			c-2.8,2.8-2.8,7.3,0,10.1L199,434.5c1.4,1.4,3.2,2.1,5,2.1s3.6-0.7,5-2.1l68.1-68.1c1.5-1.5,2.2-3.5,2.1-5.5l-0.7-10.4l28.8-8.8
			c2.8-0.9,4.8-3.4,5-6.3l2.7-38.1l36.6-11.2c2.8-0.9,4.8-3.4,5-6.3l2.7-38.1l36.5-11.1c2.8-0.9,4.8-3.4,5-6.3l2.7-38l36.5-11.2
			c2.8-0.9,4.8-3.4,5-6.3l2.4-34.9l0.1-1.2C447.8,130.5,447,128.5,445.6,127z M204,419.4L78.7,294.1l125.4-125.4l3.8,3.8l47.3,47.3
			l8.4,121.2l0.2,3l1,14.7L204,419.4z M431.3,162.9L394.8,174c-2.8,0.9-4.8,3.4-5,6.3l-2.7,38.1l-36.5,11.2c-2.8,0.9-4.8,3.4-5,6.3
			l-2.7,38.1l-36.6,11.2c-2.8,0.9-4.8,3.4-5,6.3l-2.7,38.1l-21,6.4l-8.3-119.8c-0.1-1.7-0.9-3.3-2.1-4.5L223,167.5L344.5,46
			l88.7,88.7L431.3,162.9z"/>
	</g>
</g>
</svg>
