<?xml version="1.0" encoding="utf-8"?>
<!-- Generator: Adobe Illustrator 23.1.0, SVG Export Plug-In . SVG Version: 6.00 Build 0)  -->
<svg version="1.1" id="Layer_1" xmlns="http://www.w3.org/2000/svg" xmlns:xlink="http://www.w3.org/1999/xlink" x="0px" y="0px"
	 viewBox="0 0 500 500" style="enable-background:new 0 0 500 500;" xml:space="preserve">
<style type="text/css">
	.st0{fill:#FFE9EF;}
	.st1{fill:#E0BA89;}
	.st2{fill:#EF9825;}
	.st3{fill:#FFD629;}
	.st4{fill:#BF976B;}
	.st5{fill:#231F20;}
	.st6{fill:#2B3860;}
	.st7{fill:#6464F4;}
	.st8{fill:#4545CE;}
	.st9{fill:#9FC6FF;}
	.st10{fill:#9797C4;}
	.st11{fill:#B4B4D6;}
	.st12{fill:#D0D0EF;}
	.st13{fill:#8090B7;}
	.st14{fill:#EBEEFF;}
	.st15{fill:#FF5252;}
	.st16{fill:#BDC3DB;}
	.st17{fill:none;stroke:#231F20;stroke-width:14.2344;stroke-linecap:round;stroke-linejoin:round;stroke-miterlimit:10;}
	.st18{fill:#91673F;}
	.st19{fill:#FFFFFF;}
	.st20{fill:#FFB45A;}
	.st21{fill:#E4E4F2;}
</style>
<g>
	<g>
		<g>
			<g>
				<path class="st6" d="M428.9,392.8c0,24.6-19.9,44.6-44.5,44.6c-24.6,0-44.5-19.9-44.5-44.6c0-3.8,0.4-7.4,1.4-10.8
					c4.7-19.4,22.2-33.7,43.1-33.7c20.9,0,38.3,14.3,43.1,33.7C428.5,385.4,428.9,389,428.9,392.8z"/>
			</g>
			<g>
				<path class="st6" d="M231.7,392.8c0,24.6-19.9,44.6-44.5,44.6s-44.5-19.9-44.5-44.6c0-3.8,0.4-7.4,1.4-10.8
					c4.8-19.4,22.2-33.7,43.1-33.7s38.3,14.3,43.1,33.7C231.3,385.4,231.7,389,231.7,392.8z"/>
			</g>
			<g>
				<path class="st2" d="M488.6,319.1V382h-61.1c-4.8-19.4-22.3-33.7-43.1-33.7c-20.9,0-38.4,14.3-43.1,33.7h-111
					c-4.8-19.4-22.3-33.7-43.1-33.7S149,362.6,144.2,382h-34.5v-62.9H324V171h120.8l8.3,28h-90.8v88.2h116.9L488.6,319.1z"/>
			</g>
			<g>
				<polygon class="st14" points="479.1,287.1 362.2,287.1 362.2,198.9 453,198.9 				"/>
			</g>
		</g>
		<g>
			<g>
				<path class="st16" d="M296.4,212.1L265,270.8c-3.7,6.9-10.6,11.4-18.4,11.9l-54.3,4c-36.9,2.7-73.1-11.3-98.5-38.2l-77.4-81.9
					c-6.7-7.1-8.1-17.7-3.5-26.3l35.2-65.7C52.7,66,62.3,61.3,71.9,63L183,82c36.5,6.2,68.2,28.6,86.4,60.8l26.8,47.4
					C300,196.9,300.1,205.2,296.4,212.1z"/>
			</g>
		</g>
	</g>
	<g>
		<path class="st5" d="M495.4,317.1l-9.5-32l-26.1-88.2c0,0,0,0,0,0l-8.3-28c-0.9-3-3.7-5.1-6.8-5.1H324c-3.9,0-7.1,3.2-7.1,7.1v141
			H109.7c-3.9,0-7.1,3.2-7.1,7.1V382c0,3.9,3.2,7.1,7.1,7.1h26.2c-0.1,1.2-0.2,2.4-0.2,3.7c0,28.5,23.1,51.7,51.6,51.7
			s51.6-23.2,51.6-51.7c0-1.3-0.1-2.5-0.2-3.7H333c-0.1,1.2-0.2,2.4-0.2,3.7c0,28.5,23.1,51.7,51.6,51.7c28.5,0,51.6-23.2,51.6-51.7
			c0-1.3-0.1-2.5-0.2-3.7h52.8c3.9,0,7.1-3.2,7.1-7.1v-62.9C495.7,318.4,495.6,317.7,495.4,317.1z M469.6,280H369.3v-73.9h78.4
			L469.6,280z M187.2,430.3c-20.6,0-37.4-16.8-37.4-37.4c0-3.3,0.4-6.2,1.2-9.1c4.1-16.6,19-28.3,36.1-28.3
			c17.2,0,32.1,11.6,36.3,28.4c0.7,2.7,1.1,5.7,1.1,9C224.6,413.5,207.9,430.3,187.2,430.3z M384.4,430.3
			c-20.6,0-37.4-16.8-37.4-37.4c0-3.3,0.4-6.2,1.2-9.1c4-16.6,18.9-28.2,36.1-28.2c17.2,0,32.1,11.6,36.3,28.4
			c0.7,2.7,1.1,5.7,1.1,9C421.8,413.5,405,430.3,384.4,430.3z M481.5,374.9h-48.7c-0.2-0.5-0.5-1-0.7-1.5c-0.5-1.1-1-2.2-1.5-3.3
			c-0.7-1.4-1.4-2.8-2.2-4.1c-0.6-1-1.3-2-2-3c-0.9-1.3-1.8-2.5-2.8-3.6c-0.8-0.9-1.5-1.8-2.4-2.6c-1.1-1.1-2.2-2.1-3.4-3.1
			c-0.9-0.8-1.8-1.5-2.7-2.2c-1.3-0.9-2.6-1.8-3.9-2.6c-1-0.6-1.9-1.2-2.9-1.7c-1.5-0.8-3-1.4-4.5-2c-1-0.4-1.9-0.9-3-1.2
			c-1.7-0.6-3.5-1-5.3-1.4c-0.9-0.2-1.7-0.5-2.7-0.6c-2.7-0.4-5.5-0.7-8.4-0.7c-2.9,0-5.7,0.3-8.4,0.7c-0.9,0.2-1.8,0.4-2.8,0.6
			c-1.8,0.4-3.5,0.8-5.2,1.3c-1.1,0.4-2.1,0.9-3.2,1.3c-1.4,0.6-2.9,1.2-4.2,1.9c-1.1,0.6-2.2,1.3-3.3,2c-1.2,0.7-2.3,1.4-3.5,2.3
			c-1.1,0.8-2.2,1.7-3.2,2.6c-0.9,0.8-1.9,1.7-2.8,2.5c-1,1-2,2.1-2.9,3.3c-0.8,0.9-1.5,1.8-2.2,2.8c-0.9,1.2-1.7,2.5-2.5,3.8
			c-0.6,1-1.2,2.1-1.7,3.2c-0.6,1.3-1.3,2.6-1.8,4c-0.2,0.5-0.5,0.9-0.6,1.4H235.6c-0.2-0.5-0.5-1-0.7-1.5c-0.5-1.1-1-2.2-1.5-3.3
			c-0.7-1.4-1.4-2.8-2.2-4.1c-0.6-1-1.3-2-2-3c-0.9-1.3-1.8-2.5-2.8-3.6c-0.8-0.9-1.5-1.8-2.4-2.6c-1.1-1.1-2.2-2.1-3.4-3.1
			c-0.9-0.7-1.7-1.5-2.7-2.2c-1.3-0.9-2.6-1.8-3.9-2.6c-1-0.6-1.9-1.2-2.9-1.7c-1.5-0.8-3-1.4-4.5-2c-1-0.4-1.9-0.9-3-1.2
			c-1.7-0.6-3.5-1-5.3-1.4c-0.9-0.2-1.7-0.5-2.7-0.6c-2.7-0.4-5.5-0.7-8.4-0.7c-2.9,0-5.7,0.3-8.4,0.7c-0.9,0.2-1.8,0.4-2.8,0.6
			c-1.8,0.4-3.5,0.8-5.2,1.3c-1.1,0.4-2.1,0.9-3.2,1.3c-1.4,0.6-2.8,1.2-4.2,1.9c-1.1,0.6-2.2,1.3-3.3,2c-1.2,0.7-2.3,1.4-3.4,2.3
			c-1.1,0.8-2.2,1.7-3.2,2.6c-0.9,0.8-1.9,1.6-2.7,2.5c-1,1.1-2,2.2-3,3.3c-0.8,0.9-1.5,1.8-2.2,2.8c-0.9,1.2-1.7,2.5-2.5,3.8
			c-0.6,1-1.2,2.1-1.7,3.2c-0.7,1.3-1.3,2.6-1.8,4c-0.2,0.5-0.5,0.9-0.6,1.4h-22.1v-48.7H324c3.9,0,7.1-3.2,7.1-7.1v-141h108.3
			l4.1,13.7h-81.3c-3.9,0-7.1,3.2-7.1,7.1v88.2c0,3.9,3.2,7.1,7.1,7.1h111.6l7.7,25.9V374.9z"/>
		<path class="st5" d="M192.9,293.9l54.3-4c10.3-0.8,19.3-6.6,24.1-15.7l31.5-58.8c4.9-9.1,4.7-19.8-0.3-28.8l-26.8-47.4
			C256.3,105,223,81.6,184.2,74.9l-111.1-19c-12.7-2.2-25.3,4-31.4,15.3L6.6,137c-6.1,11.3-4.2,25.2,4.6,34.6l77.4,81.9
			c24.8,26.2,58.8,40.8,94.5,40.8C186.4,294.3,189.6,294.1,192.9,293.9z M99,243.7l-77.4-81.9c-4.6-4.9-5.6-12.2-2.4-18.1L54.3,78
			c2.8-5.1,8.1-8.3,13.8-8.3c0.9,0,1.8,0.1,2.6,0.2l111.1,19c34.5,5.9,64.2,26.8,81.4,57.3l26.8,47.4c2.6,4.7,2.7,10.3,0.2,15
			c0,0,0,0,0,0l-31.5,58.8c-2.5,4.7-7.3,7.8-12.6,8.2l-54.3,4C156.8,282.3,123,269.2,99,243.7z"/>
		<path class="st5" d="M213,121.1c-3.5-1.8-7.8-0.5-9.6,2.9l-55.6,103.8c-1.9,3.5-0.5,7.8,2.9,9.6c1.1,0.6,2.2,0.8,3.4,0.8
			c2.5,0,5-1.4,6.3-3.8l55.6-103.8C217.8,127.3,216.5,123,213,121.1z"/>
	</g>
</g>
</svg>
