<?xml version="1.0" encoding="utf-8"?>
<!-- Generator: Adobe Illustrator 23.1.0, SVG Export Plug-In . SVG Version: 6.00 Build 0)  -->
<svg version="1.1" id="Layer_1" xmlns="http://www.w3.org/2000/svg" xmlns:xlink="http://www.w3.org/1999/xlink" x="0px" y="0px"
	 viewBox="0 0 500 500" style="enable-background:new 0 0 500 500;" xml:space="preserve">
<style type="text/css">
	.st0{fill:#FFE9EF;}
	.st1{fill:#E0BA89;}
	.st2{fill:#EF9825;}
	.st3{fill:#FFD629;}
	.st4{fill:#BF976B;}
	.st5{fill:#231F20;}
	.st6{fill:#2B3860;}
	.st7{fill:#6464F4;}
	.st8{fill:#4545CE;}
	.st9{fill:#9FC6FF;}
	.st10{fill:#9797C4;}
	.st11{fill:#B4B4D6;}
	.st12{fill:#D0D0EF;}
	.st13{fill:#8090B7;}
	.st14{fill:#EBEEFF;}
	.st15{fill:#FF5252;}
	.st16{fill:#BDC3DB;}
	.st17{fill:none;stroke:#231F20;stroke-width:14.2344;stroke-linecap:round;stroke-linejoin:round;stroke-miterlimit:10;}
	.st18{fill:#91673F;}
	.st19{fill:#FFFFFF;}
	.st20{fill:#FFB45A;}
	.st21{fill:#E4E4F2;}
</style>
<path class="st5" d="M350.7,66.4c-32.2,0-66.5,11.2-66.5,31.9v0.9H179.3v-2.4c0-20-31.6-30.4-62.8-30.4c-31.2,0-62.8,10.4-62.8,30.4
	v121.3V260v128.3c0,29,23.6,52.5,52.5,52.5h244.5c33,0,66.5-11,66.5-32V270.2v-41.9v-130C417.2,77.6,382.9,66.4,350.7,66.4z
	 M298.5,98.3c0-7,20.8-17.7,52.2-17.7S403,91.3,403,98.3v109.8c-13-7.7-32.9-11.7-52.2-11.7s-39.3,4-52.2,11.7V106.3V98.3z
	 M398.8,386.4c-0.6-0.3-1.2-0.6-1.9-0.9c-1.2-0.5-2.4-1-3.7-1.5c-0.6-0.2-1.1-0.4-1.7-0.7c-1.9-0.7-3.8-1.3-5.8-1.9
	c-0.1,0-0.3-0.1-0.4-0.1c-1.9-0.5-3.8-1-5.7-1.4c-0.7-0.2-1.4-0.3-2.1-0.4c-1.4-0.3-2.9-0.6-4.4-0.8c-0.8-0.1-1.6-0.3-2.4-0.4
	c-1.4-0.2-2.8-0.4-4.3-0.6c-0.8-0.1-1.6-0.2-2.5-0.3c-1.5-0.1-3-0.3-4.6-0.4c-0.7,0-1.4-0.1-2.2-0.1c-2.2-0.1-4.5-0.2-6.7-0.2
	c-2.2,0-4.5,0.1-6.7,0.2c-0.7,0-1.4,0.1-2.2,0.1c-1.5,0.1-3.1,0.2-4.6,0.4c-0.8,0.1-1.6,0.2-2.5,0.3c-1.4,0.2-2.8,0.3-4.3,0.6
	c-0.8,0.1-1.6,0.2-2.4,0.4c-1.5,0.2-2.9,0.5-4.4,0.8c-0.7,0.1-1.4,0.3-2.1,0.4c-1.9,0.4-3.8,0.9-5.7,1.4c-0.1,0-0.3,0.1-0.4,0.1
	c-2,0.6-3.9,1.2-5.8,1.9c-0.6,0.2-1.1,0.4-1.7,0.7c-1.3,0.5-2.5,1-3.7,1.5c-0.6,0.3-1.2,0.6-1.9,0.9c-1.1,0.5-2.1,1-3.1,1.6
	c-0.3,0.2-0.7,0.3-1,0.5V270.2c0-7,20.8-17.7,52.2-17.7s52.2,10.6,52.2,17.7v118.4c-0.3-0.2-0.7-0.4-1-0.5
	C400.9,387.5,399.9,386.9,398.8,386.4z M403,249.9c-13-7.6-33-11.6-52.2-11.6s-39.3,4-52.2,11.6v-21.7c0-7,20.8-17.7,52.2-17.7
	s52.2,10.6,52.2,17.7V249.9z M110.1,358.1c-0.7,0-1.4,0.1-2,0.1c-1.4,0.1-2.9,0.2-4.3,0.3c-0.8,0.1-1.6,0.2-2.4,0.3
	c-1.3,0.1-2.6,0.3-3.9,0.5c-0.8,0.1-1.6,0.2-2.4,0.4c-1.3,0.2-2.5,0.4-3.7,0.7c-0.8,0.1-1.5,0.3-2.3,0.5c-1.3,0.3-2.6,0.6-3.8,0.9
	c-0.6,0.2-1.3,0.3-1.9,0.5c-1.7,0.5-3.4,1-5,1.5c-0.1,0-0.3,0.1-0.4,0.1c-1.7,0.6-3.4,1.3-5,2c-0.5,0.2-0.9,0.4-1.4,0.7
	c-1.1,0.5-2.1,1-3.2,1.6c-0.2,0.1-0.4,0.2-0.6,0.3V260c0-7.2,18.9-17.7,48.6-17.7c29.7,0,48.6,10.5,48.6,17.7v108.4
	c-11.4-6.6-28.9-10.5-48.6-10.5C114.4,357.9,112.2,358,110.1,358.1z M67.9,218.1c0-7.2,18.9-17.7,48.6-17.7
	c29.7,0,48.6,10.5,48.6,17.7v21.3c-11.3-6.9-28.6-11.2-48.6-11.2c-20,0-37.3,4.3-48.6,11.2V218.1z M116.5,80.6
	c31.5,0,48.6,10.7,48.6,16.2v9.5v91.1c-11.3-6.9-28.6-11.2-48.6-11.2c-20,0-37.3,4.3-48.6,11.2V96.8C67.9,91.3,85,80.6,116.5,80.6z
	 M294.6,426.5H106.2c-21.1,0-38.3-17.2-38.3-38.3c0-5.5,17.2-16.1,48.6-16.1c25.1,0,43.4,7.1,47.8,13.8c2,3,5.7,4.3,9.2,3.3
	c3.5-1.1,5.9-4.2,5.9-7.9V260v-41.9V113.4h104.9v114.8v41.9v138.6c0,1.6,0.3,3.1,0.6,4.6c0.1,0.4,0.3,0.8,0.4,1.3
	c0.4,1.1,0.8,2.1,1.4,3.1c0.2,0.4,0.4,0.8,0.6,1.1c0.8,1.3,1.8,2.6,2.9,3.8c0.1,0.1,0.3,0.3,0.5,0.4c1,1,2.2,2,3.4,3
	C294.3,426.2,294.4,426.4,294.6,426.5z M350.7,426.5c-31.4,0-52.2-10.7-52.2-17.7c0-7,20.8-17.7,52.2-17.7s52.2,10.6,52.2,17.7
	C403,415.9,382.1,426.5,350.7,426.5z"/>
</svg>
