<?xml version="1.0" encoding="utf-8"?>
<!-- Generator: Adobe Illustrator 23.1.0, SVG Export Plug-In . SVG Version: 6.00 Build 0)  -->
<svg version="1.1" id="Layer_1" xmlns="http://www.w3.org/2000/svg" xmlns:xlink="http://www.w3.org/1999/xlink" x="0px" y="0px"
	 viewBox="0 0 500 500" style="enable-background:new 0 0 500 500;" xml:space="preserve">
<style type="text/css">
	.st0{fill:#FFE9EF;}
	.st1{fill:#E0BA89;}
	.st2{fill:#EF9825;}
	.st3{fill:#FFD629;}
	.st4{fill:#BF976B;}
	.st5{fill:#231F20;}
	.st6{fill:#2B3860;}
	.st7{fill:#6464F4;}
	.st8{fill:#4545CE;}
	.st9{fill:#9FC6FF;}
	.st10{fill:#9797C4;}
	.st11{fill:#B4B4D6;}
	.st12{fill:#D0D0EF;}
	.st13{fill:#8090B7;}
	.st14{fill:#EBEEFF;}
	.st15{fill:#FF5252;}
	.st16{fill:#BDC3DB;}
	.st17{fill:none;stroke:#231F20;stroke-width:14.2344;stroke-linecap:round;stroke-linejoin:round;stroke-miterlimit:10;}
	.st18{fill:#91673F;}
	.st19{fill:#FFFFFF;}
	.st20{fill:#FFB45A;}
	.st21{fill:#E4E4F2;}
</style>
<g>
	<path class="st5" d="M183.6,198.5c-38.3,0-69.5,31.2-69.5,69.5s31.2,69.5,69.5,69.5c38.3,0,69.5-31.2,69.5-69.5
		S221.9,198.5,183.6,198.5z M183.6,323.2c-30.4,0-55.2-24.8-55.2-55.2c0-30.4,24.8-55.2,55.2-55.2s55.2,24.8,55.2,55.2
		C238.9,298.4,214.1,323.2,183.6,323.2z"/>
	<path class="st5" d="M475.3,329.4H340.9v-71.2c0-71.9-58.5-130.4-130.4-130.4H92.7c-17.8,0-32.3,14.5-32.3,32.3v216
		c0,17.8,14.5,32.3,32.3,32.3h216c15.3,0,28.2-10.8,31.4-25.1h128.1v18h14.2V376v-39.5C482.4,332.5,479.2,329.4,475.3,329.4z
		 M308.7,394h-216c-9.9,0-18-8.1-18-18V160c0-9.9,8.1-18,18-18h117.8c64.1,0,116.2,52.1,116.2,116.2v78.3v39.5
		C326.7,385.9,318.6,394,308.7,394z M340.9,368.8v-25.3h127.2v25.3H340.9z"/>
</g>
</svg>
