<?xml version="1.0" encoding="utf-8"?>
<!-- Generator: Adobe Illustrator 23.1.0, SVG Export Plug-In . SVG Version: 6.00 Build 0)  -->
<svg version="1.1" id="Layer_1" xmlns="http://www.w3.org/2000/svg" xmlns:xlink="http://www.w3.org/1999/xlink" x="0px" y="0px"
	 viewBox="0 0 500 500" style="enable-background:new 0 0 500 500;" xml:space="preserve">
<style type="text/css">
	.st0{fill:#FFE9EF;}
	.st1{fill:#E0BA89;}
	.st2{fill:#EF9825;}
	.st3{fill:#FFD629;}
	.st4{fill:#BF976B;}
	.st5{fill:#231F20;}
	.st6{fill:#2B3860;}
	.st7{fill:#6464F4;}
	.st8{fill:#4545CE;}
	.st9{fill:#9FC6FF;}
	.st10{fill:#9797C4;}
	.st11{fill:#B4B4D6;}
	.st12{fill:#D0D0EF;}
	.st13{fill:#8090B7;}
	.st14{fill:#EBEEFF;}
	.st15{fill:#FF5252;}
	.st16{fill:#BDC3DB;}
	.st17{fill:none;stroke:#231F20;stroke-width:14.2344;stroke-linecap:round;stroke-linejoin:round;stroke-miterlimit:10;}
	.st18{fill:#91673F;}
	.st19{fill:#FFFFFF;}
	.st20{fill:#FFB45A;}
	.st21{fill:#E4E4F2;}
</style>
<g>
	<g>
		<g>
			<path class="st14" d="M348.6,351.9L264.7,268l35.1-35.1c2.9-2.9,4.4-6.7,4.4-10.6c0.1-3.9-1.5-7.7-4.4-10.6
				c-5.8-5.8-15.3-5.9-21.2,0l-35.1,35.1l-83.9-83.9c-9.9-9.9-5.8-26.8,7.5-31.2L447.3,40c14.6-4.7,28.5,9.1,23.7,23.7l-91.2,280.8
				C375.4,357.7,358.5,361.8,348.6,351.9z"/>
		</g>
		<g>
			<path class="st16" d="M299.8,232.9l-74.4,74.4L204.2,286l74.4-74.4c5.9-5.9,15.4-5.8,21.2,0c2.9,2.9,4.4,6.7,4.4,10.6
				C304.2,226.1,302.7,230,299.8,232.9z"/>
		</g>
		<g>
			<path class="st1" d="M104.2,407.2L104.2,407.2c-15.5-15.5-15.5-40.7,0-56.2l82.5-82.5l56.2,56.2l-82.5,82.5
				C144.9,422.8,119.7,422.8,104.2,407.2z"/>
		</g>
	</g>
	<path class="st5" d="M471.5,39.6c-6.9-7-17-9.4-26.4-6.4l-280.3,91.7c-8.6,2.8-15.1,9.8-17.2,18.7c-2.1,8.8,0.5,17.9,6.9,24.3
		l78.9,78.9l-29.2,29.2l-12.5-12.5c-1.3-1.3-3.1-2.1-5-2.1c-1.9,0-3.7,0.8-5,2.1L99.2,346c-8.9,8.9-13.7,20.6-13.7,33.1
		c0,12.5,4.9,24.3,13.7,33.2c8.9,8.9,20.6,13.7,33.1,13.7c12.5,0,24.3-4.9,33.2-13.7l82.5-82.5c2.8-2.8,2.8-7.3,0-10.1l-12.5-12.5
		l29.2-29.2l78.9,78.9c4.9,4.9,11.5,7.6,18.2,7.6c2,0,4.1-0.2,6.1-0.7c8.8-2.1,15.8-8.5,18.6-17.1l91.2-280.8
		C480.8,56.6,478.4,46.5,471.5,39.6z M155.4,402.2c-6.2,6.2-14.4,9.6-23.1,9.6c-8.7,0-16.9-3.4-23.1-9.6s-9.6-14.4-9.6-23.1
		c0-8.7,3.4-16.9,9.6-23.1l77.5-77.5l12.3,12.3c0,0,0.1,0.1,0.1,0.1l21.2,21.2c0,0,0.1,0,0.1,0.1l12.4,12.4L155.4,402.2z M214.3,286
		l34.2-34.2l35.1-35.1c3.1-3.1,8.1-3.1,11.2,0c1.5,1.5,2.3,3.5,2.3,5.7c0,2-0.8,4-2.3,5.5L259.6,263l-34.2,34.2L214.3,286z
		 M464.2,61.5L373,342.2c-1.3,3.9-4.3,6.7-8.4,7.7c-4,1-8.1-0.2-11-3.1h0L274.7,268l30.1-30.1c4.2-4.2,6.5-9.8,6.5-15.6
		c0.1-5.9-2.2-11.5-6.5-15.7c-1.1-1.1-2.2-2-3.4-2.8c-0.3-0.2-0.7-0.4-1-0.6c-0.9-0.5-1.8-1.1-2.8-1.5c-0.3-0.1-0.7-0.2-1-0.3
		c-1-0.4-2-0.7-3.1-0.9c-0.3-0.1-0.7,0-1-0.1c-1.1-0.2-2.1-0.3-3.2-0.3c0,0,0,0,0,0c-4.3,0-8.3,1.2-11.8,3.5
		c-0.1,0.1-0.2,0.1-0.4,0.2c-1.2,0.8-2.4,1.8-3.5,2.8l-30.1,30.1l-78.9-78.9c-2.9-2.9-4-6.9-3.1-10.9c1-4.1,3.8-7.1,7.8-8.4
		l280.2-91.7c4.3-1.4,8.7-0.3,11.9,2.9C464.6,52.8,465.6,57.2,464.2,61.5z"/>
</g>
</svg>
