<?xml version="1.0" encoding="utf-8"?>
<!-- Generator: Adobe Illustrator 23.1.0, SVG Export Plug-In . SVG Version: 6.00 Build 0)  -->
<svg version="1.1" id="Layer_1" xmlns="http://www.w3.org/2000/svg" xmlns:xlink="http://www.w3.org/1999/xlink" x="0px" y="0px"
	 viewBox="0 0 500 500" style="enable-background:new 0 0 500 500;" xml:space="preserve">
<style type="text/css">
	.st0{fill:#FFE9EF;}
	.st1{fill:#E0BA89;}
	.st2{fill:#EF9825;}
	.st3{fill:#FFD629;}
	.st4{fill:#BF976B;}
	.st5{fill:#231F20;}
	.st6{fill:#2B3860;}
	.st7{fill:#6464F4;}
	.st8{fill:#4545CE;}
	.st9{fill:#9FC6FF;}
	.st10{fill:#9797C4;}
	.st11{fill:#B4B4D6;}
	.st12{fill:#D0D0EF;}
	.st13{fill:#8090B7;}
	.st14{fill:#EBEEFF;}
	.st15{fill:#FF5252;}
	.st16{fill:#BDC3DB;}
	.st17{fill:none;stroke:#231F20;stroke-width:14.2344;stroke-linecap:round;stroke-linejoin:round;stroke-miterlimit:10;}
	.st18{fill:#91673F;}
	.st19{fill:#FFFFFF;}
	.st20{fill:#FFB45A;}
	.st21{fill:#E4E4F2;}
</style>
<g>
	<path class="st5" d="M480.3,299.4l-9.5-32l-26.1-88.2c0,0,0,0,0,0l-8.3-28c-0.9-3-3.7-5.1-6.8-5.1H308.9c-3.9,0-7.1,3.2-7.1,7.1
		v141H94.6c-3.9,0-7.1,3.2-7.1,7.1v62.9c0,3.9,3.2,7.1,7.1,7.1h26.2c-0.1,1.2-0.2,2.4-0.2,3.7c0,28.5,23.1,51.7,51.6,51.7
		s51.6-23.2,51.6-51.7c0-1.3-0.1-2.5-0.2-3.7h94.4c-0.1,1.2-0.2,2.4-0.2,3.7c0,28.5,23.1,51.7,51.6,51.7c28.5,0,51.6-23.2,51.6-51.7
		c0-1.3-0.1-2.5-0.2-3.7h52.8c3.9,0,7.1-3.2,7.1-7.1v-62.9C480.6,300.8,480.5,300.1,480.3,299.4z M454.5,262.4H354.2v-73.9h78.4
		L454.5,262.4z M172.2,412.6c-20.6,0-37.4-16.8-37.4-37.4c0-3.3,0.4-6.2,1.2-9.1c4.1-16.6,19-28.3,36.1-28.3
		c17.2,0,32.1,11.6,36.3,28.4c0.7,2.7,1.1,5.7,1.1,9C209.5,395.8,192.8,412.6,172.2,412.6z M369.3,412.6
		c-20.6,0-37.4-16.8-37.4-37.4c0-3.3,0.4-6.2,1.2-9.1c4-16.6,18.9-28.2,36.1-28.2c17.2,0,32.1,11.6,36.3,28.4c0.7,2.7,1.1,5.7,1.1,9
		C406.7,395.8,389.9,412.6,369.3,412.6z M466.4,357.3h-48.7c-0.2-0.5-0.5-1-0.7-1.5c-0.5-1.1-1-2.2-1.5-3.3
		c-0.7-1.4-1.4-2.8-2.2-4.1c-0.6-1-1.3-2-2-3c-0.9-1.3-1.8-2.5-2.8-3.6c-0.8-0.9-1.5-1.8-2.4-2.6c-1.1-1.1-2.2-2.1-3.4-3.1
		c-0.9-0.8-1.8-1.5-2.7-2.2c-1.3-0.9-2.6-1.8-3.9-2.6c-1-0.6-1.9-1.2-2.9-1.7c-1.4-0.8-3-1.4-4.5-2c-1-0.4-2-0.9-3-1.2
		c-1.7-0.6-3.5-1-5.3-1.4c-0.9-0.2-1.8-0.5-2.7-0.6c-2.7-0.4-5.5-0.7-8.4-0.7c-2.9,0-5.7,0.3-8.4,0.7c-0.9,0.2-1.8,0.4-2.8,0.7
		c-1.8,0.4-3.5,0.8-5.2,1.3c-1.1,0.4-2.1,0.9-3.2,1.3c-1.4,0.6-2.9,1.2-4.2,1.9c-1.1,0.6-2.2,1.3-3.3,2c-1.2,0.7-2.3,1.4-3.4,2.3
		c-1.1,0.8-2.2,1.7-3.2,2.6c-0.9,0.8-1.9,1.6-2.7,2.5c-1,1.1-2,2.2-3,3.3c-0.7,0.9-1.5,1.8-2.2,2.8c-0.9,1.2-1.7,2.5-2.5,3.8
		c-0.6,1-1.2,2.1-1.7,3.2c-0.7,1.3-1.3,2.6-1.8,4c-0.2,0.5-0.5,0.9-0.6,1.4H220.5c-0.2-0.5-0.5-1-0.7-1.5c-0.5-1.1-1-2.2-1.5-3.3
		c-0.7-1.4-1.4-2.8-2.2-4.1c-0.6-1-1.3-2-2-3c-0.9-1.3-1.8-2.5-2.8-3.6c-0.8-0.9-1.5-1.8-2.4-2.6c-1.1-1.1-2.2-2.1-3.4-3.1
		c-0.9-0.8-1.8-1.5-2.7-2.2c-1.3-0.9-2.6-1.8-3.9-2.6c-1-0.6-1.9-1.2-2.9-1.7c-1.4-0.8-3-1.4-4.5-2c-1-0.4-2-0.9-3-1.2
		c-1.7-0.6-3.5-1-5.3-1.4c-0.9-0.2-1.8-0.5-2.7-0.6c-2.7-0.4-5.5-0.7-8.4-0.7c-2.9,0-5.7,0.3-8.4,0.7c-0.9,0.2-1.8,0.4-2.7,0.6
		c-1.8,0.4-3.5,0.8-5.3,1.3c-1.1,0.4-2.1,0.9-3.2,1.3c-1.4,0.6-2.9,1.2-4.3,1.9c-1.1,0.6-2.2,1.3-3.3,1.9c-1.2,0.7-2.4,1.5-3.5,2.3
		c-1.1,0.8-2.1,1.7-3.2,2.6c-1,0.8-1.9,1.7-2.8,2.6c-1,1-2,2.1-2.9,3.2c-0.8,0.9-1.5,1.9-2.2,2.8c-0.9,1.2-1.7,2.4-2.5,3.7
		c-0.6,1.1-1.2,2.1-1.8,3.3c-0.6,1.3-1.3,2.6-1.8,3.9c-0.2,0.5-0.5,0.9-0.6,1.4h-22.1v-48.7h207.2c3.9,0,7.1-3.2,7.1-7.1v-141h108.3
		l4.1,13.7h-81.3c-3.9,0-7.1,3.2-7.1,7.1v88.2c0,3.9,3.2,7.1,7.1,7.1h111.6l7.7,25.9V357.3z"/>
	<path class="st5" d="M260.8,284.9c1.5,0,3-0.5,4.2-1.4c1.6-1.2,2.7-3,2.9-5l19.8-186.4c0,0,0,0,0,0l2.8-26.2h61
		c3.9,0,7.1-3.2,7.1-7.1s-3.2-7.1-7.1-7.1h-67.4c-3.6,0-6.7,2.7-7.1,6.4l-2.8,26.2H33.6c-3.8,0-6.9,3-7.1,6.7l-7.1,137.1
		c-0.2,3.5,2.2,6.6,5.6,7.3l234.3,49.3C259.8,284.8,260.3,284.9,260.8,284.9z M33.9,222.7l6.4-124.3h232.3l-18.1,170.7L33.9,222.7z"
		/>
	<path class="st5" d="M214.1,115.7c-3.9-0.5-7.5,2.2-8,6.1l-13.4,98.3c-0.5,3.9,2.2,7.5,6.1,8c0.3,0,0.7,0.1,1,0.1
		c3.5,0,6.6-2.6,7-6.2l13.4-98.3C220.7,119.9,218,116.3,214.1,115.7z"/>
	<path class="st5" d="M153.7,115.7c-3.9-0.5-7.5,2.2-8,6.1l-11.6,85c-0.5,3.9,2.2,7.5,6.1,8c0.3,0,0.7,0.1,1,0.1
		c3.5,0,6.6-2.6,7-6.2l11.6-85C160.3,119.9,157.6,116.3,153.7,115.7z"/>
	<path class="st5" d="M92.6,113.6c-3.9-0.6-7.5,2.1-8.1,5.9l-10.9,69.8c-0.6,3.9,2.1,7.5,5.9,8.1c0.4,0.1,0.7,0.1,1.1,0.1
		c3.4,0,6.5-2.5,7-6l10.9-69.8C99.2,117.9,96.5,114.2,92.6,113.6z"/>
</g>
</svg>
