<?xml version="1.0" encoding="utf-8"?>
<!-- Generator: Adobe Illustrator 23.1.0, SVG Export Plug-In . SVG Version: 6.00 Build 0)  -->
<svg version="1.1" id="Layer_1" xmlns="http://www.w3.org/2000/svg" xmlns:xlink="http://www.w3.org/1999/xlink" x="0px" y="0px"
	 viewBox="0 0 500 500" style="enable-background:new 0 0 500 500;" xml:space="preserve">
<style type="text/css">
	.st0{fill:#FFE9EF;}
	.st1{fill:#E0BA89;}
	.st2{fill:#EF9825;}
	.st3{fill:#FFD629;}
	.st4{fill:#BF976B;}
	.st5{fill:#231F20;}
	.st6{fill:#2B3860;}
	.st7{fill:#6464F4;}
	.st8{fill:#4545CE;}
	.st9{fill:#9FC6FF;}
	.st10{fill:#9797C4;}
	.st11{fill:#B4B4D6;}
	.st12{fill:#D0D0EF;}
	.st13{fill:#8090B7;}
	.st14{fill:#EBEEFF;}
	.st15{fill:#FF5252;}
	.st16{fill:#BDC3DB;}
	.st17{fill:none;stroke:#231F20;stroke-width:14.2344;stroke-linecap:round;stroke-linejoin:round;stroke-miterlimit:10;}
	.st18{fill:#91673F;}
	.st19{fill:#FFFFFF;}
	.st20{fill:#FFB45A;}
	.st21{fill:#E4E4F2;}
</style>
<g>
	<path class="st5" d="M169.9,283.1c-10.2-10.2-26.8-10.2-37,0c-10.2,10.2-10.2,26.8,0,37l53.9,53.9c5.1,5.1,11.8,7.7,18.5,7.7
		c6.7,0,13.4-2.6,18.5-7.7c4.9-4.9,7.7-11.5,7.7-18.5c0-7-2.7-13.6-7.7-18.5L169.9,283.1z M213.7,363.9c-4.7,4.6-12.2,4.6-16.9,0
		L143,310c-4.6-4.6-4.6-12.2,0-16.9c2.3-2.3,5.4-3.5,8.4-3.5c3.1,0,6.1,1.2,8.4,3.5l53.9,53.9c2.3,2.3,3.5,5.2,3.5,8.4
		C217.2,358.6,216,361.6,213.7,363.9z"/>
	<path class="st5" d="M450.1,136.7L354,40.6c-2.8-2.8-7.3-2.8-10.1,0L217.5,167.1l-3.8-3.8c-2.8-2.8-7.3-2.8-10.1,0L68.1,298.7
		c-2.8,2.8-2.8,7.3,0,10.1l135.4,135.4c1.4,1.4,3.2,2.1,5,2.1c1.8,0,3.6-0.7,5-2.1l68.1-68.1c1.5-1.5,2.2-3.5,2.1-5.5l-0.7-10.4
		l28.8-8.8c2.8-0.9,4.8-3.4,5-6.3l2.7-38.1l36.6-11.2c2.8-0.9,4.8-3.4,5-6.3l2.7-38.1l36.5-11.1c2.8-0.9,4.8-3.4,5-6.3l2.7-38
		l36.5-11.2c2.8-0.9,4.8-3.4,5-6.3l2.4-34.9l0.1-1.2C452.3,140.2,451.5,138.1,450.1,136.7z M208.5,429.1L83.2,303.7l125.4-125.4
		l3.8,3.8l47.3,47.3l8.4,121.2l0.2,3l1,14.7L208.5,429.1z M435.7,172.6l-36.5,11.1c-2.8,0.9-4.8,3.4-5,6.3l-2.7,38.1L355,239.2
		c-2.8,0.9-4.8,3.4-5,6.3l-2.7,38.1l-36.6,11.2c-2.8,0.9-4.8,3.4-5,6.3l-2.7,38.1l-21,6.4l-8.3-119.8c-0.1-1.7-0.9-3.3-2.1-4.5
		l-44.2-44.2L349,55.7l88.7,88.7L435.7,172.6z"/>
</g>
</svg>
