<?xml version="1.0" encoding="utf-8"?>
<!-- Generator: Adobe Illustrator 23.1.0, SVG Export Plug-In . SVG Version: 6.00 Build 0)  -->
<svg version="1.1" id="Layer_1" xmlns="http://www.w3.org/2000/svg" xmlns:xlink="http://www.w3.org/1999/xlink" x="0px" y="0px"
	 viewBox="0 0 500 500" style="enable-background:new 0 0 500 500;" xml:space="preserve">
<style type="text/css">
	.st0{fill:#FFE9EF;}
	.st1{fill:#E0BA89;}
	.st2{fill:#EF9825;}
	.st3{fill:#FFD629;}
	.st4{fill:#BF976B;}
	.st5{fill:#231F20;}
	.st6{fill:#2B3860;}
	.st7{fill:#6464F4;}
	.st8{fill:#4545CE;}
	.st9{fill:#9FC6FF;}
	.st10{fill:#9797C4;}
	.st11{fill:#B4B4D6;}
	.st12{fill:#D0D0EF;}
	.st13{fill:#8090B7;}
	.st14{fill:#EBEEFF;}
	.st15{fill:#FF5252;}
	.st16{fill:#BDC3DB;}
	.st17{fill:none;stroke:#231F20;stroke-width:14.2344;stroke-linecap:round;stroke-linejoin:round;stroke-miterlimit:10;}
	.st18{fill:#91673F;}
	.st19{fill:#FFFFFF;}
	.st20{fill:#FFB45A;}
	.st21{fill:#E4E4F2;}
</style>
<g>
	<path class="st5" d="M431.8,323.6l-9.5-32l-26.1-88.2c0,0,0,0,0,0l-8.3-28c-0.9-3-3.7-5.1-6.8-5.1H267.5V89.8
		c0-3.9-3.2-7.1-7.1-7.1H46.1c-3.9,0-7.1,3.2-7.1,7.1v235.8v62.9c0,3.9,3.2,7.1,7.1,7.1h26.2c-0.1,1.2-0.2,2.4-0.2,3.7
		c0,28.5,23.1,51.7,51.6,51.7s51.6-23.2,51.6-51.7c0-1.3-0.1-2.5-0.2-3.7h94.4c-0.1,1.2-0.2,2.4-0.2,3.7c0,28.5,23.1,51.7,51.6,51.7
		c28.5,0,51.6-23.2,51.6-51.7c0-1.3-0.1-2.5-0.2-3.7H425c3.9,0,7.1-3.2,7.1-7.1v-62.9C432.1,325,432,324.3,431.8,323.6z M406,286.6
		H305.7v-73.9h78.4L406,286.6z M53.2,96.9h200.1v80.6v141H53.2V96.9z M123.7,436.8c-20.6,0-37.4-16.8-37.4-37.4
		c0-3.3,0.4-6.2,1.2-9.1c4.1-16.6,19-28.3,36.2-28.3c17.2,0,32.1,11.6,36.3,28.4c0.7,2.7,1.1,5.7,1.1,9
		C161,420,144.3,436.8,123.7,436.8z M320.8,436.8c-20.6,0-37.4-16.8-37.4-37.4c0-3.3,0.4-6.2,1.2-9.1c4-16.6,18.9-28.2,36.1-28.2
		c17.2,0,32.1,11.6,36.3,28.4c0.7,2.7,1.1,5.7,1.1,9C358.2,420,341.4,436.8,320.8,436.8z M417.9,381.5h-48.7c-0.2-0.5-0.5-1-0.7-1.5
		c-0.5-1.1-1-2.2-1.5-3.3c-0.7-1.4-1.4-2.8-2.2-4.1c-0.6-1-1.3-2-2-3c-0.9-1.3-1.8-2.5-2.8-3.6c-0.8-0.9-1.5-1.8-2.4-2.6
		c-1.1-1.1-2.2-2.1-3.4-3.1c-0.9-0.8-1.8-1.5-2.7-2.2c-1.3-0.9-2.6-1.8-3.9-2.6c-1-0.6-1.9-1.2-2.9-1.7c-1.5-0.8-3-1.4-4.5-2
		c-1-0.4-1.9-0.9-3-1.2c-1.7-0.6-3.5-1-5.3-1.4c-0.9-0.2-1.7-0.5-2.7-0.6c-2.7-0.4-5.5-0.7-8.4-0.7c-2.9,0-5.7,0.3-8.4,0.7
		c-0.9,0.2-1.8,0.4-2.8,0.7c-1.8,0.4-3.5,0.8-5.2,1.3c-1.1,0.4-2.1,0.9-3.2,1.3c-1.4,0.6-2.9,1.2-4.2,1.9c-1.1,0.6-2.2,1.3-3.3,2
		c-1.2,0.7-2.3,1.4-3.4,2.3c-1.1,0.8-2.2,1.7-3.2,2.6c-0.9,0.8-1.9,1.6-2.7,2.5c-1,1.1-2,2.2-3,3.3c-0.7,0.9-1.5,1.8-2.2,2.8
		c-0.9,1.2-1.7,2.5-2.5,3.8c-0.6,1-1.2,2.1-1.7,3.2c-0.7,1.3-1.3,2.6-1.8,4c-0.2,0.5-0.5,0.9-0.6,1.4H172c-0.2-0.5-0.5-1-0.7-1.5
		c-0.5-1.1-1-2.2-1.5-3.3c-0.7-1.4-1.4-2.8-2.2-4.1c-0.6-1-1.3-2-2-3c-0.9-1.3-1.8-2.5-2.8-3.6c-0.8-0.9-1.5-1.8-2.4-2.6
		c-1.1-1.1-2.2-2.1-3.4-3.1c-0.9-0.8-1.8-1.5-2.7-2.2c-1.3-0.9-2.6-1.8-3.9-2.6c-1-0.6-1.9-1.2-2.9-1.7c-1.5-0.8-3-1.4-4.5-2
		c-1-0.4-1.9-0.9-3-1.2c-1.7-0.6-3.5-1-5.3-1.4c-0.9-0.2-1.7-0.5-2.7-0.6c-2.7-0.4-5.5-0.7-8.4-0.7c-2.9,0-5.7,0.3-8.4,0.7
		c-0.9,0.2-1.8,0.4-2.8,0.7c-1.8,0.4-3.5,0.8-5.2,1.3c-1.1,0.4-2.1,0.9-3.2,1.3c-1.4,0.6-2.8,1.2-4.2,1.9c-1.1,0.6-2.2,1.3-3.3,2
		c-1.2,0.7-2.3,1.4-3.4,2.3c-1.1,0.8-2.2,1.7-3.2,2.6c-0.9,0.8-1.9,1.6-2.8,2.5c-1,1-2,2.1-3,3.3c-0.8,0.9-1.5,1.8-2.2,2.8
		c-0.9,1.2-1.7,2.5-2.5,3.8c-0.6,1-1.2,2.1-1.7,3.2c-0.7,1.3-1.3,2.6-1.8,4c-0.2,0.5-0.5,0.9-0.6,1.4H53.2v-48.7h207.2
		c3.9,0,7.1-3.2,7.1-7.1v-141h108.3l4.1,13.7h-81.3c-3.9,0-7.1,3.2-7.1,7.1v88.2c0,3.9,3.2,7.1,7.1,7.1h111.6l7.7,25.9V381.5z"/>
	<path class="st5" d="M87.1,122.8c-3.9,0-7.1,3.2-7.1,7.1v153.1c0,3.9,3.2,7.1,7.1,7.1c3.9,0,7.1-3.2,7.1-7.1V129.9
		C94.2,126,91,122.8,87.1,122.8z"/>
	<path class="st5" d="M152,122.8c-3.9,0-7.1,3.2-7.1,7.1v153.1c0,3.9,3.2,7.1,7.1,7.1s7.1-3.2,7.1-7.1V129.9
		C159.1,126,155.9,122.8,152,122.8z"/>
	<path class="st5" d="M216.9,122.8c-3.9,0-7.1,3.2-7.1,7.1v153.1c0,3.9,3.2,7.1,7.1,7.1s7.1-3.2,7.1-7.1V129.9
		C224,126,220.8,122.8,216.9,122.8z"/>
</g>
</svg>
