<?xml version="1.0" encoding="utf-8"?>
<!-- Generator: Adobe Illustrator 23.1.0, SVG Export Plug-In . SVG Version: 6.00 Build 0)  -->
<svg version="1.1" id="Layer_1" xmlns="http://www.w3.org/2000/svg" xmlns:xlink="http://www.w3.org/1999/xlink" x="0px" y="0px"
	 viewBox="0 0 500 500" style="enable-background:new 0 0 500 500;" xml:space="preserve">
<style type="text/css">
	.st0{fill:#FFE9EF;}
	.st1{fill:#E0BA89;}
	.st2{fill:#EF9825;}
	.st3{fill:#FFD629;}
	.st4{fill:#BF976B;}
	.st5{fill:#231F20;}
	.st6{fill:#2B3860;}
	.st7{fill:#6464F4;}
	.st8{fill:#4545CE;}
	.st9{fill:#9FC6FF;}
	.st10{fill:#9797C4;}
	.st11{fill:#B4B4D6;}
	.st12{fill:#D0D0EF;}
	.st13{fill:#8090B7;}
	.st14{fill:#EBEEFF;}
	.st15{fill:#FF5252;}
	.st16{fill:#BDC3DB;}
	.st17{fill:none;stroke:#231F20;stroke-width:14.2344;stroke-linecap:round;stroke-linejoin:round;stroke-miterlimit:10;}
	.st18{fill:#91673F;}
	.st19{fill:#FFFFFF;}
	.st20{fill:#FFB45A;}
	.st21{fill:#E4E4F2;}
</style>
<path class="st5" d="M458.3,244.3L262.6,48.6c-10.4-10.4-27.3-10.4-37.7,0L203,70.5c-8.7-6.6-19.3-10.2-30.4-10.2
	c-13.5,0-26.3,5.3-35.8,14.8l-3,3c-9.6,9.6-14.8,22.3-14.8,35.8s5.3,26.3,14.8,35.8l108.9,108.9l-37,37L184.9,275
	c-2.8-2.8-7.3-2.8-10.1,0l-94.7,94.7c-17,17-17,44.6,0,61.6c8.5,8.5,19.6,12.7,30.8,12.7c11.2,0,22.3-4.2,30.8-12.7l94.7-94.7
	c2.8-2.8,2.8-7.3,0-10.1l-20.7-20.7l42.1-42.1c2.8-2.8,2.8-7.3,0-10.1L143.8,139.7c-6.9-6.9-10.7-16-10.7-25.8s3.8-18.9,10.7-25.8
	l3-3c6.9-6.9,16-10.7,25.8-10.7c7.3,0,14.3,2.1,20.2,6.1l-21.1,21.1c-5,5-7.8,11.7-7.8,18.9c0,7.1,2.8,13.8,7.8,18.9l195.7,195.7
	c5.2,5.2,12,7.8,18.9,7.8c6.8,0,13.7-2.6,18.9-7.8l53.2-53.2c5-5,7.8-11.7,7.8-18.9C466.1,256,463.3,249.3,458.3,244.3z
	 M131.6,421.2c-11.4,11.4-30,11.4-41.5,0c-5.5-5.5-8.6-12.9-8.6-20.7c0-7.8,3-15.2,8.6-20.7l89.7-89.7l41.5,41.5L131.6,421.2z
	 M448.2,271.9l-53.2,53.2c-4.8,4.8-12.7,4.8-17.6,0L181.8,129.4c-2.3-2.3-3.6-5.5-3.6-8.8s1.3-6.4,3.6-8.8l26.6-26.6c0,0,0,0,0,0
	c0,0,0,0,0,0L235,58.6c4.8-4.8,12.7-4.8,17.6,0l195.7,195.7c2.3,2.3,3.6,5.5,3.6,8.8C451.9,266.4,450.6,269.6,448.2,271.9z"/>
</svg>
