<?xml version="1.0" encoding="utf-8"?>
<!-- Generator: Adobe Illustrator 23.1.0, SVG Export Plug-In . SVG Version: 6.00 Build 0)  -->
<svg version="1.1" id="Layer_1" xmlns="http://www.w3.org/2000/svg" xmlns:xlink="http://www.w3.org/1999/xlink" x="0px" y="0px"
	 viewBox="0 0 500 500" style="enable-background:new 0 0 500 500;" xml:space="preserve">
<style type="text/css">
	.st0{fill:#FFE9EF;}
	.st1{fill:#E0BA89;}
	.st2{fill:#EF9825;}
	.st3{fill:#FFD629;}
	.st4{fill:#BF976B;}
	.st5{fill:#231F20;}
	.st6{fill:#2B3860;}
	.st7{fill:#6464F4;}
	.st8{fill:#4545CE;}
	.st9{fill:#9FC6FF;}
	.st10{fill:#9797C4;}
	.st11{fill:#B4B4D6;}
	.st12{fill:#D0D0EF;}
	.st13{fill:#8090B7;}
	.st14{fill:#EBEEFF;}
	.st15{fill:#FF5252;}
	.st16{fill:#BDC3DB;}
	.st17{fill:none;stroke:#231F20;stroke-width:14.2344;stroke-linecap:round;stroke-linejoin:round;stroke-miterlimit:10;}
	.st18{fill:#91673F;}
	.st19{fill:#FFFFFF;}
	.st20{fill:#FFB45A;}
	.st21{fill:#E4E4F2;}
</style>
<g>
	<g>
		<g>
			<path class="st3" d="M221.1,83.9L42.8,380c-14,23.3,2.8,53,30,53H251h178.3c27.2,0,44-29.7,30-53L281,83.9
				C267.4,61.4,234.6,61.4,221.1,83.9z"/>
		</g>
		<g>
			<path class="st6" d="M247.4,181.8L247.4,181.8c-17.6,0-30.8,16.3-27.1,33.5l19,88.2c0.9,4.4,4.8,7.5,9.3,7.5h0
				c4.6,0,8.5-3.3,9.3-7.7l16.7-88.6C277.9,197.6,264.8,181.8,247.4,181.8z"/>
		</g>
		<g>
			<circle class="st6" cx="247.4" cy="354.6" r="19"/>
		</g>
	</g>
	<g>
		<path class="st5" d="M465.4,376.3l-178.3-296c-7.7-12.8-21.2-20.4-36.1-20.4c-14.9,0-28.4,7.6-36.1,20.4h0l-178.3,296
			c-7.9,13.2-8.2,29-0.6,42.4c7.6,13.4,21.3,21.4,36.6,21.4h356.6c15.4,0,29.1-8,36.6-21.4C473.5,405.3,473.3,389.5,465.4,376.3z
			 M453.5,411.7c-5,8.9-14.1,14.2-24.3,14.2H72.7c-10.2,0-19.2-5.3-24.3-14.2c-5-8.9-4.9-19.4,0.4-28.1l178.3-296c0,0,0,0,0,0
			c5.1-8.4,14-13.5,23.9-13.5c9.9,0,18.8,5,23.9,13.5l178.3,296C458.4,392.4,458.6,402.9,453.5,411.7z"/>
		<path class="st5" d="M247.4,174.7c-10.6,0-20.4,4.7-27.1,12.9c-6.6,8.2-9.2,18.9-7,29.2l19,88.2c1.6,7.6,8.5,13.1,16.2,13.1
			c8,0,14.9-5.7,16.3-13.5l16.7-88.6c1.9-10.2-0.8-20.7-7.4-28.7C267.6,179.3,257.8,174.7,247.4,174.7z M267.7,213.3l-16.7,88.6
			c-0.4,2.2-4.2,2.3-4.7,0.1l-19-88.2c-1.3-6.1,0.2-12.4,4.1-17.3c3.9-4.9,9.8-7.7,16-7.7c6.1,0,11.9,2.7,15.9,7.4
			C267.2,201.1,268.8,207.3,267.7,213.3z"/>
		<path class="st5" d="M247.4,328.5c-14.4,0-26.1,11.7-26.1,26.1c0,14.4,11.7,26.1,26.1,26.1c14.4,0,26.1-11.7,26.1-26.1
			C273.5,340.2,261.8,328.5,247.4,328.5z M247.4,366.4c-6.6,0-11.9-5.3-11.9-11.9c0-6.5,5.3-11.9,11.9-11.9
			c6.5,0,11.9,5.3,11.9,11.9C259.3,361.1,254,366.4,247.4,366.4z"/>
	</g>
</g>
</svg>
