<?xml version="1.0" encoding="utf-8"?>
<!-- Generator: Adobe Illustrator 23.1.0, SVG Export Plug-In . SVG Version: 6.00 Build 0)  -->
<svg version="1.1" id="Layer_1" xmlns="http://www.w3.org/2000/svg" xmlns:xlink="http://www.w3.org/1999/xlink" x="0px" y="0px"
	 viewBox="0 0 500 500" style="enable-background:new 0 0 500 500;" xml:space="preserve">
<style type="text/css">
	.st0{fill:#FFE9EF;}
	.st1{fill:#E0BA89;}
	.st2{fill:#EF9825;}
	.st3{fill:#FFD629;}
	.st4{fill:#BF976B;}
	.st5{fill:#231F20;}
	.st6{fill:#2B3860;}
	.st7{fill:#6464F4;}
	.st8{fill:#4545CE;}
	.st9{fill:#9FC6FF;}
	.st10{fill:#9797C4;}
	.st11{fill:#B4B4D6;}
	.st12{fill:#D0D0EF;}
	.st13{fill:#8090B7;}
	.st14{fill:#EBEEFF;}
	.st15{fill:#FF5252;}
	.st16{fill:#BDC3DB;}
	.st17{fill:none;stroke:#231F20;stroke-width:14.2344;stroke-linecap:round;stroke-linejoin:round;stroke-miterlimit:10;}
	.st18{fill:#91673F;}
	.st19{fill:#FFFFFF;}
	.st20{fill:#FFB45A;}
	.st21{fill:#E4E4F2;}
</style>
<path class="st5" d="M423.3,75.3l-24.6-24.6c-2.3-2.3-5.8-2.7-8.6-1.1l-53.4,31.2c-1.5,0.9-2.6,2.3-3.2,3.9l-11.5,35l-87.9,87.9
	l-20.6-20.6c-2.8-2.8-7.3-2.8-10.1,0l-21.3,21.3c-1.5,1.5-2.2,3.5-2.1,5.6l2,25c-17.7-1.3-36.1,5.5-49.7,19.1L68.5,322
	c-13,13-13.8,33.2-2,45l40.5,40.5c5.4,5.4,12.7,8.4,20.7,8.4c0.6,0,1.2,0,1.8-0.1c8.4-0.5,16.4-4.1,22.5-10.3l63.8-63.8
	c7.9-7.9,13.7-17.5,16.7-27.9c2.2-7.2,3-14.6,2.4-21.8l25.1,2c2.1,0.1,4.1-0.6,5.6-2.1l21.3-21.3c2.8-2.8,2.8-7.3,0-10.1L266.4,240
	l87.9-87.9l35-11.5c1.6-0.5,3-1.7,3.9-3.2l31.2-53.4C426.1,81.1,425.6,77.6,423.3,75.3z M258,279.6l-30.8-2.4
	c-2.3-0.2-4.5,0.8-6,2.5c-1.5,1.8-2,4.1-1.5,6.3c1.9,7.6,1.7,15.8-0.7,23.8c-2.4,8.1-6.9,15.6-13.1,21.8l-63.8,63.8
	c-3.7,3.7-8.4,5.9-13.3,6.2c-4.6,0.3-8.7-1.2-11.6-4.2L76.6,357c-6.3-6.3-5.4-17.5,2-24.9l63.8-63.8c9.8-9.8,22.6-15.2,35.1-15.2
	c3.6,0,7.1,0.4,10.5,1.3c2.2,0.6,4.6,0,6.4-1.4c1.8-1.5,2.7-3.7,2.5-6l-2.4-30.8l14-14l20.6,20.6l22.2,22.2l20.6,20.6L258,279.6z
	 M382.3,127.9l-34,11.2c-1.1,0.3-2,0.9-2.8,1.7l-89.1,89.1l-12.2-12.2l89.1-89.1c0.8-0.8,1.4-1.8,1.7-2.8l11.2-34l46.4-27.1
	l16.8,16.8L382.3,127.9z"/>
</svg>
