<?xml version="1.0" encoding="utf-8"?>
<!-- Generator: Adobe Illustrator 23.1.0, SVG Export Plug-In . SVG Version: 6.00 Build 0)  -->
<svg version="1.1" id="Layer_1" xmlns="http://www.w3.org/2000/svg" xmlns:xlink="http://www.w3.org/1999/xlink" x="0px" y="0px"
	 viewBox="0 0 500 500" style="enable-background:new 0 0 500 500;" xml:space="preserve">
<style type="text/css">
	.st0{fill:#FFE9EF;}
	.st1{fill:#E0BA89;}
	.st2{fill:#EF9825;}
	.st3{fill:#FFD629;}
	.st4{fill:#BF976B;}
	.st5{fill:#231F20;}
	.st6{fill:#2B3860;}
	.st7{fill:#6464F4;}
	.st8{fill:#4545CE;}
	.st9{fill:#9FC6FF;}
	.st10{fill:#9797C4;}
	.st11{fill:#B4B4D6;}
	.st12{fill:#D0D0EF;}
	.st13{fill:#8090B7;}
	.st14{fill:#EBEEFF;}
	.st15{fill:#FF5252;}
	.st16{fill:#BDC3DB;}
	.st17{fill:none;stroke:#231F20;stroke-width:14.2344;stroke-linecap:round;stroke-linejoin:round;stroke-miterlimit:10;}
	.st18{fill:#91673F;}
	.st19{fill:#FFFFFF;}
	.st20{fill:#FFB45A;}
	.st21{fill:#E4E4F2;}
</style>
<g>
	<g>
		<path class="st13" d="M276.2,402.3H94.3c-36.8,0-66.6-29.8-66.6-66.6v0c0-36.8,29.8-66.6,66.6-66.6h181.9
			c36.8,0,66.6,29.8,66.6,66.6v0C342.8,372.5,313,402.3,276.2,402.3z"/>
	</g>
	<g>
		<circle class="st6" cx="100.2" cy="332.8" r="37.3"/>
	</g>
	<g>
		<circle class="st6" cx="271.4" cy="332.8" r="37.3"/>
	</g>
	<g>
		<polygon class="st2" points="276.2,269.1 83.5,270 83.5,206.6 249.2,206.6 259.6,230.8 264.8,242.7 		"/>
	</g>
	<g>
		<path class="st14" d="M249.2,206.6H83.5v-98.7c0-10.2,8.3-18.5,18.5-18.5h84.4c7.4,0,14.1,4.4,17,11.2L249.2,206.6z"/>
	</g>
	<g>
		<polygon class="st6" points="490.2,313.2 490.2,332.8 378.8,332.8 378.8,172.2 401,172.2 417.7,280.2 		"/>
	</g>
	<g>
		<polygon class="st13" points="378.8,230.8 378.8,242.7 264.8,242.7 259.6,230.8 		"/>
	</g>
</g>
</svg>
