<?xml version="1.0" encoding="utf-8"?>
<!-- Generator: Adobe Illustrator 23.1.0, SVG Export Plug-In . SVG Version: 6.00 Build 0)  -->
<svg version="1.1" id="Layer_1" xmlns="http://www.w3.org/2000/svg" xmlns:xlink="http://www.w3.org/1999/xlink" x="0px" y="0px"
	 viewBox="0 0 500 500" style="enable-background:new 0 0 500 500;" xml:space="preserve">
<style type="text/css">
	.st0{fill:#FFE9EF;}
	.st1{fill:#E0BA89;}
	.st2{fill:#EF9825;}
	.st3{fill:#FFD629;}
	.st4{fill:#BF976B;}
	.st5{fill:#231F20;}
	.st6{fill:#2B3860;}
	.st7{fill:#6464F4;}
	.st8{fill:#4545CE;}
	.st9{fill:#9FC6FF;}
	.st10{fill:#9797C4;}
	.st11{fill:#B4B4D6;}
	.st12{fill:#D0D0EF;}
	.st13{fill:#8090B7;}
	.st14{fill:#EBEEFF;}
	.st15{fill:#FF5252;}
	.st16{fill:#BDC3DB;}
	.st17{fill:none;stroke:#231F20;stroke-width:14.2344;stroke-linecap:round;stroke-linejoin:round;stroke-miterlimit:10;}
	.st18{fill:#91673F;}
	.st19{fill:#FFFFFF;}
	.st20{fill:#FFB45A;}
	.st21{fill:#E4E4F2;}
</style>
<g>
	<g>
		<polygon class="st14" points="395.3,151.5 358.7,163.5 264.6,257.7 242.3,235.4 336.5,141.3 348.5,104.7 401.9,73.5 426.5,98 		
			"/>
	</g>
	<g>
		<path class="st15" d="M268.9,304.7l-34.1-2.7c2.3,9,1.9,18.5-0.8,27.6c-2.7,9.1-7.8,17.7-14.9,24.9l-63.8,63.8
			c-10.2,10.2-25.9,11.1-35,2l-40.5-40.5c-9.1-9.1-8.3-24.8,2-35l63.8-63.8c14.3-14.3,34.4-20.3,52.4-15.7l-2.7-34.1l21.3-21.3
			l73.5,73.5L268.9,304.7z"/>
	</g>
</g>
</svg>
