<?xml version="1.0" encoding="utf-8"?>
<!-- Generator: Adobe Illustrator 23.1.0, SVG Export Plug-In . SVG Version: 6.00 Build 0)  -->
<svg version="1.1" id="Layer_1" xmlns="http://www.w3.org/2000/svg" xmlns:xlink="http://www.w3.org/1999/xlink" x="0px" y="0px"
	 viewBox="0 0 500 500" style="enable-background:new 0 0 500 500;" xml:space="preserve">
<style type="text/css">
	.st0{fill:#FFE9EF;}
	.st1{fill:#E0BA89;}
	.st2{fill:#EF9825;}
	.st3{fill:#FFD629;}
	.st4{fill:#BF976B;}
	.st5{fill:#231F20;}
	.st6{fill:#2B3860;}
	.st7{fill:#6464F4;}
	.st8{fill:#4545CE;}
	.st9{fill:#9FC6FF;}
	.st10{fill:#9797C4;}
	.st11{fill:#B4B4D6;}
	.st12{fill:#D0D0EF;}
	.st13{fill:#8090B7;}
	.st14{fill:#EBEEFF;}
	.st15{fill:#FF5252;}
	.st16{fill:#BDC3DB;}
	.st17{fill:none;stroke:#231F20;stroke-width:14.2344;stroke-linecap:round;stroke-linejoin:round;stroke-miterlimit:10;}
	.st18{fill:#91673F;}
	.st19{fill:#FFFFFF;}
	.st20{fill:#FFB45A;}
	.st21{fill:#E4E4F2;}
</style>
<g>
	<path class="st5" d="M487.6,330.7l-9.2-31L453.1,214c0,0,0,0,0,0l-8-27.2c-0.9-2.9-3.6-5-6.6-5H321.1c-3.8,0-6.9,3.1-6.9,6.9v137
		H112.9c-3.8,0-6.9,3.1-6.9,6.9v61.1c0,3.8,3.1,6.9,6.9,6.9h25.5c-0.1,1.2-0.2,2.4-0.2,3.6c0,27.7,22.5,50.2,50.1,50.2
		s50.1-22.5,50.1-50.2c0-1.2-0.1-2.4-0.2-3.6h91.7c-0.1,1.2-0.2,2.4-0.2,3.6c0,27.7,22.5,50.2,50.1,50.2c27.6,0,50.1-22.5,50.1-50.2
		c0-1.2-0.1-2.4-0.2-3.6H481c3.8,0,6.9-3.1,6.9-6.9v-61.1C487.9,332,487.8,331.3,487.6,330.7z M462.5,294.7h-97.4v-71.8h76.1
		L462.5,294.7z M188.3,440.6c-20,0-36.3-16.3-36.3-36.4c0-3.2,0.4-6.1,1.2-8.9c4-16.2,18.4-27.4,35.1-27.4
		c16.7,0,31.1,11.3,35.2,27.6c0.7,2.6,1.1,5.5,1.1,8.7C224.6,424.3,208.3,440.6,188.3,440.6z M379.8,440.6
		c-20,0-36.3-16.3-36.3-36.4c0-3.2,0.4-6.1,1.2-8.9c3.9-16.2,18.4-27.4,35.1-27.4c16.7,0,31.1,11.3,35.2,27.6
		c0.7,2.6,1.1,5.6,1.1,8.7C416.1,424.3,399.8,440.6,379.8,440.6z M474.1,386.9h-47.3c-0.2-0.5-0.5-1-0.7-1.5
		c-0.4-1.1-0.9-2.1-1.5-3.2c-0.7-1.4-1.4-2.7-2.2-4c-0.6-1-1.2-2-1.9-2.9c-0.9-1.2-1.8-2.4-2.7-3.5c-0.7-0.9-1.5-1.7-2.3-2.5
		c-1-1.1-2.2-2.1-3.3-3c-0.9-0.7-1.7-1.5-2.6-2.1c-1.2-0.9-2.5-1.7-3.8-2.5c-0.9-0.6-1.8-1.2-2.8-1.7c-1.4-0.7-2.9-1.3-4.4-1.9
		c-1-0.4-1.9-0.8-2.9-1.2c-1.7-0.6-3.4-1-5.2-1.3c-0.9-0.2-1.7-0.5-2.6-0.6c-2.7-0.4-5.4-0.7-8.2-0.7c-2.8,0-5.5,0.3-8.2,0.7
		c-0.9,0.1-1.8,0.4-2.7,0.6c-1.7,0.4-3.4,0.8-5.1,1.3c-1.1,0.4-2.1,0.8-3.1,1.3c-1.4,0.6-2.8,1.1-4.1,1.8c-1.1,0.6-2.1,1.2-3.2,1.9
		c-1.1,0.7-2.3,1.4-3.4,2.2c-1.1,0.8-2.1,1.7-3.1,2.6c-0.9,0.8-1.8,1.6-2.7,2.5c-1,1-1.9,2.1-2.9,3.2c-0.7,0.9-1.4,1.8-2.1,2.7
		c-0.9,1.2-1.7,2.4-2.4,3.7c-0.6,1-1.1,2-1.7,3.1c-0.6,1.3-1.2,2.5-1.8,3.9c-0.2,0.5-0.4,0.9-0.6,1.3h-97.6c-0.2-0.5-0.5-1-0.7-1.5
		c-0.4-1.1-1-2.2-1.5-3.2c-0.7-1.4-1.4-2.7-2.2-4c-0.6-1-1.2-2-1.9-2.9c-0.9-1.2-1.8-2.4-2.8-3.5c-0.7-0.9-1.5-1.7-2.3-2.5
		c-1.1-1.1-2.2-2.1-3.3-3c-0.9-0.7-1.7-1.5-2.6-2.1c-1.2-0.9-2.5-1.7-3.8-2.5c-0.9-0.6-1.8-1.2-2.8-1.7c-1.4-0.7-2.9-1.3-4.4-1.9
		c-1-0.4-1.9-0.8-2.9-1.2c-1.7-0.6-3.4-1-5.2-1.3c-0.9-0.2-1.7-0.5-2.6-0.6c-2.7-0.4-5.4-0.7-8.2-0.7c-2.8,0-5.5,0.3-8.2,0.7
		c-0.9,0.1-1.8,0.4-2.7,0.6c-1.7,0.4-3.4,0.8-5.1,1.3c-1.1,0.4-2.1,0.8-3.1,1.3c-1.4,0.6-2.8,1.1-4.1,1.8c-1.1,0.6-2.1,1.3-3.2,1.9
		c-1.1,0.7-2.3,1.4-3.3,2.2c-1.1,0.8-2.1,1.7-3.1,2.6c-0.9,0.8-1.8,1.6-2.7,2.5c-1,1-2,2.1-2.9,3.2c-0.7,0.9-1.4,1.8-2.1,2.7
		c-0.9,1.2-1.7,2.4-2.4,3.7c-0.6,1-1.1,2-1.7,3.1c-0.6,1.3-1.2,2.6-1.8,3.9c-0.2,0.5-0.4,0.9-0.6,1.3h-21.5v-47.3h201.3
		c3.8,0,6.9-3.1,6.9-6.9v-137h105.2l3.9,13.3h-79c-3.8,0-6.9,3.1-6.9,6.9v85.7c0,3.8,3.1,6.9,6.9,6.9h108.4l7.4,25.1V386.9z"/>
	<path class="st5" d="M193.7,308.2l52.7-3.9c10-0.7,18.7-6.4,23.4-15.2l30.6-57.1c4.7-8.8,4.6-19.2-0.3-27.9l-26-46.1
		c-18.8-33.2-51.1-56-88.8-62.5L77.4,77C65.1,74.9,52.9,80.9,47,91.9l-34.2,63.8c-5.9,11-4.1,24.5,4.5,33.6l75.2,79.6
		c24.1,25.5,57.1,39.6,91.8,39.6C187.4,308.5,190.6,308.4,193.7,308.2z M102.5,259.4l-75.2-79.6c-4.5-4.8-5.4-11.8-2.3-17.6
		l34.2-63.8c2.7-5,7.8-8,13.4-8c0.9,0,1.7,0.1,2.6,0.2L183,109.1c33.5,5.7,62.3,26,79.1,55.6l26,46.1c2.6,4.5,2.6,10,0.2,14.6
		c0,0,0,0,0,0l-30.6,57.1c-2.5,4.6-7,7.6-12.3,8l-52.7,3.9C158.7,296.9,125.9,284.2,102.5,259.4z"/>
	<path class="st5" d="M213.3,140.3c-3.4-1.8-7.6-0.5-9.4,2.8L150,244c-1.8,3.4-0.5,7.6,2.8,9.4c1,0.6,2.2,0.8,3.3,0.8
		c2.5,0,4.9-1.3,6.1-3.7l54-100.8C217.9,146.3,216.7,142.1,213.3,140.3z"/>
</g>
</svg>
