<?xml version="1.0" encoding="utf-8"?>
<!-- Generator: Adobe Illustrator 23.1.0, SVG Export Plug-In . SVG Version: 6.00 Build 0)  -->
<svg version="1.1" id="Layer_1" xmlns="http://www.w3.org/2000/svg" xmlns:xlink="http://www.w3.org/1999/xlink" x="0px" y="0px"
	 viewBox="0 0 500 500" style="enable-background:new 0 0 500 500;" xml:space="preserve">
<style type="text/css">
	.st0{fill:#FFE9EF;}
	.st1{fill:#E0BA89;}
	.st2{fill:#EF9825;}
	.st3{fill:#FFD629;}
	.st4{fill:#BF976B;}
	.st5{fill:#231F20;}
	.st6{fill:#2B3860;}
	.st7{fill:#6464F4;}
	.st8{fill:#4545CE;}
	.st9{fill:#9FC6FF;}
	.st10{fill:#9797C4;}
	.st11{fill:#B4B4D6;}
	.st12{fill:#D0D0EF;}
	.st13{fill:#8090B7;}
	.st14{fill:#EBEEFF;}
	.st15{fill:#FF5252;}
	.st16{fill:#BDC3DB;}
	.st17{fill:none;stroke:#231F20;stroke-width:14.2344;stroke-linecap:round;stroke-linejoin:round;stroke-miterlimit:10;}
	.st18{fill:#91673F;}
	.st19{fill:#FFFFFF;}
	.st20{fill:#FFB45A;}
	.st21{fill:#E4E4F2;}
</style>
<path class="st5" d="M433.9,201.7h-81.1v-68c0-3.9-3.2-7.1-7.1-7.1h-93.4v-68c0-3.9-3.2-7.1-7.1-7.1H59.8c-3.9,0-7.1,3.2-7.1,7.1
	v75.1v75.1v75.1V359v75.1c0,3.9,3.2,7.1,7.1,7.1h185.3h188.8c3.9,0,7.1-3.2,7.1-7.1V359v-75.1v-75.1
	C441,204.9,437.8,201.7,433.9,201.7z M245.1,351.9h-93.5v-60.9h93.5h93.4v60.9H245.1z M66.9,351.9v-60.9h70.5v60.9H66.9z M238,276.8
	h-93.5H66.9V216h77.6H238V276.8z M137.4,201.7H66.9v-60.9h70.5V201.7z M352.8,291.1h74v60.9h-74V291.1z M426.7,276.8h-81.1h-93.4
	V216h93.4h81.1V276.8z M338.6,201.7h-93.4h-93.5v-60.9h93.5h93.4V201.7z M66.9,65.8H238v60.9h-93.5H66.9V65.8z M66.9,366.1h77.6H238
	V427H66.9V366.1z M426.7,427H252.2v-60.9h93.4h81.1V427z"/>
</svg>
