<?xml version="1.0" encoding="utf-8"?>
<!-- Generator: Adobe Illustrator 23.1.0, SVG Export Plug-In . SVG Version: 6.00 Build 0)  -->
<svg version="1.1" id="Layer_1" xmlns="http://www.w3.org/2000/svg" xmlns:xlink="http://www.w3.org/1999/xlink" x="0px" y="0px"
	 viewBox="0 0 500 500" style="enable-background:new 0 0 500 500;" xml:space="preserve">
<style type="text/css">
	.st0{fill:#FFE9EF;}
	.st1{fill:#E0BA89;}
	.st2{fill:#EF9825;}
	.st3{fill:#FFD629;}
	.st4{fill:#BF976B;}
	.st5{fill:#231F20;}
	.st6{fill:#2B3860;}
	.st7{fill:#6464F4;}
	.st8{fill:#4545CE;}
	.st9{fill:#9FC6FF;}
	.st10{fill:#9797C4;}
	.st11{fill:#B4B4D6;}
	.st12{fill:#D0D0EF;}
	.st13{fill:#8090B7;}
	.st14{fill:#EBEEFF;}
	.st15{fill:#FF5252;}
	.st16{fill:#BDC3DB;}
	.st17{fill:none;stroke:#231F20;stroke-width:14.2344;stroke-linecap:round;stroke-linejoin:round;stroke-miterlimit:10;}
	.st18{fill:#91673F;}
	.st19{fill:#FFFFFF;}
	.st20{fill:#FFB45A;}
	.st21{fill:#E4E4F2;}
</style>
<path class="st5" d="M452.4,53c-6.9-7-17-9.4-26.4-6.4l-280.3,91.7c-8.6,2.8-15.1,9.8-17.2,18.7c-2.1,8.8,0.5,17.9,6.9,24.3
	l78.9,78.9l-29.2,29.2l-12.5-12.5c-1.3-1.3-3.1-2.1-5-2.1c-1.9,0-3.7,0.8-5,2.1l-82.5,82.5c-8.9,8.9-13.7,20.6-13.7,33.1
	c0,12.5,4.9,24.3,13.7,33.2s20.6,13.7,33.1,13.7c12.5,0,24.3-4.9,33.2-13.7l82.5-82.5c2.8-2.8,2.8-7.3,0-10.1l-12.5-12.5l29.2-29.2
	l78.9,78.9c4.9,4.9,11.5,7.6,18.2,7.6c2,0,4.1-0.2,6.1-0.7c8.8-2.1,15.8-8.5,18.6-17.1l91.2-280.8C461.7,70,459.3,59.9,452.4,53z
	 M136.3,415.6c-6.2,6.2-14.4,9.6-23.1,9.6c-8.7,0-16.9-3.4-23.1-9.6c-6.2-6.2-9.6-14.4-9.6-23.1c0-8.7,3.4-16.9,9.6-23.1l77.5-77.5
	l12.3,12.3c0,0,0.1,0.1,0.1,0.1l21.2,21.2c0,0,0.1,0,0.1,0.1l12.4,12.4L136.3,415.6z M195.1,299.4l34.2-34.2l35.1-35.1
	c3.1-3.1,8.1-3.1,11.2,0c1.5,1.5,2.3,3.5,2.3,5.7c0,2-0.8,4-2.3,5.5l-35.1,35.1l-34.2,34.2L195.1,299.4z M445.1,74.9l-91.2,280.8
	c-1.3,3.9-4.3,6.7-8.4,7.7c-4,1-8.1-0.2-11-3.1h0l-78.9-78.9l30.1-30.1c4.2-4.2,6.5-9.8,6.5-15.6c0.1-5.9-2.2-11.5-6.5-15.7
	c-1.1-1.1-2.2-2-3.4-2.8c-0.3-0.2-0.7-0.4-1-0.6c-0.9-0.5-1.8-1.1-2.8-1.5c-0.3-0.1-0.7-0.2-1-0.3c-1-0.4-2-0.7-3.1-0.9
	c-0.3-0.1-0.7,0-1-0.1c-1.1-0.2-2.1-0.3-3.2-0.3c0,0,0,0,0,0c-4.3,0-8.3,1.2-11.8,3.5c-0.1,0.1-0.2,0.1-0.4,0.2
	c-1.2,0.8-2.4,1.8-3.5,2.8l-30.1,30.1l-78.9-78.9c-2.9-2.9-4-6.9-3.1-10.9c1-4.1,3.8-7.1,7.8-8.4l280.2-91.7
	c4.3-1.4,8.7-0.3,11.9,2.9C445.4,66.2,446.5,70.6,445.1,74.9z"/>
</svg>
