<?xml version="1.0" encoding="utf-8"?>
<!-- Generator: Adobe Illustrator 23.1.0, SVG Export Plug-In . SVG Version: 6.00 Build 0)  -->
<svg version="1.1" id="Layer_1" xmlns="http://www.w3.org/2000/svg" xmlns:xlink="http://www.w3.org/1999/xlink" x="0px" y="0px"
	 viewBox="0 0 500 500" style="enable-background:new 0 0 500 500;" xml:space="preserve">
<style type="text/css">
	.st0{fill:#FFE9EF;}
	.st1{fill:#E0BA89;}
	.st2{fill:#EF9825;}
	.st3{fill:#FFD629;}
	.st4{fill:#BF976B;}
	.st5{fill:#231F20;}
	.st6{fill:#2B3860;}
	.st7{fill:#6464F4;}
	.st8{fill:#4545CE;}
	.st9{fill:#9FC6FF;}
	.st10{fill:#9797C4;}
	.st11{fill:#B4B4D6;}
	.st12{fill:#D0D0EF;}
	.st13{fill:#8090B7;}
	.st14{fill:#EBEEFF;}
	.st15{fill:#FF5252;}
	.st16{fill:#BDC3DB;}
	.st17{fill:none;stroke:#231F20;stroke-width:14.2344;stroke-linecap:round;stroke-linejoin:round;stroke-miterlimit:10;}
	.st18{fill:#91673F;}
	.st19{fill:#FFFFFF;}
	.st20{fill:#FFB45A;}
	.st21{fill:#E4E4F2;}
</style>
<g>
	<ellipse transform="matrix(0.9732 -0.2298 0.2298 0.9732 -75.1129 28.9672)" class="st5" cx="86.8" cy="337" rx="38.4" ry="38.4"/>
	
		<ellipse transform="matrix(0.9732 -0.2298 0.2298 0.9732 -70.3892 69.5373)" class="st5" cx="263.4" cy="337" rx="38.4" ry="38.4"/>
	<path class="st5" d="M491.7,311.3l-71.7-32.7l-16.8-108.1c-0.5-3-3-5.2-6.1-5.2h-22.9c-3.4,0-6.1,2.7-6.1,6.1v60.4H258l-11.8-27.4
		c0,0,0,0,0,0L199,95.1c-4-9.3-13.1-15.3-23.2-15.3H88.7c-13.9,0-25.3,11.3-25.3,25.3v162.3c-33,7.8-57.6,37.4-57.6,72.7
		c0,41.3,33.6,74.8,74.8,74.8h187.7c41.3,0,74.8-33.6,74.8-74.8c0-39.9-31.4-72.5-70.7-74.6l-9.2-21.4h104.8V337
		c0,3.4,2.7,6.1,6.1,6.1h114.9c3.4,0,6.1-2.7,6.1-6.1v-20.2C495.2,314.4,493.8,312.2,491.7,311.3z M88.7,92.1h87.1
		c5.2,0,9.9,3.1,11.9,7.9l43.5,100.8H75.7v-95.6C75.7,97.9,81.5,92.1,88.7,92.1z M75.7,213h160.8l11.8,27.4c0,0,0,0,0,0l10.7,24.9
		H80.7c-1.7,0-3.3,0.1-5,0.3V213z M331,340.1c0,34.5-28.1,62.6-62.6,62.6H80.7c-34.5,0-62.6-28.1-62.6-62.6
		c0-31,22.7-56.7,52.3-61.7l198-0.9C302.9,277.5,331,305.6,331,340.1z M483,330.9H380.3V177.5h11.6l16.5,106.2
		c0.3,2,1.6,3.8,3.5,4.6l71.2,32.4V330.9z"/>
</g>
</svg>
