<?xml version="1.0" encoding="utf-8"?>
<!-- Generator: Adobe Illustrator 23.1.0, SVG Export Plug-In . SVG Version: 6.00 Build 0)  -->
<svg version="1.1" id="Layer_1" xmlns="http://www.w3.org/2000/svg" xmlns:xlink="http://www.w3.org/1999/xlink" x="0px" y="0px"
	 viewBox="0 0 500 500" style="enable-background:new 0 0 500 500;" xml:space="preserve">
<style type="text/css">
	.st0{fill:#FFE9EF;}
	.st1{fill:#E0BA89;}
	.st2{fill:#EF9825;}
	.st3{fill:#FFD629;}
	.st4{fill:#BF976B;}
	.st5{fill:#231F20;}
	.st6{fill:#2B3860;}
	.st7{fill:#6464F4;}
	.st8{fill:#4545CE;}
	.st9{fill:#9FC6FF;}
	.st10{fill:#9797C4;}
	.st11{fill:#B4B4D6;}
	.st12{fill:#D0D0EF;}
	.st13{fill:#8090B7;}
	.st14{fill:#EBEEFF;}
	.st15{fill:#FF5252;}
	.st16{fill:#BDC3DB;}
	.st17{fill:none;stroke:#231F20;stroke-width:14.2344;stroke-linecap:round;stroke-linejoin:round;stroke-miterlimit:10;}
	.st18{fill:#91673F;}
	.st19{fill:#FFFFFF;}
	.st20{fill:#FFB45A;}
	.st21{fill:#E4E4F2;}
</style>
<g>
	<g>
		<path class="st15" d="M445,225.1v95.2c-14.8-27.8-44.1-46.7-77.8-46.7c-48.7,0-88.1,39.5-88.1,88.2c0,10.8,1.9,21.2,5.5,30.7
			H142.2c0-27.8-22.5-50.3-50.3-50.3c-1.1,0-2.1,0-3.1,0.1v-58.6c0-32.4,26.3-58.6,58.6-58.6H445z"/>
	</g>
	<g>
		<path class="st6" d="M142.2,392.5c0,27.8-22.5,50.3-50.3,50.3c-27.8,0-50.3-22.6-50.3-50.3c0-26.8,20.9-48.6,47.3-50.2
			c1-0.1,2-0.1,3.1-0.1C119.7,342.2,142.2,364.7,142.2,392.5z"/>
	</g>
	<g>
		<path class="st6" d="M455.4,361.8c0,48.7-39.5,88.1-88.2,88.1c-37.9,0-70.2-23.8-82.6-57.4c-3.6-9.5-5.5-19.9-5.5-30.7
			c0-48.7,39.4-88.2,88.1-88.2c33.7,0,63,18.9,77.8,46.7C451.7,332.7,455.4,346.8,455.4,361.8z"/>
	</g>
	<g>
		<path class="st14" d="M424.4,225.1v-158H290.2c-18.8,0-35.7,11.3-43,28.6l-54.1,129.4H424.4z"/>
	</g>
	<g>
		<g>
			<rect x="356.5" y="67.2" class="st16" width="14.2" height="158"/>
		</g>
	</g>
</g>
</svg>
