<?xml version="1.0" encoding="utf-8"?>
<!-- Generator: Adobe Illustrator 23.1.0, SVG Export Plug-In . SVG Version: 6.00 Build 0)  -->
<svg version="1.1" id="Layer_1" xmlns="http://www.w3.org/2000/svg" xmlns:xlink="http://www.w3.org/1999/xlink" x="0px" y="0px"
	 viewBox="0 0 500 500" style="enable-background:new 0 0 500 500;" xml:space="preserve">
<style type="text/css">
	.st0{fill:#FFE9EF;}
	.st1{fill:#E0BA89;}
	.st2{fill:#EF9825;}
	.st3{fill:#FFD629;}
	.st4{fill:#BF976B;}
	.st5{fill:#231F20;}
	.st6{fill:#2B3860;}
	.st7{fill:#6464F4;}
	.st8{fill:#4545CE;}
	.st9{fill:#9FC6FF;}
	.st10{fill:#9797C4;}
	.st11{fill:#B4B4D6;}
	.st12{fill:#D0D0EF;}
	.st13{fill:#8090B7;}
	.st14{fill:#EBEEFF;}
	.st15{fill:#FF5252;}
	.st16{fill:#BDC3DB;}
	.st17{fill:none;stroke:#231F20;stroke-width:14.2344;stroke-linecap:round;stroke-linejoin:round;stroke-miterlimit:10;}
	.st18{fill:#91673F;}
	.st19{fill:#FFFFFF;}
	.st20{fill:#FFB45A;}
	.st21{fill:#E4E4F2;}
</style>
<g>
	<g>
		<g>
			<path class="st13" d="M272.2,424.3H86.4c-37.6,0-68-30.5-68-68v0c0-37.6,30.5-68,68-68h185.9c37.6,0,68,30.5,68,68v0
				C340.2,393.8,309.8,424.3,272.2,424.3z"/>
		</g>
		<g>
			<circle class="st6" cx="92.4" cy="353.2" r="38.1"/>
		</g>
		<g>
			<circle class="st6" cx="267.3" cy="353.2" r="38.1"/>
		</g>
		<g>
			<polygon class="st2" points="272.2,288.2 75.4,289.1 75.4,224.3 244.6,224.3 255.3,249.1 260.5,261.2 			"/>
		</g>
		<g>
			<path class="st14" d="M244.6,224.3H75.4V123.5c0-10.4,8.5-18.9,18.9-18.9h86.2c7.6,0,14.4,4.5,17.4,11.4L244.6,224.3z"/>
		</g>
		<g>
			<polygon class="st6" points="490.8,333.2 490.8,353.2 377,353.2 377,189.2 399.7,189.2 416.8,299.5 			"/>
		</g>
	</g>
	<g>
		
			<ellipse transform="matrix(0.9732 -0.2298 0.2298 0.9732 -78.6798 30.6871)" class="st5" cx="92.4" cy="353.2" rx="38.1" ry="38.1"/>
		
			<ellipse transform="matrix(0.9732 -0.2298 0.2298 0.9732 -74.002 70.8632)" class="st5" cx="267.3" cy="353.2" rx="38.1" ry="38.1"/>
		<path class="st5" d="M493.3,327.7l-71-32.4l-16.6-107.1c-0.5-3-3-5.1-6-5.1H377c-3.3,0-6.1,2.7-6.1,6.1V249h-109l-11.7-27.1
			c0,0,0,0,0,0l-46.7-108.3c-4-9.2-13-15.1-23-15.1H94.3c-13.8,0-25,11.2-25,25v160.7c-32.6,7.7-57,37.1-57,72
			c0,40.9,33.2,74.1,74.1,74.1h185.9c40.9,0,74.1-33.2,74.1-74.1c0-39.5-31.1-71.8-70-73.9l-9.1-21.2h103.8v92
			c0,3.4,2.7,6.1,6.1,6.1h113.8c3.3,0,6.1-2.7,6.1-6.1v-20C496.9,330.8,495.5,328.7,493.3,327.7z M94.3,110.6h86.3
			c5.1,0,9.8,3.1,11.8,7.8l43.1,99.8h-154v-94.7C81.4,116.4,87.2,110.6,94.3,110.6z M81.4,230.4h159.3l11.7,27.1c0,0,0,0,0,0
			l10.6,24.7H86.4c-1.7,0-3.3,0.1-5,0.3V230.4z M334.2,356.3c0,34.2-27.8,62-62,62H86.4c-34.2,0-62-27.8-62-62
			c0-30.7,22.4-56.2,51.8-61.1l196.1-0.9C306.4,294.3,334.2,322.1,334.2,356.3z M484.8,347.2H383.1V195.3h11.4l16.3,105.2
			c0.3,2,1.6,3.7,3.5,4.6l70.5,32.1V347.2z"/>
	</g>
</g>
</svg>
