<?xml version="1.0" encoding="utf-8"?>
<!-- Generator: Adobe Illustrator 23.1.0, SVG Export Plug-In . SVG Version: 6.00 Build 0)  -->
<svg version="1.1" id="Layer_1" xmlns="http://www.w3.org/2000/svg" xmlns:xlink="http://www.w3.org/1999/xlink" x="0px" y="0px"
	 viewBox="0 0 500 500" style="enable-background:new 0 0 500 500;" xml:space="preserve">
<style type="text/css">
	.st0{fill:#FFE9EF;}
	.st1{fill:#E0BA89;}
	.st2{fill:#EF9825;}
	.st3{fill:#FFD629;}
	.st4{fill:#BF976B;}
	.st5{fill:#231F20;}
	.st6{fill:#2B3860;}
	.st7{fill:#6464F4;}
	.st8{fill:#4545CE;}
	.st9{fill:#9FC6FF;}
	.st10{fill:#9797C4;}
	.st11{fill:#B4B4D6;}
	.st12{fill:#D0D0EF;}
	.st13{fill:#8090B7;}
	.st14{fill:#EBEEFF;}
	.st15{fill:#FF5252;}
	.st16{fill:#BDC3DB;}
	.st17{fill:none;stroke:#231F20;stroke-width:14.2344;stroke-linecap:round;stroke-linejoin:round;stroke-miterlimit:10;}
	.st18{fill:#91673F;}
	.st19{fill:#FFFFFF;}
	.st20{fill:#FFB45A;}
	.st21{fill:#E4E4F2;}
</style>
<path class="st5" d="M429.3,125.1h-17.1h-5.8c-3.9-13.6-16.3-23.3-30.9-23.3h-1.8c-14.6,0-27,9.7-30.9,23.3h-27.6
	c-0.1,0-0.1,0-0.2,0c-0.1,0-0.2,0-0.2,0H218h-86c-3.9-13.6-16.3-23.3-30.9-23.3h-1.8c-14.6,0-27,9.7-30.9,23.3H48.8
	c-3.9,0-7.1,3.2-7.1,7.1v64.6v78.2c0,3.9,3.2,7.1,7.1,7.1h10.4H67v115.3c0,3.9,3.2,7.1,7.1,7.1h52.1c3.9,0,7.1-3.2,7.1-7.1v-37
	h208.2v37c0,3.9,3.2,7.1,7.1,7.1h52.1c3.9,0,7.1-3.2,7.1-7.1V282.2h21.5c3.9,0,7.1-3.2,7.1-7.1v-70.6v-72.2
	C436.5,128.3,433.3,125.1,429.3,125.1z M373.8,116h1.8c6.4,0,12.1,3.4,15.2,8.5h-32.2C361.7,119.4,367.4,116,373.8,116z M55.9,268
	V200l64.3-57.8l3.2-2.9h76L56.4,268H55.9z M77.7,268l143-128.6h75.6L153.3,268H77.7z M290.2,164.4l27.8-25h75.6L250.7,268H175
	L290.2,164.4z M422.2,201.3L348.1,268H272l143-128.6h7.2V201.3z M99.3,116h1.8c6.4,0,12.1,3.4,15.2,8.5H84
	C87.2,119.4,92.9,116,99.3,116z M55.9,139.4h46.2l-28.3,25.4l-17.9,16.1V139.4z M156,282.2c0.1,0,0.1,0,0.2,0c0.1,0,0.2,0,0.2,0
	h94.4c0.7,0.2,1.4,0.4,2.2,0.4h88.5v34.2H133.3v-34.5H156z M119.1,390.4H81.2v-108h37.8v41.5v29.6V390.4z M133.3,346.3V331h208.2
	v15.3H133.3z M393.6,390.4h-37.8v-37v-29.6v-41.5h37.8V390.4z M369.4,268l52.8-47.5V268H369.4z"/>
</svg>
