<?xml version="1.0" encoding="utf-8"?>
<!-- Generator: Adobe Illustrator 23.1.0, SVG Export Plug-In . SVG Version: 6.00 Build 0)  -->
<svg version="1.1" id="Layer_1" xmlns="http://www.w3.org/2000/svg" xmlns:xlink="http://www.w3.org/1999/xlink" x="0px" y="0px"
	 viewBox="0 0 500 500" style="enable-background:new 0 0 500 500;" xml:space="preserve">
<style type="text/css">
	.st0{fill:#FFE9EF;}
	.st1{fill:#E0BA89;}
	.st2{fill:#EF9825;}
	.st3{fill:#FFD629;}
	.st4{fill:#BF976B;}
	.st5{fill:#231F20;}
	.st6{fill:#2B3860;}
	.st7{fill:#6464F4;}
	.st8{fill:#4545CE;}
	.st9{fill:#9FC6FF;}
	.st10{fill:#9797C4;}
	.st11{fill:#B4B4D6;}
	.st12{fill:#D0D0EF;}
	.st13{fill:#8090B7;}
	.st14{fill:#EBEEFF;}
	.st15{fill:#FF5252;}
	.st16{fill:#BDC3DB;}
	.st17{fill:none;stroke:#231F20;stroke-width:14.2344;stroke-linecap:round;stroke-linejoin:round;stroke-miterlimit:10;}
	.st18{fill:#91673F;}
	.st19{fill:#FFFFFF;}
	.st20{fill:#FFB45A;}
	.st21{fill:#E4E4F2;}
</style>
<g>
	<path class="st5" d="M383.9,125.2H146V46.6c0-3.9-3.2-7.1-7.1-7.1C84.8,39.4,38.7,78,29.1,131c-1.2,6.4-1.8,13.2-1.8,20v170.8
		c0,61.5,50.1,111.6,111.6,111.6h245.1c17,0,30.8-13.8,30.8-30.8V156C414.7,139,400.9,125.2,383.9,125.2z M41.5,321.9V151
		c0-6,0.5-11.8,1.6-17.5c7.9-44,44.6-76.5,88.7-79.7v78.4v184c-12.1,1.9-23.4,7.6-32.4,16.5c-9.7,9.8-15.6,22.4-16.9,35.9
		c-0.2,1.9-0.3,3.9-0.3,5.8c0,2.7,0.2,5.3,0.6,7.9c0.1,0.6,0.2,1.2,0.3,1.8c0.4,2.5,0.9,5,1.7,7.4c0.1,0.3,0.2,0.5,0.3,0.8
		c0.7,2.2,1.5,4.3,2.5,6.4c0.2,0.5,0.5,1,0.7,1.5c1.1,2.2,2.3,4.4,3.6,6.4c0.1,0.1,0.1,0.2,0.2,0.3
		C61.9,390.5,41.5,358.5,41.5,321.9z M400.5,402.7c0,9.1-7.4,16.5-16.5,16.5H140.3c-0.4-0.1-0.7-0.1-1.1-0.1
		c-24-0.9-42.8-20.5-42.8-44.6c0-11.9,4.6-23.2,13.1-31.7c8-7.9,18.6-12.5,29.7-13c3.8-0.1,6.9-3.3,6.9-7.1V139.4h238
		c9.1,0,16.5,7.4,16.5,16.5V402.7z"/>
	<path class="st5" d="M260,176c-2.7-2.3-6.6-2.3-9.3,0l-71.3,61c-2.3,1.9-3.1,5.1-2,7.9s3.7,4.6,6.7,4.6H201v69
		c0,3.9,3.2,7.1,7.1,7.1h94.5c3.9,0,7.1-3.2,7.1-7.1v-69h16.9c3,0,5.6-1.9,6.7-4.6s0.2-5.9-2-7.9L260,176z M255.3,190.8l52,44.6
		h-4.8h-94.5h-4.8L255.3,190.8z M295.5,311.5h-80.2v-61.9h80.2V311.5z"/>
</g>
</svg>
