<?xml version="1.0" encoding="utf-8"?>
<!-- Generator: Adobe Illustrator 23.1.0, SVG Export Plug-In . SVG Version: 6.00 Build 0)  -->
<svg version="1.1" id="Layer_1" xmlns="http://www.w3.org/2000/svg" xmlns:xlink="http://www.w3.org/1999/xlink" x="0px" y="0px"
	 viewBox="0 0 500 500" style="enable-background:new 0 0 500 500;" xml:space="preserve">
<style type="text/css">
	.st0{fill:#FFE9EF;}
	.st1{fill:#E0BA89;}
	.st2{fill:#EF9825;}
	.st3{fill:#FFD629;}
	.st4{fill:#BF976B;}
	.st5{fill:#231F20;}
	.st6{fill:#2B3860;}
	.st7{fill:#6464F4;}
	.st8{fill:#4545CE;}
	.st9{fill:#9FC6FF;}
	.st10{fill:#9797C4;}
	.st11{fill:#B4B4D6;}
	.st12{fill:#D0D0EF;}
	.st13{fill:#8090B7;}
	.st14{fill:#EBEEFF;}
	.st15{fill:#FF5252;}
	.st16{fill:#BDC3DB;}
	.st17{fill:none;stroke:#231F20;stroke-width:14.2344;stroke-linecap:round;stroke-linejoin:round;stroke-miterlimit:10;}
	.st18{fill:#91673F;}
	.st19{fill:#FFFFFF;}
	.st20{fill:#FFB45A;}
	.st21{fill:#E4E4F2;}
</style>
<g>
	<g>
		<g>
			<g>
				<path class="st6" d="M384.6,382.5c0,24.6-19.9,44.6-44.5,44.6c-24.6,0-44.5-19.9-44.5-44.6c0-3.8,0.4-7.4,1.4-10.8
					c4.7-19.4,22.2-33.7,43.1-33.7c20.9,0,38.3,14.3,43.1,33.7C384.2,375.1,384.6,378.7,384.6,382.5z"/>
			</g>
			<g>
				<path class="st6" d="M187.4,382.5c0,24.6-19.9,44.6-44.5,44.6s-44.5-19.9-44.5-44.6c0-3.8,0.4-7.4,1.4-10.8
					c4.8-19.4,22.2-33.7,43.1-33.7s38.3,14.3,43.1,33.7C187,375.1,187.4,378.7,187.4,382.5z"/>
			</g>
			<g>
				<path class="st2" d="M444.3,308.8v62.9h-61.1c-4.8-19.4-22.3-33.7-43.1-33.7c-20.9,0-38.4,14.3-43.1,33.7h-111
					c-4.8-19.4-22.3-33.7-43.1-33.7s-38.3,14.3-43.1,33.7H65.4v-62.9h214.3V160.7h120.8l8.3,28h-90.8v88.2h116.9L444.3,308.8z"/>
			</g>
			<g>
				<polygon class="st14" points="434.8,276.8 317.9,276.8 317.9,188.6 408.7,188.6 				"/>
			</g>
		</g>
		<g>
			<g>
				<rect x="65.4" y="72.9" class="st1" width="214.3" height="235.8"/>
			</g>
		</g>
	</g>
	<g>
		<path class="st5" d="M451.1,306.8l-9.5-32l-26.1-88.2c0,0,0,0,0,0l-8.3-28c-0.9-3-3.7-5.1-6.8-5.1H286.8V72.9
			c0-3.9-3.2-7.1-7.1-7.1H65.4c-3.9,0-7.1,3.2-7.1,7.1v235.8v62.9c0,3.9,3.2,7.1,7.1,7.1h26.2c-0.1,1.2-0.2,2.4-0.2,3.7
			c0,28.5,23.1,51.7,51.6,51.7s51.6-23.2,51.6-51.7c0-1.3-0.1-2.5-0.2-3.7h94.4c-0.1,1.2-0.2,2.4-0.2,3.7
			c0,28.5,23.1,51.7,51.6,51.7s51.6-23.2,51.6-51.7c0-1.3-0.1-2.5-0.2-3.7h52.8c3.9,0,7.1-3.2,7.1-7.1v-62.9
			C451.4,308.1,451.3,307.4,451.1,306.8z M425.3,269.7H325v-73.9h78.4L425.3,269.7z M72.5,80h200.1v80.6v141H72.5V80z M143,420
			c-20.6,0-37.4-16.8-37.4-37.4c0-3.3,0.4-6.2,1.2-9.1c4.1-16.6,19-28.3,36.2-28.3c17.2,0,32.1,11.6,36.3,28.4
			c0.7,2.7,1.1,5.7,1.1,9C180.3,403.2,163.6,420,143,420z M340.1,420c-20.6,0-37.4-16.8-37.4-37.4c0-3.3,0.4-6.2,1.2-9.1
			c4-16.6,18.9-28.2,36.1-28.2c17.2,0,32.1,11.6,36.3,28.4c0.7,2.7,1.1,5.7,1.1,9C377.5,403.2,360.7,420,340.1,420z M437.2,364.6
			h-48.7c-0.2-0.5-0.5-1-0.7-1.5c-0.5-1.1-1-2.2-1.5-3.3c-0.7-1.4-1.4-2.8-2.2-4.1c-0.6-1-1.3-2-2-3c-0.9-1.3-1.8-2.5-2.8-3.6
			c-0.8-0.9-1.5-1.8-2.4-2.6c-1.1-1.1-2.2-2.1-3.4-3.1c-0.9-0.8-1.8-1.5-2.7-2.2c-1.3-0.9-2.6-1.8-3.9-2.6c-1-0.6-1.9-1.2-2.9-1.7
			c-1.5-0.8-3-1.4-4.5-2c-1-0.4-1.9-0.9-3-1.2c-1.7-0.6-3.5-1-5.3-1.4c-0.9-0.2-1.7-0.5-2.7-0.6c-2.7-0.4-5.5-0.7-8.4-0.7
			c-2.9,0-5.7,0.3-8.4,0.7c-0.9,0.2-1.8,0.4-2.8,0.7c-1.8,0.4-3.5,0.8-5.2,1.3c-1.1,0.4-2.1,0.9-3.2,1.3c-1.4,0.6-2.9,1.2-4.2,1.9
			c-1.1,0.6-2.2,1.3-3.3,2c-1.2,0.7-2.3,1.4-3.4,2.3c-1.1,0.8-2.2,1.7-3.2,2.6c-0.9,0.8-1.9,1.6-2.7,2.5c-1,1.1-2,2.2-3,3.3
			c-0.7,0.9-1.5,1.8-2.2,2.8c-0.9,1.2-1.7,2.5-2.5,3.8c-0.6,1-1.2,2.1-1.7,3.2c-0.7,1.3-1.3,2.6-1.8,4c-0.2,0.5-0.5,0.9-0.6,1.4
			H191.3c-0.2-0.5-0.5-1-0.7-1.5c-0.5-1.1-1-2.2-1.5-3.3c-0.7-1.4-1.4-2.8-2.2-4.1c-0.6-1-1.3-2-2-3c-0.9-1.3-1.8-2.5-2.8-3.6
			c-0.8-0.9-1.5-1.8-2.4-2.6c-1.1-1.1-2.2-2.1-3.4-3.1c-0.9-0.8-1.8-1.5-2.7-2.2c-1.3-0.9-2.6-1.8-3.9-2.6c-1-0.6-1.9-1.2-2.9-1.7
			c-1.5-0.8-3-1.4-4.5-2c-1-0.4-1.9-0.9-3-1.2c-1.7-0.6-3.5-1-5.3-1.4c-0.9-0.2-1.7-0.5-2.7-0.6c-2.7-0.4-5.5-0.7-8.4-0.7
			c-2.9,0-5.7,0.3-8.4,0.7c-0.9,0.2-1.8,0.4-2.8,0.7c-1.8,0.4-3.5,0.8-5.2,1.3c-1.1,0.4-2.1,0.9-3.2,1.3c-1.4,0.6-2.8,1.2-4.2,1.9
			c-1.1,0.6-2.2,1.3-3.3,2c-1.2,0.7-2.3,1.4-3.4,2.3c-1.1,0.8-2.2,1.7-3.2,2.6c-0.9,0.8-1.9,1.6-2.8,2.5c-1,1-2,2.1-3,3.3
			c-0.8,0.9-1.5,1.8-2.2,2.8c-0.9,1.2-1.7,2.5-2.5,3.8c-0.6,1-1.2,2.1-1.7,3.2c-0.7,1.3-1.3,2.6-1.8,4c-0.2,0.5-0.5,0.9-0.6,1.4
			H72.5v-48.7h207.2c3.9,0,7.1-3.2,7.1-7.1v-141h108.3l4.1,13.7h-81.3c-3.9,0-7.1,3.2-7.1,7.1v88.2c0,3.9,3.2,7.1,7.1,7.1h111.6
			l7.7,25.9V364.6z"/>
		<path class="st5" d="M106.4,105.9c-3.9,0-7.1,3.2-7.1,7.1v153.1c0,3.9,3.2,7.1,7.1,7.1s7.1-3.2,7.1-7.1V113
			C113.5,109.1,110.3,105.9,106.4,105.9z"/>
		<path class="st5" d="M171.3,105.9c-3.9,0-7.1,3.2-7.1,7.1v153.1c0,3.9,3.2,7.1,7.1,7.1s7.1-3.2,7.1-7.1V113
			C178.4,109.1,175.2,105.9,171.3,105.9z"/>
		<path class="st5" d="M236.2,105.9c-3.9,0-7.1,3.2-7.1,7.1v153.1c0,3.9,3.2,7.1,7.1,7.1s7.1-3.2,7.1-7.1V113
			C243.3,109.1,240.1,105.9,236.2,105.9z"/>
	</g>
</g>
</svg>
