<?xml version="1.0" encoding="utf-8"?>
<!-- Generator: Adobe Illustrator 23.1.0, SVG Export Plug-In . SVG Version: 6.00 Build 0)  -->
<svg version="1.1" id="Layer_1" xmlns="http://www.w3.org/2000/svg" xmlns:xlink="http://www.w3.org/1999/xlink" x="0px" y="0px"
	 viewBox="0 0 500 500" style="enable-background:new 0 0 500 500;" xml:space="preserve">
<style type="text/css">
	.st0{fill:#FFE9EF;}
	.st1{fill:#E0BA89;}
	.st2{fill:#EF9825;}
	.st3{fill:#FFD629;}
	.st4{fill:#BF976B;}
	.st5{fill:#231F20;}
	.st6{fill:#2B3860;}
	.st7{fill:#6464F4;}
	.st8{fill:#4545CE;}
	.st9{fill:#9FC6FF;}
	.st10{fill:#9797C4;}
	.st11{fill:#B4B4D6;}
	.st12{fill:#D0D0EF;}
	.st13{fill:#8090B7;}
	.st14{fill:#EBEEFF;}
	.st15{fill:#FF5252;}
	.st16{fill:#BDC3DB;}
	.st17{fill:none;stroke:#231F20;stroke-width:14.2344;stroke-linecap:round;stroke-linejoin:round;stroke-miterlimit:10;}
	.st18{fill:#91673F;}
	.st19{fill:#FFFFFF;}
	.st20{fill:#FFB45A;}
	.st21{fill:#E4E4F2;}
</style>
<g>
	<g>
		<g>
			<path class="st6" d="M145.3,44v276.2c-13.5,0.5-25.6,6.2-34.4,15c-9.3,9.4-15.2,22.4-15.2,36.7c0,27.8,22,50.6,49.6,51.7v0.1
				c-57.7,0-104.5-46.8-104.5-104.5V148.4c0-6.4,0.6-12.7,1.7-18.7C51.3,80.9,94,44,145.3,44z"/>
		</g>
		<g>
			<path class="st7" d="M414,153.4v246.7c0,13.1-10.6,23.6-23.6,23.6H145.3v-0.1c-27.6-1.1-49.6-23.8-49.6-51.7
				c0-14.3,5.8-27.3,15.2-36.7c8.9-8.8,21-14.5,34.4-15V129.7h245.1C403.4,129.7,414,140.3,414,153.4z"/>
		</g>
	</g>
	<g>
		<path class="st5" d="M390.4,122.6h-238V44c0-3.9-3.2-7.1-7.1-7.1c-54,0-100.2,38.5-109.8,91.6c-1.2,6.4-1.8,13.2-1.8,20v170.8
			c0,61.5,50.1,111.6,111.6,111.6h245.1c17,0,30.8-13.8,30.8-30.8V153.4C421.1,136.4,407.3,122.6,390.4,122.6z M47.9,319.2V148.4
			c0-6,0.5-11.8,1.6-17.5c7.9-44,44.6-76.5,88.7-79.7v78.4v184c-12.1,1.9-23.4,7.6-32.4,16.5c-9.7,9.8-15.6,22.4-16.9,35.9
			c-0.2,1.9-0.3,3.9-0.3,5.8c0,2.7,0.2,5.3,0.6,7.9c0.1,0.6,0.2,1.2,0.3,1.8c0.4,2.5,0.9,5,1.7,7.4c0.1,0.3,0.2,0.5,0.3,0.8
			c0.7,2.2,1.5,4.3,2.5,6.4c0.2,0.5,0.5,1,0.7,1.5c1.1,2.2,2.3,4.4,3.6,6.4c0.1,0.1,0.1,0.2,0.2,0.3
			C68.3,387.9,47.9,355.9,47.9,319.2z M406.9,400.1c0,9.1-7.4,16.5-16.5,16.5H146.7c-0.4-0.1-0.7-0.1-1.1-0.1
			c-24-0.9-42.8-20.5-42.8-44.6c0-11.9,4.6-23.2,13.1-31.7c8-7.9,18.6-12.5,29.7-13c3.8-0.1,6.9-3.3,6.9-7.1V136.8h238
			c9.1,0,16.5,7.4,16.5,16.5V400.1z"/>
		<path class="st5" d="M266.4,173.4c-2.7-2.3-6.6-2.3-9.3,0l-71.3,61c-2.3,1.9-3.1,5.1-2,7.9s3.7,4.6,6.7,4.6h16.9v69
			c0,3.9,3.2,7.1,7.1,7.1H309c3.9,0,7.1-3.2,7.1-7.1v-69H333c3,0,5.6-1.9,6.7-4.6s0.2-5.9-2-7.9L266.4,173.4z M261.8,188.2l52,44.6
			H309h-94.5h-4.8L261.8,188.2z M301.9,308.9h-80.2V247h80.2V308.9z"/>
	</g>
</g>
</svg>
