<?xml version="1.0" encoding="utf-8"?>
<!-- Generator: Adobe Illustrator 23.1.0, SVG Export Plug-In . SVG Version: 6.00 Build 0)  -->
<svg version="1.1" id="Layer_1" xmlns="http://www.w3.org/2000/svg" xmlns:xlink="http://www.w3.org/1999/xlink" x="0px" y="0px"
	 viewBox="0 0 500 500" style="enable-background:new 0 0 500 500;" xml:space="preserve">
<style type="text/css">
	.st0{fill:#FFE9EF;}
	.st1{fill:#E0BA89;}
	.st2{fill:#EF9825;}
	.st3{fill:#FFD629;}
	.st4{fill:#BF976B;}
	.st5{fill:#231F20;}
	.st6{fill:#2B3860;}
	.st7{fill:#6464F4;}
	.st8{fill:#4545CE;}
	.st9{fill:#9FC6FF;}
	.st10{fill:#9797C4;}
	.st11{fill:#B4B4D6;}
	.st12{fill:#D0D0EF;}
	.st13{fill:#8090B7;}
	.st14{fill:#EBEEFF;}
	.st15{fill:#FF5252;}
	.st16{fill:#BDC3DB;}
	.st17{fill:none;stroke:#231F20;stroke-width:14.2344;stroke-linecap:round;stroke-linejoin:round;stroke-miterlimit:10;}
	.st18{fill:#91673F;}
	.st19{fill:#FFFFFF;}
	.st20{fill:#FFB45A;}
	.st21{fill:#E4E4F2;}
</style>
<g>
	<g>
		<g>
			<polygon class="st2" points="386.6,264.9 253,150 119.4,264.9 119.4,444.7 386.6,444.7 			"/>
		</g>
		<g>
			<path class="st6" d="M253.9,336.4L253.9,336.4c-25.1,0-45.4,20.3-45.4,45.4v62.8h90.7v-62.8C299.2,356.8,278.9,336.4,253.9,336.4
				z"/>
		</g>
		<g>
			<polygon class="st6" points="451.2,232.7 428.8,259.9 254.5,116.3 186.6,172.3 170.9,185.2 80.2,259.9 57.8,232.7 128.1,174.9 
				186.6,126.6 226.8,93.5 254.5,70.7 282.2,93.5 			"/>
		</g>
		<g>
			<polygon class="st2" points="186.6,85.1 186.6,126.6 128.1,174.9 128.1,85.1 			"/>
		</g>
	</g>
	<g>
		<path class="st5" d="M257.7,144.6c-2.7-2.3-6.6-2.3-9.3,0L114.8,259.5c-1.6,1.4-2.5,3.3-2.5,5.4v179.8c0,3.9,3.2,7.1,7.1,7.1h89.1
			h90.7h87.4c3.9,0,7.1-3.2,7.1-7.1V264.9c0-2.1-0.9-4-2.5-5.4L257.7,144.6z M215.6,437.5v-55.7c0-21.1,17.2-38.2,38.2-38.2
			s38.2,17.2,38.2,38.2v55.7H215.6z M379.5,437.5h-73.2v-55.7c0-28.9-23.5-52.5-52.5-52.5s-52.5,23.5-52.5,52.5v55.7h-74.8V268.1
			L253,159.4l126.5,108.7V437.5z"/>
		<path class="st5" d="M455.8,227.2L259.1,65.2c-2.6-2.2-6.4-2.2-9,0l-56.3,46.4V85.1c0-3.9-3.2-7.1-7.1-7.1h-58.5
			c-3.9,0-7.1,3.2-7.1,7.1v86.5l-67.7,55.7c-3,2.5-3.5,7-1,10l22.4,27.2c1.2,1.5,2.9,2.4,4.8,2.6c1.9,0.2,3.8-0.4,5.2-1.6
			l169.8-139.9l169.8,139.9c1.3,1.1,2.9,1.6,4.5,1.6c2.1,0,4.1-0.9,5.5-2.6l22.4-27.2c1.2-1.5,1.8-3.3,1.6-5.2
			C458.1,230.2,457.2,228.4,455.8,227.2z M135.2,92.2h44.3v31.1l-44.3,36.5V92.2z M427.9,249.9L259.1,110.8
			c-1.3-1.1-2.9-1.6-4.5-1.6c-1.6,0-3.2,0.5-4.5,1.6L81.1,249.9l-13.3-16.2l64.7-53.3c0,0,0,0,0,0l10-8.3l111.9-92.2l186.7,153.8
			L427.9,249.9z"/>
	</g>
</g>
</svg>
