<?xml version="1.0" encoding="utf-8"?>
<!-- Generator: Adobe Illustrator 23.1.0, SVG Export Plug-In . SVG Version: 6.00 Build 0)  -->
<svg version="1.1" id="Layer_1" xmlns="http://www.w3.org/2000/svg" xmlns:xlink="http://www.w3.org/1999/xlink" x="0px" y="0px"
	 viewBox="0 0 500 500" style="enable-background:new 0 0 500 500;" xml:space="preserve">
<style type="text/css">
	.st0{fill:#FFE9EF;}
	.st1{fill:#E0BA89;}
	.st2{fill:#EF9825;}
	.st3{fill:#FFD629;}
	.st4{fill:#BF976B;}
	.st5{fill:#231F20;}
	.st6{fill:#2B3860;}
	.st7{fill:#6464F4;}
	.st8{fill:#4545CE;}
	.st9{fill:#9FC6FF;}
	.st10{fill:#9797C4;}
	.st11{fill:#B4B4D6;}
	.st12{fill:#D0D0EF;}
	.st13{fill:#8090B7;}
	.st14{fill:#EBEEFF;}
	.st15{fill:#FF5252;}
	.st16{fill:#BDC3DB;}
	.st17{fill:none;stroke:#231F20;stroke-width:14.2344;stroke-linecap:round;stroke-linejoin:round;stroke-miterlimit:10;}
	.st18{fill:#91673F;}
	.st19{fill:#FFFFFF;}
	.st20{fill:#FFB45A;}
	.st21{fill:#E4E4F2;}
</style>
<g>
	<g>
		<rect x="117.3" y="59.7" class="st12" width="97.9" height="397.6"/>
	</g>
	<g>
		<polygon class="st10" points="75.8,85.6 117.3,85.6 117.3,183 46.2,183 46.2,120.3 		"/>
	</g>
	<g>
		<polygon class="st10" points="408.7,134.3 408.7,183 215.1,183 215.1,85.6 		"/>
	</g>
	<g>
		<rect x="319" y="270.9" class="st1" width="72.7" height="38.1"/>
	</g>
	<g>
		<g>
			<path class="st21" d="M215.1,163.3l-85.2,34.4l85.2,34.4h0.1v16.8h-0.1l-85.2,34.4l85.2,34.4h0.1v16.8h-0.1l-85.2,34.4l85.2,34.4
				h0.1V420h-0.1l-92.5,37.4l-5.6,2.3v-15.4l0.3-0.1l80.6-32.5l-80.6-32.5L117,379v-20.3l0.3-0.1l80.6-32.5l-80.6-32.5l-0.3-0.1
				v-20.3l0.3-0.1l80.6-32.5l-80.6-32.5l-0.3-0.1v-20.3l0.3-0.1l80.6-32.5l-80.6-32.5l-0.3-0.1v-21.4l0.3-0.1l78.6-41h19.3v6
				c-0.2,0.1-0.3,0.2-0.4,0.3L128,111.2l87.2,35.2h0.1L215.1,163.3L215.1,163.3z"/>
		</g>
	</g>
	<g>
		<path class="st10" d="M245.7,464.5H84.5c-3.9,0-7.1-3.2-7.1-7.1s3.2-7.1,7.1-7.1h161.1c3.9,0,7.1,3.2,7.1,7.1
			S249.6,464.5,245.7,464.5z"/>
	</g>
	<g>
		<rect x="348.2" y="183" class="st12" width="14.2" height="87.9"/>
	</g>
</g>
</svg>
