<?xml version="1.0" encoding="utf-8"?>
<!-- Generator: Adobe Illustrator 23.1.0, SVG Export Plug-In . SVG Version: 6.00 Build 0)  -->
<svg version="1.1" id="Layer_1" xmlns="http://www.w3.org/2000/svg" xmlns:xlink="http://www.w3.org/1999/xlink" x="0px" y="0px"
	 viewBox="0 0 500 500" style="enable-background:new 0 0 500 500;" xml:space="preserve">
<style type="text/css">
	.st0{fill:#FFE9EF;}
	.st1{fill:#E0BA89;}
	.st2{fill:#EF9825;}
	.st3{fill:#FFD629;}
	.st4{fill:#BF976B;}
	.st5{fill:#231F20;}
	.st6{fill:#2B3860;}
	.st7{fill:#6464F4;}
	.st8{fill:#4545CE;}
	.st9{fill:#9FC6FF;}
	.st10{fill:#9797C4;}
	.st11{fill:#B4B4D6;}
	.st12{fill:#D0D0EF;}
	.st13{fill:#8090B7;}
	.st14{fill:#EBEEFF;}
	.st15{fill:#FF5252;}
	.st16{fill:#BDC3DB;}
	.st17{fill:none;stroke:#231F20;stroke-width:14.2344;stroke-linecap:round;stroke-linejoin:round;stroke-miterlimit:10;}
	.st18{fill:#91673F;}
	.st19{fill:#FFFFFF;}
	.st20{fill:#FFB45A;}
	.st21{fill:#E4E4F2;}
</style>
<g>
	<g>
		<g>
			<path class="st6" d="M379.7,391c0,24.6-19.9,44.6-44.5,44.6c-24.6,0-44.5-19.9-44.5-44.6c0-3.8,0.4-7.4,1.4-10.8
				c4.7-19.4,22.2-33.7,43.1-33.7c20.9,0,38.3,14.3,43.1,33.7C379.3,383.6,379.7,387.3,379.7,391z"/>
		</g>
		<g>
			<path class="st6" d="M182.6,391c0,24.6-19.9,44.6-44.5,44.6S93.6,415.7,93.6,391c0-3.8,0.4-7.4,1.4-10.8
				c4.8-19.4,22.2-33.7,43.1-33.7s38.3,14.3,43.1,33.7C182.2,383.6,182.6,387.3,182.6,391z"/>
		</g>
		<g>
			<path class="st2" d="M439.5,317.3v62.9h-61.1c-4.8-19.4-22.3-33.7-43.1-33.7c-20.9,0-38.4,14.3-43.1,33.7h-111
				c-4.8-19.4-22.3-33.7-43.1-33.7s-38.3,14.3-43.1,33.7H60.5v-62.9h214.3V169.2h120.8l8.3,28h-90.8v88.2H430L439.5,317.3z"/>
		</g>
		<g>
			<polygon class="st14" points="430,285.4 313.1,285.4 313.1,197.2 403.9,197.2 			"/>
		</g>
	</g>
	<g>
		<g>
			<rect x="60.5" y="81.5" class="st1" width="214.3" height="235.8"/>
		</g>
	</g>
	<g>
		<g>
			<path class="st4" d="M101.6,281.8c-3.9,0-7.1-3.2-7.1-7.1V121.6c0-3.9,3.2-7.1,7.1-7.1s7.1,3.2,7.1,7.1v153.1
				C108.7,278.7,105.5,281.8,101.6,281.8z"/>
		</g>
	</g>
	<g>
		<g>
			<path class="st4" d="M166.5,281.8c-3.9,0-7.1-3.2-7.1-7.1V121.6c0-3.9,3.2-7.1,7.1-7.1s7.1,3.2,7.1,7.1v153.1
				C173.6,278.7,170.4,281.8,166.5,281.8z"/>
		</g>
	</g>
	<g>
		<g>
			<path class="st4" d="M231.4,281.8c-3.9,0-7.1-3.2-7.1-7.1V121.6c0-3.9,3.2-7.1,7.1-7.1s7.1,3.2,7.1,7.1v153.1
				C238.5,278.7,235.3,281.8,231.4,281.8z"/>
		</g>
	</g>
</g>
</svg>
