<?xml version="1.0" encoding="utf-8"?>
<!-- Generator: Adobe Illustrator 23.1.0, SVG Export Plug-In . SVG Version: 6.00 Build 0)  -->
<svg version="1.1" id="Layer_1" xmlns="http://www.w3.org/2000/svg" xmlns:xlink="http://www.w3.org/1999/xlink" x="0px" y="0px"
	 viewBox="0 0 500 500" style="enable-background:new 0 0 500 500;" xml:space="preserve">
<style type="text/css">
	.st0{fill:#FFE9EF;}
	.st1{fill:#E0BA89;}
	.st2{fill:#EF9825;}
	.st3{fill:#FFD629;}
	.st4{fill:#BF976B;}
	.st5{fill:#231F20;}
	.st6{fill:#2B3860;}
	.st7{fill:#6464F4;}
	.st8{fill:#4545CE;}
	.st9{fill:#9FC6FF;}
	.st10{fill:#9797C4;}
	.st11{fill:#B4B4D6;}
	.st12{fill:#D0D0EF;}
	.st13{fill:#8090B7;}
	.st14{fill:#EBEEFF;}
	.st15{fill:#FF5252;}
	.st16{fill:#BDC3DB;}
	.st17{fill:none;stroke:#231F20;stroke-width:14.2344;stroke-linecap:round;stroke-linejoin:round;stroke-miterlimit:10;}
	.st18{fill:#91673F;}
	.st19{fill:#FFFFFF;}
	.st20{fill:#FFB45A;}
	.st21{fill:#E4E4F2;}
</style>
<g>
	<g>
		<g>
			<rect x="140.9" y="46.1" class="st12" width="97.9" height="397.6"/>
		</g>
		<g>
			<polygon class="st10" points="99.4,71.9 140.9,71.9 140.9,169.4 69.8,169.4 69.8,106.7 			"/>
		</g>
		<g>
			<polygon class="st10" points="432.3,120.7 432.3,169.4 238.7,169.4 238.7,71.9 			"/>
		</g>
		<g>
			<rect x="342.6" y="257.3" class="st1" width="72.7" height="38.1"/>
		</g>
	</g>
	<path class="st5" d="M434,113.8L245.9,66.4V46.1c0-3.9-3.2-7.1-7.1-7.1h-97.9c-3.9,0-7.1,3.2-7.1,7.1v18.7H99.4
		c-2.1,0-4.1,0.9-5.4,2.5l-29.6,34.7c-1.1,1.3-1.7,2.9-1.7,4.6v62.7c0,3.9,3.2,7.1,7.1,7.1h64v260.1h-25.6c-3.9,0-7.1,3.2-7.1,7.1
		c0,3.9,3.2,7.1,7.1,7.1h32.8h97.9h30.5c3.9,0,7.1-3.2,7.1-7.1c0-3.9-3.2-7.1-7.1-7.1h-23.4V176.5h125.9v73.7h-29.2
		c-3.9,0-7.1,3.2-7.1,7.1v38.1c0,3.9,3.2,7.1,7.1,7.1h72.6c3.9,0,7.1-3.2,7.1-7.1v-38.1c0-3.9-3.2-7.1-7.1-7.1H386v-73.7h46.2
		c3.9,0,7.1-3.2,7.1-7.1v-48.7C439.4,117.4,437.2,114.6,434,113.8z M408.1,288.3h-58.4v-23.9h58.4V288.3z M148,109.3l73,31.9
		l-73,31.9v-3.8V109.3z M231.6,71.9v58.4l-74.8-32.7l74.8-42.3V71.9z M158.6,269.6l73-31.9v63.9L158.6,269.6z M221,312.4l-73,31.9
		v-63.9L221,312.4z M148,258.7v-63.8l73,31.9L148,258.7z M148,366.1l73,31.9l-73,31.9V366.1z M158.6,355.2l73-31.9v63.8L158.6,355.2
		z M231.6,169.4v46.5l-73-31.9l73-31.9V169.4z M148,53.2h58.5l-58.5,33V71.9V53.2z M76.9,162.3v-53l25.8-30.2h31.1v83.2H76.9z
		 M168.2,436.6l63.4-27.7v27.7H168.2z M425.1,162.3H245.9V81.1l179.3,45.2V162.3z"/>
</g>
</svg>
