<?xml version="1.0" encoding="utf-8"?>
<!-- Generator: Adobe Illustrator 23.1.0, SVG Export Plug-In . SVG Version: 6.00 Build 0)  -->
<svg version="1.1" id="Layer_1" xmlns="http://www.w3.org/2000/svg" xmlns:xlink="http://www.w3.org/1999/xlink" x="0px" y="0px"
	 viewBox="0 0 500 500" style="enable-background:new 0 0 500 500;" xml:space="preserve">
<style type="text/css">
	.st0{fill:#FFE9EF;}
	.st1{fill:#E0BA89;}
	.st2{fill:#EF9825;}
	.st3{fill:#FFD629;}
	.st4{fill:#BF976B;}
	.st5{fill:#231F20;}
	.st6{fill:#2B3860;}
	.st7{fill:#6464F4;}
	.st8{fill:#4545CE;}
	.st9{fill:#9FC6FF;}
	.st10{fill:#9797C4;}
	.st11{fill:#B4B4D6;}
	.st12{fill:#D0D0EF;}
	.st13{fill:#8090B7;}
	.st14{fill:#EBEEFF;}
	.st15{fill:#FF5252;}
	.st16{fill:#BDC3DB;}
	.st17{fill:none;stroke:#231F20;stroke-width:14.2344;stroke-linecap:round;stroke-linejoin:round;stroke-miterlimit:10;}
	.st18{fill:#91673F;}
	.st19{fill:#FFFFFF;}
	.st20{fill:#FFB45A;}
	.st21{fill:#E4E4F2;}
</style>
<g>
	<g>
		<path class="st3" d="M220,85.9L41.8,382c-14,23.3,2.8,53,30,53H250h178.3c27.2,0,44-29.7,30-53L280,85.9
			C266.4,63.4,233.6,63.4,220,85.9z"/>
	</g>
	<g>
		<path class="st6" d="M246.4,183.8L246.4,183.8c-17.6,0-30.8,16.3-27.1,33.5l19,88.2c0.9,4.4,4.8,7.5,9.3,7.5h0
			c4.6,0,8.5-3.3,9.3-7.7l16.7-88.6C276.9,199.6,263.8,183.8,246.4,183.8z"/>
	</g>
	<g>
		<circle class="st6" cx="246.4" cy="356.6" r="19"/>
	</g>
</g>
</svg>
