<svg preserveAspectRatio="none" width="100%" height="100%" overflow="visible" style="display: block;" viewBox="0 0 14 14" fill="none" xmlns="http://www.w3.org/2000/svg">
<g id="Group 2">
<path id="Ellipse 4" d="M14 7C14 10.866 10.866 14 7 14C3.13401 14 1.76208e-06 10.866 1.76208e-06 7C1.76208e-06 3.13401 3.13401 4.42648e-07 7 4.42648e-07C10.866 4.42648e-07 14 3.13401 14 7ZM2.12235 7C2.12235 9.69385 4.30615 11.8777 7 11.8777C9.69386 11.8777 11.8777 9.69385 11.8777 7C11.8777 4.30615 9.69386 2.12235 7 2.12235C4.30615 2.12235 2.12235 4.30615 2.12235 7Z" fill="var(--fill-0, white)" fill-opacity="0.25"/>
<path id="Ellipse 5" d="M11.9497 2.05025C11.1358 1.23626 10.1336 0.635581 9.03199 0.301418C7.93041 -0.0327452 6.76341 -0.0900761 5.63437 0.134504C4.50533 0.359083 3.4491 0.858642 2.55925 1.58893C1.66939 2.31921 0.973373 3.25769 0.532845 4.32122C0.0923162 5.38475 -0.0791245 6.54051 0.0337087 7.68612C0.146542 8.83173 0.540166 9.93184 1.17971 10.889C1.81926 11.8461 2.685 12.6308 3.70023 13.1734C4.71545 13.7161 5.84885 14 7 14L7 11.8777C6.19787 11.8777 5.40811 11.6798 4.70069 11.3017C3.99327 10.9236 3.39002 10.3768 2.94438 9.70988C2.49874 9.04293 2.22446 8.27637 2.14583 7.47809C2.06721 6.67982 2.18667 5.87448 2.49364 5.1334C2.8006 4.39233 3.28559 3.73839 3.90565 3.22952C4.52571 2.72065 5.2617 2.37256 6.04842 2.21607C6.83514 2.05958 7.64831 2.09953 8.41591 2.33238C9.1835 2.56522 9.88183 2.98378 10.449 3.55098L11.9497 2.05025Z" fill="var(--fill-0, white)"/>
</g>
</svg>
