<svg preserveAspectRatio="none" width="100%" height="100%" overflow="visible" style="display: block;" viewBox="0 0 18 18" fill="none" xmlns="http://www.w3.org/2000/svg">
<g id="Frame" clip-path="url(#clip0_2036_5555)">
<g id="Vector">
</g>
<path id="Vector_2" d="M12.75 2.505C13.8812 3.15814 14.8222 4.09539 15.4799 5.22398C16.1375 6.35256 16.489 7.63333 16.4996 8.9395C16.5101 10.2457 16.1794 11.532 15.54 12.671C14.9007 13.8101 13.9749 14.7624 12.8544 15.4337C11.7339 16.1051 10.4575 16.4721 9.15157 16.4985C7.84562 16.525 6.55541 16.2099 5.40867 15.5844C4.26192 14.959 3.2984 14.0449 2.6135 12.9326C1.9286 11.8204 1.54606 10.5485 1.50375 9.243L1.5 9L1.50375 8.757C1.54575 7.46174 1.92266 6.19947 2.59773 5.09324C3.2728 3.98702 4.22299 3.07459 5.35567 2.44491C6.48835 1.81523 7.76486 1.4898 9.06075 1.50033C10.3566 1.51086 11.6277 1.857 12.75 2.505ZM11.7802 6.96975C11.6511 6.84062 11.4793 6.76304 11.297 6.75158C11.1147 6.74012 10.9346 6.79556 10.7903 6.9075L10.7198 6.96975L8.25 9.43875L7.28025 8.46975L7.20975 8.4075C7.06544 8.29564 6.88528 8.24027 6.70305 8.25177C6.52083 8.26326 6.34906 8.34084 6.21995 8.46995C6.09084 8.59906 6.01326 8.77083 6.00177 8.95305C5.99027 9.13528 6.04564 9.31544 6.1575 9.45975L6.21975 9.53025L7.71975 11.0302L7.79025 11.0925C7.92178 11.1945 8.08352 11.2499 8.25 11.2499C8.41648 11.2499 8.57822 11.1945 8.70975 11.0925L8.78025 11.0302L11.7802 8.03025L11.8425 7.95975C11.9544 7.81545 12.0099 7.63526 11.9984 7.45299C11.987 7.27072 11.9094 7.09889 11.7802 6.96975Z" fill="var(--fill-0, white)"/>
</g>
<defs>
<clipPath id="clip0_2036_5555">
<rect width="18" height="18" fill="white"/>
</clipPath>
</defs>
</svg>
