<svg preserveAspectRatio="none" width="100%" height="100%" overflow="visible" style="display: block;" viewBox="0 0 20.925 18.25" fill="none" xmlns="http://www.w3.org/2000/svg">
<path id="Vector" d="M0.7625 18.25C0.479167 18.25 0.2625 18.125 0.1125 17.875C-0.0375 17.625 -0.0375 17.375 0.1125 17.125L9.8125 0.375C9.9625 0.125 10.1792 0 10.4625 0C10.7458 0 10.9625 0.125 11.1125 0.375L20.8125 17.125C20.9625 17.375 20.9625 17.625 20.8125 17.875C20.6625 18.125 20.4458 18.25 20.1625 18.25H0.7625ZM10.5625 6.95C10.3458 6.95 10.1667 7.02083 10.025 7.1625C9.88333 7.30417 9.8125 7.48333 9.8125 7.7V11.8C9.8125 12.0167 9.88333 12.1958 10.025 12.3375C10.1667 12.4792 10.3458 12.55 10.5625 12.55C10.7792 12.55 10.9583 12.4792 11.1 12.3375C11.2417 12.1958 11.3125 12.0167 11.3125 11.8V7.7C11.3125 7.48333 11.2417 7.30417 11.1 7.1625C10.9583 7.02083 10.7792 6.95 10.5625 6.95ZM10.5625 15.325C10.7792 15.325 10.9583 15.2542 11.1 15.1125C11.2417 14.9708 11.3125 14.7917 11.3125 14.575C11.3125 14.3583 11.2417 14.1792 11.1 14.0375C10.9583 13.8958 10.7792 13.825 10.5625 13.825C10.3458 13.825 10.1667 13.8958 10.025 14.0375C9.88333 14.1792 9.8125 14.3583 9.8125 14.575C9.8125 14.7917 9.88333 14.9708 10.025 15.1125C10.1667 15.2542 10.3458 15.325 10.5625 15.325V15.325Z" fill="var(--fill-0, #E98305)"/>
</svg>
