<svg preserveAspectRatio="none" width="100%" height="100%" overflow="visible" style="display: block;" viewBox="0 0 20 20" fill="none" xmlns="http://www.w3.org/2000/svg">
<g id="Simplification">
<path id="Vector" d="M8.73627 1.63406C8.83584 1.63394 8.93541 1.63381 9.03497 1.63367C9.24279 1.63344 9.4506 1.63336 9.65841 1.63339C9.89528 1.63341 10.1321 1.633 10.369 1.63238C10.6006 1.6318 10.8321 1.63167 11.0637 1.63169C11.1605 1.63165 11.2572 1.63148 11.354 1.63117C11.8756 1.62967 12.3942 1.64086 12.9148 1.67583C12.9613 1.67892 13.0079 1.68201 13.0558 1.68519C13.8652 1.74483 14.7019 1.95078 15.2771 2.56485C15.9155 3.3484 16.022 4.37992 16.0211 5.35698C16.0213 5.41872 16.0213 5.41872 16.0215 5.4817C16.0218 5.61823 16.0219 5.75475 16.0219 5.89128C16.0221 5.98977 16.0223 6.08825 16.0225 6.18673C16.023 6.45342 16.0233 6.72011 16.0234 6.9868C16.0236 7.15387 16.0237 7.32095 16.0239 7.48802C16.0244 7.95214 16.0248 8.41626 16.0249 8.88038C16.0249 8.91002 16.0249 8.93965 16.0249 8.97018C16.0249 8.99988 16.0249 9.02958 16.025 9.06017C16.025 9.12034 16.025 9.1805 16.025 9.24066C16.025 9.27051 16.025 9.30035 16.025 9.33109C16.0252 9.81335 16.0259 10.2956 16.0268 10.7779C16.0277 11.275 16.0282 11.7721 16.0282 12.2693C16.0283 12.5476 16.0285 12.8259 16.0292 13.1042C16.0299 13.3665 16.0299 13.6288 16.0296 13.8912C16.0296 13.9866 16.0297 14.0821 16.0301 14.1775C16.0347 15.3673 16.0062 16.6188 15.1607 17.5413C14.1784 18.5012 12.5277 18.3656 11.2637 18.3659C11.1642 18.3661 11.0646 18.3662 10.965 18.3663C10.7572 18.3666 10.5494 18.3666 10.3416 18.3666C10.1047 18.3666 9.86787 18.367 9.63101 18.3676C9.39944 18.3682 9.16787 18.3683 8.93629 18.3683C8.83954 18.3684 8.74279 18.3685 8.64604 18.3688C8.12436 18.3703 7.6058 18.3591 7.08517 18.3242C7.03865 18.3211 6.99213 18.318 6.94421 18.3148C6.13478 18.2552 5.29808 18.0492 4.7229 17.4351C4.08431 16.6513 3.97758 15.6189 3.97915 14.6414C3.97906 14.6001 3.97897 14.5588 3.97888 14.5162C3.97864 14.3791 3.97867 14.2421 3.9787 14.105C3.97858 14.0061 3.97845 13.9073 3.9783 13.8084C3.97799 13.5685 3.97787 13.3286 3.97785 13.0887C3.97783 12.8934 3.97775 12.6981 3.97763 12.5028C3.97728 11.9476 3.9771 11.3923 3.97713 10.837C3.97713 10.8071 3.97714 10.7772 3.97714 10.7465C3.97714 10.7166 3.97714 10.6867 3.97714 10.6558C3.97716 10.1719 3.97678 9.68799 3.97623 9.20406C3.97567 8.7056 3.9754 8.20714 3.97544 7.70868C3.97545 7.42947 3.97534 7.15026 3.97492 6.87104C3.97452 6.60813 3.97454 6.34522 3.97482 6.0823C3.97486 5.98638 3.97477 5.89046 3.97454 5.79454C3.97184 4.63013 3.98755 3.39542 4.81155 2.48413C5.80898 1.50515 7.44799 1.63445 8.73627 1.63406ZM5.63538 3.39111C5.192 3.93545 5.19233 4.70035 5.17273 5.36957C5.17194 5.39584 5.17115 5.42212 5.17033 5.44919C5.14312 6.38612 5.15185 7.32399 5.15344 8.26119C5.15388 8.52818 5.15409 8.79517 5.15428 9.06216C5.15469 9.60915 5.15537 10.1561 5.15625 10.7031C5.1803 10.6869 5.20436 10.6708 5.22914 10.6541C5.27653 10.6224 5.27653 10.6224 5.32489 10.59C5.35619 10.5689 5.3875 10.5479 5.41975 10.5263C5.51553 10.4637 5.61257 10.4092 5.71533 10.3589C5.7466 10.3433 5.77787 10.3278 5.81009 10.3117C6.16747 10.1568 6.68486 10.1837 7.05078 10.293C7.59792 10.5112 7.9411 10.9608 8.30063 11.4047C8.47681 11.6186 8.66002 11.8263 8.84194 12.0353C9.00113 12.2187 9.15867 12.4035 9.31652 12.588C9.37628 12.6577 9.4362 12.7274 9.49616 12.7969C9.53634 12.8436 9.57652 12.8903 9.6167 12.937C9.6362 12.9596 9.6557 12.9823 9.67579 13.0056C9.79739 13.1473 9.91521 13.2915 10.0317 13.4375C10.2624 13.7204 10.2624 13.7204 10.5688 13.9087C10.7766 13.9034 10.9445 13.76 11.1035 13.6377C11.5921 13.2803 12.1231 13.1098 12.7312 13.181C13.607 13.342 14.1602 13.9389 14.7139 14.5925C14.731 14.611 14.748 14.6294 14.7656 14.6484C14.7785 14.6484 14.7914 14.6484 14.8047 14.6484C14.8477 13.7823 14.8496 12.9172 14.849 12.0502C14.8489 11.8516 14.849 11.653 14.8491 11.4544C14.8491 11.1209 14.849 10.7874 14.8488 10.4538C14.8486 10.0724 14.8487 9.69086 14.8489 9.30938C14.8491 8.97796 14.8491 8.64654 14.849 8.31513C14.849 8.11891 14.8489 7.92269 14.8491 7.72648C14.8495 6.97395 14.8468 6.2218 14.8269 5.4695C14.8262 5.44071 14.8255 5.41193 14.8248 5.38226C14.811 4.26442 14.811 4.26442 14.2969 3.3078C13.5762 2.70253 12.3038 2.83934 11.4315 2.84107C11.2964 2.84127 11.1612 2.84108 11.0261 2.84096C10.7994 2.84082 10.5728 2.841 10.3461 2.84138C10.0867 2.8418 9.82719 2.84166 9.56771 2.84123C9.34216 2.84088 9.11662 2.84083 8.89107 2.84103C8.75757 2.84115 8.62407 2.84118 8.49058 2.84091C6.95908 2.77004 6.95908 2.77004 5.63538 3.39111Z" fill="var(--fill-0, #252A31)"/>
<path id="Vector_2" d="M17.1094 3.98438C17.3938 4.00929 17.6502 4.31669 17.8223 4.52148C18.2038 5.02405 18.3655 5.57896 18.3649 6.20297C18.365 6.23663 18.3651 6.27029 18.3652 6.30498C18.3656 6.4173 18.3656 6.52961 18.3657 6.64193C18.3659 6.72267 18.366 6.80341 18.3663 6.88415C18.3668 7.10321 18.367 7.32226 18.3672 7.54132C18.3673 7.67835 18.3675 7.81538 18.3676 7.95241C18.3682 8.38164 18.3686 8.81087 18.3687 9.24011C18.3689 9.73466 18.3696 10.2292 18.3707 10.7237C18.3715 11.1066 18.3719 11.4895 18.372 11.8724C18.372 12.1007 18.3723 12.3291 18.373 12.5575C18.3736 12.7726 18.3737 12.9876 18.3733 13.2026C18.3733 13.2812 18.3735 13.3598 18.3739 13.4383C18.3764 13.9853 18.3635 14.5155 18.0981 15.0098C18.0845 15.0359 18.0709 15.062 18.0569 15.0889C17.86 15.4548 17.5945 15.8073 17.2266 16.0156C17.1393 16.0115 17.1393 16.0115 17.0703 15.9766C17.0296 15.8545 17.0315 15.7949 17.0442 15.6691C17.0478 15.6306 17.0514 15.592 17.0551 15.5523C17.0591 15.5105 17.0631 15.4687 17.0672 15.4257C17.112 14.9136 17.1205 14.4059 17.1195 13.8922C17.1196 13.7976 17.1197 13.7029 17.1199 13.6083C17.1202 13.3806 17.1202 13.1529 17.1199 12.9251C17.1198 12.7396 17.1197 12.5541 17.1198 12.3685C17.1198 12.3418 17.1199 12.3152 17.1199 12.2877C17.1199 12.2335 17.1199 12.1793 17.1199 12.1251C17.1202 11.6196 17.1199 11.1142 17.1195 10.6088C17.1191 10.1777 17.1192 9.74654 17.1196 9.31543C17.12 8.81162 17.1201 8.3078 17.1199 7.80398C17.1199 7.74997 17.1199 7.69595 17.1198 7.64194C17.1198 7.61539 17.1198 7.58883 17.1198 7.56147C17.1197 7.37678 17.1198 7.19209 17.12 7.0074C17.1203 6.7575 17.1201 6.5076 17.1196 6.25769C17.1195 6.16692 17.1196 6.07616 17.1197 5.98539C17.1207 5.45175 17.102 4.92498 17.0517 4.39342C17.0479 4.35126 17.0442 4.3091 17.0404 4.26566C17.0367 4.22825 17.0331 4.19085 17.0294 4.15231C17.0313 4.0625 17.0313 4.0625 17.1094 3.98438Z" fill="var(--fill-0, #252A31)"/>
<path id="Vector_3" d="M2.86072 3.98849C2.92969 4.02344 2.92969 4.02344 2.96875 4.14062C2.96617 4.22422 2.96617 4.22422 2.95583 4.3222C2.95042 4.37736 2.95042 4.37736 2.94491 4.43364C2.9409 4.47355 2.93689 4.51346 2.93276 4.55458C2.88649 5.06121 2.87955 5.56366 2.88052 6.07206C2.88041 6.16754 2.88027 6.26301 2.8801 6.35848C2.87979 6.58836 2.87983 6.81824 2.88006 7.04812C2.88023 7.23539 2.88025 7.42267 2.88017 7.60994C2.88016 7.63684 2.88015 7.66374 2.88013 7.69146C2.88011 7.74614 2.88008 7.80083 2.88006 7.85552C2.87984 8.36553 2.88009 8.87555 2.88051 9.38556C2.88086 9.82072 2.8808 10.2559 2.88044 10.6911C2.88002 11.1994 2.87986 11.7078 2.8801 12.2162C2.88012 12.2706 2.88015 12.3251 2.88017 12.3796C2.88018 12.4064 2.88019 12.4332 2.88021 12.4608C2.88027 12.6472 2.88016 12.8337 2.87998 13.0201C2.87975 13.2723 2.87991 13.5245 2.88036 13.7768C2.88046 13.8684 2.88044 13.9601 2.88026 14.0518C2.87935 14.5778 2.89663 15.0968 2.94834 15.6206C2.95207 15.661 2.9558 15.7014 2.95964 15.743C2.96507 15.7966 2.96507 15.7966 2.97061 15.8513C2.96875 15.9375 2.96875 15.9375 2.89062 16.0156C2.60922 15.991 2.35297 15.6873 2.18018 15.4858C1.68534 14.8317 1.62283 14.1173 1.62546 13.327C1.6253 13.2462 1.62509 13.1655 1.62484 13.0847C1.62431 12.8668 1.62451 12.6489 1.62488 12.431C1.62518 12.202 1.6249 11.9731 1.62472 11.7442C1.62451 11.3599 1.62479 10.9756 1.62535 10.5913C1.62598 10.1481 1.62578 9.70487 1.62513 9.26167C1.6246 8.87995 1.62453 8.49824 1.62483 8.11652C1.62501 7.88905 1.62504 7.6616 1.62465 7.43413C1.62431 7.22021 1.62455 7.00629 1.62523 6.79236C1.62538 6.71423 1.62534 6.6361 1.62508 6.55797C1.62343 6.01254 1.63728 5.48299 1.90186 4.99023C1.91548 4.96413 1.92911 4.93802 1.94315 4.91112C2.10134 4.61704 2.47942 3.9705 2.86072 3.98849Z" fill="var(--fill-0, #252A31)"/>
<path id="Vector_4" d="M12.3892 4.77676C12.7597 5.03351 13.0054 5.3604 13.1087 5.79987C13.1833 6.25045 13.0903 6.6741 12.8432 7.05658C12.5843 7.3976 12.2229 7.62916 11.7969 7.69531C11.3017 7.73974 10.8753 7.6206 10.4834 7.31247C10.3419 7.18146 10.2455 7.04514 10.1563 6.875C10.1402 6.84715 10.1241 6.81931 10.1076 6.79062C9.92668 6.4257 9.93652 5.92714 10.061 5.54443C10.2419 5.13155 10.5629 4.81058 10.9766 4.63135C11.445 4.47936 11.9667 4.52586 12.3892 4.77676Z" fill="var(--fill-0, #252A31)"/>
</g>
</svg>
