<?xml version="1.0" encoding="utf-8"?>
<!-- Generator: Adobe Illustrator 28.0.0, SVG Export Plug-In . SVG Version: 6.00 Build 0)  -->
<svg version="1.1" id="Layer_1" xmlns="http://www.w3.org/2000/svg" xmlns:xlink="http://www.w3.org/1999/xlink" x="0px" y="0px"
	 viewBox="0 0 512 512" style="enable-background:new 0 0 512 512;" xml:space="preserve">
<style type="text/css">
	.st0{fill:#D0E0FA;}
	.st1{fill:#A6CBF5;}
	.st2{fill:#EEF5FF;}
	.st3{fill:#F4CF34;}
	.st4{fill:#C4C4C4;}
	.st5{fill:#AFAFAF;}
	.st6{fill:#47A2FC;}
	.st7{fill:#F94A69;}
	.st8{fill:#FF8522;}
	.st9{fill:#FFDD00;}
	.st10{fill:#00DDAA;}
	.st11{fill:#50DCFD;}
	.st12{fill:#D1D1D1;}
	.st13{fill:#9B9B9B;}
	.st14{fill:#B5CBEA;}
</style>
<g>
	<g>
		<g>
			<path class="st3" d="M332.949,105.111L332.949,105.111c-2.721,0-4.927-2.206-4.927-4.927V64.342c0-2.721,2.206-4.927,4.927-4.927
				l0,0c2.721,0,4.927,2.206,4.927,4.927v35.842C337.876,102.905,335.67,105.111,332.949,105.111z"/>
		</g>
		<g>
			<path class="st3" d="M252.088,138.605L252.088,138.605c-1.924,1.924-5.044,1.924-6.968,0l-25.344-25.344
				c-1.924-1.924-1.924-5.044,0-6.968v0c1.924-1.924,5.044-1.924,6.968,0l25.344,25.344
				C254.013,133.561,254.013,136.68,252.088,138.605z"/>
		</g>
		<g>
			<path class="st3" d="M218.595,219.465L218.595,219.465c0,2.721-2.206,4.927-4.927,4.927h-35.842
				c-2.721,0-4.927-2.206-4.927-4.927v0c0-2.721,2.206-4.927,4.927-4.927h35.842C216.389,214.538,218.595,216.744,218.595,219.465z"
				/>
		</g>
		<g>
			<path class="st3" d="M252.088,300.326L252.088,300.326c1.924,1.924,1.924,5.044,0,6.968l-25.344,25.344
				c-1.924,1.924-5.044,1.924-6.968,0l0,0c-1.924-1.924-1.924-5.044,0-6.968l25.344-25.344
				C247.044,298.402,250.164,298.402,252.088,300.326z"/>
		</g>
		<g>
			<path class="st3" d="M332.949,333.82L332.949,333.82c2.721,0,4.927,2.206,4.927,4.927v35.842c0,2.721-2.206,4.927-4.927,4.927
				l0,0c-2.721,0-4.927-2.206-4.927-4.927v-35.842C328.022,336.026,330.228,333.82,332.949,333.82z"/>
		</g>
		<g>
			<path class="st3" d="M413.81,300.326L413.81,300.326c1.924-1.924,5.044-1.924,6.968,0l25.344,25.344
				c1.924,1.924,1.924,5.044,0,6.968l0,0c-1.924,1.924-5.044,1.924-6.968,0l-25.344-25.344
				C411.885,305.37,411.885,302.25,413.81,300.326z"/>
		</g>
		<g>
			<path class="st3" d="M447.303,219.465L447.303,219.465c0-2.721,2.206-4.927,4.927-4.927h35.842c2.721,0,4.927,2.206,4.927,4.927
				v0c0,2.721-2.206,4.927-4.927,4.927h-35.842C449.509,224.393,447.303,222.187,447.303,219.465z"/>
		</g>
		<g>
			<path class="st3" d="M413.81,138.605L413.81,138.605c-1.924-1.924-1.924-5.044,0-6.968l25.344-25.344
				c1.924-1.924,5.044-1.924,6.968,0v0c1.924,1.924,1.924,5.044,0,6.968l-25.344,25.344
				C418.854,140.529,415.734,140.529,413.81,138.605z"/>
		</g>
		<g>
			<circle class="st3" cx="332.949" cy="219.465" r="100.173"/>
		</g>
		<g>
			<path class="st3" d="M289.298,113.77L289.298,113.77c-2.515,1.039-5.396-0.158-6.435-2.673l-4.96-12.01
				c-1.039-2.515,0.158-5.396,2.673-6.435h0c2.515-1.039,5.396,0.158,6.435,2.673l4.96,12.01
				C293.01,109.85,291.813,112.731,289.298,113.77z"/>
		</g>
		<g>
			<path class="st3" d="M227.345,175.594L227.345,175.594c-1.044,2.513-3.928,3.704-6.441,2.66l-11.999-4.985
				c-2.513-1.044-3.704-3.928-2.66-6.441v0c1.044-2.513,3.928-3.704,6.441-2.66l11.999,4.985
				C227.198,170.197,228.389,173.081,227.345,175.594z"/>
		</g>
		<g>
			<path class="st3" d="M227.254,263.117L227.254,263.117c1.039,2.515-0.158,5.396-2.673,6.435l-12.01,4.96
				c-2.515,1.039-5.396-0.158-6.435-2.673l0,0c-1.039-2.515,0.158-5.396,2.673-6.435l12.01-4.96
				C223.334,259.405,226.215,260.601,227.254,263.117z"/>
		</g>
		<g>
			<path class="st3" d="M289.077,325.069L289.077,325.069c2.513,1.044,3.704,3.928,2.66,6.441l-4.985,11.999
				c-1.044,2.513-3.928,3.704-6.441,2.66l0,0c-2.513-1.044-3.704-3.928-2.66-6.441l4.985-11.999
				C283.681,325.216,286.564,324.025,289.077,325.069z"/>
		</g>
		<g>
			<path class="st3" d="M376.6,325.161L376.6,325.161c2.515-1.039,5.396,0.158,6.435,2.673l4.96,12.01
				c1.039,2.515-0.158,5.396-2.673,6.435v0c-2.515,1.039-5.396-0.158-6.435-2.673l-4.96-12.01
				C372.888,329.08,374.085,326.199,376.6,325.161z"/>
		</g>
		<g>
			<path class="st3" d="M438.553,263.337L438.553,263.337c1.044-2.513,3.928-3.704,6.441-2.66l11.999,4.985
				c2.513,1.044,3.704,3.928,2.66,6.441l0,0c-1.044,2.513-3.928,3.704-6.441,2.66l-11.999-4.985
				C438.7,268.734,437.509,265.85,438.553,263.337z"/>
		</g>
		<g>
			<path class="st3" d="M438.644,175.814L438.644,175.814c-1.039-2.515,0.158-5.396,2.673-6.435l12.01-4.96
				c2.515-1.039,5.396,0.158,6.435,2.673l0,0c1.039,2.515-0.158,5.396-2.673,6.435l-12.01,4.96
				C442.564,179.526,439.683,178.329,438.644,175.814z"/>
		</g>
		<g>
			<path class="st3" d="M376.821,113.862L376.821,113.862c-2.513-1.044-3.704-3.928-2.66-6.441l4.985-11.999
				c1.044-2.513,3.928-3.704,6.441-2.66l0,0c2.513,1.044,3.704,3.928,2.66,6.441l-4.985,11.999
				C382.217,113.715,379.334,114.906,376.821,113.862z"/>
		</g>
	</g>
	<g>
		<g>
			<path class="st0" d="M407.877,365.095c1.196,3.912,1.838,8.068,1.838,12.371c0,23.369-18.94,42.317-42.317,42.317
				c-17.006,0-31.666-10.039-38.39-24.513c-7.212,13.05-21.103,21.886-37.062,21.886c-6.496,0-12.644-1.462-18.143-4.082
				c-1.447,22.063-19.789,39.512-42.221,39.512c-14.718,0-27.68-7.514-35.26-18.918c-7.138,5.484-16.062,8.754-25.761,8.754
				c-20.889,0-38.235-15.146-41.682-35.054c-4.776,1.867-9.965,2.901-15.398,2.901c-14.726,0-27.687-7.522-35.268-18.933
				c-5.174,2.259-10.887,3.513-16.896,3.513c-20.048,0-36.84-13.943-41.21-32.662c-0.723-3.1-1.107-6.333-1.107-9.655
				c0-23.377,18.948-42.317,42.317-42.317c0.118,0,0.229,0.007,0.34,0.007c2.583-20.897,20.387-37.084,41.985-37.084
				c5.3,0,10.363,0.982,15.036,2.761c2.377-21.118,20.291-37.534,42.044-37.534c8.636,0,16.66,2.591,23.355,7.034
				c3.632-19.679,20.874-34.589,41.601-34.589c16.593,0,30.943,9.551,37.881,23.45c7.75-8.747,19.066-14.268,31.666-14.268
				c23.377,0,42.324,18.948,42.324,42.324c0,2.037-0.155,4.045-0.435,6.008c1.963-0.28,3.971-0.436,6.008-0.436
				c15.346,0,28.78,8.164,36.198,20.38c6.85-4.776,15.176-7.581,24.166-7.581c18.527,0,34.279,11.906,40.007,28.492
				c1.498,4.333,2.31,8.983,2.31,13.825C445.803,344.892,429.187,362.903,407.877,365.095z"/>
		</g>
		<g>
			<path class="st1" d="M407.877,365.095c1.196,3.912,1.838,8.068,1.838,12.371c0,23.369-18.94,42.317-42.317,42.317
				c-17.006,0-31.666-10.039-38.39-24.513c-7.212,13.05-21.103,21.886-37.062,21.886c-6.496,0-12.644-1.462-18.143-4.082
				c-1.447,22.063-19.789,39.512-42.221,39.512c-14.718,0-27.68-7.514-35.26-18.918c-7.138,5.484-16.062,8.754-25.761,8.754
				c-20.889,0-38.235-15.146-41.682-35.054c-4.776,1.867-9.965,2.901-15.398,2.901c-14.726,0-27.687-7.522-35.268-18.933
				c-5.174,2.259-10.887,3.513-16.896,3.513c-20.048,0-36.84-13.943-41.21-32.662c12.187,6.82,32.138,12.46,59.582,2.48
				c0,0,20.668,31.976,59.545,5.41c0,0,19.191,40.782,62.985,10.548c0,0,21.657,33.253,62.003-11.53
				c0,0,27.067,29.525,61.021-10.334c0,0,45.27,45.277,69.384-14.268c0,0,38.885,9.057,48.864-35.312
				c1.498,4.333,2.31,8.983,2.31,13.825C445.803,344.892,429.187,362.903,407.877,365.095z"/>
		</g>
		<g>
			<path class="st2" d="M71.753,310.868c1.049-16.231,15.366-26.843,31.016-27.145c4.974-0.177,9.901,0.477,14.584,1.884
				c-8.964,0.184-17.762,0.704-26.031,4.166C82.113,293.65,75.215,301.404,71.753,310.868L71.753,310.868z"/>
		</g>
		<g>
			<path class="st2" d="M195.247,246.639c1.049-16.231,15.366-26.843,31.016-27.145c4.974-0.177,9.901,0.477,14.584,1.884
				c-8.964,0.184-17.762,0.704-26.031,4.166C205.606,229.421,198.708,237.175,195.247,246.639L195.247,246.639z"/>
		</g>
		<g>
			<path class="st2" d="M306.32,328.171c1.049-16.231,15.366-26.843,31.016-27.145c4.974-0.177,9.901,0.477,14.584,1.884
				c-8.964,0.184-17.762,0.704-26.031,4.166C316.679,310.954,309.781,318.707,306.32,328.171L306.32,328.171z"/>
		</g>
		<g>
			<path class="st2" d="M182.725,326.012c1.049-16.231,15.366-26.844,31.016-27.145c4.974-0.177,9.901,0.477,14.584,1.884
				c-8.964,0.184-17.762,0.704-26.031,4.166C193.084,308.794,186.186,316.548,182.725,326.012L182.725,326.012z"/>
		</g>
	</g>
</g>
</svg>
