<?xml version="1.0" encoding="utf-8"?>
<!-- Generator: Adobe Illustrator 28.0.0, SVG Export Plug-In . SVG Version: 6.00 Build 0)  -->
<svg version="1.1" id="Layer_1" xmlns="http://www.w3.org/2000/svg" xmlns:xlink="http://www.w3.org/1999/xlink" x="0px" y="0px"
	 viewBox="0 0 512 512" style="enable-background:new 0 0 512 512;" xml:space="preserve">
<style type="text/css">
	.st0{fill:#D0E0FA;}
	.st1{fill:#A6CBF5;}
	.st2{fill:#EEF5FF;}
	.st3{fill:#F4CF34;}
	.st4{fill:#C4C4C4;}
	.st5{fill:#AFAFAF;}
	.st6{fill:#47A2FC;}
	.st7{fill:#F94A69;}
	.st8{fill:#FF8522;}
	.st9{fill:#FFDD00;}
	.st10{fill:#00DDAA;}
	.st11{fill:#50DCFD;}
	.st12{fill:#D1D1D1;}
	.st13{fill:#9B9B9B;}
	.st14{fill:#B5CBEA;}
</style>
<g>
	<path class="st4" d="M446.53,214.59c7.96,31.83-39.79,40.74-39.79,40.74c7.96,30.4-42.17,42.81-42.17,42.81
		c6.37,15.12-23.87,22.28-23.87,22.28c15.12,25.46-11.94,27.05-11.94,27.05c23.08,18.3,2.39,28.65,2.39,28.65
		c-26.26,45.35,26.26,85.14,26.26,85.14c-89.12,12.73-108.22-42.17-108.22-42.17c-36.6,3.18-29.44-23.08-29.44-23.08
		c-39.78-3.18-31.03-33.42-31.03-33.42c-49.34-14.32-38.99-53.31-38.99-53.31c-49.33-15.92-42.97-51.72-42.97-51.72
		c-55.7-29.44-40.58-74-40.58-74S8.09,172.42,20.82,120.7c3.05-12.41,14.08-23.08,29.07-32.12c13.13-7.93,29.3-14.61,45.84-20.14
		C128.24,57.58,162,51.38,196.08,49.47c19.41-1.09,38.93-0.79,58.38,0.84c44.65,3.75,83.3,11,115.71,20.38
		c40.21,11.63,70.81,26.55,91.36,42.15c17.48,13.27,27.69,27.03,30.35,39.68C501.43,197.88,446.53,214.59,446.53,214.59z"/>
</g>
<g>
	<path class="st12" d="M328.76,148.19c22.43,36.19-17.09,70.37-17.09,70.37c22.66,34.56-21.5,58.71-21.5,58.71
		c17.17,28.61-4.84,44.09-4.84,44.09c8.34,14.03,4.84,32.41,4.84,32.41c2.51,1.77,0,34.36,0,34.36s10.83,39.2,0,36.54
		c-10.83-2.67-15.96-27.07-15.96-27.07c-20.63-8.99-20.71-28.93-20.71-29.24c-23.5-7.64-15.06-31.45-15.06-31.45
		c-33.23-23.75-10.77-60.24-10.77-60.24c-37.34-18.66-16.89-54.2-16.89-54.2c-38.88-33.52-9.13-79.98-9.13-79.98
		c-21.43-29.51-14.01-68.33-5.57-93.02c19.41-1.09,38.93-0.79,58.38,0.84c44.65,3.75,83.3,11,115.71,20.38
		C373.19,111.58,328.76,148.19,328.76,148.19z"/>
</g>
<g>
	<path class="st5" d="M446.53,214.59c7.96,31.83-39.79,40.74-39.79,40.74c7.96,30.4-42.17,42.81-42.17,42.81
		c6.37,15.12-23.87,22.28-23.87,22.28c15.12,25.46-11.94,27.05-11.94,27.05c23.08,18.3,2.39,28.65,2.39,28.65
		c-26.26,45.35,26.26,85.14,26.26,85.14c-89.12,12.73-108.22-42.17-108.22-42.17c-36.6,3.18-29.44-23.08-29.44-23.08
		c-39.78-3.18-31.03-33.42-31.03-33.42c-49.34-14.32-38.99-53.31-38.99-53.31c-49.33-15.92-42.97-51.72-42.97-51.72
		c-55.7-29.44-40.58-74-40.58-74S8.09,172.42,20.82,120.7c3.05-12.41,14.08-23.08,29.07-32.12c12.72,45.9,69.5,71.27,69.5,71.27
		c-37.6,43.18,30.34,77.46,30.34,77.46c-11.94,49.31,36.25,55.67,36.25,55.67c-16.35,46.97,27.12,56.94,27.12,56.94
		c-11.24,29.92,26.45,34.42,26.45,34.42c-5.45,22.34,26.78,27.32,26.78,27.32c14,27.67,59.25,35.67,59.25,35.67
		c-18.91-15.34-27.847-62.731-27.847-62.731c18.65-13.15,6.6-33.043,6.6-33.043c29.94-17.94,8.874-33.963,8.874-33.963
		c34.06-13.67,12.373-34.453,12.373-34.453c58.57-6.86,38.99-50.69,38.99-50.69c60.91-0.22,47.16-50.56,47.16-50.56
		c53.53-2.31,54.83-42.6,49.8-69.05c17.48,13.27,27.69,27.03,30.35,39.68C501.43,197.88,446.53,214.59,446.53,214.59z"/>
</g>
<g>
	<path class="st13" d="M66.179,183.556c61.48-46.605,154.761-59.735,229.916-50.519c41.121,5.1,82.362,17.952,115.783,43.062
		c13.706,10.548,26.633,23.071,34.651,38.489c-5.591-6.401-12.147-11.79-18.898-16.848c-33.597-24.531-74.465-37.018-115.233-42.981
		C233.279,143.778,139.878,151.679,66.179,183.556L66.179,183.556z"/>
</g>
<g>
	<path class="st13" d="M106.761,257.557c9.873-8.961,21.526-15.89,33.406-21.875c14.951-7.454,30.889-13.254,47.089-17.442
		c27.538-7.221,56.36-10.116,84.79-9.493c21.738,0.496,43.744,3.001,64.837,8.313c22.664,6.049,45.447,15.001,63.12,30.847
		c2.441,2.307,4.842,4.673,6.741,7.425c-22.07-13.928-47.671-18.909-72.919-22.847c-18.882-2.407-38.175-3.791-57.254-3.819
		c-5.54-0.203-13.542-0.094-19.164,0.096c-2.804,0.057-6.811-0.002-9.572,0.2c-19.045,0.902-38.275,2.523-57.116,5.641
		C162.066,239.169,133.605,246.248,106.761,257.557L106.761,257.557z"/>
</g>
<g>
	<path class="st13" d="M149.729,309.279c14.307-12.798,31.55-21.809,49.315-28.875c44.865-17.368,97.609-19.477,141.402,2.163
		c6.441,3.196,12.715,6.863,18.474,11.166c1.914,1.447,3.816,2.883,5.651,4.406c-11.657-2.766-22.516-5.709-34.039-7.523
		C269.732,279.548,208.224,291.932,149.729,309.279L149.729,309.279z"/>
</g>
<g>
	<path class="st13" d="M188.719,362.591c33.412-27.953,90.544-53.571,134.697-47.109c2.433,0.497,5.217,0.863,7.59,1.6
		c1.344,0.421,3.609,0.937,4.931,1.461c1.603,0.63,3.202,1.218,4.763,1.877c-1.714-0.098-3.392-0.268-5.064-0.394
		c-4.121-0.309-8.34-0.218-12.471-0.127c-17.248,0.877-34.201,4.823-50.668,9.9C243.786,338.659,216.499,350.833,188.719,362.591
		L188.719,362.591z"/>
</g>
<g>
	<path class="st13" d="M219.752,396.011c3.345-7.08,8.651-13.285,14.304-18.667c11.93-11.355,26.948-19.304,42.482-24.525
		c3.604-1.053,7.751-2.165,11.394-3.116c8.449-1.734,16.626-2.76,25.245-3.037c5.197-0.037,10.416,0.279,15.583,0.805
		c-7.475,2.367-14.825,3.931-22.219,6.141c-1.505,0.421-3.053,0.805-4.564,1.198c-0.52,0.178-2.137,0.692-2.693,0.869
		C270.639,364.162,242.655,376.435,219.752,396.011L219.752,396.011z"/>
</g>
<g>
	<path class="st13" d="M249.193,419.087c14.044-25.46,46.564-45.12,75.889-43.672c2.026,0.05,4.068,0.397,6.068,0.706
		c-14.985,5.218-28.741,10.828-42.402,18.415C275.057,401.984,262.469,410.475,249.193,419.087L249.193,419.087z"/>
</g>
</svg>
