<?xml version="1.0" encoding="utf-8"?>
<!-- Generator: Adobe Illustrator 28.0.0, SVG Export Plug-In . SVG Version: 6.00 Build 0)  -->
<svg version="1.1" id="Layer_1" xmlns="http://www.w3.org/2000/svg" xmlns:xlink="http://www.w3.org/1999/xlink" x="0px" y="0px"
	 viewBox="0 0 512 512" style="enable-background:new 0 0 512 512;" xml:space="preserve">
<style type="text/css">
	.st0{fill:#D0E0FA;}
	.st1{fill:#A6CBF5;}
	.st2{fill:#EEF5FF;}
	.st3{fill:#F4CF34;}
	.st4{fill:#C4C4C4;}
	.st5{fill:#AFAFAF;}
	.st6{fill:#47A2FC;}
	.st7{fill:#F94A69;}
	.st8{fill:#FF8522;}
	.st9{fill:#FFDD00;}
	.st10{fill:#00DDAA;}
	.st11{fill:#50DCFD;}
	.st12{fill:#D1D1D1;}
	.st13{fill:#9B9B9B;}
	.st14{fill:#B5CBEA;}
</style>
<g>
	<g>
		<path class="st0" d="M234.94,232.474c0.664,2.172,1.021,4.48,1.021,6.87c0,12.977-10.517,23.498-23.498,23.498
			c-9.444,0-17.584-5.574-21.318-13.612c-4.005,7.247-11.719,12.153-20.58,12.153c-3.607,0-7.021-0.812-10.075-2.267
			c-0.803,12.251-10.989,21.941-23.445,21.941c-8.173,0-15.371-4.173-19.58-10.505c-3.964,3.045-8.919,4.861-14.305,4.861
			c-11.6,0-21.232-8.411-23.146-19.465c-2.652,1.037-5.533,1.611-8.55,1.611c-8.177,0-15.375-4.177-19.584-10.513
			c-2.873,1.254-6.046,1.951-9.382,1.951c-11.132,0-20.457-7.743-22.884-18.137c-0.402-1.721-0.615-3.517-0.615-5.361
			c0-12.981,10.522-23.498,23.498-23.498c0.066,0,0.127,0.004,0.189,0.004C44.12,190.4,54.007,181.411,66,181.411
			c2.943,0,5.755,0.545,8.349,1.533c1.32-11.727,11.268-20.842,23.347-20.842c4.796,0,9.251,1.439,12.969,3.906
			c2.017-10.927,11.591-19.207,23.101-19.207c9.214,0,17.182,5.304,21.035,13.022c4.304-4.857,10.587-7.923,17.584-7.923
			c12.981,0,23.502,10.522,23.502,23.503c0,1.131-0.086,2.246-0.242,3.336c1.09-0.156,2.205-0.242,3.336-0.242
			c8.521,0,15.981,4.533,20.101,11.317c3.804-2.652,8.427-4.209,13.419-4.209c10.288,0,19.035,6.611,22.215,15.821
			c0.832,2.406,1.283,4.988,1.283,7.677C256,221.256,246.774,231.257,234.94,232.474z"/>
	</g>
	<g>
		<path class="st1" d="M234.94,232.474c0.664,2.172,1.021,4.48,1.021,6.87c0,12.977-10.517,23.498-23.498,23.498
			c-9.444,0-17.584-5.574-21.318-13.612c-4.005,7.247-11.719,12.153-20.58,12.153c-3.607,0-7.021-0.812-10.075-2.267
			c-0.803,12.251-10.989,21.941-23.445,21.941c-8.173,0-15.371-4.173-19.58-10.505c-3.964,3.045-8.919,4.861-14.305,4.861
			c-11.6,0-21.232-8.411-23.146-19.465c-2.652,1.037-5.533,1.611-8.55,1.611c-8.177,0-15.375-4.177-19.584-10.513
			c-2.873,1.254-6.046,1.951-9.382,1.951c-11.132,0-20.457-7.743-22.884-18.137c6.767,3.787,17.846,6.919,33.086,1.377
			c0,0,11.477,17.756,33.065,3.004c0,0,10.657,22.646,34.975,5.857c0,0,12.026,18.465,34.43-6.402c0,0,15.03,16.395,33.885-5.738
			c0,0,25.138,25.142,38.529-7.923c0,0,21.592,5.029,27.134-19.609c0.832,2.406,1.283,4.988,1.283,7.677
			C256,221.256,246.774,231.257,234.94,232.474z"/>
	</g>
	<g>
		<path class="st2" d="M48.293,202.362c0.583-9.013,8.533-14.906,17.223-15.073c2.762-0.098,5.498,0.265,8.098,1.046
			c-4.977,0.102-9.863,0.391-14.455,2.313C54.045,192.801,50.215,197.107,48.293,202.362L48.293,202.362z"/>
	</g>
	<g>
		<path class="st2" d="M116.868,166.696c0.583-9.013,8.533-14.906,17.223-15.073c2.762-0.098,5.498,0.265,8.098,1.046
			c-4.977,0.102-9.863,0.391-14.455,2.313C122.62,157.135,118.79,161.441,116.868,166.696L116.868,166.696z"/>
	</g>
	<g>
		<path class="st2" d="M178.546,211.97c0.583-9.013,8.533-14.906,17.223-15.073c2.762-0.098,5.498,0.265,8.098,1.046
			c-4.977,0.102-9.863,0.391-14.455,2.313C184.298,202.41,180.468,206.715,178.546,211.97L178.546,211.97z"/>
	</g>
	<g>
		<path class="st2" d="M109.914,210.771c0.583-9.013,8.533-14.906,17.223-15.073c2.762-0.098,5.498,0.265,8.098,1.046
			c-4.977,0.102-9.863,0.391-14.455,2.313C115.667,201.211,111.837,205.516,109.914,210.771L109.914,210.771z"/>
	</g>
</g>
<g>
	<g>
		<path class="st0" d="M466.675,293.711c0.83,2.715,1.276,5.6,1.276,8.587c0,16.221-13.147,29.373-29.373,29.373
			c-11.804,0-21.98-6.968-26.647-17.015c-5.006,9.058-14.648,15.191-25.725,15.191c-4.509,0-8.777-1.014-12.594-2.833
			c-1.004,15.314-13.736,27.426-29.306,27.426c-10.216,0-19.213-5.216-24.475-13.132c-4.954,3.807-11.149,6.076-17.881,6.076
			c-14.499,0-26.54-10.513-28.932-24.331c-3.315,1.296-6.917,2.014-10.688,2.014c-10.221,0-19.218-5.221-24.48-13.142
			c-3.592,1.568-7.557,2.439-11.728,2.439c-13.915,0-25.571-9.678-28.604-22.671c-0.502-2.152-0.769-4.396-0.769-6.701
			c0-16.226,13.152-29.373,29.373-29.373c0.082,0,0.159,0.005,0.236,0.005c1.793-14.505,14.151-25.74,29.142-25.74
			c3.679,0,7.193,0.681,10.436,1.916c1.65-14.658,14.085-26.053,29.183-26.053c5.995,0,11.564,1.798,16.211,4.883
			c2.521-13.659,14.489-24.009,28.876-24.009c11.518,0,21.478,6.63,26.294,16.277c5.38-6.071,13.234-9.904,21.98-9.904
			c16.226,0,29.378,13.152,29.378,29.378c0,1.414-0.108,2.808-0.302,4.171c1.363-0.195,2.756-0.302,4.17-0.302
			c10.652,0,19.976,5.667,25.126,14.146c4.755-3.315,10.534-5.262,16.774-5.262c12.86,0,23.793,8.264,27.769,19.777
			c1.04,3.007,1.604,6.235,1.604,9.596C493,279.688,481.467,292.189,466.675,293.711z"/>
	</g>
	<g>
		<path class="st1" d="M466.675,293.711c0.83,2.715,1.276,5.6,1.276,8.587c0,16.221-13.147,29.373-29.373,29.373
			c-11.804,0-21.98-6.968-26.647-17.015c-5.006,9.058-14.648,15.191-25.725,15.191c-4.509,0-8.777-1.014-12.594-2.833
			c-1.004,15.314-13.736,27.426-29.306,27.426c-10.216,0-19.213-5.216-24.475-13.132c-4.954,3.807-11.149,6.076-17.881,6.076
			c-14.499,0-26.54-10.513-28.932-24.331c-3.315,1.296-6.917,2.014-10.688,2.014c-10.221,0-19.218-5.221-24.48-13.142
			c-3.592,1.568-7.557,2.439-11.728,2.439c-13.915,0-25.571-9.678-28.604-22.671c8.459,4.734,22.308,8.648,41.357,1.721
			c0,0,14.346,22.195,41.331,3.756c0,0,13.321,28.307,43.719,7.321c0,0,15.032,23.081,43.037-8.003c0,0,18.788,20.494,42.356-7.173
			c0,0,31.422,31.427,48.161-9.904c0,0,26.99,6.286,33.917-24.511c1.04,3.007,1.604,6.235,1.604,9.596
			C493,279.688,481.467,292.189,466.675,293.711z"/>
	</g>
	<g>
		<path class="st2" d="M233.367,256.071c0.728-11.266,10.666-18.632,21.529-18.842c3.452-0.123,6.873,0.331,10.123,1.308
			c-6.222,0.128-12.329,0.489-18.069,2.891C240.557,244.12,235.77,249.502,233.367,256.071L233.367,256.071z"/>
	</g>
	<g>
		<path class="st2" d="M319.086,211.489c0.728-11.266,10.666-18.632,21.529-18.842c3.452-0.123,6.873,0.331,10.123,1.308
			c-6.222,0.128-12.329,0.489-18.069,2.891C326.276,199.538,321.488,204.92,319.086,211.489L319.086,211.489z"/>
	</g>
	<g>
		<path class="st2" d="M396.183,268.082c0.728-11.266,10.666-18.632,21.529-18.842c3.452-0.123,6.873,0.331,10.123,1.308
			c-6.222,0.128-12.329,0.489-18.069,2.891C403.374,256.131,398.586,261.512,396.183,268.082L396.183,268.082z"/>
	</g>
	<g>
		<path class="st2" d="M310.394,266.583c0.728-11.266,10.666-18.632,21.529-18.842c3.452-0.123,6.873,0.331,10.123,1.308
			c-6.222,0.128-12.329,0.489-18.069,2.891C317.584,254.632,312.797,260.014,310.394,266.583L310.394,266.583z"/>
	</g>
</g>
</svg>
