<?xml version="1.0" encoding="utf-8"?>
<!-- Generator: Adobe Illustrator 28.0.0, SVG Export Plug-In . SVG Version: 6.00 Build 0)  -->
<svg version="1.1" id="Layer_1" xmlns="http://www.w3.org/2000/svg" xmlns:xlink="http://www.w3.org/1999/xlink" x="0px" y="0px"
	 viewBox="0 0 512 512" style="enable-background:new 0 0 512 512;" xml:space="preserve">
<style type="text/css">
	.st0{fill:#D0E0FA;}
	.st1{fill:#A6CBF5;}
	.st2{fill:#EEF5FF;}
	.st3{fill:#F4CF34;}
	.st4{fill:#C4C4C4;}
	.st5{fill:#AFAFAF;}
	.st6{fill:#47A2FC;}
	.st7{fill:#F94A69;}
	.st8{fill:#FF8522;}
	.st9{fill:#FFDD00;}
	.st10{fill:#00DDAA;}
	.st11{fill:#50DCFD;}
	.st12{fill:#D1D1D1;}
	.st13{fill:#9B9B9B;}
	.st14{fill:#B5CBEA;}
</style>
<g>
	<path class="st4" d="M437.857,178.895c1.239,4.054,1.905,8.361,1.905,12.821c0,24.219-19.629,43.856-43.856,43.856
		c-17.625,0-32.817-10.404-39.786-25.405c-7.474,13.525-21.871,22.681-38.409,22.681c-6.732,0-13.104-1.515-18.803-4.23
		c-1.499,22.865-20.509,40.949-43.757,40.949c-15.254,0-28.687-7.787-36.543-19.606c-7.397,5.684-16.646,9.073-26.698,9.073
		c-21.649,0-39.626-15.697-43.198-36.329c-4.949,1.935-10.327,3.006-15.957,3.006c-15.261,0-28.694-7.795-36.55-19.622
		c-5.362,2.341-11.283,3.641-17.51,3.641c-20.777,0-38.18-14.45-42.708-33.85c-0.75-3.213-1.147-6.563-1.147-10.006
		c0-24.227,19.637-43.856,43.856-43.856c0.123,0,0.237,0.008,0.352,0.008c2.677-21.656,21.129-38.432,43.512-38.432
		c5.492,0,10.74,1.017,15.582,2.861c2.463-21.886,21.029-38.899,43.573-38.899c8.95,0,17.266,2.685,24.204,7.29
		C209.681,34.452,227.551,19,249.031,19c17.197,0,32.068,9.899,39.258,24.303c8.032-9.065,19.759-14.787,32.818-14.787
		c24.227,0,43.863,19.637,43.863,43.864c0,2.111-0.161,4.192-0.451,6.227c2.035-0.291,4.115-0.451,6.227-0.451
		c15.904,0,29.826,8.461,37.514,21.121c7.099-4.949,15.728-7.856,25.045-7.856c19.201,0,35.525,12.339,41.462,29.528
		c1.553,4.49,2.394,9.31,2.394,14.328C477.162,157.957,459.942,176.623,437.857,178.895z"/>
</g>
<g>
	<path class="st5" d="M437.857,178.895c1.239,4.054,1.905,8.361,1.905,12.821c0,24.219-19.629,43.856-43.856,43.856
		c-17.625,0-32.817-10.404-39.786-25.405c-7.474,13.525-21.871,22.681-38.409,22.681c-6.732,0-13.104-1.515-18.803-4.23
		c-1.499,22.865-20.509,40.949-43.757,40.949c-15.254,0-28.687-7.787-36.543-19.606c-7.397,5.684-16.646,9.073-26.698,9.073
		c-21.649,0-39.626-15.697-43.198-36.329c-4.949,1.935-10.327,3.006-15.957,3.006c-15.261,0-28.694-7.795-36.55-19.622
		c-5.362,2.341-11.283,3.641-17.51,3.641c-20.777,0-38.18-14.45-42.708-33.85c12.63,7.068,33.307,12.913,61.749,2.57
		c0,0,21.419,33.139,61.71,5.607c0,0,19.889,42.265,65.275,10.932c0,0,22.444,34.462,64.258-11.949c0,0,28.052,30.599,63.24-10.71
		c0,0,46.916,46.924,71.908-14.787c0,0,40.299,9.386,50.641-36.596c1.553,4.49,2.394,9.31,2.394,14.328
		C477.162,157.957,459.942,176.623,437.857,178.895z"/>
</g>
<g>
	<path class="st2" d="M89.51,122.696c1.088-16.822,15.925-27.82,32.144-28.132c5.155-0.183,10.261,0.494,15.114,1.953
		c-9.289,0.19-18.408,0.73-26.978,4.317C100.246,104.852,93.098,112.887,89.51,122.696L89.51,122.696z"/>
</g>
<g>
	<path class="st2" d="M217.495,56.131c1.088-16.822,15.925-27.82,32.144-28.132c5.155-0.183,10.261,0.494,15.114,1.953
		c-9.289,0.19-18.408,0.73-26.978,4.317C228.23,38.288,221.082,46.323,217.495,56.131L217.495,56.131z"/>
</g>
<g>
	<path class="st2" d="M332.607,140.628c1.088-16.822,15.925-27.82,32.144-28.132c5.155-0.183,10.261,0.494,15.114,1.953
		c-9.289,0.19-18.408,0.73-26.978,4.317C343.343,122.785,336.194,130.82,332.607,140.628L332.607,140.628z"/>
</g>
<g>
	<path class="st2" d="M204.517,138.391c1.088-16.822,15.925-27.82,32.144-28.132c5.155-0.183,10.261,0.494,15.114,1.953
		c-9.289,0.19-18.408,0.73-26.978,4.317C215.253,120.547,208.104,128.582,204.517,138.391L204.517,138.391z"/>
</g>
<g>
	<path class="st6" d="M108.559,305.382c0,7.108-5.762,12.871-12.871,12.871s-12.871-5.762-12.871-12.871
		c0-7.108,12.871-31.575,12.871-31.575S108.559,298.274,108.559,305.382z"/>
</g>
<g>
	<path class="st6" d="M236.493,363.097c0,7.108-5.762,12.871-12.871,12.871s-12.871-5.762-12.871-12.871
		c0-7.108,12.871-31.575,12.871-31.575S236.493,355.989,236.493,363.097z"/>
</g>
<g>
	<path class="st6" d="M289.843,480.129c0,7.108-5.762,12.871-12.871,12.871c-7.108,0-12.871-5.762-12.871-12.871
		c0-7.108,12.871-31.575,12.871-31.575S289.843,473.021,289.843,480.129z"/>
</g>
<g>
	<path class="st6" d="M386.202,330.676c0,7.108-5.762,12.871-12.871,12.871c-7.108,0-12.871-5.762-12.871-12.871
		c0-7.108,12.871-31.575,12.871-31.575S386.202,323.568,386.202,330.676z"/>
</g>
<g>
	<path class="st6" d="M419.146,437.4c0,7.108-5.762,12.871-12.871,12.871s-12.871-5.762-12.871-12.871s12.871-31.575,12.871-31.575
		S419.146,430.291,419.146,437.4z"/>
</g>
<g>
	<path class="st6" d="M137.314,437.4c0,7.108-5.762,12.871-12.871,12.871c-7.108,0-12.871-5.762-12.871-12.871
		s12.871-31.575,12.871-31.575S137.314,430.291,137.314,437.4z"/>
</g>
</svg>
