<?xml version="1.0" encoding="utf-8"?>
<!-- Generator: Adobe Illustrator 28.0.0, SVG Export Plug-In . SVG Version: 6.00 Build 0)  -->
<svg version="1.1" id="Layer_1" xmlns="http://www.w3.org/2000/svg" xmlns:xlink="http://www.w3.org/1999/xlink" x="0px" y="0px"
	 viewBox="0 0 512 512" style="enable-background:new 0 0 512 512;" xml:space="preserve">
<style type="text/css">
	.st0{fill:#D0E0FA;}
	.st1{fill:#A6CBF5;}
	.st2{fill:#EEF5FF;}
	.st3{fill:#F4CF34;}
	.st4{fill:#C4C4C4;}
	.st5{fill:#AFAFAF;}
	.st6{fill:#47A2FC;}
	.st7{fill:#F94A69;}
	.st8{fill:#FF8522;}
	.st9{fill:#FFDD00;}
	.st10{fill:#00DDAA;}
	.st11{fill:#50DCFD;}
	.st12{fill:#D1D1D1;}
	.st13{fill:#9B9B9B;}
	.st14{fill:#B5CBEA;}
</style>
<g>
	<g>
		<path class="st0" d="M444.35,182.41c-0.93,17.99-8.8,34.14-22.18,45.48c-14.77,12.52-35.09,18.87-60.41,18.87H31.66
			c-6.76,0-12.29-5.31-12.64-11.99c-0.01-0.22-0.02-0.45-0.02-0.67c0-6.99,5.67-12.66,12.66-12.66h330.1
			c34.58,0,56-15.07,57.3-40.33c1.3-25.26-18.58-54.71-52.97-58.26c-21.14-2.18-39.06,4.38-47.91,17.54
			c-5.38,8-6.32,17.06-2.5,24.22c5.12,9.61,18.44,15.13,36.53,15.13c7,0,12.66,5.66,12.66,12.66c0,1.6-0.3,3.14-0.85,4.55
			c-1.82,4.74-6.42,8.11-11.81,8.11c-38,0-53.2-17.89-58.88-28.55c-8.16-15.33-6.7-34.59,3.84-50.25
			c14.16-21.06,40.89-31.75,71.52-28.6C417.85,102.73,446.24,145.6,444.35,182.41z"/>
	</g>
</g>
<g>
	<g>
		<path class="st0" d="M492.99,194.42c-1.46,27.43-16.91,49.54-44.69,63.94c-24.86,12.89-59.84,19.7-101.17,19.7H79.87
			c-2.74,0-5.07-1.74-5.94-4.18c-0.26-0.67-0.39-1.39-0.39-2.15c0-3.5,2.84-6.33,6.33-6.33h267.26c39.31,0,72.28-6.32,95.34-18.28
			c23.91-12.4,36.65-30.35,37.88-53.37c0.19-3.49,3.12-6.16,6.66-5.99c0.67,0.04,1.31,0.17,1.9,0.4
			C491.42,189.11,493.14,191.6,492.99,194.42z"/>
	</g>
</g>
<g>
	<path class="st14" d="M444.35,182.41c-0.93,17.99-8.8,34.14-22.18,45.48c-14.77,12.52-35.09,18.87-60.41,18.87H31.66
		c-6.76,0-12.29-5.31-12.64-11.99h336.87c55.11,0,76.13-21.839,79.777-53.553C439.219,150.325,403,99.22,355.44,104.55
		c-47.55,5.33-59.11,28-57.33,55.56c1.68,25.98,38.93,38.75,65.91,36.84c-1.82,4.74-6.42,8.11-11.81,8.11
		c-38,0-53.2-17.89-58.88-28.55c-8.16-15.33-6.7-34.59,3.84-50.25c14.16-21.06,40.89-31.75,71.52-28.6
		C417.85,102.73,446.24,145.6,444.35,182.41z"/>
</g>
<g>
	<path class="st2" d="M300.481,229.383H45.963c-0.828,0-1.5-0.672-1.5-1.5s0.672-1.5,1.5-1.5h254.519c0.828,0,1.5,0.672,1.5,1.5
		S301.31,229.383,300.481,229.383z"/>
</g>
<g>
	<g>
		<path class="st0" d="M492.924,346.024c-0.784-15.157-7.414-28.763-18.687-38.317c-12.444-10.548-29.563-15.898-50.895-15.898
			H145.233c-5.695,0-10.354,4.474-10.649,10.102c-0.008,0.185-0.017,0.379-0.017,0.564c0,5.889,4.777,10.666,10.666,10.666h278.109
			c29.134,0,47.18,12.696,48.275,33.978c1.095,21.282-15.654,46.093-44.627,49.084c-17.811,1.837-32.908-3.69-40.364-14.777
			c-4.533-6.74-5.325-14.373-2.106-20.405c4.314-8.096,15.536-12.747,30.777-12.747c5.897,0,10.666-4.769,10.666-10.666
			c0-1.348-0.253-2.645-0.716-3.833c-1.533-3.993-5.409-6.833-9.95-6.833c-32.015,0-44.821,15.072-49.606,24.053
			c-6.875,12.915-5.645,29.142,3.235,42.336c11.93,17.743,34.45,26.749,60.256,24.095
			C470.598,413.154,494.517,377.036,492.924,346.024z"/>
	</g>
</g>
<g>
	<path class="st14" d="M492.924,346.024c-0.784-15.157-7.414-28.763-18.687-38.317c-12.444-10.548-29.563-15.898-50.895-15.898
		H145.233c-5.695,0-10.354,4.474-10.649,10.102h283.813c46.43,0,64.139,18.4,67.212,45.119
		c2.993,26.026-27.522,69.082-67.591,64.592c-40.061-4.49-49.8-23.59-48.3-46.809c1.415-21.888,32.799-32.647,55.529-31.038
		c-1.533-3.993-5.409-6.833-9.95-6.833c-32.015,0-44.821,15.072-49.606,24.053c-6.875,12.915-5.645,29.142,3.235,42.336
		c11.93,17.743,34.45,26.749,60.256,24.095C470.598,413.154,494.517,377.036,492.924,346.024z"/>
</g>
<g>
	<path class="st2" d="M371.715,309.213H157.283c-0.828,0-1.5-0.672-1.5-1.5s0.672-1.5,1.5-1.5h214.432c0.828,0,1.5,0.672,1.5,1.5
		S372.543,309.213,371.715,309.213z"/>
</g>
<g>
	<path class="st14" d="M492.99,194.42c-1.46,27.43-16.91,49.54-44.69,63.94c-24.86,12.89-59.84,19.7-101.17,19.7H79.87
		c-2.74,0-5.07-1.74-5.94-4.18h294.85c45.79,0,122.09-21.43,120.13-85.72C491.42,189.11,493.14,191.6,492.99,194.42z"/>
</g>
<g>
	<path class="st2" d="M329.667,270.438H91.889c-0.553,0-1-0.447-1-1s0.447-1,1-1h237.778c0.553,0,1,0.447,1,1
		S330.22,270.438,329.667,270.438z"/>
</g>
</svg>
