<?xml version="1.0" encoding="utf-8"?>
<!-- Generator: Adobe Illustrator 28.0.0, SVG Export Plug-In . SVG Version: 6.00 Build 0)  -->
<svg version="1.1" id="Layer_1" xmlns="http://www.w3.org/2000/svg" xmlns:xlink="http://www.w3.org/1999/xlink" x="0px" y="0px"
	 viewBox="0 0 512 512" style="enable-background:new 0 0 512 512;" xml:space="preserve">
<style type="text/css">
	.st0{fill:#D0E0FA;}
	.st1{fill:#A6CBF5;}
	.st2{fill:#EEF5FF;}
	.st3{fill:#F4CF34;}
	.st4{fill:#C4C4C4;}
	.st5{fill:#AFAFAF;}
	.st6{fill:#47A2FC;}
	.st7{fill:#F94A69;}
	.st8{fill:#FF8522;}
	.st9{fill:#FFDD00;}
	.st10{fill:#00DDAA;}
	.st11{fill:#50DCFD;}
	.st12{fill:#D1D1D1;}
	.st13{fill:#9B9B9B;}
	.st14{fill:#B5CBEA;}
</style>
<g>
	<g>
		<polygon class="st3" points="290.806,201.819 225.951,231.998 206.468,366.852 246.69,348.136 222.353,493 322.472,283.784 
			269.797,296.396 		"/>
	</g>
	<g>
		<g>
			<path class="st4" d="M437.146,178.27c1.234,4.038,1.897,8.328,1.897,12.771c0,24.124-19.552,43.684-43.685,43.684
				c-17.556,0-32.689-10.363-39.631-25.305c-7.445,13.472-21.785,22.593-38.259,22.593c-6.705,0-13.053-1.509-18.73-4.214
				c-1.493,22.776-20.429,40.789-43.586,40.789c-15.194,0-28.574-7.757-36.4-19.53c-7.369,5.662-16.581,9.037-26.593,9.037
				c-21.564,0-39.471-15.636-43.029-36.187c-4.93,1.928-10.287,2.995-15.895,2.995c-15.202,0-28.582-7.765-36.407-19.545
				c-5.342,2.332-11.239,3.627-17.442,3.627c-20.695,0-38.031-14.394-42.541-33.718c-0.747-3.2-1.143-6.538-1.143-9.967
				c0-24.132,19.56-43.685,43.684-43.685c0.122,0,0.236,0.008,0.35,0.008c2.667-21.572,21.046-38.282,43.342-38.282
				c5.471,0,10.698,1.013,15.521,2.85c2.454-21.8,20.947-38.747,43.403-38.747c8.915,0,17.198,2.675,24.109,7.262
				C209.862,34.392,227.662,19,249.058,19c17.13,0,31.942,9.86,39.105,24.208c8.001-9.029,19.682-14.729,32.689-14.729
				c24.132,0,43.692,19.56,43.692,43.692c0,2.103-0.16,4.176-0.449,6.203c2.027-0.29,4.099-0.45,6.202-0.45
				c15.842,0,29.71,8.428,37.368,21.038c7.071-4.93,15.666-7.826,24.947-7.826c19.126,0,35.386,12.291,41.299,29.413
				c1.547,4.473,2.385,9.273,2.385,14.272C476.297,157.414,459.145,176.007,437.146,178.27z"/>
		</g>
		<g>
			<path class="st5" d="M437.146,178.27c1.234,4.038,1.897,8.328,1.897,12.771c0,24.124-19.552,43.684-43.685,43.684
				c-17.556,0-32.689-10.363-39.631-25.305c-7.445,13.472-21.785,22.593-38.259,22.593c-6.705,0-13.053-1.509-18.73-4.214
				c-1.493,22.776-20.429,40.789-43.586,40.789c-15.194,0-28.574-7.757-36.4-19.53c-7.369,5.662-16.581,9.037-26.593,9.037
				c-21.564,0-39.471-15.636-43.029-36.187c-4.93,1.928-10.287,2.995-15.895,2.995c-15.202,0-28.582-7.765-36.407-19.545
				c-5.342,2.332-11.239,3.627-17.442,3.627c-20.695,0-38.031-14.394-42.541-33.718c12.58,7.041,33.177,12.862,61.507,2.56
				c0,0,21.336,33.009,61.469,5.585c0,0,19.812,42.1,65.02,10.889c0,0,22.356,34.327,64.007-11.902c0,0,27.942,30.479,62.993-10.668
				c0,0,46.732,46.74,71.626-14.729c0,0,40.141,9.349,50.443-36.453c1.547,4.473,2.385,9.273,2.385,14.272
				C476.297,157.414,459.145,176.007,437.146,178.27z"/>
		</g>
		<g>
			<path class="st2" d="M90.161,122.29c1.083-16.756,15.863-27.711,32.019-28.022c5.135-0.183,10.221,0.492,15.055,1.945
				c-9.253,0.19-18.336,0.727-26.872,4.3C100.855,104.517,93.734,112.52,90.161,122.29L90.161,122.29z"/>
		</g>
		<g>
			<path class="st2" d="M217.645,55.986c1.083-16.756,15.863-27.711,32.019-28.022c5.135-0.183,10.221,0.492,15.055,1.945
				c-9.253,0.19-18.336,0.727-26.872,4.3C228.339,38.212,221.218,46.216,217.645,55.986L217.645,55.986z"/>
		</g>
		<g>
			<path class="st2" d="M332.307,140.153c1.083-16.756,15.863-27.711,32.019-28.022c5.135-0.183,10.221,0.492,15.055,1.945
				c-9.253,0.19-18.336,0.727-26.872,4.3C343.001,122.379,335.881,130.383,332.307,140.153L332.307,140.153z"/>
		</g>
		<g>
			<path class="st2" d="M204.718,137.924c1.083-16.756,15.863-27.711,32.019-28.022c5.135-0.183,10.221,0.492,15.055,1.945
				c-9.253,0.19-18.336,0.727-26.872,4.3C215.412,120.15,208.292,128.154,204.718,137.924L204.718,137.924z"/>
		</g>
	</g>
</g>
<g>
	<path class="st6" d="M114.149,284.525c0,7.108-5.762,12.871-12.871,12.871s-12.871-5.762-12.871-12.871
		c0-7.108,12.871-31.575,12.871-31.575S114.149,277.417,114.149,284.525z"/>
</g>
<g>
	<path class="st6" d="M97.806,389.208c0,7.108-5.762,12.871-12.871,12.871c-7.108,0-12.871-5.762-12.871-12.871
		s12.871-31.575,12.871-31.575S97.806,382.1,97.806,389.208z"/>
</g>
<g>
	<path class="st6" d="M342.274,411.431c0,7.108-5.762,12.871-12.871,12.871c-7.108,0-12.871-5.762-12.871-12.871
		c0-7.108,12.871-31.575,12.871-31.575S342.274,404.323,342.274,411.431z"/>
</g>
<g>
	<path class="st6" d="M425.642,289.819c0,7.108-5.762,12.871-12.871,12.871s-12.871-5.762-12.871-12.871
		c0-7.108,12.871-31.575,12.871-31.575S425.642,282.711,425.642,289.819z"/>
</g>
<g>
	<path class="st6" d="M450.996,457.885c0,7.108-5.762,12.871-12.871,12.871s-12.871-5.762-12.871-12.871
		c0-7.108,12.871-31.575,12.871-31.575S450.996,450.776,450.996,457.885z"/>
</g>
<g>
	<path class="st6" d="M182.698,443.102c0,7.108-5.762,12.871-12.871,12.871c-7.108,0-12.871-5.762-12.871-12.871
		s12.871-31.575,12.871-31.575S182.698,435.994,182.698,443.102z"/>
</g>
</svg>
