<?xml version="1.0" encoding="utf-8"?>
<!-- Generator: Adobe Illustrator 28.0.0, SVG Export Plug-In . SVG Version: 6.00 Build 0)  -->
<svg version="1.1" id="Layer_1" xmlns="http://www.w3.org/2000/svg" xmlns:xlink="http://www.w3.org/1999/xlink" x="0px" y="0px"
	 viewBox="0 0 512 512" style="enable-background:new 0 0 512 512;" xml:space="preserve">
<style type="text/css">
	.st0{fill:#D0E0FA;}
	.st1{fill:#A6CBF5;}
	.st2{fill:#EEF5FF;}
	.st3{fill:#F4CF34;}
	.st4{fill:#C4C4C4;}
	.st5{fill:#AFAFAF;}
	.st6{fill:#47A2FC;}
	.st7{fill:#F94A69;}
	.st8{fill:#FF8522;}
	.st9{fill:#FFDD00;}
	.st10{fill:#00DDAA;}
	.st11{fill:#50DCFD;}
	.st12{fill:#D1D1D1;}
	.st13{fill:#9B9B9B;}
	.st14{fill:#B5CBEA;}
</style>
<g>
	<g>
		<rect x="162.862" y="374.144" class="st7" width="0.011" height="0.011"/>
	</g>
	<g>
		<rect x="162.862" y="374.144" class="st8" width="0.011" height="0.011"/>
	</g>
	<g>
		<rect x="162.862" y="374.144" class="st9" width="0.011" height="0.011"/>
	</g>
	<g>
		<rect x="162.862" y="374.144" class="st10" width="0.011" height="0.011"/>
	</g>
	<g>
		<g>
			<path class="st7" d="M492.989,362.02c0.256,5.369-4.005,9.877-9.38,9.915l-105.533,0.736l-28.851,0.201v-0.011h0.056
				c-0.089-12.641-2.611-24.824-7.52-36.181c-4.764-11.056-11.57-20.986-20.239-29.543c-8.669-8.546-18.699-15.218-29.811-19.826
				c-11.424-4.742-23.641-7.107-36.282-7.018c-12.652,0.089-24.824,2.622-36.192,7.52c-11.056,4.764-20.986,11.57-29.532,20.238
				c-8.546,8.669-15.229,18.699-19.837,29.811c-4.418,10.655-6.761,21.979-6.984,33.716c-0.011,0.245-0.011,0.48-0.011,0.725
				c-0.011,0.614-0.011,1.227-0.011,1.841l-86.387,0.602l-28.807,0.201l-19.145,0.134c-5.375,0.038-9.7-4.412-9.517-9.785
				c4.292-126.47,107.727-228.1,235.42-228.981C382.128,135.434,486.953,235.631,492.989,362.02z"/>
		</g>
		<g>
			<path class="st8" d="M464.462,372.068l-86.387,0.602l-28.851,0.201v-0.011h0.056c-0.089-12.641-2.611-24.824-7.52-36.181
				c-4.764-11.056-11.57-20.986-20.239-29.543c-8.669-8.546-18.699-15.218-29.811-19.826c-11.424-4.742-23.641-7.107-36.282-7.018
				c-12.652,0.089-24.824,2.622-36.192,7.52c-11.056,4.764-20.986,11.57-29.532,20.238c-8.546,8.669-15.229,18.699-19.837,29.811
				c-4.418,10.655-6.761,21.979-6.984,33.716c-0.011,0.245-0.011,0.48-0.011,0.725c-0.011,0.614-0.011,1.227-0.011,1.841
				l-86.387,0.602l-28.807,0.201c-0.19-28.148,5.132-55.471,15.809-81.221c10.32-24.88,25.203-47.282,44.214-66.561
				c19.011-19.279,41.202-34.463,65.948-45.129c25.594-11.034,52.838-16.724,80.987-16.925c28.148-0.19,55.471,5.121,81.221,15.809
				c24.891,10.32,47.282,25.192,66.561,44.214c19.279,19.011,34.463,41.202,45.129,65.936
				C458.571,316.675,464.273,343.92,464.462,372.068z"/>
		</g>
		<g>
			<path class="st9" d="M435.667,372.269l-57.591,0.402l-28.851,0.201v-0.011h0.056c-0.089-12.641-2.611-24.824-7.52-36.181
				c-4.764-11.056-11.57-20.986-20.239-29.543c-8.669-8.546-18.699-15.218-29.811-19.826c-11.424-4.742-23.641-7.107-36.282-7.018
				c-12.652,0.089-24.824,2.622-36.192,7.52c-11.056,4.764-20.986,11.57-29.532,20.238c-8.546,8.669-15.229,18.699-19.837,29.811
				c-4.418,10.655-6.761,21.979-6.984,33.716c-0.011,0.245-0.011,0.48-0.011,0.725c-0.011,0.614-0.011,1.227-0.011,1.841
				l-86.387,0.602c-0.179-24.266,4.396-47.818,13.6-69.986c8.892-21.443,21.722-40.745,38.123-57.368
				c16.401-16.624,35.512-29.722,56.833-38.915c22.046-9.506,45.531-14.403,69.797-14.571c24.266-0.167,47.818,4.407,69.986,13.611
				c21.443,8.892,40.744,21.722,57.379,38.111c16.623,16.4,29.71,35.523,38.903,56.844
				C430.59,324.518,435.499,348.003,435.667,372.269z"/>
		</g>
		<g>
			<path class="st10" d="M406.871,372.47l-28.796,0.201l-28.851,0.201v-0.011h0.056c-0.089-12.641-2.611-24.824-7.52-36.181
				c-4.764-11.056-11.57-20.986-20.239-29.543c-8.669-8.546-18.699-15.218-29.811-19.826c-11.424-4.742-23.641-7.107-36.282-7.018
				c-12.652,0.089-24.824,2.622-36.192,7.52c-11.056,4.764-20.986,11.57-29.532,20.238c-8.546,8.669-15.229,18.699-19.837,29.811
				c-4.418,10.655-6.761,21.979-6.984,33.716c-0.011,0.245-0.011,0.48-0.011,0.725c-0.011,0.614-0.011,1.227-0.011,1.841
				l-57.591,0.402c-0.145-20.395,3.693-40.164,11.402-58.751c7.464-17.996,18.241-34.218,32.02-48.186
				c13.79-13.979,29.844-24.969,47.74-32.689c18.487-7.966,38.201-12.072,58.595-12.217c20.394-0.134,40.164,3.704,58.751,11.413
				c18.007,7.464,34.218,18.241,48.186,32.02c13.968,13.779,24.969,29.844,32.689,47.74
				C402.62,332.361,406.726,352.064,406.871,372.47z"/>
		</g>
		<g>
			<path class="st11" d="M349.224,372.86h0.056c-0.089-12.641-2.611-24.824-7.52-36.181c-4.764-11.056-11.57-20.986-20.239-29.543
				c-8.669-8.546-18.699-15.218-29.811-19.826c-11.424-4.742-23.641-7.107-36.282-7.018c-12.652,0.089-24.824,2.622-36.192,7.52
				c-11.056,4.764-20.986,11.57-29.532,20.238c-8.546,8.669-15.229,18.699-19.837,29.811c-4.418,10.655-6.761,21.979-6.984,33.716
				c-0.011,0.245-0.011,0.48-0.011,0.725c-0.011,0.614-0.011,1.227-0.011,1.841v0.011l-28.796,0.201v-0.011
				c-0.123-16.534,2.979-32.511,9.204-47.517c6.047-14.56,14.76-27.68,25.928-38.993c11.168-11.324,24.166-20.227,38.636-26.475
				c14.928-6.426,30.871-9.74,47.394-9.863c16.512-0.112,32.511,2.99,47.517,9.215c14.559,6.036,27.68,14.76,39.004,25.928
				c11.313,11.157,20.216,24.154,26.453,38.636c6.437,14.917,9.762,30.86,9.874,47.394l-28.851,0.201V372.86z"/>
		</g>
	</g>
	<g>
		<path class="st7" d="M162.884,371.578c-0.011,0.245-0.011,0.48-0.011,0.725v-0.725H162.884z"/>
	</g>
</g>
</svg>
