<?xml version="1.0" encoding="utf-8"?>
<!-- Generator: Adobe Illustrator 28.0.0, SVG Export Plug-In . SVG Version: 6.00 Build 0)  -->
<svg version="1.1" id="Layer_1" xmlns="http://www.w3.org/2000/svg" xmlns:xlink="http://www.w3.org/1999/xlink" x="0px" y="0px"
	 viewBox="0 0 512 512" style="enable-background:new 0 0 512 512;" xml:space="preserve">
<style type="text/css">
	.st0{fill:#D0E0FA;}
	.st1{fill:#A6CBF5;}
	.st2{fill:#EEF5FF;}
	.st3{fill:#F4CF34;}
	.st4{fill:#C4C4C4;}
	.st5{fill:#AFAFAF;}
	.st6{fill:#47A2FC;}
	.st7{fill:#F94A69;}
	.st8{fill:#FF8522;}
	.st9{fill:#FFDD00;}
	.st10{fill:#00DDAA;}
	.st11{fill:#50DCFD;}
	.st12{fill:#D1D1D1;}
	.st13{fill:#9B9B9B;}
	.st14{fill:#B5CBEA;}
</style>
<g>
	<g>
		<path class="st3" d="M256,129L256,129c-3.022,0-5.472-2.45-5.472-5.472V83.722c0-3.022,2.45-5.472,5.472-5.472l0,0
			c3.022,0,5.472,2.45,5.472,5.472v39.806C261.472,126.55,259.022,129,256,129z"/>
	</g>
	<g>
		<path class="st3" d="M166.197,166.197L166.197,166.197c-2.137,2.137-5.602,2.137-7.739,0l-28.147-28.147
			c-2.137-2.137-2.137-5.602,0-7.739l0,0c2.137-2.137,5.602-2.137,7.739,0l28.147,28.147
			C168.334,160.596,168.334,164.06,166.197,166.197z"/>
	</g>
	<g>
		<path class="st3" d="M129,256L129,256c0,3.022-2.45,5.472-5.472,5.472H83.722c-3.022,0-5.472-2.45-5.472-5.472l0,0
			c0-3.022,2.45-5.472,5.472-5.472h39.806C126.55,250.528,129,252.978,129,256z"/>
	</g>
	<g>
		<path class="st3" d="M166.197,345.803L166.197,345.803c2.137,2.137,2.137,5.602,0,7.739l-28.147,28.147
			c-2.137,2.137-5.602,2.137-7.739,0l0,0c-2.137-2.137-2.137-5.602,0-7.739l28.147-28.147
			C160.596,343.666,164.06,343.666,166.197,345.803z"/>
	</g>
	<g>
		<path class="st3" d="M256,383L256,383c3.022,0,5.472,2.45,5.472,5.472v39.806c0,3.022-2.45,5.472-5.472,5.472l0,0
			c-3.022,0-5.472-2.45-5.472-5.472v-39.806C250.528,385.45,252.978,383,256,383z"/>
	</g>
	<g>
		<path class="st3" d="M345.803,345.803L345.803,345.803c2.137-2.137,5.602-2.137,7.739,0l28.147,28.147
			c2.137,2.137,2.137,5.602,0,7.739l0,0c-2.137,2.137-5.602,2.137-7.739,0l-28.147-28.147
			C343.666,351.404,343.666,347.94,345.803,345.803z"/>
	</g>
	<g>
		<path class="st3" d="M383,256L383,256c0-3.022,2.45-5.472,5.472-5.472h39.806c3.022,0,5.472,2.45,5.472,5.472l0,0
			c0,3.022-2.45,5.472-5.472,5.472h-39.806C385.45,261.472,383,259.022,383,256z"/>
	</g>
	<g>
		<path class="st3" d="M345.803,166.197L345.803,166.197c-2.137-2.137-2.137-5.602,0-7.739l28.147-28.147
			c2.137-2.137,5.602-2.137,7.739,0l0,0c2.137,2.137,2.137,5.602,0,7.739l-28.147,28.147
			C351.404,168.334,347.94,168.334,345.803,166.197z"/>
	</g>
	<g>
		<circle class="st3" cx="256" cy="256" r="111.25"/>
	</g>
	<g>
		<path class="st3" d="M207.522,138.617L207.522,138.617c-2.793,1.154-5.993-0.176-7.147-2.969l-5.508-13.338
			c-1.154-2.793,0.176-5.993,2.969-7.147v0c2.793-1.154,5.993,0.176,7.147,2.969l5.508,13.338
			C211.644,134.263,210.315,137.463,207.522,138.617z"/>
	</g>
	<g>
		<path class="st3" d="M138.718,207.277L138.718,207.277c-1.159,2.791-4.362,4.114-7.153,2.954l-13.326-5.536
			c-2.791-1.159-4.114-4.362-2.954-7.153l0,0c1.159-2.791,4.362-4.114,7.153-2.954l13.326,5.536
			C138.555,201.283,139.878,204.486,138.718,207.277z"/>
	</g>
	<g>
		<path class="st3" d="M138.617,304.478L138.617,304.478c1.154,2.793-0.176,5.993-2.969,7.147l-13.338,5.508
			c-2.793,1.154-5.993-0.176-7.147-2.969h0c-1.154-2.793,0.176-5.993,2.969-7.147l13.338-5.508
			C134.263,300.356,137.463,301.685,138.617,304.478z"/>
	</g>
	<g>
		<path class="st3" d="M207.277,373.282L207.277,373.282c2.791,1.159,4.114,4.362,2.954,7.153l-5.536,13.326
			c-1.159,2.791-4.362,4.114-7.153,2.954l0,0c-2.791-1.159-4.114-4.362-2.954-7.153l5.536-13.326
			C201.283,373.445,204.486,372.122,207.277,373.282z"/>
	</g>
	<g>
		<path class="st3" d="M304.478,373.383L304.478,373.383c2.793-1.154,5.993,0.176,7.147,2.969l5.508,13.338
			c1.154,2.793-0.176,5.993-2.969,7.147l0,0c-2.793,1.154-5.993-0.176-7.147-2.969l-5.508-13.338
			C300.356,377.737,301.685,374.537,304.478,373.383z"/>
	</g>
	<g>
		<path class="st3" d="M373.282,304.723L373.282,304.723c1.159-2.791,4.362-4.114,7.153-2.954l13.326,5.536
			c2.791,1.159,4.114,4.362,2.954,7.153l0,0c-1.159,2.791-4.362,4.114-7.153,2.954l-13.326-5.536
			C373.445,310.717,372.122,307.514,373.282,304.723z"/>
	</g>
	<g>
		<path class="st3" d="M373.383,207.522L373.383,207.522c-1.154-2.793,0.176-5.993,2.969-7.147l13.338-5.508
			c2.793-1.154,5.993,0.176,7.147,2.969l0,0c1.154,2.793-0.176,5.993-2.969,7.147l-13.338,5.508
			C377.737,211.644,374.537,210.315,373.383,207.522z"/>
	</g>
	<g>
		<path class="st3" d="M304.723,138.718L304.723,138.718c-2.791-1.159-4.114-4.362-2.954-7.153l5.536-13.326
			c1.159-2.791,4.362-4.114,7.153-2.954l0,0c2.791,1.159,4.114,4.362,2.954,7.153l-5.536,13.326
			C310.717,138.555,307.514,139.878,304.723,138.718z"/>
	</g>
</g>
</svg>
