<?xml version="1.0" encoding="utf-8"?>
<!-- Generator: Adobe Illustrator 28.0.0, SVG Export Plug-In . SVG Version: 6.00 Build 0)  -->
<svg version="1.1" id="Layer_1" xmlns="http://www.w3.org/2000/svg" xmlns:xlink="http://www.w3.org/1999/xlink" x="0px" y="0px"
	 viewBox="0 0 512 512" style="enable-background:new 0 0 512 512;" xml:space="preserve">
<style type="text/css">
	.st0{fill:#D0E0FA;}
	.st1{fill:#A6CBF5;}
	.st2{fill:#EEF5FF;}
	.st3{fill:#F4CF34;}
	.st4{fill:#C4C4C4;}
	.st5{fill:#AFAFAF;}
	.st6{fill:#47A2FC;}
	.st7{fill:#F94A69;}
	.st8{fill:#FF8522;}
	.st9{fill:#FFDD00;}
	.st10{fill:#00DDAA;}
	.st11{fill:#50DCFD;}
	.st12{fill:#D1D1D1;}
	.st13{fill:#9B9B9B;}
	.st14{fill:#B5CBEA;}
</style>
<g>
	<g>
		<path class="st0" d="M450.445,189.962c1.325,4.335,2.037,8.94,2.037,13.708c0,25.895-20.988,46.892-46.892,46.892
			c-18.845,0-35.089-11.124-42.54-27.163c-7.991,14.461-23.384,24.251-41.068,24.251c-7.198,0-14.011-1.62-20.105-4.523
			c-1.603,24.448-21.929,43.783-46.785,43.783c-16.309,0-30.672-8.326-39.072-20.963c-7.909,6.077-17.798,9.701-28.546,9.701
			c-23.147,0-42.368-16.784-46.188-38.843c-5.292,2.069-11.042,3.214-17.062,3.214c-16.318,0-30.68-8.335-39.08-20.98
			c-5.734,2.503-12.064,3.893-18.722,3.893c-22.215,0-40.822-15.451-45.665-36.193c-0.802-3.435-1.227-7.018-1.227-10.698
			c0-25.904,20.996-46.892,46.891-46.892c0.131,0,0.254,0.008,0.376,0.008c2.863-23.155,22.591-41.092,46.524-41.092
			c5.873,0,11.484,1.088,16.661,3.059c2.634-23.401,22.485-41.591,46.589-41.591c9.57,0,18.461,2.871,25.879,7.795
			C206.475,35.522,225.581,19,248.549,19c18.387,0,34.287,10.584,41.976,25.985c8.588-9.692,21.127-15.81,35.089-15.81
			c25.904,0,46.9,20.996,46.9,46.9c0,2.257-0.172,4.482-0.482,6.658c2.176-0.311,4.4-0.483,6.658-0.483
			c17.005,0,31.891,9.046,40.111,22.583c7.59-5.292,16.817-8.4,26.779-8.4c20.53,0,37.984,13.193,44.331,31.572
			c1.66,4.801,2.56,9.954,2.56,15.32C492.47,167.576,474.058,187.533,450.445,189.962z"/>
	</g>
	<g>
		<path class="st1" d="M450.445,189.962c1.325,4.335,2.037,8.94,2.037,13.708c0,25.895-20.988,46.892-46.892,46.892
			c-18.845,0-35.089-11.124-42.54-27.163c-7.991,14.461-23.384,24.251-41.068,24.251c-7.198,0-14.011-1.62-20.105-4.523
			c-1.603,24.448-21.929,43.783-46.785,43.783c-16.309,0-30.672-8.326-39.072-20.963c-7.909,6.077-17.798,9.701-28.546,9.701
			c-23.147,0-42.368-16.784-46.188-38.843c-5.292,2.069-11.042,3.214-17.062,3.214c-16.318,0-30.68-8.335-39.08-20.98
			c-5.734,2.503-12.064,3.893-18.722,3.893c-22.215,0-40.822-15.451-45.665-36.193c13.504,7.558,35.612,13.807,66.023,2.748
			c0,0,22.902,35.432,65.982,5.995c0,0,21.266,45.19,69.793,11.688c0,0,23.998,36.847,68.705-12.776
			c0,0,29.993,32.717,67.618-11.451c0,0,50.163,50.171,76.885-15.81c0,0,43.088,10.036,54.146-39.129
			c1.66,4.801,2.56,9.954,2.56,15.32C492.47,167.576,474.058,187.533,450.445,189.962z"/>
	</g>
	<g>
		<path class="st2" d="M77.986,129.873c1.163-17.986,17.027-29.745,34.369-30.079c5.512-0.196,10.972,0.528,16.16,2.088
			c-9.932,0.204-19.682,0.781-28.845,4.616C89.465,110.795,81.822,119.386,77.986,129.873L77.986,129.873z"/>
	</g>
	<g>
		<path class="st2" d="M214.829,58.701c1.163-17.986,17.027-29.745,34.369-30.079c5.512-0.196,10.972,0.528,16.16,2.088
			c-9.932,0.204-19.682,0.781-28.845,4.616C226.308,39.623,218.665,48.214,214.829,58.701L214.829,58.701z"/>
	</g>
	<g>
		<path class="st2" d="M337.909,149.047c1.163-17.986,17.027-29.745,34.369-30.079c5.512-0.196,10.972,0.528,16.16,2.088
			c-9.932,0.204-19.682,0.781-28.845,4.616C349.388,129.969,341.745,138.56,337.909,149.047L337.909,149.047z"/>
	</g>
	<g>
		<path class="st2" d="M200.954,146.654c1.163-17.986,17.027-29.745,34.369-30.079c5.512-0.196,10.972,0.528,16.16,2.088
			c-9.932,0.204-19.682,0.781-28.845,4.616C212.433,127.576,204.789,136.167,200.954,146.654L200.954,146.654z"/>
	</g>
</g>
<g>
	<path class="st1" d="M109.064,349.228l-5.142-7.451l6.544,1.018c1.079,0.168,2.09-0.571,2.258-1.65
		c0.168-1.079-0.571-2.09-1.65-2.258l-10.246-1.593l-5.187-7.516l14.025,2.181c1.079,0.168,2.09-0.571,2.258-1.65
		c0.168-1.079-0.571-2.09-1.65-2.258l-17.727-2.756l-6.232-9.031l10.701,5.284c0.979,0.484,2.165,0.082,2.649-0.898
		s0.082-2.165-0.898-2.649l-9.446-4.664l9.218-0.456l13.188,12.068c0.141,0.129,0.296,0.234,0.46,0.315
		c0.769,0.38,1.726,0.225,2.334-0.439c0.737-0.806,0.682-2.057-0.124-2.794l-10.3-9.425l9.238-0.457l7.483,6.847
		c0.141,0.129,0.296,0.234,0.46,0.315c0.769,0.379,1.726,0.225,2.334-0.439c0.737-0.806,0.682-2.057-0.124-2.794l-4.595-4.204
		l8.831-0.437c1.091-0.054,1.931-0.982,1.877-2.073c-0.054-1.091-0.982-1.932-2.073-1.877l-8.974,0.444l4.311-5.028
		c0.711-0.829,0.615-2.077-0.214-2.788c-0.828-0.711-2.077-0.615-2.788,0.214l-6.749,7.872l-9.121,0.452l9.239-10.775
		c0.711-0.829,0.615-2.077-0.214-2.788c-0.828-0.711-2.077-0.615-2.788,0.214L98.552,308.92l-10.816,0.536l10.1-6.635
		c0.913-0.6,1.167-1.826,0.567-2.738c-0.599-0.913-1.826-1.167-2.738-0.567l-9.6,6.307l4.487-9.088l16.96-5.651
		c1.036-0.345,1.596-1.465,1.251-2.501c-0.345-1.036-1.465-1.596-2.501-1.251l-13.246,4.413l4.095-8.293l9.623-3.206
		c1.036-0.345,1.596-1.465,1.251-2.501c-0.345-1.036-1.465-1.596-2.501-1.251l-5.909,1.969l3.915-7.928
		c0.483-0.979,0.082-2.165-0.898-2.649c-0.979-0.484-2.165-0.082-2.649,0.898l-3.978,8.056l-2.295-6.212
		c-0.378-1.025-1.516-1.548-2.54-1.17c-1.024,0.378-1.548,1.516-1.17,2.54l3.593,9.726l-4.043,8.188l-4.919-13.314
		c-0.378-1.025-1.515-1.548-2.54-1.17c-1.024,0.378-1.548,1.516-1.17,2.54l6.217,16.828l-4.58,9.275l-0.829-11.456
		c-0.079-1.089-1.026-1.909-2.115-1.829c-1.089,0.079-1.908,1.026-1.83,2.115l0.885,12.225l-6.325-9.165l3.713-17.551
		c0.226-1.068-0.457-2.119-1.525-2.344c-1.068-0.226-2.118,0.457-2.344,1.525l-2.938,13.886l-5.187-7.516l2.146-10.144
		c0.226-1.068-0.457-2.119-1.525-2.344c-1.068-0.226-2.118,0.457-2.344,1.525l-1.371,6.48l-5.103-7.395
		c-0.62-0.899-1.852-1.125-2.751-0.504c-0.899,0.62-1.125,1.852-0.504,2.751l5.022,7.278l-6.132-1.092
		c-1.075-0.191-2.102,0.525-2.294,1.6c-0.158,0.886,0.301,1.74,1.07,2.12c0.164,0.081,0.341,0.14,0.53,0.174l9.986,1.778
		l5.253,7.612l-13.746-2.448c-1.075-0.191-2.102,0.525-2.294,1.6c-0.158,0.887,0.301,1.74,1.07,2.12
		c0.164,0.081,0.341,0.14,0.53,0.174l17.599,3.134l5.242,7.596l-9.284-4.584c-0.979-0.484-2.165-0.082-2.649,0.898
		c-0.483,0.979-0.082,2.165,0.898,2.649l10.54,5.204l-10.96,0.543l-12.966-12.399c-0.789-0.755-2.041-0.727-2.796,0.063
		c-0.755,0.789-0.727,2.041,0.063,2.796l10.258,9.81l-9.121,0.452l-7.494-7.166c-0.789-0.755-2.041-0.727-2.796,0.063
		c-0.755,0.789-0.727,2.041,0.063,2.796l4.787,4.577l-9.042,0.448c-1.091,0.054-1.931,0.982-1.877,2.073
		c0.037,0.743,0.478,1.369,1.101,1.677c0.292,0.144,0.624,0.218,0.972,0.201l8.899-0.441l-4.157,4.638
		c-0.729,0.813-0.661,2.063,0.153,2.792c0.137,0.123,0.287,0.224,0.445,0.302c0.776,0.383,1.742,0.222,2.347-0.454l6.77-7.553
		l9.238-0.457l-9.319,10.397c-0.729,0.813-0.661,2.063,0.153,2.792c0.137,0.123,0.287,0.224,0.445,0.302
		c0.776,0.383,1.742,0.222,2.347-0.454l11.932-13.312l10.069-0.499l-9.121,5.992c-0.913,0.6-1.167,1.826-0.567,2.738
		c0.2,0.305,0.47,0.536,0.775,0.687c0.608,0.3,1.355,0.28,1.963-0.12l9.6-6.307l-4.759,9.639l-17.14,5.295
		c-1.044,0.323-1.628,1.43-1.306,2.473c0.167,0.54,0.544,0.957,1.014,1.189c0.438,0.216,0.956,0.272,1.459,0.116l13.561-4.189
		l-4.043,8.188l-9.907,3.06c-1.043,0.322-1.628,1.43-1.306,2.473c0.167,0.54,0.544,0.957,1.014,1.19
		c0.438,0.216,0.956,0.272,1.459,0.116l6.328-1.955l-4.008,8.117c-0.483,0.979-0.082,2.165,0.898,2.649s2.165,0.082,2.649-0.898
		l3.944-7.989l2.029,5.888c0.356,1.033,1.481,1.581,2.514,1.225c1.033-0.356,1.581-1.481,1.225-2.514l-3.305-9.589l4.095-8.293
		l4.549,13.2c0.356,1.032,1.481,1.581,2.514,1.225c1.032-0.356,1.581-1.481,1.225-2.514l-5.825-16.901l4.667-9.452l0.829,11.456
		c0.053,0.725,0.49,1.331,1.098,1.631c0.305,0.151,0.653,0.224,1.017,0.198c1.089-0.079,1.908-1.026,1.83-2.115l-0.775-10.712
		l5.552,8.045l-3.315,17.566c-0.168,0.892,0.291,1.757,1.066,2.14c0.158,0.078,0.329,0.136,0.51,0.17
		c1.073,0.202,2.107-0.503,2.31-1.576l2.589-13.72l5.253,7.612l-1.881,9.967c-0.168,0.892,0.291,1.757,1.066,2.14
		c0.158,0.078,0.329,0.136,0.51,0.17c1.073,0.203,2.107-0.503,2.31-1.576l1.155-6.12l5.06,7.333c0.198,0.287,0.458,0.505,0.75,0.65
		c0.622,0.307,1.389,0.277,2-0.145C109.458,351.358,109.684,350.127,109.064,349.228z"/>
</g>
<g>
	<path class="st1" d="M460.224,336.079l-8.897-1.67l5.363-3.886c0.884-0.641,1.082-1.877,0.441-2.761
		c-0.641-0.884-1.877-1.082-2.761-0.441l-8.397,6.084l-8.975-1.684l11.494-8.328c0.884-0.641,1.082-1.877,0.441-2.761
		c-0.641-0.884-1.877-1.082-2.761-0.441l-14.527,10.526l-10.785-2.024l11.319-3.784c1.036-0.346,1.595-1.467,1.249-2.502
		c-0.346-1.036-1.467-1.595-2.502-1.249l-9.991,3.34l6.224-6.815l17.862-0.718c0.191-0.008,0.375-0.042,0.549-0.1
		c0.813-0.272,1.384-1.055,1.348-1.955c-0.044-1.091-0.964-1.94-2.055-1.896l-13.951,0.561l6.237-6.83l10.134-0.408
		c0.191-0.008,0.375-0.042,0.548-0.1c0.813-0.272,1.384-1.055,1.348-1.955c-0.044-1.091-0.964-1.94-2.055-1.896l-6.223,0.25
		l5.963-6.529c0.737-0.806,0.68-2.057-0.127-2.794c-0.807-0.737-2.057-0.68-2.794,0.127l-6.059,6.635l-0.479-6.606
		c-0.079-1.089-1.026-1.908-2.115-1.829c-1.089,0.078-1.908,1.026-1.829,2.115l0.751,10.342l-6.158,6.743l-1.027-14.157
		c-0.079-1.089-1.026-1.908-2.115-1.829c-1.089,0.078-1.908,1.026-1.829,2.115l1.299,17.893l-7.303,7.997l2.499-11.823
		c0.226-1.069-0.457-2.118-1.526-2.344c-1.069-0.227-2.118,0.457-2.344,1.526l-2.375,11.238l-3.213-9.613l8.063-15.955
		c0.493-0.975,0.102-2.164-0.873-2.657c-0.975-0.492-2.164-0.102-2.657,0.873l-6.297,12.461l-2.932-8.772l4.575-9.052
		c0.493-0.975,0.102-2.164-0.873-2.657c-0.975-0.492-2.164-0.102-2.657,0.873l-2.809,5.559l-2.803-8.386
		c-0.346-1.036-1.467-1.595-2.502-1.249s-1.595,1.467-1.249,2.502l2.849,8.521l-6.004-2.795c-0.99-0.461-2.166-0.032-2.627,0.958
		c-0.461,0.99-0.032,2.166,0.958,2.627l9.4,4.376l2.895,8.661l-12.868-5.99c-0.99-0.461-2.166-0.032-2.627,0.958
		c-0.461,0.99-0.032,2.166,0.958,2.627l16.264,7.571l3.279,9.81l-8.656-7.55c-0.823-0.718-2.072-0.633-2.79,0.19
		c-0.718,0.823-0.633,2.072,0.19,2.79l9.237,8.057l-10.945-2.054l-9.723-15.077c-0.592-0.918-1.817-1.183-2.734-0.59
		c-0.918,0.592-1.182,1.816-0.59,2.734l7.692,11.929l-8.975-1.684l-5.619-8.714c-0.592-0.918-1.817-1.183-2.734-0.59
		c-0.918,0.592-1.182,1.816-0.59,2.734l3.589,5.566l-8.831-1.657c-1.074-0.202-2.107,0.505-2.308,1.579
		c-0.201,1.073,0.505,2.107,1.579,2.308l8.69,1.631l-5.123,3.542c-0.898,0.621-1.123,1.853-0.502,2.751
		c0.512,0.741,1.439,1.023,2.253,0.751c0.173-0.058,0.341-0.141,0.498-0.25l8.342-5.769l9.09,1.706l-11.483,7.941
		c-0.898,0.621-1.123,1.853-0.502,2.751c0.512,0.741,1.439,1.023,2.253,0.751c0.173-0.058,0.341-0.141,0.499-0.25l14.703-10.168
		l9.071,1.702l-9.82,3.283c-1.036,0.346-1.595,1.467-1.249,2.502s1.467,1.595,2.502,1.249l11.148-3.727l-7.4,8.103l-17.937,0.326
		c-1.092,0.02-1.961,0.921-1.941,2.013c0.02,1.092,0.921,1.961,2.013,1.941l14.191-0.258l-6.158,6.743l-10.367,0.189
		c-1.092,0.02-1.961,0.921-1.941,2.013c0.02,1.092,0.921,1.961,2.013,1.941l6.622-0.121l-6.105,6.685
		c-0.737,0.806-0.68,2.057,0.127,2.794c0.549,0.501,1.304,0.635,1.962,0.415c0.309-0.103,0.596-0.284,0.831-0.542l6.008-6.579
		l0.314,6.22c0.055,1.091,0.984,1.93,2.075,1.875c0.184-0.009,0.362-0.043,0.528-0.099c0.821-0.274,1.393-1.069,1.347-1.975
		l-0.512-10.13l6.237-6.83l0.704,13.944c0.055,1.091,0.984,1.93,2.075,1.875c0.184-0.009,0.362-0.043,0.528-0.099
		c0.821-0.274,1.393-1.069,1.347-1.975l-0.902-17.854l6.798-7.444l-2.257,10.677c-0.226,1.069,0.457,2.118,1.526,2.344
		c0.357,0.076,0.712,0.05,1.034-0.058c0.643-0.215,1.159-0.756,1.309-1.467l2.375-11.238l3.408,10.195l-8.442,15.829
		c-0.514,0.964-0.149,2.162,0.814,2.676c0.499,0.266,1.061,0.297,1.558,0.13c0.463-0.155,0.87-0.48,1.118-0.945l6.679-12.524
		l2.895,8.661l-4.879,9.149c-0.514,0.964-0.149,2.162,0.814,2.676c0.499,0.266,1.061,0.297,1.558,0.13
		c0.463-0.155,0.87-0.48,1.118-0.945l3.116-5.844l2.87,8.585c0.346,1.036,1.467,1.595,2.502,1.249
		c1.036-0.346,1.595-1.467,1.249-2.502l-2.825-8.45l5.587,2.752c0.98,0.483,2.165,0.079,2.648-0.9c0.483-0.98,0.079-2.165-0.9-2.648
		l-9.099-4.481l-2.932-8.772l12.525,6.169c0.98,0.483,2.165,0.08,2.648-0.9c0.483-0.98,0.08-2.165-0.9-2.648l-16.037-7.899
		l-3.342-9.997l8.656,7.55c0.548,0.478,1.285,0.6,1.929,0.385c0.323-0.108,0.622-0.3,0.861-0.575c0.718-0.823,0.633-2.072-0.19-2.79
		l-8.094-7.06l9.607,1.803l10.016,14.807c0.508,0.752,1.443,1.043,2.264,0.768c0.167-0.056,0.329-0.135,0.482-0.238
		c0.905-0.612,1.142-1.841,0.53-2.746l-7.823-11.564l9.09,1.706l5.683,8.401c0.508,0.752,1.443,1.043,2.264,0.768
		c0.167-0.056,0.329-0.135,0.482-0.238c0.905-0.612,1.142-1.841,0.53-2.746l-3.49-5.159l8.757,1.643
		c0.343,0.064,0.681,0.036,0.99-0.067c0.658-0.22,1.181-0.781,1.318-1.512C462.004,337.314,461.298,336.28,460.224,336.079z"/>
</g>
<g>
	<path class="st1" d="M192.432,438.957l-7.014-1.316l4.228-3.064c0.697-0.505,0.853-1.48,0.348-2.177
		c-0.505-0.697-1.48-0.853-2.177-0.348l-6.62,4.796l-7.076-1.328l9.062-6.566c0.697-0.505,0.853-1.48,0.348-2.177
		c-0.505-0.697-1.48-0.853-2.177-0.348l-11.453,8.298l-8.503-1.596l8.924-2.983c0.817-0.273,1.257-1.156,0.984-1.973
		c-0.273-0.817-1.156-1.257-1.973-0.984l-7.877,2.633l4.907-5.373l14.082-0.566c0.151-0.006,0.296-0.033,0.432-0.079
		c0.641-0.214,1.091-0.832,1.063-1.541c-0.035-0.86-0.76-1.53-1.62-1.495l-10.998,0.442l4.917-5.384l7.99-0.321
		c0.151-0.006,0.296-0.033,0.432-0.079c0.641-0.214,1.091-0.832,1.063-1.541c-0.035-0.86-0.76-1.53-1.62-1.495l-4.906,0.197
		l4.701-5.148c0.581-0.636,0.536-1.622-0.1-2.202c-0.636-0.581-1.622-0.536-2.203,0.1l-4.777,5.231l-0.378-5.208
		c-0.062-0.859-0.809-1.504-1.668-1.442c-0.859,0.062-1.504,0.809-1.442,1.668l0.592,8.153l-4.855,5.316l-0.81-11.161
		c-0.062-0.859-0.809-1.504-1.668-1.442c-0.859,0.062-1.504,0.809-1.442,1.668l1.024,14.106l-5.757,6.304l1.97-9.321
		c0.178-0.842-0.361-1.67-1.203-1.848c-0.843-0.179-1.67,0.36-1.848,1.203l-1.873,8.86l-2.533-7.578l6.357-12.578
		c0.388-0.769,0.08-1.706-0.688-2.095c-0.769-0.388-1.706-0.08-2.095,0.688l-4.965,9.824l-2.312-6.916l3.607-7.137
		c0.388-0.769,0.08-1.706-0.688-2.095c-0.769-0.388-1.706-0.08-2.095,0.688l-2.215,4.382l-2.21-6.611
		c-0.273-0.817-1.156-1.257-1.973-0.984c-0.817,0.273-1.257,1.156-0.984,1.973l2.246,6.718l-4.734-2.203
		c-0.781-0.363-1.708-0.025-2.071,0.755c-0.363,0.781-0.025,1.708,0.755,2.071l7.411,3.45l2.283,6.828l-10.145-4.722
		c-0.78-0.364-1.708-0.025-2.071,0.755c-0.363,0.781-0.025,1.708,0.755,2.071l12.822,5.969l2.585,7.734l-6.824-5.952
		c-0.649-0.566-1.634-0.499-2.2,0.15c-0.566,0.649-0.499,1.634,0.15,2.2l7.282,6.352l-8.629-1.619l-7.665-11.886
		c-0.467-0.724-1.432-0.933-2.155-0.465c-0.724,0.467-0.932,1.432-0.465,2.155l6.065,9.404l-7.076-1.328l-4.43-6.87
		c-0.467-0.724-1.432-0.932-2.155-0.465c-0.724,0.467-0.932,1.432-0.465,2.155l2.83,4.388l-6.962-1.307
		c-0.847-0.159-1.661,0.398-1.82,1.245c-0.159,0.846,0.398,1.661,1.245,1.82l6.851,1.286l-4.039,2.793
		c-0.708,0.49-0.885,1.461-0.396,2.169c0.404,0.584,1.135,0.807,1.776,0.592c0.136-0.046,0.269-0.111,0.393-0.197l6.577-4.548
		l7.167,1.345l-9.053,6.261c-0.708,0.49-0.885,1.461-0.396,2.169c0.404,0.584,1.135,0.807,1.776,0.592
		c0.136-0.046,0.269-0.111,0.393-0.197l11.592-8.016l7.151,1.342l-7.742,2.588c-0.817,0.273-1.257,1.156-0.984,1.973
		c0.273,0.817,1.156,1.257,1.973,0.984l8.789-2.938l-5.834,6.388l-14.141,0.257c-0.861,0.016-1.546,0.726-1.53,1.587
		c0.016,0.861,0.726,1.546,1.587,1.53l11.188-0.204l-4.855,5.316l-8.173,0.149c-0.861,0.016-1.546,0.726-1.53,1.587
		c0.016,0.861,0.726,1.546,1.587,1.53l5.221-0.095l-4.813,5.27c-0.581,0.636-0.536,1.622,0.1,2.202
		c0.433,0.395,1.028,0.501,1.547,0.327c0.243-0.081,0.47-0.224,0.655-0.427l4.737-5.187l0.248,4.904
		c0.043,0.86,0.776,1.522,1.636,1.478c0.145-0.007,0.285-0.034,0.417-0.078c0.647-0.216,1.098-0.843,1.062-1.557l-0.403-7.986
		l4.917-5.384l0.555,10.993c0.043,0.86,0.776,1.522,1.636,1.478c0.145-0.007,0.285-0.034,0.417-0.078
		c0.647-0.216,1.098-0.843,1.062-1.557l-0.711-14.076l5.359-5.869l-1.779,8.418c-0.178,0.842,0.361,1.67,1.203,1.848
		c0.281,0.06,0.561,0.039,0.815-0.046c0.507-0.17,0.914-0.596,1.032-1.157l1.873-8.86l2.687,8.038l-6.655,12.479
		c-0.405,0.76-0.118,1.704,0.642,2.109c0.393,0.21,0.836,0.234,1.228,0.103c0.365-0.122,0.686-0.379,0.881-0.745l5.266-9.874
		l2.282,6.828l-3.847,7.213c-0.405,0.76-0.118,1.704,0.642,2.109c0.393,0.21,0.836,0.234,1.228,0.103
		c0.365-0.122,0.686-0.379,0.881-0.745l2.457-4.607l2.263,6.768c0.273,0.817,1.156,1.257,1.973,0.984
		c0.817-0.273,1.257-1.156,0.984-1.973l-2.227-6.662l4.405,2.169c0.772,0.381,1.707,0.063,2.087-0.71
		c0.38-0.772,0.063-1.707-0.71-2.087l-7.173-3.533l-2.312-6.916l9.875,4.864c0.772,0.38,1.707,0.063,2.087-0.71
		c0.38-0.772,0.063-1.707-0.71-2.087l-12.643-6.227l-2.635-7.882l6.824,5.953c0.432,0.377,1.013,0.473,1.521,0.303
		c0.254-0.085,0.49-0.237,0.679-0.454c0.566-0.649,0.499-1.634-0.15-2.2l-6.381-5.566l7.574,1.421l7.897,11.673
		c0.401,0.593,1.138,0.822,1.785,0.606c0.132-0.044,0.259-0.106,0.38-0.188c0.713-0.482,0.9-1.452,0.418-2.165l-6.167-9.117
		l7.167,1.345l4.48,6.623c0.401,0.593,1.138,0.822,1.785,0.606c0.132-0.044,0.259-0.106,0.38-0.188
		c0.713-0.482,0.9-1.452,0.418-2.165l-2.751-4.067l6.904,1.296c0.27,0.051,0.537,0.028,0.781-0.053
		c0.519-0.174,0.931-0.616,1.039-1.192C193.836,439.93,193.278,439.115,192.432,438.957z"/>
</g>
<g>
	<path class="st1" d="M311.128,365.753l-7.014-1.316l4.228-3.064c0.697-0.505,0.853-1.48,0.348-2.177
		c-0.505-0.697-1.48-0.853-2.177-0.348l-6.62,4.796l-7.076-1.328l9.062-6.566c0.697-0.505,0.853-1.48,0.348-2.177
		c-0.505-0.697-1.48-0.853-2.177-0.348l-11.453,8.298l-8.503-1.596l8.924-2.983c0.817-0.273,1.257-1.156,0.984-1.973
		c-0.273-0.817-1.156-1.257-1.973-0.984l-7.877,2.633l4.907-5.373l14.082-0.566c0.151-0.006,0.296-0.033,0.432-0.079
		c0.641-0.214,1.091-0.832,1.063-1.541c-0.035-0.86-0.76-1.53-1.62-1.495l-10.998,0.442l4.917-5.384l7.99-0.321
		c0.151-0.006,0.296-0.033,0.432-0.079c0.641-0.214,1.091-0.832,1.063-1.541c-0.035-0.86-0.76-1.53-1.62-1.495l-4.906,0.197
		l4.701-5.148c0.581-0.636,0.536-1.622-0.1-2.202c-0.636-0.581-1.622-0.536-2.202,0.1l-4.777,5.231l-0.378-5.208
		c-0.062-0.859-0.809-1.504-1.668-1.442c-0.859,0.062-1.504,0.809-1.442,1.668l0.592,8.153l-4.855,5.316l-0.81-11.161
		c-0.062-0.859-0.809-1.504-1.668-1.442c-0.859,0.062-1.504,0.809-1.442,1.668l1.024,14.106l-5.757,6.304l1.97-9.321
		c0.178-0.842-0.361-1.67-1.203-1.848c-0.842-0.179-1.67,0.36-1.848,1.203l-1.873,8.86l-2.533-7.578l6.357-12.578
		c0.388-0.769,0.08-1.706-0.688-2.095c-0.769-0.388-1.706-0.08-2.095,0.688l-4.965,9.824l-2.312-6.916l3.607-7.137
		c0.388-0.769,0.08-1.706-0.688-2.095c-0.769-0.388-1.706-0.08-2.095,0.688l-2.215,4.382l-2.21-6.611
		c-0.273-0.817-1.156-1.257-1.973-0.984c-0.817,0.273-1.257,1.156-0.984,1.973l2.246,6.718l-4.734-2.203
		c-0.781-0.363-1.708-0.025-2.071,0.755c-0.363,0.781-0.025,1.708,0.755,2.071l7.411,3.45l2.283,6.828l-10.145-4.722
		c-0.78-0.364-1.708-0.025-2.071,0.755c-0.363,0.781-0.025,1.708,0.755,2.071l12.822,5.969l2.585,7.734l-6.824-5.952
		c-0.649-0.566-1.634-0.499-2.2,0.15c-0.566,0.649-0.499,1.634,0.15,2.2l7.282,6.352l-8.629-1.619l-7.665-11.886
		c-0.467-0.724-1.432-0.933-2.155-0.465c-0.724,0.467-0.932,1.432-0.465,2.155l6.065,9.404l-7.076-1.328l-4.43-6.87
		c-0.467-0.724-1.432-0.932-2.155-0.465c-0.724,0.467-0.932,1.432-0.465,2.155l2.83,4.388l-6.962-1.307
		c-0.847-0.159-1.661,0.398-1.82,1.245c-0.159,0.846,0.398,1.661,1.245,1.82l6.851,1.286l-4.039,2.793
		c-0.708,0.49-0.885,1.461-0.396,2.169c0.404,0.584,1.135,0.807,1.776,0.592c0.136-0.046,0.269-0.111,0.393-0.197l6.577-4.548
		l7.167,1.345l-9.053,6.261c-0.708,0.49-0.885,1.461-0.396,2.169c0.404,0.584,1.135,0.807,1.776,0.592
		c0.136-0.046,0.269-0.111,0.393-0.197l11.592-8.016l7.151,1.342l-7.742,2.588c-0.817,0.273-1.257,1.156-0.984,1.973
		s1.156,1.257,1.973,0.984l8.789-2.938l-5.834,6.388l-14.141,0.257c-0.861,0.016-1.546,0.726-1.53,1.587
		c0.016,0.861,0.726,1.546,1.587,1.53l11.188-0.204l-4.855,5.316l-8.173,0.149c-0.861,0.016-1.546,0.726-1.53,1.587
		c0.016,0.861,0.726,1.546,1.587,1.53l5.221-0.095l-4.813,5.27c-0.581,0.636-0.536,1.622,0.1,2.202
		c0.433,0.395,1.028,0.501,1.547,0.327c0.243-0.081,0.47-0.224,0.655-0.427l4.737-5.187l0.248,4.904
		c0.043,0.86,0.776,1.522,1.636,1.478c0.145-0.007,0.285-0.034,0.417-0.078c0.647-0.216,1.098-0.843,1.062-1.557l-0.403-7.986
		l4.917-5.384l0.555,10.993c0.043,0.86,0.776,1.522,1.636,1.478c0.145-0.007,0.285-0.034,0.417-0.078
		c0.647-0.216,1.098-0.843,1.062-1.557l-0.711-14.076l5.359-5.869l-1.779,8.418c-0.178,0.842,0.361,1.67,1.203,1.848
		c0.281,0.06,0.561,0.039,0.815-0.046c0.507-0.17,0.914-0.596,1.032-1.157l1.873-8.86l2.687,8.038l-6.655,12.479
		c-0.405,0.76-0.118,1.704,0.642,2.109c0.393,0.21,0.836,0.234,1.228,0.103c0.365-0.122,0.686-0.379,0.881-0.745l5.266-9.874
		l2.282,6.828l-3.847,7.213c-0.405,0.76-0.118,1.704,0.642,2.109c0.393,0.21,0.836,0.234,1.228,0.103
		c0.365-0.122,0.686-0.379,0.881-0.745l2.457-4.607l2.263,6.768c0.273,0.817,1.156,1.257,1.973,0.984s1.257-1.156,0.984-1.973
		l-2.227-6.662l4.405,2.169c0.772,0.381,1.707,0.063,2.087-0.71c0.38-0.772,0.063-1.707-0.71-2.087l-7.173-3.533l-2.312-6.916
		l9.875,4.864c0.772,0.38,1.707,0.063,2.087-0.71c0.38-0.772,0.063-1.707-0.71-2.087l-12.643-6.227l-2.635-7.882l6.824,5.953
		c0.432,0.377,1.013,0.473,1.521,0.303c0.254-0.085,0.49-0.237,0.679-0.454c0.566-0.649,0.499-1.634-0.15-2.2l-6.381-5.566
		l7.574,1.421l7.897,11.673c0.401,0.593,1.138,0.822,1.785,0.606c0.132-0.044,0.259-0.106,0.38-0.188
		c0.713-0.482,0.9-1.452,0.418-2.165l-6.167-9.117l7.167,1.345l4.48,6.623c0.401,0.593,1.138,0.822,1.785,0.606
		c0.132-0.044,0.259-0.106,0.38-0.188c0.713-0.482,0.9-1.452,0.418-2.165l-2.751-4.067l6.904,1.296
		c0.27,0.051,0.537,0.028,0.781-0.053c0.519-0.174,0.931-0.616,1.039-1.192C312.532,366.727,311.974,365.912,311.128,365.753z"/>
</g>
<g>
	<path class="st1" d="M364.028,491.24l-2.7-4.624l3.815,0.892c0.629,0.147,1.258-0.243,1.405-0.872
		c0.147-0.629-0.243-1.258-0.872-1.405l-5.972-1.397l-2.724-4.665l8.175,1.912c0.629,0.147,1.258-0.243,1.405-0.872
		c0.147-0.629-0.244-1.258-0.872-1.405l-10.332-2.417l-3.273-5.605l6.076,3.594c0.556,0.329,1.273,0.145,1.602-0.411
		c0.329-0.556,0.145-1.273-0.411-1.602l-5.363-3.173l5.457,0.142l7.24,7.706c0.078,0.083,0.164,0.152,0.257,0.206
		c0.436,0.258,1.008,0.21,1.396-0.155c0.471-0.442,0.494-1.183,0.052-1.653l-5.654-6.019l5.469,0.143l4.108,4.372
		c0.078,0.083,0.164,0.151,0.257,0.206c0.437,0.258,1.008,0.21,1.396-0.155c0.471-0.442,0.494-1.183,0.052-1.653l-2.522-2.685
		l5.228,0.136c0.646,0.017,1.183-0.493,1.2-1.139c0.017-0.646-0.493-1.183-1.139-1.2l-5.313-0.139l2.767-2.773
		c0.456-0.457,0.456-1.198-0.002-1.654c-0.457-0.456-1.198-0.456-1.654,0.002l-4.332,4.341l-5.4-0.141l5.93-5.943
		c0.456-0.457,0.456-1.198-0.002-1.654c-0.457-0.457-1.198-0.456-1.654,0.002l-7.495,7.511l-6.403-0.167l6.253-3.462
		c0.565-0.313,0.77-1.025,0.457-1.59c-0.313-0.565-1.025-0.77-1.59-0.457l-5.944,3.291l3.052-5.16l10.255-2.576
		c0.627-0.157,1.007-0.793,0.85-1.419c-0.157-0.627-0.793-1.007-1.419-0.849l-8.009,2.012l2.785-4.708l5.819-1.461
		c0.627-0.157,1.007-0.793,0.85-1.419c-0.157-0.627-0.793-1.007-1.419-0.849l-3.573,0.897l2.663-4.501
		c0.329-0.556,0.145-1.273-0.411-1.602c-0.556-0.329-1.273-0.145-1.602,0.411l-2.706,4.574l-1.076-3.767
		c-0.177-0.621-0.825-0.981-1.446-0.803c-0.621,0.177-0.981,0.825-0.803,1.446l1.685,5.897l-2.75,4.649l-2.307-8.072
		c-0.177-0.621-0.825-0.981-1.446-0.803c-0.621,0.177-0.981,0.825-0.803,1.446l2.915,10.203l-3.115,5.266l0.022-6.794
		c0.002-0.646-0.52-1.172-1.166-1.173c-0.646-0.002-1.171,0.52-1.174,1.166l-0.024,7.25l-3.321-5.688l2.974-10.186
		c0.181-0.62-0.175-1.27-0.795-1.451c-0.62-0.181-1.27,0.175-1.451,0.795l-2.353,8.059l-2.724-4.665l1.719-5.887
		c0.181-0.62-0.175-1.27-0.795-1.451c-0.62-0.181-1.27,0.175-1.451,0.795l-1.098,3.76l-2.68-4.589
		c-0.326-0.558-1.042-0.746-1.6-0.42c-0.558,0.326-0.746,1.042-0.42,1.6l2.637,4.517l-3.568-0.918
		c-0.626-0.161-1.263,0.216-1.424,0.841c-0.133,0.516,0.1,1.04,0.537,1.298c0.093,0.055,0.195,0.098,0.305,0.126l5.81,1.495
		l2.758,4.724l-7.998-2.057c-0.626-0.161-1.263,0.216-1.424,0.841c-0.133,0.516,0.1,1.04,0.537,1.298
		c0.093,0.055,0.195,0.098,0.305,0.126l10.24,2.634l2.752,4.714l-5.271-3.118c-0.556-0.329-1.273-0.145-1.602,0.411
		c-0.329,0.556-0.145,1.273,0.411,1.602l5.984,3.54l-6.488-0.169l-7.093-7.892c-0.432-0.48-1.171-0.52-1.652-0.088
		c-0.48,0.432-0.52,1.171-0.088,1.652l5.612,6.244l-5.4-0.141l-4.1-4.561c-0.432-0.481-1.171-0.52-1.652-0.088
		c-0.48,0.432-0.52,1.171-0.088,1.652l2.619,2.913l-5.353-0.14c-0.646-0.017-1.183,0.493-1.2,1.139
		c-0.011,0.44,0.221,0.829,0.575,1.038c0.166,0.098,0.358,0.156,0.564,0.162l5.268,0.137l-2.659,2.55
		c-0.466,0.447-0.482,1.187-0.035,1.654c0.076,0.079,0.159,0.145,0.249,0.198c0.44,0.261,1.017,0.208,1.405-0.163l4.33-4.152
		l5.469,0.143l-5.961,5.716c-0.466,0.447-0.482,1.187-0.035,1.654c0.076,0.079,0.159,0.145,0.249,0.198
		c0.44,0.261,1.017,0.208,1.405-0.163l7.632-7.318l5.961,0.156l-5.647,3.127c-0.565,0.313-0.77,1.025-0.457,1.59
		c0.104,0.189,0.253,0.337,0.427,0.44c0.345,0.204,0.787,0.225,1.163,0.017l5.943-3.291l-3.237,5.473l-10.346,2.358
		c-0.63,0.144-1.024,0.771-0.881,1.4c0.074,0.326,0.278,0.589,0.545,0.747c0.248,0.147,0.552,0.203,0.855,0.134l8.185-1.865
		l-2.75,4.649l-5.98,1.363c-0.63,0.144-1.024,0.771-0.881,1.4c0.074,0.326,0.278,0.589,0.545,0.747
		c0.248,0.147,0.552,0.203,0.855,0.134l3.819-0.87l-2.726,4.608c-0.329,0.556-0.145,1.273,0.411,1.602
		c0.556,0.329,1.273,0.145,1.602-0.411l2.683-4.536l0.934,3.563c0.164,0.625,0.803,0.999,1.428,0.835
		c0.625-0.164,0.999-0.803,0.835-1.428l-1.521-5.803l2.785-4.708l2.094,7.988c0.164,0.625,0.803,0.999,1.428,0.835
		c0.625-0.164,0.999-0.803,0.835-1.428l-2.681-10.228l3.175-5.366l-0.022,6.794c-0.001,0.43,0.23,0.807,0.575,1.011
		c0.173,0.102,0.375,0.162,0.591,0.162c0.646,0.002,1.171-0.52,1.174-1.166l0.021-6.353l2.915,4.993l-2.739,10.213
		c-0.139,0.518,0.093,1.049,0.533,1.31c0.09,0.053,0.188,0.095,0.293,0.123c0.624,0.167,1.265-0.203,1.433-0.827l2.14-7.976
		l2.758,4.724l-1.554,5.794c-0.139,0.518,0.093,1.049,0.533,1.31c0.09,0.053,0.188,0.095,0.293,0.123
		c0.624,0.167,1.265-0.203,1.433-0.827l0.954-3.558l2.657,4.551c0.104,0.178,0.248,0.319,0.413,0.417
		c0.353,0.209,0.807,0.226,1.186,0.004C364.166,492.514,364.354,491.798,364.028,491.24z"/>
</g>
</svg>
