<svg xmlns="http://www.w3.org/2000/svg" xmlns:xlink="http://www.w3.org/1999/xlink" viewBox="0 0 738.65 467.12"><defs><linearGradient id="a" x1="246.94" y1="361.4" x2="492.13" y2="361.4" gradientUnits="userSpaceOnUse"><stop offset="0"/><stop offset="1"/></linearGradient><linearGradient id="b" x1="106.79" y1="305.21" x2="140.15" y2="305.21" xlink:href="#a"/><linearGradient id="c" x1="109.8" y1="381.79" x2="152.41" y2="381.79" xlink:href="#a"/><linearGradient id="d" x1="111.88" y1="407.12" x2="172" y2="407.12" xlink:href="#a"/><linearGradient id="e" x1="251.59" y1="399.34" x2="305.55" y2="399.34" xlink:href="#a"/><linearGradient id="f" x1="252.95" y1="435.86" x2="321.88" y2="435.86" xlink:href="#a"/><linearGradient id="g" x1="256.31" y1="476.83" x2="353.56" y2="476.83" xlink:href="#a"/><linearGradient id="h" x1="479.46" y1="309.43" x2="517.21" y2="309.43" xlink:href="#a"/><linearGradient id="i" x1="482.12" y1="377.46" x2="530.34" y2="377.46" xlink:href="#a"/><linearGradient id="j" x1="484.47" y1="406.13" x2="552.51" y2="406.13" xlink:href="#a"/><linearGradient id="k" x1="623.79" y1="397.32" x2="676.54" y2="397.32" xlink:href="#a"/><linearGradient id="l" x1="625.24" y1="436.18" x2="692.63" y2="436.18" xlink:href="#a"/><linearGradient id="m" x1="628.52" y1="476.24" x2="723.6" y2="476.24" xlink:href="#a"/><linearGradient id="n" x1="95.86" y1="280.36" x2="278.76" y2="280.36" xlink:href="#a"/><linearGradient id="o" x1="424.13" y1="205.28" x2="680.89" y2="205.28" xlink:href="#a"/><linearGradient id="p" x1="930.17" y1="267.76" x2="979.83" y2="267.76" gradientTransform="matrix(0.43, 0.5, -0.48, 0.41, -24.16, -189.62)" gradientUnits="userSpaceOnUse"><stop offset="0.01" stop-color="#fff"/><stop offset="1" stop-color="#fff"/></linearGradient><linearGradient id="q" x1="750.65" y1="402.9" x2="779.27" y2="402.9" xlink:href="#p"/><linearGradient id="r" x1="1107.6" y1="-54.55" x2="1136.18" y2="-54.55" xlink:href="#p"/><linearGradient id="s" x1="1302.97" y1="-180.87" x2="1348.11" y2="-180.87" xlink:href="#p"/></defs><polygon points="0 467.12 246.94 426.63 246.94 258.81 38.2 289.64 0 467.12" fill="#f8f8f8"/><polygon points="492.13 464 246.94 426.63 246.94 258.81 463.96 290.87 492.13 464" fill="#f8f8f8"/><polygon points="463.96 290.87 660.28 263.41 738.65 427.53 492.13 464 463.96 290.87" fill="#f8f8f8"/><polygon points="43.58 322.92 43.58 322.92 26.91 401.13 181.63 343.7 43.58 322.92" fill="#a5dd1b"/><polygon points="49.11 297 45.56 313.63 246.94 344.08 246.94 266.62 49.11 297" fill="#05a9e9"/><polygon points="326.7 391.56 402.97 436.23 489.47 447.63 473.58 348.59 326.7 391.56" fill="#05a9e9"/><polygon points="349.11 341.43 308.22 315.65 308.22 275.46 308.22 275.46 246.94 266.62 246.94 344.08 318.74 386.83 349.11 341.43" fill="#05a9e9"/><polygon points="246.94 353.53 246.94 411.9 372.31 432.41 246.94 353.53" fill="#a5dd1b"/><polygon points="546.92 315.65 673.56 317.19 652.65 272.51 535.22 288.54 546.92 315.65" fill="#a5dd1b"/><polygon points="560.58 361.19 548.61 440.14 720.35 417.15 703.87 381.94 560.58 361.19" fill="#a5dd1b"/><polygon points="472.09 340.81 699.9 373.47 678 326.67 537.37 322.92 523.16 290.19 465.2 298.1 472.09 340.81" fill="#fd8e77"/><polygon points="473.51 348.58 489.47 447.63 528.02 442.36 541.18 358.38 473.58 348.59 473.51 348.58" fill="#05a9e9"/><polygon points="430.01 293.02 327.04 278.17 326.23 313.76 356.13 332.75 430.01 293.02" fill="#a5dd1b"/><polygon points="465.2 298.1 442.01 294.76 442.01 294.76 363.71 337.56 338.42 377.57 472.09 340.81 465.2 298.1" fill="#fd8e77"/><polygon points="202.89 346.9 168.26 360 203.3 419.23 246.94 411.9 246.94 353.53 202.89 346.9" fill="#a5dd1b"/><polygon points="158.39 363.74 24.04 414.56 16.35 450.65 191.71 421.18 158.39 363.74" fill="#fd8e77"/><polygon points="246.94 258.81 246.94 426.63 492.13 464 463.96 290.87 246.94 258.81" opacity="0.1" fill="url(#a)"/><ellipse cx="123.47" cy="305.21" rx="16.68" ry="5.37" opacity="0.1" fill="url(#b)"/><path d="M172,379.33c0,41.33-42.85,67.32-42.85,67.32s-42.85-26-42.85-67.32a42.85,42.85,0,0,1,85.7,0Z" transform="translate(-5.68 -141.44)" fill="#f9634e"/><circle cx="123.47" cy="237.89" r="23.26" fill="#f8f8f8"/><path d="M143.44,361a23.26,23.26,0,0,1-33.64,31.27A23.26,23.26,0,1,0,143.44,361Z" transform="translate(-5.68 -141.44)" opacity="0.1" fill="url(#c)"/><path d="M170.36,367.58a73.14,73.14,0,0,1-8,28.85c-11.25,22-31.33,35.65-50.45,36.34a107.23,107.23,0,0,0,17.27,13.88s42.85-26,42.85-67.32A42.59,42.59,0,0,0,170.36,367.58Z" transform="translate(-5.68 -141.44)" opacity="0.1" fill="url(#d)"/><ellipse cx="278.57" cy="399.34" rx="26.98" ry="8.69" opacity="0.1" fill="url(#e)"/><path d="M353.56,431.88c0,66.86-69.31,108.9-69.31,108.9s-69.31-42-69.31-108.9a69.31,69.31,0,0,1,138.62,0Z" transform="translate(-5.68 -141.44)" fill="#f9634e"/><circle cx="278.57" cy="290.44" r="37.63" fill="#f8f8f8"/><path d="M307.37,402.2A37.63,37.63,0,0,1,253,452.78a37.63,37.63,0,1,0,54.42-50.58Z" transform="translate(-5.68 -141.44)" opacity="0.1" fill="url(#f)"/><path d="M350.92,412.88a118.61,118.61,0,0,1-13,46.66c-18.2,35.64-50.67,57.67-81.61,58.79a173.66,173.66,0,0,0,27.94,22.45s69.31-42,69.31-108.9A69.26,69.26,0,0,0,350.92,412.88Z" transform="translate(-5.68 -141.44)" opacity="0.1" fill="url(#g)"/><ellipse cx="498.34" cy="309.43" rx="18.87" ry="6.08" opacity="0.1" fill="url(#h)"/><path d="M552.51,374.68c0,46.77-48.5,76.19-48.5,76.19s-48.49-29.42-48.49-76.19a48.5,48.5,0,1,1,97,0Z" transform="translate(-5.68 -141.44)" fill="#f9634e"/><circle cx="498.34" cy="233.24" r="26.33" fill="#f8f8f8"/><path d="M520.19,353.91a26.33,26.33,0,0,1-38.07,35.39,26.33,26.33,0,1,0,38.07-35.39Z" transform="translate(-5.68 -141.44)" opacity="0.1" fill="url(#i)"/><path d="M550.66,361.38A82.89,82.89,0,0,1,541.57,394c-12.74,24.94-35.46,40.35-57.1,41.13A121.72,121.72,0,0,0,504,450.87s48.5-29.42,48.5-76.19A48.23,48.23,0,0,0,550.66,361.38Z" transform="translate(-5.68 -141.44)" opacity="0.1" fill="url(#j)"/><ellipse cx="650.16" cy="397.32" rx="26.38" ry="8.5" opacity="0.1" fill="url(#k)"/><path d="M723.6,432.29c0,65.37-67.76,106.48-67.76,106.48s-67.77-41.11-67.77-106.48a67.77,67.77,0,0,1,135.53,0Z" transform="translate(-5.68 -141.44)" fill="#f9634e"/><circle cx="650.16" cy="290.85" r="36.79" fill="#f8f8f8"/><path d="M678.44,403.27a36.79,36.79,0,0,1-53.2,49.46,36.79,36.79,0,1,0,53.2-49.46Z" transform="translate(-5.68 -141.44)" opacity="0.1" fill="url(#l)"/><path d="M721,413.71a115.92,115.92,0,0,1-12.7,45.63c-17.8,34.84-49.55,56.37-79.8,57.47a170,170,0,0,0,27.32,22s67.76-41.11,67.76-106.48A67.84,67.84,0,0,0,721,413.71Z" transform="translate(-5.68 -141.44)" opacity="0.1" fill="url(#m)"/><path d="M275.5,294.28c-9.89,5.72-164.06,7.48-175.21,1.93-4.32-2.15-4.85-7.49-4.19-12.13a27.62,27.62,0,0,1,1.12-4.78c3.9-11.68,20.84-18.05,35.35-11.9-1.53-32,40.88-40,50-12.9,6.78-31.6,52.61-31.21,64.35-3.86a33.91,33.91,0,0,1,2.58,10.51A44.13,44.13,0,0,1,249,272.3C266.53,268,286.8,287.74,275.5,294.28Z" transform="translate(-5.68 -141.44)" fill="#f8f8f8"/><path d="M275.5,294.28c-9.89,5.72-164.06,7.48-175.21,1.93-4.32-2.15-4.85-7.49-4.19-12.13,14.87,6.35,29.2,10,40.71,0,12.45,9.34,28.55,7,46.11,0,28,7.48,51.57,3.3,66.57-22.93A44.13,44.13,0,0,1,249,272.3C266.53,268,286.8,287.74,275.5,294.28Z" transform="translate(-5.68 -141.44)" opacity="0.05" fill="url(#n)"/><path d="M676.31,231.05c-13.89,8-230.33,10.51-246,2.72C422,229.6,423.74,216.89,426,210a22.4,22.4,0,0,1,1.74-3.91c7.64-13.84,29.2-20.72,47.89-12.81-2.15-44.88,57.38-56.12,70.18-18.09,9.51-44.37,73.85-43.82,90.33-5.43.32.74.62,1.49.9,2.27,2.89,7.9,3.83,17.3,2,28.13C663.71,194.1,692.17,221.87,676.31,231.05Z" transform="translate(-5.68 -141.44)" fill="#f8f8f8"/><path d="M676.31,231.05c-13.89,8-230.33,10.51-246,2.72C422,229.6,423.74,216.89,426,210a22.4,22.4,0,0,1,1.74-3.91C448,212.28,501.3,225.54,567.4,218.9c53.76-5.41,67.1-29.76,69.67-46.84,2.89,7.9,3.83,17.3,2,28.13C663.71,194.1,692.17,221.87,676.31,231.05Z" transform="translate(-5.68 -141.44)" opacity="0.05" fill="url(#o)"/><path d="M266.06,411.86c-18,15.33-31.5,28.25-36.94,21.88s-2.8-30.95,15.16-46.28,44.44-15.61,49.89-9.23S284,396.53,266.06,411.86Z" transform="translate(-5.68 -141.44)" opacity="0.3" fill="url(#p)"/><path d="M115.42,366.61c-10.35,8.83-18.15,16.28-21.28,12.6s-1.62-17.83,8.73-26.66,25.61-9,28.75-5.32S125.77,357.78,115.42,366.61Z" transform="translate(-5.68 -141.44)" opacity="0.3" fill="url(#q)"/><path d="M488.08,357.93c-10.34,8.82-18.13,16.26-21.26,12.59s-1.61-17.81,8.72-26.63,25.58-9,28.71-5.32S498.41,349.11,488.08,357.93Z" transform="translate(-5.68 -141.44)" opacity="0.3" fill="url(#r)"/><path d="M639.38,412.48c-16.34,13.93-28.64,25.68-33.59,19.88s-2.54-28.13,13.79-42.06,40.4-14.2,45.35-8.4S655.71,398.54,639.38,412.48Z" transform="translate(-5.68 -141.44)" opacity="0.3" fill="url(#s)"/></svg>