<svg xmlns="http://www.w3.org/2000/svg" xmlns:xlink="http://www.w3.org/1999/xlink" viewBox="0 0 610 746.03"><defs><linearGradient id="a" x1="336.44" y1="132.42" x2="413.56" y2="132.42" gradientUnits="userSpaceOnUse"><stop offset="0"/><stop offset="1"/></linearGradient><linearGradient id="b" x1="35.53" y1="441.03" x2="574.47" y2="441.03" xlink:href="#a"/><linearGradient id="c" x1="226.34" y1="-769.96" x2="285.07" y2="-769.96" gradientTransform="translate(-399.49 826.65) rotate(45)" xlink:href="#a"/><linearGradient id="d" x1="204.71" y1="481.57" x2="622.41" y2="481.57" xlink:href="#a"/></defs><path d="M375,130.84c-24.13,0-46.91-6.36-64.16-17.91-18.21-12.19-28.23-28.71-28.23-46.52s10-34.33,28.23-46.51C328.09,8.35,350.87,2,375,2s46.91,6.37,64.16,17.92c18.21,12.18,28.23,28.71,28.23,46.51s-10,34.33-28.23,46.52C421.91,124.48,399.13,130.84,375,130.84ZM375,17.5c-21.09,0-40.81,5.43-55.53,15.28C305.7,42,298.12,54,298.12,66.41S305.7,90.82,319.47,100c14.72,9.86,34.44,15.29,55.53,15.29s40.81-5.43,55.53-15.29c13.77-9.22,21.35-21.16,21.35-33.63S444.3,42,430.53,32.78C415.81,22.93,396.09,17.5,375,17.5Z" transform="translate(-70 -1.98)" fill="#05a9e9"/><path d="M413.56,105.49v49.22H336.44V105.49a23.94,23.94,0,0,1,23.94-23.94h29.24A23.94,23.94,0,0,1,413.56,105.49Z" transform="translate(-70 -1.98)" fill="#05a9e9"/><path d="M413.56,110.13v44.58H336.44V117.94C354.37,118,379.43,116.23,413.56,110.13Z" transform="translate(-70 -1.98)" opacity="0.1" fill="url(#a)"/><circle cx="305" cy="441.03" r="305" fill="#05a9e9"/><path d="M147.14,277.9a5.18,5.18,0,0,1-4.13-8.27A291.22,291.22,0,0,1,296.72,164.11a5.17,5.17,0,1,1,2.79,9.95A281,281,0,0,0,151.28,275.82,5.15,5.15,0,0,1,147.14,277.9Z" transform="translate(-70 -1.98)" fill="#efeeff"/><path d="M109.13,346.88a5,5,0,0,1-1.84-.35,5.16,5.16,0,0,1-3-6.67,289.61,289.61,0,0,1,13.42-29.95,5.17,5.17,0,0,1,9.18,4.76A278.39,278.39,0,0,0,114,343.55,5.17,5.17,0,0,1,109.13,346.88Z" transform="translate(-70 -1.98)" fill="#efeeff"/><circle cx="305" cy="441.03" r="269.47" opacity="0.1" fill="url(#b)"/><circle cx="305" cy="441.03" r="247.41" fill="#f9f9f9"/><path d="M375,678.75a235.73,235.73,0,1,1,166.69-69A234.16,234.16,0,0,1,375,678.75Zm0-466a230.31,230.31,0,1,0,162.84,67.46A228.79,228.79,0,0,0,375,212.72Z" transform="translate(-70 -1.98)" fill="#05a9e9"/><path d="M375,619.81c-97.48,0-176.79-79.31-176.79-176.8S277.52,266.22,375,266.22,551.79,345.53,551.79,443,472.48,619.81,375,619.81Zm0-348.14c-94.48,0-171.35,76.86-171.35,171.34S280.52,614.36,375,614.36,546.35,537.5,546.35,443,469.48,271.67,375,271.67Z" transform="translate(-70 -1.98)" fill="#05a9e9"/><path d="M375,222.53a6.48,6.48,0,0,0-6.48,6.48v15.77a6.48,6.48,0,0,0,13,0V229A6.48,6.48,0,0,0,375,222.53Z" transform="translate(-70 -1.98)" fill="#05a9e9"/><path d="M375,633.85a6.48,6.48,0,0,0-6.48,6.48V656.1a6.48,6.48,0,0,0,13,0V640.33A6.48,6.48,0,0,0,375,633.85Z" transform="translate(-70 -1.98)" fill="#05a9e9"/><path d="M473.41,277.48a6.46,6.46,0,0,0,5.62-3.26l7.85-13.67a6.48,6.48,0,0,0-11.24-6.45l-7.85,13.68a6.48,6.48,0,0,0,5.62,9.7Z" transform="translate(-70 -1.98)" fill="#05a9e9"/><path d="M279.81,608.49a6.47,6.47,0,0,0-8.84,2.4l-7.85,13.67a6.48,6.48,0,0,0,2.4,8.84,6.38,6.38,0,0,0,3.22.86,6.49,6.49,0,0,0,5.62-3.25l7.85-13.68A6.48,6.48,0,0,0,279.81,608.49Z" transform="translate(-70 -1.98)" fill="#05a9e9"/><path d="M545.73,349.2a6.46,6.46,0,0,0,3.27-.89l13.61-8a6.48,6.48,0,0,0-6.54-11.18l-13.61,7.95a6.48,6.48,0,0,0,3.27,12.08Z" transform="translate(-70 -1.98)" fill="#05a9e9"/><path d="M201,536.8l-13.61,8a6.48,6.48,0,0,0,3.28,12.07,6.36,6.36,0,0,0,3.26-.89l13.61-8A6.48,6.48,0,0,0,201,536.8Z" transform="translate(-70 -1.98)" fill="#05a9e9"/><path d="M588.54,434.3h-.06l-15.76.13a6.48,6.48,0,0,0,0,13h.06l15.76-.13a6.48,6.48,0,0,0-.05-13Z" transform="translate(-70 -1.98)" fill="#05a9e9"/><path d="M177.23,437.72h-.06l-15.76.13a6.48,6.48,0,0,0,.05,13h.06l15.76-.13a6.48,6.48,0,0,0-.05-13Z" transform="translate(-70 -1.98)" fill="#05a9e9"/><path d="M564.28,541.62l-13.73-7.73a6.48,6.48,0,1,0-6.36,11.29l13.74,7.73a6.48,6.48,0,0,0,6.35-11.29Z" transform="translate(-70 -1.98)" fill="#05a9e9"/><path d="M199.45,351.22a6.48,6.48,0,1,0,6.36-11.29l-13.74-7.73a6.48,6.48,0,0,0-6.35,11.29Z" transform="translate(-70 -1.98)" fill="#05a9e9"/><path d="M481.82,609.13a6.48,6.48,0,1,0-11.13,6.63l8.07,13.55a6.5,6.5,0,0,0,5.57,3.16,6.49,6.49,0,0,0,5.56-9.8Z" transform="translate(-70 -1.98)" fill="#05a9e9"/><path d="M273.75,279.14a6.47,6.47,0,0,0,5.56-9.79l-8.07-13.55a6.48,6.48,0,0,0-11.13,6.64L268.18,276A6.47,6.47,0,0,0,273.75,279.14Z" transform="translate(-70 -1.98)" fill="#05a9e9"/><polygon points="346.53 483.78 263.47 400.72 436.94 310.31 346.53 483.78" fill="#fd8d78"/><polygon points="346.53 483.78 263.47 400.72 173.06 574.19 346.53 483.78" fill="#aeecff"/><circle cx="305" cy="442.25" r="17.45" fill="#fff"/><polygon points="436.94 310.31 173.06 574.19 346.53 483.78 436.94 310.31" opacity="0.1" fill="url(#c)"/><path d="M554.47,272.73c10.33,81.47-23.93,177.21-98.24,251.52s-170,108.57-251.52,98.23A246.58,246.58,0,0,0,375,690.42c136.64,0,247.41-110.77,247.41-247.4A246.55,246.55,0,0,0,554.47,272.73Z" transform="translate(-70 -1.98)" opacity="0.05" fill="url(#d)"/></svg>