<svg xmlns="http://www.w3.org/2000/svg" xmlns:xlink="http://www.w3.org/1999/xlink" viewBox="0 0 532.33 731.44"><defs><linearGradient id="a" x1="239.63" y1="176.96" x2="640.72" y2="176.96" gradientUnits="userSpaceOnUse"><stop offset="0"/><stop offset="1"/></linearGradient><linearGradient id="b" x1="108.84" y1="691.97" x2="370.48" y2="691.97" xlink:href="#a"/><linearGradient id="c" x1="239.66" y1="648.06" x2="349.53" y2="648.06" xlink:href="#a"/><linearGradient id="d" x1="239.66" y1="340.05" x2="258.24" y2="340.05" xlink:href="#a"/><linearGradient id="e" x1="533.7" y1="101.6" x2="620.48" y2="101.6" gradientUnits="userSpaceOnUse"><stop offset="0.01" stop-color="#fff"/><stop offset="1" stop-color="#fff"/></linearGradient></defs><path d="M641.16,36.11l-.06,28.25L641,92.6,641,120.85l-.06,28.25-.06,28.25-.06,28.24-.06,28.25c0,3.17,0,6.35,0,9.52q0,9.36-.05,18.73l-.06,28.24c-102.17-69.31-204.68,20.95-307,26.49-31.34,1.7-62.67-4.54-94-25.77l.06-28.24.06-28.24.06-28.26q0-14.12.07-28.24t.06-28.24q0-14.15.06-28.26t.05-28.24q0-14.13.06-28.25l.06-28.25c37.22,25.24,74.48,29.3,111.76,24C386.22,56,420.52,43.18,454.82,31.66,517,10.77,579.13-6,641.16,36.11Z" transform="translate(-108.84 -9.28)" fill="#f9634e"/><path d="M640.72,243.36q0,9.36-.05,18.73l-.06,28.24c-102.17-69.31-204.68,20.95-307,26.49-31.34,1.7-62.67-4.54-94-25.77l.06-28.24.06-28.24.06-28.26q0-14.12.07-28.24t.06-28.24q0-14.15.06-28.26t.05-28.24q0-14.13.06-28.25l.06-28.25c37.22,25.24,74.48,29.3,111.76,24C332.32,106.72,349,188.25,405.21,211c67.58,27.34,127.9-36.3,217,19.51Q632,236.65,640.72,243.36Z" transform="translate(-108.84 -9.28)" opacity="0.08" fill="url(#a)"/><path d="M370.48,674.05V692c0,11-7.53,26.52-43.42,37.55-15.26,4.68-33.69,8-53.71,9.76-10.84,1-22.15,1.44-33.69,1.44-32.84,0-63.88-4-87.4-11.2C132.45,723.43,108.84,712,108.84,692V674.05h7.47c6.25-6.91,17.24-13.87,35.95-19.62,23.52-7.22,54.56-11.2,87.4-11.2,11.54,0,22.85.49,33.69,1.44,20,1.75,38.45,5.08,53.71,9.76,12.91,4,27.42,10.22,36,19.62Z" transform="translate(-108.84 -9.28)" fill="#e7dede"/><path d="M370.48,674.05V692c0,11-7.53,26.52-43.42,37.55-15.26,4.68-33.69,8-53.71,9.76-10.84,1-22.15,1.44-33.69,1.44-32.84,0-63.88-4-87.4-11.2C132.45,723.43,108.84,712,108.84,692V674.05h7.47c6.25-6.91,17.24-13.87,35.95-19.62,23.52-7.22,54.56-11.2,87.4-11.2,11.54,0,22.85.49,33.69,1.44,20,1.75,38.45,5.08,53.71,9.76,12.91,4,27.42,10.22,36,19.62Z" transform="translate(-108.84 -9.28)" opacity="0.1" fill="url(#b)"/><path d="M370.48,674.05c0,11-7.53,26.51-43.42,37.54-23.51,7.22-54.56,11.21-87.4,11.21s-63.88-4-87.4-11.21c-19.81-6.08-43.42-17.54-43.42-37.54,0-11,7.54-26.52,43.42-37.54,23.52-7.23,54.56-11.21,87.4-11.21s63.89,4,87.4,11.21a115.8,115.8,0,0,1,22.47,9.3h0C361.28,652.41,370.48,661.56,370.48,674.05Z" transform="translate(-108.84 -9.28)" fill="#e7dede"/><path d="M349.53,645.81l-109.87,25V625.3c32.84,0,63.89,4,87.4,11.21A115.8,115.8,0,0,1,349.53,645.81Z" transform="translate(-108.84 -9.28)" opacity="0.1" fill="url(#c)"/><path d="M258.24,27.86v623.9c0,10.29-8.33,19-18.58,19.06h-.33a18.59,18.59,0,0,1-18.25-18.57V27.86a18.58,18.58,0,0,1,37.16,0Z" transform="translate(-108.84 -9.28)" fill="#e7dede"/><path d="M258.24,27.86v623.9c0,10.29-8.33,19-18.58,19.06V9.28a18.59,18.59,0,0,1,18.58,18.58Z" transform="translate(-108.84 -9.28)" opacity="0.1" fill="url(#d)"/><path d="M535.45,45.1c11.16-24.91,46.87-17.63,68.57-5.33,24.8,14.06,14.21,121,14.21,121-.86,20.77-23.91,15.08-32.35,3.87S564.35,129.06,554,105.47C548.15,92.31,527.65,62.5,535.45,45.1Z" transform="translate(-108.84 -9.28)" opacity="0.4" fill="url(#e)"/></svg>