<svg xmlns="http://www.w3.org/2000/svg" xmlns:xlink="http://www.w3.org/1999/xlink" viewBox="0 0 536 746.89"><defs><linearGradient id="a" x1="153.21" y1="701.79" x2="557.98" y2="701.79" gradientUnits="userSpaceOnUse"><stop offset="0"/><stop offset="1"/></linearGradient><linearGradient id="b" x1="387.3" y1="658.28" x2="468.9" y2="658.28" gradientTransform="translate(-0.03 1.36) rotate(0.22)" xlink:href="#a"/><linearGradient id="c" x1="320.85" y1="586.82" x2="396.47" y2="586.82" gradientTransform="translate(-0.03 1.36) rotate(0.22)" xlink:href="#a"/><linearGradient id="d" x1="147.97" y1="302.74" x2="587.15" y2="302.74" gradientTransform="translate(-0.03 1.36) rotate(0.22)" xlink:href="#a"/><linearGradient id="e" x1="186.74" y1="-473.28" x2="269.18" y2="-473.28" gradientTransform="matrix(0.65, 0.76, -0.71, 0.61, -247.29, 264.56)" gradientUnits="userSpaceOnUse"><stop offset="0.01" stop-color="#fff"/><stop offset="1" stop-color="#fff"/></linearGradient></defs><path d="M558,683.07l-.09,23.21c0,9.72-11.74,23.31-67.29,32.81-23.61,4-52.13,6.85-83.11,8.27-16.76.78-34.26,1.14-52.1,1.08-50.8-.2-98.79-3.89-135.15-10.39-30.62-5.48-67.1-15.7-67-33.32l.09-23.22,11.56,0c9.68-6,26.71-12.12,55.67-17.07,36.4-6.22,84.42-9.54,135.21-9.35,17.85.07,35.34.57,52.1,1.48,31,1.65,59.46,4.69,83.05,8.91,19.95,3.57,42.38,9.16,55.57,17.49Z" transform="translate(-107 -1.56)" fill="#dd905b"/><path d="M558,683.07l-.09,23.21c0,9.72-11.74,23.31-67.29,32.81-23.61,4-52.13,6.85-83.11,8.27-16.76.78-34.26,1.14-52.1,1.08-50.8-.2-98.79-3.89-135.15-10.39-30.62-5.48-67.1-15.7-67-33.32l.09-23.22,11.56,0c9.68-6,26.71-12.12,55.67-17.07,36.4-6.22,84.42-9.54,135.21-9.35,17.85.07,35.34.57,52.1,1.48,31,1.65,59.46,4.69,83.05,8.91,19.95,3.57,42.38,9.16,55.57,17.49Z" transform="translate(-107 -1.56)" fill="#c97017"/><path d="M558,683.07l-.09,23.21c0,9.72-11.74,23.31-67.29,32.81-23.61,4-52.13,6.85-83.11,8.27-16.76.78-34.26,1.14-52.1,1.08-50.8-.2-98.79-3.89-135.15-10.39-30.62-5.48-67.1-15.7-67-33.32l.09-23.22,11.56,0c9.68-6,26.71-12.12,55.67-17.07,36.4-6.22,84.42-9.54,135.21-9.35,17.85.07,35.34.57,52.1,1.48,31,1.65,59.46,4.69,83.05,8.91,19.95,3.57,42.38,9.16,55.57,17.49Z" transform="translate(-107 -1.56)" opacity="0.07" fill="url(#a)"/><path d="M558,683.06c0,9.73-11.74,23.31-67.28,32.8-36.41,6.23-84.43,9.55-135.22,9.35s-98.79-3.88-135.15-10.38c-30.62-5.48-67.09-15.7-67-33.32,0-9.72,11.74-23.3,67.29-32.8,36.4-6.23,84.42-9.55,135.22-9.36,9.79,0,19.49.21,29,.51,29.41.9,57.23,3,81.58,6.14,8.65,1.12,16.86,2.37,24.55,3.75C521.56,655.22,558.05,665.45,558,683.06Z" transform="translate(-107 -1.56)" fill="#c97017"/><path d="M466.4,646l-66.8,36.45-14.78-42.59C414.23,640.76,442.05,642.85,466.4,646Z" transform="translate(-107 -1.56)" opacity="0.12" fill="url(#b)"/><path d="M399.6,682.45a185.51,185.51,0,0,1-87.92-.34l2.44-29.42,4.4-53L321,569.57l70.08.27,3,39.71Z" transform="translate(-107 -1.56)" fill="#c97017"/><path d="M394.11,609.55c-22-13.69-56.19-12.16-75.59-9.83L321,569.57l70.08.27Z" transform="translate(-107 -1.56)" opacity="0.12" fill="url(#c)"/><path d="M631.41,203.87A294.45,294.45,0,0,0,490.27,26.32,299.14,299.14,0,0,0,433.45,2.1a12.22,12.22,0,0,0-7.19,23.35A273.1,273.1,0,0,1,467.6,42L204.08,517.07a273,273,0,0,1-41.62-31.35,12.21,12.21,0,1,0-16.51,18,297.61,297.61,0,0,0,56.82,40.9A294.67,294.67,0,0,0,345,582a297.7,297.7,0,0,0,83.15-11.58,296.37,296.37,0,0,0,203.3-366.5ZM584.3,417.37A270.13,270.13,0,0,1,421.39,546.88a273,273,0,0,1-76.3,10.63A269.83,269.83,0,0,1,225.43,529L489,53.86A271.88,271.88,0,0,1,584.3,417.37Z" transform="translate(-107 -1.56)" fill="#fab233"/><path d="M555.93,401.63a239.4,239.4,0,0,1-325.58,93.25C114.7,430.73,73,285,137.11,169.32c.63-1.14,1.26-2.26,1.91-3.38A239.47,239.47,0,0,1,555.93,401.63Z" transform="translate(-107 -1.56)" fill="#aeecff"/><path d="M581.66,240.14a239,239,0,0,0-102-153.74A239.48,239.48,0,0,1,163.33,427.34q-8.79-4.87-17-10.37A239.49,239.49,0,0,0,581.66,240.14Z" transform="translate(-107 -1.56)" opacity="0.07" fill="url(#d)"/><path d="M392.17,240.39c-2.37,4.07-5.35,6.57-8.5,9.71-2.88,2.88-3.75,5.34-5.44,9-4.87,10.55-11.81,20.23-12.35,32.26-.39,8.91,2.88,15.44,5.09,23.73a85.79,85.79,0,0,1,1.75,37c-1.79,10.83-3.41,21.9-6.13,32.55-.82,3.17-1.76,9.56-4.93,11.47-5.76,3.46-17-1.64-22.26-3.76A60.93,60.93,0,0,1,325,384.64a66.47,66.47,0,0,0-14.15-8.3c-13.68-6.22-26.59-17.93-37.25-28.44-4.81-4.75-9-9.89-15-13.14-14.17-7.65-18.06-20.8-22.84-35.11-2.12-6.36-5-7.33-11.35-9.5-10.87-3.71-20.74-9.15-30.45-15.28-4-2.5-10.65-7.93-10.3-13.42.21-3.12,2.83-8.25,4.36-11,3.61-6.39,7.73-12.93,11.86-19.17,4-6,9.47-12.83,10.21-19.91.78-7.5-3-8.31-9.83-9.62-4.61-.87-9.28-.09-13.9-.94-1.1-.2-7.32-.9-8.1-2-1.44-2,1.08-3.6,1.76-5.25a76.69,76.69,0,0,0,3.79-12.12c1-5.06-3.39-9.61-7.51-12.31-7.65-5-15.79-4.18-24.59-4.16a110.6,110.6,0,0,0-12.66.92A238.41,238.41,0,0,1,268.77,59c.46,7.55-.11,15.36-.13,22.52,0,10.11.41,19.7-1.68,29.43-1.34,6.29-1.29,15.09-.59,21.46.62,5.71,3.53,8.63,9.23,9.21,5.18.53,7.78.4,12.35,2.46,4.34,2,8.84,1.56,13.95,1.58,21.23.08,42.46.26,63.69.24,9.1,0,9.12.41,12.28,9.31,6.46,18.21,12.87,35.87,17.29,54.78C397.4,219.53,397.22,231.7,392.17,240.39Z" transform="translate(-107 -1.56)" fill="#a5dd1b"/><path d="M555.93,401.63a240.28,240.28,0,0,1-26.88,38.92c-7-6.47-12.71-14.78-13.3-24.23-.44-7.11-1.17-16.6.52-23.37,1.26-5,6.83-10.73,5.88-16.13-.67-3.81-4.6-8-5.72-11.93s-.59-5.73-3.83-8.54c-2.28-2-7.61-7.59-10.48-7.79-4.13-.28-6.8,7.59-9,10.22a26.28,26.28,0,0,1-10.24,6.88c-2.65.94-5.74.36-7.51,2.72-3.15-.81-5.27-4.37-7.48-6.76-4.29-4.66-9.57-3-15.83-3-9.29,0-20.85,2-29.55-2.06-1.73-.82-7.07-3.4-6.43-6.09.42-1.82,3.44-2.32,4.78-2.9,5.06-2.24,11.21-2.72,16.47-4.8,10-3.95,19-8.55,24.24-18.12,6.51-11.9,13.14-24,25.45-30.86,8.09-4.54,18.66-5,25.36-12.08,4.29-4.5,4.26-10.79,5-16.85.53-4.44.52-8.37,3.41-11.92,1.4-1.71,4.28-3.4,6.06-4.79,4.71-3.65,10.16-5.58,15.52-8,8-3.51,19.13-1.58,27.73-1.53a48.61,48.61,0,0,1,11.56,1.48A238.53,238.53,0,0,1,555.93,401.63Z" transform="translate(-107 -1.56)" fill="#a5dd1b"/><path d="M459.07,496.87a240.61,240.61,0,0,1-99.82,27.76c4.14-7.36,8.13-14.85,12.38-22.15a264,264,0,0,1,25.48-36.07c7.95-9.5,16.51.16,24.42,4.9a63,63,0,0,1,8.26,6.3c2.59,2.19,4.94,5.63,7.68,7.41,1.65,1.08,3.26,1.21,4.88,2.18,3,1.77,4.42,4.58,7.91,5.64,2,.6,3.36-.08,5.21,1A14.17,14.17,0,0,1,459.07,496.87Z" transform="translate(-107 -1.56)" fill="#a5dd1b"/><path d="M262.16,183.52c-54,46.1-94.68,85-111.5,65.32s7.06-84.41,61.09-130.52S329.49,62.15,346.32,81.87,316.19,137.41,262.16,183.52Z" transform="translate(-107 -1.56)" opacity="0.4" fill="url(#e)"/></svg>