<svg xmlns="http://www.w3.org/2000/svg" xmlns:xlink="http://www.w3.org/1999/xlink" viewBox="0 0 716 745.79"><defs><linearGradient id="a" x1="354.42" y1="627.8" x2="434.8" y2="627.8" gradientUnits="userSpaceOnUse"><stop offset="0"/><stop offset="1"/></linearGradient><linearGradient id="b" x1="48.99" y1="436.37" x2="733" y2="436.37" xlink:href="#a"/><linearGradient id="c" x1="1567.81" y1="-836.91" x2="1670.69" y2="-836.91" gradientTransform="matrix(-1.12, -0.56, 0.51, -1.02, 2571.4, 310.08)" gradientUnits="userSpaceOnUse"><stop offset="0.01" stop-color="#fff"/><stop offset="1" stop-color="#fff"/></linearGradient></defs><path d="M301.87,32.42C202.62,196,107.25,388.82,24.06,576.52c-18.62,42-3.63,91,84.08,87.22,190.08-8.27,360.3-28.59,542.7-59.23,42-7.06,64.62-53.48,44.23-90.92-91.4-167.81-187-329.48-288.2-483.12-11-16.68-7.25-26.71-24.86-28C344.77-.16,315.19,10.47,301.87,32.42Z" transform="translate(-17 -2.1)" fill="#dd4f40"/><polygon points="337.42 574.56 343.67 745.79 425.71 745.79 409.9 570.26 337.42 574.56" fill="#e7dede"/><path d="M434.8,660l-7.9-87.66-72.48,4.29,3.89,106.57C373.56,673.33,402.78,659.44,434.8,660Z" transform="translate(-17 -2.1)" opacity="0.07" fill="url(#a)"/><path d="M332.2,32.42C232.94,196,137.57,388.82,54.38,576.52c-18.62,42,13.34,89,59.27,87.17,190.12-7.41,385.11-28.54,567.51-59.18,42.05-7.06,64.63-53.48,44.23-90.92C634,345.78,538.36,184.11,437.2,30.47,412.09-7.65,355.87-6.6,332.2,32.42Z" transform="translate(-17 -2.1)" fill="#f9634e"/><path d="M111.11,620.9h0a19.27,19.27,0,0,1-17.57-27c93.36-210.64,186-392.07,275.28-539.24a19.27,19.27,0,0,1,32.6-.61C498.32,201.18,592,358.21,687.77,534.08a19.26,19.26,0,0,1-13.71,28.19C487.93,593.54,293.56,613.81,112,620.88,111.68,620.9,111.4,620.9,111.11,620.9ZM385.33,61.66a2.56,2.56,0,0,0-2.56,1.44C293.82,209.68,201.53,390.49,108.46,600.49a2.37,2.37,0,0,0,.21,2.7,2.52,2.52,0,0,0,2.44,1.39h.24c180.89-7.05,374.55-27.25,560-58.4a3,3,0,0,0,2.09-4.3C577.87,366.42,484.44,209.78,387.79,63A2.56,2.56,0,0,0,385.33,61.66Z" transform="translate(-17 -2.1)" fill="#f8f8f8"/><path d="M405.47,420.55h0c-14.4,3-27-6.33-28.65-21.24L358.3,229.61c-2.21-20.28,12.31-40.66,31.9-44.77h0c19.59-4.11,36.32,9.7,36.76,30.36L430.63,388C431,403.2,419.87,417.53,405.47,420.55Z" transform="translate(-17 -2.1)" fill="#f8f8f8"/><ellipse cx="409" cy="487.98" rx="37.07" ry="32.07" transform="translate(-238.9 571.72) rotate(-57.78)" fill="#f8f8f8"/><path d="M725.39,513.59q-85-156.06-175.2-304.59l-18.1,41.71c-83,191.17-351.71,277.71-469.4,307.15q-4.17,9.35-8.31,18.66c-18.62,42,13.34,89,59.27,87.17,190.12-7.41,385.11-28.54,567.51-59.18C723.21,597.45,745.79,551,725.39,513.59Z" transform="translate(-17 -2.1)" opacity="0.08" fill="url(#b)"/><path d="M264.73,225.19c48.78-97.38,82.84-176.7,119.2-158.48s42.33,124.39-6.46,221.77-133.83,149.1-170.2,130.88S216,322.57,264.73,225.19Z" transform="translate(-17 -2.1)" opacity="0.2" fill="url(#c)"/></svg>