<svg xmlns="http://www.w3.org/2000/svg" xmlns:xlink="http://www.w3.org/1999/xlink" viewBox="0 0 334.38 734.1"><defs><linearGradient id="a" x1="418.05" y1="679.75" x2="542.19" y2="679.75" gradientUnits="userSpaceOnUse"><stop offset="0"/><stop offset="1"/></linearGradient><linearGradient id="b" x1="229.48" y1="638.25" x2="520.52" y2="638.25" xlink:href="#a"/><linearGradient id="c" x1="357.54" y1="341.34" x2="392.46" y2="341.34" xlink:href="#a"/><linearGradient id="d" x1="238.69" y1="184.38" x2="538.06" y2="184.38" xlink:href="#a"/><linearGradient id="e" x1="253.55" y1="110.28" x2="375" y2="110.28" gradientTransform="translate(170.03 -189.93) rotate(45)" gradientUnits="userSpaceOnUse"><stop offset="0.01" stop-color="#fff"/><stop offset="1" stop-color="#fff"/></linearGradient></defs><path d="M542.19,656.85v22.9c0,14.11-9.62,33.89-55.49,48-19.5,6-43.05,10.24-68.65,12.48-13.85,1.22-28.31,1.84-43.05,1.84-42,0-81.64-5.09-111.7-14.32-25.32-7.78-55.49-22.41-55.49-48v-22.9h9.55c8-8.83,22-17.73,45.94-25.08,30.06-9.23,69.73-14.32,111.7-14.32,14.74,0,29.2.63,43.05,1.85,25.6,2.23,49.15,6.48,68.65,12.47,16.5,5.07,35.05,13.06,46,25.08Z" transform="translate(-207.81 -7.95)" fill="#b5b5b5"/><path d="M542.19,656.85v22.9c0,14.11-9.62,33.89-55.49,48-19.5,6-43.05,10.24-68.65,12.48V619.3c25.6,2.23,49.15,6.48,68.65,12.47,16.5,5.07,35.05,13.06,46,25.08Z" transform="translate(-207.81 -7.95)" opacity="0.1" fill="url(#a)"/><path d="M375,719.14c-42,0-81.64-5.08-111.7-14.32-25.32-7.78-55.49-22.41-55.49-48,0-14.1,9.63-33.88,55.49-48,30.06-9.24,69.73-14.33,111.7-14.33s81.64,5.09,111.7,14.33c25.32,7.77,55.49,22.41,55.49,48,0,14.11-9.63,33.89-55.49,48C456.64,714.06,417,719.14,375,719.14Z" transform="translate(-207.81 -7.95)" fill="#e7dede"/><ellipse cx="167.19" cy="648.89" rx="145.52" ry="44.71" fill="#a5dd1b"/><ellipse cx="166.99" cy="648.89" rx="39.73" ry="14.49" fill="#b5b5b5"/><path d="M375,612.13c-80.37,0-145.52,20-145.52,44.71a15.46,15.46,0,0,0,2.07,7.53C243.2,643.26,303,627.19,375,627.19q4.77,0,9.46.09v26.77l62.68-21c37.06,6.51,63.91,17.89,71.31,31.3a15.46,15.46,0,0,0,2.07-7.53C520.52,632.15,455.37,612.13,375,612.13Z" transform="translate(-207.81 -7.95)" opacity="0.1" fill="url(#b)"/><path d="M392.46,316.65V639.39a17.46,17.46,0,0,1-34.92,0V316.65Z" transform="translate(-207.81 -7.95)" fill="#e7dede"/><path d="M392.46,316.65v48.44a163.49,163.49,0,0,1-34.92,0V316.65Z" transform="translate(-207.81 -7.95)" opacity="0.1" fill="url(#c)"/><circle cx="167.19" cy="163.06" r="163.06" fill="#f9634e"/><path d="M464.49,34.69A163.07,163.07,0,0,1,238.69,260.5,163.06,163.06,0,1,0,464.49,34.69Z" transform="translate(-207.81 -7.95)" opacity="0.1" fill="url(#d)"/><ellipse cx="314.28" cy="110.28" rx="73.69" ry="44.07" transform="translate(-193.74 246.58) rotate(-45)" opacity="0.3" fill="url(#e)"/></svg>