<svg xmlns="http://www.w3.org/2000/svg" xmlns:xlink="http://www.w3.org/1999/xlink" viewBox="0 0 419.89 741.9"><defs><linearGradient id="a" x1="268.47" y1="212.29" x2="481.7" y2="212.29" gradientUnits="userSpaceOnUse"><stop offset="0"/><stop offset="1"/></linearGradient><linearGradient id="b" x1="117.95" y1="208.24" x2="301.88" y2="208.24" gradientUnits="userSpaceOnUse"><stop offset="0.01" stop-color="#fff"/><stop offset="1" stop-color="#fff"/></linearGradient><linearGradient id="c" x1="127.41" y1="208.24" x2="292.42" y2="208.24" xlink:href="#a"/><linearGradient id="d" x1="317.54" y1="218.24" x2="444.3" y2="218.24" xlink:href="#a"/><linearGradient id="e" x1="987.44" y1="1168.15" x2="1030.29" y2="1168.15" gradientTransform="matrix(0, 0.89, -1, 0, 1514.19, -711.78)" xlink:href="#b"/><linearGradient id="f" x1="279.69" y1="125.01" x2="295.69" y2="125.01" xlink:href="#a"/><linearGradient id="g" x1="455.33" y1="125.01" x2="471.33" y2="125.01" xlink:href="#a"/><linearGradient id="h" x1="279.69" y1="300.65" x2="295.69" y2="300.65" xlink:href="#a"/><linearGradient id="i" x1="455.33" y1="300.65" x2="471.33" y2="300.65" xlink:href="#a"/><linearGradient id="j" x1="268.47" y1="425.76" x2="481.7" y2="425.76" xlink:href="#a"/><linearGradient id="k" x1="117.95" y1="421.71" x2="301.88" y2="421.71" xlink:href="#b"/><linearGradient id="l" x1="127.41" y1="421.71" x2="292.42" y2="421.71" xlink:href="#a"/><linearGradient id="m" x1="317.54" y1="431.7" x2="444.3" y2="431.7" xlink:href="#a"/><linearGradient id="n" x1="1157.03" y1="1319.09" x2="1199.87" y2="1319.09" gradientTransform="matrix(0, 0.89, -1, 0, 1665.13, -649.26)" xlink:href="#b"/><linearGradient id="o" x1="279.69" y1="338.47" x2="295.69" y2="338.47" xlink:href="#a"/><linearGradient id="p" x1="455.33" y1="338.47" x2="471.33" y2="338.47" xlink:href="#a"/><linearGradient id="q" x1="279.69" y1="514.12" x2="295.69" y2="514.12" xlink:href="#a"/><linearGradient id="r" x1="455.33" y1="514.12" x2="471.33" y2="514.12" xlink:href="#a"/><linearGradient id="s" x1="268.47" y1="639.22" x2="481.7" y2="639.22" xlink:href="#a"/><linearGradient id="t" x1="117.95" y1="635.17" x2="301.88" y2="635.17" xlink:href="#b"/><linearGradient id="u" x1="127.41" y1="635.17" x2="292.42" y2="635.17" xlink:href="#a"/><linearGradient id="v" x1="317.54" y1="645.17" x2="444.3" y2="645.17" xlink:href="#a"/><linearGradient id="w" x1="1326.62" y1="1470.03" x2="1369.46" y2="1470.03" gradientTransform="matrix(0, 0.89, -1, 0, 1816.07, -586.74)" xlink:href="#b"/><linearGradient id="x" x1="279.69" y1="551.94" x2="295.69" y2="551.94" xlink:href="#a"/><linearGradient id="y" x1="455.33" y1="551.94" x2="471.33" y2="551.94" xlink:href="#a"/><linearGradient id="z" x1="279.69" y1="727.58" x2="295.69" y2="727.58" xlink:href="#a"/><linearGradient id="aa" x1="455.33" y1="727.58" x2="471.33" y2="727.58" xlink:href="#a"/><linearGradient id="ab" x1="231.56" y1="212.29" x2="268.24" y2="212.29" xlink:href="#a"/><linearGradient id="ac" x1="2999.6" y1="212.29" x2="3036.27" y2="212.29" gradientTransform="matrix(-1, 0, 0, 1, 3518.04, 0)" xlink:href="#a"/><linearGradient id="ad" x1="231.56" y1="425.76" x2="268.24" y2="425.76" xlink:href="#a"/><linearGradient id="ae" x1="2999.6" y1="425.76" x2="3036.27" y2="425.76" gradientTransform="matrix(-1, 0, 0, 1, 3518.04, 0)" xlink:href="#a"/><linearGradient id="af" x1="231.56" y1="639.22" x2="268.24" y2="639.22" xlink:href="#a"/><linearGradient id="ag" x1="2999.6" y1="639.22" x2="3036.27" y2="639.22" gradientTransform="matrix(-1, 0, 0, 1, 3518.04, 0)" xlink:href="#a"/><linearGradient id="ah" x1="303.44" y1="95.16" x2="444.3" y2="95.16" xlink:href="#a"/><linearGradient id="ai" x1="187.93" y1="61.22" x2="229.7" y2="61.22" xlink:href="#a"/></defs><rect x="103.18" y="101.51" width="213.46" height="213.46" rx="10.77" fill="#515960"/><path d="M470.94,105.56h-1.07c7.51,42.42-21.59,94.15-67.15,139.71-44.49,44.49-92.2,71.19-134.25,65.2A10.77,10.77,0,0,0,279,319H470.94a10.76,10.76,0,0,0,10.76-10.76V116.33A10.77,10.77,0,0,0,470.94,105.56Z" transform="translate(-165.05 -4.05)" opacity="0.1" fill="url(#a)"/><circle cx="209.92" cy="208.24" r="91.97" opacity="0.1" fill="url(#b)"/><circle cx="209.92" cy="208.24" r="82.5" opacity="0.15" fill="url(#c)"/><circle cx="209.92" cy="208.24" r="69.33" fill="#f9634e"/><path d="M413.81,154.86a69.34,69.34,0,0,1-96.27,96.28,69.33,69.33,0,1,0,96.27-96.28Z" transform="translate(-165.05 -4.05)" opacity="0.08" fill="url(#d)"/><ellipse cx="346.04" cy="186.15" rx="31.67" ry="19.07" transform="translate(-195.33 295.16) rotate(-45)" opacity="0.4" fill="url(#e)"/><circle cx="122.1" cy="120.42" r="8.54" fill="#6b777f"/><circle cx="297.74" cy="120.42" r="8.54" fill="#6b777f"/><circle cx="122.1" cy="296.06" r="8.54" fill="#6b777f"/><circle cx="297.74" cy="296.06" r="8.54" fill="#6b777f"/><path d="M291.3,117a8.53,8.53,0,0,1-11.61,11.61A8.54,8.54,0,1,0,291.3,117Z" transform="translate(-165.05 -4.05)" opacity="0.15" fill="url(#f)"/><path d="M466.94,117a8.53,8.53,0,0,1-11.61,11.61A8.54,8.54,0,1,0,466.94,117Z" transform="translate(-165.05 -4.05)" opacity="0.15" fill="url(#g)"/><path d="M291.3,292.66a8.53,8.53,0,0,1-11.61,11.6,8.54,8.54,0,1,0,11.61-11.6Z" transform="translate(-165.05 -4.05)" opacity="0.15" fill="url(#h)"/><path d="M466.94,292.66a8.53,8.53,0,0,1-11.61,11.6,8.54,8.54,0,1,0,11.61-11.6Z" transform="translate(-165.05 -4.05)" opacity="0.15" fill="url(#i)"/><rect x="103.18" y="314.98" width="213.46" height="213.46" rx="10.77" fill="#515960"/><path d="M470.94,319h-1.07c7.51,42.42-21.59,94.15-67.15,139.72-44.49,44.48-92.2,71.18-134.25,65.19A10.77,10.77,0,0,0,279,532.49H470.94a10.77,10.77,0,0,0,10.76-10.77V329.79A10.77,10.77,0,0,0,470.94,319Z" transform="translate(-165.05 -4.05)" opacity="0.1" fill="url(#j)"/><circle cx="209.92" cy="421.71" r="91.97" opacity="0.1" fill="url(#k)"/><circle cx="209.92" cy="421.71" r="82.5" opacity="0.15" fill="url(#l)"/><circle cx="209.92" cy="421.71" r="69.33" fill="#fab233"/><path d="M413.81,368.33a69.33,69.33,0,0,1-96.27,96.27,69.33,69.33,0,1,0,96.27-96.27Z" transform="translate(-165.05 -4.05)" opacity="0.08" fill="url(#m)"/><ellipse cx="346.04" cy="399.61" rx="31.67" ry="19.07" transform="translate(-346.27 357.68) rotate(-45)" opacity="0.4" fill="url(#n)"/><circle cx="122.1" cy="333.89" r="8.54" fill="#6b777f"/><circle cx="297.74" cy="333.89" r="8.54" fill="#6b777f"/><circle cx="122.1" cy="509.53" r="8.54" fill="#6b777f"/><circle cx="297.74" cy="509.53" r="8.54" fill="#6b777f"/><path d="M291.3,330.48a8.53,8.53,0,0,1-7.46,12.68,8.44,8.44,0,0,1-4.15-1.08,8.54,8.54,0,1,0,11.61-11.6Z" transform="translate(-165.05 -4.05)" opacity="0.15" fill="url(#o)"/><path d="M466.94,330.48a8.53,8.53,0,0,1-11.61,11.6,8.54,8.54,0,1,0,11.61-11.6Z" transform="translate(-165.05 -4.05)" opacity="0.15" fill="url(#p)"/><path d="M291.3,506.12a8.53,8.53,0,0,1-7.46,12.68,8.44,8.44,0,0,1-4.15-1.08,8.54,8.54,0,1,0,11.61-11.6Z" transform="translate(-165.05 -4.05)" opacity="0.15" fill="url(#q)"/><path d="M466.94,506.12a8.53,8.53,0,0,1-11.61,11.6,8.54,8.54,0,1,0,11.61-11.6Z" transform="translate(-165.05 -4.05)" opacity="0.15" fill="url(#r)"/><rect x="103.18" y="528.44" width="213.46" height="213.46" rx="10.77" fill="#515960"/><path d="M470.94,532.49h-1.07c7.51,42.41-21.59,94.15-67.15,139.71-44.49,44.49-92.2,71.18-134.25,65.19A10.77,10.77,0,0,0,279,746H470.94a10.76,10.76,0,0,0,10.76-10.76V543.25A10.76,10.76,0,0,0,470.94,532.49Z" transform="translate(-165.05 -4.05)" opacity="0.1" fill="url(#s)"/><circle cx="209.92" cy="635.17" r="91.97" opacity="0.1" fill="url(#t)"/><circle cx="209.92" cy="635.17" r="82.5" opacity="0.15" fill="url(#u)"/><circle cx="209.92" cy="635.17" r="69.33" fill="#a5dd1b"/><path d="M413.81,581.79a69.33,69.33,0,0,1-96.27,96.27,69.33,69.33,0,1,0,96.27-96.27Z" transform="translate(-165.05 -4.05)" opacity="0.08" fill="url(#v)"/><ellipse cx="346.04" cy="613.08" rx="31.67" ry="19.07" transform="translate(-497.21 420.2) rotate(-45)" opacity="0.4" fill="url(#w)"/><circle cx="122.1" cy="547.35" r="8.54" fill="#6b777f"/><circle cx="297.74" cy="547.35" r="8.54" fill="#6b777f"/><circle cx="122.1" cy="722.99" r="8.54" fill="#6b777f"/><circle cx="297.74" cy="722.99" r="8.54" fill="#6b777f"/><path d="M291.3,543.94a8.54,8.54,0,0,1-11.61,11.61,8.54,8.54,0,1,0,11.61-11.61Z" transform="translate(-165.05 -4.05)" opacity="0.15" fill="url(#x)"/><path d="M466.94,543.94a8.54,8.54,0,0,1-11.61,11.61,8.54,8.54,0,1,0,11.61-11.61Z" transform="translate(-165.05 -4.05)" opacity="0.15" fill="url(#y)"/><path d="M291.3,719.58a8.53,8.53,0,0,1-11.61,11.61,8.54,8.54,0,1,0,11.61-11.61Z" transform="translate(-165.05 -4.05)" opacity="0.15" fill="url(#z)"/><path d="M466.94,719.58a8.53,8.53,0,0,1-11.61,11.61,8.54,8.54,0,1,0,11.61-11.61Z" transform="translate(-165.05 -4.05)" opacity="0.15" fill="url(#aa)"/><path d="M268.24,136.41V288.18h-9.87c-.55,0-1.1,0-1.66,0a47.26,47.26,0,0,1-43.94-34.76l-12.45-45.45a103.45,103.45,0,0,0-27.24-46.45l-4.38-4.32a12.11,12.11,0,0,1,8.5-20.75Z" transform="translate(-165.05 -4.05)" fill="#6b777f"/><path d="M268.24,136.41V288.18h-9.87c-.55,0-1.1,0-1.66,0,4.58-69.95-9.68-133-25.15-151.73Z" transform="translate(-165.05 -4.05)" opacity="0.1" fill="url(#ab)"/><path d="M481.76,136.41V288.18h9.87c.55,0,1.1,0,1.66,0a47.26,47.26,0,0,0,43.94-34.76l12.45-45.45a103.45,103.45,0,0,1,27.24-46.45l4.38-4.32a12.11,12.11,0,0,0-8.5-20.75Z" transform="translate(-165.05 -4.05)" fill="#6b777f"/><path d="M481.76,136.41V288.18h9.87c.55,0,1.1,0,1.66,0-4.58-69.95,9.68-133,25.15-151.73Z" transform="translate(-165.05 -4.05)" opacity="0.1" fill="url(#ac)"/><path d="M268.24,349.87V501.64h-9.87l-1.66,0a47.29,47.29,0,0,1-43.94-34.77l-12.45-45.45a103.51,103.51,0,0,0-27.24-46.45l-4.38-4.32a12.11,12.11,0,0,1,8.5-20.75Z" transform="translate(-165.05 -4.05)" fill="#6b777f"/><path d="M268.24,349.87V501.64h-9.87l-1.66,0c4.58-70-9.68-133-25.15-151.74Z" transform="translate(-165.05 -4.05)" opacity="0.1" fill="url(#ad)"/><path d="M481.76,349.87V501.64h9.87l1.66,0a47.29,47.29,0,0,0,43.94-34.77l12.45-45.45a103.51,103.51,0,0,1,27.24-46.45l4.38-4.32a12.11,12.11,0,0,0-8.5-20.75Z" transform="translate(-165.05 -4.05)" fill="#6b777f"/><path d="M481.76,349.87V501.64h9.87l1.66,0c-4.58-70,9.68-133,25.15-151.74Z" transform="translate(-165.05 -4.05)" opacity="0.1" fill="url(#ae)"/><path d="M268.24,563.33V715.1h-9.87l-1.66,0a47.27,47.27,0,0,1-43.94-34.77l-12.45-45.45a103.51,103.51,0,0,0-27.24-46.45l-4.38-4.31a12.12,12.12,0,0,1,8.5-20.76Z" transform="translate(-165.05 -4.05)" fill="#6b777f"/><path d="M268.24,563.33V715.1h-9.87l-1.66,0c4.58-70-9.68-133-25.15-151.74Z" transform="translate(-165.05 -4.05)" opacity="0.1" fill="url(#af)"/><path d="M481.76,563.33V715.1h9.87l1.66,0a47.27,47.27,0,0,0,43.94-34.77l12.45-45.45a103.51,103.51,0,0,1,27.24-46.45l4.38-4.31a12.12,12.12,0,0,0-8.5-20.76Z" transform="translate(-165.05 -4.05)" fill="#6b777f"/><path d="M481.76,563.33V715.1h9.87l1.66,0c-4.58-70,9.68-133,25.15-151.74Z" transform="translate(-165.05 -4.05)" opacity="0.1" fill="url(#ag)"/><path d="M444.3,105.56H303.44a29.09,29.09,0,0,1,29.1-29.08h82.67a29.1,29.1,0,0,1,29.09,29.08Z" transform="translate(-165.05 -4.05)" fill="#6b777f"/><path d="M444.3,105.56H303.44a28.82,28.82,0,0,1,2.11-10.86c29.32.45,100,.41,128.53-9.44l1.45-.5A28.92,28.92,0,0,1,444.3,105.56Z" transform="translate(-165.05 -4.05)" opacity="0.1" fill="url(#ah)"/><rect x="187.93" width="41.77" height="72.43" fill="#6b777f"/><rect x="187.93" y="50.01" width="41.77" height="22.42" opacity="0.1" fill="url(#ai)"/></svg>