<svg xmlns="http://www.w3.org/2000/svg" xmlns:xlink="http://www.w3.org/1999/xlink" viewBox="0 0 716.46 746"><defs><linearGradient id="a" x1="101.21" y1="374.71" x2="661.09" y2="374.71" gradientTransform="matrix(0, -1, 1, 0, 0.29, 756.16)" gradientUnits="userSpaceOnUse"><stop offset="0"/><stop offset="1"/></linearGradient><linearGradient id="b" x1="30.86" y1="388.82" x2="734.66" y2="388.82" gradientTransform="matrix(1, -0.02, 0.02, 1, -12.74, 7.11)" xlink:href="#a"/><linearGradient id="c" x1="363.4" y1="-455.75" x2="455.97" y2="-455.75" gradientTransform="matrix(1.1, 1.29, -0.71, 0.61, -505.1, -37.55)" gradientUnits="userSpaceOnUse"><stop offset="0.01" stop-color="#fff"/><stop offset="1" stop-color="#fff"/></linearGradient></defs><path d="M723.7,100.66l9.51,536.14c1,55.42-41.31,101.12-94.5,102.06L124.35,748c-44.63.79-82.73-30.2-94.38-72.94a104.36,104.36,0,0,1-3.67-25.71L16.79,113.2c-1-55.42,41.31-101.12,94.5-102.06L625.65,2a94,94,0,0,1,67.42,27A102.18,102.18,0,0,1,723.7,100.66Z" transform="translate(-16.77 -2)" fill="#05a9e9"/><rect x="83.21" y="95.06" width="583.58" height="559.88" rx="38.47" transform="translate(726.52 -8.59) rotate(88.98)" opacity="0.07" fill="url(#a)"/><rect x="102.38" y="113.46" width="545.23" height="523.09" rx="22.22" transform="translate(726.52 -8.59) rotate(88.98)" fill="#f8f8f8"/><rect x="102.38" y="113.46" width="545.23" height="523.09" rx="22.22" transform="translate(726.52 -8.59) rotate(88.98)" fill="#f8f8f8"/><path d="M224.37,180.53l170.09-3c82-1.46,143.54,52.55,144.93,130.58S481.2,442.28,399.18,443.73L310,445.31l2.27,128-80.92,1.43ZM389,366.43c40.18-.71,67.32-23,66.72-56.85S427.21,254.42,387,255.13l-80.37,1.42,2,111.31Z" transform="translate(-16.77 -2)" fill="#f9634e"/><path d="M723.7,100.66l9.51,536.14c1,55.42-41.31,101.12-94.5,102.06L124.35,748c-44.63.79-82.73-30.2-94.38-72.94C194.56,647.7,550.61,530.46,693.07,29A102.18,102.18,0,0,1,723.7,100.66Z" transform="translate(-16.77 -2)" opacity="0.08" fill="url(#b)"/><path d="M320.15,276.93c-60.67,51.77-104.65,97.42-136.77,59.78s-22.49-130.42,38.17-182.19,149.39-42.91,181.51-5.28S380.81,225.16,320.15,276.93Z" transform="translate(-16.77 -2)" opacity="0.4" fill="url(#c)"/></svg>