<svg xmlns="http://www.w3.org/2000/svg" xmlns:xlink="http://www.w3.org/1999/xlink" viewBox="0 0 737.31 703.44"><defs><linearGradient id="a" x1="580.57" y1="-71.66" x2="681.44" y2="-71.66" gradientTransform="matrix(-1.2, -1.12, 0.78, -0.84, 1105.5, 899.61)" gradientUnits="userSpaceOnUse"><stop offset="0.01" stop-color="#fff"/><stop offset="1" stop-color="#fff"/></linearGradient><linearGradient id="b" x1="176.12" y1="466.8" x2="743.65" y2="466.8" gradientUnits="userSpaceOnUse"><stop offset="0"/><stop offset="1"/></linearGradient></defs><path d="M343.12,713.27l-318.71-282A53.56,53.56,0,0,1,21.31,354l295-306.7a53.57,53.57,0,0,1,74.1-3l318.7,282a53.56,53.56,0,0,1,3.11,77.24l-295,306.7A53.56,53.56,0,0,1,343.12,713.27Z" transform="translate(-6.35 -23.28)" fill="#e08d12"/><path d="M359.56,705.68l-318.7-282a53.56,53.56,0,0,1-3.11-77.24l295-306.7a53.56,53.56,0,0,1,74.09-3l318.71,282a53.56,53.56,0,0,1,3.1,77.24l-295,306.7A53.57,53.57,0,0,1,359.56,705.68Z" transform="translate(-6.35 -23.28)" fill="#fab233"/><path d="M491.31,344.8l-1-24.69a108,108,0,0,0-215.8,8.68l8.09,201.32,61.9-2.49L336.42,326.3a46,46,0,0,1,92-3.7l1,24.69L390,348.87,463.61,427l67.13-83.74Z" transform="translate(-6.35 -23.28)" fill="#3d454c"/><path d="M234.34,193.37c73-77.95,126-144.06,164-108.46S424,232.82,351,310.77s-179,92-217,56.41S161.33,271.31,234.34,193.37Z" transform="translate(-6.35 -23.28)" opacity="0.2" fill="url(#a)"/><path d="M728.69,396a53.56,53.56,0,0,0-3.1-77.24L607.75,214.48C531.56,513.77,305.48,549.19,176.12,543.35L359.56,705.68a53.57,53.57,0,0,0,74.1-3Z" transform="translate(-6.35 -23.28)" opacity="0.07" fill="url(#b)"/><path d="M395.72,682a41.3,41.3,0,0,1-29.14-10.41L75,413.53a41.43,41.43,0,0,1-2.4-59.77L342.53,73.16a41.34,41.34,0,0,1,57.33-2.31l291.59,258a41.45,41.45,0,0,1,2.4,59.77L423.92,669.25A41.29,41.29,0,0,1,395.72,682ZM76.2,357.22l3.61,3.47A31.44,31.44,0,0,0,81.63,406l291.58,258a31.37,31.37,0,0,0,43.5-1.75l269.93-280.6a31.45,31.45,0,0,0-1.82-45.35l-291.58-258a31.38,31.38,0,0,0-43.51,1.75L79.81,360.69Z" transform="translate(-6.35 -23.28)" fill="#3d454c"/></svg>