<svg xmlns="http://www.w3.org/2000/svg" xmlns:xlink="http://www.w3.org/1999/xlink" viewBox="0 0 742 743.06"><defs><linearGradient id="a" x1="72.45" y1="274.16" x2="137.7" y2="274.16" gradientUnits="userSpaceOnUse"><stop offset="0"/><stop offset="1"/></linearGradient><linearGradient id="b" x1="72.45" y1="113.91" x2="137.7" y2="113.91" xlink:href="#a"/><linearGradient id="c" x1="72.45" y1="472.08" x2="137.7" y2="472.08" xlink:href="#a"/><linearGradient id="d" x1="22.44" y1="734.39" x2="187.72" y2="734.39" xlink:href="#a"/><linearGradient id="e" x1="47.84" y1="96.89" x2="170.32" y2="96.89" xlink:href="#a"/><linearGradient id="f" x1="69.09" y1="46.03" x2="149.07" y2="46.03" xlink:href="#a"/><linearGradient id="g" x1="242.44" y1="1242.06" x2="264.97" y2="1242.06" gradientTransform="translate(1335.92 -226.92) rotate(90)" gradientUnits="userSpaceOnUse"><stop offset="0.01" stop-color="#fff"/><stop offset="1" stop-color="#fff"/></linearGradient><linearGradient id="h" x1="606.76" y1="274.16" x2="672.01" y2="274.16" xlink:href="#a"/><linearGradient id="i" x1="606.76" y1="113.91" x2="672.01" y2="113.91" xlink:href="#a"/><linearGradient id="j" x1="606.76" y1="472.08" x2="672.01" y2="472.08" xlink:href="#a"/><linearGradient id="k" x1="556.74" y1="734.39" x2="722.02" y2="734.39" xlink:href="#a"/><linearGradient id="l" x1="582.14" y1="96.89" x2="704.62" y2="96.89" xlink:href="#a"/><linearGradient id="m" x1="603.39" y1="46.03" x2="683.37" y2="46.03" xlink:href="#a"/><linearGradient id="n" x1="620.25" y1="864.25" x2="642.78" y2="864.25" gradientTransform="translate(1492.41 -604.73) rotate(90)" xlink:href="#g"/><linearGradient id="o" x1="4" y1="245.28" x2="746" y2="245.28" xlink:href="#a"/><linearGradient id="p" x1="4" y1="137.96" x2="746" y2="137.96" gradientTransform="matrix(1, 0, 0, 1, 0, 0)" xlink:href="#g"/><linearGradient id="q" x1="4" y1="437.64" x2="746" y2="437.64" xlink:href="#a"/><linearGradient id="r" x1="4" y1="330.33" x2="746" y2="330.33" gradientTransform="matrix(1, 0, 0, 1, 0, 0)" xlink:href="#g"/><linearGradient id="s" x1="38.18" y1="711.6" x2="110.22" y2="711.6" gradientTransform="matrix(1, 0, 0, 1, 0, 0)" xlink:href="#g"/><linearGradient id="t" x1="126.16" y1="711.6" x2="146.49" y2="711.6" gradientTransform="matrix(1, 0, 0, 1, 0, 0)" xlink:href="#g"/><linearGradient id="u" x1="574.3" y1="711.6" x2="646.33" y2="711.6" gradientTransform="matrix(1, 0, 0, 1, 0, 0)" xlink:href="#g"/><linearGradient id="v" x1="662.27" y1="711.6" x2="682.6" y2="711.6" gradientTransform="matrix(1, 0, 0, 1, 0, 0)" xlink:href="#g"/></defs><rect x="72.45" y="107.24" width="65.25" height="592.71" fill="#e7dede"/><path d="M170.32,91.54V97.4A13.3,13.3,0,0,1,157,110.71H61.15A13.3,13.3,0,0,1,47.84,97.4V91.54A13.3,13.3,0,0,1,61.15,78.23H157a13.3,13.3,0,0,1,13.31,13.31Z" transform="translate(-4 -3.47)" fill="#e7dede"/><path d="M47.64,699.95H162.52a25.2,25.2,0,0,1,25.2,25.2v17.91a0,0,0,0,1,0,0H22.44a0,0,0,0,1,0,0V725.14A25.2,25.2,0,0,1,47.64,699.95Z" fill="#6b777f"/><rect x="72.45" y="260.82" width="65.25" height="26.68" opacity="0.1" fill="url(#a)"/><rect x="72.45" y="107.24" width="65.25" height="13.34" opacity="0.1" fill="url(#b)"/><rect x="72.45" y="453.19" width="65.25" height="37.79" opacity="0.1" fill="url(#c)"/><rect x="22.44" y="725.73" width="165.28" height="17.32" opacity="0.1" fill="url(#d)"/><path d="M149.07,43.47V78.23h-80V43.47a40,40,0,0,1,66.84-29.64c.49.44,1,.9,1.43,1.36A39.89,39.89,0,0,1,149.07,43.47Z" transform="translate(-4 -3.47)" fill="#f9634e"/><path d="M170.32,91.54V97.4A13.3,13.3,0,0,1,157,110.71H61.15A13.3,13.3,0,0,1,47.84,97.4V97c23.91,2,91.45,5.66,119.44-13.88A13.19,13.19,0,0,1,170.32,91.54Z" transform="translate(-4 -3.47)" opacity="0.08" fill="url(#e)"/><path d="M149.07,43.47V78.23h-80V65.51c21.67-1.14,60.84-9.16,66.84-51.68.49.44,1,.9,1.43,1.36A39.89,39.89,0,0,1,149.07,43.47Z" transform="translate(-4 -3.47)" opacity="0.08" fill="url(#f)"/><ellipse cx="93.86" cy="26.79" rx="21.36" ry="11.27" transform="translate(4.55 70.75) rotate(-45)" opacity="0.4" fill="url(#g)"/><rect x="606.76" y="107.24" width="65.25" height="592.71" fill="#e7dede"/><path d="M704.62,91.54V97.4a13.3,13.3,0,0,1-13.31,13.31H595.45A13.3,13.3,0,0,1,582.14,97.4V91.54a13.3,13.3,0,0,1,13.31-13.31h95.86a13.29,13.29,0,0,1,13.31,13.31Z" transform="translate(-4 -3.47)" fill="#e7dede"/><path d="M581.94,699.95H696.82a25.2,25.2,0,0,1,25.2,25.2v17.91a0,0,0,0,1,0,0H556.74a0,0,0,0,1,0,0V725.14A25.2,25.2,0,0,1,581.94,699.95Z" fill="#6b777f"/><rect x="606.76" y="260.82" width="65.25" height="26.68" opacity="0.1" fill="url(#h)"/><rect x="606.76" y="107.24" width="65.25" height="13.34" opacity="0.1" fill="url(#i)"/><rect x="606.76" y="453.19" width="65.25" height="37.79" opacity="0.1" fill="url(#j)"/><rect x="556.74" y="725.73" width="165.28" height="17.32" opacity="0.1" fill="url(#k)"/><path d="M683.37,43.47V78.23h-80V43.47a40,40,0,0,1,66.84-29.64c.49.44,1,.9,1.43,1.36A39.85,39.85,0,0,1,683.37,43.47Z" transform="translate(-4 -3.47)" fill="#f9634e"/><path d="M704.62,91.54V97.4a13.3,13.3,0,0,1-13.31,13.31H595.45A13.3,13.3,0,0,1,582.14,97.4V97c23.91,2,91.46,5.66,119.45-13.88A13.24,13.24,0,0,1,704.62,91.54Z" transform="translate(-4 -3.47)" opacity="0.08" fill="url(#l)"/><path d="M683.37,43.47V78.23h-80V65.51c21.67-1.14,60.84-9.16,66.84-51.68.49.44,1,.9,1.43,1.36A39.85,39.85,0,0,1,683.37,43.47Z" transform="translate(-4 -3.47)" opacity="0.08" fill="url(#m)"/><ellipse cx="628.17" cy="26.79" rx="21.36" ry="11.27" transform="translate(161.04 448.56) rotate(-45)" opacity="0.4" fill="url(#n)"/><rect y="120.58" width="742" height="140.25" rx="19.88" fill="#fab233"/><path d="M746,144.29v99.76a20.36,20.36,0,0,1-20.45,20.25H24.45A20.36,20.36,0,0,1,4,244.05V144.29a20.34,20.34,0,0,1,20.45-20.23h701.1A20.34,20.34,0,0,1,746,144.29Z" transform="translate(-4 -3.47)" fill="#fab233"/><polygon points="79.99 260.82 24.27 260.82 72.95 120.58 128.67 120.58 79.99 260.82" fill="#515960"/><polygon points="197.8 260.82 142.08 260.82 190.76 120.58 246.48 120.58 197.8 260.82" fill="#515960"/><polygon points="315.61 260.82 259.89 260.82 308.57 120.58 364.29 120.58 315.61 260.82" fill="#515960"/><polygon points="433.42 260.82 377.7 260.82 426.39 120.58 482.1 120.58 433.42 260.82" fill="#515960"/><polygon points="551.23 260.82 495.51 260.82 544.2 120.58 599.91 120.58 551.23 260.82" fill="#515960"/><polygon points="669.04 260.82 613.32 260.82 662.01 120.58 717.73 120.58 669.04 260.82" fill="#515960"/><path d="M4,226.26v17.79A20.36,20.36,0,0,0,24.45,264.3h701.1A20.36,20.36,0,0,0,746,244.05V226.26Z" transform="translate(-4 -3.47)" opacity="0.1" fill="url(#o)"/><path d="M746,144.29v7.58H4v-7.58a20.34,20.34,0,0,1,20.45-20.23h701.1A20.34,20.34,0,0,1,746,144.29Z" transform="translate(-4 -3.47)" opacity="0.25" fill="url(#p)"/><rect y="312.94" width="742" height="140.25" rx="19.88" fill="#fab233"/><path d="M746,336.66v99.75a20.36,20.36,0,0,1-20.45,20.25H24.45A20.36,20.36,0,0,1,4,436.41V336.66a20.34,20.34,0,0,1,20.45-20.24h701.1A20.34,20.34,0,0,1,746,336.66Z" transform="translate(-4 -3.47)" fill="#fab233"/><polygon points="79.99 453.19 24.27 453.19 72.95 312.94 128.67 312.94 79.99 453.19" fill="#515960"/><polygon points="197.8 453.19 142.08 453.19 190.76 312.94 246.48 312.94 197.8 453.19" fill="#515960"/><polygon points="315.61 453.19 259.89 453.19 308.57 312.94 364.29 312.94 315.61 453.19" fill="#515960"/><polygon points="433.42 453.19 377.7 453.19 426.39 312.94 482.1 312.94 433.42 453.19" fill="#515960"/><polygon points="551.23 453.19 495.51 453.19 544.2 312.94 599.91 312.94 551.23 453.19" fill="#515960"/><polygon points="669.04 453.19 613.32 453.19 662.01 312.94 717.73 312.94 669.04 453.19" fill="#515960"/><path d="M4,418.63v17.78a20.36,20.36,0,0,0,20.45,20.25h701.1A20.36,20.36,0,0,0,746,436.41V418.63Z" transform="translate(-4 -3.47)" opacity="0.1" fill="url(#q)"/><path d="M746,336.66v7.57H4v-7.57a20.34,20.34,0,0,1,20.45-20.24h701.1A20.34,20.34,0,0,1,746,336.66Z" transform="translate(-4 -3.47)" opacity="0.25" fill="url(#r)"/><rect x="38.18" y="706.69" width="72.04" height="9.81" rx="4.79" opacity="0.4" fill="url(#s)"/><rect x="126.16" y="706.69" width="20.33" height="9.81" rx="4.79" opacity="0.4" fill="url(#t)"/><rect x="574.3" y="706.69" width="72.04" height="9.81" rx="4.79" opacity="0.4" fill="url(#u)"/><rect x="662.27" y="706.69" width="20.33" height="9.81" rx="4.79" opacity="0.4" fill="url(#v)"/></svg>