<svg xmlns="http://www.w3.org/2000/svg" xmlns:xlink="http://www.w3.org/1999/xlink" viewBox="0 0 606 742.83"><defs><linearGradient id="a" x1="271.84" y1="344.56" x2="582.19" y2="344.56" gradientUnits="userSpaceOnUse"><stop offset="0"/><stop offset="1"/></linearGradient><linearGradient id="b" x1="-1117.32" y1="423.53" x2="-1023.2" y2="423.53" gradientTransform="matrix(-1, -0.22, 0.24, -1.12, -853.12, 504.36)" gradientUnits="userSpaceOnUse"><stop offset="0.01" stop-color="#fff"/><stop offset="1" stop-color="#fff"/></linearGradient></defs><path d="M677.54,685.8c0,33.48-135.55,60.62-302.77,60.62S72,719.28,72,685.8v-18c0-39.26,171-42.59,302.77-42.59,156.76,0,287.27,12,302.77,42.59C678.57,669.81,677.54,683.71,677.54,685.8Z" transform="translate(-72 -3.58)" fill="#f99135"/><path d="M677.54,667.77c0,33.48-135.55,60.62-302.77,60.62S72,701.25,72,667.77s123.24-95.22,290.46-95.22S677.54,634.29,677.54,667.77Z" transform="translate(-72 -3.58)" fill="#f9a435"/><path d="M582.19,639.79c-106,26.85-208.21,43.48-310.35,34.75A590.37,590.37,0,0,1,167.38,656.2l10.88-48.15,15.31-67.84,20.19-89.44,15.34-67.95,20.21-89.52,15.38-68.1,20.17-89.34,15.42-68.31,11.45-50.69C339,.8,383.08-.62,413.19,12.23L424.43,54l17.5,65,22.41,83.21L482,267.73l22,81.58,17.91,66.55,21.53,79.92,18.28,67.89Z" transform="translate(-72 -3.58)" fill="#f9a435"/><path d="M441.93,118.93a807.76,807.76,0,0,1-157.07,16.93l15.42-68.31A708.91,708.91,0,0,0,424.43,54Z" transform="translate(-72 -3.58)" fill="#f8f8f8"/><path d="M482,267.73A987.93,987.93,0,0,1,249.31,293.3l15.38-68.1q104-.12,199.65-23.06Z" transform="translate(-72 -3.58)" fill="#f8f8f8"/><path d="M521.88,415.86Q372,454.61,213.76,450.77l15.34-67.95q145,2.49,274.87-33.51Z" transform="translate(-72 -3.58)" fill="#f8f8f8"/><path d="M561.69,563.67q-185.39,51.76-383.43,44.38l15.31-67.84q186.78,6,349.84-44.43Z" transform="translate(-72 -3.58)" fill="#f8f8f8"/><path d="M582.19,639.79c-106,26.85-208.21,43.48-310.35,34.75,45.43-33.34,119.88-97.69,144.45-176.24,36.27-115.89-3.1-486.07-3.1-486.07L424.43,54l17.5,65,22.41,83.21L482,267.73l22,81.58,17.91,66.55,21.53,79.92,18.28,67.89Z" transform="translate(-72 -3.58)" opacity="0.07" fill="url(#a)"/><path d="M274.2,249.23c23.14-105.07,46.47-187.57,58.1-189.31,34.26-5.13,28.75,188.67,14.33,301.52C332.52,471.84,293,462.17,259.87,455S250.22,358.14,274.2,249.23Z" transform="translate(-72 -3.58)" opacity="0.3" fill="url(#b)"/></svg>