<svg xmlns="http://www.w3.org/2000/svg" xmlns:xlink="http://www.w3.org/1999/xlink" viewBox="0 0 744 678.77"><defs><linearGradient id="a" x1="90.45" y1="390.49" x2="318.77" y2="390.49" gradientTransform="translate(177.9 -31.33) rotate(6.58)" gradientUnits="userSpaceOnUse"><stop offset="0"/><stop offset="1"/></linearGradient><linearGradient id="b" x1="559.84" y1="-2593.69" x2="656.08" y2="-2593.69" gradientTransform="matrix(1.06, 0.67, -0.61, 0.97, -1871, 2322.41)" gradientUnits="userSpaceOnUse"><stop offset="0.01" stop-color="#fff"/><stop offset="1" stop-color="#fff"/></linearGradient><linearGradient id="c" x1="147.43" y1="373.7" x2="562.11" y2="373.7" xlink:href="#a"/><linearGradient id="d" x1="-266.98" y1="325.63" x2="-96.53" y2="325.63" gradientTransform="translate(393.49 -24.82) rotate(14.62)" xlink:href="#a"/><linearGradient id="e" x1="-267.61" y1="390.71" x2="-96.53" y2="390.71" gradientTransform="translate(393.49 -24.82) rotate(14.62)" xlink:href="#a"/></defs><path d="M590.08,52.55v0l-.38-.09c-2.84-.83-5.7-1.61-8.6-2.3q-6.11-1.43-12.23-2.38L534.41,40l-1.33,6c-110.9,6.57-219,121.08-254.94,280.29C241.8,487.31,291.38,640.1,390.44,694L389,700.64,432.14,710c126.19,29.67,261.83-94,303-276.2C775.25,256,710.52,88.09,590.08,52.55Z" transform="translate(-3 -35.62)" fill="#3d454c"/><path d="M688.42,423.65c-41.13,182.21-176.77,305.87-303,276.2C279.28,674.88,213.61,549.31,220,401.57q.39-9,1.13-18.06a485.74,485.74,0,0,1,10.34-67.3C272.59,134,408.23,10.34,534.41,40S729.55,241.44,688.42,423.65Z" transform="translate(-3 -35.62)" fill="#f9634e"/><path d="M405.59,656.12a109.11,109.11,0,0,1-12.53-2.19c-25-5.88-71.5-27.06-101.94-102.89-25.41-63.29-29.77-144.87-11.95-223.81,17.12-75.8,52.45-142.91,99.51-189C420,97.79,465.87,78.16,507.75,83a108.73,108.73,0,0,1,12.53,2.19c25,5.88,71.51,27.06,102,102.89,25.41,63.29,29.76,144.87,11.94,223.81-17.11,75.81-52.45,142.92-99.5,189C493.31,641.32,447.47,661,405.59,656.12Zm97.14-529.61c-28.5-3.29-61.68,12-93.41,43.06-41.1,40.22-72.14,99.64-87.42,167.31-15.91,70.48-12.31,142.59,9.87,197.85,23.06,57.45,54.58,72.62,71.32,76.56a64.28,64.28,0,0,0,7.52,1.31c28.51,3.29,61.68-12,93.42-43.06,41.09-40.22,72.13-99.64,87.41-167.31,15.91-70.48,12.32-142.59-9.86-197.84-23.07-57.46-54.59-72.63-71.33-76.57A64.28,64.28,0,0,0,502.73,126.51Z" transform="translate(-3 -35.62)" fill="#f8f8f8"/><path d="M417.89,556.37a42,42,0,0,1-5.71-1.29c-11.82-3.58-33.56-16.64-46.25-63.85-11.3-42-10.45-96.31,2.31-149,12.26-50.59,34-95.11,61.11-125.35,22.52-25.07,46-37.19,66.11-34.14a41.88,41.88,0,0,1,5.7,1.29c11.83,3.58,33.56,16.64,46.26,63.85,11.29,42,10.45,96.31-2.32,149-12.25,50.59-34,95.11-61.11,125.35C461.48,547.3,438,559.42,417.89,556.37Z" transform="translate(-3 -35.62)" fill="#f8f8f8"/><path d="M431.89,495.26a17.86,17.86,0,0,1-3.11-.76c-6.43-2.17-18.13-10.5-24.23-41.85-5.42-27.89-3.94-64.24,4.05-99.73,7.67-34.08,20.43-64.26,35.9-85,12.84-17.19,26-25.74,37-24.07a18.08,18.08,0,0,1,3.11.76c6.43,2.17,18.12,10.5,24.22,41.85,5.42,27.89,3.95,64.24-4,99.73-7.68,34.08-20.43,64.26-35.91,85C456,488.38,442.88,496.93,431.89,495.26Z" transform="translate(-3 -35.62)" fill="#f9634e"/><path d="M420,347.43,452.05,374,219.73,408.81c.26-6,1.58-25.29,2.08-31.34Z" transform="translate(-3 -35.62)" opacity="0.1" fill="url(#a)"/><path d="M410.87,248.43c-54.33,86.21-93.29,156.94-125.48,136.65s-28-119.68,26.3-205.89S449.93,52.62,482.12,72.91,465.19,162.23,410.87,248.43Z" transform="translate(-3 -35.62)" opacity="0.2" fill="url(#b)"/><path d="M688.42,423.65C724.06,265.79,677,115.78,581.78,59.22c19.51,74.31,62.83,315.58-146.21,461.53-57.89,40.41-119.7,59.71-180.48,65.53,28.8,58.48,73.84,100.28,130.36,113.57C511.65,729.52,647.29,605.86,688.42,423.65Z" transform="translate(-3 -35.62)" opacity="0.1" fill="url(#c)"/><path d="M452.05,374,32.37,264.55C29.6,253.27,31,244,39.29,238L459,347.44Q466.81,363.66,452.05,374Z" transform="translate(-3 -35.62)" fill="#3d454c"/><polygon points="210.35 247.78 53.2 206.79 49.56 188.89 39.04 137.32 77.5 147.35 94.86 191.09 93.96 151.64 142.47 164.29 156.33 203.81 158.03 168.35 190.15 176.73 198.88 207.44 210.35 247.78" fill="#05a9e9"/><polygon points="203.43 274.32 171.23 306.4 151.11 326.45 118.99 318.08 134.81 286.3 103.42 314.02 54.91 301.37 74.97 267.38 38.46 297.07 0 287.05 33.43 248.25 46.28 233.34 203.43 274.32" fill="#05a9e9"/><path d="M213.35,283.39l-157.15-41-3.64-17.9c23.9,8.38,68.08,23,103.72,29.75,20.07,3.81,34.94-2.31,45.6-11.21Z" transform="translate(-3 -35.62)" opacity="0.07" fill="url(#d)"/><path d="M206.43,309.94,174.23,342a76.39,76.39,0,0,0-23.81-20.72c-38.87-21.78-90.17-33.07-114-37.43L49.28,269Z" transform="translate(-3 -35.62)" opacity="0.07" fill="url(#e)"/></svg>