<svg xmlns="http://www.w3.org/2000/svg" xmlns:xlink="http://www.w3.org/1999/xlink" viewBox="0 0 744 638.73"><defs><linearGradient id="a" x1="637.41" y1="577.91" x2="743.4" y2="577.91" gradientUnits="userSpaceOnUse"><stop offset="0"/><stop offset="1"/></linearGradient><linearGradient id="b" x1="3" y1="412.59" x2="100.14" y2="412.59" xlink:href="#a"/><linearGradient id="c" x1="395.35" y1="524.58" x2="448.18" y2="524.58" xlink:href="#a"/><linearGradient id="d" x1="455.27" y1="309.49" x2="548.97" y2="309.49" xlink:href="#a"/><linearGradient id="e" x1="450.77" y1="182.91" x2="570.47" y2="182.91" xlink:href="#a"/><linearGradient id="f" x1="456.6" y1="254.06" x2="625.49" y2="254.06" xlink:href="#a"/><linearGradient id="g" x1="787.49" y1="-401.86" x2="856.63" y2="-401.86" gradientTransform="matrix(0.43, 0.5, -0.53, 0.45, -113.42, -113.46)" gradientUnits="userSpaceOnUse"><stop offset="0.01" stop-color="#fff"/><stop offset="1" stop-color="#fff"/></linearGradient></defs><path d="M746.87,537.85C689.22,460.77,639.69,396.08,583.6,319.46,408,324.59,280.42,329,94.28,338.63L111.71,493c-75.78,8.46-108.54,72.22-95,125.8,9.61,38.11,42.48,74.53,100.24,75.3,161.21,2.15,298.5-9.31,480.32-37h0C634.61,646.55,730.5,583.28,747,538Z" transform="translate(-3 -55.64)" fill="#f8f8f8"/><path d="M731.21,534.69,624.16,636.89s-103.14,20.78-228.28,34c-96.09,10.18-205.16,15.94-290.47,4.46C3,661.61,19.3,551.79,19.3,551.79l29-83.42L89,351.38l295.36-12.44,34.32-1.44,20.17-.85,43.24-1.81,96.19-4.06,33.62,44.83,54.53,72.71Z" transform="translate(-3 -55.64)" fill="#aeecff"/><path d="M731.21,534.69,624.16,636.89s-103.14,20.78-228.28,34c2.16-36.23-2.07-62.69-32.89-89-12.07-10.31-46.86-27.15-57.13-39.25s-16.9-39.89-10.68-54.5c8.52-20,35.3-19.55,55.89-26.5,56.9-19.21,124.31,47.82,163.56,45.22,61.28-4.06,71.53-81.18,138.2-61.1a70.39,70.39,0,0,0,13.6,2.51Z" transform="translate(-3 -55.64)" fill="#a5dd1b"/><path d="M747,538a62.7,62.7,0,0,1-3.6,8c-17,31.73-66.34,69.8-106,92.56-15.83,9.1-30.11,15.75-40.15,18.59h0c22.27-23.65,78.21-58,68-138a11,11,0,0,1,11.24-12.34c24.87.83,58.24,14.89,70.52,31.25Z" transform="translate(-3 -55.64)" fill="#f6f6f6"/><path d="M743.4,546c-17,31.73-66.34,69.8-106,92.56,50-47.23,42.78-121.24,42.78-121.24C725,522.45,743.4,546,743.4,546Z" transform="translate(-3 -55.64)" fill="#aeecff"/><path d="M89,351.38l295.36-12.44a28.42,28.42,0,0,0-3.5,1.73c-12.2,7.15-16.56,22.51-25.95,33.07-22.39,25.2-65.28,16.87-92.72,36.44-17,12.14-26,33.7-44.19,44-20.83,12.66-46.87,5-69.59,6.19-19.64,1-34.12,9.33-51.88,16-16.12,6.05-32.51,1.21-48.22-8Z" transform="translate(-3 -55.64)" fill="#a5dd1b"/><path d="M16.68,618.81c-4.4-9.44-7.73-24.49-10-47.5C2.27,526.66,1.84,452,5.31,330.22q.11-3.95.23-8C11,272.5,41,247.53,83.36,242.05l28.35,251C35.93,501.48,3.17,565.23,16.68,618.81Z" transform="translate(-3 -55.64)" fill="#f6f6f6"/><path d="M100.14,484.32c-46.86,7.86-80.59,34.56-93.46,87C2.27,526.66,1.84,452,5.31,330.22c16.26-47.79,40-72.73,70.68-76.35Z" transform="translate(-3 -55.64)" fill="#aeecff"/><path d="M743.4,546c-17,31.73-66.34,69.8-106,92.56,50-47.23,42.78-121.24,42.78-121.24C725,522.45,743.4,546,743.4,546Z" transform="translate(-3 -55.64)" opacity="0.12" fill="url(#a)"/><path d="M100.14,484.32c-46.86,7.86-80.59,34.56-93.46,87C2.27,526.66,1.84,452,5.31,330.22c16.26-47.79,40-72.73,70.68-76.35Z" transform="translate(-3 -55.64)" opacity="0.12" fill="url(#b)"/><path d="M611.9,375.61c-6.08,4.07-14.4,3.4-20.84,6.95-10.35,5.72-13.23,20.68-24,25.42-9.67,4.23-20.46-1.69-29.64-6.9s-21.19-9.71-29.6-3.35c-7.88,6-7.52,17.59-7.83,27.46s-4.51,22.13-14.38,22.81c-10.29.7-16-11.84-17-22.12s-1.67-22.57-10.6-27.78c-9.29-5.41-20.67.84-30.41,5.41s-24.4,5.7-28.35-4.31c-3.86-9.79,6.82-18.77,16-23.92,19.53-11,41.19-20.65,59.3-33.85a72.88,72.88,0,0,0,7.63-6.59l96.19-4.06Z" transform="translate(-3 -55.64)" fill="#a5dd1b"/><polygon points="435.72 505.15 421.76 515.41 407.81 505.15 395.35 514.31 409.3 524.58 395.35 534.85 407.81 544.02 421.76 533.75 435.72 544.02 448.18 534.85 434.22 524.58 448.18 514.31 435.72 505.15" opacity="0.1" fill="url(#c)"/><polygon points="435.72 496.99 421.76 507.26 407.81 496.99 395.35 506.16 409.3 516.43 395.35 526.7 407.81 535.86 421.76 525.59 435.72 535.86 448.18 526.7 434.22 516.43 448.18 506.16 435.72 496.99" fill="#f9634e"/><ellipse cx="502.12" cy="309.49" rx="46.85" ry="15.09" opacity="0.1" fill="url(#d)"/><path d="M625.49,176c0,116.1-120.37,189.12-120.37,189.12S384.75,292.11,384.75,176a120.37,120.37,0,0,1,240.74,0Z" transform="translate(-3 -55.64)" fill="#f9634e"/><circle cx="502.12" cy="120.37" r="65.35" fill="#f8f8f8"/><path d="M545.27,124.46a65.34,65.34,0,0,1-94.5,87.84,65.35,65.35,0,1,0,94.5-87.84Z" transform="translate(-3 -55.64)" opacity="0.1" fill="url(#e)"/><path d="M620.91,143a206,206,0,0,1-22.57,81.05c-31.62,61.88-88,100.13-141.74,102.08,25.74,25.17,48.52,39,48.52,39s120.37-73,120.37-189.12A120.62,120.62,0,0,0,620.91,143Z" transform="translate(-3 -55.64)" opacity="0.1" fill="url(#f)"/><path d="M396,541.67a47.27,47.27,0,0,0-4.63-8.94l9.45-6.18a58.59,58.59,0,0,1,5.72,11.08Z" transform="translate(-3 -55.64)" fill="#f9634e"/><path d="M377.66,517.74a106.77,106.77,0,0,0-17.41-11.63l5.36-9.93a117.83,117.83,0,0,1,19.26,12.87Zm-36.74-18.8c-6.57-1.64-13.54-2.82-20.28-4l-1-.16,1.89-11.13,1,.16c7,1.18,14.14,2.4,21.13,4.14Zm-43.25-8.43c-7.27-1.68-14.57-3.65-21.71-5.85l3.33-10.79c6.88,2.12,13.92,4,20.93,5.65Zm-42.94-13.25c-7-2.72-13.91-5.71-20.65-8.91l4.84-10.2c6.5,3.09,13.19,6,19.9,8.59ZM214,457.51a78.33,78.33,0,0,1-18-15.42l8.65-7.25A67.1,67.1,0,0,0,220.14,448Zm-29-37.4a44,44,0,0,1-1-9.46,36.68,36.68,0,0,1,3.41-15.75l10.21,4.81a25.46,25.46,0,0,0-2.33,10.94,32.47,32.47,0,0,0,.79,7Zm25.43-33-5.15-10c6.21-3.2,13.67-5.43,22.8-6.83l1.71,11.16C222,382.58,215.62,384.45,210.5,387.08Zm40.78-7.49-.54-11.27,22.06-1.07.54,11.28Zm44.12-2.12-.55-11.28,22.06-1.06.55,11.27Zm44.12-2.13L339,364.07,361,363l.54,11.27Zm44.11-2.12L383.09,362l22.06-1.07.54,11.28Z" transform="translate(-3 -55.64)" fill="#f9634e"/><rect x="427.53" y="359.54" width="11.29" height="11.29" transform="translate(-20.05 -34.4) rotate(-2.75)" fill="#f9634e"/><path d="M466.52,134c-27.69,23.63-48.65,43.44-56.23,34.56s-1.86-44.82,25.83-68.46S503,74.09,510.57,83,494.21,110.36,466.52,134Z" transform="translate(-3 -55.64)" opacity="0.3" fill="url(#g)"/></svg>