<svg xmlns="http://www.w3.org/2000/svg" xmlns:xlink="http://www.w3.org/1999/xlink" viewBox="0 0 522 744.71"><defs><linearGradient id="a" x1="114" y1="650.1" x2="636" y2="650.1" gradientUnits="userSpaceOnUse"><stop offset="0"/><stop offset="1"/></linearGradient><linearGradient id="b" x1="442.21" y1="650.1" y2="650.1" xlink:href="#a"/><linearGradient id="c" x1="147.84" y1="585.32" x2="602.16" y2="585.32" xlink:href="#a"/><linearGradient id="d" x1="268.7" y1="257.11" x2="508.03" y2="257.11" xlink:href="#a"/><linearGradient id="e" x1="280.36" y1="399.37" x2="618.02" y2="399.37" xlink:href="#a"/><linearGradient id="f" x1="476.14" y1="-2581.92" x2="553.15" y2="-2581.92" gradientTransform="matrix(1.06, 0.67, -0.61, 0.97, -1871, 2322.41)" gradientUnits="userSpaceOnUse"><stop offset="0.01" stop-color="#fff"/><stop offset="1" stop-color="#fff"/></linearGradient></defs><path d="M636,614.35V650.1c0,22-15,52.9-86.63,74.9-30.44,9.35-67.21,16-107.16,19.48-21.63,1.9-44.2,2.87-67.21,2.87-65.52,0-127.45-7.94-174.37-22.35C161.1,712.86,114,690,114,650.1V614.35h14.91c12.46-13.78,34.39-27.68,71.72-39.15,46.92-14.41,108.85-22.35,174.37-22.35,23,0,45.58,1,67.21,2.88,40,3.49,76.72,10.12,107.16,19.47,25.76,7.91,54.71,20.39,71.77,39.15Z" transform="translate(-114 -2.65)" fill="#f8f8f8"/><path d="M636,614.35V650.1c0,22-15,52.9-86.63,74.9-30.44,9.35-67.21,16-107.16,19.48-21.63,1.9-44.2,2.87-67.21,2.87-65.52,0-127.45-7.94-174.37-22.35C161.1,712.86,114,690,114,650.1V614.35h14.91c12.46-13.78,34.39-27.68,71.72-39.15,46.92-14.41,108.85-22.35,174.37-22.35,23,0,45.58,1,67.21,2.88,40,3.49,76.72,10.12,107.16,19.47,25.76,7.91,54.71,20.39,71.77,39.15Z" transform="translate(-114 -2.65)" opacity="0.1" fill="url(#a)"/><path d="M636,614.35V650.1c0,22-15,52.9-86.63,74.9-30.44,9.35-67.21,16-107.16,19.48V555.73c40,3.49,76.72,10.12,107.16,19.47,25.76,7.91,54.71,20.39,71.77,39.15Z" transform="translate(-114 -2.65)" opacity="0.1" fill="url(#b)"/><path d="M375,711.6c-65.52,0-127.45-7.94-174.37-22.36-39.52-12.15-86.63-35-86.63-74.9,0-22,15-52.9,86.63-74.9C247.55,525,309.48,517.08,375,517.08S502.45,525,549.37,539.44c39.52,12.15,86.63,35,86.63,74.9,0,22-15,52.9-86.63,74.9C502.45,703.66,440.52,711.6,375,711.6Z" transform="translate(-114 -2.65)" fill="#f8f8f8"/><path d="M260.46,607.24,294.18,615V603.93L181.47,577.78a116.11,116.11,0,0,0-13.83,8l76.56,17.68-73.13,41.63a127.59,127.59,0,0,0,12.43,6.79L226.41,627l16.7,44.18q5.1,1.11,10.41,2.15L234,622.61Z" transform="translate(-114 -2.65)" fill="#f8f8f8"/><path d="M461.15,549.74l-2-.25,2,.45Z" transform="translate(-114 -2.65)" fill="#f8f8f8"/><path d="M467.47,609.29l-1-9.25v.05l-102.3,43.15,19.36-47,58.05-48.68q-5.24-.5-10.58-.91l-53.27,43.94-22.89-22.29.35-23.52q-7.12.18-14.13.51v25.23l31.29,30.26-23.24,53.3-54.95-50.18V615l71.56,69.06q4.61.06,9.26.06c2.48,0,4.95,0,7.42,0l-27.2-24.43Z" transform="translate(-114 -2.65)" fill="#f8f8f8"/><path d="M575.47,581.49a164.64,164.64,0,0,0-22.13-10.39l-29.57-.55-2.72-9.67q-5.12-1.32-10.46-2.55l5.87,20.75Z" transform="translate(-114 -2.65)" fill="#f8f8f8"/><path d="M461.17,549.94h.05l.59-.13-.66-.08Z" transform="translate(-114 -2.65)" fill="#f8f8f8"/><path d="M461.22,550,466.49,600l1,9.25.11,0v0h.06l51.74,11.5-5,48.74q8.19-2,15.74-4.13L534.22,624l56.24,12.49a45,45,0,0,0,6.78-7.66L466.49,600.09Z" transform="translate(-114 -2.65)" fill="#f8f8f8"/><path d="M167.64,585.8c-12.72,8.71-19.8,18.37-19.8,28.54,0,11,8.36,21.49,23.23,30.77l73.13-41.63Z" transform="translate(-114 -2.65)" fill="#a5dd1b"/><path d="M294.18,549.09c-47.07,5.51-86.64,15.69-112.71,28.69l112.71,26.15Z" transform="translate(-114 -2.65)" fill="#05a9e9"/><path d="M467.47,609.29,355.22,659.67l27.2,24.43a671.72,671.72,0,0,0,92.29-7l-7.13-67.83Z" transform="translate(-114 -2.65)" fill="#05a9e9"/><path d="M349.13,654.11l23.24-53.3-31.29-30.26V545.32c-16.26.74-32,2-46.9,3.77v54.84Z" transform="translate(-114 -2.65)" fill="#05a9e9"/><path d="M294.18,679.59a691.6,691.6,0,0,0,71.56,4.49L294.18,615Z" transform="translate(-114 -2.65)" fill="#a5dd1b"/><path d="M553.34,571.1a290.55,290.55,0,0,0-32.29-10.22l2.72,9.67Z" transform="translate(-114 -2.65)" fill="#a5dd1b"/><path d="M530.13,665.32c27.26-7.83,48.23-17.7,60.33-28.82L534.22,624Z" transform="translate(-114 -2.65)" fill="#a5dd1b"/><path d="M466.49,600.09l130.75,28.75a25.43,25.43,0,0,0,4.92-14.5c0-11.88-9.66-23.06-26.69-32.85l-59-2.41-5.87-20.75c-14.95-3.42-31.32-6.29-48.78-8.51l-.59.13Z" transform="translate(-114 -2.65)" fill="#fd8e77"/><path d="M467.64,609.21h-.06v0l7.13,67.83c14.11-2.12,27.4-4.68,39.68-7.62l5-48.74Z" transform="translate(-114 -2.65)" fill="#05a9e9"/><path d="M377.75,590.62,431,546.68c-17.92-1.39-36.69-2.14-56-2.14q-10,0-19.79.27l-.35,23.52Z" transform="translate(-114 -2.65)" fill="#a5dd1b"/><path d="M364.19,643.24l102.3-43.15V600L461.22,550h-.05l-2-.45c-5.74-.7-11.61-1.34-17.57-1.9l-58.05,48.68Z" transform="translate(-114 -2.65)" fill="#fd8e77"/><path d="M260.46,607.24,234,622.61l19.55,50.72c12.75,2.48,26.36,4.58,40.66,6.26V615Z" transform="translate(-114 -2.65)" fill="#a5dd1b"/><path d="M183.5,651.9c15.69,7.54,36,14.09,59.61,19.28L226.41,627Z" transform="translate(-114 -2.65)" fill="#fd8e77"/><path d="M375,544.54c-125.46,0-227.16,31.25-227.16,69.8a24.11,24.11,0,0,0,3.22,11.75c18.19-33,111.52-58,223.94-58h.73L378.12,618l134.35-36.55c45.09,9.46,76.63,26.85,86.47,44.67a24.11,24.11,0,0,0,3.22-11.75C602.16,575.79,500.46,544.54,375,544.54Z" transform="translate(-114 -2.65)" opacity="0.2" fill="url(#c)"/><path d="M618,243.31c0,232.12-240.66,378.12-240.66,378.12S136.7,475.43,136.7,243.31C136.7,110.39,244.45,2.65,377.36,2.65S618,110.39,618,243.31Z" transform="translate(-114 -2.65)" fill="#f9634e"/><circle cx="263.36" cy="240.66" r="130.67" fill="#f8f8f8"/><path d="M457.64,140.25A130.64,130.64,0,0,1,268.7,315.88,130.66,130.66,0,1,0,457.64,140.25Z" transform="translate(-114 -2.65)" opacity="0.1" fill="url(#d)"/><path d="M608.86,177.31c-3.18,53.17-17.9,108.76-45.12,162.05-63.22,123.73-176,200.21-283.38,204.1,51.46,50.33,97,78,97,78S618,475.43,618,243.31A240.76,240.76,0,0,0,608.86,177.31Z" transform="translate(-114 -2.65)" opacity="0.1" fill="url(#e)"/><path d="M294.42,190.53C251,259.5,219.78,316.1,194,299.87s-22.43-95.76,21-164.74,110.61-101.27,136.37-85S337.88,121.56,294.42,190.53Z" transform="translate(-114 -2.65)" opacity="0.2" fill="url(#f)"/></svg>