<svg xmlns="http://www.w3.org/2000/svg" xmlns:xlink="http://www.w3.org/1999/xlink" viewBox="0 0 742 552.99"><defs><linearGradient id="a" x1="299.98" y1="175.98" x2="653.8" y2="175.98" gradientUnits="userSpaceOnUse"><stop offset="0"/><stop offset="1"/></linearGradient><linearGradient id="b" x1="63.52" y1="292.99" x2="178.68" y2="292.99" gradientUnits="userSpaceOnUse"><stop offset="0.01" stop-color="#fff"/><stop offset="1" stop-color="#fff"/></linearGradient><linearGradient id="c" x1="495.56" y1="330.22" x2="607.51" y2="330.22" xlink:href="#b"/><linearGradient id="d" x1="525.36" y1="306.03" x2="655.79" y2="306.03" xlink:href="#a"/><linearGradient id="e" x1="137.31" y1="288.72" x2="422.72" y2="288.72" xlink:href="#a"/><linearGradient id="f" x1="287.52" y1="366.94" x2="322.88" y2="366.94" xlink:href="#a"/><linearGradient id="g" x1="368.1" y1="373.5" x2="401.99" y2="373.5" xlink:href="#a"/><linearGradient id="h" x1="446.32" y1="378.36" x2="476.89" y2="378.36" xlink:href="#a"/><linearGradient id="i" x1="517.98" y1="379.06" x2="548.61" y2="379.06" xlink:href="#a"/><linearGradient id="j" x1="14.05" y1="369.85" x2="746" y2="369.85" xlink:href="#a"/><linearGradient id="k" x1="401.99" y1="539.55" x2="618.89" y2="539.55" xlink:href="#a"/><linearGradient id="l" x1="267.89" y1="534.87" x2="465.43" y2="534.87" xlink:href="#b"/><linearGradient id="m" x1="588.41" y1="439.7" x2="667.99" y2="439.7" xlink:href="#b"/><linearGradient id="n" x1="641.67" y1="442.07" x2="742.63" y2="442.07" xlink:href="#a"/><linearGradient id="o" x1="76.48" y1="355.9" x2="200.36" y2="355.9" xlink:href="#a"/><linearGradient id="p" x1="85.36" y1="309.49" x2="167.12" y2="309.49" xlink:href="#b"/></defs><path d="M650.8,198.51c-19.33,31.3-321.32,29.83-343.18,3-7.94-9.73-9.21-18.84-6-26.5,7.63-18.29,40.8-28.27,69.23-18.65-3-50.09,80.07-62.63,97.92-20.2,13.27-49.5,103-48.89,126-6,5,9.33,6.84,20.67,4,33.92C633.22,157.27,663.62,177.77,650.8,198.51Z" transform="translate(-4 -98.51)" fill="#f9f2f2"/><path d="M650.8,198.51c-19.33,31.3-321.32,29.83-343.18,3-7.94-9.73-9.21-18.84-6-26.5,35.69,6.66,111.3,18.64,185.45,16.74,72.22-1.86,98.52-39.72,107.73-61.63,5,9.33,6.84,20.67,4,33.92C633.22,157.27,663.62,177.77,650.8,198.51Z" transform="translate(-4 -98.51)" opacity="0.05" fill="url(#a)"/><path d="M422.72,368c-22.06,15.23-47.56,26.28-74.52,33.15-54.58,13.92-115.15,10.76-165.29-9.09,0,0-142.23-145.82-131.57-167.77,8.25-17,45.69-46.77,86-47.94a75.34,75.34,0,0,1,35.45,7.37C246.22,219.2,422.72,368,422.72,368Z" transform="translate(-4 -98.51)" fill="#05a9e9"/><path d="M63.52,233.92s37.86,63.73,74.9,91l37.05,27.28,3.21-23.11S76.48,229.13,63.52,233.92Z" transform="translate(-4 -98.51)" opacity="0.3" fill="url(#b)"/><path d="M655.79,338.9C620.34,362,569,364.69,530.38,348.22c0,0-2-2.81-5-7.39-12.19-18.14-41.95-64.06-37.28-73.1S521.35,250,546.2,253.3a57.36,57.36,0,0,1,18.61,5.53C602.64,278.34,655.79,338.9,655.79,338.9Z" transform="translate(-4 -98.51)" fill="#05a9e9"/><path d="M495.56,271.07s23.65,60.4,60.69,87.68,51.26,30.61,51.26,30.61v-16S507.75,278.34,495.56,271.07Z" transform="translate(-4 -98.51)" opacity="0.3" fill="url(#c)"/><path d="M655.79,338.9C620.34,362,569,364.69,530.38,348.22c0,0-2-2.81-5-7.39,22.43-7.73,54.91-22.78,49.83-43.85-4.93-20.44-19.33-35.52-29-43.68a57.36,57.36,0,0,1,18.61,5.53C602.64,278.34,655.79,338.9,655.79,338.9Z" transform="translate(-4 -98.51)" opacity="0.05" fill="url(#d)"/><path d="M422.72,368c-22.06,15.23-47.56,26.28-74.52,33.15-14.82-30.87-49.57-95.34-100.39-141.44-53-48.08-94.2-73.93-110.5-83.36a75.34,75.34,0,0,1,35.45,7.37C246.22,219.2,422.72,368,422.72,368Z" transform="translate(-4 -98.51)" opacity="0.05" fill="url(#e)"/><path d="M688.66,421.12C579.27,492.29,256.44,530.91,72.46,493.8A83.72,83.72,0,0,1,56.88,489C-.65,465.21-24,381.48,53.2,349a144.13,144.13,0,0,1,23.28-7.44l.79-.19s13.52-30.71,34.32-52.48c7.14-7.47,15.13-13.89,23.74-17.65,144.14-63,354.7,45.12,478.9,33,21.2-29.48,46.71-67.65,72.43-75.71,21.64-6.78,57.56,8.12,57.56,8.12C753,246,728.43,395.24,688.66,421.12Z" transform="translate(-4 -98.51)" fill="#aeecff"/><path d="M176.25,376.38c-23.83,8.74-66.78-6.63-99.77-34.87l.79-.18s.33-.77,1-2.13c1.25-2.66,3.69-7.62,7.11-13.73,6-10.7,15.07-25,26.23-36.63,10.84,14.43,33.94,25.26,55.53,33.58,10.58,4.08,20.81,7.56,29,10.56l3.69,1.36C202.5,353.56,194.91,368.63,176.25,376.38Z" transform="translate(-4 -98.51)" fill="#3561a0"/><path d="M284.31,391.09c6.21,7,28.27,5.21,33.51,1.65s7.05-41.77,2.36-48.11-28.44-7.84-33.51-1.65S278.1,384.1,284.31,391.09Z" transform="translate(-4 -98.51)" fill="#3561a0"/><path d="M365.13,396.55c5.93,6.68,27,5,32,1.57s6.74-39.91,2.26-46-27.18-7.49-32-1.58S359.2,389.87,365.13,396.55Z" transform="translate(-4 -98.51)" fill="#3561a0"/><path d="M443.87,399c5.32,6,24.2,4.46,28.68,1.41s6-35.75,2-41.18-24.35-6.71-28.68-1.41S438.56,393,443.87,399Z" transform="translate(-4 -98.51)" fill="#3561a0"/><path d="M515.53,399.69c5.32,6,24.24,4.47,28.74,1.41s6-35.82,2-41.26-24.39-6.71-28.73-1.41S510.21,393.7,515.53,399.69Z" transform="translate(-4 -98.51)" fill="#3561a0"/><path d="M320.18,344.63c-4.47-6.05-26.23-7.68-32.66-2.47,9.06-1.67,22.72.37,26.16,5,4.54,6.15,3,42.2-1.89,47.68a18.3,18.3,0,0,0,6-2.11C323.06,389.18,324.87,351,320.18,344.63Z" transform="translate(-4 -98.51)" opacity="0.15" fill="url(#f)"/><path d="M399.41,352.15c-4.29-5.81-25.29-7.35-31.31-2.28,8.66-1.53,21.54.42,24.8,4.82,4.33,5.86,2.86,40.08-1.75,45.5a17.88,17.88,0,0,0,6-2.07C402.16,394.72,403.89,358.21,399.41,352.15Z" transform="translate(-4 -98.51)" opacity="0.15" fill="url(#g)"/><path d="M474.58,359.18c-3.9-5.27-23.18-6.63-28.26-1.85,7.74-1.23,18.89.53,21.75,4.4,3.84,5.19,2.59,35.3-1.45,40.59a17,17,0,0,0,5.93-2C477,397.31,478.59,364.61,474.58,359.18Z" transform="translate(-4 -98.51)" opacity="0.15" fill="url(#h)"/><path d="M546.29,359.84c-3.9-5.28-23.21-6.63-28.31-1.85,7.76-1.24,18.94.52,21.81,4.4,3.84,5.2,2.59,35.38-1.46,40.68a17.13,17.13,0,0,0,5.94-2C548.76,398.05,550.31,365.28,546.29,359.84Z" transform="translate(-4 -98.51)" opacity="0.15" fill="url(#i)"/><path d="M56.88,489C-.65,465.21-24,381.48,53.2,349,109.85,382.35,92.34,480.52,56.88,489Z" transform="translate(-4 -98.51)" fill="#fab233"/><path d="M729.21,231.55c-9.08,60.72-46.47,172.27-198.56,194.25-227.85,32.92-392.23,47.34-516.6,25.1A88.16,88.16,0,0,0,56.88,489a83.72,83.72,0,0,0,15.58,4.76c184,37.11,506.81-1.51,616.2-72.68C728.43,395.24,753,246,744.22,236.64A155,155,0,0,0,729.21,231.55Z" transform="translate(-4 -98.51)" opacity="0.05" fill="url(#j)"/><path d="M618.38,625.05c-10.65,21.94-112,39-163.25,14.22-2.55-1.23-5.2-2.59-7.94-4.06-76.12-40.73-220.63-167.74-220.63-167.74C275.39,433.77,341,420.65,402,427.61a253.5,253.5,0,0,1,64.39,15.81S629,603.1,618.38,625.05Z" transform="translate(-4 -98.51)" fill="#05a9e9"/><path d="M742.38,485.91c-4.82,11.83-52.68,20-77.25,6-1.67-.94-3.41-2-5.18-3.16-35.81-23.05-92.48-83.06-92.48-83.06,20.56-16.08,47.77-22.91,74.2-20.81a112.68,112.68,0,0,1,39.24,10.27S747.19,474.07,742.38,485.91Z" transform="translate(-4 -98.51)" fill="#05a9e9"/><path d="M618.38,625.05c-10.65,21.94-112,39-163.25,14.22-2.55-1.23-5.2-2.59-7.94-4.06,49.85-7,112.4-22.06,92.19-52.79C507,533.21,402,427.61,402,427.61a253.5,253.5,0,0,1,64.39,15.81S629,603.1,618.38,625.05Z" transform="translate(-4 -98.51)" opacity="0.05" fill="url(#k)"/><path d="M465.43,607.68,304.16,462.4s-26.14-2.58-35.86,6.43S422.73,598.58,465.43,607.68Z" transform="translate(-4 -98.51)" opacity="0.3" fill="url(#l)"/><path d="M668,478.29l-68.14-77.17a27.74,27.74,0,0,0-11.17,6C583.82,411.61,646.64,473.74,668,478.29Z" transform="translate(-4 -98.51)" opacity="0.3" fill="url(#m)"/><path d="M742.38,485.91c-4.82,11.83-52.68,20-77.25,6-1.67-.94-3.41-2-5.18-3.16,25.79-.15,53.57-3,50.1-14.89-5.47-18.68-54.91-74.12-68.38-89a112.68,112.68,0,0,1,39.24,10.27S747.19,474.07,742.38,485.91Z" transform="translate(-4 -98.51)" opacity="0.05" fill="url(#n)"/><path d="M176.25,376.38c-23.83,8.74-66.78-6.63-99.77-34.87l.79-.18s.33-.77,1-2.13c17.6,10.16,49.24,23.57,85.24,16.37,17.9-3.57,27.66-12.36,32.67-22.59l3.69,1.36C202.5,353.56,194.91,368.63,176.25,376.38Z" transform="translate(-4 -98.51)" opacity="0.1" fill="url(#o)"/><path d="M167.12,322.42a133,133,0,0,1-26.06,6.4,144.88,144.88,0,0,1-55.7-3.35c6-10.7,15.07-25,26.23-36.63C122.43,303.27,145.53,314.1,167.12,322.42Z" transform="translate(-4 -98.51)" opacity="0.2" fill="url(#p)"/></svg>