<svg xmlns="http://www.w3.org/2000/svg" xmlns:xlink="http://www.w3.org/1999/xlink" viewBox="0 0 746 704.51"><defs><linearGradient id="a" x1="513.4" y1="69.91" x2="624.36" y2="69.91" gradientUnits="userSpaceOnUse"><stop offset="0"/><stop offset="1"/></linearGradient><linearGradient id="b" x1="78.08" y1="183.18" x2="667.92" y2="183.18" xlink:href="#a"/><linearGradient id="c" x1="8.4" y1="205.12" x2="741.45" y2="205.12" xlink:href="#a"/><linearGradient id="d" x1="80.09" y1="553.07" x2="669.91" y2="553.07" xlink:href="#a"/><linearGradient id="e" x1="429.16" y1="450.82" x2="582.92" y2="450.82" xlink:href="#a"/><linearGradient id="f" x1="160.47" y1="363.61" x2="356.16" y2="363.61" xlink:href="#a"/><linearGradient id="g" x1="173.22" y1="532.16" x2="347.41" y2="532.16" xlink:href="#a"/><linearGradient id="h" x1="496.64" y1="73.52" x2="645.13" y2="73.52" xlink:href="#a"/></defs><rect x="513.4" y="59.14" width="110.96" height="163.57" fill="#f9634e"/><rect x="513.4" y="59.14" width="110.96" height="21.53" opacity="0.08" fill="url(#a)"/><path d="M645.13,65.14a16.75,16.75,0,0,1-16.76,16.75h-115a16.75,16.75,0,0,1,0-33.5h115a16.75,16.75,0,0,1,16.76,16.75Z" transform="translate(-2 -22.75)" fill="#fab233"/><path d="M26.46,649.21H719.54A26.46,26.46,0,0,1,746,675.67v28.84a0,0,0,0,1,0,0H0a0,0,0,0,1,0,0V675.67A26.46,26.46,0,0,1,26.46,649.21Z" fill="#9b5101"/><polygon points="667.91 264.67 667.91 649.22 78.09 649.22 78.09 264.67 373.51 25.64 667.91 264.67" fill="#f9634e"/><polygon points="373.51 25.65 78.08 264.67 78.08 340.72 373.51 101.7 667.91 340.72 667.91 264.67 373.51 25.65" opacity="0.05" fill="url(#b)"/><circle cx="373.51" cy="221.62" r="55.65" fill="#9b5101"/><path d="M738.48,309.09,391.9,28.67a25.65,25.65,0,0,0-32.52-.22L12.53,309.09A25.64,25.64,0,1,0,44.79,349L375.51,81.38,706.22,349a25.64,25.64,0,1,0,32.26-39.87Z" transform="translate(-2 -22.75)" fill="#fab233"/><path d="M737.31,341.92,390.73,61.5a25.65,25.65,0,0,0-32.53-.22L11.36,341.92a25.49,25.49,0,0,0-3,2.81l.32.43A25.65,25.65,0,0,0,44.79,349L375.51,81.38,706.22,349a25.64,25.64,0,0,0,35.23-2.82A25.78,25.78,0,0,0,737.31,341.92Z" transform="translate(-2 -22.75)" opacity="0.05" fill="url(#c)"/><path d="M381.76,189.07a54.43,54.43,0,0,0-12.5,0v49H320.21a56,56,0,0,0,0,12.5h49.05v49a54.43,54.43,0,0,0,12.5,0v-49h49a54.43,54.43,0,0,0,0-12.5h-49Z" transform="translate(-2 -22.75)" fill="#f9634e"/><path d="M669.91,434.18V672H80.09V649.11C204.28,650.37,588,637.43,669.91,434.18Z" transform="translate(-2 -22.75)" opacity="0.05" fill="url(#d)"/><rect x="427.16" y="351.19" width="153.77" height="153.77" rx="7.33" fill="#05a9e9"/><path d="M582.92,381.26V520.38a7.32,7.32,0,0,1-7.32,7.32H436.48a7.32,7.32,0,0,1-7.32-7.32V509.89c17,.77,55.21-4.65,108.18-54.62,27.55-26,33.31-55.12,29.79-81.33h8.47A7.32,7.32,0,0,1,582.92,381.26Z" transform="translate(-2 -22.75)" opacity="0.07" fill="url(#e)"/><path d="M575.6,369.49H436.48a11.79,11.79,0,0,0-11.77,11.78V520.38a11.79,11.79,0,0,0,11.77,11.78H575.6a11.79,11.79,0,0,0,11.77-11.78V381.27A11.79,11.79,0,0,0,575.6,369.49Zm2.87,11.78v65.1h-68v-68H575.6A2.88,2.88,0,0,1,578.47,381.27Zm-142-2.88h65.11v68h-68v-65.1A2.88,2.88,0,0,1,436.48,378.39Zm-2.87,142V455.27h68v68H436.48A2.88,2.88,0,0,1,433.61,520.38Zm142,2.88H510.49v-68h68v65.11A2.88,2.88,0,0,1,575.6,523.26Z" transform="translate(-2 -22.75)" fill="#f8f8f8"/><rect x="171.22" y="369.61" width="174.19" height="279.61" fill="#fab233"/><path d="M317.74,515.34H202.89a6.36,6.36,0,0,0-6.61,6v21.52a6.35,6.35,0,0,0,6.61,6.05H317.74a6.35,6.35,0,0,0,6.61-6.05V521.39A6.36,6.36,0,0,0,317.74,515.34Zm3.53,27.57a3.39,3.39,0,0,1-3.53,3.24H202.89a3.39,3.39,0,0,1-3.53-3.24V521.39a3.39,3.39,0,0,1,3.53-3.23H317.74a3.39,3.39,0,0,1,3.53,3.23Z" transform="translate(-2 -22.75)" fill="#f8f8f8"/><path d="M202.84,499.64h34.95a6.3,6.3,0,0,0,6.56-6V418.85a6.3,6.3,0,0,0-6.56-6H202.84a6.3,6.3,0,0,0-6.56,6v74.79A6.3,6.3,0,0,0,202.84,499.64Zm-3.48-80.79a3.35,3.35,0,0,1,3.48-3.18h34.95a3.35,3.35,0,0,1,3.48,3.18v74.79a3.35,3.35,0,0,1-3.48,3.18H202.84a3.35,3.35,0,0,1-3.48-3.18Z" transform="translate(-2 -22.75)" fill="#f8f8f8"/><path d="M317.79,412.85h-35a6.3,6.3,0,0,0-6.56,6v74.79a6.3,6.3,0,0,0,6.56,6h35a6.3,6.3,0,0,0,6.56-6V418.85A6.3,6.3,0,0,0,317.79,412.85Zm3.48,80.79a3.35,3.35,0,0,1-3.48,3.18h-35a3.35,3.35,0,0,1-3.48-3.18V418.85a3.35,3.35,0,0,1,3.48-3.18h35a3.35,3.35,0,0,1,3.48,3.18Z" transform="translate(-2 -22.75)" fill="#f8f8f8"/><path d="M237.79,564.66H202.84a6.31,6.31,0,0,0-6.56,6v74.78a6.31,6.31,0,0,0,6.56,6h34.95a6.31,6.31,0,0,0,6.56-6V570.67A6.31,6.31,0,0,0,237.79,564.66Zm3.48,80.79a3.35,3.35,0,0,1-3.48,3.19H202.84a3.35,3.35,0,0,1-3.48-3.19V570.67a3.35,3.35,0,0,1,3.48-3.19h34.95a3.35,3.35,0,0,1,3.48,3.19Z" transform="translate(-2 -22.75)" fill="#f8f8f8"/><path d="M317.79,564.66h-35a6.31,6.31,0,0,0-6.56,6v74.78a6.31,6.31,0,0,0,6.56,6h35a6.31,6.31,0,0,0,6.56-6V570.67A6.31,6.31,0,0,0,317.79,564.66Zm3.48,80.79a3.35,3.35,0,0,1-3.48,3.19h-35a3.35,3.35,0,0,1-3.48-3.19V570.67a3.35,3.35,0,0,1,3.48-3.19h35a3.35,3.35,0,0,1,3.48,3.19Z" transform="translate(-2 -22.75)" fill="#f8f8f8"/><rect x="160.47" y="345.61" width="195.69" height="23.99" fill="#fab233"/><rect x="160.47" y="357.61" width="195.69" height="11.99" opacity="0.07" fill="url(#f)"/><path d="M347.41,392.35V672H173.22V656.13c46.46-10.65,117-45.78,144.57-159.3,10-41.24,15.54-75.77,18.09-104.48Z" transform="translate(-2 -22.75)" opacity="0.05" fill="url(#g)"/><path d="M645.13,65.14a16.75,16.75,0,0,1-16.76,16.75h-115a16.75,16.75,0,0,1-16.75-16.75Z" transform="translate(-2 -22.75)" opacity="0.05" fill="url(#h)"/></svg>