<svg xmlns="http://www.w3.org/2000/svg" xmlns:xlink="http://www.w3.org/1999/xlink" viewBox="0 0 722 741.87"><defs><linearGradient id="a" x1="446.08" y1="90.14" x2="460.36" y2="90.14" gradientUnits="userSpaceOnUse"><stop offset="0"/><stop offset="1"/></linearGradient><linearGradient id="b" x1="614.15" y1="90.14" x2="628.43" y2="90.14" xlink:href="#a"/><linearGradient id="c" x1="424.63" y1="205.72" x2="736" y2="205.72" xlink:href="#a"/><linearGradient id="d" x1="424.63" y1="159.52" x2="662.17" y2="159.52" gradientUnits="userSpaceOnUse"><stop offset="0.01" stop-color="#fff"/><stop offset="1" stop-color="#fff"/></linearGradient><linearGradient id="e" x1="446.08" y1="376.45" x2="460.36" y2="376.45" xlink:href="#a"/><linearGradient id="f" x1="614.15" y1="376.45" x2="628.43" y2="376.45" xlink:href="#a"/><linearGradient id="g" x1="424.63" y1="494.62" x2="736" y2="494.62" xlink:href="#a"/><linearGradient id="h" x1="424.63" y1="443.72" x2="665.65" y2="443.72" xlink:href="#d"/><linearGradient id="i" x1="275.64" y1="235.43" x2="289.92" y2="235.43" gradientTransform="translate(565.55 470.86) rotate(-180)" xlink:href="#a"/><linearGradient id="j" x1="107.57" y1="235.43" x2="121.85" y2="235.43" gradientTransform="translate(229.42 470.86) rotate(-180)" xlink:href="#a"/><linearGradient id="k" x1="48.77" y1="330.02" x2="325.37" y2="330.02" xlink:href="#a"/><linearGradient id="l" x1="14" y1="302.32" x2="263.76" y2="302.32" xlink:href="#d"/><linearGradient id="m" x1="327.21" y1="661.85" x2="394.79" y2="661.85" xlink:href="#a"/><linearGradient id="n" x1="67.92" y1="727.87" x2="654.08" y2="727.87" xlink:href="#a"/></defs><path d="M91.23,685.87H630.77a23.31,23.31,0,0,1,23.31,23.31v32.68a0,0,0,0,1,0,0H67.92a0,0,0,0,1,0,0V709.19A23.31,23.31,0,0,1,91.23,685.87Z" fill="#6b777f"/><path d="M359.74,0h2.52a32.53,32.53,0,0,1,32.53,32.53V685.88a0,0,0,0,1,0,0H327.21a0,0,0,0,1,0,0V32.53A32.53,32.53,0,0,1,359.74,0Z" fill="#e7dede"/><path d="M394.79,62.76H662.38A10.6,10.6,0,0,1,673,73.36v.82a10.6,10.6,0,0,1-10.6,10.6H394.79a0,0,0,0,1,0,0v-22A0,0,0,0,1,394.79,62.76Z" fill="#6b777f"/><path d="M732.1,200.23l-36.57,54a24.1,24.1,0,0,1-20,10.58H443.86a19.22,19.22,0,0,1-19.23-19.22v-116a19.22,19.22,0,0,1,19.23-19.23h231.7a24.14,24.14,0,0,1,20,10.59l17.5,25.8h0l19.07,28.14A22.66,22.66,0,0,1,732.1,200.23Z" transform="translate(-14 -4.07)" fill="#05a9e9"/><rect x="446.08" y="84.78" width="14.28" height="21.42" fill="#6b777f"/><rect x="614.15" y="84.78" width="14.28" height="21.42" fill="#6b777f"/><rect x="446.08" y="84.78" width="14.28" height="10.71" opacity="0.1" fill="url(#a)"/><rect x="614.15" y="84.78" width="14.28" height="10.71" opacity="0.1" fill="url(#b)"/><path d="M679.3,159.73c0-.15-.09-.29-.13-.44a4.64,4.64,0,0,0-.16-.53c-.08-.17-.18-.33-.27-.5s-.13-.27-.21-.39a5.2,5.2,0,0,0-1.44-1.44c-.13-.09-.26-.14-.4-.22a4.59,4.59,0,0,0-.49-.26,5.16,5.16,0,0,0-.52-.16c-.15,0-.3-.1-.45-.13a4.57,4.57,0,0,0-1-.1H624.17a5.19,5.19,0,1,0,0,10.38h37.5L617,210.61a5.2,5.2,0,0,0,7.35,7.35L669,173.29v37.5a5.19,5.19,0,1,0,10.38,0v-50A5,5,0,0,0,679.3,159.73Z" transform="translate(-14 -4.07)" fill="#fff"/><path d="M584.34,131.42a5.2,5.2,0,0,0-5.2,5.2v101.8a5.2,5.2,0,0,0,10.39,0V136.62A5.2,5.2,0,0,0,584.34,131.42Z" transform="translate(-14 -4.07)" fill="#fff"/><path d="M548,146.66H460.08a5.2,5.2,0,0,0,0,10.39H548a5.2,5.2,0,0,0,0-10.39Z" transform="translate(-14 -4.07)" fill="#fff"/><path d="M548,180.58H460.08a5.19,5.19,0,0,0,0,10.38H548a5.19,5.19,0,1,0,0-10.38Z" transform="translate(-14 -4.07)" fill="#fff"/><path d="M548,214.49H460.08a5.2,5.2,0,0,0,0,10.39H548a5.2,5.2,0,0,0,0-10.39Z" transform="translate(-14 -4.07)" fill="#fff"/><path d="M732.1,200.23l-36.57,54a24.1,24.1,0,0,1-20,10.58H443.86a19.22,19.22,0,0,1-19.23-19.22v-8.81c56.77,3.79,248.8,9,288.4-90.06l19.07,28.14A22.66,22.66,0,0,1,732.1,200.23Z" transform="translate(-14 -4.07)" opacity="0.08" fill="url(#c)"/><path d="M662.17,110.27c-21.32,35-62.52,73.67-119.14,90.06-41,11.87-83.24,10.1-118.4,1.58V129.5a19.22,19.22,0,0,1,19.23-19.23Z" transform="translate(-14 -4.07)" opacity="0.3" fill="url(#d)"/><path d="M394.79,349.08H662.38a10.6,10.6,0,0,1,10.6,10.6v.82a10.6,10.6,0,0,1-10.6,10.6H394.79a0,0,0,0,1,0,0v-22A0,0,0,0,1,394.79,349.08Z" fill="#6b777f"/><path d="M732.1,486.54l-36.57,53.95a24.14,24.14,0,0,1-20,10.59H443.86a19.23,19.23,0,0,1-19.23-19.23v-116a19.23,19.23,0,0,1,19.23-19.24h231.7a24.14,24.14,0,0,1,20,10.59l21,31,15.56,22.95A22.66,22.66,0,0,1,732.1,486.54Z" transform="translate(-14 -4.07)" fill="#a5dd1b"/><rect x="446.08" y="371.1" width="14.28" height="21.42" fill="#6b777f"/><rect x="614.15" y="371.1" width="14.28" height="21.42" fill="#6b777f"/><rect x="446.08" y="371.1" width="14.28" height="10.71" opacity="0.1" fill="url(#e)"/><rect x="614.15" y="371.1" width="14.28" height="10.71" opacity="0.1" fill="url(#f)"/><path d="M686.5,467.69l-35.38-35.38a5,5,0,0,0-.8-.65,2.56,2.56,0,0,0-.4-.22,4.59,4.59,0,0,0-.49-.26,4.48,4.48,0,0,0-.52-.16l-.45-.14a5.23,5.23,0,0,0-1-.09h-.1a5.12,5.12,0,0,0-1,.09L646,431a4.32,4.32,0,0,0-.51.16,21.87,21.87,0,0,0-.9.48,4.88,4.88,0,0,0-.79.65l-35.39,35.38a5.19,5.19,0,0,0,7.35,7.34l26.52-26.52v63.18a5.2,5.2,0,0,0,10.39,0V448.51L679.16,475a5.19,5.19,0,0,0,7.34-7.34Z" transform="translate(-14 -4.07)" fill="#fff"/><path d="M584.34,417.74a5.19,5.19,0,0,0-5.2,5.19v101.8a5.2,5.2,0,0,0,10.39,0V422.93A5.19,5.19,0,0,0,584.34,417.74Z" transform="translate(-14 -4.07)" fill="#fff"/><path d="M548,433H460.08a5.19,5.19,0,0,0,0,10.38H548A5.19,5.19,0,1,0,548,433Z" transform="translate(-14 -4.07)" fill="#fff"/><path d="M548,466.89H460.08a5.2,5.2,0,0,0,0,10.39H548a5.2,5.2,0,0,0,0-10.39Z" transform="translate(-14 -4.07)" fill="#fff"/><path d="M548,500.81H460.08a5.19,5.19,0,0,0,0,10.38H548a5.19,5.19,0,1,0,0-10.38Z" transform="translate(-14 -4.07)" fill="#fff"/><path d="M732.1,461.12a22.66,22.66,0,0,1,0,25.42l-36.57,53.95a24.14,24.14,0,0,1-20,10.59H443.86a19.23,19.23,0,0,1-19.23-19.23v-13c50.37,5.31,208.45,13.38,291.91-80.72Z" transform="translate(-14 -4.07)" opacity="0.08" fill="url(#g)"/><path d="M665.65,396.58c-22,33.86-62.14,70.1-116.5,85.85-43.41,12.57-88.2,9.84-124.52,0V415.82a19.23,19.23,0,0,1,19.23-19.24Z" transform="translate(-14 -4.07)" opacity="0.3" fill="url(#h)"/><path d="M63,208.06H330.61a10.6,10.6,0,0,1,10.6,10.6v.82a10.6,10.6,0,0,1-10.6,10.6H63a0,0,0,0,1,0,0v-22a0,0,0,0,1,0,0Z" transform="translate(390.24 434.06) rotate(180)" fill="#6b777f"/><path d="M325.37,270.73v116A19.23,19.23,0,0,1,306.14,406H74.44a24.14,24.14,0,0,1-20-10.59l-35.92-53-.65-.95a22.68,22.68,0,0,1,0-25.43l36.57-53.94a24.14,24.14,0,0,1,20-10.59h231.7A19.23,19.23,0,0,1,325.37,270.73Z" transform="translate(-14 -4.07)" fill="#fd8d78"/><rect x="275.64" y="230.07" width="14.28" height="21.42" transform="translate(551.55 477.5) rotate(180)" fill="#6b777f"/><rect x="107.57" y="230.07" width="14.28" height="21.42" transform="translate(215.42 477.5) rotate(180)" fill="#6b777f"/><rect x="275.64" y="230.07" width="14.28" height="10.71" transform="translate(551.55 466.79) rotate(180)" opacity="0.1" fill="url(#i)"/><rect x="107.57" y="230.07" width="14.28" height="10.71" transform="translate(215.42 466.79) rotate(180)" opacity="0.1" fill="url(#j)"/><path d="M137.94,323.55H74.77L101.29,297a5.2,5.2,0,0,0-7.35-7.35L58.56,325.07a5.31,5.31,0,0,0-.64.78c-.06.09-.1.18-.15.26a5.41,5.41,0,0,0-.33.63c0,.12-.07.24-.11.36a4.76,4.76,0,0,0-.19.61,5.35,5.35,0,0,0,0,2.06,4.31,4.31,0,0,0,.19.61c0,.12.06.24.11.36a4.71,4.71,0,0,0,.33.63,2.2,2.2,0,0,0,.15.26,5.39,5.39,0,0,0,.64.79L93.94,367.8a5.2,5.2,0,1,0,7.35-7.35L74.77,333.94h63.17a5.2,5.2,0,1,0,0-10.39Z" transform="translate(-14 -4.07)" fill="#fff"/><path d="M165.66,272.65a5.19,5.19,0,0,0-5.19,5.19v101.8a5.2,5.2,0,1,0,10.39,0V277.84A5.19,5.19,0,0,0,165.66,272.65Z" transform="translate(-14 -4.07)" fill="#fff"/><path d="M202,298.27h87.92a5.19,5.19,0,0,0,0-10.38H202a5.19,5.19,0,1,0,0,10.38Z" transform="translate(-14 -4.07)" fill="#fff"/><path d="M289.92,321.8H202a5.2,5.2,0,0,0,0,10.39h87.92a5.2,5.2,0,0,0,0-10.39Z" transform="translate(-14 -4.07)" fill="#fff"/><path d="M289.92,355.72H202a5.19,5.19,0,1,0,0,10.38h87.92a5.19,5.19,0,0,0,0-10.38Z" transform="translate(-14 -4.07)" fill="#fff"/><path d="M325.37,386.76v-116a19.2,19.2,0,0,0-9.68-16.67C294.64,382.62,112.06,388.77,48.77,387l5.7,8.41a24.14,24.14,0,0,0,20,10.59H306.14A19.23,19.23,0,0,0,325.37,386.76Z" transform="translate(-14 -4.07)" opacity="0.08" fill="url(#k)"/><path d="M263.76,251.49c-18.49,35.19-59.5,76.81-117.69,93.66-45,13-91.59,8.73-127.52-2.75l-.65-.95a22.68,22.68,0,0,1,0-25.43l36.57-53.94a24.14,24.14,0,0,1,20-10.59Z" transform="translate(-14 -4.07)" opacity="0.3" fill="url(#l)"/><rect x="327.21" y="637.81" width="67.58" height="48.07" opacity="0.1" fill="url(#m)"/><rect x="67.92" y="713.87" width="586.17" height="28" opacity="0.1" fill="url(#n)"/><path d="M364.87,436.22a5.19,5.19,0,0,1-5.16-5.17l-.24-65.53a5.19,5.19,0,0,1,5.18-5.21h.06a5.19,5.19,0,0,1,5.15,5.17L370.1,431a5.19,5.19,0,0,1-5.18,5.21Z" transform="translate(-14 -4.07)" fill="#fff"/><path d="M364.37,298a5.19,5.19,0,0,1-5.16-5.17l-.87-242.31a5.2,5.2,0,1,1,10.39,0l.87,242.3a5.19,5.19,0,0,1-5.18,5.21Z" transform="translate(-14 -4.07)" fill="#fff"/></svg>