<svg xmlns="http://www.w3.org/2000/svg" xmlns:xlink="http://www.w3.org/1999/xlink" viewBox="0 0 742.13 742.13"><defs><linearGradient id="a" x1="-188.27" y1="145.42" x2="-124.98" y2="145.42" gradientTransform="translate(488.75 483.64) rotate(45)" gradientUnits="userSpaceOnUse"><stop offset="0"/><stop offset="1"/></linearGradient><linearGradient id="b" x1="85.22" y1="242.24" x2="544.47" y2="242.24" gradientTransform="translate(174.97 6.45) rotate(3.85)" xlink:href="#a"/><linearGradient id="c" x1="557.77" y1="-191.21" x2="869.13" y2="-191.21" gradientTransform="matrix(0.66, 0.13, 0.04, 0.67, -64.62, 215.64)" gradientUnits="userSpaceOnUse"><stop offset="0.01" stop-color="#fff"/><stop offset="1" stop-color="#fff"/></linearGradient><linearGradient id="d" x1="143.06" y1="261.62" x2="525.39" y2="261.62" gradientTransform="translate(178.84 11.35) rotate(3.85)" xlink:href="#a"/><linearGradient id="e" x1="-181.01" y1="336.43" x2="-110.38" y2="336.43" xlink:href="#a"/><linearGradient id="f" x1="-188.27" y1="286.22" x2="-166.35" y2="286.22" gradientTransform="translate(338.3 274.43)" xlink:href="#c"/></defs><rect x="239.48" y="449.73" width="63.29" height="60.09" transform="translate(414.79 -56.09) rotate(45)" fill="#aeecff"/><rect x="93.87" y="455.55" width="92.49" height="310.46" rx="15.03" transform="translate(469.05 74.92) rotate(45)" fill="#6b777f"/><path d="M261.6,444.54l-16,16a216.09,216.09,0,0,0,44.75,44.76l16-16A203.64,203.64,0,0,1,261.6,444.54Z" transform="translate(-3.87 -4.9)" opacity="0.07" fill="url(#a)"/><circle cx="472.83" cy="269.3" r="269.29" fill="#05a9e9"/><path d="M280.3,470.59A277.73,277.73,0,0,1,216.73,372a8.41,8.41,0,1,1,15.74-5.92,261.21,261.21,0,0,0,151.45,152,8.41,8.41,0,1,1-6,15.72A277.89,277.89,0,0,1,280.3,470.59Z" transform="translate(-3.87 -4.9)" fill="#2e81af"/><circle cx="472.83" cy="269.3" r="229.62" opacity="0.07" fill="url(#b)"/><circle cx="472.83" cy="269.3" r="210.54" fill="#aeecff"/><path d="M401.23,181.09c-51.12,44.68-74.4,101.69-92.71,80.74s-2.16-86.12,49-130.79,117.88-51.94,136.18-31S452.36,136.42,401.23,181.09Z" transform="translate(-3.87 -4.9)" opacity="0.4" fill="url(#c)"/><path d="M609.72,111a209.59,209.59,0,0,1,30.49,124.08C632.4,351.08,532,438.8,416,431a209.64,209.64,0,0,1-118.88-46.85A210.27,210.27,0,0,0,462.55,484.26c116,7.81,216.4-79.9,224.22-195.92A210.3,210.3,0,0,0,609.72,111Z" transform="translate(-3.87 -4.9)" opacity="0.07" fill="url(#d)"/><path d="M13.11,703.31l39.76,39.75c5.62,5.63,15.35,5,21.73-1.36L271,545.26c6.38-6.37,7-16.1,1.37-21.72l-6.89-6.89C234.24,553.27,105.17,697.93,13.11,703.31Z" transform="translate(-3.87 -4.9)" opacity="0.07" fill="url(#e)"/><rect x="150.03" y="477.71" width="21.92" height="165.88" rx="10.74" transform="translate(439.72 45.48) rotate(45)" opacity="0.2" fill="url(#f)"/><path d="M271.46,133.18a5.11,5.11,0,0,1-4.08-8.16A287.45,287.45,0,0,1,419.07,20.9a5.1,5.1,0,1,1,2.75,9.83A277.08,277.08,0,0,0,275.55,131.14,5.08,5.08,0,0,1,271.46,133.18Z" transform="translate(-3.87 -4.9)" fill="#efeeff"/><path d="M234,201.25a5.11,5.11,0,0,1-4.76-6.92,284,284,0,0,1,13.24-29.55,5.1,5.1,0,1,1,9.06,4.69A277.06,277.06,0,0,0,238.72,198,5.09,5.09,0,0,1,234,201.25Z" transform="translate(-3.87 -4.9)" fill="#efeeff"/></svg>