<svg xmlns="http://www.w3.org/2000/svg" xmlns:xlink="http://www.w3.org/1999/xlink" viewBox="0 0 695.32 741.4"><defs><linearGradient id="a" x1="472.26" y1="695.61" x2="579.75" y2="695.61" gradientUnits="userSpaceOnUse"><stop offset="0"/><stop offset="1"/></linearGradient><linearGradient id="b" x1="490.99" y1="490.88" x2="628.31" y2="490.88" xlink:href="#a"/><linearGradient id="c" x1="497.68" y1="572.5" x2="691.43" y2="572.5" xlink:href="#a"/><linearGradient id="d" x1="-2051.9" y1="-657.45" x2="-1971.96" y2="-657.45" gradientTransform="matrix(0.39, 0.72, -0.69, 0.38, 842.93, 2101.23)" gradientUnits="userSpaceOnUse"><stop offset="0.01" stop-color="#fff"/><stop offset="1" stop-color="#fff"/></linearGradient><linearGradient id="e" x1="78.95" y1="443" x2="156.81" y2="443" xlink:href="#a"/><linearGradient id="f" x1="100.06" y1="295.87" x2="199.53" y2="295.87" xlink:href="#a"/><linearGradient id="g" x1="104.9" y1="355" x2="245.25" y2="355" xlink:href="#a"/><linearGradient id="h" x1="390.42" y1="167.64" x2="441.12" y2="167.64" xlink:href="#a"/><linearGradient id="i" x1="413.7" y1="73.34" x2="478.47" y2="73.34" xlink:href="#a"/><linearGradient id="j" x1="416.86" y1="111.85" x2="508.24" y2="111.85" xlink:href="#a"/><linearGradient id="k" x1="-2484.72" y1="-781.53" x2="-2445.89" y2="-781.53" xlink:href="#d"/><linearGradient id="l" x1="-2425.8" y1="-289.77" x2="-2379.41" y2="-289.77" xlink:href="#d"/></defs><path d="M722.66,740V622.29c-182.14-21-363.9-73.13-372.74-132-14-92.91,222.39-146.55,214.75-242.38C557.25,154.78,305.79,116.67,303.42,73,302.5,56.1,337.71,26.35,369.65,4.3H283.37c-36.76,21.3-72,49.72-80.44,79.82C184.24,150.42,393.44,205.29,372.53,242c-21,36.93-319.13,117.8-343.25,267.75C15.54,595.19,76.5,682.44,152.46,742.12h570.2Z" transform="translate(-27.34 -4.3)" fill="#747b7f"/><path d="M394.08,240.9c2-6.19,1.22-12.44-2.23-18.57-9.31-16.52-42.67-35.51-78-55.62-42.07-24-89.76-51.1-93-74-2.76-19.52,34-58.61,82.68-88.44h-7.72c-47.85,30.53-81.92,68.46-79,89,3.52,24.86,50,51.34,95,76.95,34.81,19.82,67.69,38.54,76.45,54.08,2.91,5.17,3.53,10.18,1.89,15.32-6.36,20-45.71,38.59-87.38,58.28l-6.16,2.91c-50.21,23.78-107.9,52.07-157.28,87.1C71.6,436,52,482.19,47.47,512.46,42.22,547.67,58,593.87,91.8,642.54c27.44,39.45,63.84,75.69,99.61,99.58h7.49c-37-23.48-75.24-60.93-103.74-101.92-33.25-47.81-48.74-93-43.64-127.14,6.31-42.28,37.5-84.39,90.2-121.78,49.11-34.83,106.62-63,156.67-86.73l6.16-2.92C347,281.55,387.18,262.59,394.08,240.9ZM465.51,588C380.86,559.84,337.1,528.79,331.73,493c-8.93-59.48,52.57-101.39,112-141.91,8.34-5.69,17-11.21,25.32-16.54,40.28-25.74,78.33-50.06,77.28-88.72-.37-13.57-12.74-35.5-39-51.56-29.22-17.86-69.31-35-107.87-51q-8.12-3.37-15.61-6.46c-32-13.2-55.07-22.74-70.37-32.51C298,94.44,291.6,84.91,292,72.44c.58-19.31,33.31-47.34,65.19-68.14H349.8C328,19,288.6,48.94,287.89,72.32c-.88,28.93,31,42.07,94.42,68.27,5,2.07,10.2,4.21,15.6,6.46,38.42,16,78.34,33,107.31,50.73C534,215.35,542.05,237,542.29,246c1,36.35-36.11,60.06-75.39,85.17-8.37,5.35-17,10.88-25.43,16.6C381,389,318.37,431.61,327.69,493.62c5.62,37.44,50.28,69.57,136.53,98.21,60.64,20.14,164,41.63,258.44,53.82v-4.12C628.58,629.36,525.82,608,465.51,588Z" transform="translate(-27.34 -4.3)" fill="#fff"/><path d="M528.3,745.7a3.57,3.57,0,0,1-.92-.12c-.26-.07-26.11-7-62.88-20.19a3.58,3.58,0,1,1,2.42-6.73c36.48,13.13,62,19.94,62.29,20a3.58,3.58,0,0,1-.91,7Z" transform="translate(-27.34 -4.3)" fill="#fff"/><path d="M406.2,702a3.63,3.63,0,0,1-1.43-.3,731,731,0,0,1-86.64-44.38,3.58,3.58,0,0,1,3.71-6.12,721.22,721.22,0,0,0,85.79,43.94A3.58,3.58,0,0,1,406.2,702Z" transform="translate(-27.34 -4.3)" fill="#fff"/><path d="M278.65,632.94a3.56,3.56,0,0,1-2.27-.82c-18.75-15.41-45.44-38.75-60.59-63.45a3.57,3.57,0,1,1,6.09-3.74c14.6,23.78,40.69,46.58,59,61.67a3.57,3.57,0,0,1-2.27,6.34Z" transform="translate(-27.34 -4.3)" fill="#fff"/><path d="M193.38,516.49a3.08,3.08,0,0,1-3-2.33,131.58,131.58,0,0,1-3.89-31.64c0-10.87,4.39-22.51,13-34.62a3.07,3.07,0,1,1,5,3.57c-7.9,11-11.9,21.49-11.9,31a125.4,125.4,0,0,0,3.71,30.16,3.07,3.07,0,0,1-3,3.81Z" transform="translate(-27.34 -4.3)" fill="#fff"/><path d="M239.41,415.59a3.07,3.07,0,0,1-2-5.41c17.16-14.54,38.7-28.77,55.54-39.55a3.06,3.06,0,1,1,3.3,5.16c-16.68,10.68-38,24.76-54.88,39.07A3,3,0,0,1,239.41,415.59Z" transform="translate(-27.34 -4.3)" fill="#fff"/><path d="M340.9,347.18a2.55,2.55,0,0,1-1.3-4.75c6.5-3.84,11.77-6.91,16.67-9.77,8-4.67,14.92-8.7,24.57-14.53a2.56,2.56,0,0,1,2.64,4.38c-9.68,5.84-16.61,9.88-24.63,14.56-4.9,2.85-10.16,5.93-16.65,9.76A2.57,2.57,0,0,1,340.9,347.18Z" transform="translate(-27.34 -4.3)" fill="#fff"/><path d="M418.75,300.17a2.56,2.56,0,0,1-1.41-4.69c13.92-9.18,24.42-17.07,32.13-24.12a2.55,2.55,0,1,1,3.45,3.76c-7.91,7.24-18.62,15.29-32.76,24.62A2.51,2.51,0,0,1,418.75,300.17Z" transform="translate(-27.34 -4.3)" fill="#fff"/><path d="M468.28,244.29a2.57,2.57,0,0,1-2.5-2c-1.55-7.08-5.78-14.52-12.58-22.11a2.55,2.55,0,1,1,3.8-3.41c7.4,8.25,12,16.47,13.78,24.43a2.56,2.56,0,0,1-1.95,3A2.64,2.64,0,0,1,468.28,244.29Z" transform="translate(-27.34 -4.3)" fill="#fff"/><path d="M428.77,198.62a2.57,2.57,0,0,1-1.46-.46c-7.74-5.41-16.62-11-27.15-17a2.56,2.56,0,0,1,2.55-4.43c10.65,6.11,19.66,11.76,27.53,17.26a2.54,2.54,0,0,1,.63,3.55A2.57,2.57,0,0,1,428.77,198.62Z" transform="translate(-27.34 -4.3)" fill="#fff"/><path d="M377.08,168.16a2.51,2.51,0,0,1-1.18-.29c-9.95-5.22-20.13-10.37-29.71-15.19a2.55,2.55,0,0,1,2.3-4.56c9.6,4.83,19.8,10,29.78,15.23a2.55,2.55,0,0,1-1.19,4.81Z" transform="translate(-27.34 -4.3)" fill="#fff"/><path d="M326.1,142.23a2.54,2.54,0,0,1-1.16-.28c-9.05-4.62-21.92-11.35-30.9-16.39a2.55,2.55,0,1,1,2.5-4.45c8.92,5,21.72,11.69,30.72,16.29a2.55,2.55,0,0,1-1.16,4.83Z" transform="translate(-27.34 -4.3)" fill="#fff"/><path d="M277.56,114.79a2.55,2.55,0,0,1-1.44-.45c-6-4.13-18.53-12.72-20.13-22.84a2.55,2.55,0,0,1,5-.8c1.26,8,12.55,15.7,18,19.43a2.55,2.55,0,0,1-1.45,4.66Z" transform="translate(-27.34 -4.3)" fill="#fff"/><path d="M259.29,73.12a2.46,2.46,0,0,1-1.08-.24A2.55,2.55,0,0,1,257,69.49,93.3,93.3,0,0,1,267.23,53a2.56,2.56,0,0,1,4.07,3.09,88.51,88.51,0,0,0-9.7,15.6A2.54,2.54,0,0,1,259.29,73.12Z" transform="translate(-27.34 -4.3)" fill="#fff"/><path d="M280.19,44.14a2.57,2.57,0,0,1-1.88-4.3c4-4.34,8.54-8.83,13.38-13.33a2.55,2.55,0,0,1,3.48,3.74c-4.75,4.42-9.17,8.82-13.11,13.07A2.56,2.56,0,0,1,280.19,44.14Z" transform="translate(-27.34 -4.3)" fill="#fff"/><path d="M303.08,22.33a2.55,2.55,0,0,1-1.66-4.49c4.4-3.77,8.86-7.39,13.23-10.75a2.56,2.56,0,1,1,3.12,4.05c-4.31,3.31-8.69,6.87-13,10.58A2.54,2.54,0,0,1,303.08,22.33Z" transform="translate(-27.34 -4.3)" fill="#fff"/><ellipse cx="526" cy="695.61" rx="53.74" ry="17.31" opacity="0.1" fill="url(#a)"/><path d="M691.43,483c0,133.18-138.09,217-138.09,217S415.26,616.14,415.26,483a138.09,138.09,0,1,1,276.17,0Z" transform="translate(-27.34 -4.3)" fill="#f9634e"/><circle cx="526" cy="478.66" r="74.97" fill="#f8f8f8"/><path d="M599.4,423.82A75,75,0,0,1,491,524.6,75,75,0,1,0,599.4,423.82Z" transform="translate(-27.34 -4.3)" opacity="0.1" fill="url(#b)"/><path d="M686.17,445.09c-1.83,30.51-10.27,62.4-25.89,93-36.27,71-101,114.87-162.6,117.11,29.53,28.87,55.66,44.73,55.66,44.73S691.43,616.14,691.43,483A138.34,138.34,0,0,0,686.17,445.09Z" transform="translate(-27.34 -4.3)" opacity="0.1" fill="url(#c)"/><path d="M532.15,438c-41.78,22.62-73.84,42.34-81.8,27.63S458,404,499.83,381.34s93.86-12.32,101.82,2.4S573.93,415.38,532.15,438Z" transform="translate(-27.34 -4.3)" opacity="0.3" fill="url(#d)"/><ellipse cx="117.88" cy="443" rx="38.93" ry="12.54" opacity="0.1" fill="url(#e)"/><path d="M245.25,290.14c0,96.48-100,157.16-100,157.16s-100-60.68-100-157.16a100,100,0,0,1,200.06,0Z" transform="translate(-27.34 -4.3)" fill="#fab233"/><circle cx="117.88" cy="285.84" r="54.31" fill="#f8f8f8"/><path d="M178.58,247.3a54.3,54.3,0,0,1-78.52,73,54.3,54.3,0,1,0,78.52-73Z" transform="translate(-27.34 -4.3)" opacity="0.1" fill="url(#f)"/><path d="M241.44,262.71a171,171,0,0,1-18.76,67.35c-26.27,51.43-73.13,83.21-117.78,84.83,21.39,20.92,40.32,32.41,40.32,32.41s100-60.68,100-157.16A100.07,100.07,0,0,0,241.44,262.71Z" transform="translate(-27.34 -4.3)" opacity="0.1" fill="url(#g)"/><ellipse cx="415.77" cy="167.64" rx="25.35" ry="8.17" opacity="0.1" fill="url(#h)"/><path d="M508.24,69.61c0,62.82-65.13,102.33-65.13,102.33S378,132.43,378,69.61a65.13,65.13,0,0,1,130.26,0Z" transform="translate(-27.34 -4.3)" fill="#05a9e9"/><circle cx="415.77" cy="65.31" r="35.36" fill="#f8f8f8"/><path d="M464.84,41.72A35.36,35.36,0,0,1,413.7,89.25a35.36,35.36,0,1,0,51.14-47.53Z" transform="translate(-27.34 -4.3)" opacity="0.1" fill="url(#i)"/><path d="M505.77,51.75A111.54,111.54,0,0,1,493.55,95.6c-17.11,33.49-47.62,54.19-76.69,55.24a163.4,163.4,0,0,0,26.25,21.1s65.13-39.51,65.13-102.33A65.34,65.34,0,0,0,505.77,51.75Z" transform="translate(-27.34 -4.3)" opacity="0.1" fill="url(#j)"/><path d="M434.53,50.73c-20.29,11-35.86,20.57-39.73,13.42s3.74-29.95,24-40.93,45.59-6,49.46,1.16S454.82,39.75,434.53,50.73Z" transform="translate(-27.34 -4.3)" opacity="0.3" fill="url(#k)"/><path d="M118.72,283.39c-24.25,13.12-42.85,24.57-47.47,16s4.46-35.78,28.71-48.9,54.47-7.15,59.09,1.38S143,270.27,118.72,283.39Z" transform="translate(-27.34 -4.3)" opacity="0.3" fill="url(#l)"/></svg>